<?xml version="1.0" encoding="UTF-8" standalone="no"?>
<!-- Created with Inkscape (http://www.inkscape.org/) -->

<svg
   width="210mm"
   height="297mm"
   viewBox="0 0 210 297"
   version="1.1"
   id="svg1"
   xml:space="preserve"
   inkscape:version="1.4.3 (unknown)"
   sodipodi:docname="crow.svg"
   xmlns:inkscape="http://www.inkscape.org/namespaces/inkscape"
   xmlns:sodipodi="http://sodipodi.sourceforge.net/DTD/sodipodi-0.dtd"
   xmlns="http://www.w3.org/2000/svg"
   xmlns:svg="http://www.w3.org/2000/svg"><sodipodi:namedview
     id="namedview1"
     pagecolor="#ffffff"
     bordercolor="#000000"
     borderopacity="0.25"
     inkscape:showpageshadow="2"
     inkscape:pageopacity="0.0"
     inkscape:pagecheckerboard="0"
     inkscape:deskcolor="#d1d1d1"
     inkscape:document-units="mm"
     inkscape:zoom="0.4338454"
     inkscape:cx="285.8161"
     inkscape:cy="298.49343"
     inkscape:window-width="1366"
     inkscape:window-height="696"
     inkscape:window-x="0"
     inkscape:window-y="0"
     inkscape:window-maximized="1"
     inkscape:current-layer="layer1" /><defs
     id="defs1" /><g
     inkscape:label="Layer 1"
     inkscape:groupmode="layer"
     id="layer1"><rect
       style="fill:#00ffff;stroke-width:0.612338"
       id="rect1"
       width="208.57083"
       height="295.08646"
       x="1.8295683"
       y="1.829565" /><path
       style="fill:#0d0f2a;stroke:none;stroke-width:0.685701"
       d="m 0.93080328,185.37697 v 6.97666 C 6.5547761,192.2515 12.152734,191.00534 17.759512,190.66724 c 8.103076,-0.48862 16.270872,-0.19239 24.372612,-0.5613 4.561202,-0.20768 9.163803,-0.47491 13.733773,-0.47491 1.478532,0 3.618324,-0.46308 5.014943,-0.11607 1.386777,0.34458 -0.797623,2.70418 -1.141499,3.34916 -1.454534,2.72819 -5.162579,6.19972 -2.420154,9.34909 2.417711,2.77649 5.053737,3.70661 8.992117,3.75027 0.915886,0.01 2.043282,-0.51225 2.900758,-0.36067 0.752062,0.13295 1.301525,0.89118 1.942692,1.23564 1.621357,0.87109 3.658601,1.91022 5.601954,1.97618 3.266291,0.11082 8.923069,-1.28624 10.902273,-3.69946 1.180883,-1.43983 1.370007,-3.40796 1.686427,-5.10422 0.659945,-3.53782 1.254388,-7.30581 1.338508,-10.89041 2.6518,-0.1841 6.101188,-0.58839 8.70137,0.0125 1.080284,0.24964 1.025404,1.94601 2.125974,1.82937 1.11666,-0.11835 1.07386,-1.64276 2.32687,-1.81664 5.74031,-0.7965 11.98301,-0.0306 17.79513,-0.38075 7.91464,-0.47681 15.87185,-1.54475 23.79231,-1.84987 6.50062,-0.25044 13.03616,0.23704 19.53678,-0.0134 9.54302,-0.36764 19.09628,-0.62491 28.62816,-1.19966 5.40228,-0.32577 10.83091,-1.17591 16.2484,-1.17591 v -7.14683 c -11.50498,0 -23.18361,2.07626 -34.62459,3.03403 -5.84314,0.48917 -11.9257,0.075 -17.79587,0.20155 -7.68073,0.16556 -15.34448,0.72954 -23.01859,1.02518 -7.51742,0.28961 -15.51094,1.85486 -23.01841,0.80774 -0.86746,-0.12099 -1.22157,-0.87358 -1.97494,-1.02754 -1.22102,-0.24953 -1.78671,1.35504 -3.22777,0.56394 -0.71254,-0.39116 -3.08329,-1.98781 -3.11673,-2.72655 -0.0559,-1.23577 2.59538,-2.49595 3.38403,-3.41047 2.11157,-2.44856 3.28533,-5.65958 4.51122,-8.50747 1.48681,-3.45407 2.47409,-7.05293 3.81224,-10.55008 1.0964,-2.86534 2.69871,-6.01344 3.15361,-9.01861 0.38936,-2.57236 0.64076,-5.40366 0.40372,-7.99764 -0.13709,-1.50027 -1.03251,-3.48293 -0.28821,-4.93471 0.95253,-1.85796 3.0637,-2.89765 4.49822,-4.42422 0.61607,-0.65562 1.06682,-1.64233 2.10942,-1.84948 1.35634,-0.26949 3.11029,0.48734 4.53091,0.48817 -0.25027,-1.42667 -1.94723,-2.22853 -3.28838,-2.84931 -0.65468,-0.30304 -1.76296,-0.66342 -1.86388,-1.41158 -0.26152,-1.93877 2.45224,-3.42352 4.18509,-3.94761 0.5517,-0.16686 2.48373,-0.24056 1.80627,-1.11735 -1.32647,-1.71671 -5.26159,-1.02867 -7.22241,-1.25627 -1.65842,-0.1925 -3.17314,-1.14781 -4.83583,-1.45084 -4.29658,-0.78306 -8.35599,0.36278 -11.99287,2.28131 -3.60481,1.90162 -7.565867,3.1276 -11.219142,4.89113 -1.873614,0.90444 -3.183364,2.40958 -5.029269,3.26065 -2.448355,1.12885 -4.646894,1.38802 -6.90763,3.03405 -1.895611,1.38018 -2.92953,3.58135 -4.223298,5.37232 -3.4544,4.78192 -6.52217,8.81775 -7.891072,14.46382 -0.294466,1.21453 -0.01127,2.39831 -0.235672,3.57341 -1.319316,6.91015 -2.650619,13.78546 -3.678818,20.75982 -0.322016,2.18427 1.547822,6.43036 -1.085671,8.0218 -1.174893,0.71 -3.608077,0.41806 -4.992855,0.50156 -3.80508,0.22945 -7.61516,0.5412 -11.412572,0.86449 -6.02848,0.51318 -12.136602,-0.0916 -18.182743,-0.0283 -10.079349,0.10548 -20.136724,0.66367 -30.17561472,1.36065 M 99.581851,172.78492 c 0,1.46399 -0.361427,2.98087 -0.0447,4.42423 0.186563,0.84993 1.146619,1.65391 0.949419,2.53721 -0.597122,2.67462 -3.853043,2.22734 -6.127492,2.22734 -0.672093,0 -2.230936,0.25154 -2.702696,-0.27283 -0.402557,-0.44747 -0.134454,-1.26412 -0.05984,-1.76912 0.215108,-1.45618 0.367841,-3.74851 2.022396,-4.56392 0.879298,-0.43336 1.971128,-0.0297 2.860304,-0.5168 1.2192,-0.66783 1.528214,-1.91144 3.102547,-2.06611 z"
       id="path1" /></g></svg>
