<svg xmlns="http://www.w3.org/2000/svg" xml:space="preserve" width="210mm" height="297mm" viewBox="0 0 210 297"><path d="M1.83 1.83h208.571v295.086H1.83z" style="fill:#0ff;stroke-width:.612338"/><path d="M.93 185.377v6.977c5.625-.103 11.223-1.349 16.83-1.687 8.103-.488 16.27-.192 24.372-.561 4.561-.208 9.164-.475 13.734-.475 1.478 0 3.618-.463 5.015-.116 1.387.345-.798 2.704-1.142 3.35-1.454 2.727-5.162 6.199-2.42 9.348 2.418 2.777 5.054 3.707 8.992 3.75.916.01 2.044-.512 2.901-.36.752.133 1.302.891 1.943 1.235 1.621.872 3.658 1.91 5.602 1.977 3.266.11 8.923-1.287 10.902-3.7 1.18-1.44 1.37-3.408 1.686-5.104.66-3.538 1.255-7.306 1.339-10.89 2.652-.185 6.101-.589 8.701.012 1.08.25 1.026 1.946 2.126 1.83 1.117-.119 1.074-1.643 2.327-1.817 5.74-.797 11.983-.03 17.795-.381 7.915-.477 15.872-1.545 23.793-1.85 6.5-.25 13.036.237 19.536-.013 9.543-.368 19.097-.625 28.629-1.2 5.402-.326 10.83-1.176 16.248-1.176v-7.147c-11.505 0-23.184 2.077-34.625 3.034-5.843.49-11.925.075-17.796.202-7.68.165-15.344.73-23.018 1.025-7.518.29-15.511 1.855-23.019.808-.867-.121-1.221-.874-1.974-1.028-1.222-.25-1.787 1.355-3.228.564-.713-.39-3.084-1.988-3.117-2.726-.056-1.236 2.595-2.496 3.384-3.41 2.112-2.45 3.285-5.66 4.511-8.508 1.487-3.454 2.474-7.053 3.812-10.55 1.097-2.866 2.7-6.014 3.154-9.019.39-2.572.64-5.404.404-7.998-.137-1.5-1.033-3.482-.288-4.934.952-1.858 3.063-2.898 4.498-4.424.616-.656 1.067-1.643 2.11-1.85 1.356-.27 3.11.487 4.53.488-.25-1.426-1.947-2.228-3.288-2.85-.655-.302-1.763-.663-1.864-1.41-.262-1.94 2.452-3.424 4.185-3.948.552-.167 2.484-.24 1.806-1.118-1.326-1.716-5.261-1.028-7.222-1.256-1.659-.192-3.173-1.148-4.836-1.45-4.297-.784-8.356.362-11.993 2.28-3.605 1.902-7.566 3.128-11.219 4.892-1.874.904-3.183 2.41-5.03 3.26-2.448 1.13-4.646 1.388-6.907 3.034-1.895 1.38-2.93 3.582-4.223 5.373-3.455 4.782-6.522 8.817-7.891 14.464-.295 1.214-.012 2.398-.236 3.573-1.32 6.91-2.65 13.785-3.679 20.76-.322 2.184 1.548 6.43-1.085 8.022-1.175.71-3.608.418-4.993.501-3.805.23-7.615.541-11.413.865-6.028.513-12.136-.092-18.183-.029-10.079.106-20.136.664-30.175 1.36m98.65-12.591c0 1.464-.36 2.98-.044 4.424.187.85 1.147 1.654.95 2.537-.598 2.675-3.853 2.228-6.128 2.228-.672 0-2.23.251-2.703-.273-.402-.448-.134-1.264-.06-1.77.216-1.455.368-3.748 2.023-4.563.88-.434 1.971-.03 2.86-.517 1.22-.668 1.528-1.911 3.103-2.066" style="fill:#0d0f2a;stroke:none;stroke-width:.685701"/></svg>