<?xml version="1.0" encoding="UTF-8" standalone="no"?>
<svg
   width="50"
   height="50"
   version="1.1"
   id="svg1"
   sodipodi:docname="email.svg"
   inkscape:version="1.4.3 (0d15f75, 2025-12-25)"
   xmlns:inkscape="http://www.inkscape.org/namespaces/inkscape"
   xmlns:sodipodi="http://sodipodi.sourceforge.net/DTD/sodipodi-0.dtd"
   xmlns="http://www.w3.org/2000/svg"
   xmlns:svg="http://www.w3.org/2000/svg">
  <defs
     id="defs1" />
  <sodipodi:namedview
     id="namedview1"
     pagecolor="#ffffff"
     bordercolor="#000000"
     borderopacity="0.25"
     inkscape:showpageshadow="2"
     inkscape:pageopacity="0.0"
     inkscape:pagecheckerboard="0"
     inkscape:deskcolor="#d1d1d1"
     inkscape:zoom="2.1657609"
     inkscape:cx="-13.390213"
     inkscape:cy="-7.156838"
     inkscape:window-width="1366"
     inkscape:window-height="697"
     inkscape:window-x="-8"
     inkscape:window-y="-8"
     inkscape:window-maximized="1"
     inkscape:current-layer="svg1" />
  <path
     d="m 7.478009,50 c -1.95504,-0.407609 -4.20333,-2.038043 -5.4741,-4.211957 a 8.9931574,12.5 0 0 1 -1.857281,-6.11413 c -0.195504,-1.358696 -0.195504,-27.853261 0,-29.347826 C 0.537635,6.11413 2.590419,2.445652 5.425219,0.815217 7.086999,0 5.522919,0 25.073319,0 c 16.61779,0 17.79081,0 18.37732,0.271739 a 8.6021505,11.956522 0 0 1 6.25611,7.880435 L 49.999999,9.375 v 31.25 l -0.29325,1.358696 q -0.87977,3.260869 -2.6393,5.298913 c -0.78201,0.951087 -2.34604,2.038043 -3.42131,2.445652 L 42.864129,50 Z m 35.58162,-5.434783 c 0.58651,-0.271739 1.75953,-1.358695 1.75953,-1.494565 0,-0.135869 -13.78299,-17.798913 -14.07625,-17.934782 -0.0977,-0.13587 -0.58651,0.271739 -1.27077,0.951087 -2.15054,1.902173 -3.32356,2.581521 -4.49658,2.445652 -1.17302,-0.13587 -2.44379,-0.951087 -4.49658,-2.717392 C 19.990229,25.407609 19.501469,25 19.403719,25.13587 l -13.9785,17.934782 c 0,0.13587 0.58651,0.815218 1.07527,1.086957 0.87977,0.679348 0.48876,0.679348 18.76833,0.543478 z M 10.410559,29.347826 16.177909,22.01087 3.958949,10.869565 3.861149,24.320652 v 13.451087 l 0.39101,-0.543478 z m 35.97263,-5.027174 -0.0977,-13.451087 c -0.19551,0 -12.21897,11.005435 -12.21897,11.141305 l 12.21897,15.760869 z m -20.62561,-1.358695 c 0.391,-0.13587 18.27957,-16.440218 18.37732,-16.576087 0,-0.27174 -0.78201,-0.679348 -1.46628,-0.951087 l -17.79081,-0.13587 c -13.19648,0 -17.2043,0.13587 -17.59531,0.271739 -0.58651,0.13587 -1.27077,0.543478 -1.17302,0.815218 a 899.90225,1250.8152 0 0 0 18.96384,16.847826 z"
     style="fill:#ff0000;stroke-width:0.115245"
     id="path1" />
</svg>
