<?xml version="1.0" encoding="UTF-8" standalone="no"?>
<svg
   width="512"
   height="368"
   version="1.1"
   id="svg1"
   sodipodi:docname="email-icon.svg"
   inkscape:version="1.4.4 (unknown)"
   xmlns:inkscape="http://www.inkscape.org/namespaces/inkscape"
   xmlns:sodipodi="http://sodipodi.sourceforge.net/DTD/sodipodi-0.dtd"
   xmlns="http://www.w3.org/2000/svg"
   xmlns:svg="http://www.w3.org/2000/svg">
  <defs
     id="defs1" />
  <sodipodi:namedview
     id="namedview1"
     pagecolor="#ffffff"
     bordercolor="#000000"
     borderopacity="0.25"
     inkscape:showpageshadow="2"
     inkscape:pageopacity="0.0"
     inkscape:pagecheckerboard="0"
     inkscape:deskcolor="#d1d1d1"
     inkscape:zoom="2.1657609"
     inkscape:cx="256.03011"
     inkscape:cy="184"
     inkscape:window-width="1920"
     inkscape:window-height="1006"
     inkscape:window-x="0"
     inkscape:window-y="0"
     inkscape:window-maximized="1"
     inkscape:current-layer="svg1" />
  <path
     d="M75 449c-20-3-43-15-56-31a92 92 0 0 1-19-45c-2-10-2-205 0-216 4-31 25-58 54-70 17-6 1-6 201-6 170 0 182 0 188 2a88 88 0 0 1 64 58l3 9v230l-3 10q-9 24-27 39c-8 7-24 15-35 18l-8 2zm364-40c6-2 18-10 18-11S316 267 313 266c-1-1-6 2-13 7-22 14-34 19-46 18s-25-7-46-20c-5-3-10-6-11-5L54 398c0 1 6 6 11 8 9 5 5 5 192 4zM105 297l59-54-125-82-1 99v99l4-4zm368-37-1-99c-2 0-125 81-125 82l125 116zm-211-10c4-1 187-121 188-122 0-2-8-5-15-7l-182-1c-135 0-176 1-180 2-6 1-13 4-12 6a9206 9206 0 0 0 194 124z"
     style="fill:#ff0000"
     transform="translate(1 -81)"
     id="path1" />
</svg>
