<?xml version="1.0" encoding="UTF-8" standalone="no"?>
<svg
   width="33"
   height="33"
   viewBox="0 0 44 44"
   version="1.1"
   id="svg1"
   sodipodi:docname="github.svg"
   inkscape:version="1.4.4 (unknown)"
   xmlns:inkscape="http://www.inkscape.org/namespaces/inkscape"
   xmlns:sodipodi="http://sodipodi.sourceforge.net/DTD/sodipodi-0.dtd"
   xmlns="http://www.w3.org/2000/svg"
   xmlns:svg="http://www.w3.org/2000/svg">
  <defs
     id="defs1" />
  <sodipodi:namedview
     id="namedview1"
     pagecolor="#ffffff"
     bordercolor="#000000"
     borderopacity="0.25"
     inkscape:showpageshadow="2"
     inkscape:pageopacity="0.0"
     inkscape:pagecheckerboard="0"
     inkscape:deskcolor="#d1d1d1"
     inkscape:zoom="24.151515"
     inkscape:cx="16.5"
     inkscape:cy="16.5"
     inkscape:window-width="1920"
     inkscape:window-height="1006"
     inkscape:window-x="0"
     inkscape:window-y="0"
     inkscape:window-maximized="1"
     inkscape:current-layer="svg1" />
  <path
     d="M22 0a22 22 0 1 0 0 44 22 22 0 0 0 0-44m0 4a18 18 0 0 1 5 35v-5l-1-3s8 0 8-10l-1-5s1-4-1-6l-5 2H17l-5-2c-2 2-1 6-1 6l-1 5c0 10 8 10 8 10l-1 2-2 1c-2 0-3-2-4-3l-2-1H8l1 2c2 1 2 4 6 4h2v3a18 18 0 0 1 5-35"
     style="fill:#ff0000"
     id="path1" />
</svg>
