<?xml version="1.0" encoding="UTF-8" standalone="no"?>
<!-- Created with Inkscape (http://www.inkscape.org/) -->

<svg
   width="50mm"
   height="50mm"
   viewBox="0 0 50 50"
   version="1.1"
   id="svg1"
   xml:space="preserve"
   inkscape:version="1.4.3 (0d15f75, 2025-12-25)"
   sodipodi:docname="linkedin.svg"
   xmlns:inkscape="http://www.inkscape.org/namespaces/inkscape"
   xmlns:sodipodi="http://sodipodi.sourceforge.net/DTD/sodipodi-0.dtd"
   xmlns="http://www.w3.org/2000/svg"
   xmlns:svg="http://www.w3.org/2000/svg"><sodipodi:namedview
     id="namedview1"
     pagecolor="#ffffff"
     bordercolor="#000000"
     borderopacity="0.25"
     inkscape:showpageshadow="2"
     inkscape:pageopacity="0.0"
     inkscape:pagecheckerboard="0"
     inkscape:deskcolor="#d1d1d1"
     inkscape:document-units="mm"
     inkscape:zoom="0.44097222"
     inkscape:cx="117.92126"
     inkscape:cy="128.12598"
     inkscape:window-width="1366"
     inkscape:window-height="697"
     inkscape:window-x="-8"
     inkscape:window-y="-8"
     inkscape:window-maximized="1"
     inkscape:current-layer="layer1" /><defs
     id="defs1" /><g
     inkscape:label="Layer 1"
     inkscape:groupmode="layer"
     id="layer1"
     transform="translate(-73.51458,-114.32083)"><path
       d="M 118.99167,114.32083 H 78.037486 c -2.497906,0 -4.522906,2.025 -4.522906,4.52291 v 40.95405 c 0,2.49804 2.025,4.52304 4.522906,4.52304 h 40.954054 c 2.49804,0 4.52304,-2.025 4.52304,-4.52304 v -40.95405 c 0,-2.49791 -2.025,-4.52291 -4.52291,-4.52291 m -30.004971,43.1733 c 0,0.72696 -0.589266,1.31623 -1.316229,1.31623 h -5.602878 c -0.726964,0 -1.316233,-0.58927 -1.316233,-1.31623 v -23.48704 c 0,-0.72696 0.589269,-1.31623 1.316233,-1.31623 h 5.602878 c 0.726963,0 1.316229,0.58926 1.316229,1.31623 z m -4.11767,-27.01728 c -2.939659,0 -5.322774,-2.38311 -5.322774,-5.32277 0,-2.93966 2.383115,-5.32278 5.322774,-5.32278 2.93966,0 5.322775,2.38312 5.322775,5.32278 0,2.93966 -2.382982,5.32277 -5.322775,5.32277 m 33.398171,27.1233 a 1.2103403,1.2103403 0 0 1 -1.21021,1.21021 h -6.01231 a 1.2103403,1.2103403 0 0 1 -1.21021,-1.21021 V 146.5834 c 0,-1.64346 0.48207,-7.20171 -4.29489,-7.20171 -3.70537,0 -4.45694,3.80446 -4.60785,5.51178 v 12.70668 a 1.2102094,1.2102094 0 0 1 -1.210213,1.21021 h -5.814921 a 1.2103403,1.2103403 0 0 1 -1.21021,-1.21021 v -23.69908 a 1.2103403,1.2103403 0 0 1 1.21021,-1.21021 h 5.814921 a 1.2103403,1.2103403 0 0 1 1.210213,1.21021 v 2.04908 c 1.37395,-2.06191 3.41583,-3.6534 7.76335,-3.6534 9.62722,0 9.57212,8.99424 9.57212,13.93612 z"
       style="fill:#ff0000;stroke-width:0.13089"
       id="path1" /></g></svg>
