<svg xmlns="http://www.w3.org/2000/svg" xml:space="preserve" width="345.6" height="251.631" viewBox="0 0 91.44 66.577"><path d="M57.199 181.283v-.748l.698-.3c.384-.166.794-.33.91-.363.117-.034.747-.384 1.402-.778 1.216-.732 1.714-1.16 3.33-2.852.593-.622.798-.89 1.664-2.17.204-.303.606-.817.893-1.143a39 39 0 0 0 1.379-1.729l.857-1.136-.012-.642a21 21 0 0 0-.118-1.564c-.1-.887-.098-.927.065-1.058.388-.312 1.01-1.204 1.36-1.956.207-.441.539-1.032.737-1.312.473-.668.661-1.053.89-1.819.103-.348.256-.71.34-.804.714-.799.689-.776.627-.557-.057.201-.054.203.096.053s.157-.15.217.004c.034.087.065.265.068.396.004.143.091.31.221.423.119.102.268.339.332.525.091.264.13.306.176.19a.8.8 0 0 0 .013-.382l-.154-.824c-.06-.326-.15-.62-.198-.655-.053-.037-.036-.063.044-.063.072-.001.339-.186.592-.412l.462-.41.924-.047c.839-.043.94-.066 1.087-.246l.162-.199-.042.192c-.064.295.363.673.843.745 1.112.167 2.142-.243 3.125-1.243l.59-.6-.382.062c-.23.037-.61.211-.96.44-.753.491-1.226.697-1.748.758-.364.044-.47.02-.762-.174-.187-.124-.34-.242-.34-.263s.36-.037.799-.036c.891.002 1.479-.078 1.315-.18-.073-.044-.03-.107.14-.205.236-.135.214-.138-.645-.095a6.3 6.3 0 0 0-1.693.295c-.443.138-.957.274-1.143.303-.546.084-1.091.232-1.226.332-.068.05-.038-.02.067-.156a2 2 0 0 1 .437-.398c.298-.181 1.25-.385 2.316-.495.435-.045 1.15-.178 1.588-.296s.9-.213 1.026-.213c.56-.001 1.104-.19 1.424-.496.798-.763 1.373-1.152 2.03-1.376 1.03-.35 1.595-1.093 1.621-2.13.008-.331.03-.386.126-.307.093.077.116.051.116-.13 0-.262.197-.685.447-.959.188-.204.166-.31-.046-.229-.123.047-.417.631-.51 1.012-.022.093-.045-.01-.05-.229-.009-.315.05-.5.286-.889.162-.27.296-.553.296-.629 0-.136.25-.573.88-1.542.257-.396.408-.534.758-.69.62-.278 1.077-.606 1.78-1.277.923-.884 1.743-1.559 1.894-1.56.036 0 .16-.143.276-.316s.34-.44.497-.594l.284-.28-.013-.865c-.02-1.367-.086-2.359-.176-2.683a2.5 2.5 0 0 1-.083-.535c0-.155-.1-.334-.288-.523-.508-.508-.727-.856-.78-1.239-.044-.323-.021-.405.17-.61.12-.13.22-.272.22-.313 0-.042.047-.107.106-.144.104-.067.264-.292.374-.526.03-.065.009-.313-.047-.55-.117-.488-.226-1.199-.345-2.252-.045-.395-.14-.881-.212-1.08-.07-.197-.154-.737-.184-1.2-.056-.85.03-1.588.369-3.138.076-.35.165-.807.199-1.016.033-.21.173-.65.312-.977.216-.51.254-.714.268-1.431.01-.547.06-.927.143-1.098.301-.614 1.05-1.913 1.102-1.913.023 0 .027.029.01.064-.473.926-.905 1.993-.909 2.243 0 .035.066.064.148.063.092 0 .242-.175.399-.465.252-.468.33-.537.426-.381.029.047.013.085-.036.085s-.113.104-.143.233c-.031.128-.081.27-.112.317-.298.454-1.351 4.126-1.357 4.732-.002.181-.081.79-.178 1.352-.187 1.102-.192 2.249-.011 3.102.054.256.197 1.018.317 1.694s.257 1.413.303 1.639l.085.411-.386.342c-.367.324-.387.365-.387.787 0 .353.07.58.342 1.11.355.687.555 1.42.67 2.442l.066.592.011-.72.012-.719.254.296c.14.163.253.344.254.403q.002.229.322-.067c.344-.32.253-.629-.365-1.235-.303-.297-.582-.54-.62-.54-.148 0-.362-.616-.305-.88.09-.41.441-1.052.65-1.183.3-.188 1.428-.49 1.164-.312-.113.077-.113.086 0 .082a1 1 0 0 0 .297-.078l.169-.072-.17-.01c-.127-.007-.092-.05.143-.175.392-.207.47-.324.18-.269-.143.028-.256-.004-.318-.089-.067-.091-.206-.124-.455-.107-.331.022-.354.01-.304-.156.03-.1.115-.248.188-.332.126-.143.113-.15-.234-.127-.432.03-.533-.11-.196-.27l.235-.112-.212-.063c-.116-.035-.174-.068-.127-.073s.199-.102.339-.216l.254-.207-.309.092c-.17.05-.404.068-.521.039-.181-.046-.221-.118-.272-.487-.051-.37-.035-.458.112-.605.12-.12.217-.15.326-.102.142.063.138.072-.035.102-.159.028-.19.088-.19.36 0 .179-.023.385-.051.458-.077.199.197.266.386.096.12-.109.148-.217.113-.434-.053-.328.027-.384.142-.098l.076.19.005-.185c.003-.102.048-.212.1-.244.066-.04.061-.078-.016-.125a.34.34 0 0 1-.13-.21c-.011-.079-.1-.227-.196-.33-.249-.265-.22-.317.142-.264.175.025.27.024.212-.003-.059-.028-.106-.14-.106-.252 0-.152.034-.189.139-.148.12.046.13.008.077-.278-.072-.383-.181-.543-.372-.543-.102 0-.089-.033.052-.132.104-.072.188-.17.188-.217 0-.089.401-.657.55-.78q.084-.069-.02-.112c-.155-.063.082-.372.42-.546l.27-.14-.292.01c-.393.016-.412-.123-.044-.314.166-.086.301-.2.3-.254 0-.062-.027-.056-.072.015-.05.078-.102-.007-.168-.27-.117-.463-.12-.561-.014-.393.068.109.097.103.2-.039.067-.09.103-.215.08-.275-.024-.06 0-.11.051-.11.052 0 .094-.052.094-.116s.057-.164.127-.222a.37.37 0 0 0 .127-.244c0-.076.095-.21.21-.297.116-.086.191-.188.168-.226-.024-.038.081-.32.233-.628q.276-.56.184-.62c-.051-.032-.277-.287-.503-.565-.315-.39-.352-.462-.16-.314.33.253.87.608.925.608.194 0-.275-.56-.713-.85-.259-.172-.15-.389.233-.466.29-.06.298-.067.1-.12-.17-.044-.209-.104-.198-.304.025-.453.194-1.07.374-1.36.173-.28.13-.388-.074-.185-.125.125-.132.029-.014-.19.048-.09.198-.221.333-.291.136-.07.314-.242.397-.382.147-.249.152-.25.246-.076.095.178.095.178.261-.033.16-.203.18-.206.458-.089.35.147.951.086 1.468-.149.367-.166.708-.226.485-.085-.064.04-.092.114-.062.162a.103.103 0 0 1-.032.142c-.047.029-.086.09-.086.137s.035.064.078.037c.042-.026.09-.01.106.038.016.05.207.016.472-.084.355-.135.445-.145.445-.052 0 .065.06.141.134.17.254.097 1.022.05 1.426-.087.428-.146 1.249-.114 1.304.052.016.047.111.09.212.096.172.009.173.012.014.052-.215.054-.635.35-.635.447 0 .041.132.02.294-.048.161-.067.507-.123.767-.123.533 0 .904-.137.708-.261-.088-.056-.071-.075.068-.076.102 0 .314-.077.471-.17.307-.181 1.256-.529 1.307-.479.016.017-.198.114-.477.216-.28.102-.528.218-.553.258-.078.127.998-.008 1.384-.175.204-.087.423-.16.487-.16s.116-.082.116-.183v-.184l.212.198c.116.11.213.26.214.333q.003.133.233-.139c.252-.297.58-.452.934-.44.212.007.208.013-.059.09-.313.09-.571.3-.48.39.03.032.083.02.115-.026.177-.253.87-.353 1.498-.217l.254.055-.254.098c-.14.054-.444.123-.677.154-.559.074-.96.405-.53.436.106.007.42.04.7.073.385.045.588.026.838-.078.33-.138.538-.112.302.037-.208.131.73.096 1.217-.046.459-.134.987-.491.883-.597-.034-.034-.11-.023-.17.025-.11.089-1.265.374-1.315.324-.049-.049 1.037-.456 1.382-.518.5-.09.61-.173.305-.234-.231-.047-.51-.351-.412-.45.09-.09.802.265 1.054.527.152.157.276.265.276.24 0-.132-.278-.552-.444-.671-.19-.136-.189-.137.101-.111.233.02.353.104.584.407.16.21.323.372.36.36.039-.01.048.037.022.107-.027.069-.011.126.035.126s.103-.1.126-.223c.033-.17-.027-.3-.254-.55-.346-.384-.322-.398.213-.125.576.294.857.828.564 1.071-.116.096-.126.083-.078-.107.03-.12.015-.242-.033-.272-.049-.03-.07-.104-.046-.165.024-.06-.022-.164-.102-.23-.133-.11-.136-.103-.043.071.065.123.07.19.014.19-.048 0-.088.072-.088.16 0 .266-.199.35-.773.328-.506-.02-.583.003-1.135.336-.45.272-.732.377-1.183.443-.326.047-.623.086-.66.087-.038 0-.047.037-.02.08.082.134-.813.192-1.425.094-.32-.052-.6-.078-.62-.057-.085.085.57.22 1.173.241.357.013.624.043.593.066-.131.1-.083.261.117.392.167.11.325.129.721.087.494-.051.505-.048.414.123-.052.096-.234.23-.405.299-.17.067-.444.193-.607.278s-.405.18-.539.212-.223.078-.198.102c.024.025.013.156-.026.291-.042.144-.038.267.008.295.043.027.078-.01.078-.082s.102-.153.233-.182l.36-.08c.07-.015.222-.053.338-.085.193-.052.185-.034-.084.205-.28.247-.284.258-.068.181.19-.067.22-.058.18.048-.032.083.012.144.125.174.096.025.242.185.325.355.109.225.158.269.18.16.018-.08.084-.147.148-.147.159 0 .236.145.105.198-.08.032-.082.06-.007.114.055.039.093.141.085.227-.015.157.052.213.45.378.206.084.203.088-.084.101-.274.013-.28.02-.085.08.116.037.364.05.55.03.335-.037.336-.036.127.091-.21.128-.208.13.17.133.278.003.346.027.254.087a.95.95 0 0 1-.381.094c-.14.007-.007.044.295.083.37.048.585.12.658.222.06.083.167.221.24.307.071.086.162.314.2.508.066.331.07.336.079.077.009-.269.179-.405.179-.143 0 .072.035.11.077.084.043-.027.123.089.179.256.078.237.136.295.26.263.089-.023.16-.007.16.035s.144.08.318.085l.318.01-.28.065c-.39.093-.436.17-.1.17.273 0 .278.007.12.134-.152.124-.136.13.25.084a8 8 0 0 1 .678-.052l.263-.004-.254-.116-.254-.116.228-.007c.125-.004.25-.044.278-.088.099-.16.073-1.011-.036-1.163-.06-.084-.012-.05.107.078l.217.231.031-.231.032-.231.14.296.14.296.003-.244c.002-.135-.103-.42-.233-.635-.282-.466-.695-1.38-.697-1.544-.003-.209-.482-.949-.535-.824-.026.063-.04-.095-.031-.35l.017-.467.366-.048c.41-.055.769-.398.774-.74.002-.12.04-.173.096-.138.05.032.075.148.054.259s-.01.202.025.202.089.099.119.22c.03.12.177.332.327.47l.271.251-.482-.043c-.569-.05-.576.025-.043.432.704.538.814.666.87 1.012.04.256.019.372-.088.48-.16.16-.34.192-.249.043q.056-.091-.037-.037c-.176.109-.102.22.146.22.284 0 .698.378.95.864.23.448.205.45-.192.02-.194-.211-.375-.346-.403-.3s-.26.11-.516.144c-.255.034-.407.08-.337.103.192.062.251.193.256.566l.004.338.201-.229c.172-.195.217-.21.304-.106.056.067.085.235.065.373-.032.218-.008.254.18.276.24.028.282.196.152.594-.052.157-.034.37.054.671.071.244.109.476.083.517s-.203.049-.395.016l-.35-.059.265.223c.335.282.577.282.762 0 .137-.208.137-.253 0-.783-.078-.308-.143-.656-.143-.773s-.095-.415-.211-.664c-.241-.518-.254-.578-.1-.45.061.051.2.294.306.54.107.246.229.513.27.594s.076.233.076.339c.001.136.022.16.073.08.155-.246.245 1.059.092 1.345-.076.142-.059.163.132.163.121 0 .198.035.172.078s-.005.091.047.109c.084.028.125 1.223.067 1.93-.025.3.063.67.252 1.059l.164.336.066-.423c.125-.788.082-3.33-.068-4.062-.123-.604-.276-2.002-.178-1.629.022.082.07.13.109.106.099-.06-.04-.615-.29-1.15-.118-.253-.214-.528-.215-.61 0-.084-.096-.34-.212-.57-.117-.23-.212-.478-.212-.551s-.076-.292-.17-.485c-.093-.192-.169-.416-.169-.497 0-.08-.095-.26-.211-.398-.124-.147-.212-.359-.212-.507 0-.167-.102-.377-.296-.61-.355-.424-.375-.497-.072-.259.123.098.247.155.274.127s-.204-.285-.513-.572c-.487-.452-.572-.575-.623-.904-.046-.291-.153-.481-.453-.805a17 17 0 0 1-.664-.762c-.269-.334-.272-.335-.275-.11-.002.125-.04.251-.087.28s-.086.155-.088.28c-.003.219-.008.221-.127.063-.145-.192-.164-.335-.033-.254.131.08.012-.68-.174-1.111-.1-.235-.233-.38-.414-.455-.146-.06-.265-.136-.265-.168 0-.031-.138-.061-.308-.066-.313-.009-.524-.183-.35-.29.066-.042.056-.118-.038-.26a1.3 1.3 0 0 1-.163-.367c-.018-.092-.08-.17-.137-.177l-.19-.021c-.046-.006-.084-.063-.084-.126 0-.064-.181-.196-.402-.293a9 9 0 0 1-.826-.437 7 7 0 0 0-.61-.338 6 6 0 0 1-.634-.376c-.744-.492-1.989-.889-3.115-.994-1.26-.117-4.647-.003-4.974.169-.082.043-.49.085-.906.093-.457.009-.843.062-.974.132-.12.065-.54.219-.936.343a14 14 0 0 0-1.482.59c-.42.2-.934.44-1.143.534-.377.17-.501.29-.702.68-.056.11-.24.247-.406.304a2.6 2.6 0 0 0-.601.329c-.163.124-.332.226-.376.226s-.135.077-.203.172a3.2 3.2 0 0 1-.462.443l-.338.272.208-.295c.366-.52 1.048-1.143 1.462-1.336.22-.104.402-.24.402-.305 0-.14.468-.51.762-.6a3.8 3.8 0 0 0 1.156-.639c.246-.214.617-.357 1.892-.73a8 8 0 0 0 .732-.253c.147-.063.542-.116.877-.116.336 0 .844-.063 1.13-.14.636-.173 2.061-.188 4.288-.047 1.643.104 2.099.161 2.251.282.05.04.222.09.381.11.42.056 1.034.275 1.77.633.517.25 1.7 1.082 1.856 1.303.149.212.347.393 1.193 1.085.92.753 1.165 1.001 1.226 1.245.03.119.22.434.422.7s.408.558.458.652.18.192.29.22c.224.056.398.369.398.717 0 .165.113.343.388.61.651.634.76.825.858 1.52.024.164.118.38.21.48.153.166.497 1.056 1.044 2.696.108.325.26.716.336.868.077.151.155.551.173.889.019.337.082.88.14 1.206.105.573.14 3.4.061 4.755-.04.677-.056.673.521.112.223-.217.336-.425.415-.762.175-.744.348-.853.667-.421.136.183.2.415.23.825.052.716.306 2.164.39 2.225.035.025.012.253-.052.508-.063.254-.138.596-.166.759-.057.329-.342.847-.467.847-.044 0-.104-.077-.134-.17-.105-.332-.198-.158-.342.644-.112.62-.13.968-.077 1.46.039.357.064.876.057 1.156s-.02.876-.027 1.326c-.01.621-.04.809-.121.778-.133-.051-.416.244-.554.578-.082.198-.082.397 0 .947.115.774.047 1.07-.279 1.218l-.583.262a1.5 1.5 0 0 0-.618.499c-.717 1.06-1.325 2.009-1.48 2.313-.215.421-.308.386-.165-.063.117-.366.765-1.466.864-1.466.036 0 .066-.037.066-.081s.205-.421.457-.836c.348-.574.49-.91.592-1.409.176-.851.351-1.231.891-1.934.707-.92.676-.72.658-4.327-.009-1.759.01-3.213.04-3.232s.111-.013.179.013c.088.033.14.257.183.777.032.402.118.845.19.985.126.242.138.247.25.096.063-.088.116-.292.116-.453s.065-.5.144-.752c.142-.452.141-.473-.08-1.363-.124-.497-.228-1.11-.231-1.363-.007-.49-.142-.782-.27-.582a.64.64 0 0 0-.07.283c0 .095-.08.323-.174.508-.121.234-.158.42-.123.616.043.234.015.309-.17.454-.126.099-.202.227-.176.294.028.074-.033.15-.16.198-.351.133-.406.369-.433 1.86-.024 1.397-.218 3.362-.381 3.87-.048.148-.136.31-.196.36s-.574.186-1.14.301c-.568.115-1.108.25-1.2.3-.094.05-.212.065-.263.034-.05-.032-.288-.016-.527.035s-.806.155-1.26.23c-.454.077-.826.173-.826.215s.038.077.085.077c.157 0 .086.3-.101.426a4 4 0 0 0-.39.32c-.566.542-2.103 1.038-2.638.851a.8.8 0 0 1-.39-.336c-.126-.245-.126-.245.136-.245.144 0 .43-.098.633-.217.34-.2.422-.212.989-.16l.618.057-.413-.278c-.245-.166-.52-.28-.678-.28-.284-.002-2.019.214-2.076.258-.02.015.034.103.119.197.243.268.093.294-.57.097-.6-.178-1.418-.246-1.421-.118 0 .035.161.203.36.374s.335.336.303.368c-.115.115-.586-.065-.935-.357-.352-.293-.369-.298-.91-.243-.304.03-.686.09-.849.132s-.906.117-1.65.167c-2.18.147-2.877.352-3.347.986-.116.156-.243.284-.284.285-.16.005.05-.559.309-.83.252-.266.258-.283.072-.227-.11.034-.51.071-.889.084a7.4 7.4 0 0 0-1.365.203c-.587.156-.764.169-1.313.098-.765-.1-2.285-.114-2.285-.022 0 .036.06.153.135.26.217.31.08.305-.447-.014l-.493-.297-1.566-.052c-.861-.028-1.747-.073-1.969-.1-.371-.045-.422-.029-.651.217-.327.35-.403.842-.224 1.446.217.728.402 1.944.34 2.231l-.056.265.242-.212c.133-.116.262-.23.285-.254.274-.27.87-.331 1.169-.121.288.202.149.29-.457.29-.558 0-.99.147-1.073.364-.025.064-.012.398.028.744.04.345.074.848.076 1.116s.068.718.146.998c.138.496.137.52-.043.952-.201.487-.228.7-.099.78.047.028.085.126.085.216 0 .204-.272.842-.359.842-.132 0-.059.448.113.688.097.137.396.36.665.495.595.3.791.643.802 1.4l.007.507-.405.042c-.222.024-.412.062-.423.085-.037.083.686 1.148.947 1.393.188.178.38.264.66.297l.395.046.556.946c.61 1.04.78 1.256 1.127 1.435.348.18.283.033-.19-.433-.465-.459-.963-1.485-.916-1.89.056-.485.289-.237.817.873.34.714.876 1.362 1.216 1.47.154.048.521.13.816.182.693.121 1.6.402 1.67.517.031.05.015.13-.036.181-.066.066-.235.052-.6-.05-.871-.241-.936-.204-.936.536 0 .353.036.439.261.628.143.12.338.22.433.22.266 0 1.185-.722 1.449-1.14s.418-.486 1.837-.81c1.11-.255 2.336-.152 3.305.276.161.071.407.173.547.226s.445.21.677.348l.424.25-.639-.052c-.602-.049-.672-.036-1.217.227-.55.265-.648.283-1.985.36-1 .057-1.524.053-1.816-.014-.573-.133-1.07-.112-1.38.057-.145.08-.467.253-.715.387l-.45.242.276.116c.153.064.45.27.663.456.213.187.473.34.58.34.113 0 .385-.176.66-.428.546-.498.756-.573 1.803-.644.59-.04.874-.021 1.185.08.226.073.734.194 1.13.269.92.173 1.038.284 1.05.98.008.514.003.527-.288.69-.244.136-.417.16-.974.132l-.677-.033.72.234c.395.128.795.216.888.196.208-.047.424.081.347.205-.126.204-.655.196-1.76-.027-.62-.125-1.38-.248-1.69-.275-.311-.026-.6-.07-.64-.1-.043-.028-.22-.29-.395-.58-.175-.291-.34-.53-.366-.53-.027 0-.133.093-.238.205-.179.194-.182.216-.052.413.076.115.295.34.488.5.298.25.483.318 1.27.471 1.119.219 2.285.359 2.983.359.638 0 .688.145.165.476-.326.205-.406.22-.995.177-.4-.03-.974-.16-1.528-.345-.488-.163-.9-.284-.917-.267-.083.082 1.387.827 2.016 1.022.396.122.786.257.867.3s.193.076.25.076.211.105.345.233c.239.23.259.233 1.162.206.883-.025 1.61.088 1.61.252 0 .04.1.071.224.071.289 0 2.364-.57 2.697-.741.14-.072.52-.387.846-.7s.764-.674.974-.803c.832-.511 1.633-1.259 2.312-2.158.193-.256.717-.923 1.164-1.482 1.187-1.485 1.858-2.445 1.858-2.658 0-.104-.034-.167-.075-.142-.042.026-.122-.01-.18-.08-.057-.069-.148-.126-.202-.126-.142 0-1.62 1.523-1.768 1.82-.069.14-.154.388-.188.551-.085.401-.262.73-.426.794-.074.028-.248-.006-.385-.078-.223-.115-.24-.15-.152-.317a3.5 3.5 0 0 1 .39-.514c.348-.388.49-.705.66-1.473.121-.545.203-.76.793-2.077.491-1.099 1.665-2.381 2.497-2.729.385-.16 1.153-.256 1.153-.143 0 .049-.056.197-.123.328-.068.132-.24.504-.383.826-.278.625-.598 1.108-1.33 2.01-.48.592-.512.749-.234 1.124.12.163.123.163.25 0 .342-.44 1.649-2.408 1.81-2.725.57-1.124 1.847-2.703 2.549-3.154.233-.15.424-.305.424-.345s-.124-.106-.275-.145c-.405-.105-.408-.333-.005-.405.593-.105.924-.66.556-.93-.2-.147-.095-.23.165-.132.201.077.215.06.308-.342.147-.637.13-.704-.29-1.101-.543-.513-1.015-1.54-1.183-2.569-.03-.186-.149-.71-.264-1.163-.226-.896-.21-1.06.083-.877.102.064.326.16.498.215.4.127.85.627 1.04 1.156.277.768.704 1.598.954 1.857.28.288.693.479 1.377.634.256.058.682.218.947.354.315.163.753.291 1.27.372.925.144 2.284.536 2.22.64-.025.04.01.072.078.072.067 0 .231.057.364.126.134.07.31.127.394.127.12 0 .944.365 1.062.47.016.013-.165.211-.402.44l-.43.414v.735c0 .405.018.736.04.736.098 0 .236-.403.306-.899.09-.64.192-.828.57-1.064l.28-.175.258.243c.142.134.477.53.745.88 1.167 1.523 1.799 1.816 4.47 2.071 1.356.13 2.155.33 2.931.738l.243.127-.444.052c-.281.034-.485.108-.555.204-.103.14-.062.155.624.206.79.059 1.46.218 2.955.703 1.333.432 2.07.554 3.332.554h1.094v1.069l-.466.402c-.256.22-.466.438-.466.483s.19-.015.42-.132c.232-.117.442-.213.466-.213s.046 4.591.046 10.202v10.203h-91.44zm44.947-14.417c.01-.235-.024-.56-.078-.723-.096-.292-.1-.294-.224-.117-.069.099-.104.235-.078.303s.01.123-.035.123c-.12 0-.1.3.04.637.174.416.35.311.375-.223m1.342.466c-.028-.028-.1-.03-.162-.007-.067.027-.047.047.051.051.09.004.14-.016.111-.044m-.389-.147c-.052-.062-.069-.139-.038-.17.03-.03.015-.055-.034-.055-.158 0-.192.241-.04.281.079.021.158.042.175.048s-.01-.041-.063-.104m1.39-.53c.208-.256.263-.372.175-.372-.275 0-.576.214-.693.492-.15.362-.153.347.046.295.091-.024.304-.211.471-.416m-7.501-3.018.27-.275-.272-.028c-.413-.041-.671.05-.671.237 0 .143.194.33.35.338.029.001.175-.12.323-.272m-19.669-2.476q-.049-.126.16-.178c.277-.07.265-.178-.025-.242-.13-.028-.495-.259-.813-.512-.587-.468-.896-.586-1.407-.536-.444.044-.389.193.13.357.262.082.653.26.87.396.218.135.52.31.67.39.157.082.276.21.276.298 0 .084.042.153.094.153.051 0 .072-.056.045-.126m1.868-.72c.476-.167 1.174-.573 1.105-.642-.044-.044-1.937.639-2.05.74-.151.135.464.072.945-.097m3.624-4.066c.024-.038-.066-.027-.2.023s-.286.16-.338.243c-.083.134-.06.132.2-.023.163-.095.315-.205.338-.243m-.191-.207c.175-.089.317-.192.317-.23 0-.18-.513.039-.667.285-.06.094-.076.157-.038.14.039-.018.213-.106.388-.195m8.428-.92c.15-.413.118-.48-.067-.141-.18.328-.203.423-.102.423.037 0 .113-.127.17-.281m39.13-1.376c-.482-.493-1.04-.843-1.192-.749-.05.03.035.13.194.224.155.092.377.256.493.363.234.214.843.635.92.635.026 0-.16-.213-.414-.473M85.67 153.6c-.152-.023-.7.187-.7.268 0 .014.198-.035.44-.108q.442-.135.26-.16m.486-3.038c0-.061.087-.111.193-.111.19 0 .548-.364 1.098-1.12.252-.344.174-.43-.13-.142a3 3 0 0 1-.569.371c-.485.249-.641.431-.713.834a5 5 0 0 1-.103.465c-.035.113-.017.109.09-.022.073-.09.134-.214.134-.275m7.683-5.55c.058-.047.106-.133.106-.191 0-.135.425-.222.783-.16.268.045.26.033-.254-.434-.29-.264-.529-.534-.529-.6s-.048-.12-.106-.12c-.082-.001-.082-.017.003-.07.06-.038.087-.127.06-.197s.01-.177.081-.236c.11-.091.182-.062.453.183.346.312 1.432.882 1.518.796.028-.028.035-.06.016-.073-.02-.011-.218-.113-.442-.225-.498-.251-.745-.583-.8-1.073-.024-.206-.081-.374-.128-.374-.126 0-.664.336-.93.58-.276.254-.3.603-.102 1.447.07.3.11.596.086.657-.057.148-.98.148-1.184-.001-.109-.08-.156-.236-.165-.544-.007-.238-.042-.463-.08-.5-.118-.119-.226.17-.21.563.007.21-.014.444-.05.522-.049.106-.016.151.132.182.306.063 1.624-.037 1.742-.132m3.874-.753c.058-.059-.023-.067-.254-.027-.5.089-.681.23-.212.166.21-.028.42-.09.466-.139m-5.57-.94c-.021-.106-.038-.04-.04.147 0 .186.016.272.038.191a.9.9 0 0 0 .002-.338m19.523-.625c.149-.076.576-.431.948-.79.373-.36.75-.694.839-.742.252-.138.11-.363-.231-.363-.407 0-.835.314-.923.677-.123.507-.251.675-.78 1.02-.392.257-.467.335-.318.335.107 0 .316-.062.465-.137m-19.14-.053c.051-.138-.013-.318-.112-.318-.043 0-.078.095-.078.212 0 .22.123.289.19.106m26.939-.162c.548-.11.644-.239.64-.86-.002-.282-.02-.324-.09-.206-.1.174-.247.196-.247.037 0-.061-.114-.22-.253-.354s-.239-.256-.222-.274c.018-.017.187.05.377.15.558.29.664.058.225-.492-.28-.35-.51-1.387-.597-2.677-.029-.424-.122-1-.207-1.28a6.4 6.4 0 0 1-.197-1.218c-.024-.39-.085-.737-.138-.769-.126-.078.003-.416.24-.63.273-.245.239-.409-.053-.257a1.2 1.2 0 0 1-.445.123 1.2 1.2 0 0 0-.447.124q-.237.123-.176.02c.033-.056-.023-.03-.124.06-.21.184-.243.088-.06-.174.153-.219.095-.284-.25-.284-.22 0-.29.05-.407.296-.174.363-.087.38.21.042.123-.14.263-.254.313-.254s-.138.237-.417.526l-.506.525.194.118c.266.161.423.628.436 1.287.006.302.06.695.123.873.126.364.07.834-.119.991-.068.057-.124.146-.124.197 0 .05.083.01.185-.093.204-.203.303-.75.316-1.736.008-.606.115-.754.215-.296.052.239.069.253.125.106.09-.233.204.532.126.842-.039.154-.016.257.072.326a.7.7 0 0 1 .186.292c.043.145.022.19-.087.19-.213 0-.11.5.256 1.243.165.333.3.647.3.698 0 .153-.121.104-.286-.116-.205-.272-.869-.535-1.006-.398-.074.074-.047.099.11.102.224.004.789.232.604.243-.085.005-.08.04.02.14a.47.47 0 0 1 .134.278c0 .08.076.295.17.478.15.297.154.34.035.406-.118.067-.119.09-.006.215.07.078.14.255.155.395s.065.28.11.314c.055.038.05.15-.013.317-.074.195-.074.26 0 .265q.1.006-.007.05c-.108.043-.065.197.055.197.036 0 .284-.044.552-.098m-1.807-7.91c.004-.099.025-.119.052-.051.024.06.021.134-.007.162s-.048-.022-.045-.111m-3.553 6.628c-.069-.068-.093-.026-.091.157.002.219.013.23.093.093.065-.112.064-.183-.003-.25zm1.26-1.88c.234-.172.256-.211.119-.211a.4.4 0 0 0-.252.082c-.045.046-.233.138-.419.206l-.336.123.3.006a.97.97 0 0 0 .589-.206m4.973-.744c.043-.376-.098-.991-.226-.991-.165 0-.22.99-.075 1.31.13.287.247.164.301-.32m-2.856.279c.07-.045.09-.082.043-.082a.5.5 0 0 0-.212.082c-.07.045-.089.082-.042.082a.5.5 0 0 0 .211-.082m-22.775-.937c0-.043-.038-.08-.085-.08-.046 0-.084.06-.084.133 0 .072.038.108.084.08.047-.03.085-.089.085-.133m22.113-.047c.268-.136.357-.363.281-.712-.07-.316-.208-.332-.175-.019.03.285-.134.55-.488.785-.237.158-.243.172-.056.12.116-.032.313-.11.438-.174m.542-.688c-.095-.405-.235-.698-.312-.651-.04.025-.022.13.042.232s.14.29.17.419c.03.128.077.232.104.232.028 0 .026-.104-.005-.232zm-8.088-.32c.137-.071.25-.145.25-.165 0-.039-.867.205-.925.26-.099.095.46.016.675-.095m8.522-.4c-.02-.105-.037-.02-.037.19s.017.296.037.19a1.2 1.2 0 0 0 0-.38m-2.515-.318c-.07-.045-.317-.08-.55-.077-.314.003-.38.023-.254.077.246.106.968.106.804 0m-4.106-.084q.16-.071.042-.073a1 1 0 0 0-.296.073q-.162.07-.043.072a1 1 0 0 0 .297-.072m2.053-.267c.177-.055.275-.14.275-.238 0-.142-.035-.145-.53-.04-.797.166-.933.24-.764.408.068.068.6 0 1.019-.13m-19.221-1.308c-.028-.029-.101-.032-.162-.007-.068.027-.048.047.05.05.09.005.14-.016.112-.044zm.338-.085c-.028-.028-.1-.031-.162-.007-.067.027-.047.047.051.051.09.004.14-.016.111-.044m22.578-.95c.024-.04-.012-.072-.08-.072-.067 0-.123.032-.123.071s.036.07.08.07.1-.031.123-.07m2.96-1.029c-.04-.037-.148-.036-.242.001-.16.066-.16.07.022.075.104.003.193.054.197.112.005.077.019.075.052-.007.024-.062.012-.144-.028-.18m-2.485-.424c0-.145-.62-.4-1.1-.452l-.467-.05.424.207c.233.114.545.207.693.208.149 0 .294.04.323.086.066.108.127.108.127.002zm-.87-.56c-.028-.029-.101-.032-.162-.008-.068.027-.048.048.051.052.09.004.14-.017.111-.045zm-.715-.657c.508-.268.672-.393.602-.459-.119-.111-.626-.009-.924.186-.245.16-.273.235-.062.162.082-.028.015.067-.148.211s-.267.264-.232.266.38-.163.764-.366m1.209.08c.138-.139.129-.143-.184-.087a3 3 0 0 0-.583.175c-.25.114-.246.116.183.087.27-.018.494-.085.584-.175m-22.92.027c.146-.051.266-.125.266-.163s-.123-.01-.275.064c-.445.216-.442.256.008.099zm23.12-1.6c-.005-.194-.012-.198-.078-.043-.04.093-.075.246-.078.339-.004.14.01.147.078.042a.7.7 0 0 0 .077-.339m-21.697-4.932c-.023-.059-.043-.011-.043.105 0 .117.02.164.043.106a.33.33 0 0 0 0-.211m10.063-.995c.358 0 .597-.051.804-.172.163-.094.362-.194.444-.221.081-.028.148-.084.148-.125 0-.108-.048-.095-.358.094-.163.1-.427.17-.642.17-.554 0-1.08.162-1.3.399l-.198.213.296-.179c.214-.129.438-.179.806-.179m1.65-.89c0-.07-.015-.126-.034-.126-.018 0-.055.057-.082.127-.026.07-.011.127.034.127s.082-.057.082-.127m.664 47.415c-.023-.023-.362-.121-.754-.219-.863-.215-1.174-.38-1.118-.595.08-.306.649-.58 1.208-.583.313 0 1.61-.707 1.828-.995.235-.309.118-.368-.24-.123-1.173.802-1.375.639-.42-.34.524-.538.472-.548-.49-.093-.545.257-1.254.45-1.656.45-.33 0-.248-.233.177-.503.367-.232.761-.331 1.888-.474.249-.032.42-.085.381-.119-.04-.033-.376-.11-.749-.169-1.18-.189-1.99-.51-1.99-.792 0-.119.718-.01 1.906.291 1.116.282 1.727.294 2.08.04.205-.148.204-.148-.181-.093-.438.062-.916-.044-1.603-.358-.256-.116-.608-.27-.783-.34s-.318-.158-.318-.197c0-.155.183-.162.674-.026.469.13.524.131.619.01.091-.118.259-.126 1.332-.067.675.038 1.293.096 1.373.128.156.064.998-.18.998-.29 0-.035-.372-.087-.826-.113-.89-.053-1.503-.219-1.503-.408 0-.096.18-.115.932-.099.512.011 1.163.062 1.446.113.438.079.565.071.847-.05.182-.08.293-.156.247-.17l-.72-.213c-.35-.102-.671-.22-.715-.26a.4.4 0 0 0-.233-.075c-.084 0-.153-.057-.153-.127s-.038-.127-.084-.127c-.124 0-.104-.144.028-.194.216-.083 1.202.206 1.692.495.271.16.54.292.598.292s.441-.114.852-.253c.41-.138.782-.23.825-.203.146.09-.2.362-.64.504-.784.253-.815.292-.815 1.01 0 .451-.046.72-.162.95-.215.427-.29.701-.193.701.044 0 .126-.055.182-.122.174-.21.9-.64 1.08-.64.26 0 .424.444.258.698-.18.275-1.084 1.165-1.183 1.165-.046 0-.197.081-.337.18-.24.172-1.144.497-1.378.497-.215 0-.296-.679-.22-1.836.04-.61.116-1.186.167-1.282.132-.246.118-.265-.115-.155-.272.128-.385.393-.385.9 0 .617-.167 1.7-.303 1.961-.254.492-.713.372-.713-.186 0-.408.224-1.384.392-1.71.16-.31.099-.38-.177-.2-.297.195-.435.43-.641 1.1-.126.407-.28.688-.522.95l-.344.373h.266c.147 0 .469.115.716.254.34.192.558.254.888.254.465 0 .59.148.29.341-.142.091-.142.093 0 .05.106-.034.148 0 .148.119 0 .283-.575.577-1.572.803-.827.187-1.971.28-2.082.17m1.368-.996c.131-.052.17-.099.101-.124-.183-.068-.67.056-.79.201-.1.122-.082.13.182.072.162-.036.39-.102.507-.149m3.483-2.061c.085-.19.195-.724.246-1.185.058-.536.164-1 .293-1.283.111-.245.175-.445.141-.445-.085 0-.722.435-.796.544-.035.05-.064.51-.065 1.022-.001.513-.055 1.151-.118 1.42-.103.438-.101.477.015.381.072-.059.2-.263.284-.454m-1.917-1.643c.12-.052.023-.074-.339-.077-.279-.003-.565.032-.635.077-.163.105.729.105.974 0m-3.966-1.536c-.645-.095-1.03-.274-1.228-.572l-.132-.199.341.058c.188.032.51.015.716-.036.302-.076.446-.069.745.037.686.243.673.137-.041-.337-.46-.305-.493-.313-1.016-.26-.453.047-.646.02-1.195-.164-.36-.121-.695-.252-.742-.29-.047-.039-.35-.15-.672-.25-.868-.266-.894-.084-.036.247.87.335 1.277.54 1.421.714.093.11.09.133-.018.133-.246 0-1.238-.344-1.817-.63-.32-.158-.733-.311-.916-.34-.32-.05-.31-.04.216.238.303.16.646.394.762.518l.212.227-.254-.057c-.14-.03-.59-.224-1-.43-.627-.314-.825-.373-1.242-.373-.644 0-.739.043-.932.422-.264.517-.614.634-1.821.61-.909-.02-1.064-.046-1.469-.248-.248-.125-.524-.318-.611-.43-.2-.254-.557-1.344-.47-1.432.08-.078.34.222.686.79l.253.415.028-.275c.017-.169-.043-.401-.155-.6-.1-.179-.17-.417-.154-.53.033-.229.123-.238 1.214-.12.49.054.575.046.488-.047-.067-.071-.388-.123-.89-.145-.732-.03-1.249-.15-1.249-.29 0-.183.216-.484.377-.524.102-.026.387.03.634.124.248.094.468.153.49.13.07-.069-.65-.397-.912-.415-.205-.014-.25-.055-.25-.229 0-.116.074-.345.163-.508s.262-.501.381-.752l.218-.455.355.057c.195.031.483.118.642.193.266.126.283.158.232.429-.069.368.085.342.359-.062.383-.566.156-1.005-.763-1.484l-.65-.338-.284.153c-.393.212-.565.547-.625 1.219-.08.885-.53 1.666-1.14 1.977-.31.158-.38.164-.817.066-.286-.064-.581-.199-.735-.336-.232-.208-.257-.278-.254-.733.004-.755.21-1.127.922-1.66.99-.74 1.025-.758 1.448-.7.219.03.467.011.59-.045.22-.1.286-.238.113-.238-.055 0-.524-.138-1.044-.306l-.944-.305-.441.224c-.243.123-.478.2-.523.173-.135-.083-.093.03.143.388l.225.34-.24.25c-.3.313-.445.319-.513.019-.173-.77-.56-1.63-.733-1.63q-.082.001-.004.106c.104.135.363 1.074.363 1.318 0 .26-.087.232-.403-.131-.32-.37-.393-.668-.328-1.348.027-.273.08-.847.118-1.277.051-.573.116-.843.243-1.016.289-.392.38-.607.594-1.41.114-.424.264-.859.334-.966s.165-.545.211-.974.144-.9.217-1.046c.209-.42 1.268-1.13 1.688-1.13.103 0 .558.189 1.01.42.766.39.804.423.579.477-.35.083-.428.167-.677.723-.123.274-.37.63-.547.791-.433.391-1.104.722-1.465.722-.62 0-.845.24-1.07 1.143-.06.233-.23.69-.38 1.016-.352.767-.415 1.073-.294 1.439.072.219.147.296.283.296.263 0 1.031-1.174 1.108-1.693.03-.21.132-.64.226-.955l.17-.573.56-.265c.531-.25.606-.263 1.495-.248.514.01.952.033.972.054.038.037-.112 1.021-.21 1.373-.092.337.123.21.528-.312.41-.527.82-.767 1.31-.767.423 0 .263-.12-1.214-.905-.286-.152-.291-.22-.028-.362.346-.185.744-.044 1.315.465.417.372.577.463.812.463.161 0 .293-.038.293-.085 0-.046-.073-.084-.161-.084-.095 0-.398-.264-.726-.63-.825-.922-1.411-1.098-1.806-.542-.14.198-.282.203-.212.008.04-.112 0-.098-.172.057l-.225.205v-.205c.001-.28.296-.743.53-.831.645-.245.83-.27 1.298-.185.77.143 1.182.467 1.758 1.382.304.483.413.553.637.41.16-.1-.504-1.039-1.277-1.807-.316-.315-.575-.591-.575-.614 0-.09.444-.036.672.082.306.158 1.096 1.032 1.317 1.456.234.448.362.53.826.534.464.003.504-.07.152-.278-.299-.177-.732-.702-1.059-1.286a4.2 4.2 0 0 0-.488-.69l-.251-.266.279-.062c.241-.053.306-.028.481.182.273.327 1.081 1.55 1.207 1.825.162.357.424.422 1.436.358.954-.06 1.102-.015.893.27-.098.135-.25.166-.923.19-.667.025-.83.058-.954.194-.14.156-.14.18-.006.407.117.199.128.317.061.671-.142.751-.836 1.959-1.125 1.959-.153 0-.164-.039-.115-.402.128-.947.473-2.085.729-2.403.14-.175.222-.338.18-.364-.09-.056-.838.191-.905.3-.026.043-.122.654-.212 1.358-.164 1.272-.34 1.865-.621 2.098-.128.106-.158.106-.227 0-.108-.164-.029-.768.26-1.984.35-1.472.366-1.566.265-1.566-.136 0-.317.409-.43.973-.056.28-.213.851-.348 1.27s-.286.924-.335 1.122c-.108.441-.345.491-.505.106-.145-.35-.017-.814.567-2.058.76-1.618.362-1.397-.655.365a33 33 0 0 1-.781 1.303c-.093.135-.128.219-.076.187.053-.033.2.097.345.306.48.69.61.822 1.043 1.058.721.391.644.459-.456.4-.528-.028-1.07-.086-1.206-.129a2 2 0 0 0-.464-.077h-.218l.232.231c.21.21.307.237 1.067.288 1.064.071 1.56.27 1.69.678.146.463.191.869.11.992-.06.09-.168.05-.52-.19-.456-.315-.629-.361-.845-.225-.147.094-.192.052.57.539.46.294.69.512.918.869.343.537.319.617-.21.688-.332.044-.376.023-.814-.391-.517-.49-.598-.49-1.007-.003q-.374.442-.094.672c.07.058.127.075.127.037 0-.037.114.041.254.175s.254.318.254.409.152.33.339.532c.256.279.338.437.338.655 0 .159.053.332.118.386.137.113 1.137.305 1.21.232.028-.027-.012-.145-.089-.261a.9.9 0 0 1-.138-.413c0-.283.352-.778.554-.778.149 0 .168.07.19.675.027.706.079.803.43.805.15.001.18-.026.118-.104-.047-.058-.131-.36-.188-.67-.086-.463-.084-.607.01-.803.242-.505.503-.255.62.595.123.883.265.873.271-.018.002-.365.05-.8.105-.966.094-.287.308-.468.421-.356.028.028.064.465.08.97.021.683.058.93.145.963.148.057.148.058.416-.753.123-.372.293-.768.378-.88.216-.286.43-.186.43.2 0 .367.1.38.338.046.227-.319.493-.472.613-.353.058.059 0 .269-.18.656-.147.313-.25.586-.23.606.021.02.241-.114.49-.3.534-.398.856-.567 1.243-.65l.285-.062-.62-.336c-.34-.185-.722-.409-.847-.498-.143-.102-.534-.206-1.062-.28-1.46-.209-2.411-.7-3.129-1.62-.517-.661-.765-1.211-.89-1.973-.123-.747-.03-.908.517-.893.668.017 1.217.4 2.681 1.87 1.163 1.169 1.39 1.44 1.51 1.799.155.467.274.58 1.27 1.195.69.428 1.09.583 1.503.584.259 0 .272.024.144.263-.077.143-.146.158-.497.112-.4-.053-.417-.045-.879.372-.32.29-.622.474-.942.575-.26.082-.472.176-.472.209 0 .032.181.085.402.115.805.113.942.152.992.283.028.073.002.164-.058.202-.199.126-.552.074-1.497-.223-.673-.21-.992-.273-1.13-.222-.17.065-.151.083.19.176.21.057.753.273 1.207.481.874.4.968.407 1.47.103.34-.205.582-.201.887.015.244.174.84.324.84.212 0-.072-.183-.26-.299-.31-.303-.126-.797-.471-.774-.541.015-.046.153-.158.307-.247.248-.145.324-.152.661-.062.21.056.398.085.42.063.02-.02-.06-.183-.181-.36-.243-.358-.257-.414-.138-.563.52-.648 1.425-1.584 1.534-1.584.12 0 .11-.06-.065-.444-.32-.7-.317-.697-.697-.725-.323-.024-.42-.092-1.046-.745-.38-.395-.73-.84-.778-.99-.048-.149-.136-.267-.194-.262s-.191.018-.296.03c-.185.02-.184.022.021.08.17.046.221.126.258.403.054.4.25.73.546.925.19.125.466.553.466.725 0 .119-.274.078-.662-.098-.286-.13-.396-.241-.5-.508l-.135-.343-.242.447c-.29.537-.598.828-.879.828-.279 0-.261-.088.103-.521.459-.545.791-1.096.791-1.31 0-.105.038-.215.085-.243a.19.19 0 0 0 .085-.143c0-.05-.086-.027-.191.05-.428.314-.759.41-1.079.314s-.834-.559-.733-.66c.033-.033.28-.014.55.041.269.056.657.101.862.101.319 0 .355-.016.249-.115-.068-.063-.456-.216-.861-.34-.943-.288-1.155-.549-.9-1.107.133-.293.274-.271.546.086.265.348.603.545.933.545.22 0 .205-.025-.283-.491-.995-.95-1.068-1.288-.513-2.375.401-.785.46-.837 1.556-1.404.659-.34.877-.41 1.482-.469.39-.038.986-.12 1.323-.18.426-.077.641-.084.702-.022.099.098-.047 1.574-.18 1.823-.042.078-.295.222-.563.32-.84.308-.937.354-1.087.52-.135.149-.136.161-.005.161.078 0 .414-.095.747-.211.941-.33 1.508-.283 1.508.123 0 .458-.465.689-1.424.707-.59.01-.788-.018-1.005-.149-.27-.162-.271-.162-.22-.718.042-.474.144-.91.423-1.826.05-.168.05-.168-.136-.004-.103.09-.25.39-.326.665-.09.326-.206.544-.334.627-.168.11-.195.2-.195.631 0 .5-.11.814-.44 1.26-.169.228-.14.459.068.538.176.068.946-.098 1.354-.292.191-.09.68-.223 1.087-.294s.849-.185.982-.254c.327-.169.483-.158.546.04.074.234-.177.672-.448.779-.144.057-.611.072-1.265.04-.57-.027-1.038-.017-1.038.024 0 .04.22.163.487.273.388.16.641.2 1.248.2.902 0 .947.056.583.725-.233.428-.548.672-.865.672-.09 0-.434-.114-.762-.254-.603-.256-.98-.318-1.068-.176-.026.043.057.134.186.201l.811.43c.751.4 1.209.413 1.917.055.274-.138.559-.337.632-.442.166-.237.17-.655.01-1.269-.239-.914.205-1.762.923-1.762.31 0 .266-.115-.106-.279a2.1 2.1 0 0 1-.563-.394c-.21-.22-.224-.26-.1-.308.098-.038.275.07.572.348l.43.402.64-.054c.353-.03.662-.075.688-.1.116-.116-.245-.212-.689-.185-.57.036-.604-.036-.273-.573.123-.2.209-.468.21-.652 0-.212.137-.579.42-1.122.233-.445.402-.808.376-.808-.26 0-.627.5-.627.853 0 .197-.573 1.29-.847 1.617-.142.169-.178.179-.254.07-.19-.273.166-1.19.65-1.673.228-.229.241-.275.079-.275-.065 0-.408.263-.76.584-.902.818-1.578 1.151-1.578.778 0-.427 1.015-1.377 1.634-1.53.196-.048.509-.13.695-.183l.338-.096-.71-.156c-.704-.153-1.435-.445-1.55-.618-.236-.353 1.064-.279 2.016.115.483.2.754.267.91.228.302-.076.28-.168-.068-.294-.16-.058-.665-.351-1.121-.652-.456-.3-.877-.546-.935-.546-.072 0-.06-.054.039-.17.08-.093.185-.169.234-.169.247 0 1.35.628 1.77 1.008.404.367.526.431.813.431.186 0 .338-.013.338-.03 0-.016-.238-.15-.53-.299-.549-.28-1.59-1.073-1.65-1.258-.101-.307.998.075 1.564.544.809.67.968.726 1.343.48l.213-.14-.422-.23c-.533-.292-1.703-1.254-1.703-1.401 0-.061.04-.136.09-.167.166-.103 1.183.479 1.725.985.446.417.585.5.836.5.166 0 .326-.038.354-.084.03-.047.014-.085-.032-.085-.084 0-1.534-1.636-1.534-1.73 0-.027.094-.048.209-.048.283 0 .77.446 1.074.983.351.623.419.662 1.088.64.318-.012.598.011.622.05.108.175-.128.307-.616.342-.299.022-.517.077-.52.133-.003.053-.012.42-.02.815-.015.663-.047.782-.395 1.503-.207.43-.407.783-.444.783-.126 0-.066-.56.137-1.273.112-.394.23-.85.262-1.013.033-.163.13-.42.217-.571.148-.258.149-.275.01-.275-.15 0-.52.22-.622.369-.03.045-.078.257-.106.47-.164 1.269-.427 2.855-.484 2.92-.116.136-.328-.128-.324-.404.002-.146.112-.837.245-1.535.134-.699.226-1.287.206-1.308-.02-.02-.113.04-.207.134-.122.122-.205.397-.293.969a15 15 0 0 1-.25 1.263c-.069.256-.126.59-.127.741 0 .151-.041.275-.09.275-.05 0-.068.036-.041.08.096.155-.138.188-.25.035-.225-.308-.205-.606.12-1.78.178-.644.318-1.18.31-1.189s-.095.003-.192.029c-.187.049-.309.283-.651 1.259-.114.326-.31.835-.434 1.13-.218.52-.22.543-.07.678.084.077.516.286.959.464.856.345 1.185.523 1.185.641 0 .04-.238.095-.53.121-1.37.125-1.943.21-2.032.298-.125.125-.023.218.377.346.253.08.395.075.756-.032.558-.166 1.062-.168 1.375-.004.133.07.297.126.364.126.178 0 .367-.523.367-1.017 0-.346-.041-.472-.211-.642-.286-.285-.267-.373.08-.373.41 0 1.147.168 1.147.261 0 .043.046.078.102.078s.219.113.362.252l.26.252.506-.207c.457-.186.504-.23.49-.442-.007-.13-.04-.568-.073-.974l-.058-.739.443-.893q.442-.893.746-1.143c.167-.138.315-.238.33-.223s-.054.21-.153.434c-.218.493-.228 1.016-.032 1.693.254.875.434.759.46-.296.013-.47.028-.52.104-.339.05.116.143.456.208.755.065.298.2.675.3.837s.147.277.105.257l-.628-.3c-.529-.252-.56-.285-.793-.821-.133-.307-.262-.559-.287-.559s-.095.067-.157.149c-.135.177-.149.55-.035.947.108.375.052.42-.211.173l-.213-.2.056.291c.03.16.083.33.117.376.034.047.106.223.16.392.119.368.283.529.73.714l.336.139-.36-.334c-.272-.254-.36-.398-.36-.595 0-.143-.026-.329-.058-.413-.088-.228 1.347 1.053 1.52 1.357q.28.493.002.598c-.094.036-.191-.006-.278-.122-.074-.097-.161-.15-.194-.117-.092.091-.072.219.024.159.047-.029.085-.011.085.039s.119.197.264.327c.231.206.257.271.204.514-.043.192-.151.332-.35.449-.31.183-.338.238-.195.381.127.127-.358.875-.95 1.468l-.455.455-1.524.024c-1.435.022-2.101.12-1.93.286.037.036.315.129.618.206.508.13.847.318.847.47 0 .165-.49.159-1.075-.015-.616-.183-.639-.184-.9-.034-.536.305-.7.52-.678.889.01.187-.018.34-.063.34s-.235-.1-.421-.224a1.7 1.7 0 0 0-.781-.264c-.56-.05-.48.053.37.479.336.168.69.412.786.542l.174.235-.2.78c-.362 1.405-.795 2.02-1.766 2.51-.318.16-.392.169-.593.072-.314-.15-.623-.742-.468-.897a.5.5 0 0 0 .111-.306c0-.18.262-.602.463-.745.053-.038.038-.062-.04-.06-.173.001-.35.152-.587.503-.45.666-.693.636-.35-.043.165-.328.415-.616.85-.982.67-.562.788-.56.745.009-.012.163.016.289.063.28.435-.087.466-.188.247-.798a3.3 3.3 0 0 1-.16-.733c-.028-.392-.245-.66-.748-.923-.252-.132-.474-.147-1.33-.09-.29.02-.295.014-.272-.276.026-.333.45-1.27.648-1.435.074-.06.261-.092.43-.073.246.029.29.012.246-.096a5 5 0 0 1-.134-.409c-.077-.267-.24-.306-.24-.058 0 .066-.105.184-.233.263s-.423.269-.656.423c-.473.312-1.041.534-1.215.473-.079-.027-.101.01-.07.119.024.087.09.434.143.772.083.515.153.679.433 1.016.37.446.438.625.398 1.043-.022.219-.111.347-.394.562s-.328.279-.196.279c.094 0 .195.039.225.087.073.117-.238.741-.528 1.061-.13.143-.374.43-.543.638-.232.284-.494.466-1.059.734-.85.404-1.398.485-2.346.346zm7.259-1.612a1.6 1.6 0 0 0-.036-.589c-.167-.618-.333-.323-.335.596 0 .526.004.538.159.398a.86.86 0 0 0 .212-.405m-16.445-.027c.066-.247-.05-.505-.188-.42-.1.061-.061.724.04.69.045-.014.112-.137.148-.27m12.211-.112c.024-.038-.07-.053-.206-.032-.138.02-.25.051-.25.07 0 .064.414.03.456-.038m-10.862-.17c-.122-.227-.27-.326-.59-.395-.387-.082-.284.069.228.336.483.251.463.248.362.059m15.694-.359c-.08-.129-.207-.09-.154.048.027.07.083.105.126.079a.09.09 0 0 0 .028-.127m.639-.948c0-.288-.26-.71-.588-.949-.16-.117-.323-.214-.362-.214-.097 0 .159.485.453.86.134.169.243.35.243.401s.057.094.127.094c.075 0 .127-.078.127-.192m.745-2.938c.508-.368.556-.502.334-.945-.297-.59-.253-2.275.059-2.275.136 0 .178.171.302 1.228.172 1.467.224 1.58.464 1.005.14-.338.123-.447-.263-1.633-.305-.939-.443-1.03-.973-.645-.158.116-.5.318-.758.451-.26.133-.65.364-.868.515-.218.15-.398.242-.398.205-.001-.037-.042-.01-.09.06-.068.096-.075.076-.03-.085.033-.117.111-.287.175-.379s.115-.198.115-.236c0-.125-.324.102-.502.353-.169.237-.17.269-.05.901.07.36.144.674.167.697s.177-.079.343-.224c.276-.243.55-.347.55-.21 0 .03-.19.256-.423.503-.233.246-.423.507-.423.58 0 .189.148.162.212-.039.056-.178.404-.392.837-.516.323-.093.644.097.644.38 0 .184-.035.2-.462.204-.798.007-1.14.232-.448.294.984.089 1.127.07 1.486-.189m-2.585-.312a.5.5 0 0 0-.254-.003c-.083.021-.036.04.104.042s.207-.016.15-.039m6.387-.928c.137-.037.208-.145.262-.401.04-.193.056-.383.035-.422-.044-.084-.61.008-.747.12-.14.116-.827.191-1.164.128-.245-.046-.328-.12-.48-.434-.1-.208-.201-.378-.225-.378-.054 0 .045.64.155.995.096.31.189.346 1.003.385.303.015.646.033.762.042a1.5 1.5 0 0 0 .4-.035m-9.077-.964c.032-.051-.075-.082-.27-.079-.258.005-.288.021-.153.08.232.1.361.1.423 0m10.266-.053c.312-.084.219-.183-.264-.283-.722-.15-.782-.225-.68-.84.046-.284.052-.517.011-.517s-.198.095-.35.211c-.153.117-.302.212-.33.212-.03 0-.264.079-.522.175-.29.109-.469.226-.469.306 0 .103.062.119.289.076.4-.075.981.029.981.176 0 .165-.358.283-.86.283-.354 0-.433-.028-.47-.17-.024-.092-.073-.169-.108-.169s-.09-.2-.123-.444c-.106-.8-.227-1.253-.32-1.195-.124.077-.025 1.372.134 1.752.11.261.17.304.492.347.894.118 2.285.161 2.589.08m-11.24-.066c0-.106-.646-.389-.888-.389-.53 0-.948.267-.572.365.187.049 1.46.07 1.46.024m-13.92-.556c.173-.186.485-.4.702-.482.553-.206 1.873-1.342 1.873-1.611 0-.113-.022-.115-.161-.015-.688.494-1.185.805-1.129.705.037-.066.514-.579 1.061-1.14.865-.886.953-1.002.678-.887-.333.14-.37.165-.931.654-.195.17-.52.353-.72.407s-.402.128-.449.165-.281.126-.522.197c-.24.07-.544.198-.676.283l-.238.155.185-.262c.102-.144.357-.402.567-.574.273-.224.397-.397.437-.61.08-.429-.019-.453-.183-.044-.152.38-.474.686-.723.686-.103 0-.23.145-.37.423-.212.416-.6.741-1.127.941l-.229.087.223-.239c.256-.274.447-.613.382-.678-.025-.025-.277.16-.561.41-.499.437-.813.812-.743.883.066.065 1.295.062 1.864-.005.654-.077.682-.043.402.506-.202.397-.2.381-.046.381.068 0 .263-.151.434-.336m-.53-1.208-.267-.19.52-.142c.354-.097.54-.114.577-.054.03.05.104.06.163.022.079-.048.093-.026.052.081a1 1 0 0 0-.057.181c0 .056-.492.292-.61.292-.062 0-.232-.086-.378-.19m-2.672 1.151c.494-.34.546-.471.084-.211-.503.282-.657.389-.657.455 0 .119.123.067.573-.244m14.79-.95c.072-.225-.052-.499-.454-1.008-.47-.595-.664-.586-.712.031-.016.205.065.32.49.69.28.245.536.445.568.445s.08-.071.109-.158m11.948-.135c.486-.136.53-.135 1.137.033.69.191 1.016.221 1.016.093 0-.087-.64-.426-.804-.426-.052 0-.274-.114-.495-.254s-.482-.254-.582-.254c-.108 0-.349.173-.59.423-.395.41-.523.656-.297.57.06-.024.337-.107.615-.185m-12.979-.303c-.024-.095-.064-.154-.087-.13-.046.045.035.303.096.303.02 0 .016-.078-.008-.173zm1.529-1.064c-.008-.32-.07-.736-.139-.922l-.124-.339-.167.382c-.193.44-.167.818.085 1.245.251.426.361.31.345-.366m3.17.417.315-.143-.233-.033c-.223-.03-1.164.194-1.164.278 0 .101.801.025 1.083-.103m-15.994-.534c.002-.513-.102-.735-.2-.426a.7.7 0 0 0 .009.361c.035.105.053.3.04.433-.013.146.012.222.063.19.047-.029.086-.28.088-.558m14.807-.551c.197-.17.36-.377.36-.46s.094-.327.209-.544c.115-.216.19-.393.168-.393-.107 0-.81.37-.864.454a6 6 0 0 0-.244.604c-.1.28-.212.58-.247.666-.055.135-.041.146.097.07.088-.048.323-.227.52-.397m1.97 9.757c.004-.237.33-.804.586-1.02.357-.3 1.016-.685 1.074-.627.079.08-.147.426-.594.911-.238.26-.5.554-.58.657-.159.2-.49.254-.486.08m.034-1.108c-.024-.063-.005-.358.043-.656.109-.686.302-.875.834-.815.332.037.696.248.696.404 0 .035-.203.178-.45.318a3.3 3.3 0 0 0-.717.558c-.295.336-.342.358-.406.19m-11.678-.479c.03-.047.129-.085.222-.085s.146.038.117.085-.128.085-.222.085c-.093 0-.145-.038-.117-.085m3.588-5.644c-.105-.128-.098-.132.074-.04.197.105.246.18.116.18-.04 0-.126-.063-.19-.14m-1.598-.178c0-.234.676-1.176 1.443-2.01 1.18-1.283 1.495-1.699 1.649-2.174.478-1.472 1.39-2.448 3.029-3.242.66-.32 1.584-.33 2.51-.028.346.113.641.241.656.285.014.043-.154.175-.373.291-.258.136-.579.433-.903.835-1.033 1.279-2.594 2.21-4.136 2.47-.55.092-.651.14-.954.454-.718.745-1.942 2.165-2.12 2.461-.21.348-.627.807-.732.807-.038 0-.069-.067-.069-.149m7.187-6.273c.272-.177.087-.226-.233-.06-.332.171-.446.343-.17.256.11-.035.292-.123.403-.196m-17.686 3.774c0-.878.115-1.162.47-1.162.198 0 .208.024.206.53-.003.677-.119 1.172-.306 1.31-.321.234-.37.146-.37-.678m10.72-2.676c-.182-.2-.475-.96-.475-1.231 0-.37 1.22-1.063 1.871-1.064.3 0 .754-.167.754-.276 0-.049.114.07.254.263s.27.351.29.351.093-.056.162-.125c.087-.088.11-.229.08-.466-.035-.252-.016-.343.07-.351l.294-.03c.318-.035.486.164.422.502-.03.165-.092.3-.137.3-.044 0-.08.04-.08.086 0 .171-.73.996-1.101 1.246-.21.14-.61.344-.89.452a6 6 0 0 0-.761.35c-.327.196-.572.193-.754-.008zm1.024-.929c.102-.223.151-1.028.063-1.028-.133 0-.553.277-.668.442-.131.187-.19 1.08-.078 1.193.081.08.566-.35.683-.607m.8-.245c.018-.306-.009-.626-.063-.78-.083-.237-.201.095-.203.568 0 .34.03.445.126.445.079 0 .132-.088.14-.233m-12.435.593c.043-.527.325-1.291.476-1.291.033 0 .036.207.008.461-.06.547.074.516.255-.058.188-.598.54-.906.845-.742.236.126.213.348-.098.911-.334.607-.71 1.022-1.063 1.173-.455.195-.475.174-.423-.454m4.96-.861-.2-.162.177-.24c.134-.181.279-.256.593-.306.228-.037.731-.12 1.118-.187.712-.121.95-.103.947.072-.003.19-.138.3-.791.64-.553.288-.745.345-1.154.345-.358 0-.545-.044-.69-.162m4.836-.47c.148-.18.585-.384.819-.384.273 0 .25.154-.034.223a1.5 1.5 0 0 0-.4.171.7.7 0 0 1-.328.114c-.133 0-.143-.022-.057-.125m16.312-.257c-.132-.131-.478-.982-.478-1.174 0-.06.147-.269.326-.463.363-.393.611-.485.388-.143-.143.218-.199.811-.123 1.31.04.26.057.277.174.16.071-.072.198-.422.282-.777.142-.604.162-.637.294-.505.131.133.143.123.183-.142.049-.327.211-.429.278-.174.077.295.203.192.332-.272.16-.577.406-.669.406-.152 0 .578-.492 1.441-1.077 1.89-.706.54-.831.596-.985.442m-25.728-.103c.152-.02.38-.019.508 0 .127.02.003.035-.277.035s-.383-.017-.231-.035m29.503-1.124c0-.163.017-.23.039-.149a.7.7 0 0 1 0 .297c-.022.081-.039.015-.039-.148m-.944-2.395c.02-.013.098-.071.174-.13.112-.085.147-.08.187.025.037.095-.008.129-.173.129-.123 0-.207-.01-.188-.024m-.668-10.263c.002-.14.02-.187.042-.104a.5.5 0 0 1-.003.254c-.023.057-.04-.01-.039-.15m-3.826-2.921a3 3 0 0 0-.635-.082c-.376-.012-.4-.023-.212-.1.29-.118.999-.041 1.168.128.158.158.057.175-.321.054m-21.96-1.651c.027-.07.088-.127.135-.127.05 0 .041.054-.02.127-.057.07-.118.127-.134.127s-.007-.057.02-.127m21.554-3.74c.015-.084-.122-.254-.342-.423-.201-.155-.335-.283-.296-.285s-.025-.061-.142-.132c-.202-.123-.192-.127.256-.09.5.042 1.064.266 1.135.45.024.063.006.114-.039.114s-.082.051-.082.114c0 .137-.269.394-.412.394-.057 0-.092-.064-.078-.142m-5.48-1.642c-.057-.179.153-.502.326-.502.047 0 .002.089-.1.198-.114.121-.166.253-.133.339.03.077.033.14.008.14s-.071-.079-.102-.175zm4.785.09a.085.085 0 0 1 .17 0 .085.085 0 0 1-.085.085.085.085 0 0 1-.085-.085m-10.753-.09c.213-.144.922-.503.992-.5.037 0-.18.134-.48.296-.53.285-.77.382-.512.205m5.228-.873c-.414-.254-.493-.337-.224-.235.335.127.811.436.67.433-.07 0-.271-.09-.446-.198m-16.267-.307c.124-.186.257-.338.297-.338.088 0-.365.67-.456.674-.036.002.036-.15.16-.336m.805-1.096c.222-.3.242-.312.188-.106a.53.53 0 0 1-.21.258c-.155.097-.153.085.022-.152" style="fill:#000" transform="translate(-57.199 -115.453)"/></svg>