<?xml version="1.0" encoding="UTF-8" standalone="no"?>
<!-- Created with Inkscape (http://www.inkscape.org/) -->

<svg
   width="175.68423mm"
   height="269.4816mm"
   viewBox="0 0 175.68423 269.4816"
   version="1.1"
   id="svg1"
   xml:space="preserve"
   inkscape:version="1.4.2 (unknown)"
   sodipodi:docname="mejdjed.svg"
   xmlns:inkscape="http://www.inkscape.org/namespaces/inkscape"
   xmlns:sodipodi="http://sodipodi.sourceforge.net/DTD/sodipodi-0.dtd"
   xmlns="http://www.w3.org/2000/svg"
   xmlns:svg="http://www.w3.org/2000/svg"><sodipodi:namedview
     id="namedview1"
     pagecolor="#ffffff"
     bordercolor="#000000"
     borderopacity="0.25"
     inkscape:showpageshadow="2"
     inkscape:pageopacity="0.0"
     inkscape:pagecheckerboard="0"
     inkscape:deskcolor="#d1d1d1"
     inkscape:document-units="mm"
     inkscape:zoom="0.69397447"
     inkscape:cx="146.25898"
     inkscape:cy="500.73888"
     inkscape:window-width="1920"
     inkscape:window-height="1008"
     inkscape:window-x="0"
     inkscape:window-y="0"
     inkscape:window-maximized="1"
     inkscape:current-layer="layer1" /><defs
     id="defs1" /><g
     inkscape:label="Layer 1"
     inkscape:groupmode="layer"
     id="layer1"
     transform="translate(-22.640522,-12.904037)"><path
       style="fill:#1a1a1a;stroke:none"
       d="m 55.740166,210.69022 c 14.392875,0 28.922245,1.33225 43.338555,0.345 3.817099,-0.26141 7.731109,-0.5241 11.556949,-0.52557 0.92265,-3.6e-4 3.14517,-0.58666 3.83936,0.10896 0.77202,0.7736 0.88036,2.99749 1.11286,4.04431 0.68536,3.08584 1.52693,6.18817 2.45591,9.20945 2.2887,7.44339 4.79506,14.79784 7.6882,22.03043 1.79814,4.49519 4.54205,9.40157 5.09754,14.26561 0.49909,4.37025 -1.38271,8.89198 -1.9791,13.18215 -0.37362,2.68765 -0.15429,5.59234 2.19758,7.34933 4.82114,3.60167 10.45204,-0.78754 15.52254,-0.84785 4.15365,-0.0494 8.15391,1.38182 12.27926,1.77441 3.35635,0.3194 6.75577,0.0363 10.11233,0.11286 5.0613,0.11555 10.09844,0.45953 15.16849,0.45953 3.56692,0 7.74421,0.58834 11.1958,-0.44057 1.6476,-0.49115 3.39109,-1.96034 2.92016,-3.89328 -1.04063,-4.27134 -5.79104,-2.18302 -8.51806,-2.31909 -0.90001,-0.0449 -1.86702,-0.57513 -2.70866,-0.87571 -10.4676,-3.73825 -21.26681,-8.63884 -30.33699,-15.12071 -6.22558,-4.44901 -7.97518,-11.15561 -9.31979,-18.34169 -2.12308,-11.34644 -3.46783,-22.83505 -4.61518,-34.30969 -4.61667,-46.17097 -9.49249,-92.75304 -18.60503,-138.32223 -0.72494,-3.62519 -1.56836,-7.222122 -2.34933,-10.834638 -0.59036,-2.730835 -1.37585,-5.419127 -2.06145,-8.12598 -3.72372,-14.701952 -10.78229,-33.40363 -27.876479,-36.251448 -2.22554,-0.370766 -4.60595,-0.589963 -6.86194,-0.375086 -23.21077,2.210727 -31.269805,28.653688 -35.140403,48.002906 -4.909658,24.543526 -6.433227,49.783456 -9.69363,74.578436 -1.622233,12.33689 -3.098952,24.70244 -4.873637,37.01835 -2.402475,16.67262 -4.950156,33.40354 -6.106885,50.20049 -0.865867,12.57332 -1.729312,25.09225 -3.790452,37.56009 -0.408795,2.4728 -0.795241,4.9834 -1.457577,7.40367 -0.795196,2.90575 -1.969869,6.04189 -0.791558,9.02886 1.638032,4.15236 6.660353,5.7699 10.75076,5.5908 4.528742,-0.19832 8.834923,-2.22684 13.362722,-2.33776 3.642184,-0.0892 7.224476,0.88115 10.83464,1.23074 6.07026,0.58782 12.13693,0.75297 18.23831,0.75297 3.72232,0 8.2575,0.72621 11.73753,-0.77414 1.54887,-0.66777 3.45726,-1.53462 2.99861,-3.55972 -1.25224,-5.52906 -8.41799,-2.06152 -11.66633,-3.04905 -7.63784,-2.322 -14.91551,-5.98932 -22.03043,-9.54677 -2.680667,-1.34033 -6.860902,-2.69254 -8.747689,-5.10801 -3.423034,-4.38213 -1.729361,-10.44179 -0.750734,-15.34182 1.483406,-7.42748 3.033774,-14.86271 4.870851,-22.21101 0.946276,-3.78511 2.664147,-7.85862 3.002377,-11.73753 m 85.954804,-3.43097 c -3.34977,0.0277 -6.77753,0.55468 -10.11233,0.87223 -5.52118,0.52577 -11.08264,0.71922 -16.61311,1.09797 -15.770549,1.07998 -31.662909,0.99522 -47.491839,0.91891 -8.59349,-0.0414 -17.271211,-0.98114 -25.822557,-1.83615 -3.278177,-0.32778 -6.637922,-1.02569 -9.931753,-1.05296 3.890168,-30.78136 8.562792,-61.46771 12.251253,-92.27501 2.528121,-21.11575 3.762619,-42.55457 9.216549,-63.20206 4.321608,-16.360764 13.406948,-37.739448 33.427708,-37.74066 2.58075,-1.55e-4 5.27537,0.266655 7.76482,0.980081 15.987199,4.581621 20.933679,22.972072 24.815729,36.941157 1.07473,3.867291 1.9892,7.801615 2.77652,11.737522 6.65339,33.26152 11.0075,66.93299 15.15316,100.58157 1.16916,9.48952 2.13964,19.01964 3.09071,28.53122 0.47731,4.77353 0.5993,9.72856 1.47514,14.44618 M 69.644621,54.748194 c -3.20021,0.435616 -6.31066,1.087101 -9.39002,2.069806 -0.51667,0.164882 -2.9014,1.02322 -2.2118,1.895246 0.49843,0.630257 2.63247,-0.04417 3.29526,-0.177535 3.14132,-0.632043 6.3403,-1.681649 9.5706,-1.697233 1.85944,-0.009 3.62425,-0.02315 5.41732,0.546757 0.94997,0.301947 2.21106,1.190462 3.23981,0.788086 2.05487,-0.803714 -0.89401,-2.211697 -1.61461,-2.473481 -2.63917,-0.958788 -5.50666,-1.332772 -8.30656,-0.951646 m 30.878719,5.51e-4 c -1.720509,0.246508 -3.712559,0.739745 -5.217089,1.643447 -0.80273,0.48215 -0.87637,1.586378 0.16441,1.830727 1.50354,0.352998 3.6713,-1.129358 5.233259,-1.332331 2.84744,-0.370038 5.88414,0.119562 8.66771,0.708113 1.81656,0.38408 5.39369,1.954785 7.19286,1.281455 0.67807,-0.25376 0.20427,-0.912232 -0.16176,-1.204414 -0.8961,-0.715278 -2.16097,-0.98751 -3.23898,-1.302485 -3.95541,-1.155721 -8.4992,-2.217825 -12.64041,-1.624512 m 5.5979,7.402985 c -4.37216,0.57544 -7.390539,2.56715 -11.376369,4.17541 -0.59316,0.23935 -4.01695,0.55692 -3.57978,1.48406 0.50369,1.06821 4.10319,0.35145 5.20497,0.70518 4.580289,1.47047 9.118269,2.17572 13.904459,1.27645 1.62049,-0.30446 3.08792,-1.14023 4.67885,-1.47209 0.69225,-0.1444 1.14911,0.64926 1.81859,0.40395 2.07658,-0.76093 -1.09366,-3.09951 -1.80243,-3.70616 -2.39654,-2.05122 -5.66508,-3.28575 -8.84829,-2.8668 m -34.490269,0.37731 c -4.40341,0.27665 -8.21731,2.06778 -12.45984,3.03999 -0.73009,0.16731 -3.835934,0.13819 -3.98691,1.04209 -0.170578,1.02126 3.52241,0.69798 4.16749,0.85662 4.55268,1.11968 8.30793,3.23159 13.18215,2.89775 2.5609,-0.1754 4.92477,-1.17065 7.40367,-1.44575 0.90348,-0.10025 1.83586,1.00934 2.57113,-0.024 0.75891,-1.06651 -1.39869,-2.25227 -2.0294,-2.85509 -2.47781,-2.3682 -5.32718,-3.73287 -8.84829,-3.51164 m 31.059299,1.71297 c 0.10332,2.26094 1.52018,3.99331 3.79212,4.33385 v 0.18058 l -9.931749,-1.44462 v -0.18058 l 6.139629,-2.88923 m -34.670849,0.18057 c 0.43705,5.34374 7.07753,5.43485 8.48714,0.54174 1.36118,0.27088 2.47514,1.42766 3.25039,2.52808 -5.85057,1.59689 -12.92188,2.57241 -18.41889,-0.90289 1.80712,-1.13716 4.59666,-1.73548 6.68136,-2.16693 m 46.588949,2.16693 v 0.36116 c -2.38648,0.80739 -4.67034,1.69611 -7.22309,1.80577 v -0.18058 c 1.976,-0.30836 3.41307,-2.21553 3.61155,-4.15328 l 3.61154,2.16693 M 87.702351,275.69802 c -1.34312,2.03299 -5.17293,2.14932 -6.3202,0 h 6.3202 m 107.804659,0.54173 c -1.0032,1.5182 -4.57094,2.11874 -5.41732,0.36116 1.93228,-0.61787 3.43524,-0.77006 5.41732,-0.36116 z"
       id="path1" /></g></svg>
