<?xml version="1.0" encoding="UTF-8" standalone="no"?>
<!-- Created with Inkscape (http://www.inkscape.org/) -->

<svg
   width="210mm"
   height="297mm"
   viewBox="0 0 210 297"
   version="1.1"
   id="svg1"
   xml:space="preserve"
   inkscape:version="1.4.3 (unknown)"
   sodipodi:docname="monk.svg"
   xmlns:inkscape="http://www.inkscape.org/namespaces/inkscape"
   xmlns:sodipodi="http://sodipodi.sourceforge.net/DTD/sodipodi-0.dtd"
   xmlns="http://www.w3.org/2000/svg"
   xmlns:svg="http://www.w3.org/2000/svg"><sodipodi:namedview
     id="namedview1"
     pagecolor="#ffffff"
     bordercolor="#000000"
     borderopacity="0.25"
     inkscape:showpageshadow="2"
     inkscape:pageopacity="0.0"
     inkscape:pagecheckerboard="0"
     inkscape:deskcolor="#d1d1d1"
     inkscape:document-units="mm"
     inkscape:zoom="0.4338454"
     inkscape:cx="396.45459"
     inkscape:cy="561.25984"
     inkscape:window-width="1366"
     inkscape:window-height="696"
     inkscape:window-x="0"
     inkscape:window-y="0"
     inkscape:window-maximized="1"
     inkscape:current-layer="layer1" /><defs
     id="defs1" /><g
     inkscape:label="Layer 1"
     inkscape:groupmode="layer"
     id="layer1"><path
       style="fill:#000000;stroke-width:1.10086"
       d="m 86.583022,293.70342 c -0.245537,-0.24553 -0.441821,-0.77288 -0.436184,-1.17189 0.0055,-0.39899 0.265055,-0.3235 0.576467,0.16776 0.445431,0.70271 0.665042,0.63564 1.029615,-0.31441 0.254872,-0.6642 0.249202,-0.99342 -0.01255,-0.73161 -0.261818,0.26181 -0.880426,0.14039 -1.374703,-0.26982 -0.661024,-0.5486 -0.898667,-0.54706 -0.898667,0.006 0,0.41339 -0.301351,0.75165 -0.669655,0.75165 -0.368305,0 -0.669655,-0.48426 -0.669655,-1.07613 0,-0.66454 -0.371068,-0.93373 -0.970191,-0.70383 -0.582104,0.22338 -1.131555,-0.1361 -1.37358,-0.89865 -0.242036,-0.76256 -0.791477,-1.12204 -1.373591,-0.89866 -0.607897,0.23327 -0.970191,-0.0444 -0.970191,-0.74335 0,-0.6136 -0.288184,-0.93754 -0.640405,-0.71985 -0.352221,0.21769 -0.458542,0.91349 -0.236267,1.54624 0.277494,0.78994 0.183789,0.94061 -0.299072,0.48079 -0.386766,-0.36831 -0.807791,-1.24737 -0.935623,-1.95346 -0.306018,-1.6904 -1.894465,-2.19043 -1.948979,-0.61353 -0.03358,0.97122 -0.174377,0.89831 -0.673971,-0.34901 -0.404314,-1.00946 -0.991349,-1.43863 -1.631677,-1.19291 -0.55009,0.21109 -1.021348,0.0166 -1.047229,-0.43225 -0.02587,-0.44882 -0.294888,-0.21336 -0.59778,0.52326 -0.504349,1.22657 -0.590844,1.24099 -1.027579,0.17125 -0.26228,-0.64242 -0.746638,-1.00131 -1.076347,-0.79754 -0.329719,0.20378 -0.623275,-0.17463 -0.652349,-0.84091 -0.03071,-0.7028 -0.194677,-0.85997 -0.39063,-0.37434 -0.185771,0.46038 -0.64624,0.83706 -1.023253,0.83706 -0.377023,0 -0.515743,-0.44236 -0.308274,-0.98303 0.207479,-0.54067 0.08906,-1.16113 -0.263173,-1.37882 -0.352232,-0.21769 -0.640405,-0.0766 -0.640405,0.31337 0,0.39005 -0.319129,0.70918 -0.709176,0.70918 -0.390047,0 -0.522932,-0.30134 -0.295306,-0.66966 0.227625,-0.3683 0.09478,-0.66964 -0.295307,-0.66964 -0.390036,0 -0.709165,0.30134 -0.709165,0.66964 0,0.36832 -0.291883,0.66966 -0.648639,0.66966 -0.356746,0 -0.475177,-0.45202 -0.263173,-1.00448 0.52662,-1.37236 -0.414948,-1.26757 -1.504263,0.16742 -0.836425,1.10185 -0.890863,1.09385 -0.910887,-0.13394 -0.01662,-1.01563 -0.199862,-1.12725 -0.824877,-0.50223 -0.441964,0.44196 -1.058304,0.80357 -1.369639,0.80357 -0.954481,0 0.272188,-4.79547 1.554738,-6.07803 1.162908,-1.16289 1.214604,-1.14118 1.414983,0.59399 0.179947,1.55826 0.359454,1.35432 1.332001,-1.51333 0.765628,-2.25751 0.923051,-3.68982 0.493726,-4.49203 -0.482685,-0.90191 -0.302264,-1.35329 0.770439,-1.92738 0.770406,-0.4123 1.705523,-1.62397 2.078044,-2.69259 0.658559,-1.88913 0.730214,-1.91558 2.587678,-0.95504 1.050708,0.54333 2.076063,0.71979 2.278567,0.39213 0.202514,-0.32767 -0.332549,-0.77164 -1.189021,-0.98661 -1.119698,-0.28102 -1.798744,-1.1948 -2.416813,-3.25228 -1.164239,-3.87556 -2.070679,-6.61279 -2.72163,-8.21863 -1.122452,-2.76902 -2.126483,-9.65764 -2.63528,-18.08058 -0.289229,-4.78801 -0.641407,-9.1198 -0.782625,-9.62623 -0.532235,-1.90866 1.296244,-1.39464 1.976071,0.55551 0.391005,1.12166 1.003305,2.03939 1.360645,2.03939 0.35734,0 1.141683,0.18878 1.742974,0.41952 0.910216,0.34929 1.018057,0.097 0.644105,-1.50671 -0.634197,-2.71977 -2.062534,-3.60037 -5.83987,-3.60037 -2.788112,0 -3.570969,-0.3046 -5.163071,-2.00895 -1.032147,-1.10493 -2.521097,-2.00895 -3.308776,-2.00895 -2.034428,0 -6.457674,-2.3897 -7.6962,-4.15794 -2.944721,-4.20418 1.168786,-15.37991 9.879267,-26.84042 4.338237,-5.70788 5.128558,-7.17174 3.871934,-7.17174 -1.791127,0 -6.161939,-12.03296 -7.444015,-20.4936 -0.440719,-2.90837 -0.919144,-5.89064 -1.063169,-6.62726 -1.128528,-5.77195 0.312601,-26.64879 2.143589,-31.05313 0.516327,-1.24198 0.938772,-3.34109 0.938772,-4.66468 v -2.40654 l -3.676806,3.63113 c -3.763983,3.71723 -4.877836,5.92953 -5.06048,10.05096 -0.291553,6.57877 0.334684,6.86256 3.32486,1.50672 1.253641,-2.24547 2.018564,-3.15265 1.83505,-2.17636 -0.452454,2.40702 -3.601903,9.64764 -4.297252,9.87942 -1.3284,0.4428 -2.216533,-3.23425 -2.356607,-9.75672 l -0.148352,-6.90862 4.017908,-3.62671 c 2.20984,-1.9947 6.880659,-5.18339 10.379588,-7.086 8.435694,-4.58707 11.87119,-6.98774 12.404515,-8.6681 0.41912,-1.32055 0.501201,-1.33152 1.718799,-0.22959 0.703254,0.63643 1.278653,1.49916 1.278653,1.91717 0,0.86073 -4.32811,3.47956 -10.618772,6.42517 -6.755469,3.16323 -8.325223,4.49611 -7.755328,6.58504 0.263932,0.96745 0.421058,4.39575 0.349172,7.61844 -0.08367,3.74969 0.123913,5.85945 0.576478,5.85945 0.907827,0 0.952588,-11.32105 0.05405,-13.68426 -0.722023,-1.89904 -0.282173,-2.13091 1.49014,-0.78553 1.01308,0.76904 1.172386,2.10464 1.175623,9.85605 0.0044,9.37762 0.343953,11.44253 3.097454,18.80853 0.922061,2.46667 1.580873,5.42317 1.464005,6.57002 l -0.212467,2.08516 -2.678609,-2.84277 c -2.266402,-2.4053 -2.386264,-2.66099 -0.77896,-1.66154 2.426028,1.50854 2.885165,1.01376 1.621968,-1.74786 -0.553558,-1.21017 -1.712392,-4.21219 -2.575183,-6.67114 -0.862801,-2.45895 -1.805382,-4.32457 -2.094634,-4.1458 -1.488015,0.91964 0.146106,14.38429 2.296664,18.92395 2.117489,4.46981 2.131756,4.61693 0.248223,2.5599 -2.593215,-2.83208 -3.726961,-7.93993 -4.32266,-19.47469 -0.297552,-5.76166 -0.704608,-10.63936 -0.904579,-10.83933 -0.199972,-0.19996 -0.742874,2.73272 -1.206458,6.51708 -2.29159,18.70699 2.095151,41.33405 8.716579,44.96055 2.139208,1.17164 2.7417,1.21002 7.01295,0.4467 4.341,-0.77579 4.959212,-1.11174 8.708983,-4.73266 2.219957,-2.14368 5.090986,-5.25357 6.380063,-6.91085 1.289078,-1.65728 2.745784,-3.17904 3.237122,-3.38169 0.935678,-0.3859 0.79021,-0.17532 -4.743829,6.86719 -1.74947,2.22632 -3.180845,4.22916 -3.180845,4.45076 0,0.22158 0.852035,-0.0378 1.893419,-0.57625 3.272811,-1.69244 8.736681,-9.32747 10.654131,-14.88773 0.694524,-2.01401 0.64057,-2.12167 -1.25298,-2.50038 -3.130679,-0.62614 -3.958,-3.52775 -3.890318,-13.64423 0.04018,-5.99758 -0.253672,-9.53272 -0.987717,-11.88505 -1.986507,-6.36595 -1.22875,-11.7176 2.16411,-15.28394 1.61435,-1.69689 2.176858,-1.86961 5.482023,-1.68335 3.9568,0.223 5.546609,-0.49944 7.567221,-3.43865 0.62603,-0.91065 1.13363,-2.11602 1.12799,-2.67861 -0.008,-0.76525 -0.1446,-0.8113 -0.54362,-0.18283 -1.469541,2.3146 -5.106141,4.10815 -9.223743,4.54911 -2.356783,0.25239 -4.285055,0.71739 -4.285055,1.03333 0,1.53383 -12.297115,4.71343 -14.04686,3.63203 -1.61534,-0.99833 0.357296,-1.68389 4.845196,-1.68389 5.390431,0 5.306711,-0.71144 -0.233273,-1.98229 -2.803909,-0.6432 -4.094836,-0.67025 -5.145764,-0.10777 -0.771584,0.41293 -1.950036,0.74571 -2.618789,0.73951 -2.148466,-0.0199 2.848726,-2.73732 5.273443,-2.8676 1.218865,-0.0655 3.801666,0.28502 5.739559,0.77891 1.937894,0.49389 3.998225,0.71579 4.578512,0.49312 0.887615,-0.34062 0.768645,-0.74524 -0.749655,-2.54964 -1.531278,-1.81983 -1.746794,-2.56727 -1.422491,-4.93338 l 0.382231,-2.7886 -2.821204,-0.39103 c -1.551656,-0.21506 -5.53328,-1.19127 -8.848045,-2.16934 -5.748707,-1.696242 -6.303784,-1.742633 -12.027062,-1.004977 -6.613303,0.852367 -9.609159,1.982257 -15.036734,5.671157 -4.347407,2.95475 -6.128516,2.82068 -9.498214,-0.71489 -2.126141,-2.23079 -2.166311,-2.35209 -0.603614,-1.82236 3.031138,1.02751 5.596183,0.51482 13.671652,-2.73262 7.947363,-3.195927 8.004222,-3.207453 14.062668,-2.850432 4.182179,0.24645 7.966353,0.983191 12.109902,2.357685 8.839326,2.932187 10.192166,3.088727 11.112212,1.285817 0.417447,-0.81804 1.848779,-3.144723 3.180746,-5.170411 1.331956,-2.025696 2.453373,-3.758961 2.492035,-3.851697 0.03864,-0.09269 1.537289,0.272893 3.330287,0.812514 1.793009,0.53961 3.382279,0.858838 3.531721,0.709396 0.708626,-0.708615 -8.092124,-11.063236 -9.403031,-11.063236 -0.296276,0 0.224818,1.506714 1.157997,3.348255 2.072089,4.089065 1.318097,4.400466 -1.216035,0.502238 -2.219142,-3.413705 -3.877537,-8.758075 -4.415683,-14.230081 l -0.395133,-4.017905 -1.503284,2.417261 c -2.556798,4.111317 -3.578719,7.860685 -3.108529,11.405103 0.393966,2.969852 0.673178,3.36617 3.524314,5.002442 3.296601,1.891927 6.779523,4.842209 6.779523,5.742738 0,1.186356 -1.895389,0.377783 -6.696507,-2.856733 -2.762305,-1.861465 -7.502446,-4.592515 -10.533651,-6.069493 -4.590247,-2.236642 -6.535802,-2.781522 -11.641958,-3.260502 -5.652393,-0.530221 -6.306481,-0.745472 -8.383986,-2.759067 -2.717679,-2.634081 -2.969557,-3.826345 -0.411756,-1.949069 1.667819,1.224077 8.724087,3.07843 9.346339,2.456174 0.141175,-0.14118 -1.03763,-1.004324 -2.619581,-1.918103 -4.552917,-2.629898 -11.921214,-4.144632 -20.287179,-4.170532 -6.113005,-0.01892 -7.650966,-0.234814 -9.040289,-1.269021 l -1.674126,-1.246216 2.05584,0.368307 c 1.130707,0.202568 4.897498,0.100013 8.370633,-0.227888 6.169732,-0.582498 6.473989,-0.543021 13.244639,1.718445 4.255881,1.421511 8.415713,3.356915 10.78062,5.015806 4.282006,3.003653 8.855057,4.649946 9.290217,3.344464 0.516019,-1.548071 6.72143,-7.342865 6.995248,-6.532363 0.151358,0.448038 0.762381,-0.08941 1.357816,-1.194338 1.832144,-3.399791 6.49703,-8.118745 7.0851,-7.167222 0.387526,0.627029 0.825273,0.497011 1.743789,-0.517935 1.476004,-1.630974 4.067954,-1.770664 4.910764,-0.264659 0.467118,0.834711 0.732569,0.89256 1.131764,0.246647 0.318711,-0.515689 0.0699,-1.09653 -0.639723,-1.493684 -0.638687,-0.357424 -1.596086,-1.690582 -2.127561,-2.962574 -0.806481,-1.930196 -1.211456,-2.238597 -2.448441,-1.864597 -2.490757,0.753072 -9.183114,4.463514 -9.183114,5.091394 0,0.324889 0.753354,0.93396 1.674127,1.353491 2.489888,1.134469 2.024884,1.8694 -0.661201,1.045018 -3.351875,-1.028723 -4.766165,-2.626049 -5.760607,-6.50616 -0.481143,-1.877305 -1.191795,-3.316014 -1.579232,-3.197132 -6.324481,1.940624 -9.068658,2.904848 -9.048017,3.179222 0.01387,0.184154 1.359764,1.316414 2.990913,2.516134 2.760668,2.0305 8.85945,9.937105 8.185138,10.611417 -0.165526,0.165532 -1.559659,-1.366165 -3.098071,-3.403772 -4.191008,-5.550666 -11.717422,-11.021879 -13.1676,-9.571703 -0.171955,0.171954 1.653221,1.822168 4.055943,3.66714 4.140236,3.179152 11.417294,10.770692 10.859343,11.32864 -0.142914,0.142915 -2.794915,-2.227461 -5.893338,-5.267502 -4.887393,-4.795301 -12.205931,-9.892547 -13.026041,-9.072434 -0.148947,0.148936 2.023673,1.911538 4.828023,3.916892 4.78554,3.422071 12.26476,10.921953 12.271442,12.305331 0.0022,0.342882 -2.633738,-1.931208 -5.856437,-5.053535 -3.222689,-3.122325 -7.447747,-6.677732 -9.38902,-7.900903 l -3.529577,-2.223947 -5.845528,1.438357 c -3.215049,0.791095 -9.090069,2.373781 -13.05562,3.517077 -6.7462,1.944981 -7.279766,2.22558 -8.293254,4.361355 -0.595754,1.25545 -2.348768,3.319686 -3.895591,4.587193 -1.546823,1.267506 -3.368355,3.336892 -4.047852,4.598636 -1.111728,2.064365 -1.149642,2.677472 -0.378586,6.122908 0.49857,2.22785 0.836931,7.923057 0.809211,13.620407 -0.07673,15.773942 2.005706,25.647082 7.008733,33.229352 3.072729,4.65682 4.252073,5.89913 7.616091,8.02275 2.556974,1.61414 3.391935,1.80307 6.534976,1.47868 1.981895,-0.20455 4.641735,-0.98451 5.910744,-1.73324 1.269009,-0.74874 2.307288,-1.07523 2.307288,-0.72556 0,0.34969 -1.49669,1.39422 -3.325983,2.32121 -3.402768,1.7243 -10.06703,2.39672 -10.06703,1.01575 0,-0.36831 -0.558677,-0.66965 -1.241521,-0.66965 -2.558879,0 -8.522629,-7.13479 -11.495884,-13.75322 -3.695884,-8.227 -4.430302,-12.45776 -5.007705,-28.84792 -0.170182,-4.83107 -0.757669,-10.705169 -1.305503,-13.053541 l -0.996072,-4.269769 2.601945,-5.361859 c 1.431067,-2.949022 3.455499,-6.168505 4.498721,-7.154405 2.39473,-2.263137 9.033981,-4.774356 19.241701,-7.277949 4.383384,-1.075092 8.451514,-2.37763 9.040277,-2.89453 0.588775,-0.516901 2.275859,-1.120755 3.749089,-1.3419 C 70.740423,55.720411 73.791994,54.953081 73.583743,53.342116 73.493363,52.643045 72.956736,49.057649 72.391211,45.37457 70.531688,33.264104 70.485408,32.072967 71.728976,28.328938 74.077029,21.259624 83.509203,13.575848 93.460829,10.625422 100.96974,8.3992026 108.48271,7.4839967 114.09472,8.1118652 c 5.7369,0.6418417 13.56022,3.6481808 13.56022,5.2109138 0,0.502165 0.54152,0.913027 1.2034,0.913027 0.66187,0 2.29538,1.130036 3.63005,2.51119 3.48828,3.609799 7.10741,15.732193 7.67911,25.72142 0.39193,6.848206 0.33759,7.259694 -1.33576,10.115063 -1.2718,2.170138 -2.74941,3.501631 -5.45449,4.915106 -2.04061,1.066259 -3.71089,2.099688 -3.71177,2.296509 -8.7e-4,0.19682 0.97777,0.93249 2.17478,1.63482 4.18208,2.453805 9.19381,8.793044 8.21008,10.384764 -0.21049,0.34057 -0.38935,3.833679 -0.39748,7.762465 -0.0137,6.584355 0.12142,7.34906 1.72601,9.773761 0.95743,1.446783 2.18147,2.799626 2.72007,3.006302 0.53861,0.206687 1.65992,1.517166 2.49181,2.912177 2.10282,3.526285 7.46593,9.130597 10.04741,10.499297 1.57993,0.83768 3.9434,1.16318 8.85069,1.21893 6.06392,0.0689 6.71789,0.1985 6.93619,1.37475 0.13257,0.71428 0.83145,1.85665 1.55306,2.53859 1.32936,1.25627 1.48424,1.25657 8.33825,0.0163 2.75558,-0.49867 4.26786,1.55719 4.26786,5.80191 v 3.07696 l -3.51567,1.09039 c -4.87689,1.5126 -12.32254,3.1721 -14.23212,3.1721 -0.87617,0 -1.75023,0.25434 -1.94235,0.56519 -0.19212,0.31085 0.57623,3.2011 1.70744,6.42278 1.13837,3.24208 1.79997,6.10817 1.48167,6.41877 -0.31628,0.30863 -1.37427,0.75841 -2.35106,0.99951 -1.58573,0.39139 -1.82616,0.21003 -2.24411,-1.69293 -0.34015,-1.54865 -0.66927,-1.93013 -1.20395,-1.39544 -1.58249,1.58249 -1.99249,0.64522 -1.59231,-3.64017 l 0.40864,-4.37599 -2.40041,2.53446 c -1.45044,1.53144 -3.18648,4.58662 -4.38668,7.71994 -1.09245,2.85202 -2.27662,5.36493 -2.63147,5.58424 -0.40957,0.25312 -0.39833,0.6962 0.0307,1.21322 0.45982,0.55405 0.37899,1.94016 -0.25276,4.33502 -2.13399,8.0896 -7.94996,13.32904 -15.33789,13.81748 -1.88962,0.12492 -3.62467,0.2511 -3.85565,0.28041 -0.23099,0.0293 -0.28154,1.33397 -0.11232,2.89927 0.1692,1.56531 6.2e-4,3.59938 -0.37465,4.52015 -0.59322,1.45558 -0.68783,1.21517 -0.72474,-1.84154 -0.0233,-1.93362 -0.26844,-3.51797 -0.54467,-3.52079 -0.27624,-0.003 -2.53534,0.82588 -5.02021,1.84154 l -4.51796,1.84666 -0.002,7.6675 c -10e-4,5.45744 -0.20921,7.46049 -0.72042,6.94927 -0.47621,-0.4762 -0.7184,-6.89608 -0.71872,-19.05156 l -4.8e-4,-18.33334 -3.24567,-0.0478 -3.24566,-0.0478 -0.46395,6.18831 c -0.38497,5.13479 -0.28008,6.45085 0.61612,7.73035 0.59405,0.84813 1.08008,2.37902 1.08008,3.40199 0,1.67875 -0.29181,1.97086 -1.80839,1.81029 -0.25799,-0.0273 -0.70654,0.59225 -0.99677,1.37683 -0.37506,1.01387 -0.11643,1.98275 0.89411,3.34957 1.47761,1.99859 1.30846,4.02872 -0.33567,4.02872 -0.61503,0 -1.11224,1.08554 -1.41161,3.08187 -0.39907,2.66109 -0.2723,3.21485 0.92843,4.05587 1.85062,1.29623 1.75491,2.63745 -0.28353,3.97309 -1.29474,0.84834 -1.67412,1.6679 -1.67412,3.61652 0,1.42269 0.43729,2.88251 1.00447,3.35323 1.40054,1.16233 1.2524,2.87126 -0.33482,3.8625 -1.07298,0.67008 -1.33931,1.56164 -1.33931,4.48346 0,3.61101 0.0224,3.65124 2.25649,4.07038 1.60209,0.30055 3.02893,0.0293 4.92015,-0.93559 l 2.66368,-1.35891 0.43304,-5.56316 c 0.23817,-3.05974 0.43484,-7.01965 0.43705,-8.7998 0.002,-1.79552 0.29312,-3.13726 0.65332,-3.01344 0.37512,0.12897 0.75771,5.45462 0.90603,12.61177 0.22836,11.01923 0.12026,12.6618 -0.97795,14.86093 -2.34301,4.69179 -8.61108,7.80096 -12.86296,6.38044 -1.778,-0.59401 -1.88131,-0.82269 -1.53842,-3.4055 2.1175,-15.95035 4.29708,-40.33559 3.65877,-40.93442 -0.1179,-0.11061 -2.43743,0.36662 -5.1545,1.06051 -2.71708,0.69389 -5.65517,1.08216 -6.529103,0.86282 -1.160078,-0.29116 -1.588953,-0.11876 -1.588953,0.63875 0,0.57065 0.277858,1.20927 0.617474,1.41916 0.339606,0.2099 1.264382,2.32561 2.055062,4.70159 0.79067,2.37597 2.18509,5.42145 3.09871,6.76774 0.9136,1.34628 1.52597,2.58293 1.36081,2.74809 -0.62305,0.62304 -3.77551,-4.36314 -6.54043,-10.34485 -3.125755,-6.76239 -3.124787,-6.76165 -10.485972,-7.91937 -2.856311,-0.44923 -2.861485,-0.44626 -2.209741,1.26797 0.370022,0.97323 0.436338,3.11661 0.152954,4.94327 -0.635011,4.09307 0.599772,23.34801 1.967496,30.68071 0.787007,4.21939 3.249473,11.71888 3.847913,11.71888 0.248365,0 0.833683,-0.86323 1.300703,-1.91831 0.467019,-1.05506 1.789926,-3.33865 2.939789,-5.07462 l 2.090658,-3.15633 -1.731108,-5.13754 c -3.535442,-10.49245 -6.500121,-23.73399 -6.500121,-29.0324 0,-5.02581 0.975541,-3.17846 1.908522,3.61407 1.273336,9.27048 3.869391,18.43604 7.146604,25.2315 l 3.033443,6.29001 -4.370167,4.52671 c -4.11149,4.25877 -4.370149,4.71196 -4.370149,7.65674 0,2.56666 0.35232,3.48238 1.957434,5.0875 3.442958,3.44296 7.651252,2.64361 18.132082,-3.44412 5.38351,-3.12699 8.20835,-4.31856 12.05372,-5.08454 10.56694,-2.10487 13.53654,-3.67459 14.40147,-7.61258 0.24049,-1.09497 0.83359,-1.99085 1.31801,-1.99085 1.86734,0 -0.0931,4.90119 -2.95372,7.38443 -1.67157,1.45104 -2.721,2.94164 -2.721,3.86484 0,0.95315 -0.61231,1.7818 -1.67413,2.2656 -0.92077,0.41953 -1.69466,0.94041 -1.71974,1.15752 -0.0251,0.21712 -0.12886,3.10684 -0.23059,6.42161 -0.16895,5.50504 -0.46054,6.66465 -3.36764,13.39302 -1.75047,4.05139 -3.52255,8.1994 -3.93795,9.21781 -0.73366,1.79867 -3.60033,3.15745 -6.68154,3.167 -0.66283,0.002 -2.11233,0.47285 -3.22112,1.04624 -1.10877,0.57337 -3.12788,0.95004 -4.48688,0.83706 -2.20559,-0.18338 -2.49012,-0.42116 -2.64971,-2.2144 -0.0983,-1.10491 -0.67726,-3.817 -1.28649,-6.02685 -0.73969,-2.683 -1.0564,-6.08143 -0.95328,-10.22887 0.20217,-8.13078 -0.0618,-8.92097 -2.80867,-8.40928 -1.17642,0.21914 -3.08276,0.96421 -4.236321,1.65571 -1.153562,0.69149 -3.112293,1.24167 -4.352723,1.22262 -2.909537,-0.0447 -7.275484,0.71528 -7.285479,1.26818 -0.0044,0.23594 -0.754136,4.4971 -1.666377,9.46926 -0.91223,4.97216 -1.662094,11.07435 -1.666365,13.56043 -0.0066,4.05231 0.128679,4.52014 1.310522,4.52014 0.854325,0 1.191784,0.32968 0.95883,0.93674 -0.197704,0.51521 -0.0055,1.15557 0.427333,1.42301 0.597934,0.36954 0.591285,0.6071 -0.02774,0.98967 -0.588488,0.36371 -0.169797,1.50191 1.508766,4.10161 3.11792,4.82892 5.426727,7.23733 10.212012,10.65258 2.209852,1.57717 4.136182,2.96326 4.280742,3.08021 0.59657,0.48263 -1.52638,2.25396 -2.701367,2.25396 -1.020357,0 -1.187457,0.32916 -0.849888,1.67413 0.400153,1.59433 0.281072,1.67392 -2.498429,1.66999 -1.605246,-0.002 -3.781751,-0.45428 -4.836697,-1.00447 -2.404836,-1.25421 -2.213825,-1.3017 -2.709643,0.67377 -0.416643,1.66005 -1.097648,2.08723 -1.95718,1.2277 z m 7.585244,-2.7344 c -0.0022,-0.27624 -0.466271,-1.38848 -1.031112,-2.47168 -1.023275,-1.96231 -1.022053,-1.96496 0.338944,-0.73327 0.751273,0.67988 1.365951,1.64147 1.365951,2.13685 0,0.49538 0.452015,0.90068 1.004472,0.90068 1.277659,0 1.301702,-1.59827 0.03985,-2.64556 -0.530572,-0.44033 -0.881296,-1.15525 -0.7794,-1.58871 0.10194,-0.43346 0.06407,-0.57764 -0.08411,-0.32041 -0.148154,0.25724 -0.927455,0.21329 -1.73179,-0.0976 -0.804334,-0.31095 -2.770751,-0.95544 -4.36981,-1.4322 -1.599059,-0.47675 -4.310187,-1.86418 -6.024716,-3.08317 -1.714528,-1.21898 -3.295929,-2.21633 -3.514219,-2.21633 -0.333452,0 -1.95117,2.99256 -1.95117,3.60941 0,0.29265 8.851105,5.46923 10.178074,5.95264 0.850208,0.30974 1.048198,0.12692 0.783353,-0.72329 -0.19493,-0.62577 0.421608,-0.23376 1.370079,0.87117 1.933049,2.25189 2.349638,1.53115 0.591229,-1.02289 -1.091538,-1.58542 -1.088577,-1.61424 0.06979,-0.67876 0.665329,0.53733 1.472184,1.66737 1.793009,2.51119 0.540634,1.42198 1.961011,2.17305 1.951643,1.03201 z m 5.358075,-2.82983 c 0.858859,-0.54297 0.811259,-0.7765 -0.334828,-1.64258 -1.868693,-1.41213 -2.202001,-1.29915 -1.834764,0.62191 0.349392,1.82772 0.661057,1.97435 2.169592,1.02067 z m -8.032545,-4.03409 c -0.552468,-0.35704 -1.456497,-0.63258 -2.008954,-0.61234 -0.662323,0.0243 -0.548274,0.23286 0.334827,0.61234 1.84093,0.79107 2.898221,0.79107 1.674127,0 z m -0.178241,-3.47897 c -1.285356,-1.58549 -3.727831,-5.06745 -5.427728,-7.73768 -2.382885,-3.74309 -3.446429,-4.85498 -4.643948,-4.85498 -1.884809,0 -5.641923,3.63611 -4.491664,4.34702 0.423623,0.2618 0.612157,0.8879 0.418988,1.39131 -0.193179,0.50341 -0.01651,1.12218 0.392634,1.37503 0.45044,0.27839 0.555397,0.15477 0.266057,-0.31338 -0.262798,-0.42521 -0.130475,-0.77311 0.294051,-0.77311 0.424526,0 0.92947,0.60268 1.122099,1.3393 0.192629,0.73662 0.573098,1.3393 0.845485,1.3393 0.272398,0 1.870983,1.05044 3.552419,2.33432 2.813344,2.14815 9.198626,5.19712 9.766297,4.66341 0.13327,-0.1253 -0.809333,-1.52505 -2.09469,-3.11054 z m -3.839667,-1.20859 c 0,-0.36831 0.301339,-0.66965 0.669655,-0.66965 0.368305,0 0.669644,0.30134 0.669644,0.66965 0,0.36831 -0.301339,0.66965 -0.669644,0.66965 -0.368316,0 -0.669655,-0.30134 -0.669655,-0.66965 z m -1.488929,2.44276 c -1.371378,-0.84333 -3.105942,-2.08768 -3.854595,-2.7652 -0.748653,-0.67752 -1.535242,-1.05782 -1.747972,-0.84509 -0.442283,0.44229 6.385534,5.19632 7.417384,5.16454 0.373226,-0.0114 -0.443438,-0.71091 -1.814817,-1.55425 z m -10.267926,-1.92211 c 1.187215,-1.69499 1.396026,-4.53855 0.333275,-4.53855 -0.390047,0 -0.522932,0.30134 -0.295307,0.66965 0.534877,0.86546 -0.689118,0.84269 -3.991828,-0.0742 -2.493466,-0.69225 -2.748052,-0.62536 -4.245391,1.1154 -1.513918,1.76002 -1.531807,1.88646 -0.360896,2.55119 0.67757,0.38467 2.437322,0.90141 3.910552,1.14831 1.473241,0.2469 2.887531,0.48663 3.142876,0.53273 0.255345,0.0461 0.933367,-0.58592 1.506719,-1.40449 z m 2.353073,-1.09032 c 0.362107,-1.26261 0.353927,-2.24273 -0.0207,-2.47425 -0.341179,-0.21085 -0.620314,0.36312 -0.620314,1.27551 0,0.91238 -0.198684,2.21087 -0.441523,2.88554 -0.24284,0.67465 -0.233537,1.04157 0.0207,0.81536 0.2542,-0.22621 0.73203,-1.35219 1.061837,-2.50216 z M 66.876184,276.4116 c 0.704288,-1.34531 0.703419,-1.34533 -0.793711,-0.015 -0.824315,0.7325 -1.816039,1.93786 -2.203829,2.6786 -0.704288,1.34532 -0.703419,1.34533 0.7937,0.015 0.824327,-0.7325 1.81605,-1.93787 2.20384,-2.67861 z m 1.231206,-2.35126 c 0.340056,0 0.618277,-0.30134 0.618277,-0.66966 0,-0.7717 -3.797119,-0.92231 -4.220621,-0.16741 -0.154979,0.27623 -0.489906,1.37102 -0.744293,2.43286 l -0.462528,1.93061 2.095449,-1.76321 c 1.152494,-0.96976 2.37367,-1.76319 2.713716,-1.76319 z m 2.39845,-3.49765 c 2.111973,1.00713 2.447527,1.01842 3.138341,0.10557 0.425439,-0.56217 1.518586,-1.53565 2.429231,-2.16329 1.826254,-1.25869 1.897502,-1.23675 -4.485126,-1.38146 -4.033662,-0.0915 -4.181816,-0.0349 -4.573349,1.74702 -0.22255,1.01285 -0.699819,1.84154 -1.060605,1.84154 -0.360774,0 -0.445563,-0.34044 -0.188401,-0.75652 0.268247,-0.43404 0.120952,-0.641 -0.345528,-0.4855 -1.332122,0.44404 -0.904139,1.54975 0.754553,1.9494 1.131038,0.27252 1.602604,0.0562 1.756141,-0.80596 0.198519,-1.11451 0.338362,-1.11727 2.574743,-0.0509 z m 5.251161,0.14939 c 0.666628,-0.73662 0.874603,-1.3393 0.462176,-1.3393 -0.412439,0 -1.072428,0.60268 -1.466658,1.3393 -0.394219,0.73661 -0.602194,1.3393 -0.462165,1.3393 0.140019,0 0.80002,-0.60269 1.466647,-1.3393 z m 43.118249,-23.27036 c 0.93002,-4.65256 4.77019,-14.18267 6.70719,-16.64518 1.67294,-2.12681 1.77135,-2.94212 0.35511,-2.94212 -1.91259,0 -6.75771,11.88952 -8.25495,20.25694 -0.81481,4.55366 0.27035,3.94435 1.19265,-0.66964 z M 86.520966,233.14365 c 2.919214,-1.51062 5.307658,-3.09267 5.307658,-3.51567 0,-1.04432 -3.25304,-0.74688 -5.816213,0.53179 -5.07969,2.53409 -9.076055,0.37104 -14.156968,-7.66255 -1.991208,-3.14834 -5.255553,-4.68523 -9.95418,-4.68652 -2.096033,-5.7e-4 -4.013439,-0.32863 -4.260902,-0.72904 -0.310312,-0.5021 -0.665153,-0.51277 -1.143533,-0.0343 -0.478391,0.47838 -0.359817,1.20305 0.382121,2.33539 0.802342,1.22455 1.90959,1.75647 4.356853,2.09305 3.862125,0.53118 7.489865,2.54051 7.489865,4.14848 0,1.98634 2.768099,6.94554 4.516137,8.0909 0.926454,0.60703 2.926073,1.30705 4.443601,1.5556 1.517529,0.24854 2.932116,0.48961 3.143526,0.53571 0.21141,0.0461 2.772832,-1.15215 5.692035,-2.66276 z m 5.475066,1.52189 c 1.975719,-1.23036 2.116222,-3.16653 0.15357,-2.11615 -0.744227,0.3983 -1.573067,0.58825 -1.841865,0.42212 -0.268809,-0.16612 -1.392614,0.44004 -2.497352,1.34704 l -2.008624,1.64908 2.343782,-0.18189 c 1.289078,-0.10007 3.021792,-0.60414 3.850489,-1.1202 z m 4.505203,0.61314 c 1.302035,-0.50869 1.300637,-0.53012 -0.08311,-1.27068 -1.154387,-0.61781 -1.621946,-0.5163 -2.600041,0.56449 -1.146494,1.26686 -1.143279,1.31593 0.08312,1.27068 0.701625,-0.0259 1.871644,-0.27991 2.600039,-0.56449 z m 17.029045,-3.51526 c 2.26603,-1.76286 7.42815,-6.55785 7.42815,-6.89985 0,-0.7391 -10.90226,6.03569 -13.72784,8.53064 -1.3226,1.16783 4.70949,-0.39368 6.29969,-1.63079 z m -44.828534,-0.81029 c -1.364873,-1.27946 -5.531155,-2.01871 -5.164436,-0.91635 0.249907,0.75125 2.594779,1.54869 5.164436,1.75632 0.860985,0.0696 0.860985,-0.0329 0,-0.83997 z m 19.276378,-2.81825 c 1.565306,-0.23162 2.846017,-0.65293 2.846017,-0.93625 0,-0.28332 -0.4667,-1.83371 -1.037123,-3.44533 -1.541869,-4.35629 -3.465033,-13.64014 -4.005601,-19.33665 -0.262137,-2.76232 -0.582334,-5.77574 -0.711554,-6.69652 -0.129219,-0.92076 -0.407814,-6.33356 -0.619114,-12.02842 -0.211289,-5.69488 -0.454018,-10.42418 -0.539401,-10.50955 -0.08543,-0.0854 -2.140728,0.84406 -4.567437,2.06542 -2.42671,1.22135 -4.760342,2.33669 -5.185825,2.47853 -0.97389,0.32462 5.217827,12.13242 7.745321,14.77055 2.061366,2.15161 1.46461,2.4325 -1.431376,0.67379 -1.46439,-0.88932 -2.693272,-2.84167 -4.709107,-7.48144 -1.500201,-3.45294 -3.031469,-6.37935 -3.402812,-6.50314 -0.371343,-0.12378 -1.192268,0.15569 -1.824273,0.62103 -1.211467,0.89201 -1.173399,1.08134 3.133045,15.57842 1.162391,3.91306 3.593636,9.04027 4.28675,9.04027 0.836755,0 2.065154,-2.89099 2.570075,-6.04863 0.23367,-1.46126 0.680136,-2.65683 0.992164,-2.65683 0.312029,0 0.438419,0.8287 0.280875,1.84155 -0.157545,1.01285 -0.459633,3.15173 -0.671296,4.75308 -1.046645,7.91824 -3.794026,9.29738 -6.41266,3.21903 -2.054254,-4.76832 -2.47157,-6.28983 -4.323221,-15.76224 -0.891534,-4.56081 -1.722246,-8.39364 -1.846016,-8.51741 -0.12377,-0.12377 -1.339255,-0.0442 -2.701067,0.17677 -2.015768,0.32711 -2.476028,0.68639 -2.476028,1.93278 0,0.84205 -0.582731,2.89044 -1.294945,4.55198 -1.34465,3.13695 -4.312874,15.84514 -4.982947,21.33409 -0.520015,4.25971 0.502643,5.22061 5.556144,5.22061 5.55915,0 7.629389,0.95269 10.660374,4.90581 5.402133,7.04563 6.575587,7.99648 9.338203,7.5667 1.367757,-0.21277 3.767528,-0.57638 5.332835,-0.808 z m 42.296586,-3.46129 3.07226,-1.84155 -1.96544,-0.22384 c -2.15458,-0.24539 -8.57746,2.43127 -8.01559,3.3404 0.69339,1.12192 3.89595,0.53089 6.90877,-1.27501 z m -75.24083,-6.92227 c 0.739736,-1.19691 -0.558655,-1.82981 -2.981567,-1.45335 l -2.275847,0.35361 1.606203,0.89013 c 1.979793,1.09719 3.064187,1.15943 3.651211,0.20961 z m 62.59034,-2.33324 c 1.2968,-0.87775 2.92635,-2.55834 3.62121,-3.73464 l 1.26339,-2.13875 -2.28191,1.69622 c -3.01277,2.23951 -5.74303,3.07858 -8.811,2.70781 -2.32148,-0.28056 -2.51119,-0.17518 -2.51119,1.3948 0,2.90627 4.47926,2.94458 8.7195,0.0745 z M 54.571,214.06353 c 0.730324,-0.23021 0.747376,-0.48656 0.08543,-1.28417 -0.957663,-1.15392 -3.808931,-1.29496 -6.384291,-0.31581 -1.42412,0.54145 -1.633218,0.87027 -1.021876,1.6069 0.713877,0.86017 4.581418,0.85652 7.320751,-0.007 z m 64.7943,-3.69853 c 1.24453,-1.20625 2.26278,-2.58607 2.26278,-3.06629 0,-1.12312 -0.29666,-1.10038 -2.8466,0.21824 -1.20728,0.62431 -3.62892,1.0777 -5.65877,1.05946 -3.46056,-0.031 -3.54835,0.0153 -3.54835,1.87298 0,2.19278 1.06537,2.69903 4.93597,2.34552 1.8191,-0.16613 3.26703,-0.89083 4.85497,-2.42991 z m -63.360084,-4.29352 c 0.605177,-3.78906 4.558025,-18.81724 5.851506,-22.24659 0.17365,-0.4604 -0.117958,-0.83707 -0.648012,-0.83707 -2.104212,0 -11.283297,15.07378 -13.823407,22.70065 -1.445191,4.33929 -1.213856,4.66942 3.427207,4.89049 2.301916,0.10965 4.244224,0.19068 4.31621,0.18008 0.072,-0.011 0.466424,-2.12001 0.876496,-4.68756 z m 63.592314,-0.74413 c 2.6864,-1.58689 2.6219,-2.5902 -0.0768,-1.19464 -1.22348,0.63268 -3.61085,1.0718 -5.69203,1.04694 -2.85936,-0.0341 -3.58468,0.17427 -3.58468,1.03008 0,0.89936 0.59224,1.01177 3.66149,0.69499 2.01382,-0.20784 4.57524,-0.91765 5.69203,-1.57737 z m -7.60964,-12.78306 c -0.68071,-0.6807 -1.24237,0.34413 -0.68385,1.24782 0.4219,0.68266 0.57963,0.68319 0.80645,0.002 0.15509,-0.46525 0.1,-1.02799 -0.1226,-1.25051 z m 1.48607,-9.77937 c 0.31336,-1.61575 -0.997,-1.37562 -1.42503,0.26114 -0.22915,0.87629 -0.0748,1.28252 0.42415,1.1164 0.43139,-0.14363 0.8818,-0.76352 1.00088,-1.37754 z m -44.078649,-1.78605 c 0,-0.36831 -0.301339,-0.66966 -0.669644,-0.66966 -0.368304,0 -0.669655,0.30135 -0.669655,0.66966 0,0.3683 0.301351,0.66965 0.669655,0.66965 0.368305,0 0.669644,-0.30135 0.669644,-0.66965 z m 29.464633,-8.12525 c 0,-0.84976 -1.691079,-1.07144 -2.398272,-0.3144 -1.232867,1.31979 -0.396707,2.49683 1.106729,1.55791 0.710354,-0.44363 1.291543,-1.00321 1.291543,-1.24351 z m -4.877427,-6.94189 c 0.07519,-4.60386 -0.118496,-8.37065 -0.430349,-8.37065 -1.06579,0 -1.845333,11.12895 -1.037255,14.80811 0.850593,3.87272 1.333883,1.7528 1.467604,-6.43746 z m 20.279403,5.35721 c 0,-0.509 -0.30135,-1.11169 -0.66965,-1.33931 -0.38131,-0.23566 -0.66966,0.34104 -0.66966,1.33931 0,0.99825 0.28835,1.57495 0.66966,1.33929 0.3683,-0.22762 0.66965,-0.83031 0.66965,-1.33929 z m -10.89578,-4.08767 c -0.22252,-0.22252 -0.8001,-0.24631 -1.2835,-0.0529 -0.5342,0.21377 -0.37552,0.37245 0.40458,0.40458 0.70593,0.0291 1.10144,-0.12918 0.87892,-0.35171 z m 11.89697,-5.62758 c -0.22582,-0.36539 -0.69415,-0.66435 -1.04071,-0.66435 -0.72876,0 -0.85477,2.23074 -0.16498,2.92053 0.62873,0.62874 1.72307,-1.41905 1.20569,-2.25618 z m -8.36735,-1.334 c 0,-0.3683 -0.31913,-0.66965 -0.70917,-0.66965 -0.39005,0 -0.52294,0.30135 -0.29531,0.66965 0.22762,0.36831 0.54675,0.66965 0.70918,0.66965 0.16242,0 0.2953,-0.30134 0.2953,-0.66965 z m 36.97223,-0.91296 c 1.20056,-0.80906 2.53665,-2.1807 2.96909,-3.0481 0.43244,-0.86739 1.05404,-1.76237 1.38132,-1.98885 1.69436,-1.17247 5.39306,-8.49583 4.66074,-9.22816 -0.12572,-0.12572 -1.59873,1.53579 -3.27336,3.69223 -1.67463,2.15644 -4.27878,4.79425 -5.787,5.86179 -2.79632,1.97926 -3.71559,3.47768 -1.59894,2.60629 0.64454,-0.26534 1.77457,-0.63992 2.51119,-0.8324 1.06656,-0.27868 1.17602,-0.17493 0.53751,0.50946 -0.44098,0.47268 -2.69767,1.04103 -5.01484,1.263 -3.19464,0.30602 -4.26461,0.67337 -4.42636,1.51965 -0.33679,1.76222 5.26602,1.5149 8.04065,-0.35491 z m -51.587803,-2.49777 c 0.752396,-0.40267 2.561048,-3.34076 4.019218,-6.52909 1.458168,-3.18833 2.967187,-6.44528 3.353348,-7.23765 1.057127,-2.1691 0.498787,-2.76242 -1.981851,-2.10601 -1.902575,0.50345 -2.514633,1.26566 -4.614596,5.74664 -1.331593,2.84142 -2.682473,5.69356 -3.001955,6.33809 -0.918428,1.85294 0.498306,1.38605 2.032029,-0.66964 0.755665,-1.01285 1.383487,-1.45117 1.395157,-0.97405 0.0251,1.02747 -2.960309,4.15489 -3.966256,4.15489 -0.385049,0 -0.682524,-0.22601 -0.661046,-0.50225 0.02147,-0.27622 0.411821,-3.84063 0.867425,-7.9209 0.66655,-5.96938 0.661453,-8.06253 -0.02609,-10.71442 -1.194293,-4.60625 -1.137269,-13.01051 0.100289,-14.77733 1.592321,-2.27335 3.900864,-1.32956 5.703781,2.33183 1.905812,3.87039 2.447073,2.78545 1.03449,-2.07364 -0.957397,-3.29336 -1.303618,-3.72219 -3.623203,-4.48773 -3.266294,-1.07797 -5.193872,-0.45302 -6.817976,2.2105 -1.717588,2.81684 -1.692863,8.8336 0.05956,14.50511 1.16064,3.75616 1.285104,5.42281 0.908058,12.16026 -0.434731,7.76846 -0.428236,7.81621 1.298072,9.54252 1.975818,1.97582 2.06228,1.99794 3.921561,1.00287 z m 51.703253,-5.96438 c 3.48634,-3.13061 6.3615,-5.91804 6.38922,-6.19427 0.0277,-0.27623 -0.86109,-0.50224 -1.97513,-0.50224 -2.39951,0 -2.92846,-1.05513 -3.60539,-7.19203 -0.25351,-2.29822 -0.77712,-5.08564 -1.16359,-6.19427 -0.6463,-1.854 -0.95252,-2.01484 -3.81799,-2.00542 -4.45657,0.0146 -4.79832,0.38382 -4.02476,4.34734 0.3589,1.83886 0.71034,7.93681 0.78098,13.55099 0.0707,5.61418 0.34206,10.13432 0.60314,10.04476 0.26108,-0.0895 3.32716,-2.72424 6.81352,-5.85486 z m -32.40013,2.00895 c 0,-0.3683 -0.13288,-0.66965 -0.2953,-0.66965 -0.16241,0 -0.48154,0.30135 -0.70917,0.66965 -0.22762,0.36831 -0.0948,0.66966 0.2953,0.66966 0.39004,0 0.70917,-0.30135 0.70917,-0.66966 z m 9.24119,-8.83939 c 0.52118,-0.52119 0.80358,-3.23223 0.80358,-7.7146 v -6.91101 l -2.58105,1.31676 c -2.38681,1.21765 -2.61314,1.58403 -3.00761,4.86858 -0.55496,4.62091 -0.55158,8.23761 0.008,8.79742 0.73985,0.73985 3.91741,0.50228 4.77684,-0.35715 z m 33.02495,-4.6003 c 2.12092,-4.18118 3.32793,-8.82103 2.60077,-9.99761 -0.35871,-0.58039 -1.31169,-0.28118 -3.42937,1.07675 -1.61293,1.03427 -3.03546,1.94565 -3.16117,2.0253 -0.46168,0.2925 0.67317,2.92433 1.26096,2.92433 0.33404,0 1.0893,-0.93203 1.67839,-2.07119 1.96493,-3.79976 1.89291,-1.30488 -0.15645,5.41944 -0.58868,1.93158 -3.89312,-2.80211 -4.80712,-6.88631 -0.67989,-3.03802 -1.1232,-3.8281 -2.14798,-3.8281 -1.54612,0 -1.56365,0.19468 -0.32962,3.66069 0.52891,1.48555 1.14359,3.82216 1.36596,5.19247 0.42863,2.6415 3.38626,6.76475 4.56948,6.37033 0.38716,-0.12904 1.53742,-1.87779 2.55615,-3.8861 z m -49.29747,2.05563 c -0.22763,-0.36831 -0.69743,-0.66965 -1.04399,-0.66965 -0.34658,0 -0.63014,0.30134 -0.63014,0.66965 0,0.36831 0.46981,0.66965 1.044,0.66965 0.5742,0 0.85776,-0.30134 0.63013,-0.66965 z m 64.14429,-5.52462 c -0.35255,-0.46038 -1.01259,-2.56465 -1.46677,-4.67614 -0.45417,-2.11149 -1.13892,-4.03262 -1.52167,-4.26918 -0.42715,-0.26399 -0.55364,0.0549 -0.32751,0.82565 0.20263,0.69066 0.57466,2.76246 0.82671,4.604 0.54586,3.9879 0.72046,4.35273 2.0833,4.35273 0.733,0 0.85472,-0.25101 0.40594,-0.83706 z m -3.58795,-4.01791 c -0.0259,-1.19699 -0.30605,-2.77904 -0.62258,-3.51566 -0.42268,-0.98361 -0.58803,-0.40563 -0.6226,2.17636 -0.0259,1.93362 0.25428,3.51567 0.6226,3.51567 0.3683,0 0.64846,-0.97937 0.62258,-2.17637 z m -53.52501,0.50224 c 0,-0.55246 -0.23281,-1.00448 -0.51737,-1.00448 -0.28455,0 -1.08536,-1.05469 -1.77958,-2.34377 -0.6942,-1.28908 -1.4983,-2.34378 -1.78689,-2.34378 -1.21137,0 -1.04913,1.17633 0.53139,3.85261 1.65889,2.809 3.55245,3.78946 3.55245,1.83942 z m 44.19696,-5.541 c 0.18416,-0.15416 -1.47324,-0.0628 -3.68308,0.20301 -2.20985,0.26581 -4.11765,0.57042 -4.23957,0.67692 -0.12191,0.10645 0.11734,0.82707 0.53167,1.60127 l 0.75334,1.40763 3.15141,-1.80428 c 1.73328,-0.99235 3.30208,-1.9304 3.48623,-2.08455 z m 7.07394,-1.33611 c -0.53291,-0.53292 -4.39534,2.79419 -4.39534,3.78616 0,0.66059 0.80721,0.22753 2.33376,-1.25206 1.28355,-1.24407 2.21127,-2.38443 2.06158,-2.5341 z m -36.49435,-0.99121 c 2.18296,-3.01348 2.73975,-5.32742 0.91814,-3.81562 -0.91704,0.76108 -0.99094,0.6469 -0.59705,-0.92248 0.2848,-1.13477 0.17755,-1.79107 -0.29272,-1.79107 -0.40823,0 -0.74225,0.41511 -0.74225,0.92248 0,0.50736 -0.50843,1.33606 -1.12986,1.84154 -1.00572,0.81809 -1.06982,0.77192 -0.58353,-0.42024 0.88932,-2.18017 1.2369,-4.35273 0.69636,-4.35273 -0.27693,0 -1.22876,0.78254 -2.11517,1.739 -1.20039,1.29524 -1.42768,1.96069 -0.8907,2.60771 0.39653,0.47777 0.90229,2.39972 1.1239,4.27095 0.45059,3.80445 0.80499,3.79666 3.61288,-0.0796 z m 33.1035,2.17629 c 0.22762,-0.3683 -0.0559,-0.66966 -0.63014,-0.66966 -0.5742,0 -1.044,0.30136 -1.044,0.66966 0,0.3683 0.28356,0.66965 0.63013,0.66965 0.34658,0 0.81637,-0.30135 1.04401,-0.66965 z m -20.03597,-4.30271 c -0.64334,-3.42932 -1.44726,-2.95637 -1.15795,0.68123 0.16582,2.08487 0.46393,2.85568 0.9258,2.3938 0.38896,-0.38896 0.48857,-1.70825 0.23215,-3.07503 z m 4.29917,0.3668 c 0,-1.61512 -0.42358,-2.944 -1.12061,-3.51567 -1.00616,-0.82519 -1.07548,-0.74808 -0.67879,0.75507 0.24299,0.92077 0.44592,2.50282 0.45095,3.51566 0.006,1.01285 0.31049,1.84155 0.6788,1.84155 0.3683,0 0.66965,-1.16848 0.66965,-2.59661 z m -50.22381,1.63165 c 0,-0.16241 -0.30135,-0.48154 -0.669655,-0.70917 -0.368305,-0.22762 -0.669655,-0.0948 -0.669655,0.2953 0,0.39005 0.30135,0.70918 0.669655,0.70918 0.368305,0 0.669655,-0.13289 0.669655,-0.29531 z m 58.25962,-1.93686 c 0,-2.26038 -0.48893,-3.31578 -1.30298,-2.81266 -0.64954,0.40143 8.4e-4,5.04483 0.70658,5.04483 0.32802,0 0.5964,-1.00448 0.5964,-2.23217 z m 8.0358,-1.49044 c 0,-1.63565 -0.226,-2.97369 -0.50223,-2.97344 -0.27623,2.7e-4 -0.52393,1.49161 -0.55042,3.3141 -0.0265,1.82249 0.19949,3.16054 0.50223,2.97344 0.30274,-0.18711 0.55042,-1.67844 0.55042,-3.3141 z m 8.70546,-1.96943 c 0,-1.61391 -0.30134,-3.12063 -0.66964,-3.34825 -0.41608,-0.25715 -0.66966,1.0107 -0.66966,3.34825 0,2.33756 0.25358,3.60542 0.66966,3.34825 0.3683,-0.22762 0.66964,-1.73433 0.66964,-3.34825 z m -51.7006,0.10304 2.2063,-0.79958 -1.92932,-1.8484 -1.92932,-1.84841 -1.06017,2.69894 c -1.16771,2.9727 -0.9424,3.12201 2.71251,1.79745 z m 61.73317,-3.80891 c -1.12707,-2.10592 -1.3405,-1.33453 -0.44055,1.59211 0.56979,1.85292 0.8455,2.1848 0.99703,1.20013 0.11521,-0.74857 -0.13522,-2.00508 -0.55648,-2.79224 z m -31.36989,1.63397 c 0.23448,-0.14138 0.61529,-1.26434 0.84625,-2.49548 0.23096,-1.23113 1.42872,-3.91368 2.66169,-5.96123 l 2.24177,-3.72282 -2.95588,-3.04098 c -3.37522,-3.472412 -6.05186,-4.390279 -8.37114,-2.870636 -1.26129,0.826429 -2.08989,0.88243 -4.39591,0.297101 -3.8208,-0.969828 -3.59269,-1.614857 0.47148,-1.333157 2.17031,0.150433 3.80307,-0.112893 4.73129,-0.763041 0.77953,-0.546006 2.07586,-0.823126 2.88073,-0.615812 1.34216,0.345704 1.38099,0.276548 0.46874,-0.834751 -0.54705,-0.666417 -2.1216,-1.923096 -3.49901,-2.792613 -2.92954,-1.849343 -5.18629,-6.010278 -4.73827,-8.736322 l 0.31046,-1.889131 -1.78414,2.179014 c -1.89644,2.31616 -7.70357,6.620643 -7.71889,5.721558 -0.006,-0.293929 1.66552,-2.041127 3.71227,-3.882667 4.62529,-4.161528 5.27687,-6.66693 2.97208,-11.427986 -1.73407,-3.582121 -8.67385,-11.005317 -10.28863,-11.005317 -1.72905,0 -1.23699,1.62401 0.86901,2.868051 2.15159,1.27098 6.1391,6.94865 7.31441,10.414729 0.97081,2.862971 -0.2875,6.115672 -3.73415,9.652761 -3.31829,3.405352 -4.15448,3.182802 -1.26955,-0.337883 3.25602,-3.973551 3.56009,-5.765234 1.78426,-10.513764 -1.39162,-3.721141 -5.44978,-9.40529 -6.71485,-9.40529 -1.15403,0 -1.45526,2.77204 -0.42496,3.910523 1.53857,1.700088 3.7517,6.90859 3.74466,8.812842 -0.008,2.11319 -2.48708,6.189196 -4.93665,8.116023 l -1.87636,1.475942 0.30375,-3.289268 c 0.38527,-4.172042 -0.58785,-10.765381 -1.8561,-12.576067 -0.94004,-1.342105 -0.97415,-1.316474 -0.97415,0.732159 0,2.992676 -3.81689,13.192481 -5.49337,14.679809 -0.76934,0.682545 -1.26499,0.939647 -1.10145,0.571339 0.16355,-0.368307 1.12229,-2.377457 2.13053,-4.464777 1.75509,-3.633466 3.72175,-10.942683 3.0912,-11.48864 -0.16557,-0.143358 -1.22247,-0.435487 -2.34866,-0.649176 l -2.04763,-0.388526 -0.75241,4.39248 c -0.53679,3.133786 -1.32948,5.110589 -2.76627,6.898475 -1.88822,2.34965 -1.94892,2.598712 -0.97296,3.992099 0.80036,1.142668 0.85786,1.666506 0.24883,2.266735 -0.60545,0.596702 -1.1365,0.308905 -2.25387,-1.221409 -4.43855,-6.078982 -5.823994,-7.562897 -8.85021,-9.479241 -5.401924,-3.420759 -7.533261,-5.763427 -8.409526,-9.243368 -0.544872,-2.163891 -0.973791,-2.877976 -1.361394,-2.266528 -1.631996,2.574505 0.347983,11.913439 3.002142,14.160137 4.501925,3.810794 8.547925,8.295135 9.259314,10.262466 0.930835,2.574171 2.358684,2.971813 2.674954,0.744943 0.20796,-1.464349 0.40228,-1.500766 6.91049,-1.295213 4.95893,0.156635 7.34253,-0.06055 9.1862,-0.837063 3.25229,-1.369753 3.17573,-1.403422 2.75162,1.210083 -0.2146,1.32239 -0.0583,2.449101 0.37693,2.718119 0.40889,0.252715 0.74807,0.969046 0.7537,1.591846 0.0171,1.88732 0.87732,2.661062 3.50696,3.154381 2.41378,0.452829 2.50964,0.399272 2.50964,-1.402093 0,-2.525113 -2.40502,-4.972651 -4.88628,-4.972651 -1.67893,0 -1.84952,-0.150235 -1.14057,-1.004472 1.29826,-1.564319 3.67836,-1.189354 5.95604,0.938321 2.14761,2.00618 2.79858,5.10634 1.3718,6.533125 -0.49752,0.497524 1.0949,1.280681 5.35721,2.634671 3.33585,1.05969 6.06517,2.16406 6.06517,2.45415 0,0.45408 -2.2296,1.99428 -7.10838,4.91042 -1.17713,0.70358 -1.17366,0.87762 0.098,4.91637 l 1.31833,4.18695 6.36169,-0.4666 c 3.49892,-0.25662 6.55353,-0.58227 6.788,-0.72365 z m -8.17352,-5.22883 c -0.18308,-0.18309 -1.5283,-0.47723 -2.98936,-0.65365 -3.53131,-0.42639 -3.527,-0.42404 -1.98681,-1.0859 0.73662,-0.31654 2.77068,-0.40721 4.52014,-0.20149 l 3.18085,0.37405 v -4.10417 c 0,-4.71896 0.95026,-5.31553 3.71505,-2.33226 2.08389,2.24854 2.15946,3.63508 0.0923,1.69307 -0.85242,-0.80083 -1.71607,-1.45604 -1.91921,-1.45604 -0.20313,0 -0.33439,1.73273 -0.29167,3.85049 0.0771,3.81795 0.0604,3.85218 -1.95534,4.04965 -1.11817,0.10953 -2.18282,0.0493 -2.36592,-0.13375 z M 124.95277,86.60212 c 0.38127,-0.712402 0.69321,-1.917774 0.69321,-2.678603 0,-0.760829 0.30134,-1.383325 0.66966,-1.383325 0.3683,0 0.66964,0.622496 0.66964,1.383325 0,1.724016 -1.16407,3.973881 -2.05607,3.973881 -0.43832,0 -0.43017,-0.447467 0.0236,-1.295278 z m -2.76904,29.42062 c 0.28874,-0.87412 0.18218,-0.88095 -0.82114,-0.0526 -1.07955,0.89132 -1.14602,0.48643 -1.04436,-6.36168 0.18945,-12.764086 0.23874,-12.429435 -1.70047,-11.545871 -1.6536,0.753431 -1.67058,0.847368 -1.62987,9.018951 0.0384,7.70543 0.13894,8.32625 1.5036,9.28428 1.71883,1.20665 3.22659,1.06656 3.69224,-0.34309 z m 28.44168,-1.17913 c 0.20336,-1.01682 1.44655,-3.25902 2.76265,-4.98265 1.31609,-1.72363 2.11103,-3.30807 1.76655,-3.52098 -0.96726,-0.5978 -4.41164,4.31425 -6.05371,8.6332 -0.50176,1.31973 -0.44354,1.71921 0.25055,1.71921 0.49732,0 1.07059,-0.83196 1.27396,-1.84878 z m 12.54416,-0.51678 c 0.93349,-0.47733 2.81688,-1.07792 4.18531,-1.33464 3.64717,-0.68421 3.03308,-1.65701 -1.04602,-1.65701 -2.12192,0 -4.13159,-0.41851 -5.02941,-1.04737 -1.85981,-1.30266 -3.89812,-0.7255 -4.36672,1.23645 -0.19507,0.81677 -0.5737,2.19699 -0.84139,3.06714 -0.4744,1.54213 -0.4123,1.56975 2.45713,1.09271 1.61911,-0.26916 3.70761,-0.87994 4.6411,-1.35728 z m 10.14246,-2.00392 c 0.0112,-0.35909 -0.70833,-1.19698 -1.599,-1.86196 -1.23349,-0.92093 -2.56681,-1.1587 -5.59523,-0.9978 l -3.97585,0.21124 3.34826,0.53213 c 5.75135,0.91405 6.36168,1.12527 6.36168,2.2017 0,1.11072 1.42538,1.02745 1.46014,-0.0853 z m -73.29078,-4.81313 c 3.74606,-4.01312 4.1959,-4.79174 4.1959,-7.26237 0,-3.283391 -1.79926,-5.370009 -4.10954,-4.765858 -0.811239,0.212148 -2.808205,0.02917 -4.43769,-0.406689 l -2.96272,-0.792402 -2.664595,3.001733 c -1.465524,1.650964 -3.438722,4.306616 -4.384892,5.901466 l -1.720286,2.89973 1.423483,1.42348 c 1.338044,1.33804 1.690309,1.37777 5.869372,0.66193 3.276125,-0.56118 5.147703,-1.32554 7.113226,-2.90508 2.030822,-1.63201 2.490922,-1.81391 1.928072,-0.76221 -1.144302,2.13815 -4.283851,4.06677 -8.026588,4.9307 -2.717932,0.62737 -3.257443,0.96695 -2.666863,1.67855 0.407198,0.49064 1.979396,0.89207 3.493787,0.89207 2.534617,0 3.086865,-0.35721 6.949334,-4.49505 z m -10.212105,-4.92795 c -0.580628,-2.643587 0.10183,-3.358532 0.985966,-1.03296 l 0.678077,1.7835 3.321293,-1.68302 c 3.527494,-1.787518 7.279229,-2.475348 7.436629,-1.36341 0.0522,0.3683 -1.15688,0.88333 -2.686693,1.14449 -1.529814,0.26116 -3.776597,1.08986 -4.992852,1.84154 -3.07819,1.90242 -4.20914,1.73784 -4.74242,-0.69014 z m 21.074175,3.09788 c 0.4752,-0.57257 0.60108,-1.03102 0.27975,-1.01876 -0.72694,0.0277 -3.59766,2.38535 -3.59766,2.95464 0,0.61953 2.32102,-0.7347 3.31791,-1.93588 z m -3.22468,-1.07644 1.58089,-1.37469 -1.67412,0.41333 c -1.47666,0.36457 -1.41689,0.24218 0.50669,-1.03766 4.71461,-3.136835 2.78988,-8.542798 -3.68753,-10.357152 -1.85124,-0.518551 -1.85901,-0.335797 -0.11161,2.625833 1.39585,2.365775 1.84646,6.937049 0.95935,9.732089 -0.55619,1.75238 0.40989,1.75167 2.42633,-0.002 z m 7.92769,-5.130835 c 0.0125,-2.934505 0.25547,-3.617272 1.5216,-4.276028 2.00454,-1.042923 1.9303,-0.931317 1.45084,-2.180775 -0.43193,-1.125577 -2.75997,-1.470973 -3.96203,-0.587828 -0.36831,0.270581 -0.66964,2.14937 -0.66964,4.175055 0,2.025698 -0.22865,5.039121 -0.5081,6.696511 l -0.50809,3.01343 1.33026,-1.67412 c 0.93678,-1.17893 1.33468,-2.70709 1.34516,-5.166245 z m -2.66372,-3.180834 c 0,-1.666617 -0.39342,-2.530784 -1.39665,-3.067685 -0.76816,-0.411107 -1.51285,-0.631279 -1.65486,-0.489257 -0.28604,0.286037 2.365,5.877154 2.78667,5.877154 0.14566,0 0.26484,-1.044103 0.26484,-2.320212 z m 6.51489,-0.09357 c -0.46869,-0.468681 -2.49698,0.481463 -2.49698,1.1697 0,0.342083 0.62801,0.285465 1.39665,-0.125894 0.76817,-0.411107 1.26331,-0.880823 1.10033,-1.043806 z m 3.53721,-12.332874 c 0.75561,-1.481125 1.41202,-3.708753 1.4587,-4.950285 0.0919,-2.4443 -2.61714,-8.544816 -3.97722,-8.956355 -1.0151,-0.307157 -1.14361,2.632166 -0.15817,3.617611 0.3734,0.373392 0.75007,3.446569 0.83707,6.829284 0.087,3.382714 0.22737,6.15091 0.31197,6.151545 0.0846,6.35e-4 0.77203,-1.210675 1.52765,-2.6918 z m -15.86303,-3.055923 c 1.00884,-2.056956 2.00984,-5.02108 2.22446,-6.58694 l 0.39023,-2.847018 -3.9265,-1.117829 c -3.66871,-1.044444 -6.676324,-2.416109 -5.34859,-2.439308 0.32276,-0.0056 3.71566,0.919883 7.53976,2.05672 6.95224,2.066771 6.95314,2.06685 9.12082,0.800857 4.13488,-2.414895 6.5145,-7.554226 6.52144,-14.084484 0.003,-3.166726 -0.8253,-4.71166 -1.47759,-2.754782 -0.18129,0.543874 -0.66599,0.503356 -1.69948,-0.142063 -1.89864,-1.185722 -2.53766,-0.441452 -1.60632,1.870897 0.41269,1.024656 0.63845,2.76704 0.50166,3.871965 -0.14535,1.174091 0.17958,2.495507 0.78189,3.179764 0.75986,0.863236 0.86078,1.551366 0.38421,2.619424 -0.62604,1.402995 -0.67284,1.384761 -1.48628,-0.579049 -1.03777,-2.505402 -3.75326,-4.160432 -4.91694,-2.996761 -0.60696,0.606966 -0.3802,0.79005 0.97849,0.79005 2.40471,0 2.961,1.193153 1.32096,2.833191 -1.14566,1.145665 -1.67207,1.24959 -3.35604,0.662555 -1.445,-0.503731 -2.22996,-0.481509 -2.83892,0.08037 -0.65757,0.606723 -0.74688,0.520253 -0.40831,-0.395276 1.11155,-3.00568 0.99599,-3.257919 -0.27927,-0.609578 -0.76966,1.59835 -1.57036,2.735103 -1.77934,2.526121 -0.54481,-0.544817 1.80762,-6.436686 2.56996,-6.436686 0.35027,0 1.25914,-1.0547 2.01972,-2.343779 0.76057,-1.289077 1.82663,-2.343777 2.36902,-2.343777 0.84039,0 0.83061,0.155552 -0.0662,1.052308 -1.66029,1.66029 -1.24901,2.630772 1.11489,2.630772 2.54877,0 3.01075,-1.172595 1.84892,-4.692973 -0.67711,-2.051667 -1.04641,-2.338361 -3.01219,-2.338361 -1.37823,0 -2.96895,0.610818 -4.13339,1.587166 -1.49034,1.249617 -2.23316,1.460505 -3.49276,0.991603 -1.44509,-0.537949 -3.5897,-0.406722 -7.942677,0.485999 -0.828697,0.169952 -1.506719,0.784092 -1.506719,1.364758 0,1.367388 2.379648,4.868848 4.610386,6.783798 1.26502,1.085948 1.45615,1.504312 0.68836,1.506716 -0.58463,0.0019 -2.33394,-1.352717 -3.887373,-3.010103 -1.553428,-1.657385 -3.335162,-3.043467 -3.959428,-3.08018 -0.840443,-0.04943 -0.767885,-0.179774 0.279575,-0.502238 1.034041,-0.318332 1.294161,-0.772821 0.966932,-1.689416 -0.420695,-1.178409 -0.515975,-1.185611 -1.582006,-0.11958 -0.769317,0.769319 -1.134341,0.860366 -1.134341,0.282935 0,-0.587946 -0.214921,-0.636492 -0.694534,-0.156879 -0.473603,0.473602 -0.478876,1.261772 -0.01662,2.477709 0.668158,1.757415 1.246837,2.053199 3.55712,1.818193 0.644542,-0.06557 1.171888,0.201078 1.171888,0.592537 0,0.39146 -0.414343,0.711745 -0.920773,0.711745 -0.506417,0 -1.099683,0.894611 -1.318369,1.988025 -0.218687,1.093415 -1.020698,2.61112 -1.782265,3.372679 -0.761555,0.76156 -1.219712,1.651526 -1.018122,1.977703 0.20159,0.326177 2.397317,1.26062 4.879387,2.07654 5.496599,1.806865 10.204899,4.444015 10.204899,5.715828 0,1.310757 -0.92137,1.173278 -2.29278,-0.342109 -1.1455,-1.26577 -6.446518,-3.60831 -9.819539,-4.339294 -0.952995,-0.20653 -2.535254,-1.006779 -3.516134,-1.778332 -1.42018,-1.117119 -1.697498,-1.767904 -1.361647,-3.195392 0.231963,-0.985913 0.684186,-2.078845 1.004945,-2.428738 0.961934,-1.049309 0.66491,-1.707609 -0.770461,-1.707609 -0.799909,0 -1.670835,0.696124 -2.129004,1.70169 -0.642672,1.410518 -0.537969,2.19028 0.611948,4.557152 1.081565,2.226177 2.370962,3.430735 5.850846,5.465845 2.454955,1.435711 5.576146,3.876751 6.935976,5.424534 1.35984,1.547783 2.63566,2.842535 2.83516,2.877227 0.19951,0.03469 1.18815,-1.619887 2.19697,-3.676844 z M 110.6219,66.94194 c 0.25147,-0.660424 0.6259,-1.032079 0.83208,-0.825903 0.20618,0.206177 4.3e-4,0.746523 -0.45722,1.20077 -0.66136,0.656437 -0.73828,0.579518 -0.37486,-0.374867 z M 78.100772,79.526763 c 0,-2.394002 -0.242223,-4.352731 -0.538278,-4.352731 -0.715869,0 -4.66744,4.132474 -4.939606,5.165732 -0.187917,0.713429 3.627245,3.398107 4.975648,3.501295 0.276229,0.02114 0.502236,-1.920294 0.502236,-4.314296 z m 59.316178,-7.096461 c -1.79722,-4.491688 -4.99176,-8.617388 -8.29407,-10.711647 -3.44076,-2.18207 -4.81619,-2.441365 -4.81619,-0.907946 0,0.571255 1.02089,1.465203 2.26864,1.986551 2.5322,1.058017 8.5211,7.492308 10.16825,10.924441 1.49917,3.123839 2.03151,2.102935 0.67337,-1.291399 z M 93.50275,67.05918 c 0,-0.368308 -0.30135,-0.483411 -0.669655,-0.255783 -0.368305,0.227627 -0.669655,0.71521 -0.669655,1.083518 0,0.368307 0.30135,0.48341 0.669655,0.255783 0.368305,-0.227626 0.669655,-0.71521 0.669655,-1.083518 z m 21.76364,-1.929911 c 0.22763,-0.368308 -0.0738,-0.66965 -0.66965,-0.66965 -0.59593,0 -0.89727,0.301342 -0.66964,0.66965 0.22762,0.368308 0.52896,0.669651 0.66964,0.669651 0.14068,0 0.44203,-0.301343 0.66965,-0.669651 z m 0.15346,-1.743881 c -0.22251,-0.22252 -0.80009,-0.246311 -1.28349,-0.05286 -0.53421,0.21377 -0.37553,0.372449 0.40458,0.404581 0.70592,0.02907 1.10143,-0.129194 0.87891,-0.351713 z M 81.134718,60.340881 c 2.069072,-1.220781 2.381519,-1.70527 2.051359,-3.180842 -0.214228,-0.957388 -0.58425,-3.247421 -0.822267,-5.088961 -0.616275,-4.767934 0.613797,-3.13787 1.428997,1.893676 0.368305,2.27325 0.970994,4.0402 1.339299,3.926555 0.368316,-0.113645 0.584085,-0.71633 0.479503,-1.339302 -0.104582,-0.622971 -0.371486,-3.011545 -0.593112,-5.307942 -0.384135,-3.980141 -0.476949,-4.156698 -1.98621,-3.777897 -0.951311,0.238762 -1.583251,0.101103 -1.583251,-0.344875 0,-0.408237 0.434786,-0.742247 0.966195,-0.742247 0.531409,0 2.053627,-0.641601 3.382721,-1.425781 l 2.416516,-1.425781 -0.441655,1.759677 c -0.244821,0.975436 0.07607,3.872086 0.719909,6.499495 1.043387,4.257637 1.306207,4.703793 2.58355,4.385681 0.782097,-0.194776 2.710402,-0.558963 4.28511,-0.809305 2.220218,-0.352962 2.787955,-0.698473 2.528427,-1.538734 -0.348622,-1.128733 -2.378116,-10.663048 -2.378116,-11.172111 0,-0.160076 -0.530197,-0.291046 -1.178209,-0.291046 -1.988401,0 -3.066091,-2.722689 -3.379529,-8.538048 -0.16764,-3.110275 -0.595952,-5.52462 -0.980099,-5.52462 -0.714922,0 -0.2781,8.283958 0.596998,11.321366 0.315486,1.095047 0.228264,1.465576 -0.272188,1.156281 -0.721935,-0.446183 -1.202242,-2.998091 -1.739925,-9.244329 -0.14811,-1.720599 -0.448954,-3.419062 -0.668543,-3.774359 -0.387295,-0.62666 2.260556,-1.694869 2.818407,-1.137015 0.152778,0.152777 0.516239,2.626904 0.807693,5.498059 0.776978,7.654272 1.214296,8.997835 2.852732,8.76453 1.218722,-0.173541 1.571747,0.571105 3.081821,6.500516 0.93799,3.683079 1.752772,6.785413 1.810633,6.894074 0.328531,0.616962 6.294976,-1.508255 6.294976,-2.242236 0,-1.829941 -2.0818,-10.684573 -2.64427,-11.247049 -1.32345,-1.323446 -1.96514,0.286833 -1.10069,2.762092 1.23592,3.538895 1.93826,7.720241 1.22247,7.277856 -0.32944,-0.203598 -0.96883,-2.022919 -1.42089,-4.042935 -0.45206,-2.020017 -1.42899,-4.444514 -2.170955,-5.387772 l -1.349031,-1.715015 h 2.116406 c 2.06427,0 2.10741,-0.06188 1.75046,-2.51119 -0.20127,-1.381155 -0.55286,-4.344361 -0.7813,-6.5849 -0.30503,-2.99161 -0.68238,-4.07371 -1.42062,-4.07371 -0.759222,0 -0.911702,0.505355 -0.622979,2.064757 0.774259,4.181705 1.172109,9.416216 0.678594,8.928127 -0.279608,-0.276534 -0.727208,-2.084591 -0.994674,-4.017905 -0.267465,-1.933314 -0.695184,-4.605914 -0.950485,-5.939112 -0.42861,-2.238241 -0.325382,-2.458833 1.347126,-2.878606 0.996228,-0.250036 1.970488,-0.295437 2.165038,-0.100894 0.19454,0.194547 0.61432,3.435707 0.93284,7.202577 0.35635,4.214282 1.06527,7.890308 1.84291,9.556219 0.69508,1.48905 1.62139,4.696283 2.05847,7.127185 l 0.79467,4.419823 2.78912,-0.540166 c 1.53402,-0.297091 4.39765,-0.55329 6.36365,-0.569329 l 3.57453,-0.02916 -0.43979,-2.846017 c -0.77787,-5.033872 -2.37422,-9.065248 -4.01552,-10.140669 -1.13724,-0.745155 -1.81196,-2.124354 -2.38161,-4.868291 -1.32633,-6.3889 -2.61528,-10.111477 -3.63689,-10.503507 -0.75713,-0.290538 -0.8482,-0.04824 -0.41428,1.102265 0.68965,1.828537 2.30838,11.098912 2.21607,12.691313 -0.0449,0.774123 0.42936,1.178801 1.39717,1.192252 1.34874,0.01875 1.3688,0.07638 0.25253,0.725688 -0.66691,0.387929 -1.64628,0.538893 -2.17637,0.335479 -1.20171,-0.461139 -1.20443,0.51575 -0.011,3.94085 1.41069,4.048493 2.0466,7.978317 1.20706,7.459456 -0.38723,-0.239327 -0.9195,-1.710287 -1.18281,-3.2688 -0.26331,-1.558514 -0.90385,-4.038547 -1.42343,-5.511185 -0.83871,-2.377172 -0.82544,-2.764719 0.11834,-3.454829 0.96979,-0.709124 0.96382,-1.326741 -0.068,-7.041259 -0.62206,-3.445176 -1.20663,-7.365323 -1.29903,-8.711439 -0.19922,-2.902299 -1.34289,-6.619733 -3.12985,-10.173362 -1.83814,-3.6554026 -2.11129,-2.6829166 -0.53405,1.901392 1.38553,4.027114 1.89975,8.183276 0.66345,5.362247 -0.32282,-0.736616 -1.07362,-3.104413 -1.66844,-5.261771 -0.59482,-2.157359 -1.23483,-3.769132 -1.42225,-3.581719 -0.18741,0.187414 0.13177,1.931885 0.70929,3.8766 1.14486,3.855165 1.44846,8.14458 0.39894,5.636541 -0.30824,-0.736615 -0.91214,-3.072023 -1.342,-5.189794 -1.13154,-5.5747164 -1.923677,-4.737304 -0.94865,1.002872 0.76652,4.512666 0.74775,5.899226 -0.0688,5.082672 -0.18257,-0.182569 -0.50336,-1.814843 -0.712879,-3.627276 -0.660352,-5.712441 -0.888693,-6.308761 -2.415657,-6.308761 -1.376671,0 -1.411843,0.200694 -1.016623,5.80106 0.280839,3.979547 0.192836,5.58451 -0.280268,5.111404 -0.379303,-0.37931 -0.865972,-3.021051 -1.081477,-5.870537 -0.534579,-7.0683264 -1.803665,-4.834355 -1.382894,2.434294 0.220712,3.812786 0.102711,5.09252 -0.421146,4.568625 -0.400197,-0.400258 -0.727681,-2.972749 -0.727681,-5.716642 0,-4.698691 -0.370969,-5.886049 -1.346048,-4.308325 -0.231346,0.374315 -0.685915,0.516613 -1.010163,0.316216 -0.863957,-0.533957 -1.538885,3.927235 -1.171924,7.746293 0.174961,1.820847 0.06671,3.310632 -0.240483,3.310632 -0.940842,0 -1.446105,-3.277204 -1.066891,-6.919903 l 0.36017,-3.459685 -1.050136,2.343777 c -0.60575,1.351971 -1.018067,3.981744 -0.974352,6.214517 0.04503,2.302315 -0.18293,3.71085 -0.562695,3.476146 -0.977126,-0.603899 -0.759045,-6.766469 0.331844,-9.377345 0.533666,-1.277249 0.694942,-2.32227 0.358386,-2.32227 -1.072505,0 -1.969411,2.436481 -2.878801,7.820409 -0.57115,3.381356 -1.019454,4.722544 -1.26487,3.784073 -0.374095,-1.430494 0.275569,-6.128227 1.164923,-8.42364 0.24972,-0.644539 0.254189,-1.17189 0.0099,-1.17189 -0.762855,0 -3.136029,5.992901 -3.195036,8.068311 -0.03093,1.087048 -0.350195,1.976452 -0.709528,1.976452 -0.620688,0 -0.301934,-3.660161 0.563499,-6.470554 0.208393,-0.676737 -0.07519,-0.452858 -0.630068,0.49751 -1.343383,2.300648 -2.136742,8.336607 -1.173971,8.931636 0.401892,0.248379 1.296849,0.148608 1.988797,-0.221714 1.029956,-0.551215 1.396764,-0.368968 2.022792,1.005018 0.420585,0.923081 0.777826,2.944857 0.793865,4.492836 0.01607,1.54798 0.276911,4.095214 0.579726,5.660524 0.302814,1.565308 0.308153,2.846016 0.01189,2.846016 -0.526411,0 -0.821706,-1.708625 -1.650722,-9.551568 -0.258549,-2.445939 -0.665835,-3.700164 -1.112026,-3.424404 -0.452268,0.279519 -0.59364,2.917677 -0.39532,7.377003 0.372972,8.386051 -0.290672,8.564799 -0.879579,0.236909 -0.294591,-4.166025 -0.746374,-6.263028 -1.514875,-7.031531 -0.750371,-0.750367 -1.101502,-2.292129 -1.115461,-4.897751 -0.01508,-2.80589 -0.192178,-3.508174 -0.67582,-2.679201 -1.125897,1.929794 -1.611983,7.247176 -0.662488,7.247176 0.48406,0 0.662136,0.443482 0.425582,1.059921 -0.424129,1.105271 0.632755,12.110548 1.340037,13.953697 0.223299,0.581901 0.114016,1.058002 -0.24285,1.058002 -0.776681,0 -2.173049,-6.539873 -2.173049,-10.177464 0,-2.427013 -1.368472,-4.079254 -2.46797,-2.979748 -0.220701,0.220693 0.14746,3.6026 0.818128,7.515349 l 1.219393,7.114088 2.465119,-0.394188 2.465119,-0.394187 1.095942,5.464132 c 1.08544,5.411737 1.023462,7.577875 -0.128514,4.491892 -0.328421,-0.879773 -0.807329,-3.030965 -1.064249,-4.780428 -0.312271,-2.126411 -0.790728,-3.180842 -1.443331,-3.180842 -1.077458,0 -0.921257,1.267707 0.8511,6.907303 0.557301,1.773323 0.875406,3.362091 0.706897,3.530597 -0.386997,0.387 -2.342637,-4.707413 -2.91437,-7.591884 -0.237258,-1.197001 -0.695052,-2.176365 -1.017319,-2.176365 -0.76609,0 -0.766872,-0.0078 0.516294,5.219583 0.964455,3.928991 1.916218,6.164481 2.624557,6.164481 0.118001,0 1.312933,-0.648061 2.655403,-1.440134 z m 11.390025,-6.763089 c -1.376915,-4.327736 -2.120768,-7.868397 -1.653078,-7.868397 0.518331,0 1.05924,1.592262 2.33175,6.863921 0.434125,1.79848 -0.150676,2.664022 -0.678672,1.004476 z M 89.527489,50.18467 c -0.46518,-1.405832 -0.705642,-2.696202 -0.534348,-2.867488 0.495576,-0.495581 1.99635,3.588905 1.672718,4.552455 -0.160924,0.4791 -0.673178,-0.279135 -1.13837,-1.684967 z m 10.387919,1.480016 c -0.491645,-1.454393 -2.394763,-8.177657 -2.394763,-8.460132 0,-0.139043 0.259342,-0.09253 0.576313,0.103371 0.749996,0.463527 2.988352,8.435135 2.504392,8.919093 -0.20382,0.203815 -0.51249,-0.04923 -0.685942,-0.562337 z M 93.80944,48.555411 c -0.232998,-1.381155 -0.563598,-3.113876 -0.734661,-3.850492 -0.306778,-1.320974 -0.296815,-1.321514 0.728122,-0.03942 0.918912,1.149482 1.521657,6.401105 0.734661,6.401105 -0.167464,0 -0.495114,-1.130035 -0.728122,-2.51119 z m 22.92341,2.047289 c -0.18797,-0.304154 -0.82657,-2.423914 -1.41911,-4.710577 -0.59253,-2.286664 -1.26662,-4.694609 -1.49796,-5.35099 -0.31338,-0.88912 -0.21988,-1.009264 0.36668,-0.471184 0.88976,0.816218 3.71223,10.265701 3.21483,10.763099 -0.17746,0.177462 -0.47645,0.0738 -0.66444,-0.230348 z m -8.88484,-2.047289 c -0.22692,-1.012847 -0.67652,-2.879295 -0.99909,-4.147665 -0.32259,-1.268368 -0.45243,-2.440196 -0.28857,-2.604063 0.43356,-0.433567 1.60468,2.89715 2.0935,5.953979 0.47687,2.982218 -0.17244,3.625005 -0.80584,0.797749 z m 6.15202,1.100322 c -0.16138,-0.5131 -0.77116,-2.417969 -1.35507,-4.233041 -1.24395,-3.866807 -1.2267,-3.731202 -0.4744,-3.731202 0.61922,0 2.88878,8.131253 2.40467,8.615363 -0.15498,0.154984 -0.41383,-0.13802 -0.5752,-0.65112 z M 89.233449,43.835442 c -0.20694,-0.334844 0.390498,-0.958168 1.327663,-1.385167 1.489776,-0.67879 1.675536,-0.628945 1.478019,0.396627 -0.246318,1.279035 -2.200593,1.967594 -2.805682,0.98854 z m -11.67854,-3.483253 c -0.07618,-1.657386 -0.305577,-4.218801 -0.509744,-5.692033 -0.294778,-2.127011 -0.217992,-2.438229 0.372896,-1.511313 0.426243,0.668639 0.643994,3.100198 0.509754,5.692031 -0.164601,3.177821 -0.275612,3.627708 -0.372906,1.511315 z m 10.064531,0.894416 c -0.961218,-1.861903 -1.708154,-11.827114 -0.846574,-11.294632 0.386656,0.238971 0.716144,1.697417 0.732184,3.24099 0.01607,1.543572 0.291233,4.162537 0.61154,5.819923 0.643532,3.32989 0.470388,4.107855 -0.49715,2.233719 z M 84.532312,39.84995 c -0.204265,-1.012846 -0.540106,-3.498926 -0.746319,-5.524619 -0.206203,-2.025694 -0.523483,-4.173074 -0.70507,-4.771956 -0.211916,-0.69894 0.15619,-1.216056 1.027931,-1.444022 1.341908,-0.350918 1.792535,0.201096 0.896025,1.097615 -0.570929,0.570926 -0.307107,6.584505 0.437549,9.973331 0.303486,1.381155 0.306426,2.511191 0.0066,2.511191 -0.299898,0 -0.712391,-0.828694 -0.916656,-1.84154 z m 20.019668,-0.167413 c -0.23473,-0.379798 0.32787,-0.669651 1.29978,-0.669651 0.94251,0 1.71365,0.301344 1.71365,0.669651 0,0.368308 -0.5849,0.669652 -1.29978,0.669652 -0.71488,0 -1.48602,-0.301344 -1.71365,-0.669652 z M 94.265869,36.501696 c -0.390377,-1.749463 -0.857,-4.913564 -1.036947,-7.031334 -0.297696,-3.503598 -0.20748,-3.850492 1.001367,-3.850492 1.100103,0 1.21085,0.219894 0.644093,1.278878 -0.668466,1.249056 0.111341,10.721343 1.00118,12.161127 0.211652,0.342465 0.09578,0.622662 -0.257547,0.622662 -0.353311,0 -0.96178,-1.431379 -1.352146,-3.180841 z m 3.108648,1.087313 c -0.565668,-1.474099 -1.414992,-9.960187 -0.996863,-9.960187 0.492855,0 1.990502,9.17637 1.659637,10.168955 -0.184053,0.552149 -0.396464,0.485241 -0.662774,-0.208768 z m 6.579463,-0.305018 c -0.65169,-1.698257 -0.46795,-14.342725 0.2084,-14.342725 0.33819,0 1.09154,-0.182911 1.67413,-0.40647 0.60343,-0.231556 1.05925,-0.06049 1.05925,0.397518 0,0.442194 -0.55042,0.947925 -1.22315,1.123848 -1.1107,0.290456 -1.19569,0.961855 -0.92442,7.303467 0.28655,6.699312 0.0838,8.212245 -0.79421,5.924362 z m 2.73814,-1.085935 c -0.58373,-2.463009 -1.336,-10.94583 -0.938,-10.577079 0.48724,0.451423 1.97383,11.443635 1.59841,11.819054 -0.16276,0.16276 -0.45994,-0.39613 -0.66041,-1.241975 z M 89.819108,21.434552 c -0.23772,-1.935668 -0.127975,-4.268047 0.244194,-5.189794 0.566647,-1.403412 0.68281,-1.006194 0.71839,2.456422 0.02334,2.271801 0.225357,4.607209 0.448921,5.189793 0.223563,0.582586 0.09456,1.059246 -0.286643,1.059246 -0.381207,0 -0.887395,-1.58205 -1.124862,-3.515667 z m 8.12472,-1.232343 c -0.232744,-1.163751 -0.384091,-3.509623 -0.336303,-5.213046 0.07145,-2.546072 0.189426,-2.21231 0.663248,1.875842 0.597153,5.15223 0.41267,7.035267 -0.326945,3.337204 z m 32.914212,37.298455 c 1.73722,-0.880961 3.6945,-2.194869 4.34952,-2.919796 1.1652,-1.28956 1.12338,-1.327309 -1.935,-1.746506 -1.71928,-0.235652 -4.43993,-0.428458 -6.04591,-0.428458 -2.79798,0 -2.91996,0.08393 -2.91996,2.008952 0,1.724087 1.91915,4.687556 3.03568,4.687556 0.19641,0 1.77846,-0.720787 3.51567,-1.601748 z M 88.458804,55.835157 c -0.238347,-0.597012 -0.75223,-2.968869 -1.141958,-5.270794 -0.726471,-4.290913 -1.849912,-5.680429 -1.849912,-2.28805 0,1.043497 0.338207,3.581309 0.75157,5.639582 0.561539,2.796149 0.994542,3.649075 1.712613,3.373527 0.57454,-0.220476 0.786765,-0.805328 0.527687,-1.454265 z M 120.6608,45.672192 c -0.56131,-2.692073 -0.89514,-5.0201 -0.74185,-5.173393 0.44603,-0.446029 2.37878,6.606762 2.37878,8.680392 0,1.668869 0.24316,1.88741 2.09998,1.88741 h 2.09997 l -0.42652,-3.111762 c -0.79787,-5.821146 -2.49293,-10.445672 -3.47042,-9.468179 -0.2417,0.241705 0.022,1.890363 0.58609,3.663686 1.53887,4.838036 1.98562,7.576954 1.2359,7.576954 -0.36301,0 -0.86569,-1.495414 -1.11707,-3.323142 -0.25137,-1.827727 -1.03301,-4.452859 -1.73696,-5.833624 -0.70396,-1.380765 -1.27992,-2.692967 -1.27992,-2.916002 0,-0.223036 1.65738,-0.278677 3.68308,-0.123646 2.0257,0.155031 3.68308,0.06805 3.68308,-0.193291 0,-2.651217 -3.82928,-13.726678 -4.74591,-13.726678 -0.32233,0 -0.31026,0.673076 0.0271,1.506715 0.95448,2.359058 2.90597,11.243813 2.54822,11.601564 -0.17683,0.176827 -1.13865,-2.624861 -2.1374,-6.225974 -0.99873,-3.601114 -2.31321,-7.097425 -2.92105,-7.769581 -1.05019,-1.161312 -1.01079,-1.198413 0.79226,-0.745878 1.76346,0.442601 1.8632,0.36341 1.41273,-1.121677 -0.76426,-2.519632 -3.75742,-7.820843 -5.10369,-9.039206 -0.78092,-0.706724 -0.33765,0.62142 1.22185,3.661 1.34605,2.62354 2.26981,4.947632 2.05279,5.164649 -0.21701,0.217016 -1.3077,-1.518724 -2.42376,-3.857201 -1.97648,-4.141324 -5.05201,-7.8636811 -5.84339,-7.0723069 -0.2163,0.2162987 0.22202,1.0085649 0.97405,1.7605919 1.75737,1.757368 3.89406,5.953947 4.70037,9.231797 0.34781,1.413875 1.40289,4.378739 2.34463,6.588587 0.94175,2.209848 1.69247,4.921933 1.66828,6.026858 -0.036,1.64283 -0.21116,1.399181 -0.9613,-1.336928 -1.13231,-4.130059 -3.00882,-8.37301 -3.70309,-8.37301 -0.28537,0 -0.61627,0.450429 -0.73535,1.000953 -0.14209,0.656849 -0.62379,0.285216 -1.40119,-1.08103 -0.8634,-1.517336 -0.93773,-1.987216 -0.27411,-1.732559 0.50082,0.192182 1.28068,0.120685 1.73304,-0.158882 1.06682,-0.659331 -2.5326,-8.469714 -4.94978,-10.74054 -2.05765,-1.9330587 -2.1838,-1.2517455 -0.26673,1.44053 1.476,2.072848 3.50901,7.905604 2.95026,8.464355 -0.17614,0.176144 -0.51865,-0.250219 -0.76112,-0.947474 -1.30395,-3.749673 -3.16863,-7.452788 -4.42767,-8.792965 -2.31035,-2.4592604 -2.69474,-1.7320269 -0.60748,1.149338 1.06154,1.465418 2.28019,4.054807 2.70809,5.754199 0.42792,1.699392 1.24377,3.800605 1.81299,4.669363 1.37248,2.094655 2.82433,6.872236 3.95921,13.028427 0.7692,4.172496 1.85522,8.801059 3.43993,14.660751 0.13876,0.513101 0.40787,0.777341 0.59801,0.5872 0.19014,-0.190141 -0.11354,-2.548317 -0.67486,-5.240391 z M 118.94947,34.70375 c 0,-0.896793 -0.25721,-2.328171 -0.5716,-3.180842 -0.31437,-0.852669 -0.77052,-2.454337 -1.01367,-3.559261 -0.73963,-3.361121 0.92994,-0.06493 1.99714,3.942899 1.09745,4.121436 1.11529,4.427738 0.25778,4.427738 -0.36831,0 -0.66965,-0.733741 -0.66965,-1.630534 z m 10.37518,15.700346 c 0.66732,-1.079756 -1.09311,-8.679294 -2.37753,-10.26345 -1.37564,-1.696674 -2.40326,-1.178162 -1.39581,0.70429 0.37591,0.702409 1.03395,3.289632 1.4623,5.749386 0.73787,4.237199 1.38627,5.306083 2.31104,3.809774 z m 1.66664,-7.038479 c -0.45503,-2.578156 -1.16586,-4.908948 -1.5796,-5.17954 -0.41445,-0.271044 0.10689,-0.496589 1.16091,-0.502238 1.38086,-0.0074 1.81101,-0.276511 1.54598,-0.967176 -0.20197,-0.526307 -0.57366,-2.108357 -0.82599,-3.515667 -0.6293,-3.509735 -3.50124,-9.49354 -5.00813,-10.434602 -0.78913,-0.492827 -1.02051,-1.038936 -0.63631,-1.501873 0.85003,-1.024226 -2.8223,-7.231118 -5.33831,-9.02267 -2.6186,-1.864604 -2.55894,-1.389162 0.29481,2.34945 1.27865,1.675128 2.66886,4.314486 3.08935,5.865239 0.4205,1.550754 1.32297,4.326267 2.00552,6.167806 1.80535,4.870904 2.83287,9.512601 2.43912,11.018327 -0.18897,0.722604 0.21579,2.456548 0.89945,3.85321 0.68364,1.396662 1.30362,3.895427 1.37769,5.552813 0.0741,1.657386 0.31152,3.314772 0.52765,3.68308 0.81596,1.390563 0.84357,-2.857806 0.0479,-7.366159 z m -2.41337,-11.049238 c -0.76751,-2.76231 -1.64171,-5.599166 -1.94268,-6.304124 -0.38517,-0.902193 -0.31786,-1.139999 0.2273,-0.803075 0.98767,0.610415 3.65822,9.329421 3.34629,10.925205 -0.12948,0.662406 -0.86338,-1.055697 -1.63091,-3.818006 z m 5.48885,14.89973 c -0.69028,-6.05463 -1.06255,-7.393321 -2.17459,-7.820049 -0.68424,-0.262569 -0.92198,-0.09575 -0.69745,0.489375 0.18736,0.488255 0.71427,3.203758 1.17091,6.034452 0.97473,6.042299 2.36282,7.099991 1.70113,1.296222 z m 2.29363,-0.123819 c 0,-4.153382 -0.85505,-7.409753 -1.94563,-7.409753 -0.40281,0 -0.40894,0.803869 -0.0166,2.171945 0.3426,1.194569 0.62292,3.755984 0.62292,5.692032 0,1.936049 0.30134,3.520087 0.66964,3.520087 0.37121,0 0.66966,-1.771204 0.66966,-3.974311 z m 2.16003,-6.006999 c -0.64622,-5.248469 -2.88997,-14.07597 -5.0153,-19.731511 -0.73415,-1.95362 -2.96532,-4.439372 -3.98471,-4.439372 -0.30831,0 -0.10084,0.889065 0.46109,1.975698 0.56193,1.086634 1.02168,2.442677 1.02168,3.013429 0,0.570753 0.33359,1.037731 0.7413,1.037731 0.40771,0 0.56178,0.467804 0.34237,1.039564 -0.2194,0.57176 0.0607,1.740875 0.62224,2.598034 1.10403,1.684972 3.4982,9.510947 3.90631,12.768848 0.13842,1.104924 0.48593,3.96304 0.77225,6.35137 0.44119,3.6802 0.62307,4.112743 1.1926,2.836359 0.45397,-1.01738 0.43455,-3.434771 -0.0598,-7.45015 z m -3.81764,-5.233282 c -1.04589,-5.57506 -3.97246,-12.220437 -5.62426,-12.771038 -0.55102,-0.183673 -0.35578,0.694118 0.54876,2.467163 0.77227,1.513753 1.86722,4.635234 2.43323,6.936626 1.39489,5.671595 1.46968,5.858476 2.34444,5.858476 0.52044,0 0.61571,-0.796803 0.29783,-2.491227 z m -19.14353,-3.378185 c -1.59185,-6.83634 -2.52983,-9.237577 -3.30547,-8.461943 -0.37897,0.378973 -0.11407,2.563822 0.68306,5.633665 0.71616,2.758035 1.30728,5.692632 1.31359,6.521325 0.008,1.022051 0.41486,1.506714 1.26553,1.506714 1.22191,0 1.22303,-0.133239 0.0433,-5.199761 z M 74.062509,28.800712 c -0.02235,-3.852345 -0.850637,-3.353267 -1.667125,1.004476 -0.385512,2.057495 -0.275579,2.511191 0.608491,2.511191 0.857803,0 1.074828,-0.720717 1.058634,-3.515667 z m 37.513561,-6.696509 c -0.0629,-1.451225 -2.43341,-7.450383 -3.70082,-9.365557 -2.24227,-3.3882988 -3.21168,-3.1982336 -1.65901,0.32527 0.68977,1.565309 1.61262,4.277395 2.05079,6.026858 0.59739,2.385186 1.11181,3.180842 2.05648,3.180842 0.69289,0 1.25654,-0.07533 1.25256,-0.167413 z m 16.14858,-4.28738 c -1.10402,-1.785406 -2.62604,-3.625424 -3.38227,-4.08893 -1.80297,-1.105042 -1.73601,-0.54684 0.24699,2.059307 0.89209,1.172427 1.82462,2.943771 2.07228,3.93632 0.41207,1.651385 2.39118,2.893436 2.86885,1.800422 0.11078,-0.25351 -0.70184,-1.921714 -1.80585,-3.707119 z M 109.66556,285.94664 c -0.0502,-0.64454 -0.40314,-1.17189 -0.78441,-1.17189 -0.47784,0 -0.47784,-0.40241 0,-1.29527 1.06944,-1.99828 0.83181,-10.85371 -0.33256,-12.39315 -0.54075,-0.71493 -0.94822,-2.07097 -0.9055,-3.01343 0.0626,-1.38213 0.13999,-1.45451 0.39983,-0.37425 0.17717,0.73662 0.59423,1.62558 0.92679,1.97547 0.88021,0.92608 0.70387,-1.53342 -0.31412,-4.38139 l -0.85998,-2.40592 2.6246,-0.10282 c 1.44353,-0.0566 3.57647,-0.53157 4.73986,-1.05556 1.16341,-0.52398 3.7194,-1.40257 5.68001,-1.95242 l 3.56474,-0.99972 1.23526,2.88174 c 1.21707,2.83932 1.72344,3.33285 7.03724,6.85866 1.47323,0.97752 4.14026,2.77541 5.92674,3.99532 1.78647,1.2199 3.86679,2.21799 4.62294,2.21799 0.75614,0 2.99062,0.76441 4.96551,1.69868 3.09748,1.46535 3.49984,1.86845 2.92923,2.93465 -0.76047,1.42096 -2.13494,2.06319 -4.41551,2.06319 -1.2431,0 -1.50073,0.26045 -1.15915,1.17188 0.3846,1.02624 0.29875,1.05767 -0.69067,0.25284 -0.99744,-0.81135 -1.12985,-0.74288 -1.12985,0.58422 0,1.26034 -0.16234,1.36857 -1.00448,0.66966 -0.81529,-0.67664 -1.00447,-0.64848 -1.00447,0.14951 0,0.91162 -3.89308,1.47216 -9.00943,1.2972 -0.71964,-0.0246 -1.67468,0.25921 -2.12231,0.63071 -0.57421,0.47655 -1.02698,0.31943 -1.53758,-0.53357 -0.67961,-1.13535 -0.7658,-1.13892 -1.41469,-0.0585 -0.64051,1.06651 -0.79471,1.04684 -2.11085,-0.2693 -1.36919,-1.36921 -1.45205,-1.37583 -2.32243,-0.18551 -0.80747,1.10428 -0.90259,1.11502 -0.90259,0.10194 0,-0.62285 -0.32165,-1.13247 -0.71478,-1.13247 -0.41004,0 -0.53354,0.57101 -0.2897,1.3393 0.2338,0.73662 0.13858,1.33931 -0.2116,1.33931 -0.35016,0 -0.79427,-0.60269 -0.9869,-1.33931 -0.48729,-1.86338 -2.47929,-1.73026 -2.50494,0.16742 -0.0198,1.46364 -0.0417,1.46843 -0.76841,0.16741 -1.11521,-1.99667 -1.23362,-2.05566 -1.97722,-0.98509 -0.51777,0.74544 -0.76685,0.78145 -1.02387,0.14803 -0.47304,-1.16581 -1.56734,-1.04893 -1.56734,0.16742 0,0.55245 -0.33359,1.00447 -0.7413,1.00447 -0.40772,0 -0.56785,-0.45202 -0.35584,-1.00447 0.212,-0.55247 0.11452,-1.00449 -0.21661,-1.00449 -0.33113,0 -0.73265,0.67803 -0.89226,1.50672 -0.19261,0.99999 -0.32088,1.1126 -0.3814,0.33483 z m 23.80403,-3.30641 c -0.21377,-0.53419 -0.37245,-0.37551 -0.40458,0.40459 -0.0291,0.70592 0.1292,1.10144 0.35171,0.87891 0.22252,-0.22252 0.24631,-0.80009 0.0529,-1.2835 z m 2.89081,0.49992 c 0,-0.53073 -0.30135,-1.1512 -0.66966,-1.37884 -0.3683,-0.22762 -0.66964,0.20661 -0.66964,0.96497 0,0.75835 0.30134,1.37882 0.66964,1.37882 0.36831,0 0.66966,-0.43423 0.66966,-0.96495 z m 2.6786,-0.33483 c 0,-0.34658 -0.30134,-0.81637 -0.66965,-1.04401 -0.36831,-0.22762 -0.66965,0.0559 -0.66965,0.63014 0,0.5742 0.30134,1.04399 0.66965,1.04399 0.36831,0 0.66965,-0.28355 0.66965,-0.63012 z m -22.94949,-0.4441 c -0.22253,-0.22253 -0.8001,-0.24632 -1.2835,-0.0528 -0.5342,0.21377 -0.37552,0.37245 0.40458,0.40459 0.70592,0.0291 1.10144,-0.1292 0.87892,-0.35172 z m 10.22613,-2.1333 c 0,-0.47505 -0.61845,-2.07599 -1.37434,-3.55765 -1.86999,-3.66548 -3.83246,-3.42005 -5.18393,0.64836 -1.1417,3.43691 -0.83161,3.77304 3.48089,3.77304 2.06616,0 3.07738,-0.28382 3.07738,-0.86375 z m 2.50446,-1.14229 c -0.39514,-1.28747 -1.31499,-2.86952 -2.04411,-3.51566 -1.01843,-0.90253 -1.23549,-0.94201 -0.93653,-0.17033 0.21403,0.55246 0.75777,2.1345 1.20831,3.51567 1.09121,3.34517 2.79703,3.50911 1.77233,0.17032 z m -13.21888,-0.24743 c 0,-1.05525 0.63704,-2.72851 1.41565,-3.71835 0.7786,-0.98983 1.25823,-1.9571 1.06584,-2.14949 -0.19239,-0.19239 -1.69764,-0.14767 -3.34502,0.0994 -2.90971,0.43634 -3.00628,0.52859 -3.38238,3.23108 -0.41449,2.97835 0.59183,4.45604 3.0346,4.45604 0.8868,0 1.21131,-0.51402 1.21131,-1.91864 z m 29.38476,0.37272 c 0.75198,-0.62023 1.03005,-0.61152 1.24906,0.0392 0.37874,1.12532 2.84872,1.07337 2.84872,-0.0599 0,-1.89431 -3.54066,-2.71352 -11.88624,-2.75011 -4.51175,-0.0198 -8.20319,-0.006 -8.20323,0.0315 -3e-5,0.0371 0.33142,1.01832 0.73654,2.18046 l 0.73658,2.11297 6.77562,-0.37813 c 3.72658,-0.20797 7.21092,-0.73716 7.74295,-1.17598 z m -26.69135,-1.51237 c 1.0592,-3.2094 0.26384,-3.79903 -1.0105,-0.74911 -1.18387,2.83338 -1.22223,3.13775 -0.39554,3.13775 0.33974,0 0.97246,-1.07488 1.40604,-2.38864 z m 14.21528,-2.74241 c -0.46039,-0.18577 -1.21375,-0.18577 -1.67414,0 -0.46038,0.18577 -0.0837,0.33776 0.83708,0.33776 0.92076,0 1.29744,-0.15199 0.83706,-0.33776 z m 5.18979,-1.24568 c 0,-0.19243 -2.5969,-2.02516 -5.77089,-4.07272 -4.01462,-2.58986 -5.99538,-4.31756 -6.5085,-5.67699 -0.40568,-1.07477 -0.95151,-1.95413 -1.21297,-1.95413 -0.65934,0 -2.1303,7.36869 -1.58068,7.9183 1.88311,1.88312 15.07304,5.19571 15.07304,3.78554 z m -20.08952,-2.4654 c 0.68376,-0.42351 0.28287,-0.501 -1.2556,-0.24273 -1.24304,0.20866 -2.67442,0.3794 -3.18085,0.3794 -0.50642,0 -0.92076,0.29381 -0.92076,0.65291 0,0.73697 3.79574,0.17752 5.35721,-0.78958 z m -1.47151,-1.20263 c 2.57914,0 2.64222,-0.0578 3.00375,-2.75333 0.23254,-1.73368 1.07118,-3.50401 2.26455,-4.78041 l 1.89523,-2.02708 -2.18757,0.41317 c -1.20316,0.22726 -3.88311,1.18874 -5.95542,2.13664 -2.0723,0.94789 -4.21021,1.55369 -4.7509,1.3462 -0.69188,-0.2655 -0.86137,-0.0601 -0.57223,0.69338 0.22595,0.58883 0.59789,2.24042 0.82652,3.67018 0.36021,2.25266 0.57755,2.51295 1.62866,1.95041 0.66712,-0.35704 2.39846,-0.64916 3.84741,-0.64916 z m 4.61417,-2.49844 c -0.16979,-0.65155 -0.31987,-0.28061 -0.33351,0.82431 -0.0136,1.10493 0.12527,1.63801 0.30869,1.18464 0.18344,-0.45338 0.1946,-1.35741 0.0248,-2.00895 z m 1.15375,-3.28831 c 0.35268,-0.91908 0.25469,-0.96051 -0.59801,-0.25283 -1.162,0.96438 -1.28294,1.35203 -0.42179,1.35203 0.32889,0 0.78781,-0.49464 1.0198,-1.0992 z M 98.525128,224.72902 c -4.405234,-0.71464 -2.928679,-1.48897 2.856782,-1.49818 8.45666,-0.0134 15.27272,-2.37039 23.59442,-8.15878 2.32626,-1.61809 4.79321,-2.71794 6.69652,-2.98553 4.81306,-0.67667 7.32154,-1.64773 8.12247,-3.14427 1.65586,-3.094 0.20083,-15.82619 -2.57599,-22.54122 -0.54785,-1.32481 -2.6226,-5.29068 -4.61058,-8.81307 -2.21948,-3.93255 -3.5963,-7.16323 -3.56733,-8.37064 0.0454,-1.89224 0.0836,-1.86707 1.01201,0.66789 0.53065,1.44881 1.37828,3.10619 1.88361,3.68308 2.68108,3.06067 8.14625,15.84676 9.48488,22.19042 1.39725,6.62146 1.67932,9.18206 1.24236,11.27809 -0.27543,1.32122 -0.45345,2.70828 -0.39559,3.08237 0.17867,1.15506 -2.28811,2.26024 -6.5919,2.95335 -2.26571,0.36488 -4.96412,1.20332 -5.99646,1.86321 -1.03235,0.65989 -3.49927,2.28228 -5.48207,3.60531 -6.54751,4.36886 -18.7526,7.31064 -25.673132,6.18797 z m 4.017902,-22.99098 c -0.22763,-0.3683 -0.0948,-0.66964 0.2953,-0.66964 0.39005,0 0.70918,0.30134 0.70918,0.66964 0,0.36831 -0.1329,0.66966 -0.29531,0.66966 -0.16242,0 -0.48155,-0.30135 -0.70917,-0.66966 z m -2.993307,-5.62949 c -2.121473,-4.59032 -4.109685,-11.41342 -4.975051,-17.07333 -0.397929,-2.60259 -0.330182,-2.84807 0.577964,-2.09437 0.626545,0.51999 1.028712,1.95391 1.028712,3.6679 0,2.84455 2.001522,9.40938 4.665182,15.30139 0.79874,1.76682 1.31465,3.57488 1.14648,4.01791 -0.16818,0.44303 -1.26765,-1.27574 -2.443287,-3.8195 z M 48.75099,111.30712 c -1.168093,-0.71035 -2.123796,-1.38726 -2.123796,-1.50424 0,-0.11697 1.58205,-0.19673 3.515661,-0.17725 2.956886,0.0298 4.124131,-0.36013 7.343869,-2.4532 5.153185,-3.34994 10.569288,-6.04987 10.569288,-5.26877 0,0.3497 -0.598704,0.82583 -1.33047,1.05808 -0.731755,0.23225 -4.00494,2.17842 -7.273733,4.32483 -8.618691,5.65934 -8.240016,5.51707 -10.700819,4.02055 z M 60.355034,86.782764 c -1.473241,-0.120913 -5.285035,-0.724304 -8.470668,-1.340868 -5.482497,-1.061107 -6.160827,-1.056251 -12.691257,0.09086 l -6.899186,1.211877 -1.814047,-2.17293 c -2.842351,-3.404683 -3.14357,-6.558072 -0.3294,-3.448448 1.965118,2.171426 6.505848,3.028616 11.973956,2.260421 3.624306,-0.509169 5.929249,-0.46127 9.190314,0.190986 2.394003,0.478832 6.538247,1.222828 9.209436,1.653324 2.671189,0.430497 4.687475,1.056558 4.480623,1.391246 -0.206841,0.334688 -0.73498,0.557867 -1.17363,0.495954 -0.43865,-0.06191 -2.002911,-0.2115 -3.476141,-0.332414 z m 5.966943,-11.029888 c -2.627772,-2.954197 -13.224328,-6.444331 -23.210456,-7.644713 -1.749458,-0.210294 -3.180845,-0.640295 -3.180845,-0.955558 0,-0.905468 8.43477,-0.0909 15.401978,1.487414 5.831647,1.321069 6.640055,1.70503 9.702887,4.608469 1.83766,1.742032 3.166743,3.34179 2.953517,3.555019 -0.213226,0.213228 -0.96341,-0.259555 -1.667081,-1.050631 z"
       id="path1" /></g></svg>
