<svg xmlns="http://www.w3.org/2000/svg" xml:space="preserve" width="695" height="966" viewBox="0 0 184 256"><path d="M126 278a165 165 0 0 0-41-1q-7 0-11-4l-4-4-4-3-5-3-8-3q-6-2-8-8 1-2-2-3-3-2-2-9l1-8-1-14-1-10-1-3v-2l-1-2-3-2-1-1-1-3-1 1-2 1-3 1v-1q-1 0 0 0h-1v-1h1v-1 1h1v-2l1-1q0 1 0 0l1-1-1 1 1-2 1-2v-1h1v-1h1v-1h-1l-1-1-1-1 1 1v1l-1-1-1-2-1 1-1-1v-1h-1q0-1 0 0h-1q0-1 0 0v1l1 3v1q2 0 0 0v2l-1-2v-1l-1 1v2-1l-2-3-1-3 2 3h1l-1-2q-2 0 0 0v-1l-1-3-1 1v1-2l-2-4-2-4 1 1 2 2-1-2v-3l1 1v-1l-1-3h-1v1-1h-1v-1h1q0 1 0 0h-1v-2q-2 0-1-2l-1-2v-3l1-1v-1 1l1 3v-1q0-1 0 0l1 1v1q1 2 1-1v-1 1l2 2v1h1v1h1q-1 0 0 0 0 2 0 0 1 0 0 0v-1q0-1 0 0h1v2-1l1-1v1q2 0 0 0v1h1v1-3h1v1h1-1v2h1v2h1v1q-1 0 0 0v1-1 2q1 0 0 0l1 1v-1 1l1-1v1q0 2 0 0l1-1v2h-1 1v-1l1-1v1q2 0 0 0l-1 1h1l1-1v-1 1h1v1h-1l-1 2h1l2-2v-1 2l-1 1q0 1 0 0v1h1v-1l1-1 1-1-1 2v2l6-6v1l-4 3-1 1h1v1l1-1h1v-1q1 0 0 0l1-1 2-1 3-2h2-3 1v-1 1h-2l-1 1 1-1 1-1h1l1-1q0 2 0 0h-3l2-1 1-2v-1q2 0 0 0l1 1q0-1 0 0h1v-1 1h1v-1q-1 1 0 0l-1-1-4-1v-1l-2-1-4-3v-1 1l5 2-1-1-1-1 1 1h1l1 1v-1l-4-4 1 2 3 2h1v1l1-1v1h1q0-1 0 0l1-1h1l1-1h-1q0 2 0 0h-1l-1 1v-1l2-2h-2l-1 1-1-1-1 1h1l-1-2-1-1 1 1h1l1 1q1 0 0 0l-1-1h3q-1 0 0 0h2l-1 1 1 1h2v-1l8-4h1q1 0 0 0l1 1q3-1 4 1h1l1 1h2l5 2 1 1h1v1h1v3l-1-1-1-1v-1l-1 1v1l-1 1v-2l1-1-1 3-1 1h-2q0-1 0 0v1q0 2 0 0-1-1 0 0v2q0 2 0 0h1v1-2h-1l2 1q0 1 0 0v-2 2h1v1-1q0-1 0 0 2 0 0 0l1 1v-1h1v1h-1l-1 1q0 1 0 0l1 1h-1v1h1q0-1 0 0v2l2 4-1 1v1-2q-1 0 0 0v-1l-1-1v3-1l-1-1v1h-1v-4h-1 1l1 1v2h1v-3 2l-1-1v-1l-1-1q2 0 0 0v-1l1 1v-2l-1-1h-1v1-1l-1-1 1 1-2-3-1-1v-1q0 1 0 0h-1v1-2h-1v1-1q0-1 0 0l-1-1v2l1 1-1-1v-1l-1 1-1 1 1-1v-1 1h-1v1-2l-1 1q0-1 0 0h-1v-1q1 0 0 0v1l-1 1v-1 1h-2 1v1h-1v1-1h-2v1h-1v-2 1h-1q-1-1 0 0h-1q-1-1 0 0 0 2 0 0l-1-1-1 1v2-2l1 1v1h1l1 1q0-1 0 0 1 0 0 0h1v-1q-2 0 0 0 0-1 0 0 0 2 1 1 0-1 0 0 0 2 0 0h2v-1 1h-1l1 1 1-1v1h1l1 1v-1h-1v-1h1l1 1v2-1h1q-1 0 0 0v-1h1q0 2 0 0h1q0 1 0 0h1v1q0-1 0 0l1 1q0-1 0 0h-1v2q-1-1 0 0v3l1 1-1-1h-1l-1 2v-1h1l-1-1h-2q-1 0 0 0l1 1h-2v-1l-1-1v2l1 1v3-1h-1v-2h-1v1l-1-1v1l2 2 1 1 1 1v-1l-1-1h1q0 1 0 0l1-2v2q2 1 0 0h-1l1 1q0-1 0 0v2l1 1v1q0 1 0 0v2h1v1h-1l1 1v3-1 3l-1 1 1 1-1 1v1l1-1v8l1-1v-7l1 1q0 2 0 0v-1 2q2 1 0 0v1l1 1v1h1q0-1 0 0h-1v1h1l2-1-1-1-1-2v-1l1-1v-1h1v-3h-1 1v-1l1-2v-1l-1 7v5l1 1v1-2h1v-1q1-1 0 0v-1l1-2v-1l1-1v-2q1 0 0 0h-1l1-1h1v-1h-1 1v-3q0 2 0 0 1 0 0 0v-2l1-1v2l-2 9v3l1 2h1v-2h1-1v-1h1v-2h1v-1l1-1 1-1v-3q0 1 0 0l1-4v-1q1 3-1 7l-2 4v4-1h1v-1 2l-1 1h1v-2l1 1 1 1 2 1v-1l-1-1h1v-3 1q0 1 0 0h-1v-2 1q0 1 0 0h1l1-2v-1 8h1q0-1 0 0-1 0 0 0h1l4-3v1h1v-1l1 1 1 1h1v1q-1 0 0 0h1v-1l3-1h2l1 3 1 1-3-5h-3l2-1h-1 2q-2 1 0 0v1l1-1v-1 1-2l1 1 1 1q0-1 0 0v-2h-1q1 0 0 0v-4l1-2 1-3v-3 2l1 4v4h-1v-1l-1-1v1l2 3v3q0 1 0 0h1v1h-1v1h1-1v1l1-1 3-1 1-1-1-1 2 1q1 0 0 0v-1l1 1 1 1-1-1v-2l-1-1v-3q2 0 0 0h-1q0 2 0 0v-1h-1 1l-1-1v-2h-1v-1h-1v2h-1q0 2 0 0l1-1h-1v-1h-1v-5l-1-1h-1l1-1 1-4v-3h1l-1-4v-2q-2 0 0 0v-2l-1 1v1l-1 2-1 5q-2 3-8 1-4-1-5-4l-1-3-1-1v2-4l1-3 1-6q-1-1 0 0v-1l1-1 1-2q2-3 0 0l-1 2 1-4 2-5q-1-2 1-2h-1v5l1-6 1-2 2-4 2-3 1-1 1-1 1-1q4-4 4 1l1 1v-4h1v1l1 1 2 2-1-3v-1h-1v-3l-1-1v-1h-1v-4l-1 1q2 0 0 0v2h1v4l-1-1v-1l-1 1 1-5v-3q2 0 0 0v-3h-1l1 1h2v-1h-2l1-1-1-1-1-1h-1v-1l-1 10v6l-1 1v2q0 1 0 0v-4l1-1v-13h-1v-1q-1-1-3 2l-3 2h-1v6q0 2 0 0v-1l-1-3h-2v1q0 2 0 0v1h-2v8l-1 6q-2 4-6 6l-4 3-6 4-17 3-5 1-8-2-5-5v-8l-1-2-1-5v-2l-1-3v4l-1-1v-1h-1v-1 1l-1 1q-1 0 0 0h-1v1l-1-4-1-2v-1l-1 1v7h-1v-3 1l-1 3v14l-1 5-3 3-2 1h-1l-3 1v-1l-1-1-1-4-3-16v-1 2l1 2v2l1 3 1 1h1-1l-2-4v-1q2-1 0 0v-3q1 0 0 0v-6l-1-3q0 1 0 0v-1l1-1-1-5v-8 1-3 1h1l-1-1v-4l1-4v1q-1 0 0 0v-2l1-2-1 4v1l-1 1v2-1q1-3 1 0v3h1v-2 2-1h1l-1-1h1-1l-1-1h1q1 0 0 0l1-1-1-1 1-8v-1l1-1v-1l1-2v-1l1-1q-1 0 0 0v-1q-1 0 0 0l1-2v-2l1-1q-2 0 0 0v-3 1q0 2 1 1v1h-1v3l-1 2v1q-2 0 0 0v1l-1 1v5l-1-1q0 1 0 0l-1 2v2-1 2l1-1v-1q0-1 0 0v1h1l-1 1-1 1h1q1-2 0 0v1h-1 1l-1 1q0-1 0 0l1 1v1q0 1 0 0v2-4h1-1q0 2 0 0v-1h1v-1q0-1 0 0v-1l1-1v1-1h1l-1 3v1l-1 1v4l1-3v-1 3l1-1v-1l1-1v2l1 2v1-1q2-1 0 0v1l-1 1v1l1 1v1l1 2h-2q0-1 0 0h1v1l1 1v2-3q0-2 0 0h1v1l1 1v1-1q1 0 0 0v-1l-1-2-1-2v-2h1l1 1q1-1 0 0l1 1v-2h-1v-1h1v1h1q-1 1 1 1v-3 1l1 1v-1l-2-3v-1l-3-9V82l1-1v-2q0-1 0 0h-1v-7 1l1-2v-4l1-1v-1 2l1-3 3-5-3 7-1 7v1h1v2-3l1-3v-1l1-3h1l-2 6v9-2l1-1v-3l1-3v5q0 1 0 0h1v2-2l1-3v3l1-1-1 2v1h1l1-5v-1 5-1 3l1 2v1l-1 1 2 4 1 6q0 9-4 16l-3 6 1 4 1 2-1-3v-3q0-2 0 0l1 1v-2h1l-1-1 1-2v4h1l1 1v-2h1v1l-1-1v2l1-1 3-4 3-3 9-3 7-3q1-3 6-1l4-1-1-1h-3v-1h-1l1-1h1-4 1v-1l-1 1v-1h-3l1-2h-1l-1 1-1-1v-2 1-2l1 1v-1l1-1v1l-1 1h1-1v1h-1 1v1l1-1q1 0 0 0h1v1h3-2l-1-1v-1l1 1q-1 0 0 0h1-1 2v-1h1v-1 1-1h1l-1 2h1v1-1l1 1v1-1l1-1q-1 0 0 0l1-1h1l1-1 1 1 1 1-1-1 1-1v-1 2q1 1 0 0l1-1 1 1h1v-1h-1 2v-1h1l-1-1v1l-1-1h-1 1l-1 1-1-1h-1l1-1h3q0-1 0 0v1h1l1 1-1-1h1v-1h1v1h-1v1l1-1h1q-1 1 0 0h1q0 2 0 0l1 1 1-1 1 1h-1v1-1l1 1h1l-1 1v-1h-2q-1 2 0 0l2 1h-1 2v1h-1q0-1 0 0l-2-1v1q2 0 0 0v1h-1v1h-2l-1-1-1 1v1h1l1 1 1 1h-1v-1h-1l-1-1 2 2 1 1h-1l1 1h1l1 1h-1l-1-1v1l2 1 3 2v1l2 1v-1q-1 0 0 0h1l1 1 1 1q1 0 0 0l-1-1-1-1q0-2 0 0v-1l-1-1h1v-1q1 0 0 0l1-1q1 0 0 0l1 1v-1h1l1 1h-1v-1l-1-1 1-1v-1l-1 1v1l-1 1-2-1h2v-1h1v-1h1q0-2 0 0h1l1 2-1-1q0-1 0 0h-1v1l1 1v1l-1-2h2v-1l-1-1 1-1h1l-1-1 1 1h1q0-1 0 0l-2 1v-1 1h1q0 1 0 0h2v-1 1q1 0 0 0l1-1v1h1v1h-1q-3 1-1 1h3l2 1v-1h-1 2v1h1l2 1h4l-1-1h-1q-1 2-1-1v-1h1v1l1 1h1v-1q-1 0 0 0h1-1v-1h-3l-1-1q0 1 0 0v1h-1l-1-1h-1l-1-1h1l1 1h1l1-1h-2l-1-1q-1-1 0 0h2q1 0 0 0l1-1 1 1q0 2 0 0v1h2q1 0 0 0h-3l1 1h2l1 1v-1h-1 1v-1q0-1 0 0h1l1 1h-2 2v-1l-1-1h1l1 1v-1h-1 1v-1l-1-1h1q1 1 0 0h1l1 1 1 1v-1l-1-1 1-1h-1 1v-1l1-1h1l1-1v1h1v-1h1l1 1h-2 1l1 1v1l1-1q-2 0 0 0v-1h-1v1-2h1l9-5 1 1 1-1v-2h1v1l1 1v-2 1h1l1-1v1h1v-2 3h2l-1-1-1-1h1v1-2l1-1v1l1 1v-1q1 0 0 0l1 1h1q0-1 0 0h1q0 2 0 0h1v1h1q0-1 0 0h2v1h-2q0-2 0 0h-1v1h2-1v2h-1l2 1h1-1l1 1q3-1 6 2l1 1-1-1h-1q0-1 0 0l-1-1h-1l-1-1h-1v1h1v1l-1-1h-1v-1l-1 1 1 1h2l2 1 1 1 1-1q0 2 1 1v-3h-1l-2-1h-1l1-2v-1 1l-1 1q0 1 0 0v-2l1-1v-1q0 1 0 0v-1h1l1 1v2q0 1 0 0h1q0 1 0 0v-1l-1-1h1-1v-1l1-1 1-1 1-1h-1q-1 0 0 0v1h-1q0-2 0 0v-2l-2 2 1-1v3l-1-1h1v-1l-1 1v-1l-1-1v-1l1-1q-1 0 0 0h1v-2h-1v1h-1q0-1 0 0v-1h-1l-1-1v-2q-1 0 0 0h1v-1q1 0 0 0l-1-1v1h-1l-1-1h-2l-1-1q0 1 0 0h2-1l-1-1 1-1v1l1 1h1l-1-1h-1v-1l-1-1q1 0 0 0l-1 2v-2h1-1l-1 1v1h1-1v-1h-1l1-1h-1v1-2h1-4l-1 1 1-1 1-1v-1l-1 1q2 0 0 0h-1v1h-1v1-3 1q-1 2 0 0l-1-1h-1 3l1-1v1q-1 0 0 0 1-2-1-1v-1h2q1 0 0 0h-1l1-2h-1 1v1l-1 1-1-1h1v-1 1q-1 0 0 0l-1-1v-1 1l1-1h1q1 0 0 0l1-1h-1v1l-1-1v-1 1h1v-1h1l-1-1h-1 3l-2-1h-1v-2h2v1l1-2h1v1h1v-1l-1-1h1v-1l1-1h1v1h-2 2v1h-1l-1 1v2h1v1l-1 1 1-2h1l1-2h-1v1q-1 0 0 0l1-2q0 2 0 0h-1 1v-1l-1-2v-2q0-2-2-2l-2-2h-1v-1h2v1h2-1v-1h-4 1l-1-1v3l1 6-1-1-1-7h-3 1l1 1-1-1v-1h2q0 2 0 0l-1-1v1h-1q0-2-1-1v-1h-1v-1 1l1-1-1-1v-1 1h-1v-1h1v-1l1-1v-1l-1 1v1l-1 1h-1l1-1v-2l1 1 1-2h-1l-2-1v1-1q1 0 0 0h-1q1 0 0 0h-2l-1-1h-1v-1h1l-1 1 2-1v-1h-1q0 1 0 0h-1l-1-1q0 2 0 0h-2q1-1 0 0h-1l-1-1v1h-1v-1h1-1l-1-1h-2q0 1 0 0l-1 1q-2 0 0 0v-1l-2 1h1v-1h-3 2v1l-1-1v1l-1-1h-1q0-1 0 0h-11l1-1 2 1 6-1q0 1 0 0h8l-9-1h-8 20l14 4h-1l5 1 13 7h-1l1 1h1l1 2-1-1v1l2 1 10 7 3 2h-1l-1-1 2 2h1l-1-1 1 1 2 1h-1v-1l1 2q1 0 0 0l2 1 1 2h1v1h1v1l3 3 2 2 5 8h-1 1l1 4 2 8v1l-1-1v2h1v1-1h1v2q-1 0 0 0h1-1v1l1 2v2h1v1h-1l1 1h1v2l-1-1 1 1v2l1 2v6q-1 0 0 0v6h-1l1 1v3q-1 0 0 0v6l1 2v6l-1 2v2l1-1v1h-1v1l-1 1q1 0 0 0v1q-1 0 0 0l-1 1v1l-1 1v2q0 2 0 0l1-1v-1l-2 5v2-1h1l1-3h1l-2 4-1 5 2 1h1q0 1 0 0l-2 1-1-1-3-1q-3 1-4-2-3-5-2-11v-12l-3-5 1 2q2 4 2 9l-1 6 1 8q1 4 3 5l3 1 2 1 1 1v5l1 4v-9h1l1 1v1-1h1v-2q-2 0 0 0l1 3-1 4v1q0 1 0 0l-1 1-3 5-1 2 1-1 2-3 2-3-1 2v3l-1 3-1 1-1 2v2h-1v1q-1-1-1 2v1l1 2-1 3-1 2v-1l1-1v-1q2-1 0 0v-4l-1 1v1l-1 2v1l1-1q0-2 0 0h1v1l-1 1-1 1v1l-1 1v1h-1l-1-1 1 1v2l1 1-1 4v1h-2v1l-1 1-5-6v-1 1l-1 3v2l-2 2-2 2v2l-1 6q-4 16-1 29 2 6-1 10h-1v-4l1-1v1-2h-1v-2l-1-1v-6h-1 1l-1-2v-2q0 1 0 0v-3h-1l1 8 1 4v4l1 5v1l-1 1q-1-1 0 0l-1 1v2l-1 1-1 2q-1 4-6 4l-12 6-5 5c-6 5-6 5-10 6zm3-1h-1zm3-1h-1zm2 0 5-3 3-4-1 1zl-2 1h-1zm-51 0q-1 0 0 0 2 0 0 0m-1-2-1-1zm7-1 1-1q1 2 0 0h1q0 2 0 0l1-1v1-1h2l1-1h1l1-1v1q-1 0 0 0l1-1h1v-1q-1 0 0 0 0 2 0 0h1v1h1v-1h4l1-1v-2h1v-2h1v1l1-1v-1 1l1 1v1l1-1q1-1 0 0l-1 2 1-1h1-1q0 3 1 1l1-1-1 1v1l2-2h1l-1 1-1 1q-2 0 0 0h2l1-1 2-1-3 2h-1l2 1 1-2h1l-2 2 3-1 1-1h1v1h-1v1-1h1l1-1v-1l1-1 3-2v1h1l-1-1 1 1h1v-1h1-2l1-1v-1l-1 1-1 1h-1l-1 1 1-1 3-4-1 1-1 1-1 1q0-1 0 0h-1l2-2v-1h2v-2l-1-1v2q0 2 0 0v-1l-1-1h1-1v-1h-3v-1q2 0 1-1l-1 1v-1h1-1q-1 0 0 0h-1v-1h-2l-1 1 1-1v-1h-2q0 2 0 0h-1v1-1h-1l1-1v-3l-1 1q1 0 0 0l1 1q-1 0 0 0l-1 1v-2q-1 1-1-1h-1q1 0 0 0v1l1 1v2-1h-1l2 2h-2v1l2 2h1q-1 1-3-2l-1-1 1 2 1 1-2-1-1-2-3-5v-1c0 1 3 8 5 9l-3-3-1-1-2-8v-2l1-1h-1v1h-1v1q0 2 0 0v-4l-1 3v-7l-1 2-1 5q0 1 0 0v-3q-1 0 0 0l-1 1v-1q2-1 0 0v-1q0-2 0 0h-1v1h-1v1-1h-1v1h-1v1-1h-1v-1h2l4-5-1 1-2 2v-3l1-1h-1v4l-1-1q0-1 0 0l-1 1v2-1l-1-1v1q0 1 0 0l-2-1v1q1 0 0 0l1 2v1-1l-1-1v-1l-1-1v2l1 1-1 1v-2h-1l1-1-1-1q0-1 0 0v4l1 1-1-2h-1v-1 1h-1 1v1l1 2h1v2h-2v-3q0 1 0 0v-1h-1l-2-5 1 2v3q0-1 0 0h-1v-3 2l-1 2v-7 1l-1 3-1 1h-1v-1l-1-2q0 1 0 0v-1q0 2 0 0v-1l1 2 1 1-1-3v-1l-1 1-1 1 2-3v-1l-1-1q2 1 0 0v-2l-1-1v-1l1 1v-4q0 1 0 0h1v-4l-1 3q0 1 0 0v-2h-1q0-2-1-1l1-1h-1l-1-1 1 1h-1v1l-1 2 3 7v1q-1-2-1 1l-1 3v2q-1 0 0 0h1v-5h1l-1 1v7h-1q2 1 0 0h-1l1-1q1 0 0 0 0 2 0 0h1l-1-1-1 1h-1v1h-1 1v2l-1 1v-3 1l-1 1v-6l1 1-1 2 1 1v-3l1-3 2-2h-3l1-1h-2v-1 2q2 0 0 0 0 2 0 0l-1-1v11l-1-3v-2h-1v-1 1q-1 0 0 0v6l-1 1 1-1-1-1q-1-1 0 0v1h-1v-4h-1q-1 0 0 0l-1 1q0-1 0 0l1 2 1 1h-2l-1 2v-1l1-1v-3h-2l-1-1h1v-1l3-2v-3q2 1 1 3v1l-1 1h1v-1l1-1 1-2v-2l-1 1v-1h-1v-1l2-2-1-2 1-1v-4l-1-1v-1h-1l-1 2-1 3 1 4 1 3h-1v2l-1 2q-1 0 0 0l-1 1h-1v1l1-1v-5l-2 5h-2v-1h2-2l1-1h-1v-1q0 1 0 0l1-1h-1q0 1 0 0h1v-1l-1-1h-1l-2-2h-2v-1h-1v-1h-1l-1-1v1h-1 1l1 3h1-1l-1-1v1q1 1 0 0-1 0 0 0v1h1q0 1 0 0h-2v1h1q0-1 0 0 2 0 0 0l-1-1-1-2-1-1v-3l-1-2v-4l-2-8 1 7v6-1l-1-1-1-1 1-1q2 0 0 0h-1 1v-1h-1q0 1 0 0v-1 1-1q0 1 0 0l-1-1v-2q0 1 0 0v-3l-1-1v-5l-2-7v-6l-1-1v-4 11l1 2 4 46-1 3v1l-1 6 3 5v-1l-2-4v-1h1v2q2 0 0 0h1v-1l1-3h1l-1 1v1l1 1v-1q-2 2 0 0l1-1v1q-1 0 0 0v2l1-1-1-1v-1l-1-1h1-1l1-1v1l2 3-1-2v-2l1 1v2h1v1-2l-1-1-1-5h-1 1v1l1 1 2 3v1l1 1q1 0 0 0v1h1-1q2 0 0 0v1q1 0 0 0l1-1v1l1 1q0 1 0 0v-1l1 1q2 4 1 1v-1l1 2h1l1 1v1-1l1 2h1v2-1l1 1 1 1h1l1 1q0 2 0 0l1 1v1h1l-5-3q-1-1 0 0l2 2 1 2h1l1 1v1h1v1h1v1-1h1l2 1 2 1h5l-1 1zm-5-1h2-3m3 0 2-1 2-1v-1l1 1h1v1h-5zm-6-1q-3 0-1-1 0 1 0 0zq0-1 0 0v1zm-2-1q2-1 0 0m13 0v-1zl1 1v-1h1l1-1 1 1h-1l-1 1v-1 1zm8-2 1-1zm3-1v-2h1q0-1 0 0h1v-1 2zm16-1v-1zm-4 0 1-1v-1zm-2-2h1q3-1 0 0zm8 0 1-1 2-1h-1v2zm-13-1q0 1 0 0m4 0h1zm4 0 1-1zm-48-2q0-1 0 0m48-1q1 0 0 0m1 0q0-1 0 0m-38-1-1-1 2-4v-1l1 2v2zm47-3h1zm-4-3h-2l1-1 2-1zq0 1 0 0m0 0q0-1 0 0h-1zm-11 0-1-3 1 1zm-51-1q1 1 0 0m57 0q0 2 0 0m1 0 1-2v1zm-40-1q0-1 0 0m4 0h-1v-6l1 1v1-1h2l1 2q0 3-1 0v-1l-1-1v1l1 2v1-1l-1-2q-2 0 0 0v4-3l-1 1v3m-30 0 1-1v-1l1 1zm2-1q0-1 0 0m27-1q-1-1 0 0m-30 0h1zm35 0q0-2 0 0m4-1q-1-3 1-5v-1h1l1 2 1 1h1-2v1h1v1h-1v-2 3l-1-1v-1 1h-1q2 2 0 0 0 1 0 0-1 0 0 0 0-1 0 0l-1-1h1v-1q0-1 0 0zq0 2 0 0m-11 0h1zm-1 0h2zm-27 0h1zm24 0v-1q-1 0 0 0v-1l1-1v1h-1l1 1 1 1q0 1 0 0l-1 1zm10-1v-3l1-4v-1 5l-1 1h1zm11 0q0-1 0 0l-1-2v-1q-2 0-1-1l1 1 1-1h3v1h-1v2l-1 1q0-1 0 0zm-19 0q0-2 0 0m3 0v-1zq-2 0 0 0m24-1v-1q0-1 0 0v-2zq1 2 0 0m-52 0 1-1v1zq1 1 0 0m26 0h1zm-2 0v-1zl1-1v-3 1l1 1v1q0 1 0 0h-1v1zm32-1-1-2v-1l1 2zm-22 0q0-2 0 0m2 0q0-1 0 0v-1l-2 2v-1h1v-1q0-2 0 0 1 0 0 0l1-1v-1l1-1v3-1q-1 0 0 0v2-1h1v-2q1 2-1 4zm11 0q-1 0 0 0m-46-1q2 2 0 0m22-2q0-1 0 0m3-1v-1q2 0 0 0zm-24 0q-2 0 0 0m0-1q-1 0 0 0m15 0h-1l1-1h-1l-1-1h1-1v-1h1v2q1 0 0 0l1-1q1 0 0 0l1 1v-1h1l-1 1q0-1 0 0v1h1v1h-2m-16-1q1 0 0 0m47 0v-1zm-47-1q-1 0 0 0m12-1q0-1 0 0m-10-1v-2q0-2 0 0zq-1 0 0 0m10-1v1zm0-1q0 1 0 0m-11-1q-2 0 0 0m10 0q0-2 0 0m1 0q0-1 0 0m19-1v-2zq0 2 0 0m-34-3h1zm0-1v1q1-1 0 0zm2 0q0 2 0 0m21 0q2 0 0 0v-1h1q0-1 0 0zm-22-1v-1h1l-1-1v-4l1 1 1 3v1h-1l1 1v1q1 0 0 0zm8-1q1 0 0 0m25-2q0-2 0 0 1 1 0 0m43 49q-2 0 0 0m-49-1q0-1 0 0m18 0h1l1-1zm4-2v1zm19-2h-1zm4-1h1zm17 0q0-2 0 0m-69-1q0 1 0 0m-2 0q-1 0 0 0 0-1 0 0v-1h-2 1-1l1 1zm71 0v1zm3-1q1 0 0 0m-19 0 1-1h1v-1zm4 0v-1q-1 0 0 0zm-2 0q0-1 0 0m24-1 2-3-1 1zq-1 1 1 1m-20-1q0-1 0 0m-63-2q2 0 0 0l-1-1v-1q-1 2 0 0v2zv2zm65 1q0-2 0 0m-2-1q-2-1-2 1zm0-1-1 1zm4 0v-4h-1l-1-1v1l1 2zm11 1q1 0 0 0m13-1h1l2-1 3-2h-1v-2 2l-1 1-1 1h-2v-1h-1zh-1zm-27 0q0-1 0 0m30-3-1 1zm-113-1 1 1zm81 0q1 0 0 0m3-1q-1 0 0 0m7 0q0-1 0 0m-8-1v1zm-73 0q1 0 0 0m82-1q0 2 0 0m1 0q1 2 0 0m-94 0 1-2v-3h1v-3h1v-1h-1l1-1q0 1 0 0l-1-1q0 2 0 0-1 0 0 0v1h-1 1l-1 2v2l-1-1v-3l-1-1v-2 5l1 1q0 2-1 1v1h1q0 1 0 0zq1 0 0 0m95-1h-2l-1-1 1 1q0-1 0 0v1q-1 0 0 0zm4 0q-2 2 0 0m2 0q-1-2 0 0m-4-1q0-2 0 0m-29 0q0-1 0 0m0-1-1-1zm27 0q1 2 0 0m1 0q-1-1 0 0m14 0q0 1 0 0m-38-1v-1zv1zm23 1v1zm6-1q0 1 0 0m-6-1q-1 1 0 0m13 0q-1 1 0 0m-26 0v-2h1l-1-1v2zm-85-1v-9q2 0 0 0v1-3 1h1l-1-2h2v-5l1-5 1-2v-4l-1-1h1v-4l-1-2v-5l-1-7-1-1v1l1 2v2l-1-1q-1 0 0 0v-1l-1-1v-1l-1-1v1l1 5v1h-1v-2l-2-6-1-3h-1v-1q1 1 0 0v-1q0-1 0 0 0 2 0 0l-1-3v2q2 0 0 0l2 7q3 6 2 7v1q1 0 0 0h-1q-1 0 0 0v-4h-1v-3l-1-1v-1 3l1 3v2l1 1v2l1-1h1l-1 1q1 0 0 0l1 1v3q0 1 0 0l-1 1v1l1-1v1h-1q0 2 0 0h1v1q2 0 0 0 0 2 0 0v1h-1 2l-1 1q0-1 0 0v1l-1 1 1-1h1v4q-1 0 0 0v8l-1 1v1l1 1h-1v-1q-1 0 0 0v2q2 0 0 0v3l-1 1 1 1q0 1 0 0v-1l1 2v2l-1 1 1 1v3zm-1-9v-1zm2-4v-3 1l1 1q0-1 0 0-2 0 0 0zm1-8q0-1 0 0m-1-1v-1zm1-14v-6h-1v-1l1 1v3zm112 36q0 1 0 0m-13-1q-1 0 0 0m5 0q0-2 0 0 1 0 0 0m-108-2v-2h1-1q0-1 0 0zl1 2zm71 1v-1zm21 0h-1zm11 0q-2 1 0 0m-97 0q0 1 0 0m85 0-1-1q0-1 0 0v-1h-1q0 1 0 0v1zm7 0v1zm-27-1q-1 0 0 0 0 1 0 0m2 0 1-1v1q0 1 0 0v-1zh1v-2 1l1-1v-1l-1 1-1 1v-3l-1-1 1 2h2v-3h1-1l-1 1v1-1l-1-1v1l-1 1v-1h-1l1 1v1l1 1-1-1q0-1 0 0v2h1v3zm24-1v-2q0 1 0 0h-1v-2h-1zq2 0 0 0m-26 0-1-1v1zm9 0q0-1 0 0m30 0q1 0 0 0m7 0q0 1 0 0 0 2 0 0v-1q-1 0 0 0v-1h-1v3q0 2 0 0zm-29 0-1-1v-1 2zm-5 0v-1h-1zm40-2v1zm-42 0q0-1 0 0m-81 0q0-1 0 0m8 0v-2zm99 0q-1 0 0 0m21-1q0 2 0 0m-98 0-1-1v2zm60 0h1v-2l-1-2v5m26-1-1-1zm12 0q-1-1 0 0 0 1 0 0m-60-1q0-1 0 0-1 0 0 0m43-1 1 1zm-79 1q0-1 0 0m-27-1v-1h-1 1-1zm27 0q2 2 0 0m86 0q0 1 0 0m-72-1-1-3v3l1 1zm49 1q0-1 0 0m-19-1v1zm-70 0q0-1 0 0m70-1 1-2q0-2 0 0l-1-1q0-2 0 0v2-1h-1zm24 0q-1 0 0 0 0 2 0 0m19 0q-1-1 0 0m-113 0-1-1v-1q0-2 0 0zm1-1q0 1 0 0m93 0v-2l-1-1zm14 0q0 1 0 0m4 0q0-1 0 0m-66-1 1 1zm31 0q0 1 0 0m2 0h-1v-1zm5 0q0-1 0 0m14 0h1v-1 1zh-1v-1zq-2 0-2-2h-1l1 2zm13 0q-1 0 0 0m-65 0q0-1 0 0m5 0q-1-2 0 0m62 0v-1l-1-1zh-1zm-69-3q1 0 0 0h-4 1v2l1 1 1 1 1-1zm-1 0h1l-1 1zm-23 2q-1 0 0 0m40 0h-1zm13-1h-1l-1-2h-1zq1 0 0 0h1zm28 1q0-1 0 0m-51-1h1l1-1-1 1zl1-1q2 0 0 0h-1zl-1 1v-3 1h-1l-2-3v-2l1 1v-2l1 1h1l-1-1v-2 1l1 1q0 2 0 0v-2l-1-2v-1l1 1-1-1-1-1h-1l-1 2v4h1v6l1 1q2 0 0 0v1zm5 0v-3h-1v-2l1-1h-1v2l-1-1 1-1v-4l-1-1-1-1v9-3l-1-4v3l1 5zq0 1 0 0m5-2v-5l1 1v-2 2l1-4v-3 1h-1l-1-1h-1v7l1 5zm19 2v-6l1-1q0 2 0 0v-5 3-1l-1-1q0-3-1-1v8l-1-1 1 3v2zm34 0 1-1zq1 1 0 0m-56-1q0 1 0 0l1-1-1-1v1zv2zm11-1 1-3q0-4-1 0zl-1 1q0 2 0 0v-3l-1-1v-1q0-1 0 0v-2h1q0 2 0 0v-1q0-1 0 0v-3h-1v1l-1 1v-2l-1-1v8l2 4 1 1zm-2-3q-2-2 0 0m0-6q1 0 0 0 0 1 0 0m-66 10v-3zm58 0q0-1 0 0m14-2 1-4v-2h1q0-2 0 0v-2l-1 1v1-1h-1v-1l-1-1v1l-1 3v3q0 1 0 0 0-2 0 0l1 1v2l1 1zm-10 1 1-2q-1-3-1-1zm22-1 1-2v-1h-1zv3zm29 1v-1h-1zm-31 0v-3zm6-2v-8l-1-1v11zm4 1q0-1 0 0v-9l-1 7zm29 1v-1q0-1 0 0h-1v-9 2l1-3v-4q-1 0 0 0v-3l1-3-1-1 1-1v-1l-1-1q0-2 0 0l-1 4v6q0-1 0 0v4-1h-1v9h1v2zm-100-1v-1l-1-2h1v-1l1-1v1-6q1 0 0 0l-1-1-1 1-1 3v5l1 2zq1 0 0 0m32 0v-2zh-1zm61 0q2 2 0 0m-92-1v1zm20 1v-2h1v-4 1-2 1-2h-1l1-1v-2h-1q0 2 0 0-1 0 0 0h-1v-1h1q1 1 0 0-2-1-2 1-2 4 0 9l1 2zm0-3q0-1 0 0m68 3q-1 0 0 0m-21-1v1zm7-2v-6 9zm-87 2q-1 0 0 0 0 2 0 0m39-1v1l1 1zm68 1v-1zm-86-1-1-2h1zl1-1q0-2 0 0v-6q0-1 0 0l-1 2v-3l-2-2v1l-1 3v1q-1 0 0 0v2zh1zm1-1q0 2 0 0v-1h1v-1 3m1-3q0-1 0 0m5 5q0 2 0 0m1-1q0 1 0 0m-43 0q0-1 0 0m21 0v-2q2 0 0 0h-1l-1 1 1 1zm-1-1q-1 0 0 0m42 0q0-1 0 0m-35 1-1-2zm55-1q0-1 0 0m6-2v-1zv2zm29 2v-2zq1 0 0 0m-62-1-1-6v3h1zm-55 1v-1zm22-1v-2zm69 0v-2l-1-1v2q-1 0 0 0 0 2 0 0zm29-1v1q0 2 0 0zm-93 1q-2 0 0 0m78-2v-4l-1-1v2h1zv3zm-19 1v-4 1zm-86 0q1 0 0 0v-1q2 0 0 0h-1zm74-1v1zm8 1q0-1 0 0m-61-1 1-4q0-2 0 0h1v-1h-2v1q-1 0 0 0h-1v2zm17 0q0 1 0 0m23 0q0-2 0 0 0 1 0 0m19 0q1 0 0 0m34 0q0-1 0 0 2 0 0 0m-91-1v-1zm39-2v1zm53 1q-1 0 0 0m-97-1q-1 0 0 0m41-2q-1 0 0 0 0 1 0 0m8 0h-3 1zm34-1 1-2v-1h-1v2q0 2 0 0zv1q-1 1 0 0zm-45 1q-1 0 0 0m5 0 1-1h-1v-3q2 0 0 0v1q2 0 0 0l1 1v-1l1-2v-2h-1v-3q0-1 0 0h-1v-3 1h1l-1-2v1-1q-2 0 0 0l-1-3q-3-1-5 5-3 7-2 10v-3l1 2 1 3q2 1 0 0v-1h1v2h5m-3-1q0 1 0 0v-1zm3-5q1 0 0 0 1 0 0 0m0-5q-1 0 0 0m-4-5q0 2 0 0m13 16h-1zm-40 0-1-3v-1l-1-2 1 2v1h1zh2-1v-1l1-1v-2h-1l1-1-1-3v-5h-1q0-2 0 0l-1 1v-1 1l-1 1-1 6 1 4zq1 0 0 0m1-4q0 1 0 0m5 4q0-1 0 0m58 0v1zm32-1q0-1 0 0m-56 0 1-1v-2 2l1-1v-3l-1-4v-4 1h-1v-1q0-2 0 0l1-1-1-1h-1v-1h-2l-3 3v1q0 2 0 0l1-1-1 2v1l-1 6v4h1v-1 1h2q1 1 0 0h1l1 1zm0-2v-1l1 2q-1 2-1-1m-4 1q0-1 0 0 1 0 0 0m0-1q0 1 0 0m5-1v1zm26 2v-2l1-1-1-7v6q0 1 0 0v-1 2zv2zm27 1q0 2 0 0m-84 0 1 1 1-1h1v-2 1-7q-1 0 0 0 0-1 0 0l-1-1v-1l-1-1h1l-1-1v-1 1-2l-1-1-1 1-2 5v3q0 5 2 7 2 0 0 0m8 0 2-1v-1l-1 1q0 1 0 0h-1 1v-2q0-2 1-1v1-1l1-2v-2q0-1 0 0v-3l-1-2v-1h-2l1-1h1-1l-2 1-1 1-2 7v2l1 1v2l1 1zm0-2q0 1 0 0m24 1-1 1h1zm4 1q0-1 0 0m42 0q2 0 0 0m-92-1q0-1 0 0-1 0 0 0v-1zv1-3l-1-2v-6q2-2 0 0v1l-1 2-1 1 1-2v-1h-1v2h-1l1-2h-1l-1 5q-1 2 1 5 1 1 1-1l-1-3 1-1v2q0 2 1 1v1zm-1-2v-2zq-1 0 0 0m10 2-1-2q0-2 0 0l2 2 1-2v-8h-1 1v-1h-1v-2 1h1q0-2 0 0v-2h-1l-1-1 1 1v1-1h-1l-1-1q2 0 0 0l-2 10 1 3zm1-2q0-1 0 0m42 1q0-3 1 0v1l1-2q0-3 0 0v1l1-1q-1 0 0 0v-3l-2-5v-4l3 13-2-10q0-3-2-3l-2 3v2l1-2v1l-2 4 1 5q-1 0 0 0v1h1zm-1 1q-1-2 0 0 1 0 0 0m26 1-1-1zm-81-1-1-3v-3l1-4-1 1-1 1v-4l-1-5q2-3-1-2l-4-3-1-2h-1l-1 1v9q2 9 7 12l1 1v-1l1-5v5q-1 0 0 0zm-13 0q2 0 0 0-1 0 0 0m78-1v-5l1-2h-1l-1-5v-1l-3 2 1 10 1 2v-2q1 0 0 0v-1q1-2 1 1zm-55 1q2 0 0 0m78-3c2-1 4-8 5-13v-3l-2-2 1-1-1-1h-2l-5 3v15l1 1v2l-1 1zm-36 0v-5q-1 0 0 0h-1v4h1zv2zm18 1v-1zv-7h-1v-2l-1 2v4zm-4-1v-2zv2zm12-2-1-4v1zl1 3zm-101 1-1-2 1 1q-1 0 0 0zm107-1-1-1-1-3 1 2v4-1zm18 1q0-1 0 0m3-1q0 1 0 0m-38 0-1-1zm15 0q1 0 0 0m16-2q0-2 0 0v2zm-18-1-1-2 1 5zm15 2 1-1h-1zm12-2-1-1q0-2 0 0v1q-1 0 0 0zm-130-1v-1l-1-1zm95 0q-1-2 0 0m27 0v-2 1zm-58-1q0-1 0 0 1 0 0 0m10 0q0 1 0 0m56-1 2-13v-2l-2 7v-1l-1 3-1 3v2q-1 0 0 0h1zv1zm-2-2q0-1 0 0v1zm-106 1v-13 5zm2-1v-10l-1-1v9q-1 0 0 0zl1 1v1zm15 2h-1zm33 0q1 0 0 0m29 0 1-3-1-3zv1zm3-1v-8 3zm2 1v-1zq-1 0 0 0m-60-1v-1zm53-1v-4l-1-3 1 5zm-12-2-2 1-1 1h2zm7 1q0-1 0 0m28 0q0-1 0 0m-79 0q-2 0 0 0m37-2q2 0 0 0h-1v-3 1l1 1 1 1-1-1v-4l-1-4v-3 1l1 1v1q0 1 0 0v1l1 1v-1q-1-2 0 0l1 1q-2-1 0 0v2h1v4l1 2 1 1 1-1v-1h1v-3q-3-4-2-5l2 5 1 2-1-3-2-8h1l-1-1v-2q2 0 0 0v-3q0 2 0 0v-2l1-3v-3l-1-1v-2q1 0 0 0v-3 2l-1 2q1 0 0 0v3h-1l-1 1v1l-1 1v1l1-1v1h-1v1q2 0 0 0 0 2 0 0v1h-1v1q-1 0 0 0h-1v1l1-1v2q-1 0 0 0h-1q-1 0 0 0v1l-1 1h1v-1 4h-1v-1h1l-1-1v-1 1-1l-1-2v2h-1v1h-1q1 1-1 1v2q0 2 0 0l-1-1 1 2v2-1l-1-1q-1-1 0 0v2h1l1 1v2l1-1v7l1-1 1-2v2l-1 1v1l1-1zm4-3v-2l-1-1 1 1zm-3-8q-1 0 0 0m2-13q-2 0 0 0 1 0 0 0 0 2 0 0m2-1q-1 0 0 0 0 2 0 0m11 24-1-7v10zm-68 2q-1-1 0 0m64-2-1-3-1-6q-1 2 1 7v3l-1 1q0 1 0 0zm32 2q0 1 0 0l4-8h-1zm-51 0v-1l-1-1zm-78-2q1 0 0 0-1 2 0 0m139-1v-2zq1 0 0 0m-109 1q1 0 0 0m10-1-1 1zm30 0v1zm58 1q0-1 0 0m-40 0q2 0 0 0m-89-1v-1zq-1 1 0 0m10-1-1-2v1q0 1 0 0v2h1zm-12 0q0 2 0 0h-1zm74 0-2-2-1-1 1 2 1 1q-1 0 0 0zm57 0 1-4v-4zm21-1q0-2 0 0m-152-2v1zm138 0q0-2 0 0m-127 0-1-1zm9 0v-1zm-12-2-2-4-2-4v2h1v3l1 1q-1 0 0 0v1l1 1h-1 1zm12-1q0-2 0 0m12-1v-1h-1zv1l1 1zm103 0q2-2 0 0l-1 2zm-131 0-1-1v-2l-1-2-1-2 1 4 1 2q1 3 1 1m-6 0q-1 0 0 0 0 1 0 0m112-1v1q0 2 0 0zm-81-2 1 1zm104 2q0-1 0 0m-58-1q0 1 0 0m33 0v-4h1-1v-1l-1-1v5h1l-1-1h1l-1 1zm-76-2v-1h-1zv1zm49 2q0-2 0 0m2-1h-1zm-71-2q0-1 0 0m20-2h-1zv1zm111-2 1-2-2 5zm-47 0v1q0 1 0 0zm3 1h-1zm1 0q0 2 0 0m9-1-1 1zm30 0 2-1-3 1-3 1zm-28-1q0 1 0 0m19 0h-2v-1l-1 1zm-50-1q1 0 0 0l1-1h2l5-2 1-1-1 1-2 1h-3l2-1 2-1q2 0 2-4v-12l-3-6v-2l-1-1h1l-2-2-1-1v1l2 3 1 2 2 5 1 4-1 7q0 5-3 6-6 3-9 2h-1l3 1-1 1h2m18 0q1 0 0 0m44 0q-1 2 0 0m-144 0v-1h-1zm12-1q4-3 6-2v-1h1v-3l-1-1h-3q0 1 0 0l-1 1h-2l1 1 1-1h4l-1 1h-3v1h2l1-1h1v1h-3l-2 1-2 1-1 1-1 1 1-1 2-1h1q0-1 0 0l1-1h1l3-1h1l-3 1-4 2h-1l-1 1q1 0 0 0l-1 1h1zm17 1q0-1 0 0m120-2 2-2 6-10v-1l2-4v-2h-1q0-1 0 0v4q-1-1 0 0l-1 1v-2 3h-1v1l-1 3-4 7zl-1 1zm-140 0 4-3h1l-1-1-1 1h-2v1zm112-1q2 0 0 0m22 0q0-1 0 0m-18 0h1q0-1 0 0v-2q2 0 0 0v1l2-2v-2 1h-1l2-2v2q2 1 0 0v4-2l1-1 1-3h-1v-1l-1-1-1-1 2 1h1l1 1 1 1v-1q-1 0 0 0h1l-1-1h-1 1l1-1q-1 0 0 0v-1l1-1q-2 0 0 0v-2h1v-1l-1-1h-1q2 0 0 0h-1v1q-2 0 0 0h-1q0-1 0 0v1h1-1v1q0 1 0 0-1 0 0 0h-3v-1 1q2 1 0 0h-1l1 1h-4l-1-1v1l4 2-5-3-1-1h-1l1 1h-1q0 2 0 0v1h-1 1v1l-2-1h-1q0-1 0 0h-1v1-1h-1 1l-1 2v-2 1h-1v1h1q-1 0 0 0l2-1h1v1q-1 0 0 0h2v1-1h2v-1q1 0 0 0l1 1h1v1l1-1v2q1 0 0 0v-1h1v1l-1 1h-2 1l-1 1v1l1-1v1l-1 1 1-1 1-1v-1h1v1h-1l-1 3h-1l1-1 1-1h1v1l-1-1v1l-1 1q0 1 0 0zv1zm5-5q-1 0 0 0m5-10q0 2 0 0m-104 8q2 0 0 0m93-1q-1 2 0 0m10 0q-1 0 0 0 0 2 0 0m-112-1-2-4v2zm1 1q2-1 0 0m108 0q0-1 0 0m6 0h-2q1 0 0 0l1 1q0-2 0 0zm4 0q0-1 0 0m-29-1q2 0 0 0m3 0q2 0 0 0m-21-1v-2zl-1 2zm45 0-1 2 1-1zm-135 1q-2 0 0 0m7 0 1-1zm111 0q0-1 0 0m2-1q0-1 0 0m12 0q-1 0 0 0-1 0 0 0 0 2 0 0m-113 0q0-1 0 0m8 0q1 0 0 0m6 0v-2h-1v-1h-4 2v1-1h1v2zq0 2 0 0m95 0h2v-1q2 0 0 0l1 1v-1h1v-1q-1 0 0 0h1q0-1 0 0h1l-1 1h1v-1l1-1v1l1-1v1h1v-1h-1v-1h2q2 2 0 0l-1 1h2v-2h-1v-2h1l-1-1-2-1h-2q-2 0-2 3l-1 1h1v1h-2v1h-1l-1 1zm5-4h-1v-1h1q0-1 0 0 0 2 2 1 0-1 0 0 0 2 0 0l-1 1zm1-2q-1 0 0 0m-143 5-1-1q-1 0 0 0zm92 0h1v-2 1h-1l-1 1v1zm56 0q0 1 0 0m-18-1-1 1zh-1zm-102 0q1 0 0 0l-1 1zm5 1h-1zm9-1q0-1 0 0m105 0q0 1 0 0m-116 0q0-1 0 0m6 0v-1 2m88 0q0-1 0 0m-127-1-2-4h-1l-1-1-1-1-1-1v1l1 1 2 2zm93 0v-1zm34 0-1 1zm-126 0-1-1zm44-1q1 1 1-1m125 1v-2zm-19 0q0-1 0 0m-125-1v-1zm14 0q-1 0 0 0m-1-1q0 1 0 0v1zm92 1h-1q-1 0 0 0zm-106 0q-1 0 0 0m10 0-1-1v1zm60-1v-1 2q0 1 0 0m64 0q-1-1 0 0 0 1 0 0m-37-1q-1 0 0 0l-2 1 1-1zv1zm29 0h1zm-115 0q-1 0 0 0m83 0q2 0 0 0m-26-1h-1l-1 1h1zm-65 0v-1zm129 0q0 2 0 0m-74-5v-5 9zm72 4h-2 1zm2 0-1-1v1q0 1 0 0v1zm2-1q0-1 0 0 1 0 0 0 0 1 0 0m-3 0q-2 0 0 0v-1h-1l-1 1zl-1-1zm-18 0q0-1 0 0 2 0 0 0m8 0-1-1h-1v-1 2h1q0 2 0 0h-1zq2 0 0 0m6-1q0-1 0 0m-124-1-1 1zm130 1v-1zm-132-1h1l-1-1 2-1 1-1-1 1q-3 0-1-1l-1 1-1 1v-1l-1 1-2 1 1 1h3zm5 0-1 1zm107 0h-1zq2 1 0 0m21 0q1 0 0 0m-27 0h-2v1zm4 0q-2-2 0 0m20 0-1 1zm-108 0q0-1 0 0-1 0 0 0m86-2h-1v1zm-83 0v-2zm106 1 1-1h-1q0 2 0 0v-1l-1 1zl1-1zm3 0q0-1 0 0m-28-1q0 2 0 0m7 0h-1q-1 0 0 0zm-90 0q2 0 0 0m82 0-1-1h-1l1 1zm-82-1q0-1 0 0m100-1q3-2 3-4l1-3-1 2-2 4-3 3zm-157 0 1 1zm150 0q0 1 0 0-1 0 0 0h2v-1 1h1l-1-1-3-1h1l-1-1-1-1h1l1 1v1l3 1 1 1h1v-1h1v-1h1v-1h1v-1h1l1-1v-4l-1 1q1 0 0 0v-1h1v-1l-1 1h-1v-1l1-1-1 1-1 1q-1 0 0 0v1h-1q0 2 0 0v1l-1 1h-1l4-6 2-8v-1q-2 0 0 0v-2q-1 0 0 0v-1h-1v-4l-1-2v-2 6q1 0 0 0l-1-6q0-6 0 0l-1 4v12l-1 1 1-2-1-3v2l-1 5h-1l-5 4h-1l-1 1h-4l-5-1-8-1-7-1-7-3-5-3-7-9 1 1 1 2 3 4 1 2 4 3v1h1v1h-1q0 1 0 0v1h1v-1h1v1l-1-1 1 1v1q-1 0 0 0v-1h1q0-1 0 0v2h1v-1 1h1v1q-1 0 0 0h1q0-2 0 0h1v1h-1l-5-3-2-1v1h2l1 1h-1v1l-1-1q-1-1 0 0v1q-1 0 0 0l1 1 1 1h-2 1v1h1l1 1h1v1l-1 1 1-1h3l-1 1v-1 1q-2 0 0 0h1l1-1h1l2-1h1v-1h1q-1 0 0 0l1-1h2v-1q-1 0 0 0l2 1h-1l-4 2h2l4-1h2q0-1 0 0h1v-1h-1 1v-1h1l1 1h1v1l-1-1v1h2l1 1 2 1 1 1 2 1v-1h-2l-1-1h3l1 1v1h2l1 1v1zm-1-1-1-1zl-2-1zm5 0-1-1zm1-2q-1 0 0 0m-7-2h-1q-1 0 0 0h-1v-1h2q-2 0 0 0l1-1zq-1-1 0 0h1v-1h2v-1h1v1h-1v1l-1-1v1q2 0 0 0h-1 1q1 0 0 0v1h-1q0-2 0 0h-2m1-1q-1 0 0 0 0 1 0 0m-9 0-3-2h1l1 1zl2 1h1zm-18-1h-1zh1v1zm10 0h1zm27 1 1-2zm-5-2q0 1 0 0m1-1q0 2 0 0m-7 9q0-1 0 0m16 0q0 2 0 0m-49-2v-1l-1 1zq0 2 0 0m27 0-1-1zm-20 0-1 1q-1 0 0 0zm-10-1q0 1 0 0m12 0h-2zm17 0h-1q-1 0 0 0zm-27 0q1 0 0 0m2 0q1 0 0 0m-5-1q-1 0 0 0v-1h-1zm2 0q0-1 0 0m0 0-2-1-1-1h1l1 1zm23-1q1 0 0 0m-26 0h-1zm26-1q0-1 0 0m32 0h-1q0-1 0 0zm-59-1q2 0 0 0m52-1v-3l-1-1zq0 2 0 0m-19-2h2l1-1 1-1v-2 1q-2 3-2 1h1v-1q-1 0 0 0l1-1 1-1h2q-1 0 0 0 0-1 0 0v-1h1v2h1v-1 2l-1 1h1v-1l1-2 1-4v4l1 1 1-4v-11h-1q0 2 0 0v-3q0-1 0 0v2l-1 1v-3q1-1 0 0l-1 2-1 1v1l-1 2v-2l-1 2h-1v3q-2 0-2 5v2-1l-1-1v-1l-1 1-1 1h1v-1h1v3l-1 1v1h-1q1 1-1 1v1h-1l-2 1v1zm2-1v-1zq2 0 0 0m4-4q0-2 0 0m5-2 1-2q0-1 0 0zm1-3q0-1 0 0m0-2v-5zm-2-7v-2zm0 0q0-1 0 0m-47 19q-1-3-1 0zm7 0q0-1 0 0m-70-1v-2l-1 1q0-1 0 0zm70-1q0-1 0 0m17 0h3v-1h1v1h-1v1l1-1q2-1-3-1h-5v1h-1 1q0 2 0 0h1q2 0 0 0h1q0 2 0 0zl1 1zm-81 1q-1 0 0 0m82 0q-1 0 0 0m-95-1v-3l-1 1zm142-2-1 1-1 1h1zm-133 2v1q-1 0 0 0zm3 0q0 1 0 0m3 0h1-4zm56 0-2-3 1 1v2zm-99-1q-1 0 0 0m53 0 1-1v-1zm115 0 1-1zm-142 0q0 1 0 0m19 0q-1 0 0 0m2 0q1 0 0 0m-14 0h-1zm103 0q-1 0 0 0m5 0h-2q0-1 0 0v1zm-142 0v-1zm2-1v1zl-1-1-1 1h1l1 1zm42 1q2 0 0 0m51-1-1-2v-1l-1-2v-2l-3-4q-1 1 1 2l1 2 2 4v2zm34 0h1l1-2h1l1-1v-1h1q0 2 0 0v-2h-1q-2 3-1 0v-1l1-2 1-2q1 0 0 0v2l2-3v-4q-1 0 0 0h-1v2l-1 1v-3h1v-1h-1v1l-1 1 1 1q-1 0 0 0v1h-1l-1 5v1l-1 1h-2l-1-1h2-1l1-2q1 0 0 0h1v2h-1l1 1v-2l1-1-1-3v-4 1l-1 1 1-2v-1l-1 2-1 2v1l-1 4v2l3 1h-1l-2-1h-1v1-1 1h2-1v1q1 0 0 0l-1-1h-1l1 1h2l-1 1v1l1-1h1l1-1q0-1 0 0v1h-1zm0-4q0-1 0 0 2 0 0 0m2-1 1-1q0-1 0 0zm-2-2v-3l1-1v3zm1-5v-2zm5-1v-1h1zm0 13q0-1 0 0-1 0 0 0m-95 0v-1h-1v-1l-1-3-2-2 3 6zm-41-1q0-1 0 0m135 0q1 0 0 0m-6 0 1-1v-1zm28 0q-1 0 0 0m-159 0q0-1 0 0m130-1q1 0 0 0 0-1 0 0m9 1q0-1 0 0m-137-1-1-1v-2l-1 1v1-1h-1v2-1h1v1q1 0 0 0v-1h1zm137 0q0 1 0 0m-25 0q0-1 0 0m15 0v1zm-126-1v-2h-1v-1l-1-3h1-1v-2h-1v2l1 1h-1v1l1 2v-2 2h1v2zm1 0v-1h-1zq0 2 0 0m1 0q0 1 0 0m55 0q1 1 0 0v-2h-1v2zm70 0q-1 0 0 0m-13-1q-1 0 0 0m-17 0v-1l-1-1v-1l-1-1v-3l-1-1v-1q0 1 0 0l-1-9v-2 5q-1 4 1 8zm-59 0v-1q-2-2 0 0zm87 0 1-2v-2h1-1v-1zm13-2v-1l1-1q0-1 0 0h-1v1zh1v-2l-1 1zq-1 0 0 0m-80-1q-1 0 0 0m40 0q0-1 0 0m-102 0-1-1zm140-1 2-3v-1h1v-1 1l-1 3 1-2 2-2 1-2h-3l-1-1-2-1v1h1v3l-1 1v2zv1zm0-1 1-1v-1zm2-5q1 0 0 0m33 7q0-2 0 0m-174-1q0 1 0 0m63 0h-1q0-1 0 0zm-65-1v1zm132 0q0 2 0 0m-131 0q0-1 0 0m173 0q0 1 0 0m-174-1v-1h-1v-2 4zm102 0q1 1 0 0m35 0 1-7-1 3zv-4q-1 0 0 0v5m36 0q0-1 0 0m-135 0v-1h-1zm-32-1q2 0 0 0v-2l1 1 1 1v-1h2l-1-2v-1h1v2l1 1v-1l-1-3v-1q0-1 0 0v2h1q-1 0 0 0v-1l1-1h-1q1 0 0 0l-1-2h1l-1-1-5-8h-2l1 2 1 4-1-1v1l1 5v1l-1-2v-2h-1v-1q0 1 0 0v-4l-1-1-1-1h-1v-1q0-2 0 0v1l-1 1 1 1-1 1v1h1v2q0 2 0 0v1q2 0 0 0l1 3h-1l1 1v2q1-2 0 0l1 2h1l-1-1v-1l1 1 1 2h1l-1-1zq0-1 0 0m170-4v-2zv1h1v-4l1 2v2-6l-1-5v-7l-1-1v3-1 10-2q0-1 0 0l-1 2-2 9 1 1zm-47 4q0 1 0 0m47-1h1zm-3 1q0-1 0 0m-99-1v-1q0-5-1-2zm28-1q0 1 0 0m-102 0v-1zq-1 0 0 0m129 0q-1-2 0 0m4-1v1zm-36 0q0-1 0 0m-74-1q0 2 0 0m112-1v2zm39 1q-1 0 0 0m-174-1q-1 0 0 0 0 2 0 0m102 0q-1 0 0 0 0 2 0 0m24 0q2 0 0 0m11 0q0 1 0 0m34 0q1 0 0 0m-22 0h-1l1 1zm-75-2v-2 3zm75 1-1-1v-1 1zm-53 0v-1 2m34-1q1 0 0 0m5 0h-1q-1 0 0 0zm40 0v1zm-39-1-1-1v2zm-6 0q1 0 0 0 0 2 0 0m-112 0q0 2 0 0m119 0q-1 0 0 0m10 0h-2zm27 0q-1 0 0 0m-28-1-1-1zm29 0q-1 0 0 0m-74 0q-1 0 0 0m33 0q0-1 0 0 1 0 0 0m41-1q1 0 0 0v1zm-28 0-1-1v1zm-73-1q-2 0 0 0m1 1q0-1 0 0m98-1q0-1 0 0m2 0q-1 0 0 0 1 1 0 0m0-1q0-1 0 0m-74 0q-1 0 0 0m0 0q-1 0 0 0m71 0q-1 0 0 0m-174-2v1zm103 1v-2h-1zm60-1v-2l-2-5-4-7q-2-4 0 0 0 4 3 6l1 2h-1l-1-1-1-1v-1q-1 0 0 0v3q2 0 0 0v1h1l2 2-1 2v1h-1 2l1-1v-1 2l-1 1zm-2-1 1-1q0-2 0 0zm0-4q-1 0 0 0m16 6q0-1 0 0m-100-1 1-1v-1h-1v-1zq0 2 0 0m98 0q0-1 0 0 0 2 0 0 1 0 0 0m-154 0q0-2 0 0m138 0 1-1v-1h-1zm19-2q-1 0 0 0v1l1 1zm-20 1h-1v-2l-1-1v-2l-1-1v-1l-1-1 1 1 1 1v-2q-1 0 0 0h1-2v-1l-2-1h1l2 1v-1l-1-1v-1h-2q-1 0 0 0l-1-1h-1 1v-2h1v2l1 1 1-1v-2q0-2 0 0v1l-1 1v-2 1l-1 1 1-1v-2l1-1h-1v1l-1 1 1-7v-1l-1 1v1q0 2 0 0v-2l2-1v-2l-2 2-1 1v1-1l1-1 1-1q0-1 0 0l-1-1 1-1-1 1h-1l1-1h-1v2-3 1h-1l-1 1 1-1v-2h-1v2q1-1 0 0 0 2-1-1v-1h-2v1q2 0 0 0v1l-1-1v-1 1l-1 2h1v1l1 1h-1q0-2 0 0h-1v1l-1 1v1h1q-1 0 0 0v-2h1l-1 3q-1 0 0 0v1q0 1 0 0h-1v2q0 2 0 0v-1l-1 1v-1h-1l1-1h1-2v-1 2-3l1-1v1l1-1v-2q0 2 0 0v-1 3l-1-1 1-1v-2l-1 1-1 1v-2l1-1h1q1 2 0 0h-1v-3q0-1 0 0h-1l-1 1v1h1q0-1 0 0l-1 1 1 1h-1v-1 2q0 2 0 0l-1-1v-1 1l1 2 1 2-1 2q0 2 0 0l-2-1-4-1h-1v1l1-1q-1 0 0 0v1h-2v1q0 1 0 0v-1h-1 2v-2h-1l-1 1v1l-1 1v2q2 1 0 0l-1 1h2q0 1 0 0h2-1v1h-3l2 1 1 1h-2q-1-1 0 0l-1-1h-1v1l5 1 9 2 5 2 3 1 1 1 3 2 1 2v2zm-4-9h-1zm-3-1q1 0 0 0 0 2 0 0m-2-1q-1 0 0 0 0 2 0 0m3-1-3-3 2 1zm-9-3q-1 0 0 0m-7-1q0-1 0 0 1 0 0 0m-2-1h2zm15 0q-2 0 0 0m-3-1 1-1zm1-1q1 0 0 0 0-2 0 0v1zm-1 0v-3l1-1 1-2v1l-1 1v2h-1zm3-1v-2l1-1 1-2-1 2v2-1h1l-1 1v1-1zq0 1 0 0m-1-1h1q-1 0 0 0v-1l1-1 1-1-1 2zq0 2 0 0m-6-3q1 0 0 0m9 0q2-1 0 0 0 2 0 0m-4-2v1zm2 1 1-1zm4 0q-1 0 0 0m-7-1v-1l1-1 1-2q-2 0 0 0h1-1v1h1v1l-1 1 1-1h-1l-1 1v-1zm3-1q0 2 0 0M20 117v1zm176 0q-1 0 0 0m-4 0v1zm-98-1q2-1 0 0m-78-1v-1l-1-3v-3l-1 1 1 3v3zm107 0v-1zm-95-1-1 1zm69 1-1 1zm-75-1-1-1v-1q1 0 0 0v1zm4 0q-1 0 0 0m66 0v-1l-1-1 1 1zv-1h-1v-1 1zv1zm-67 0v1zm70 0h-1zm7-4q2-1 0 0l-1 1h-1 1zh-1l1-1zh-2v-1l1-1v-1h-1v1-1h-1l1 1v1h-1v-1h-1v1-1l1-1-1 1-1-1-1 1q-1 0 0 0h1q0-1 0 0v1h1-1v-1l-1 1-1 1v-1h-1q1 1-1 1v1l1-1h1l-1 1q1 0 0 0l1 1v-2h2q0-1 0 0v1h1q0-2 0 0l1 1v1zm-4-1h1zm95 3q0 2 0 0 1 0 0 0m-172-1v-2h-1q1 0 0 0v-1q2 0 0 0v-2q-1 0 0 0v-1q-1 0 0 0v-1l-1-1v5l1 2v1q2 0 0 0h2m88 0q-2-2 0 0m80 0q0-1 0 0m-160 0h1zq0-1 0 0 2 0 0 0m63-1q-1 0 0 0m102 0v-2h1v1-1h-1v-1h1-1zq0 2 0 0 1 0 0 0m-88-1v1zm84 1q0 1 0 0m-99 0-1 1zm21 0v-1l-1-1-1-1q0 1 0 0h-1l1 1zm-94 0q0-1 0 0m11-1h-2 1zm143 0q0 1 0 0m-149 0-1-1v-1q-1-1 0 0v-1h-1v-1 1l1 1zq1 1 0 0m164-1h-1zm-98 1q0-2 0 0m15-1q2 0 0 0m88 0q1-2 0 0 0 1 0 0m-163 0h-1q-2 2 0 0zm64 0q-2-2 0 0m-63 0q1 0 0 0m71 0q1-2 0 0m-9-1v1zm92-1q1 0 0 0m-168-1v1zm76 1q-1 0 0 0v1h-1zm97 0q-2 0 0 0m5 0v-2zv-1l-1-1h2-1v-3q-1 0 0 0l-1-1v-2l-1-3v11zm-92 0q0-1 0 0m4 0h-1zm-22-1-3-2-1-1zl1 1zl-4-2h-1l-2-2v1l1 1zq1 1 0 0m22 0q0 1 0 0m-20 0q-2 0 0 0m4 0q-1 0 0 0m101 0q0-1 0 0m-1-1h-1zm-98 0h-1zm16 1h1-3q-1 0 0 0zm-86-1v-3 1h-1zh1zm1-1v-1zh-1zm69 1v1zq2 0 0 0m101-3-1-4v-7l-1 6v2-4 4l-1 1 1 3v-1l1 1v2zm-85 3v1zm82-1q0-2 0 0m1 0q0 2 0 0m-85 0h-1q-1 0 0 0zm89 0q0 1 0 0m-93 0q0-2 0 0m12 0q0-1 0 0m75 0v-1l1-2-1-1zm-171-1v-1zm90 0q0-1 0 0-1 0 0 0m4 0v-1zm-82-2-2-4-1-4h1l2 6h1l-1-1v-4h-1v-1l-1-1-1 1v-1l1-1h-1q0 2 0 0v-1q0 1 0 0v-2l-1-1v1l-1 2 1 3 1 2 1 4 1 1zm84 0v1zm-96 0q0 1 0 0m93 0q1 0 0 0m-31-1h-1zm106 0q-1 2 0 0M21 98v2q-1 0 0 0zm92 1q0-1 0 0m77 0q0-1 0 0v-1q-1 0 0 0zm-46-1v-1zv1zm1-1q-1 0 0 0 0 1 0 0m26 0 1-6v-1h-1v1l-1 2-1 2v3-1l1-1v-2q1-4 1-1v5zM34 98q0-2 0 0m80 0q2 0 0 0m-81 0v1zm126-1q-1 0 0 0M21 97v-2zm93 0q1 2 0 0m1 0q0-1 0 0 0 2 0 0m-97 0q0-1 0 0m53-2h-2l1 1zm55 0h-1zm-90-1-1-2-1-2-1-1v1l1 2q0 1 0 0zm32 1q-1 0 0 0m77 0q-1 0 0 0m-21 0-1-1h-1l1 1zm-6-1q0-1 0 0v-1zh-1zm-84 0q0-1 0 0m92 0q-2 0 0 0m-9-1q0 2 0 0m5 0h-2zm2 1v1zm23 0v-1q0-2 0 0h-1zm-23-1q0 1 0 0m13 0q0 1 0 0m8 0q0 1 0 0m-15-1q2 0 0 0m18-1v1zm-25 0v1zm1 0q0-1 0 0v1zm3 1q-1 0 0 0m48 0q0-1 0 0m-93-1q0 2 0 0m45 0q1-1 0 0m1 0v-2zm26-1q-1 0 0 0M31 90q0-1 0 0m2-1-1-1-1-3v3h1l-1 1q0-2 0 0h1zh1zm122 0q1-2 0 0m15 0-1-1h-1zm-40 0v-1zq0 2 0 0m3 0q0-1 0 0m6 0q0 2 0 0m53 0q0-1 0 0m-38-1v-2zm-23-1q0-1 0 0h-1v1zm10 1q-1 0 0 0m30 0-1-1zM33 87v-2l-1-7-1 2zq0 2 0 0m105 0v-1h-1zv-1h-1q0 1 0 0v1q-1 0 0 0zm23-1q0-1 0 0M20 85q0 1 0 0m122 1q2 0 0 0 2 0 0 0m1 0v-1q0-1 0 0zM28 85q0-1 0 0m129-1q0-1 0 0m15 1v-1l1-1-1 1q-1 2 0 0zm-13-1q-1 0 0 0m-18 0q-1 0 0 0m30 0q-1-1 1-1h-2zm-7-1q0 2 0 0m8 0v1zM28 83v-3l-1 1zm141-1q0-2 0 0 2 0 0 0m4 0h-2zm17-1q0-1 0 0m-18 0q2 0 0 0m-1-1q0 2 0 0m19 0q2 0 0 0m0-1h-1zm-19-1q0-1 0 0m3 1q0-1 0 0m15-2v1zm-9-1v-2q-1 0 0 0l-1-1zl1 2v1zm-1 1q0-1 0 0m-23-1q1 2 0 0m-3 0h-1zm17-1q0 2 0 0m0-1v1h1zm-15 0q-1-2 0 0m4 0q-1 0 0 0m-5-1q-1 0 0 0m5 0q-1 0 0 0m-9-1q0 1 0 0m6 0q0 2 0 0m4 0q0-1 0 0 2 0 0 0m21-1v-1zm-1-1v1zm-31 1-1-1v1zm2-1q2 0 0 0m7 0q0-2 0 0-1 0 0 0m-4 0q0-1 0 0m25 0q0-1 0 0m-31 0q0-1 0 0m12 0q0-1 0 0m0-1q1 0 0 0m-11 0q-2 0 0 0m32 0v-1q-1 0 0 0l-1-1q0 2 0 0v-1l-1-1q1 0 0 0l-1-1h1-1l1 2v1h1v3l-1-2 1 2zm-22 0q1 0 0 0m-8-1h-1zm31-1-2-4v1zq1 3 1 1m-26 0q2 1 0 0m-5 0h-1zm-6 0q2 0 0 0m-2-1h-1q-1 0 0 0zm4 0q0-1 0 0-1 0 0 0m-1-1q0-2 0 0m-1 0v-1q0 2 0 0zm15 0q1 0 0 0m-11-1q0 2 0 0m0 0 1 1zh-1q0-1 0 0zm28 0q-1 0 0 0m-22-1v-1zm-12-1-1-1v1zm7 0h1q2 0 0 0zq-1 0 0 0m10 0h-1zm18 0q2 0 0 0-1 2 0 0m-33 0q0-1 0 0m1-1q0 1 0 0m9 0q1 0 0 0m-3 0 1-1zm-7 0q0-1 0 0m4-1q-1 0 0 0m2 1q-1 0 0 0m3 0q0-1 0 0m-6-1-1 1zm29 0q-1 0 0 0m-21 0h-1zm-12 0h-1v1h1zm6 0-1 1zq1 0 0 0m-5 0h1zv-1 2m9-1q0 2 0 0m-3 0q-1 0 0 0m6 0q-1 0 0 0m-1 0h-1q-2 0 0 0zm-4-1v-1h-2l-1-1v1h1l1 1zm2-1h1-2zm-9 1-1-1h-1v1zm12 0v1zm3-1q0-1 0 0 1 0 0 0m-13 0q0-1 0 0m5 0v-1 2zm2-1v1zm4 0q0 1 0 0m18 0q0 1 0 0m-26 0h-2l1 1q0-1 0 0zm2 0v-1q0-1 0 0v2m6-1h-1l1 1q2 0 0 0h-1l1 1q0-1 0 0zm-2 0h-1v1h2m-5-1q0-1 0 0m-3 0v-2q-1 0 0 0v-1l-1-1v-2 7m2-1v-3q-1 0 0 0v-1q-2 0 0 0l-1 1v3zm8 0h-1q0 2 0 0zm-3 0q0 1 0 0m1 0q1 0 0 0m-4-1v-1l-1 1zv-2h1l-2-1 1 1-1 1zm-1 0v-3h-1v3zm20 0q-2 0 0 0 0 1 0 0m-14 0-1-1zm3 0q0-1 0 0m-3-1q0-1 0 0m-3 0q1 0 0 0m5-1h-1zm5 1-1-1-1-1 1 1zm5-1q-1 0 0 0 0 2 0 0m-10 0q-2-2 0 0 1 0 0 0m6 0-1-1h-1l1 1zm-10-1v1zm-1 0h-1zm11-1q0 1 0 0m-8 0q0-1 0 0m5 0h-1zm4-1-5-2 2 2zm-16 0q0-2 0 0m-1 0v-1h-1zm3 0q0-2 0 0m0 0v1zm-3-1q0-1 0 0m4 0h-2zm-8-1h-1v1h2q0 1 0 0m13 0q0-2 0 0-1 0 0 0m-11-1q0 1 0 0m9 0h-1zm0-1q-1-1 0 0 0 1 0 0m-13-1h-1 2m2 0q-1 0 0 0m-5-1q-1-1 0 0m11 0q2 0 0 0-1 0 0 0m-10 0v-1l-2-1q0-1 0 0l-1-1v1-1h-1q0-1 0 0v1h1l1 1h1-1 1zm6-1v1zm-2-1v1zm-4-1h2-1l-1-1zq1-1 0 0l-2-1h-1v1h2v1zm-1-2q-1 0 0 0l-1 1zv-2 1h1zm-2 0v-1l1-1h-1v1h-1l1-2-1 1zm1-4q2 0 0 0m-1 0h-2zm-6 0v-2 1-1h-1v1zm4-1h-2v-1 1h3m-3-2q-1 1 0 0m2 0q2 1 0 0m5 0-2-1v1zm-14-2q0-2 0 0m1-1q2 0 0 0m-5-1h-2zm-17 168h1zm-34 0q-1 0 0 0m11 0q1 0 0 0m24-2v1q-1 2-1-1m1 0q0 2-1 0m-16 1v-1zv-1h1l1 1q-1 1 0 0v1zm-3 0h1zm-22-3v-6l-1-2v-1q0-1 0 0l1 1v-2q0-1 0 0l1 3zm-2 0q0 2 0 0m35 0q0 1 0 0m-76 0v-1q2-3 2 0l-1 1zm-2-1q0 2 0 0m48 0q-1 2 0 0m22-1q-1 0 0 0 0 2 0 0m6 0q-1 1 0 0m-76 0 1-1zm58-1 1-1zm-58-2q1 0 0 0 0 2 0 0m5 0q1-2 0 0 0 1 0 0m-8-5-1-2zq2 2 0 0m47 0v-1zm-2-3q-1 0 0 0m29-1-1-2 1 1h1l-1-1v-1h1v1h1v-1l1 1h1-1l1-1h1v1l1-1h1v-1 1h1l1-2 1-2v4q-2 0 0 0v1h-1q2-1 0 0v1l-1 1h-1v-1 1l-1-1h-1q0 1 0 0l-1 1q-1 0 0 0h2-1l-1 1h-1l-1-2v1h-1v1q0 1 0 0v1zm9-2q1 0 0 0 0 1 0 0m-1 0 1-1q1 0 0 0zq0-1 0 0m-4 0-1-1v1zm3-1q-1 0 0 0m-8 3v-1q-1 0 0 0zv-3l-1-1q-1 0 0 0l-1-1v-1q-2 0 0 0l1 1h1v1h-1 2v2q1 0 0 0h1v1q-1 0 0 0zm9 1 1-1h1l-1 1zm-34-1 1-1v1q-1 1 0 0zm15-1v-1zm21 0h1zq1 0 0 0m-37 0q-1 0 0 0m23 0v1zm1-1v-1h1zm-23-1v-2l-1-1v1l-1-1h1l1 2q1 2 0 0zm15 0q-1 0 0 0m106 0q-2 0 0 0m-129 0v-1zm22-1h1q-1 0 0 0zm14 1v-2zm2-1q0 2 0 0m-36 0 1-1q1 0 0 0h1zm7-2q0 1 0 0m6 0q-1 0 0 0m7-1-1-1 1 2zm-12 1 1-1zm-1-2q0-2 0 0h-1v-1l1-1 1-1v-1 2l1-1q0-1 0 0l-1 1v1q0 2 0 0h-1l1 1h1l-1 1zm11-2q1 0 0 0m-44-1-1 1zm32 0v-1zm-36-1q0 1 0 0m-3-1 1-1zm12 0h1q0 1 0 0zh2zm32 0q-1-1 0 0 0-1 0 0m-3-1h-1v-1 1zv-2h1zv-1zv1zm-42-1q1 0 0 0 0 2 0 0m34-2q-1 0 0 0m-5 0q2 0 0 0m3-1q0 2 0 0m2 0q-1 0 0 0m22-2v-3q-1 0 0 0l-1-1v-1l1-1h1v8zm-22 2 1-1zm10-1q-1 0 0 0m3 0q-1 0 0 0m-32 0h-1zv-1l1 1v-1zq-1 0 0 0m32 0q-1 0 0 0 2 0 0 0m13-2q0-3 0 0v2zm-68 1 1-1zm57 0 1-2v1zm-37-1q1 0 0 0l-1-1h1l1 1zm-21-1q0-1 0 0m60 0v-1l-1-1v-1l1 1h1v1h-1q-1-1 0 0zm8-2-1-2v-5h1v-1l1 1v4zv1zm0-5q-2 0 0 0m-7 5v-1zm-65-1q0 2 0 0m26 0-2-2 1 1zm-21-1 1 1zm58 0q0 1 0 0m-49-1-1-2 1-4 1-3 1-1q0 1 0 0h-1q0-1 0 0v2h-1v2h-1q1 2 0 0l-1 1v3-2h-1l1-3 2-4v-3h1v2l1 4v2h1v2h-1v1-5h-1v5h-1v2-2zm0-8q-2 0 0 0m-1 7q0 1 0 0m62 0 1-1zm-19-1v1zm-27 0q-3-1 0 0h1zm-16 0q0-1 0 0m20-1v-1h-1 1q0-1 0 0zq-2 2 0 0 1 0 0 0m-16 0q0-1 0 0m58 0-1-1q0-1 0 0zm1 0 2-5zm-63-2q0 1 0 0m61-1v1zm2-3v-2l5-16-2 10-1 3-1 3zm-2-1 5-12v1zm-57 0h1zm56-2q0-1 0 0l1-2v-1l2-2 1-3 1-1v-1 3zm105-1v-2l1-1v-1 2zm-98-1 1-2v-1q0 1 0 0h1v-5q1 1 1-1h1v-2q0-2 0 0v2l1-2 1-1-1 2-3 5-1 4zq0 2 0 0m97-2 1-1v-1 2zm-163-3v-1zm65-4h-1l1-1v-2l1-1v2zm-1 0 1-1v-2 3zm5-1q0 1 0 0m0-2 1-2zm-86 0q0-1 0 0m16 0q1-1 0 0 0 2 0 0m71-1 1-2v-1 4zm9 1v-1zm-9-3v-2q0-1 0 0v3zm-87 0v-2zm18-2v-1l1 3zm77-5q-2-1 0 0m-9-2-1-1zm97-11v-4 8zm-160 3 1-1v-1zm-12-2q0-1 0 0m-11-1q-2 0 0 0m10-1v-1zm31-1h1zm2 0v-1zm32 0v-1zm-65-1 1-1zm2 0 1-1zm79 0q-1 1-4-3h-1l2 1h1l1 1h1l2 1q-2 0 0 0l-1 1q0-1 0 0zm-16-2v-1h1l1-1 1-1-1 2h-1zq-1 0 0 0m108-1-1-4v-2 2zv2zM22 99v-1q-1 0 0 0zm-2 0 1-1h1zq0 2 0 0m5 0q0-1 0 0 0 2 0 0m29 0v-2h1v1l1-1v1h1v1q-2-1-1 1h-2m2-1v1zh-1l1 1zm-35 0q0 2 0 0m2 0v-1zm63 0q1 0 0 0m2 0q2-1 1 1zm3 0q-1 0 0 0m-34-1h-1v-1h1zm21 0q0-2 0 0 0-1 0 0m29 0q-1 0 0 0 0-2 0 0m-2 0v1zm3-1q0 1 0 0m-18 0q0-1 0 0m17 0q2 0 0 0m-53-1 1-1v2zm34 0q0 1 0 0m15 0q0 1 0 0m10 0q0-1 0 0m-65 0v1zm35 0q0-2 0 0 2 0 0 0m-35-1q1 0 0 0 0 2 0 0m36 0v-1zq-1 0 0 0m-62 0q0-2 0 0 1 0 0 0m36-1v-1q1-2 0 0h2q1 0 0 0v-1h3v-1 2h-1q-1-1 0 0l-1 1h-1l-1-1zm7 0q0-1 0 0m85 0q-1 0 0 0M19 92q0-1 0 0m3 0v-1l1-1zm50 0-1-1zq0 1 0 0l1-1v1zm-5-1q-1 0 0 0 0 1 0 0m58 0q0-1 0 0m25-2q-1 0 0 0 0-1 0 0m-73 0v1zm47 0q0 1 0 0m-78-1q-1 0 0 0m2 0q-1 0 0 0 0 2 0 0m103 0q0 1 0 0m-24 0 1-1v-1zm-86-1h1v1zm86 0h1zm-21-2q0-1 0 0m3 0v-2zq-1 0 0 0m-84-1v-1l-1-1v-1q1-1 0 0l-1 1v-6l1-1v-4l1 3v11zm75 1v-1zm50-1-1-1h1zm-2-1h-1zl1 1q0 2 0 0zm3 0h-1zv1zm-94 0q0 2 0 0m-31 0q0-1 0 0m105 0q0-1 0 0m6 0h1zm3 0q0-1 0 0m5 0v-1l1-1zm1-1v1zm-8 1v-1zq2 1-1 1m5 0v-2zm-90-2q0 2 0 0m45 0h-2v-1h1v1zm55 0q0-1 0 0m-97 0q-1 0 0 0m40 0h1zq-2 0 0 0m42 0q1 0 0 0m-88-1q0-2 0 0m92 0q-1 0 0 0m11 0q0 2 0 0 0-1 0 0l-1-1h2-1v-1l1 2h1zm-37 0q1 0 0 0m-20-1q0-1 0 0m25 0 1-1zm29-1-1-1q-1 0 0 0zm-82 1-1-1h1zm27-1v-1zm53 0h2zm7 0q0 2 0 0m-38 0v-1zm-68-1q0-2 0 0m20 0v1zm55 0q-1 0 0 0m19 0q0-2 0 0m1 0v-2l1 1v-2 3q0-2 0 0zm2 0v-1q2 0 0 0h2v1q-1 0 0 0h1l-1 1v-1h-1zm-21-1q0-1 0 0m25 0q0 2 0 0m-98 0q1 0 0 0m91 0v-1l1 1-1-1h1q0-1 0 0v2zm-92 0v-1q0-1 0 0zm90-1 1-2v1h1zq0 2 0 0M36 76l1-1v-2q2-1 0 0v1zm105 0q2 0 0 0 0 2 0 0m-93 0q0-2 0 0m2 0v1zm89-2h1v-1h-2 1l1-1h1v1l-1 1zm-5 0q1 0 0 0 0 1 0 0m6 0 1-2h1l-1 1zq-1 0 0 0m11 0q1-1 0 0M50 74v1zm86 0q0-1 0 0m-98-3q0-1 0 0 0 2 0 0m-5 0q0 1 0 0m105-1q0-1 0 0M26 70q0-1 0 0m110 0 1-1zM30 69q0-1 0 0m106 0q0-1 0 0-1 2 0 0M26 68v1zm19 1v-2zm-1-1q0 2 0 0m-14-1v-2l1-1v-1h1-1zm5-2 1-2-2 4zm-8 1q-2 0 0 0m5-1 1-5h1v-1 2l-1 3zm106 0h1zM28 65q0-1 0 0m13 0q0-1 0 0 1 0 0 0m2 0 1-1zm93 0q0-1 0 0M33 65l2-4 2-4h1v-1h-1l1-1h1v-2l1-1h-1l-1 1v1-1h-1q0 2 0 0v-1l-1 1v-1h2q0 2 0 0l1-1v-1l1-1q1 2 2-1l1-1q0-1 0 0l-2 2v-1l1-1q0-2 0 0l1-1h2v-1q-1 0 0 0v-1h1v-1h2v-1h1q0-2 0 0h1v-1h1l1-1h2-1v1l3-1 4-2v-1 1l1-1v1h-1l-1 1q0-1 0 0l-1 1q-1-1 0 0h-1l-1 1v-1l-1 1q0 2 0 0h-1l1 1-1 1h-1q0 1 0 0l1 1q-1 0 0 0v1h-2v-1h-1q1 2 0 0v3-1h1l1-1-1 2-2 1v1l-1-1h-1v-1h-1v1h1q0 2 0 0h1v1h-1l-1-1h-1v1h-1q0-1 0 0l-1 1h-2v2l-1-1 2-2 2-2 1-1h2v-1l2-1h-1v1h-1l2-3 3-1h-1l-3 1-1 1-1 1 1 1h-1l-1-1q1 0 0 0v1h-1 2l-1 1h-1l-5 5v1l1-1v3-1h-1l1 1q-1 0 0 0h1v1h1-1l1-1q0-1 0 0h1q0-2 0 0h-1v3l-1-1-1-1 1 1h-1l-1 1h-1l1 1v1l-1 1v-1h-1v1h-1q-1 0 0 0v-1q1-1-1-1v1l1-1v1l-1 1q-2 0 0 0 0-1 0 0h-1v2l-1 1zm6-8-1 1zm1-2q0-2 0 0m0-4v-1zm10-4v-2h-1l1 1zq-1 0 0 0l-1-1zm3-3v-1zm85 20h1v-1zM38 64v-1h1zm3-1h1zm-6 0 2-3h1l-1 1zm2 0 1-1q1 0 0 0zm2 0 2-2zm-3-1q0 2-1 1m5 0q0 1 0 0m2 0v-2 1h1zm-1 0v-1zm-4-1q0 1 0 0m7 0 1-1h1v-1zq1 0 0 0m-12-1v-1zm10-1 1-1v2q0 1 0 0v-1l-1 1zm-1-1v-2h-1 1v3zm98 1h1q1 0 0 0zM33 58l1-1zl-1 1zm-1 1v-1h1v-1zm3-1 1-2 2-1-1 1zm8 0q1 0 0 0m2 0q-1 0 0 0m1 0 1-1zm-2-1q-1 0 0 0h1zm-1-1 1-1h1zm-8-1q0-1 0 0v1zm111 0q0-1 0 0-1 0 0 0m-99-1q1 0 0 0m99 0q2 0 0 0M42 53l2-1v1q0 2 0 0h1v-1 1l-1 1q0 2 0 0zm3 0q0 1 0 0m3 0q0 1 0 0m-1 0h1zm97-1q-1 0 0 0M37 51h1zm12 0q-1 1 0 0m0 0h1-2m93 0q1 0 0 0m-95 0q1 2 0 0m-3-1q0 1 0 0m99 0h1v-3q1 0 0 0h-1v-1l1 1v-1q0-1 0 0h1v1q0-1 0 0v3zm3 0v-2q1-1 1 1zM45 50v1zm100-1 1-1v3zm1 1v-3l-1-1h1v1l1 1zm-97 0 1-1zm89-1 1-1zm-87-1 1-1zm89 0q-1 0 0 0m-1-1v-1l-1-1v-1l1 1zl1 1h-1q0-1 0 0zm-96-1q0 2 0 0m121-1-7-5 4 2q8 5 3 3M55 44q0-1 0 0m0-1q0-1 0 0m80 0q0-1 0 0m1-1h1v1l1-1zv1zm-1-1q-2 0 0 0m0-1h-1v-1l1-1q0 2 0 0zq0 1 0 0m-81 0h1l1-1q0 1 0 0l3-1v-1 1l-1 1h-1q1 0 0 0 0 2 0 0l-1 1h-1zm79 0h1zm-81-1v-1zm2-1q-2 0 0 0m79 0h1zm-78 0q-1 0 0 0m7 0v-2l1 1zm1-1h1zm70 0h-1l-1-1h-1 2l1-1-1 1h2zm-1 0 1 1zm-70-2v-1zm66 0h1zm3-1q0-1 0 0m4-1 1 1zm-54 0q-1 0 0 0m-15 0q1 0 0 0m60-1q0 2 0 0m-55 0q2 0 0 0m15 0q-1 0 0 0m43 0q1 0 0 0m-16-1q0 1 0 0m14 0v1zm-16-1q-1 0 0 0m17 0-2-1zm-9-1q-1 0 0 0m-45-1 3-1h1l5-2-1 1-6 2zm47 0v-1zh-1l1-1zh2zm-15-1 1 1zm-10-1h1v1zm4 0q0-1 0 0l1-1h1zm-16-1q2 0 0 0m3-1h1l7-1-2 1zm15 1v-1zm-4-1h1zm2 0h1zm-4-1h12q0-2 0 0zm16 0" style="fill:#000" transform="translate(-13 -22)"/></svg>