<?xml version="1.0" encoding="UTF-8" standalone="no"?>
<svg
   fill-rule="evenodd"
   clip-rule="evenodd"
   image-rendering="optimizeQuality"
   shape-rendering="geometricPrecision"
   text-rendering="geometricPrecision"
   viewBox="0 0 50 49.999996"
   version="1.1"
   id="svg1"
   sodipodi:docname="soundcloud.svg"
   inkscape:version="1.4.3 (0d15f75, 2025-12-25)"
   width="50"
   height="49.999996"
   xmlns:inkscape="http://www.inkscape.org/namespaces/inkscape"
   xmlns:sodipodi="http://sodipodi.sourceforge.net/DTD/sodipodi-0.dtd"
   xmlns="http://www.w3.org/2000/svg"
   xmlns:svg="http://www.w3.org/2000/svg">
  <defs
     id="defs1" />
  <sodipodi:namedview
     id="namedview1"
     pagecolor="#ffffff"
     bordercolor="#000000"
     borderopacity="0.25"
     inkscape:showpageshadow="2"
     inkscape:pageopacity="0.0"
     inkscape:pagecheckerboard="0"
     inkscape:deskcolor="#d1d1d1"
     inkscape:zoom="1.5566406"
     inkscape:cx="-18.629862"
     inkscape:cy="70.986199"
     inkscape:window-width="1366"
     inkscape:window-height="697"
     inkscape:window-x="-8"
     inkscape:window-y="-8"
     inkscape:window-maximized="1"
     inkscape:current-layer="svg1" />
  <path
     d="m 25,0 c 13.807129,0 24.999999,11.192871 24.999999,24.999998 0,13.80713 -11.19287,25 -24.999999,25 -13.807129,0 -25,-11.19287 -25,-25 C 0,11.192871 11.192871,0 25,0 m 14.917379,26.885258 c -0.125,2.23564 -1.99101,3.9748 -4.22968,3.94384 H 25.520703 c -0.465723,-0.005 -0.841504,-0.38252 -0.844043,-0.84775 V 19.034375 a 0.93261719,0.93261719 0 0 1 0.561524,-0.891406 c 0,0 0.935156,-0.648535 2.904885,-0.648535 a 6.6640625,6.6640625 0 0 1 3.41845,0.939355 6.7626953,6.7626953 0 0 1 3.18282,4.408199 3.9257813,3.9257813 0 0 1 1.07842,-0.14687 4.0712891,4.0712891 0 0 1 2.9371,1.22598 4.0703125,4.0703125 0 0 1 1.15811,2.96445 z M 23.407813,19.726465 c 0.306542,3.712893 0.529296,7.099413 0,10.800193 a 0.33007813,0.33007813 0 0 1 -0.656348,0 c -0.493653,-3.66943 -0.278711,-7.11943 0,-10.800193 a 0.32910156,0.32910156 0 0 1 0.153027,-0.31582 0.33203125,0.33203125 0 0 1 0.350977,0 0.33007813,0.33007813 0 0 1 0.152344,0.31582 m -2.057325,10.803903 a 0.34570313,0.34570313 0 0 1 -0.341894,0.29395 0.34570313,0.34570313 0 0 1 -0.342285,-0.29395 41.279297,41.279297 0 0 1 0,-9.52998 0.34628906,0.34628906 0 0 1 0.34414,-0.309568 0.34697266,0.34697266 0 0 1 0.344336,0.309568 37.080078,37.080078 0 0 1 -0.0044,9.52998 z M 19.288965,20.67793 c 0.333984,3.402248 0.485937,6.450388 -0.0035,9.844528 a 0.33066406,0.33066406 0 0 1 -0.330273,0.33028 0.33066406,0.33066406 0 0 1 -0.330274,-0.33028 c -0.473632,-3.35058 -0.314648,-6.48603 0,-9.844528 a 0.33300781,0.33300781 0 0 1 0.332129,-0.297364 0.33300781,0.33300781 0 0 1 0.331934,0.297364 m -2.064453,9.856638 a 0.33886719,0.33886719 0 0 1 -0.336817,0.30117 0.3375,0.3375 0 0 1 -0.33584,-0.30117 34.863281,34.863281 0 0 1 0,-8.89775 0.34228516,0.34228516 0 0 1 0.684375,0 32.519531,32.519531 0 0 1 -0.01221,8.89775 z M 15.1625,23.861428 c 0.52168,2.30722 0.286719,4.34531 -0.01943,6.69678 a 0.32285156,0.32285156 0 0 1 -0.31875,0.27197 0.32226563,0.32226563 0 0 1 -0.318066,-0.27197 c -0.278711,-2.31944 -0.50957,-4.40528 -0.02002,-6.69747 a 0.33828156,0.33828155 0 1 1 0.676563,4e-4 z m -2.057129,-0.35039 c 0.477832,2.36367 0.322559,4.36523 -0.01211,6.73701 -0.03945,0.35049 -0.640137,0.354 -0.672168,0 -0.302442,-2.33604 -0.445606,-4.39736 -0.01221,-6.73701 a 0.35117188,0.35117188 0 0 1 0.348535,-0.31289 0.34960938,0.34960938 0 0 1 0.347949,0.31289 m -2.07666,1.1459 c 0.501074,1.56787 0.329785,2.84179 -0.01992,4.44882 a 0.32617188,0.32617188 0 0 1 -0.324316,0.29043 0.32714844,0.32714844 0 0 1 -0.325,-0.29043 c -0.302344,-1.57558 -0.425,-2.87685 -0.02725,-4.44882 a 0.34912109,0.34912109 0 0 1 0.347851,-0.31289 0.34960938,0.34960938 0 0 1 0.347949,0.31289 z"
     id="path1"
     style="fill:#ff0000;stroke-width:0.0976562" />
</svg>
