<?xml version="1.0" encoding="UTF-8" standalone="no"?>
<svg
   fill-rule="evenodd"
   clip-rule="evenodd"
   image-rendering="optimizeQuality"
   shape-rendering="geometricPrecision"
   text-rendering="geometricPrecision"
   viewBox="0 0 512 512"
   version="1.1"
   id="svg1"
   sodipodi:docname="soundcloud.svg"
   inkscape:version="1.4.4 (unknown)"
   xmlns:inkscape="http://www.inkscape.org/namespaces/inkscape"
   xmlns:sodipodi="http://sodipodi.sourceforge.net/DTD/sodipodi-0.dtd"
   xmlns="http://www.w3.org/2000/svg"
   xmlns:svg="http://www.w3.org/2000/svg">
  <defs
     id="defs1" />
  <sodipodi:namedview
     id="namedview1"
     pagecolor="#ffffff"
     bordercolor="#000000"
     borderopacity="0.25"
     inkscape:showpageshadow="2"
     inkscape:pageopacity="0.0"
     inkscape:pagecheckerboard="0"
     inkscape:deskcolor="#d1d1d1"
     inkscape:zoom="1.5566406"
     inkscape:cx="256"
     inkscape:cy="256"
     inkscape:window-width="1920"
     inkscape:window-height="1006"
     inkscape:window-x="0"
     inkscape:window-y="0"
     inkscape:window-maximized="1"
     inkscape:current-layer="svg1" />
  <path
     d="M256 0c141.385 0 256 114.615 256 256S397.385 512 256 512 0 397.385 0 256 114.615 0 256 0m152.754 275.305c-1.28 22.893-20.388 40.702-43.312 40.385h-104.11c-4.769-.049-8.617-3.917-8.643-8.681V194.912a9.55 9.55 0 0 1 5.75-9.128s9.576-6.641 29.746-6.641a68.24 68.24 0 0 1 35.005 9.619 69.25 69.25 0 0 1 32.592 45.14 40.2 40.2 0 0 1 11.043-1.504 41.69 41.69 0 0 1 30.076 12.554 41.68 41.68 0 0 1 11.859 30.356zm-169.058-73.306c3.139 38.02 5.42 72.698 0 110.594a3.38 3.38 0 0 1-6.721 0c-5.055-37.575-2.854-72.903 0-110.594a3.37 3.37 0 0 1 1.567-3.234 3.4 3.4 0 0 1 3.594 0 3.38 3.38 0 0 1 1.56 3.234m-21.067 110.632a3.54 3.54 0 0 1-3.501 3.01 3.54 3.54 0 0 1-3.505-3.01 422.7 422.7 0 0 1 0-97.587 3.546 3.546 0 0 1 3.524-3.17 3.553 3.553 0 0 1 3.526 3.17 379.7 379.7 0 0 1-.045 97.587zm-21.11-100.889c3.42 34.839 4.976 66.052-.036 100.808a3.386 3.386 0 0 1-3.382 3.382 3.386 3.386 0 0 1-3.382-3.382c-4.85-34.31-3.222-66.417 0-100.808a3.41 3.41 0 0 1 3.401-3.045 3.41 3.41 0 0 1 3.399 3.045m-21.14 100.932a3.47 3.47 0 0 1-3.449 3.084 3.456 3.456 0 0 1-3.439-3.084 357 357 0 0 1 0-91.113 3.505 3.505 0 0 1 7.008 0 333 333 0 0 1-.125 91.113zm-21.115-68.333c5.342 23.626 2.936 44.496-.199 68.575a3.306 3.306 0 0 1-3.264 2.785 3.3 3.3 0 0 1-3.257-2.785c-2.854-23.751-5.218-45.11-.205-68.582a3.464 3.464 0 1 1 6.928.004zm-21.065-3.588c4.893 24.204 3.303 44.7-.124 68.987-.404 3.589-6.555 3.625-6.883 0-3.097-23.921-4.563-45.029-.125-68.987a3.596 3.596 0 0 1 3.569-3.204 3.58 3.58 0 0 1 3.563 3.204m-21.265 11.734c5.131 16.055 3.377 29.1-.204 45.556a3.34 3.34 0 0 1-3.321 2.974 3.35 3.35 0 0 1-3.328-2.974c-3.096-16.134-4.352-29.459-.279-45.556a3.575 3.575 0 0 1 3.562-3.204 3.58 3.58 0 0 1 3.563 3.204z"
     id="path1"
     style="fill:#ff0000" />
</svg>
