<?xml version="1.0" encoding="UTF-8" standalone="no"?>
<!-- Created with Inkscape (http://www.inkscape.org/) -->

<svg
   width="130.17538mm"
   height="130.51228mm"
   viewBox="0 0 130.17538 130.51228"
   version="1.1"
   id="svg1"
   xml:space="preserve"
   inkscape:version="1.4.3 (0d15f75, 2025-12-25)"
   sodipodi:docname="spotify.svg"
   xmlns:inkscape="http://www.inkscape.org/namespaces/inkscape"
   xmlns:sodipodi="http://sodipodi.sourceforge.net/DTD/sodipodi-0.dtd"
   xmlns="http://www.w3.org/2000/svg"
   xmlns:svg="http://www.w3.org/2000/svg"><sodipodi:namedview
     id="namedview1"
     pagecolor="#ffffff"
     bordercolor="#000000"
     borderopacity="0.25"
     inkscape:showpageshadow="2"
     inkscape:pageopacity="0.0"
     inkscape:pagecheckerboard="0"
     inkscape:deskcolor="#d1d1d1"
     inkscape:document-units="mm"
     inkscape:zoom="0.44097222"
     inkscape:cx="247.1811"
     inkscape:cy="241.51181"
     inkscape:window-width="1366"
     inkscape:window-height="697"
     inkscape:window-x="-8"
     inkscape:window-y="-8"
     inkscape:window-maximized="1"
     inkscape:current-layer="layer1" /><defs
     id="defs1" /><g
     inkscape:label="Layer 1"
     inkscape:groupmode="layer"
     id="layer1"
     transform="translate(-39.696351,-84.45248)"><path
       style="fill:#ff0000;stroke:none"
       d="m 84.49931,88.53611 c -2.13941,-0.316421 -3.82739,0.899643 -5.70433,1.754081 -4.16928,1.897978 -11.73139,4.315262 -13.69845,8.829252 -1.85159,0.0477 -3.70359,1.790617 -4.23333,3.527777 -1.58866,0.15357 -2.30587,1.46946 -3.39712,2.56744 -2.81768,2.83502 -5.37064,5.9345 -7.33647,9.42047 -7.14758,12.67461 -10.46132,24.17431 -10.43308,38.81209 0.009,4.57791 0.767,9.77655 2.26202,14.11111 0.43045,1.248 0.53006,3.68471 1.97131,3.88056 -0.38819,4.29956 3.52059,10.03713 5.94251,13.40555 0.88617,1.23248 1.38248,2.66795 2.87694,3.175 0.002,2.2133 3.40504,5.68306 5.29166,6.70278 l -0.35278,0.70556 c 3.50119,2.38463 6.63793,5.39266 9.9785,7.99575 1.72103,1.34109 4.00234,3.3088 6.24928,3.29313 l 2.82223,1.41112 c 1.12328,1.54549 3.53059,2.25111 5.29166,2.86986 4.56889,1.60525 9.28089,3.02154 14.11111,3.53866 19.50203,2.08789 38.17716,-3.44503 52.69319,-16.81383 4.18014,-3.84978 7.94338,-8.08151 11.05533,-12.87803 1.13991,-1.75695 2.82655,-3.84007 2.5737,-5.99722 l 3.88056,-6.70278 -0.35278,-1.05833 c 1.82629,-1.25798 2.28143,-5.31083 2.54458,-7.4018 0.79991,-6.35599 1.34841,-12.26303 1.33598,-18.70376 -0.003,-1.48928 -0.30376,-7.87082 -1.76389,-8.11389 0.62072,-3.18254 -1.86461,-12.21433 -4.58611,-14.11111 l 0.35277,-0.70555 -4.93888,-7.40833 c -0.0764,-3.23444 -3.42018,-4.7461 -5.04559,-7.11408 -5.56164,-8.102459 -13.88828,-12.484556 -22.43025,-16.770556 -3.18021,-1.595693 -7.31828,-4.119635 -10.97694,-3.279257 -0.34424,-2.065421 -5.89027,-1.648952 -7.76111,-2.116667 -6.29126,-1.572815 -15.9606,-1.029804 -22.225,1.058333 -2.12873,0.709571 -5.73205,0.790811 -5.99722,2.116667 m -8.11389,6.820374 0.11759,0.117585 c -0.1741,0.05803 -0.39041,-0.117585 -0.11759,-0.117585 m -7.76111,1.293515 -0.35278,0.352777 0.35278,-0.352777 m -7.05556,4.938891 -0.35278,0.35278 0.35278,-0.35278 m 87.48889,0.70555 -0.35278,0.35278 0.35278,-0.35278 m 1.64629,1.6463 -0.11758,0.23519 0.11758,-0.23519 m -95.1324,3.99815 -0.35278,0.35278 0.35278,-0.35278 m -1.76389,2.11666 -0.35278,0.35278 0.35278,-0.35278 m 87.84166,32.45556 c -3.05963,-3.41298 -9.51208,-4.81818 -13.75833,-6.17525 -14.34113,-4.58332 -29.57226,-5.20595 -44.45,-4.0044 -4.11484,0.33231 -8.33996,1.00071 -12.34722,1.97702 -3.36989,0.82103 -6.78501,2.43706 -9.87125,-0.19871 -3.44384,-2.94119 -2.61011,-8.34564 1.05317,-10.60674 5.14699,-3.17689 13.20232,-3.42526 19.04864,-3.98237 19.72826,-1.87992 39.55835,-0.1815 58.20833,6.76785 3.93148,1.46495 9.86655,3.49621 12.35103,7.05201 2.76098,3.95151 1.18277,10.09448 -4.23714,10.64512 -2.10581,0.21394 -3.97167,-1.34189 -5.99723,-1.47453 m -5.64444,-18.69722 -0.35278,0.35277 0.35278,-0.35277 m -13.40556,11.28889 -0.35277,0.35277 0.35277,-0.35277 m 17.63889,29.63333 c -6.03391,-1.93339 -11.38032,-5.33885 -17.28611,-7.59643 -7.25997,-2.77524 -15.54785,-4.1895 -23.28333,-4.71922 -5.44068,-0.37257 -11.56233,-0.41088 -16.93333,0.53815 -4.57665,0.80868 -9.82367,2.89141 -14.46389,2.69238 -3.87114,-0.16603 -5.73335,-4.86593 -4.32425,-8.13974 0.83688,-1.94436 3.52889,-2.68653 5.38258,-3.18154 4.79275,-1.27985 9.63868,-1.65597 14.46389,-2.6246 3.61556,-0.7258 7.58711,-0.25233 11.28889,-0.25233 11.85337,0 24.80119,1.72538 35.63055,6.68535 3.973,1.81968 11.66019,3.78021 13.07292,8.48409 1.29155,4.30035 -2.4744,4.94058 -3.54792,8.11389 m -4.23333,-16.22778 -0.35278,0.35278 0.35278,-0.35278 m 0.70556,0.82315 c 0.27283,0 0.0565,0.17563 -0.1176,0.11759 l 0.1176,-0.11759 m 4.23333,1.99907 -0.35278,0.35278 0.35278,-0.35278 m -79.72778,1.76389 -0.35278,0.35278 0.35278,-0.35278 m 108.18518,1.29352 -0.11758,0.23518 0.11758,-0.23518 m -53.15184,1.5287 v 0.35278 h -1.05834 l 1.05834,-0.35278 m 52.21111,3.52778 -0.35278,0.35278 0.35278,-0.35278 m -85.725,3.175 -0.35278,0.35278 0.35278,-0.35278 m -15.875,3.88056 8.11389,-1.76389 c 1.59414,-1.81972 8.81711,-1.57317 11.28861,-1.82133 12.67802,-1.27296 25.61209,0.27554 37.39472,4.92964 4.38273,1.73117 15.2147,5.1347 11.40403,11.67133 -1.00031,1.71587 -3.24535,2.11101 -5.0543,1.57172 -4.61553,-1.37598 -8.69518,-4.69527 -13.3914,-6.16436 -9.48465,-2.96702 -19.73618,-4.05844 -29.64722,-3.07129 -4.00877,0.39929 -8.05447,1.04043 -12.00833,1.80935 -1.76692,0.34361 -3.83155,1.24359 -5.6292,0.6375 -4.09687,-1.38127 -2.80725,-4.68126 -2.4708,-7.79867 m 66.675,-3.175 0.35277,0.70555 h -0.70555 l 0.35278,-0.70555 m 34.21944,1.76389 v 1.05833 h -0.35278 l 0.35278,-1.05833 m -123.23704,7.99629 -0.11759,0.23519 0.11759,-0.23519 m 118.65093,3.64537 -0.35278,0.35278 0.35278,-0.35278 m -38.1,2.11667 -0.35278,0.35278 0.35278,-0.35278 m 10.93611,0.70556 -0.35278,0.35277 0.35278,-0.35277 m 17.16851,11.87684 -0.11758,0.2352 0.11758,-0.2352 m -96.54351,0.1176 -0.35278,0.35278 0.35278,-0.35278 m 1.76389,2.82222 -0.35278,0.35278 0.35278,-0.35278 m 83.96111,7.76111 -0.35278,0.35278 0.35278,-0.35278 m -74.43611,0.35278 -0.35278,0.35278 0.35278,-0.35278 m 3.88056,2.82222 -0.35278,0.35278 0.35278,-0.35278 m 2.11666,0.35278 -0.35278,0.35278 0.35278,-0.35278 m 56.79722,2.46945 -0.35277,0.35277 0.35277,-0.35277 m -3.175,2.46944 -0.35277,0.35278 z"
       id="path1" /></g></svg>
