<?xml version="1.0" encoding="UTF-8" standalone="no"?>
<svg
   width="50"
   height="50"
   fill="#1a1a1a"
   viewBox="0 0 10 10"
   version="1.1"
   id="svg1"
   sodipodi:docname="youtube.svg"
   inkscape:version="1.4.3 (0d15f75, 2025-12-25)"
   xmlns:inkscape="http://www.inkscape.org/namespaces/inkscape"
   xmlns:sodipodi="http://sodipodi.sourceforge.net/DTD/sodipodi-0.dtd"
   xmlns="http://www.w3.org/2000/svg"
   xmlns:svg="http://www.w3.org/2000/svg">
  <defs
     id="defs1" />
  <sodipodi:namedview
     id="namedview1"
     pagecolor="#ffffff"
     bordercolor="#000000"
     borderopacity="0.25"
     inkscape:showpageshadow="2"
     inkscape:pageopacity="0.0"
     inkscape:pagecheckerboard="0"
     inkscape:deskcolor="#d1d1d1"
     inkscape:zoom="3.188"
     inkscape:cx="61.794228"
     inkscape:cy="-9.880803"
     inkscape:window-width="1366"
     inkscape:window-height="697"
     inkscape:window-x="-8"
     inkscape:window-y="-8"
     inkscape:window-maximized="1"
     inkscape:current-layer="svg1" />
  <path
     d="M 1.190477,0 C 0.533334,0 0,0.5333333 0,1.1904762 v 7.619048 C 0,9.4666672 0.533334,10 1.190477,10 H 8.809524 C 9.466667,10 10,9.4666672 10,8.8095242 V 1.1904762 C 10,0.5333333 9.466667,0 8.809524,0 Z M 2.619048,0.952381 H 3.190477 L 3.571429,1.9047619 3.952381,0.952381 H 4.52381 L 3.809524,2.6190476 v 0.952381 H 3.333334 V 2.6166667 C 3.190477,2.2333333 2.716667,1.1928571 2.619048,0.952381 M 5,1.6666667 c 0.211905,0 0.421429,0.064286 0.554762,0.2261904 0.102381,0.1166667 0.159524,0.3047619 0.159524,0.552381 v 0.347619 c 0,0.2476191 -0.04762,0.4190477 -0.147619,0.5357143 C 5.433334,3.4880952 5.211905,3.5714286 5,3.5714286 4.788096,3.5714286 4.571429,3.4880956 4.438096,3.3285714 4.335715,3.2119048 4.285715,3.0404762 4.285715,2.7928571 V 2.447619 C 4.285715,2.2 4.340475,2.0095238 4.445238,1.8928571 4.578572,1.7309524 4.759524,1.6666667 5,1.6666667 m 0.952381,0 h 0.47619 v 1.4285714 c 0.01191,0.064286 0.08095,0.092857 0.145239,0.092857 0.09762,0 0.221428,-0.1142857 0.330952,-0.2404762 V 1.6666667 h 0.47619 V 3.5714286 H 6.904762 V 3.2428571 C 6.711905,3.4309524 6.547619,3.5714286 6.330952,3.5642857 6.17381,3.5595257 6.064286,3.5023807 6.009524,3.3880952 5.976194,3.3214282 5.952384,3.2142857 5.952384,3.0571429 Z M 5,2.052381 a 0.2397619,0.2397619 0 0 0 -0.219523,0.1488095 0.23809525,0.23809524 0 0 0 -0.01857,0.094286 v 0.6685714 a 0.2452381,0.2452381 0 0 0 0.145476,0.2238095 0.23333333,0.23333333 0 0 0 0.185238,0 C 5.177857,3.1507143 5.238095,3.0640476 5.238095,2.9640476 V 2.2954762 C 5.238095,2.1621429 5.130952,2.0521429 5,2.0521429 M 4.9976,4.2857143 h 0.0048 c 0,0 1.597617,0 2.664285,0.07619 0.15,0.016667 0.47381,0.019048 0.764286,0.3166666 0.228571,0.2238096 0.302381,0.7380953 0.302381,0.7380953 0,0 0.07619,0.364286 0.07619,0.966667 v 0.564285 c 0,0.602381 -0.07619,0.966667 -0.07619,0.966667 0,0 -0.07381,0.514285 -0.302381,0.738095 -0.290476,0.297619 -0.614286,0.3 -0.764286,0.316667 -1.066665,0.07619 -2.666665,0.07857 -2.666665,0.07857 0,0 -1.980952,-0.01905 -2.590476,-0.07619 -0.169047,-0.03095 -0.55,-0.02143 -0.840476,-0.316667 -0.228571,-0.226191 -0.302381,-0.740476 -0.302381,-0.740476 0,0 -0.07619,-0.364286 -0.07619,-0.966667 v -0.564286 c 0,-0.602381 0.07619,-0.966666 0.07619,-0.966666 0,0 0.07381,-0.5142862 0.302381,-0.7380958 0.290476,-0.297619 0.614286,-0.3 0.764286,-0.3166666 1.066666,-0.076191 2.664285,-0.076191 2.664285,-0.076191 M 1.904762,5.2380952 v 0.471191 h 0.476191 v 2.385952 h 0.47619 v -2.385952 h 0.476191 v -0.471191 z m 3.095238,0 v 2.857143 h 0.476191 v -0.297619 c 0.150238,0.185952 0.345952,0.297619 0.505952,0.297619 0.179047,0 0.335238,-0.09643 0.395238,-0.280952 0.02857,-0.09976 0.04929,-0.192857 0.05119,-0.403572 v -0.654762 c 0,-0.235238 -0.0319,-0.412381 -0.0619,-0.512381 -0.06,-0.185952 -0.205242,-0.29 -0.384528,-0.29119 -0.233333,-0.0017 -0.327381,0.119048 -0.505952,0.327381 v -1.041667 z m -1.666666,0.714286 v 1.591905 c 0,0.171904 0.02381,0.287143 0.05476,0.362619 0.05238,0.122381 0.159523,0.188333 0.311904,0.188333 0.17381,0 0.397619,-0.122381 0.585715,-0.325 v 0.325 h 0.47619 v -2.142857 h -0.47619 v 1.492857 c -0.104762,0.139048 -0.257143,0.242857 -0.352381,0.242857 -0.0619,0 -0.111905,-0.02619 -0.12381,-0.09452 v -1.64119 z m 4.054761,0 c -0.240238,0 -0.427619,0.07548 -0.563333,0.218095 -0.1,0.105238 -0.158095,0.277381 -0.158095,0.500476 v 0.73 c 0,0.221667 0.06405,0.376905 0.163809,0.480953 0.135714,0.142619 0.322857,0.213333 0.568572,0.213333 0.245714,0 0.438809,-0.07452 0.568809,-0.22619 q 0.08571,-0.1 0.109524,-0.225715 c 0.0045,-0.0381 0.01786,-0.140714 0.01786,-0.262381 h -0.47619 v 0.190238 c 0,0.110477 -0.106667,0.2 -0.238096,0.2 -0.131428,0 -0.238095,-0.08976 -0.238095,-0.2 v -0.428333 h 0.952381 v -0.48119 c 0,-0.222619 -0.05476,-0.385715 -0.153095,-0.491191 -0.13167,-0.142619 -0.318575,-0.218095 -0.554289,-0.218095 m -0.0069,0.344524 c 0.131429,0 0.238095,0.08976 0.238095,0.2 v 0.31619 h -0.47619 v -0.31619 c 0,-0.110476 0.106667,-0.2 0.238095,-0.2 m -1.614285,0.07143 c 0.13,0 0.185714,0.07952 0.185714,0.328096 v 0.654761 c 0,0.248572 -0.05571,0.334286 -0.185714,0.334286 -0.07381,0 -0.215238,-0.05071 -0.290476,-0.125952 v -1.041667 c 0.07524,-0.07429 0.216666,-0.149762 0.290476,-0.149762"
     id="path1"
     style="fill:#ff0000;stroke-width:0.238095" />
</svg>
