<svg width="512" height="368" xmlns="http://www.w3.org/2000/svg"><path style="fill:#000" d="M75 449c-20-3-43-15-56-31a92 92 0 0 1-19-45c-2-10-2-205 0-216 4-31 25-58 54-70 17-6 1-6 201-6 170 0 182 0 188 2a88 88 0 0 1 64 58l3 9v230l-3 10c-6 16-15 29-27 39-8 7-24 15-35 18l-8 2H75zm364-40c6-2 18-10 18-11S316 267 313 266c-1-1-6 2-13 7-22 14-34 19-46 18s-25-7-46-20c-5-3-10-6-11-5L54 398c0 1 6 6 11 8 9 5 5 5 192 4l182-1zM105 297l59-54-125-82-1 99v99l4-4 63-58zm368-37-1-99c-2 0-125 81-125 82l125 116 1-99zm-211-10c4-1 187-121 188-122 0-2-8-5-15-7l-182-1c-135 0-176 1-180 2-6 1-13 4-12 6a9206 9206 0 0 0 194 124l7-2z" transform="translate(1 -81)"/></svg>