<?xml version="1.0" encoding="UTF-8" standalone="no"?>
<!-- Uploaded to: SVG Repo, www.svgrepo.com, Generator: SVG Repo Mixer Tools -->

<svg
   height="800px"
   width="800px"
   version="1.1"
   id="Layer_1"
   viewBox="0 0 495 495"
   xml:space="preserve"
   sodipodi:docname="email-icon.svg"
   inkscape:version="1.2.2 (b0a8486541, 2022-12-01)"
   xmlns:inkscape="http://www.inkscape.org/namespaces/inkscape"
   xmlns:sodipodi="http://sodipodi.sourceforge.net/DTD/sodipodi-0.dtd"
   xmlns="http://www.w3.org/2000/svg"
   xmlns:svg="http://www.w3.org/2000/svg"><defs
   id="defs7" /><sodipodi:namedview
   id="namedview5"
   pagecolor="#ffffff"
   bordercolor="#000000"
   borderopacity="0.25"
   inkscape:showpageshadow="2"
   inkscape:pageopacity="0.0"
   inkscape:pagecheckerboard="0"
   inkscape:deskcolor="#d1d1d1"
   showgrid="false"
   inkscape:zoom="0.85"
   inkscape:cx="237.05882"
   inkscape:cy="400"
   inkscape:window-width="1600"
   inkscape:window-height="836"
   inkscape:window-x="0"
   inkscape:window-y="0"
   inkscape:window-maximized="1"
   inkscape:current-layer="Layer_1" />
<path
   style="fill:#000000"
   d="M422.509,72.491C375.763,25.745,313.609,0,247.5,0S119.237,25.745,72.491,72.491  C25.744,119.238,0,181.39,0,247.5s25.744,128.262,72.491,175.009C119.237,469.255,181.391,495,247.5,495  c33.404,0,65.819-6.546,96.345-19.458l-15.582-36.84C302.694,449.517,275.521,455,247.5,455C133.084,455,40,361.916,40,247.5  S133.084,40,247.5,40S455,133.084,455,247.5c0,48.147-28.042,69.699-55.833,69.699c-27.792,0-55.834-21.551-55.834-69.699  c0-52.843-42.99-95.833-95.833-95.833s-95.833,42.991-95.833,95.833s42.99,95.833,95.833,95.833  c28.55,0,54.219-12.554,71.791-32.426c18.099,30.556,49.107,46.291,79.876,46.291C446.79,357.199,495,319.518,495,247.5  C495,181.39,469.256,119.238,422.509,72.491z M247.5,303.333c-30.786,0-55.833-25.047-55.833-55.833s25.047-55.833,55.833-55.833  s55.833,25.047,55.833,55.833S278.286,303.333,247.5,303.333z"
   id="path2" />
</svg>
