<?xml version="1.0" encoding="UTF-8" standalone="no"?>
<!-- Created with Inkscape (http://www.inkscape.org/) -->

<svg
   version="1.1"
   id="svg2"
   width="600"
   height="600"
   viewBox="0 0 600 600"
   sodipodi:docname="email-icon.svg"
   inkscape:version="1.2.2 (b0a8486541, 2022-12-01)"
   xmlns:inkscape="http://www.inkscape.org/namespaces/inkscape"
   xmlns:sodipodi="http://sodipodi.sourceforge.net/DTD/sodipodi-0.dtd"
   xmlns="http://www.w3.org/2000/svg"
   xmlns:svg="http://www.w3.org/2000/svg">
  <defs
     id="defs6" />
  <sodipodi:namedview
     id="namedview4"
     pagecolor="#ffffff"
     bordercolor="#000000"
     borderopacity="0.25"
     inkscape:showpageshadow="2"
     inkscape:pageopacity="0.0"
     inkscape:pagecheckerboard="0"
     inkscape:deskcolor="#d1d1d1"
     showgrid="false"
     inkscape:zoom="1.1333333"
     inkscape:cx="299.11765"
     inkscape:cy="-17.647059"
     inkscape:window-width="1600"
     inkscape:window-height="836"
     inkscape:window-x="0"
     inkscape:window-y="0"
     inkscape:window-maximized="1"
     inkscape:current-layer="g8" />
  <g
     inkscape:groupmode="layer"
     inkscape:label="Image"
     id="g8">
    <path
       style="fill:#000000"
       d="m 281.60662,597.651 c -1.925,-0.22179 -8.45,-0.89521 -14.5,-1.49649 C 230.22044,592.48856 187.18985,578.73427 154.261,560.08456 77.64113,516.68984 23.70104,442.64604 6.7491704,357.5944 2.2996399,335.27004 1.1434799,323.02595 1.1434799,298.2284 c 0,-24.79755 1.15616,-37.04164 5.6056905,-59.366 C 18.26787,181.07029 46.52926,128.4391 88.67328,86.295064 136.86256,38.105794 198.49553,8.3283845 267.10662,0.08661446 c 14.18678,-1.70415996 52.81322,-1.70415996 67,0 68.61109,8.24177004 130.24406,38.01917954 178.43333,86.20844954 42.14403,42.144036 70.40542,94.775226 81.92412,152.567336 4.44953,22.32436 5.60569,34.56845 5.60569,59.366 0,24.79755 -1.15616,37.04164 -5.60569,59.366 -11.5187,57.79211 -39.78009,110.42331 -81.92412,152.56733 -47.31923,47.31924 -107.62563,76.93532 -174.43333,85.66308 -10.65538,1.39202 -49.39932,2.6443 -56.5,1.82619 z M 487.80621,423.42799 c 2.03478,-1.26522 4.73478,-3.96522 6,-6 l 2.30041,-3.69959 V 298.15537 182.58234 l -2.82267,-4.26535 c -1.84778,-2.79218 -4.32556,-4.93014 -7.17407,-6.19017 -4.25011,-1.88003 -8.59535,-1.9187 -186.67733,-1.66163 l -182.32593,0.26321 -3.69959,2.30041 c -2.03478,1.26522 -4.73478,3.96522 -6,6 l -2.30041,3.69959 v 115.5 115.5 l 2.26761,3.64653 c 2.55829,4.11397 6.25744,6.85289 10.71147,7.93098 1.66151,0.40216 84.69592,0.66174 184.52092,0.57685 l 181.5,-0.15436 z M 296.9399,413.83096 c -87.54169,-1.15641 -159.42688,-2.36275 -159.74486,-2.68076 -0.47428,-0.47432 123.20253,-92.65175 130.05538,-96.93142 1.90705,-1.19097 2.95151,-0.61017 11.97276,6.65779 13.43889,10.82703 14.29551,11.35183 18.52935,11.35183 3.87881,0 4.21443,-0.21329 21.48967,-13.65642 l 8.13559,-6.3309 66.74838,48.55015 c 36.71161,26.70257 68.77781,50.09972 71.25822,51.99365 l 4.50983,3.44352 -6.8938,-0.14744 c -3.79159,-0.0811 -78.51882,-1.0936 -166.06052,-2.25 z m 112.94159,-64.90452 c -36.42382,-26.50892 -66.23632,-48.44859 -66.25,-48.75481 -0.0242,-0.54204 129.82066,-101.65009 132.58651,-103.24292 1.18092,-0.68008 1.38862,14.23984 1.38862,99.75 0,55.30233 -0.3375,100.52631 -0.75,100.49773 -0.4125,-0.0286 -30.55131,-21.74108 -66.97513,-48.25 z M 123.60662,297.20408 c 0,-54.52829 0.37821,-98.99235 0.84047,-98.80901 1.1818,0.4687 129.20284,102.13537 128.90407,102.36792 -2.32775,1.81176 -127.83595,94.40387 -128.62537,94.89176 -0.82268,0.50845 -1.11917,-25.57283 -1.11917,-98.45067 z m 98.39057,-45.77803 -75.10943,-59.69765 58.60943,-0.73329 c 32.23519,-0.40331 101.11891,-0.62831 153.07494,-0.5 l 94.46552,0.23329 -77.2933,60 c -42.51131,33 -77.59579,60.08894 -77.96551,60.19765 -0.36972,0.1087 -34.47146,-26.6663 -75.78165,-59.5 z"
       id="path1886" />
  </g>
</svg>
