<?xml version="1.0" encoding="UTF-8" standalone="no"?>
<!-- Created with Inkscape (http://www.inkscape.org/) -->

<svg
   version="1.1"
   id="svg2"
   width="512.45135"
   height="419.69824"
   viewBox="0 0 512.45135 419.69824"
   sodipodi:docname="email-icon.svg"
   inkscape:version="1.2.2 (b0a8486541, 2022-12-01)"
   xmlns:inkscape="http://www.inkscape.org/namespaces/inkscape"
   xmlns:sodipodi="http://sodipodi.sourceforge.net/DTD/sodipodi-0.dtd"
   xmlns="http://www.w3.org/2000/svg"
   xmlns:svg="http://www.w3.org/2000/svg">
  <defs
     id="defs6" />
  <sodipodi:namedview
     id="namedview4"
     pagecolor="#ffffff"
     bordercolor="#000000"
     borderopacity="0.25"
     inkscape:showpageshadow="2"
     inkscape:pageopacity="0.0"
     inkscape:pagecheckerboard="0"
     inkscape:deskcolor="#d1d1d1"
     showgrid="false"
     inkscape:zoom="1.328125"
     inkscape:cx="309.45882"
     inkscape:cy="435.2"
     inkscape:window-width="1600"
     inkscape:window-height="836"
     inkscape:window-x="0"
     inkscape:window-y="0"
     inkscape:window-maximized="1"
     inkscape:current-layer="g8" />
  <g
     inkscape:groupmode="layer"
     inkscape:label="Image"
     id="g8"
     transform="translate(-0.06176059,-1.7222086)">
    <path
       style="fill:#000000"
       d="m 20.284701,420.64801 c -7.33284,-2.23055 -14.7173004,-8.76844 -17.5812104,-15.56566 -0.96181,-2.28277 -1.89063001,-7.86377 -2.16353001,-13 l -0.4782,-9 92.22629041,-88 c 50.724459,-48.4 93.258329,-88.79389 94.519709,-89.76421 l 2.29342,-1.7642 25.345,24.11327 c 28.42723,27.04572 31.47127,29.17411 41.845,29.25802 11.2552,0.091 14.1677,-1.90269 42.72785,-29.24887 l 25.22785,-24.15552 94.13313,89.72048 94.13313,89.72049 -0.39871,9.11627 c -0.32687,7.47362 -0.91044,10.16218 -3.23864,14.92085 -2.94098,6.01115 -8.38562,10.85537 -14.90055,13.25734 -2.40381,0.88625 -60.52571,1.1715 -237.18406,1.16405 -128.7,-0.005 -235.127919,-0.35297 -236.506479,-0.77231 z M 0.29118059,191.08414 V 24.135988 l 6.75000001,6.59823 c 3.7125004,3.62903 42.9750004,40.93418 87.2500004,82.900352 44.274999,41.96617 80.499999,76.57594 80.499999,76.91062 0,0.33467 -36,34.96641 -79.999999,76.95943 -44,41.99302 -83.2625,79.54071 -87.2500004,83.43931 l -7.25000001,7.08836 z M 427.79118,277.14763 c -46.2,-43.89243 -85.50508,-81.26319 -87.34463,-83.04614 l -3.34462,-3.24173 87.34462,-83.10486 87.34463,-83.104862 0.25574,82.966152 c 0.14066,45.63139 0.14066,120.39934 0,166.15101 l -0.25574,83.18485 z M 247.46694,233.2801 C 220.26539,207.86867 177.3233,167.28111 100.80132,94.656238 51.295741,47.671878 10.606431,9.0871382 10.380641,8.9123682 c -1.0738304,-0.83115 3.3392,-4.08895 7.62527,-5.62915 4.48167,-1.61048 19.69433,-1.70312 239.785269,-1.46022 l 235,0.25935 4.46463,2.5 c 2.45555,1.375 4.48055,2.82068 4.5,3.21262 0.0195,0.39194 -46.08963,44.6694898 -102.46463,98.3945518 -56.375,53.72507 -110.68466,105.49189 -120.68814,115.03739 -16.72273,15.95711 -18.48111,17.35544 -21.82424,17.35544 -3.01065,0 -4.61238,-0.91204 -9.31186,-5.30225 z"
       id="path1886" />
  </g>
</svg>
