<?xml version="1.0" encoding="UTF-8" standalone="no"?>
<svg
   viewBox="0 0 44 44"
   width="33"
   height="33"
   version="1.1"
   id="svg4"
   sodipodi:docname="github-icon.svg"
   inkscape:version="1.2.2 (b0a8486541, 2022-12-01)"
   xmlns:inkscape="http://www.inkscape.org/namespaces/inkscape"
   xmlns:sodipodi="http://sodipodi.sourceforge.net/DTD/sodipodi-0.dtd"
   xmlns="http://www.w3.org/2000/svg"
   xmlns:svg="http://www.w3.org/2000/svg">
  <defs
     id="defs8" />
  <sodipodi:namedview
     id="namedview6"
     pagecolor="#ffffff"
     bordercolor="#000000"
     borderopacity="0.25"
     inkscape:showpageshadow="2"
     inkscape:pageopacity="0.0"
     inkscape:pagecheckerboard="0"
     inkscape:deskcolor="#d1d1d1"
     showgrid="false"
     inkscape:zoom="14.166667"
     inkscape:cx="-2.8588235"
     inkscape:cy="16.517647"
     inkscape:window-width="1600"
     inkscape:window-height="836"
     inkscape:window-x="0"
     inkscape:window-y="0"
     inkscape:window-maximized="1"
     inkscape:current-layer="svg4" />
  <path
     d="M 22,0 C 9.85,0 0,9.85 0,22 0,34.15 9.85,44 22,44 34.15,44 44,34.15 44,22 44,9.85 34.15,0 22,0 Z m 0,4 c 9.941,0 18,8.059 18,18 0,8.238706 -5.541284,15.16934 -13.095703,17.306641 -0.0928,-0.191241 -0.156453,-0.400724 -0.150391,-0.638672 0.031,-1.209 0,-4.030406 0,-5.066407 0,-1.777999 -1.125,-3.039062 -1.125,-3.039062 0,0 8.824219,0.09959 8.824219,-9.316406 0,-3.633 -1.898437,-5.525391 -1.898437,-5.525391 0,0 0.997296,-3.878437 -0.345704,-5.523437 -1.505,-0.163 -4.200562,1.437546 -5.351562,2.185546 0,1e-6 -1.823422,-0.748046 -4.857422,-0.748046 -3.034,0 -4.857422,0.748046 -4.857422,0.748046 -1.151,-0.747999 -3.846562,-2.347546 -5.351562,-2.185546 -1.342,1.645 -0.345704,5.523437 -0.345704,5.523437 0,0 -1.898437,1.890438 -1.898437,5.523438 0,9.416 8.824219,9.318359 8.824219,9.318359 0,0 -1.004765,1.143812 -1.105469,2.783203 -0.589686,0.207934 -1.393493,0.453125 -2.160156,0.453125 -1.85,0 -3.255485,-1.796906 -3.771485,-2.628906 -0.508,-0.821 -1.549484,-1.509766 -2.521484,-1.509766 -0.64,0 -0.953125,0.3215 -0.953125,0.6875 0,0.366 0.898234,0.620828 1.490234,1.298828 1.248,1.43 1.224875,4.646485 5.671875,4.646485 0.525797,0 1.470559,-0.121097 2.22461,-0.22461 -0.0042,1.009549 -0.0159,1.977776 0,2.597657 0.0059,0.238692 -0.05897,0.448936 -0.152344,0.640625 C 9.540258,37.168741 4,30.238046 4,22 4,12.059 12.059,4 22,4 Z"
     id="path2"
     style="fill:#000000" />
</svg>
