<svg viewBox="0 0 333 333"><path fill="#fff" d="M0 168V1h333v333H0Zm290 139 6-2 5-4 6-9V167c0-136 0-124-2-129l-4-5c-3-3-5-4-9-5l-125-1-125 1c-7 2-13 7-15 15l-1 122v125c1 8 4 13 9 16 4 2-6 2 130 2h123Z"/><path fill="#fefefe" d="M31 303h1v1l-1-1zm36-102v-67h40v134H67zm66 0v-67h38v20l1-2c2-3 7-8 11-10 10-7 23-10 38-9s24 4 32 11c6 6 10 15 12 26 2 9 2 13 2 58v40h-40v-36l-1-39c-1-14-8-22-18-25-3-1-10 0-14 1-11 3-18 11-20 25l-1 39v35h-40Zm-52-89c-9-2-15-8-18-17l-1-8 1-7a24 24 0 0 1 16-16l7-1 8 1a25 25 0 0 1-13 48z"/><path fill="#d7e8f1" d="m218 174-1-1h1l1 1h-1zm-42-27h1-1v1-1zm77-2-1-1h1l1 2-1-1z"/><path fill="#bcdae9" d="M26 168zm40 33v-67h40-39l-1 67v67-67zm67 0v-67h38-38v134-67zm40 34a257 257 0 0 1 0 17v-17zm54-38v-1 1zm40-12v-1 1zm-85-10 2-1-1 1-2 1 1-1zm-11-21v-1h1l-1 1zm4-5v-1c1 0 1 0 0 0v1zm2-3h1-1zm47-13h1-1zm-12 0h1-1c-1 0-1 0 0 0zm7 0h1-1zm-115-28 1-1-1 1-1 1 1-1zm-36 0h1v1l-1-1zm36-35v-1l1 1h-1zm3-43z"/><path fill="#77b4d4" d="M42 308c1 0 0 0 0 0zm243 0h1-1zm15-7 2-1 1-1-1 1-2 1zM76 268zm67 0zm104 0h20v-77 77h-40 20zm-74-70h1v1l-1-1zm54 0v-1 1zm40-15s0-1 0 0 0 1 0 0zm-1-4c1 0 1 0 0 0 0 1 0 0 0 0zm-95-35v-5a297 297 0 0 1 0 5zm40-11c-1 0-1 0 0 0zm10 0h1-1zM85 112h2c1 1 1 1-1 1l-1-1zm-16-6h1-1zm-2-2h1v1l-1-1zm44-16 1-1v2l-1-1zm-50-1v1-1zm44-16v-1 1zm-37-1 2-1-1 1-1 1v-1zm35-1v-1l1 1h-1zm-17-7h1-1zM31 34l1-1h1l-1 1h-1Zm270-1-1-1 1 1 1 1-1-1z"/><path fill="#3f95c3" d="M103 308zm204-140zm-80 65a278 278 0 0 1 0 17v-17zm-54-34h1v1l-1-1zm94-10v-1 2-1zm0-7s0-1 0 0zm-67-14h1-1zm5 0h1-1zm5-35c-1 0-1 0 0 0zm12 0h1-1zM61 89s0-1 0 0zm0-3v-1 1zm50-1h1v1l-1-1zM84 62h1-1zm4 0c1 0 0 0 0 0s-1 0 0 0z"/><path fill="#2687bb" d="M32 303c-1 0-1 0 0 0v1-1z"/><path fill="#0072af" d="M39 307c-6-1-10-6-12-12l-1-3V169c0-137 0-125 3-130 2-5 7-9 13-11l125-1a4618 4618 0 0 1 129 3c5 2 9 7 10 12l1 125-1 126c-2 6-9 12-17 14l-125 1-125-1zm68-106v-67H66v134h41zm67 31v-39c3-16 11-23 26-25 10-1 18 3 23 13l3 11 1 40v36h40v-84c-1-19-5-31-13-39-7-7-16-11-28-12-7-1-18-1-23 1-13 2-25 9-30 18l-2 1v-19h-38v134h40zM91 112a25 25 0 1 0-9-49 25 25 0 0 0 9 49z"/></svg>