<?xml version="1.0" encoding="UTF-8" standalone="no"?>
<!-- Created with Inkscape (http://www.inkscape.org/) -->

<svg
   width="211.66667mm"
   height="211.66667mm"
   viewBox="0 0 211.66667 211.66667"
   version="1.1"
   id="svg239"
   xml:space="preserve"
   inkscape:version="1.2.2 (b0a8486541, 2022-12-01)"
   sodipodi:docname="linkedin-icon.svg"
   xmlns:inkscape="http://www.inkscape.org/namespaces/inkscape"
   xmlns:sodipodi="http://sodipodi.sourceforge.net/DTD/sodipodi-0.dtd"
   xmlns="http://www.w3.org/2000/svg"
   xmlns:svg="http://www.w3.org/2000/svg"><sodipodi:namedview
     id="namedview241"
     pagecolor="#ffffff"
     bordercolor="#000000"
     borderopacity="0.25"
     inkscape:showpageshadow="2"
     inkscape:pageopacity="0.0"
     inkscape:pagecheckerboard="0"
     inkscape:deskcolor="#d1d1d1"
     inkscape:document-units="mm"
     showgrid="false"
     inkscape:zoom="0.54876543"
     inkscape:cx="400.89989"
     inkscape:cy="400.89989"
     inkscape:window-width="1600"
     inkscape:window-height="836"
     inkscape:window-x="0"
     inkscape:window-y="0"
     inkscape:window-maximized="1"
     inkscape:current-layer="layer1" /><defs
     id="defs236" /><g
     inkscape:label="Layer 1"
     inkscape:groupmode="layer"
     id="layer1"
     transform="translate(0.72619301,-42.666664)"><g
       id="g369"
       transform="translate(-0.07533534,0.15066913)"><path
         style="fill:#fdfdfe;stroke-width:0.264583"
         d="m -0.71162463,246.1974 0.0145684,-8.13594 0.50442746,1.92524 c 1.76912207,6.75217 7.07657987,12.04633 13.85961577,13.82489 l 1.878695,0.49261 -8.1359374,0.0146 -8.13593758,0.0146 z M 196.60625,253.79662 c 6.71142,-1.7581 12.03941,-7.0861 13.79751,-13.79751 l 0.50758,-1.93765 0.0146,8.13594 0.0146,8.13593 -8.13594,-0.0146 -8.13594,-0.0146 1.93765,-0.50758 z M 32.851359,230.16956 c -0.765834,-0.40446 -1.438545,-1.05575 -1.959843,-1.89744 l -0.79375,-1.2816 -0.07811,-50.68849 c -0.05767,-37.42616 0.0011,-50.9654 0.224232,-51.74682 0.415017,-1.4528 1.393756,-2.67046 2.713471,-3.37588 1.0966,-0.58616 1.249878,-0.59383 13.544569,-0.67749 13.850205,-0.0943 14.513608,-0.0361 16.216593,1.4216 2.088557,1.78772 1.928066,-2.92711 1.847271,54.26889 l -0.0722,51.10796 -0.804754,1.14501 c -0.442617,0.62975 -1.276054,1.41195 -1.852084,1.73821 -1.046549,0.59276 -1.057314,0.5932 -14.43332,0.59755 l -13.385988,0.004 z m 50.416381,0.12679 c -1.140124,-0.7007 -2.171486,-2.00807 -2.490621,-3.15717 -0.409487,-1.47442 -0.380066,-101.27581 0.03034,-102.90567 0.407856,-1.61974 1.853044,-3.06492 3.472784,-3.47278 1.605362,-0.40424 25.805147,-0.42739 27.250277,-0.0261 1.2436,0.34535 2.80083,1.68489 3.27333,2.81573 0.25659,0.61411 0.35746,2.23915 0.35746,5.75882 0,2.69681 0.0893,4.89813 0.19844,4.89183 0.10914,-0.006 0.7854,-0.84342 1.5028,-1.86025 1.5504,-2.1975 5.21004,-5.79368 7.42736,-7.29857 6.49909,-4.41091 15.33047,-6.48451 25.92869,-6.08803 11.76459,0.44011 20.05287,3.73794 26.42903,10.51583 6.60726,7.02356 10.06729,16.59604 11.56461,31.99456 0.42887,4.41048 0.65895,64.05582 0.25291,65.56373 -0.33707,1.25179 -1.56492,2.7939 -2.68623,3.37375 -0.61998,0.32059 -3.03613,0.38335 -14.76016,0.38335 -9.26166,0 -14.27159,-0.0955 -14.76366,-0.28142 -0.91245,-0.34475 -2.11937,-1.45812 -2.62054,-2.41742 -0.31421,-0.60145 -0.37368,-5.0379 -0.37598,-28.04584 -0.003,-27.26335 -0.11678,-31.55607 -0.94975,-35.74408 -1.33506,-6.7125 -4.38489,-11.41983 -8.84517,-13.65227 -3.0285,-1.51582 -5.3712,-1.96713 -9.46942,-1.82427 -2.75866,0.0962 -3.70637,0.24167 -5.33321,0.81886 -6.39894,2.27031 -10.57812,8.02858 -12.75175,17.56999 -0.58554,2.57026 -0.59114,2.80962 -0.73515,31.42957 -0.16217,32.22925 0.002,29.71365 -2.04226,31.2733 l -0.97166,0.74129 -14.043722,0.069 c -13.322424,0.0654 -14.085065,0.0436 -14.848745,-0.42576 z M 44.120683,110.74011 c -5.657274,-0.78237 -11.526235,-4.32152 -14.823615,-8.93907 -2.662052,-3.727852 -4.022622,-7.562668 -4.275163,-12.049699 -0.515734,-9.163312 4.467242,-17.502376 12.862638,-21.525762 3.187388,-1.527515 6.25638,-2.103253 10.410492,-1.952994 3.030898,0.109632 3.834559,0.239482 6.012106,0.971396 3.459676,1.162862 6.266717,2.901388 8.840883,5.475551 2.574163,2.574165 4.31269,5.381207 5.47555,8.840883 0.731914,2.177547 0.861766,2.981208 0.971396,6.012106 0.106934,2.956303 0.03758,3.883591 -0.447482,5.982689 -2.025785,8.76663 -9.177782,15.51068 -18.130086,17.09595 -1.512864,0.2679 -5.253866,0.31614 -6.896719,0.0889 z m -44.83230763,-59.937508 -0.0145684,-8.135938 8.13593763,0.01457 8.1359374,0.01457 -1.862015,0.488372 C 6.8666799,44.972142 1.5824455,50.238415 -0.1926288,57.013302 l -0.50442746,1.925237 z M 210.36233,56.953478 c -1.57966,-6.551016 -7.01967,-11.985004 -13.76849,-13.75325 l -1.92524,-0.504427 8.13594,-0.01457 8.13594,-0.01457 v 8.069792 c 0,4.438385 -0.0298,8.068952 -0.0662,8.067925 -0.0364,-10e-4 -0.26678,-0.833933 -0.512,-1.850903 z"
         id="path385" /><path
         style="fill:#cee4f0;stroke-width:0.264583"
         d="m 4.6811207,248.71094 -0.7771053,-0.8599 0.8598958,0.77711 c 0.8015434,0.72437 0.9815122,0.94268 0.7771054,0.94268 -0.045535,0 -0.4324879,-0.38695 -0.8598959,-0.85989 z m 199.9093593,0.7771 c 0,-0.0455 0.38695,-0.43248 0.85989,-0.85989 l 0.8599,-0.77711 -0.77711,0.8599 c -0.72437,0.80154 -0.94268,0.98151 -0.94268,0.7771 z M 41.162339,230.85175 c 3.46614,-0.0418 9.062078,-0.0418 12.435417,1e-4 3.37334,0.0419 0.537406,0.0761 -6.302073,0.076 -6.83948,-5e-5 -9.599483,-0.0343 -6.133344,-0.0761 z m 50.384907,4e-5 c 3.52888,-0.0417 9.303414,-0.0417 12.832294,0 3.52888,0.0417 0.64161,0.0758 -6.416148,0.0758 -7.057761,0 -9.945026,-0.0341 -6.416146,-0.0758 z m 72.778844,-6e-5 c 3.68454,-0.0415 9.63766,-0.0415 13.22917,9e-5 3.5915,0.0416 0.57688,0.0755 -6.69916,0.0755 -7.27604,-5e-5 -10.21455,-0.0341 -6.53001,-0.0756 z m -82.395128,-1.45538 -0.504029,-0.59531 0.595313,0.50403 c 0.327422,0.27722 0.595312,0.54511 0.595312,0.59531 0,0.21174 -0.212934,0.0554 -0.686596,-0.50403 z m 105.064718,0.0661 c 0.2634,-0.29104 0.53843,-0.52917 0.61119,-0.52917 0.0728,0 -0.0832,0.23813 -0.3466,0.52917 -0.26339,0.29104 -0.53842,0.52917 -0.61118,0.52917 -0.0728,0 0.0832,-0.23813 0.34659,-0.52917 z m -33.87194,-27.91354 c -2e-5,-13.82448 0.0321,-19.51874 0.0713,-12.65392 0.0393,6.86483 0.0393,18.17577 2e-5,25.13542 -0.0392,6.95965 -0.0714,1.34298 -0.0714,-12.4815 z m -0.0656,-29.23646 c 0,-0.50932 0.0545,-0.71768 0.121,-0.46302 0.0665,0.25466 0.0665,0.67138 0,0.92604 -0.0666,0.25466 -0.121,0.0463 -0.121,-0.46302 z m 35.46846,-1.98438 c 0.002,-0.7276 0.0534,-0.99385 0.11418,-0.59167 0.0608,0.40218 0.0592,0.99749 -0.004,1.32292 -0.0628,0.32542 -0.11255,-0.004 -0.11057,-0.73125 z m -68.60276,-41.80416 c 0.34177,-0.36381 0.68094,-0.66146 0.7537,-0.66146 0.0728,0 -0.14734,0.29765 -0.48912,0.66146 -0.34177,0.3638 -0.68094,0.66146 -0.7537,0.66146 -0.0728,0 0.14734,-0.29766 0.48912,-0.66146 z m 23.49831,-9.57345 c 0.19099,-0.0764 0.4192,-0.067 0.50712,0.0209 0.0879,0.0879 -0.0684,0.15046 -0.34727,0.13897 -0.30823,-0.0127 -0.37092,-0.0754 -0.15985,-0.15985 z M 63.038391,104.44687 c 0.341776,-0.3638 0.68094,-0.66146 0.7537,-0.66146 0.07276,0 -0.147341,0.29766 -0.489116,0.66146 -0.341776,0.36381 -0.68094,0.66146 -0.7537,0.66146 -0.07276,0 0.147341,-0.29765 0.489116,-0.66146 z m 6.681306,-15.874997 c 0.0029,-0.582083 0.05712,-0.789054 0.120407,-0.459936 0.06329,0.329118 0.06088,0.805368 -0.0053,1.058334 -0.06622,0.252965 -0.118004,-0.01632 -0.115067,-0.598398 z M 30.759224,73.27554 c 0,-0.04553 0.386953,-0.432488 0.859896,-0.859895 l 0.859896,-0.777106 -0.777105,0.859896 c -0.724371,0.801545 -0.942687,0.981512 -0.942687,0.777105 z m 16.20573,-7.243343 c 0.254661,-0.06655 0.67138,-0.06655 0.926041,0 0.254662,0.06655 0.0463,0.121 -0.463021,0.121 -0.509323,0 -0.717682,-0.05445 -0.46302,-0.121 z M 4.0363071,48.933874 c 0,-0.04554 0.3869531,-0.432488 0.8598958,-0.859896 L 5.7560988,47.296872 4.9789934,48.156768 C 4.2546222,48.958312 4.0363071,49.13828 4.0363071,48.933874 Z m 201.1989829,-0.777106 -0.7771,-0.859896 0.85989,0.777106 c 0.47294,0.427408 0.8599,0.814361 0.8599,0.859896 0,0.204406 -0.21832,0.02444 -0.94269,-0.777106 z"
         id="path383" /><path
         style="fill:#aed3e7;stroke-width:0.264583"
         d="m 115.28873,199.03542 c 0,-15.06141 0.0319,-21.22289 0.071,-13.69219 0.039,7.5307 0.039,19.85367 0,27.38437 -0.039,7.53071 -0.071,1.36922 -0.071,-13.69218 z m 37.79482,-24.20938 c 0.001,-1.01864 0.049,-1.40294 0.10627,-0.85399 0.0573,0.54895 0.0563,1.38238 -0.002,1.85208 -0.0584,0.4697 -0.10531,0.0206 -0.10414,-0.99809 z m 35.40912,-6.21771 c 0,-0.3638 0.06,-0.51263 0.13345,-0.33073 0.0734,0.1819 0.0734,0.47956 0,0.66146 -0.0734,0.1819 -0.13345,0.0331 -0.13345,-0.33073 z m -66.05532,-15.08125 c 0.26339,-0.29104 0.53842,-0.52916 0.61118,-0.52916 0.0728,0 -0.0832,0.23812 -0.3466,0.52916 -0.26339,0.29104 -0.53842,0.52917 -0.61118,0.52917 -0.0728,0 0.0832,-0.23813 0.3466,-0.52917 z m -7.16723,-23.8125 c 0,-2.54661 0.0397,-3.58841 0.0882,-2.3151 0.0485,1.27331 0.0485,3.3569 0,4.63021 -0.0485,1.2733 -0.0882,0.23151 -0.0882,-2.31511 z m 60.73111,-0.99219 -0.9118,-0.99218 0.99219,0.9118 c 0.92351,0.84868 1.11384,1.07257 0.9118,1.07257 -0.0442,0 -0.4907,-0.44648 -0.99219,-0.99219 z M 63.004641,122.10781 c -0.329107,-0.41964 -0.319749,-0.429 0.0999,-0.0999 0.254662,0.19973 0.463021,0.40809 0.463021,0.46303 0,0.21776 -0.217273,0.0776 -0.562917,-0.36313 z M 46.055448,66.03384 c 0.190995,-0.07643 0.419198,-0.06703 0.507119,0.02089 0.08792,0.08792 -0.06835,0.150453 -0.347265,0.138965 -0.308227,-0.01269 -0.37092,-0.07539 -0.159854,-0.159853 z"
         id="path381" /><path
         style="fill:#8dc1de;stroke-width:0.264583"
         d="m 113.30923,229.89177 c 0,-0.0549 0.20835,-0.2633 0.46302,-0.46302 0.41964,-0.32911 0.429,-0.31975 0.0999,0.0999 -0.34564,0.44073 -0.56291,0.58088 -0.56291,0.36312 z M 64.755474,175.61979 c 2e-6,-27.64896 0.03098,-38.92067 0.06884,-25.04824 0.03786,13.87243 0.03786,36.4943 -6e-6,50.27083 -0.03786,13.77654 -0.06884,2.42637 -0.06884,-25.22259 z M 188.49267,167.55 c 0,-0.3638 0.06,-0.51263 0.13345,-0.33073 0.0734,0.1819 0.0734,0.47956 0,0.66146 -0.0734,0.1819 -0.13345,0.0331 -0.13345,-0.33073 z M 47.097245,111.01852 c 0.181901,-0.0734 0.479558,-0.0734 0.661459,0 0.181901,0.0734 0.03307,0.13345 -0.33073,0.13345 -0.363802,0 -0.51263,-0.0601 -0.330729,-0.13345 z m -15.82888,-6.63779 -0.641433,-0.72761 0.727605,0.64144 c 0.680056,0.59951 0.848939,0.81377 0.641432,0.81377 -0.04739,0 -0.374814,-0.32742 -0.727604,-0.7276 z m -6.57367,-15.830905 c 0.0127,-0.308226 0.07539,-0.370919 0.159853,-0.159853 0.07643,0.190995 0.06703,0.419198 -0.02089,0.507119 -0.08792,0.08792 -0.150453,-0.06835 -0.138964,-0.347266 z"
         id="path379" /><path
         style="fill:#60a9d1;stroke-width:0.264583"
         d="m 188.49267,166.49167 c 0,-0.36381 0.06,-0.51263 0.13345,-0.33073 0.0734,0.1819 0.0734,0.47955 0,0.66146 -0.0734,0.1819 -0.13345,0.0331 -0.13345,-0.33073 z m -42.14428,-13.69219 c -0.3291,-0.41965 -0.31975,-0.42901 0.0999,-0.0999 0.44073,0.34565 0.58089,0.56292 0.36312,0.56292 -0.0549,0 -0.2633,-0.20836 -0.46302,-0.46302 z M 31.420682,122.04167 c 0.263391,-0.29105 0.538422,-0.52917 0.611183,-0.52917 0.07276,0 -0.08321,0.23812 -0.346599,0.52917 -0.26339,0.29104 -0.538422,0.52916 -0.611182,0.52916 -0.07276,0 0.08321,-0.23812 0.346598,-0.52916 z m 116.350528,-3.36451 c 0.40018,-0.0606 1.05502,-0.0606 1.4552,0 0.40019,0.0606 0.0728,0.11022 -0.7276,0.11022 -0.80037,0 -1.12779,-0.0496 -0.7276,-0.11022 z M 46.038912,111.01852 c 0.181901,-0.0734 0.479557,-0.0734 0.661458,0 0.181901,0.0734 0.03307,0.13345 -0.330729,0.13345 -0.363802,0 -0.51263,-0.0601 -0.330729,-0.13345 z m 2.133203,-0.005 c 0.190995,-0.0764 0.419198,-0.067 0.507119,0.0209 0.08792,0.0879 -0.06835,0.15046 -0.347266,0.13897 -0.308226,-0.0127 -0.370919,-0.0754 -0.159853,-0.15985 z M 24.715584,89.497915 c 0,-0.363802 0.06005,-0.51263 0.133452,-0.330729 0.0734,0.181901 0.0734,0.479557 0,0.661458 -0.0734,0.181901 -0.133452,0.03307 -0.133452,-0.330729 z m 0,-1.852084 c 0,-0.363802 0.06005,-0.51263 0.133452,-0.330729 0.0734,0.181901 0.0734,0.479558 0,0.661459 -0.0734,0.181901 -0.133452,0.03307 -0.133452,-0.33073 z"
         id="path377" /><path
         style="fill:#3391c4;stroke-width:0.264583"
         d="m 31.254641,229.26406 c -0.329108,-0.41964 -0.319749,-0.429 0.0999,-0.0999 0.440729,0.34564 0.580887,0.56291 0.363124,0.56291 -0.05494,0 -0.2633,-0.20836 -0.46302,-0.46302 z m -1.424176,-53.51198 c 0,-27.5762 0.03098,-38.85737 0.06885,-25.06927 0.03787,13.7881 0.03787,36.35044 0,50.13854 -0.03787,13.7881 -0.06885,2.50693 -0.06885,-25.06927 z m 122.922565,-5.71059 c 0.0127,-0.30822 0.0754,-0.37092 0.15985,-0.15985 0.0764,0.19099 0.067,0.4192 -0.0209,0.50712 -0.0879,0.0879 -0.15046,-0.0683 -0.13897,-0.34727 z m 35.73964,-4.60816 c 0,-0.3638 0.06,-0.51263 0.13345,-0.33073 0.0734,0.1819 0.0734,0.47956 0,0.66146 -0.0734,0.1819 -0.13345,0.0331 -0.13345,-0.33073 z m -52.2143,-16.5849 c 0.19099,-0.0764 0.4192,-0.067 0.50712,0.0209 0.0879,0.0879 -0.0684,0.15045 -0.34727,0.13897 -0.30823,-0.0127 -0.37092,-0.0754 -0.15985,-0.15985 z m 9.64075,-30.16415 c 0.25466,-0.0666 0.67138,-0.0666 0.92604,0 0.25466,0.0665 0.0463,0.121 -0.46302,0.121 -0.50932,0 -0.71768,-0.0545 -0.46302,-0.121 z m 4.10104,0.007 c 0.1819,-0.0734 0.47956,-0.0734 0.66146,0 0.1819,0.0734 0.0331,0.13346 -0.33073,0.13346 -0.3638,0 -0.51263,-0.0601 -0.33073,-0.13346 z m -86.345448,-45.663818 -0.504029,-0.595313 0.595313,0.504029 c 0.559445,0.473662 0.715761,0.686596 0.504028,0.686596 -0.05021,0 -0.318098,-0.26789 -0.595312,-0.595312 z m -1.199238,-1.190625 c -0.329107,-0.419645 -0.319749,-0.429003 0.0999,-0.0999 0.44073,0.345644 0.580888,0.562917 0.363125,0.562917 -0.05494,0 -0.2633,-0.20836 -0.463021,-0.463021 z"
         id="path375" /><path
         style="fill:#1782bb;stroke-width:0.264583"
         d="m 17.480448,254.15259 c 0.190996,-0.0764 0.419199,-0.067 0.507118,0.0209 0.08792,0.0879 -0.06835,0.15045 -0.347266,0.13896 -0.308224,-0.0127 -0.370919,-0.0754 -0.159852,-0.15985 z m 174.889582,0 c 0.191,-0.0764 0.4192,-0.067 0.50712,0.0209 0.0879,0.0879 -0.0684,0.15045 -0.34726,0.13896 -0.30823,-0.0127 -0.37092,-0.0754 -0.15986,-0.15985 z m -187.5599982,-5.57394 -0.6414331,-0.72761 0.7276042,0.64143 c 0.4001823,0.35279 0.7276042,0.68022 0.7276042,0.72761 0,0.20751 -0.2142593,0.0386 -0.8137753,-0.64143 z m 200.3096082,0.0661 c 0.34178,-0.3638 0.68094,-0.66146 0.7537,-0.66146 0.0728,0 -0.14734,0.29766 -0.48911,0.66146 -0.34178,0.3638 -0.68094,0.66146 -0.7537,0.66146 -0.0728,0 0.14734,-0.29766 0.48911,-0.66146 z m 5.57714,-12.72205 c 0.0127,-0.30822 0.0754,-0.37092 0.15985,-0.15985 0.0764,0.191 0.067,0.4192 -0.0209,0.50712 -0.0879,0.0879 -0.15046,-0.0684 -0.13897,-0.34727 z m -23.83339,-6.03097 c 0,-0.0549 0.20836,-0.2633 0.46302,-0.46302 0.41965,-0.32911 0.42901,-0.31975 0.0999,0.0999 -0.34564,0.44073 -0.56292,0.58088 -0.56292,0.36312 z M 80.365904,175.61979 c -5e-6,-27.79448 0.03097,-39.20418 0.06882,-25.35489 0.03786,13.84929 0.03786,36.59023 6e-6,50.53542 -0.03785,13.94519 -0.06883,2.61395 -0.06883,-25.18053 z m 53.266626,-26.77136 c 0.191,-0.0764 0.4192,-0.067 0.50712,0.0209 0.0879,0.0879 -0.0683,0.15045 -0.34726,0.13897 -0.30823,-0.0127 -0.37092,-0.0754 -0.15986,-0.15985 z m 1.85209,0 c 0.19099,-0.0764 0.4192,-0.067 0.50712,0.0209 0.0879,0.0879 -0.0684,0.15045 -0.34727,0.13897 -0.30823,-0.0127 -0.37092,-0.0754 -0.15985,-0.15985 z m -15.6931,-20.45676 c 0.26339,-0.29105 0.53842,-0.52917 0.61118,-0.52917 0.0728,0 -0.0832,0.23812 -0.3466,0.52917 -0.26339,0.29104 -0.53842,0.52916 -0.61118,0.52916 -0.0728,0 0.0832,-0.23812 0.3466,-0.52916 z m -78.496963,-8.13574 c 3.393337,-0.0419 8.870212,-0.0419 12.170833,10e-5 3.300619,0.042 0.524251,0.0762 -6.169707,0.0762 -6.693959,-5e-5 -9.394466,-0.0344 -6.001126,-0.0763 z m 50.384981,3e-5 c 3.456119,-0.0418 9.111592,-0.0418 12.567712,0 3.45612,0.0418 0.62838,0.076 -6.283858,0.076 -6.91224,0 -9.739974,-0.0342 -6.283854,-0.076 z m 53.048962,-1.56452 c 0.1819,-0.0734 0.47955,-0.0734 0.66146,0 0.1819,0.0734 0.0331,0.13345 -0.33073,0.13345 -0.36381,0 -0.51263,-0.06 -0.33073,-0.13345 z M 63.302975,104.44687 c 0.341775,-0.3638 0.680939,-0.66146 0.7537,-0.66146 0.07276,0 -0.147341,0.29766 -0.489117,0.66146 -0.341776,0.36381 -0.68094,0.66146 -0.7537,0.66146 -0.07276,0 0.147341,-0.29765 0.489117,-0.66146 z M 31.288391,72.432289 c 0.341775,-0.363802 0.680939,-0.661458 0.7537,-0.661458 0.07276,0 -0.147341,0.297656 -0.489117,0.661458 -0.341775,0.363803 -0.680939,0.661459 -0.7537,0.661459 -0.07276,0 0.147341,-0.297656 0.489117,-0.661459 z M 210.69678,61.033157 c 0.0127,-0.308224 0.0754,-0.370919 0.15985,-0.159852 0.0764,0.190996 0.067,0.419199 -0.0209,0.507118 -0.0879,0.08792 -0.15046,-0.06835 -0.13897,-0.347266 z M 4.8300571,48.355206 c 0.3417742,-0.363802 0.6809391,-0.661459 0.7536995,-0.661459 0.07276,0 -0.147342,0.297657 -0.4891162,0.661459 -0.3417742,0.363802 -0.6809391,0.661458 -0.7536995,0.661458 -0.07276,0 0.147342,-0.297656 0.4891162,-0.661458 z m 200.2695629,-0.06615 -0.64143,-0.727604 0.7276,0.641433 c 0.68006,0.599516 0.84894,0.813775 0.64143,0.813775 -0.0474,0 -0.37481,-0.327422 -0.7276,-0.727604 z M 17.480448,42.750507 c 0.190996,-0.07643 0.419199,-0.06703 0.507118,0.02089 0.08792,0.08792 -0.06835,0.150453 -0.347266,0.138964 -0.308224,-0.0127 -0.370919,-0.07539 -0.159852,-0.159852 z m 174.889582,0 c 0.191,-0.07643 0.4192,-0.06703 0.50712,0.02089 0.0879,0.08792 -0.0684,0.150453 -0.34726,0.138964 -0.30823,-0.0127 -0.37092,-0.07539 -0.15986,-0.159852 z"
         id="path373" /><path
         style="fill:#0076b6;stroke-width:0.264583"
         d="M 16.207141,254.05183 C 12.079062,253.61265 7.8274037,251.47954 4.8121062,248.3348 1.7660829,245.15801 0.03582304,241.49895 -0.45789884,237.19006 -0.82140489,234.01762 -0.82011603,62.971166 -0.45656216,59.798171 0.57048783,50.834368 7.5934808,43.876256 16.568374,42.930517 c 3.285012,-0.346162 173.803426,-0.345005 177.089146,0.0012 9.03835,0.952344 16.06595,7.984236 17.0191,17.029513 0.34509,3.274812 0.34509,173.80273 0,177.07754 -0.4606,4.37108 -2.18477,8.07356 -5.24715,11.26776 -3.19897,3.33666 -7.1611,5.27592 -11.77195,5.76175 -2.9574,0.31161 -174.516222,0.29571 -177.450379,-0.0164 z m 45.378312,-23.49527 c 1.333894,-0.60598 2.663346,-2.10132 3.024529,-3.40193 0.189291,-0.68164 0.276164,-17.11025 0.273206,-51.66713 -0.0042,-48.44619 -0.02548,-50.71411 -0.486336,-51.72604 -0.641167,-1.40781 -2.401199,-2.96018 -3.65778,-3.2262 -0.554384,-0.11736 -6.782504,-0.21339 -13.840264,-0.21339 -12.02045,0 -12.890879,0.0313 -13.758334,0.49397 -1.301006,0.69399 -2.077691,1.45459 -2.737728,2.68103 l -0.569564,1.05834 v 51.19687 51.19688 l 0.592871,1.10915 c 0.606544,1.13473 1.822357,2.23275 2.98691,2.69752 0.397534,0.15865 5.835854,0.26512 13.88272,0.27179 12.245041,0.0101 13.308065,-0.0249 14.28977,-0.47086 z m 51.633267,-0.46065 c 0.5591,-0.452 1.25467,-1.2259 1.54571,-1.71979 0.51799,-0.87902 0.53226,-1.5102 0.67517,-29.86987 0.14349,-28.47288 0.15582,-29.01378 0.71611,-31.40454 1.60965,-6.86834 4.0065,-11.38384 7.65386,-14.41936 3.08381,-2.56651 6.55071,-3.71195 11.19983,-3.70035 5.21472,0.013 8.65149,1.30567 11.81122,4.44252 2.89199,2.87105 4.62334,6.81473 5.69008,12.96092 0.22689,1.30727 0.35974,10.28764 0.46762,31.61126 l 0.1507,29.78524 0.6376,0.93028 c 0.35068,0.51166 1.05622,1.21721 1.56788,1.56789 l 0.93028,0.6376 14.27587,0.0728 c 14.1804,0.0724 14.2838,0.069 15.4616,-0.50115 0.79659,-0.38562 1.43983,-0.97395 1.95995,-1.79264 l 0.77421,-1.21864 -0.0885,-32.94063 c -0.0973,-36.21509 -0.062,-35.34708 -1.78775,-43.92083 -3.15771,-15.68791 -11.01163,-25.64276 -23.47009,-29.74838 -9.05935,-2.98546 -22.19059,-2.93438 -31.34908,0.12193 -6.09801,2.03499 -11.63633,6.05226 -15.31545,11.1092 l -1.16733,1.60449 -0.13229,-4.99495 c -0.13047,-4.9263 -0.14234,-5.00943 -0.86353,-6.04903 -0.40218,-0.57974 -1.23562,-1.34297 -1.85208,-1.69607 l -1.12085,-0.64199 H 98.360267 c -7.276042,0 -13.68615,0.0967 -14.244683,0.21481 -1.572532,0.33262 -3.223485,2.13344 -3.593698,3.91992 -0.211875,1.02242 -0.274746,15.64689 -0.223932,52.08923 l 0.07065,50.66771 0.589322,1.1022 c 0.586653,1.0972 1.569694,1.97266 2.756377,2.45472 0.375126,0.15239 6.167054,0.23204 14.555459,0.20018 l 13.932398,-0.0529 z M 51.251767,110.79168 c 10.825404,-1.88779 18.665791,-11.221009 18.665791,-22.219807 0,-6.069666 -2.17043,-11.454646 -6.35,-15.754771 -4.714243,-4.85022 -10.463128,-7.103951 -17.31282,-6.787132 -3.546335,0.164029 -5.444922,0.601184 -8.270386,1.90428 -2.661401,1.227432 -4.625181,2.588949 -6.639491,4.603259 -8.586768,8.586769 -8.857559,22.360073 -0.615249,31.293491 5.295043,5.73903 12.844325,8.29959 20.522155,6.96068 z"
         id="path371" /></g></g></svg>
