<?xml version="1.0" encoding="UTF-8" standalone="no"?>
<!-- Created with Inkscape (http://www.inkscape.org/) -->

<svg
   version="1.1"
   id="svg242"
   width="800"
   height="800"
   viewBox="0 0 800 800"
   sodipodi:docname="linkedin-icon.svg"
   inkscape:version="1.2.2 (b0a8486541, 2022-12-01)"
   xmlns:inkscape="http://www.inkscape.org/namespaces/inkscape"
   xmlns:sodipodi="http://sodipodi.sourceforge.net/DTD/sodipodi-0.dtd"
   xmlns="http://www.w3.org/2000/svg"
   xmlns:svg="http://www.w3.org/2000/svg">
  <defs
     id="defs246">
    <filter
       style="color-interpolation-filters:sRGB;"
       inkscape:label="Greyscale"
       id="filter2906"
       x="0"
       y="0"
       width="1"
       height="1">
      <feColorMatrix
         values="0.21 0.72 0.072 0 0 0.21 0.72 0.072 0 0 0.21 0.72 0.072 0 0 0 0 0 1 0 "
         id="feColorMatrix2904" />
    </filter>
  </defs>
  <sodipodi:namedview
     id="namedview244"
     pagecolor="#ffffff"
     bordercolor="#000000"
     borderopacity="0.25"
     inkscape:showpageshadow="2"
     inkscape:pageopacity="0.0"
     inkscape:pagecheckerboard="0"
     inkscape:deskcolor="#d1d1d1"
     showgrid="false"
     inkscape:zoom="0.85"
     inkscape:cx="341.76471"
     inkscape:cy="260"
     inkscape:window-width="1600"
     inkscape:window-height="836"
     inkscape:window-x="0"
     inkscape:window-y="0"
     inkscape:window-maximized="1"
     inkscape:current-layer="g248" />
  <g
     inkscape:groupmode="layer"
     inkscape:label="Image"
     id="g248">
    <g
       id="g423"
       transform="translate(0.51470116,3.1893383)"
       style="filter:url(#filter2906)">
      <path
         style="fill:#fcfcfd"
         d="m 0.07949983,768.25 c 0.07253693,-28.96921 0.19689196,-31.2245 1.41983827,-25.75 2.5578186,11.45003 7.2669537,21.60803 13.9076669,30 1.740898,2.2 3.946881,5.2375 4.902185,6.75 0.955304,1.5125 2.195757,2.75 2.756563,2.75 0.560805,0 3.387066,1.74892 6.280579,3.88648 7.348077,5.42834 16.650171,9.93874 25.026342,12.13478 L 61.5,799.88988 30.75,799.94494 0,800 Z M 745,797.94163 c 11.5319,-2.99561 20.2044,-7.67256 33.25,-17.93123 1.5125,-1.18938 2.75,-2.61926 2.75,-3.17749 0,-0.55824 1.52326,-2.79456 3.38501,-4.96961 6.59368,-7.70323 11.69114,-19.40468 14.09831,-32.3633 1.18696,-6.38982 1.30973,-4.05804 1.40849,26.75 L 800,800 768.75,799.9449 737.5,799.8898 745,797.94155 Z M 799.37817,719 c 0,-6.325 0.16237,-8.9125 0.36082,-5.75 0.19845,3.1625 0.19845,8.3375 0,11.5 -0.19845,3.1625 -0.36082,0.575 -0.36082,-5.75 z M 133,711.35574 c -1.375,-0.22861 -3.50343,-0.63347 -4.72983,-0.89969 -2.42049,-0.52542 -7.72863,-5.26032 -10.51358,-9.37821 -1.643,-2.42937 -1.74379,-13.7687 -1.75,-196.8775 -0.007,-212.09031 -0.45006,-196.30259 5.69092,-202.87652 C 127.80864,294.78184 125.74552,295 181.5,295 c 56.46343,0 53.10484,-0.40698 60.20456,7.29532 3.81084,4.13427 4.14692,4.97059 4.75266,11.82677 0.35851,4.05785 0.5148,92.23596 0.34731,195.95135 L 246.5,698.64687 l -2.5,3.6928 c -1.375,2.03103 -4.26092,4.92298 -6.41316,6.42656 l -3.91316,2.73377 -49.08684,0.13569 C 157.58908,711.71032 134.375,711.58434 133,711.35574 Z m 187.85094,-0.29691 c -3.97203,-0.77412 -9.37038,-4.78066 -12.03667,-8.93335 -1.56392,-2.43578 -1.70415,-16.68195 -1.94073,-197.16575 l -0.25501,-194.54026 2.2931,-4.73693 c 1.26121,-2.6053 3.8988,-5.96218 5.86132,-7.45973 l 3.56821,-2.72281 52.57278,-0.7024 52.57278,-0.70241 4.22275,2.4747 c 2.32252,1.36109 5.45693,4.09278 6.96536,6.07044 2.69698,3.53592 2.75408,3.9109 3.43298,22.54346 0.37971,10.42126 0.88591,19.14327 1.12489,19.38224 0.23897,0.23898 2.13599,-2.03599 4.2156,-5.05549 2.0796,-3.01949 7.44198,-9.08945 11.9164,-13.4888 20.33525,-19.99407 40.87561,-29.93758 72.6353,-35.16246 15.88266,-2.6129 48.9787,-2.85434 64.70231,-0.472 32.7249,4.95826 55.3548,15.75021 75.06731,35.79877 10.70454,10.88703 16.77994,19.31284 23.74831,32.93591 9.72917,19.02039 18.44632,50.56313 21.61242,78.20384 1.14669,10.01085 2.5064,258.00104 1.43794,262.25813 -0.89071,3.54888 -8.14711,10.20474 -12.41913,11.39133 -2.25132,0.62532 -23.79383,1.01572 -56.23813,1.01916 L 593.32206,712 589.7715,709.25 c -1.9528,-1.5125 -4.51652,-4.15157 -5.69715,-5.8646 -2.08208,-3.02099 -2.16073,-4.26838 -2.61644,-41.5 -0.25841,-21.11197 -0.66616,-72.1354 -0.90612,-113.3854 -0.46443,-79.83962 -0.62974,-82.75243 -5.62118,-99.04614 -2.61969,-8.55151 -8.91073,-20.88644 -13.29968,-26.07685 -1.80309,-2.13236 -3.56856,-4.66451 -3.92326,-5.62701 -0.35469,-0.9625 -1.10465,-1.75 -1.66657,-1.75 -0.56192,0 -3.83854,-1.92822 -7.28138,-4.28494 -20.88097,-14.29358 -56.91952,-12.92467 -76.42802,2.90309 -2.29256,1.86002 -4.64851,3.38185 -5.23544,3.38185 -1.07939,0 -1.71085,0.84096 -10.47411,13.94915 -5.68043,8.49685 -10.546,20.03103 -14.2509,33.78281 -2.58081,9.57937 -2.64683,10.61789 -3.41825,53.76804 -0.43264,24.2 -0.85607,71.675 -0.94095,105.5 -0.0849,33.825 -0.47139,64.98206 -0.85889,69.23792 -0.69022,7.58065 -0.80487,7.83978 -5.64126,12.75 L 426.57518,712 375.53759,711.885 c -28.07067,-0.0633 -52.67967,-0.43503 -54.68665,-0.82617 z M 581.70726,498.76166 c -0.23919,-1.24391 -0.44398,-0.46166 -0.45508,1.73834 -0.0111,2.2 0.18461,3.21775 0.4349,2.26166 0.25029,-0.95609 0.25937,-2.75609 0.0202,-4 z M 165.64433,257.37049 C 139.72869,252.79048 116.20036,234.51526 104.54318,209.91125 99.007371,198.22718 96.929329,188.52101 96.854762,174 c -0.130556,-25.42456 7.993398,-44.11191 27.067968,-62.26383 7.28397,-6.93164 10.80694,-9.41455 19.24663,-13.56456 14.73805,-7.247079 20.31884,-8.481818 38.33064,-8.480582 13.37444,9.17e-4 15.95329,0.289629 23.79659,2.664122 15.41527,4.666844 26.61918,11.58423 37.87222,23.38261 16.22078,17.00686 23.57506,37.25797 22.58415,62.18883 -0.59735,15.02895 -3.99754,26.95923 -11.1634,39.16919 -4.84,8.24689 -17.16833,21.51053 -24.91626,26.80658 -6.92023,4.73028 -20.03576,10.59685 -28.1733,12.6019 -9.04093,2.22765 -25.85385,2.63382 -35.85567,0.86623 z M 799.37407,82.5 c 0.002,-6.05 0.16696,-8.396069 0.36601,-5.213487 0.19905,3.182582 0.1972,8.132582 -0.004,11 C 799.53467,91.153931 799.37181,88.55 799.37407,82.5 Z M 798.61091,63.346579 C 797.65247,55.191721 793.4975,43.498515 788.89381,36 782.79963,26.073787 779.07426,21.110108 776.80843,19.897476 775.676,19.291414 772.66833,17.198458 770.12473,15.246462 762.63963,9.5022852 750.38376,4.1448067 739.9598,2.0602892 L 730.5,0.16857938 765.25,0.08428969 800,0 v 34.5 c 0,18.975 -0.16304,34.5 -0.36232,34.5 -0.19927,0 -0.66132,-2.54404 -1.02677,-5.653421 z M 0.07949983,32.25 0,0 34.75,0.10818866 C 66.953342,0.2084487 68.962601,0.31450692 62.167006,1.5553883 52.33401,3.3509016 45.715802,5.5628797 38.441277,9.4851466 30.695735,13.661376 17.87738,22.99258 18.500651,24.001054 18.763182,24.425837 18.344855,25.298833 17.571036,25.941045 12.437826,30.201231 3.8549052,47.554787 1.4676544,58.5 0.28772764,63.9098 0.15117954,61.327676 0.07949983,32.25 Z M 91.31765,0.25085509 c 11.99971,-0.15963018 31.34971,-0.15943585 43,4.3185e-4 C 145.96794,0.41115464 136.15,0.54176115 112.5,0.54152363 88.85,0.54128612 79.317943,0.41048527 91.31765,0.25085509 Z M 665.25,0.25104356 c 11.9625,-0.15952653 31.5375,-0.15952653 43.5,0 11.9625,0.15952652 2.175,0.29004822 -21.75,0.29004822 -23.925,0 -33.7125,-0.1305217 -21.75,-0.29004822 z"
         id="path439" />
      <path
         style="fill:#d0e5f0"
         d="m 774.73333,781.87591 c 0.67834,-0.68342 1.48524,-0.99067 1.79313,-0.68278 0.30789,0.30789 -0.24711,0.86705 -1.23333,1.24258 -1.4252,0.54268 -1.54006,0.42782 -0.5598,-0.5598 z M 20.872445,780.25 c -1.269516,-1.61876 -1.222451,-1.63998 0.627555,-0.28297 1.1,0.80687 2.1875,1.59437 2.416667,1.75 0.229166,0.15563 -0.05323,0.28297 -0.627556,0.28297 -0.574322,0 -1.661822,-0.7875 -2.416666,-1.75 z m 758.691845,-2.54313 c 0.37553,-0.98622 0.93469,-1.54122 1.24258,-1.23333 0.30789,0.30789 6.4e-4,1.11479 -0.68278,1.79313 -0.98762,0.98026 -1.10248,0.8654 -0.5598,-0.5598 z M 131.75,711.33772 c 0.6875,-0.27741 1.8125,-0.27741 2.5,0 0.6875,0.27741 0.125,0.50439 -1.25,0.50439 -1.375,0 -1.9375,-0.22698 -1.25,-0.50439 z m 190.0625,-0.0208 c 0.72187,-0.28887 1.58438,-0.25335 1.91667,0.0789 0.33229,0.33229 -0.25834,0.56864 -1.3125,0.52522 -1.16495,-0.048 -1.4019,-0.28494 -0.60417,-0.60416 z M 313.40499,707.75 311.5,705.5 l 2.25,1.90499 c 2.11444,1.79022 2.70524,2.59501 1.90499,2.59501 -0.18976,0 -1.20226,-1.0125 -2.25,-2.25 z M 708,707.62244 c 0,-0.20765 0.7875,-0.99515 1.75,-1.75 1.58606,-1.24387 1.62143,-1.2085 0.37756,0.37756 C 708.82119,707.91575 708,708.44548 708,707.62244 Z M 799.41683,689.5 c 9.6e-4,-10.45 0.14915,-14.58913 0.3293,-9.19806 0.18015,5.39107 0.17936,13.94107 -0.002,19 -0.18111,5.05893 -0.32851,0.64806 -0.32755,-9.80194 z m -218.03507,-1 c 0.002,-6.6 0.16382,-9.16987 0.35965,-5.71081 0.19583,3.45905 0.19422,8.85905 -0.004,12 -0.19781,3.14094 -0.35803,0.31081 -0.35606,-6.28919 z m 133.99231,0 c 0.002,-6.05 0.16696,-8.39607 0.36601,-5.21349 0.19905,3.18258 0.1972,8.13258 -0.004,11 -0.20131,2.86742 -0.36417,0.26349 -0.36191,-5.78651 z M 306.47459,625 c 0,-40.425 0.12376,-56.9625 0.27503,-36.75 0.15126,20.2125 0.15126,53.2875 0,73.5 -0.15127,20.2125 -0.27503,3.675 -0.27503,-36.75 z m -191.01745,31 c 0,-22.825 0.13128,-32.1625 0.29172,-20.75 0.16044,11.4125 0.16044,30.0875 0,41.5 -0.16044,11.4125 -0.29172,2.075 -0.29172,-20.75 z m 130.62181,39.41667 c 0.048,-1.16495 0.28494,-1.4019 0.60416,-0.60417 0.28887,0.72187 0.25335,1.58438 -0.0789,1.91667 -0.3323,0.33229 -0.56864,-0.25834 -0.52522,-1.3125 z M 437.15789,691 c 0,-1.375 0.22698,-1.9375 0.50439,-1.25 0.27741,0.6875 0.27741,1.8125 0,2.5 -0.27741,0.6875 -0.50439,0.125 -0.50439,-1.25 z m 1.24205,-125.5 c 10e-4,-8.25 0.15629,-11.49193 0.34419,-7.20429 0.1879,4.28763 0.18676,11.03763 -0.003,15 -0.1893,3.96236 -0.34304,0.45429 -0.34164,-7.79571 z M 306.07895,547.41667 c 0.048,-1.16495 0.28494,-1.4019 0.60416,-0.60417 0.28887,0.72187 0.25335,1.58438 -0.0789,1.91667 -0.33229,0.33229 -0.56864,-0.25834 -0.52522,-1.3125 z M 580.34941,524 c 0,-4.675 0.17226,-6.5875 0.3828,-4.25 0.21053,2.3375 0.21053,6.1625 0,8.5 -0.21054,2.3375 -0.3828,0.425 -0.3828,-4.25 z m 0.90277,-23.5 c 0.0111,-2.2 0.21589,-2.98225 0.45508,-1.73834 0.23919,1.24391 0.23011,3.04391 -0.0202,4 -0.25029,0.95609 -0.446,-0.0617 -0.4349,-2.26166 z M 439.15789,485 c 0,-1.375 0.22698,-1.9375 0.50439,-1.25 0.27741,0.6875 0.27741,1.8125 0,2.5 -0.27741,0.6875 -0.50439,0.125 -0.50439,-1.25 z m 139.92106,-12.58333 c 0.048,-1.16495 0.28494,-1.4019 0.60416,-0.60417 0.28887,0.72187 0.25335,1.58438 -0.0789,1.91667 -0.33229,0.33229 -0.56864,-0.25834 -0.52522,-1.3125 z M 714.27236,470 c 0,-2.475 0.19502,-3.4875 0.43337,-2.25 0.23836,1.2375 0.23836,3.2625 0,4.5 -0.23835,1.2375 -0.43337,0.225 -0.43337,-2.25 z M 306.45018,427.5 c 3.4e-4,-19.25 0.13469,-26.98347 0.29856,-17.1855 0.16386,9.79798 0.16358,25.54798 -6.2e-4,35 -0.16421,9.45203 -0.29828,1.4355 -0.29794,-17.8145 z m 406.62877,14.91667 c 0.048,-1.16495 0.28494,-1.4019 0.60416,-0.60417 0.28887,0.72187 0.25335,1.58438 -0.0789,1.91667 -0.33229,0.33229 -0.56864,-0.25834 -0.52522,-1.3125 z M 463.86966,421.30569 c 1.20682,-2.32069 2.97537,-3.794 3.69293,-3.07644 0.23624,0.23624 -0.75477,1.5188 -2.20225,2.85014 -2.50913,2.30781 -2.5786,2.31835 -1.49068,0.2263 z m 92.69463,-4.01256 c -0.54268,-1.4252 -0.42782,-1.54006 0.5598,-0.5598 0.68342,0.67834 0.99067,1.48524 0.68278,1.79313 -0.30789,0.30789 -0.86705,-0.24711 -1.24258,-1.23333 z M 115.45714,351 c 0,-22.825 0.13128,-32.1625 0.29172,-20.75 0.16044,11.4125 0.16044,30.0875 0,41.5 -0.16044,11.4125 -0.29172,2.075 -0.29172,-20.75 z m 190.90809,-15.5 c 0.003,-5.5 0.17053,-7.62242 0.37317,-4.71648 0.20265,2.90594 0.20052,7.40594 -0.005,10 C 306.52842,343.37758 306.36263,341 306.36523,335.5 Z M 438.232,334 c 0,-1.925 0.2058,-2.7125 0.45733,-1.75 0.25152,0.9625 0.25152,2.5375 0,3.5 -0.25153,0.9625 -0.45733,0.175 -0.45733,-1.75 z M 449,331.62244 c 0,-0.20765 0.7875,-0.99515 1.75,-1.75 1.58606,-1.24387 1.62143,-1.2085 0.37756,0.37756 C 449.82119,331.91575 449,332.44548 449,331.62244 Z M 669,327.5 c -2.42903,-2.475 -4.19142,-4.5 -3.91642,-4.5 0.275,0 2.48739,2.025 4.91642,4.5 2.42903,2.475 4.19142,4.5 3.91642,4.5 -0.275,0 -2.48739,-2.025 -4.91642,-4.5 z m -211,-4.87756 c 0,-0.20765 0.7875,-0.99515 1.75,-1.75 1.58606,-1.24387 1.62143,-1.2085 0.37756,0.37756 C 458.82119,322.91575 458,323.44548 458,322.62244 Z M 661.87244,320.25 c -1.24387,-1.58606 -1.2085,-1.62143 0.37756,-0.37756 1.66575,1.30637 2.19548,2.12756 1.37244,2.12756 -0.20765,0 -0.99515,-0.7875 -1.75,-1.75 z M 120,302.62244 c 0,-0.20765 0.7875,-0.99515 1.75,-1.75 1.58606,-1.24387 1.62143,-1.2085 0.37756,0.37756 C 120.82119,302.91575 120,303.44548 120,302.62244 Z m 38.25,-8.37092 c 9.7625,-0.16372 25.7375,-0.16372 35.5,0 9.7625,0.16372 1.775,0.29768 -17.75,0.29768 -19.525,0 -27.5125,-0.13396 -17.75,-0.29768 z m 182,0.0591 c 0.9625,-0.25152 2.5375,-0.25152 3.5,0 0.9625,0.25153 0.175,0.45733 -1.75,0.45733 -1.925,0 -2.7125,-0.2058 -1.75,-0.45733 z m 19.55735,-0.0581 c 6.76904,-0.17326 17.56904,-0.17273 24,10e-4 6.43096,0.17391 0.89265,0.31567 -12.30735,0.31502 -13.2,-6.6e-4 -18.46169,-0.14295 -11.69265,-0.31621 z M 554.75,288.33772 c 0.6875,-0.27741 1.8125,-0.27741 2.5,0 0.6875,0.27741 0.125,0.50439 -1.25,0.50439 -1.375,0 -1.9375,-0.22698 -1.25,-0.50439 z m 7.51903,-0.0307 c 0.97297,-0.25354 2.32297,-0.23687 3,0.0371 0.67703,0.27393 -0.11903,0.48137 -1.76903,0.46099 -1.65,-0.0204 -2.20394,-0.2445 -1.23097,-0.49804 z m 10.48097,0.0307 c 0.6875,-0.27741 1.8125,-0.27741 2.5,0 0.6875,0.27741 0.125,0.50439 -1.25,0.50439 -1.375,0 -1.9375,-0.22698 -1.25,-0.50439 z M 240.5,234 c 0.99549,-1.1 2.03498,-2 2.30998,-2 0.275,0 -0.31449,0.9 -1.30998,2 -0.99549,1.1 -2.03498,2 -2.30998,2 -0.275,0 0.31449,-0.9 1.30998,-2 z M 96.078947,180.41667 c 0.04798,-1.16495 0.284941,-1.4019 0.604167,-0.60417 0.288871,0.72187 0.253344,1.58437 -0.07895,1.91667 -0.332292,0.33229 -0.568641,-0.25834 -0.52522,-1.3125 z M 799.41508,111 c 0,-10.175 0.1485,-14.3375 0.32999,-9.25 0.18149,5.0875 0.18149,13.4125 0,18.5 -0.18149,5.0875 -0.32999,0.925 -0.32999,-9.25 z M 123,111.62244 c 0,-0.20765 0.7875,-0.99515 1.75,-1.75 1.58606,-1.24387 1.62143,-1.2085 0.37756,0.37756 C 123.82119,111.91575 123,112.44548 123,111.62244 Z M 18,23.622445 c 0,-0.207656 0.7875,-0.995156 1.75,-1.75 C 21.336056,20.628574 21.371426,20.663944 20.127555,22.25 18.821186,23.915748 18,24.445479 18,23.622445 Z M 778.40499,21.75 776.5,19.5 l 2.25,1.904988 c 1.2375,1.047743 2.25,2.060243 2.25,2.25 0,0.800253 -0.80479,0.209457 -2.59501,-1.904988 z M 188.75,0.25044065 c 18.8375,-0.15218275 49.6625,-0.15218275 68.5,0 18.8375,0.15218276 3.425,0.27669592 -34.25,0.27669592 -37.675,0 -53.0875,-0.12451316 -34.25,-0.27669592 z m 354.07303,-8.585e-5 c 18.87767,-0.15222998 49.47767,-0.15214593 68,1.8677e-4 C 629.34536,0.40287427 613.9,0.52742607 576.5,0.52732334 539.1,0.52722062 523.94536,0.40258477 542.82303,0.2503548 Z"
         id="path437" />
      <path
         style="fill:#a4cde4"
         d="m 0.2320027,733 c 0,-1.925 0.20579527,-2.7125 0.45732281,-1.75 0.25152755,0.9625 0.25152755,2.5375 0,3.5 C 0.43779797,735.7125 0.2320027,734.925 0.2320027,733 Z M 715.43961,650.5 c 5e-4,-15.4 0.13932,-21.56027 0.30848,-13.6895 0.16916,7.87078 0.16875,20.47078 -9.2e-4,28 -0.16966,7.52923 -0.30807,1.0895 -0.30756,-14.3105 z m 83.97722,2 c 9.6e-4,-10.45 0.14915,-14.58913 0.3293,-9.19806 0.18015,5.39107 0.17936,13.94107 -0.002,19 -0.18111,5.05893 -0.32851,0.64806 -0.32755,-9.80194 z m -683.95924,-79 c 2.5e-4,-23.1 0.13143,-32.40721 0.29152,-20.68268 0.16008,11.72452 0.15988,30.62452 -4.5e-4,42 -0.16034,11.37547 -0.29131,1.78268 -0.29107,-21.31732 z m 322.9449,21.5 c 0,-8.525 0.15337,-12.0125 0.34082,-7.75 0.18745,4.2625 0.18745,11.2375 0,15.5 -0.18745,4.2625 -0.34082,0.775 -0.34082,-7.75 z M 306.07895,550.41667 c 0.048,-1.16495 0.28494,-1.4019 0.60416,-0.60417 0.28887,0.72187 0.25335,1.58438 -0.0789,1.91667 -0.33229,0.33229 -0.56864,-0.25834 -0.52522,-1.3125 z M 580.36996,542 c 0,-5.775 0.16528,-8.1375 0.36728,-5.25 0.202,2.8875 0.202,7.6125 0,10.5 -0.202,2.8875 -0.36728,0.525 -0.36728,-5.25 z M 306.45804,504 c 0,-23.375 0.13089,-32.9375 0.29087,-21.25 0.15998,11.6875 0.15998,30.8125 0,42.5 -0.15998,11.6875 -0.29087,2.125 -0.29087,-21.25 z m 132.69985,-15 c 0,-1.375 0.22698,-1.9375 0.50439,-1.25 0.27741,0.6875 0.27741,1.8125 0,2.5 -0.27741,0.6875 -0.50439,0.125 -0.50439,-1.25 z M 115.45974,436 c 0,-24.475 0.13017,-34.4875 0.28926,-22.25 0.15909,12.2375 0.15909,32.2625 0,44.5 -0.15909,12.2375 -0.28926,2.225 -0.28926,-22.25 z m 463.61921,39.41667 c 0.048,-1.16495 0.28494,-1.4019 0.60416,-0.60417 0.28887,0.72187 0.25335,1.58438 -0.0789,1.91667 -0.33229,0.33229 -0.56864,-0.25834 -0.52522,-1.3125 z M 714.25218,462.5 c 0.0111,-2.2 0.21589,-2.98225 0.45508,-1.73834 0.23919,1.24391 0.23011,3.04391 -0.0202,4 -0.25029,0.95609 -0.446,-0.0617 -0.4349,-2.26166 z M 247.37817,394 c 0,-6.325 0.16237,-8.9125 0.36082,-5.75 0.19845,3.1625 0.19845,8.3375 0,11.5 -0.19845,3.1625 -0.36082,0.575 -0.36082,-5.75 z m 190.87401,-66.5 c 0.0111,-2.2 0.21589,-2.98225 0.45508,-1.73834 0.23919,1.24391 0.23011,3.04391 -0.0202,4 -0.25029,0.95609 -0.446,-0.0617 -0.4349,-2.26166 z M 455.5,325 c 0.99549,-1.1 2.03498,-2 2.30998,-2 0.275,0 -0.31449,0.9 -1.30998,2 -0.99549,1.1 -2.03498,2 -2.30998,2 -0.275,0 0.31449,-0.9 1.30998,-2 z m -149.22764,-3 c 0,-2.475 0.19502,-3.4875 0.43337,-2.25 0.23836,1.2375 0.23836,3.2625 0,4.5 -0.23835,1.2375 -0.43337,0.225 -0.43337,-2.25 z m -64.39992,-19.75 c -1.24387,-1.58606 -1.2085,-1.62143 0.37756,-0.37756 0.9625,0.75485 1.75,1.54235 1.75,1.75 0,0.82304 -0.82119,0.29331 -2.12756,-1.37244 z m -104.60341,-7.94299 c 0.97297,-0.25354 2.32297,-0.23687 3,0.0371 0.67703,0.27393 -0.11903,0.48137 -1.76903,0.46099 -1.65,-0.0204 -2.20394,-0.2445 -1.23097,-0.49804 z m 75.98097,-0.0233 c 1.5125,-0.22913 3.9875,-0.22913 5.5,0 1.5125,0.22912 0.275,0.41659 -2.75,0.41659 -3.025,0 -4.2625,-0.18747 -2.75,-0.41659 z m 120.51166,0.009 c 1.24391,-0.23919 3.04391,-0.23011 4,0.0202 0.95609,0.25029 -0.0617,0.446 -2.26166,0.4349 -2.2,-0.0111 -2.98225,-0.21589 -1.73834,-0.45508 z m 12.05084,0.0242 c 0.72187,-0.28887 1.58438,-0.25335 1.91667,0.0789 0.33229,0.33229 -0.25834,0.56864 -1.3125,0.52522 -1.16495,-0.048 -1.4019,-0.28494 -0.60417,-0.60416 z m 204,-6 c 0.72187,-0.28887 1.58438,-0.25335 1.91667,0.0789 0.33229,0.33229 -0.25834,0.56864 -1.3125,0.52522 -1.16495,-0.048 -1.4019,-0.28494 -0.60417,-0.60416 z M 266.29966,174 c 0,-3.025 0.18747,-4.2625 0.41659,-2.75 0.22913,1.5125 0.22913,3.9875 0,5.5 -0.22912,1.5125 -0.41659,0.275 -0.41659,-2.75 z m 533.11892,-26 c 0,-10.725 0.14711,-15.1125 0.32692,-9.75 0.17981,5.3625 0.17981,14.1375 0,19.5 -0.17981,5.3625 -0.32692,0.975 -0.32692,-9.75 z M 120.5,114 c 0.99549,-1.1 2.03498,-2 2.30998,-2 0.275,0 -0.31449,0.9 -1.30998,2 -0.99549,1.1 -2.03498,2 -2.30998,2 -0.275,0 0.31449,-0.9 1.30998,-2 z M 0.19494872,68.5 c 0.0203797,-1.65 0.24449859,-2.203936 0.498042,-1.230968 0.25354341,0.972967 0.23686912,2.322967 -0.037054,3 C 0.38201364,70.946064 0.17456903,70.15 0.19494872,68.5 Z M 345.25,0.25017787 c 30.1125,-0.14699074 79.3875,-0.14699074 109.5,0 30.1125,0.14699073 5.475,0.26725588 -54.75,0.26725588 -60.225,0 -84.8625,-0.12026515 -54.75,-0.26725588 z"
         id="path435" />
      <path
         style="fill:#85bcdb"
         d="m 63.8125,799.31689 c 0.721875,-0.28887 1.584375,-0.25335 1.916667,0.0789 0.332291,0.33229 -0.258334,0.56864 -1.3125,0.52522 -1.164943,-0.048 -1.4019,-0.28494 -0.604167,-0.60416 z M 0.2521834,726.5 c 0.0110994,-2.2 0.21588425,-2.98225 0.45507747,-1.73834 0.23919321,1.24391 0.2301119,3.04391 -0.0201807,4 C 0.43678756,729.71775 0.24108402,728.7 0.2521834,726.5 Z M 179.75,712.25412 c 5.6375,-0.17825 14.8625,-0.17825 20.5,0 5.6375,0.17825 1.025,0.32409 -10.25,0.32409 -11.275,0 -15.8875,-0.14584 -10.25,-0.32409 z m 493.5,0.0296 c 1.5125,-0.22913 3.9875,-0.22913 5.5,0 1.5125,0.22912 0.275,0.41659 -2.75,0.41659 -3.025,0 -4.2625,-0.18747 -2.75,-0.41659 z M 247.48336,530.5 c 4e-5,-63.25 0.11997,-88.97782 0.26651,-57.17293 0.14654,31.80489 0.14651,83.55489 -7e-5,115 -0.14658,31.44511 -0.26647,5.42293 -0.26644,-57.82707 z M 438.39739,624 c 0,-7.975 0.1553,-11.2375 0.34512,-7.25 0.18981,3.9875 0.18981,10.5125 0,14.5 -0.18982,3.9875 -0.34512,0.725 -0.34512,-7.25 z m 361.06763,-41.5 c 1.7e-4,-28.6 0.12814,-40.15594 0.28439,-25.67987 0.15624,14.47608 0.1561,37.87608 -3.1e-4,52 -0.15641,14.12393 -0.28425,2.27987 -0.28408,-26.32013 z m -84.03147,16 c -6.1e-4,-13.75 0.14023,-19.5137 0.31298,-12.80822 0.17275,6.70549 0.17325,17.95549 10e-4,25 -0.17214,7.04452 -0.31348,1.55822 -0.31409,-12.19178 z m -135.05948,-36 c 0.002,-6.05 0.16696,-8.39607 0.36601,-5.21349 0.19905,3.18258 0.1972,8.13258 -0.004,11 -0.20131,2.86742 -0.36417,0.26349 -0.36191,-5.78651 z M 115.43674,506 c 0,-14.575 0.1398,-20.5375 0.31066,-13.25 0.17086,7.2875 0.17086,19.2125 0,26.5 -0.17086,7.2875 -0.31066,1.325 -0.31066,-13.25 z m 323.84927,-10.5 c 0.008,-2.75 0.20172,-3.75631 0.43157,-2.23625 0.22986,1.52006 0.22371,3.77006 -0.0136,5 -0.23736,1.22994 -0.42542,-0.0138 -0.41792,-2.76375 z M 579.15789,479 c 0,-1.375 0.22698,-1.9375 0.50439,-1.25 0.27741,0.6875 0.27741,1.8125 0,2.5 -0.27741,0.6875 -0.50439,0.125 -0.50439,-1.25 z m 135,-22 c 0,-1.375 0.22698,-1.9375 0.50439,-1.25 0.27741,0.6875 0.27741,1.8125 0,2.5 -0.27741,0.6875 -0.50439,0.125 -0.50439,-1.25 z M 554.50708,417.01145 c -0.35034,-0.56686 0.0511,-0.7345 0.94098,-0.39301 1.73242,0.66479 2.04939,1.38156 0.61096,1.38156 -0.51754,0 -1.21592,-0.44485 -1.55194,-0.98855 z M 247.19495,409.5 c 0.0204,-1.65 0.2445,-2.20394 0.49804,-1.23097 0.25354,0.97297 0.23687,2.32297 -0.0371,3 -0.27393,0.67703 -0.48137,-0.11903 -0.46099,-1.76903 z m 0.21823,-44 c 10e-4,-9.9 0.1507,-13.81474 0.33256,-8.69942 0.18186,5.11532 0.181,13.21532 -0.002,18 -0.18291,4.78468 -0.3317,0.59942 -0.33065,-9.30058 z m 190.839,-45 c 0.0111,-2.2 0.21589,-2.98225 0.45508,-1.73834 0.23919,1.24391 0.23011,3.04391 -0.0202,4 -0.25029,0.95609 -0.446,-0.0617 -0.4349,-2.26166 z m -132.05723,-5 c 0.0204,-1.65 0.2445,-2.20394 0.49804,-1.23097 0.25354,0.97297 0.23687,2.32297 -0.0371,3 -0.27393,0.67703 -0.48137,-0.11903 -0.46099,-1.76903 z M 222.25,294.31067 c 0.9625,-0.25152 2.5375,-0.25152 3.5,0 0.9625,0.25153 0.175,0.45733 -1.75,0.45733 -1.925,0 -2.7125,-0.2058 -1.75,-0.45733 z m 105,0 c 0.9625,-0.25152 2.5375,-0.25152 3.5,0 0.9625,0.25153 0.175,0.45733 -1.75,0.45733 -1.925,0 -2.7125,-0.2058 -1.75,-0.45733 z M 799.46533,219 c 0,-28.875 0.12777,-40.6875 0.28394,-26.25 0.15616,14.4375 0.15616,38.0625 0,52.5 -0.15617,14.4375 -0.28394,2.625 -0.28394,-26.25 z M 120.45295,233.75 116.5,229.5 l 4.25,3.95295 c 3.95246,3.6762 4.70953,4.54705 3.95295,4.54705 -0.16338,0 -2.07588,-1.9125 -4.25,-4.25 z M 0.27236411,75 c 0,-2.475 0.195016,-3.4875 0.4333689,-2.25 0.23835289,1.2375 0.23835289,3.2625 0,4.5 -0.2383529,1.2375 -0.4333689,0.225 -0.4333689,-2.25 z M 65.8125,1.316886 c 0.721875,-0.2888706 1.584375,-0.2533443 1.916667,0.078947 0.332291,0.3322917 -0.258334,0.5686404 -1.3125,0.5252193 -1.164943,-0.047984 -1.4019,-0.28494 -0.604167,-0.6041663 z"
         id="path433" />
      <path
         style="fill:#60a9d0"
         d="m 67.761659,799.29274 c 1.243913,-0.23919 3.043913,-0.23011 4,0.0202 0.956088,0.25029 -0.06166,0.446 -2.261659,0.4349 -2.2,-0.0111 -2.982253,-0.21589 -1.738341,-0.45508 z m 664.050841,0.0241 c 0.72187,-0.28887 1.58438,-0.25335 1.91667,0.0789 0.33229,0.33229 -0.25834,0.56864 -1.3125,0.52522 -1.16495,-0.048 -1.4019,-0.28494 -0.60417,-0.60416 z M 23.02896,781.03906 c -0.809071,-0.51167 -1.210697,-1.19066 -0.8925,-1.50885 0.318196,-0.3182 1.147764,0.10733 1.843484,0.94562 1.442593,1.73822 1.165987,1.90204 -0.950984,0.56323 z M 777,779.62244 c 0,-0.20765 0.7875,-0.99515 1.75,-1.75 1.58606,-1.24387 1.62143,-1.2085 0.37756,0.37756 C 777.82119,779.91575 777,780.44548 777,779.62244 Z M 0.36049648,714 c 0,-5.225 0.16854433,-7.3625 0.37454295,-4.75 0.20599862,2.6125 0.20599862,6.8875 0,9.5 -0.20599862,2.6125 -0.37454295,0.475 -0.37454295,-4.75 z M 157.28017,712.26373 c 2.6291,-0.20668 6.6791,-0.20418 9,0.006 2.32091,0.20972 0.16983,0.37882 -4.78017,0.37577 -4.95,-0.003 -6.84892,-0.17464 -4.21983,-0.38131 z m 54.96983,0.02 c 1.5125,-0.22913 3.9875,-0.22913 5.5,0 1.5125,0.22912 0.275,0.41659 -2.75,0.41659 -3.025,0 -4.2625,-0.18747 -2.75,-0.41659 z m 434.0491,-0.029 c 4.83951,-0.18371 12.48951,-0.18277 17,0.002 4.5105,0.18485 0.5509,0.33516 -8.7991,0.33401 -9.35,-10e-4 -13.0404,-0.1524 -8.2009,-0.3361 z m 37.9509,0.0168 c 2.0625,-0.21574 5.4375,-0.21574 7.5,0 2.0625,0.21575 0.375,0.39226 -3.75,0.39226 -4.125,0 -5.8125,-0.17651 -3.75,-0.39226 z M 247.36996,655 c 0,-5.775 0.16528,-8.1375 0.36728,-5.25 0.202,2.8875 0.202,7.6125 0,10.5 -0.202,2.8875 -0.36728,0.525 -0.36728,-5.25 z m 191.0154,-5 c 0,-6.875 0.15977,-9.6875 0.35504,-6.25 0.19527,3.4375 0.19527,9.0625 0,12.5 -0.19527,3.4375 -0.35504,0.625 -0.35504,-6.25 z m 142.01203,-63 c 0,-7.975 0.1553,-11.2375 0.34512,-7.25 0.18981,3.9875 0.18981,10.5125 0,14.5 -0.18982,3.9875 -0.34512,0.725 -0.34512,-7.25 z m 135.0314,-35.5 c 7e-4,-12.65 0.14401,-17.68711 0.31847,-11.19358 0.17445,6.49353 0.17388,16.84353 -10e-4,23 -0.17516,6.15647 -0.31789,0.84358 -0.31719,-11.80642 z M 799.48526,401 c 0,-71.775 0.11908,-101.1375 0.26461,-65.25 0.14554,35.8875 0.14554,94.6125 0,130.5 -0.14553,35.8875 -0.26461,6.525 -0.26461,-65.25 z M 439.32814,506.5 c 0.004,-3.85 0.18518,-5.30246 0.40166,-3.2277 0.21647,2.07477 0.21284,5.22477 -0.008,7 -0.22091,1.77524 -0.39803,0.0777 -0.39359,-3.7723 z m 139.95787,-21 c 0.008,-2.75 0.20172,-3.75631 0.43157,-2.23625 0.22986,1.52006 0.22371,3.77006 -0.0136,5 -0.23736,1.22994 -0.42542,-0.0138 -0.41792,-2.76375 z M 714.15789,453 c 0,-1.375 0.22698,-1.9375 0.50439,-1.25 0.27741,0.6875 0.27741,1.8125 0,2.5 -0.27741,0.6875 -0.50439,0.125 -0.50439,-1.25 z M 556.87244,419.25 c -1.24387,-1.58606 -1.2085,-1.62143 0.37756,-0.37756 1.66575,1.30637 2.19548,2.12756 1.37244,2.12756 -0.20765,0 -0.99515,-0.7875 -1.75,-1.75 z M 507.8125,402.31689 c 0.72187,-0.28887 1.58438,-0.25335 1.91667,0.0789 0.33229,0.33229 -0.25834,0.56864 -1.3125,0.52522 -1.16495,-0.048 -1.4019,-0.28494 -0.60417,-0.60416 z m 3.9375,0.0208 c 0.6875,-0.27741 1.8125,-0.27741 2.5,0 0.6875,0.27741 0.125,0.50439 -1.25,0.50439 -1.375,0 -1.9375,-0.22698 -1.25,-0.50439 z M 247.36523,338.5 c 0.003,-5.5 0.17053,-7.62242 0.37317,-4.71648 0.20265,2.90594 0.20052,7.40594 -0.005,10 -0.20525,2.59406 -0.37104,0.21648 -0.36844,-5.28352 z m 190.71372,-23.08333 c 0.048,-1.16495 0.28494,-1.4019 0.60416,-0.60417 0.28887,0.72187 0.25335,1.58438 -0.0789,1.91667 -0.33229,0.33229 -0.56864,-0.25834 -0.52522,-1.3125 z M 121,300.5 c 1.29175,-1.375 2.57363,-2.5 2.84863,-2.5 0.275,0 -0.55688,1.125 -1.84863,2.5 -1.29175,1.375 -2.57363,2.5 -2.84863,2.5 -0.275,0 0.55688,-1.125 1.84863,-2.5 z m 311.87244,-0.25 c -1.24387,-1.58606 -1.2085,-1.62143 0.37756,-0.37756 1.66575,1.30637 2.19548,2.12756 1.37244,2.12756 -0.20765,0 -0.99515,-0.7875 -1.75,-1.75 z M 311,300.62244 c 0,-0.20765 0.7875,-0.99515 1.75,-1.75 1.58606,-1.24387 1.62143,-1.2085 0.37756,0.37756 C 311.82119,300.91575 311,301.44548 311,300.62244 Z m 12.8125,-6.30555 c 0.72187,-0.28887 1.58438,-0.25335 1.91667,0.0789 0.33229,0.33229 -0.25834,0.56864 -1.3125,0.52522 -1.16495,-0.048 -1.4019,-0.28494 -0.60417,-0.60416 z M 236.87244,109.25 c -1.24387,-1.58606 -1.2085,-1.62143 0.37756,-0.37756 1.66575,1.30637 2.19548,2.12756 1.37244,2.12756 -0.20765,0 -0.99515,-0.7875 -1.75,-1.75 z M 0.35495546,87.5 c -0.003048,-4.95 0.1660513,-7.101078 0.37577525,-4.780173 0.20972395,2.320905 0.21221741,6.370905 0.005541,9 C 0.52959534,94.348922 0.35800302,92.45 0.35495546,87.5 Z M 777.87244,22.25 C 776.62857,20.663944 776.66394,20.628574 778.25,21.872445 779.91575,23.178814 780.44548,24 779.62244,24 c -0.20765,0 -0.99515,-0.7875 -1.75,-1.75 z M 71.75,1.294267 c 1.2375,-0.2383529 3.2625,-0.2383529 4.5,0 1.2375,0.2383529 0.225,0.4333689 -2.25,0.4333689 -2.475,0 -3.4875,-0.195016 -2.25,-0.4333689 z M 723.26375,1.282419 c 1.52006,-0.2298544 3.77006,-0.2237119 5,0.01365 1.22994,0.2373619 -0.0137,0.4254246 -2.76375,0.4179171 -2.75,-0.00751 -3.75631,-0.2017128 -2.23625,-0.4315671 z"
         id="path431" />
      <path
         style="fill:#3290c3"
         d="m 76.75,799.26779 c 2.3375,-0.21053 6.1625,-0.21053 8.5,0 2.3375,0.21054 0.425,0.3828 -4.25,0.3828 -4.675,0 -6.5875,-0.17226 -4.25,-0.3828 z m 642,0.009 c 1.7875,-0.22182 4.7125,-0.22182 6.5,0 1.7875,0.22183 0.325,0.40333 -3.25,0.40333 -3.575,0 -5.0375,-0.1815 -3.25,-0.40333 z M 798.19495,732.5 c 0.0204,-1.65 0.2445,-2.20394 0.49804,-1.23097 0.25354,0.97297 0.23687,2.32297 -0.0371,3 -0.27393,0.67703 -0.48137,-0.11903 -0.46099,-1.76903 z M 145.25,712.28375 c 1.5125,-0.22913 3.9875,-0.22913 5.5,0 1.5125,0.22912 0.275,0.41659 -2.75,0.41659 -3.025,0 -4.2625,-0.18747 -2.75,-0.41659 z m 76,0.0269 c 0.9625,-0.25152 2.5375,-0.25152 3.5,0 0.9625,0.25153 0.175,0.45733 -1.75,0.45733 -1.925,0 -2.7125,-0.2058 -1.75,-0.45733 z m 131.5,-0.0589 c 8.9375,-0.16573 23.5625,-0.16573 32.5,0 8.9375,0.16574 1.625,0.30134 -16.25,0.30134 -17.875,0 -25.1875,-0.1356 -16.25,-0.30134 z m 265.5,0.007 c 3.7125,-0.19241 9.7875,-0.19241 13.5,0 3.7125,0.19241 0.675,0.34983 -6.75,0.34983 -7.425,0 -10.4625,-0.15742 -6.75,-0.34983 z M 0.40248844,690 c 0,-8.525 0.15336902,-12.0125 0.34082003,-7.75 0.18745102,4.2625 0.18745102,11.2375 0,15.5 -0.18745101,4.2625 -0.34082003,0.775 -0.34082003,-7.75 z M 247.34281,672.5 c 0.004,-4.4 0.17944,-6.07561 0.39069,-3.72357 0.21124,2.35204 0.20827,5.95204 -0.007,8 -0.21487,2.04796 -0.38771,0.12357 -0.38408,-4.27643 z M 438.32007,668 c 0,-3.575 0.1815,-5.0375 0.40333,-3.25 0.22182,1.7875 0.22182,4.7125 0,6.5 -0.22183,1.7875 -0.40333,0.325 -0.40333,-3.25 z m 142.07449,-53.5 c 0.002,-7.7 0.15853,-10.71781 0.34883,-6.70625 0.1903,4.01156 0.18902,10.31156 -0.003,14 C 580.5487,625.48219 580.393,622.2 580.39456,614.5 Z M 715.41127,512 c 0,-9.625 0.14998,-13.5625 0.3333,-8.75 0.18331,4.8125 0.18331,12.6875 0,17.5 -0.18332,4.8125 -0.3333,0.875 -0.3333,-8.75 z m -276.1014,6.5 c 0.006,-3.3 0.1923,-4.52944 0.41486,-2.73209 0.22256,1.79735 0.21797,4.49735 -0.0102,6 -0.22818,1.50265 -0.41027,0.0321 -0.40466,-3.26791 z M 579.232,493 c 0,-1.925 0.2058,-2.7125 0.45733,-1.75 0.25152,0.9625 0.25152,2.5375 0,3.5 -0.25153,0.9625 -0.45733,0.175 -0.45733,-1.75 z m 134.84695,-43.58333 c 0.048,-1.16495 0.28494,-1.4019 0.60416,-0.60417 0.28887,0.72187 0.25335,1.58438 -0.0789,1.91667 -0.33229,0.33229 -0.56864,-0.25834 -0.52522,-1.3125 z M 439,343 c 0,-0.55 0.47656,-1 1.05902,-1 0.58246,0 0.7809,0.45 0.44098,1 -0.33992,0.55 -0.81648,1 -1.05902,1 C 439.19844,344 439,343.55 439,343 Z M 670.40499,327.75 668.5,325.5 l 2.25,1.90499 c 1.2375,1.04774 2.25,2.06024 2.25,2.25 0,0.80025 -0.80479,0.20945 -2.59501,-1.90499 z M 247.27236,325 c 0,-2.475 0.19502,-3.4875 0.43337,-2.25 0.23836,1.2375 0.23836,3.2625 0,4.5 -0.23835,1.2375 -0.43337,0.225 -0.43337,-2.25 z m 417.60008,-2.75 c -1.24387,-1.58606 -1.2085,-1.62143 0.37756,-0.37756 1.66575,1.30637 2.19548,2.12756 1.37244,2.12756 -0.20765,0 -0.99515,-0.7875 -1.75,-1.75 z M 229.8125,294.31689 c 0.72187,-0.28887 1.58437,-0.25335 1.91667,0.0789 0.33229,0.33229 -0.25834,0.56864 -1.3125,0.52522 -1.16495,-0.048 -1.4019,-0.28494 -0.60417,-0.60416 z M 559.75,287.33772 c 0.6875,-0.27741 1.8125,-0.27741 2.5,0 0.6875,0.27741 0.125,0.50439 -1.25,0.50439 -1.375,0 -1.9375,-0.22698 -1.25,-0.50439 z m -384,-28 c 0.6875,-0.27741 1.8125,-0.27741 2.5,0 0.6875,0.27741 0.125,0.50439 -1.25,0.50439 -1.375,0 -1.9375,-0.22698 -1.25,-0.50439 z m 6.51903,-0.0307 c 0.97297,-0.25354 2.32297,-0.23687 3,0.0371 0.67703,0.27393 -0.11903,0.48137 -1.76903,0.46099 -1.65,-0.0204 -2.20394,-0.2445 -1.23097,-0.49804 z M 0.40478956,111.5 c 0.001266,-8.8 0.15425,-12.266133 0.3399653,-7.70252 0.1857153,4.56362 0.1846798,11.76362 -0.002301,16 C 0.55547283,124.03387 0.40352395,120.3 0.40478956,111.5 Z M 180.76166,88.292739 c 1.24391,-0.239193 3.04391,-0.230112 4,0.02018 0.95609,0.250292 -0.0617,0.445996 -2.26166,0.434897 -2.2,-0.0111 -2.98225,-0.215885 -1.73834,-0.455077 z M 798.15789,68 c 0,-1.375 0.22698,-1.9375 0.50439,-1.25 0.27741,0.6875 0.27741,1.8125 0,2.5 -0.27741,0.6875 -0.50439,0.125 -0.50439,-1.25 z M 20,23.622445 c 0,-0.207656 0.7875,-0.995156 1.75,-1.75 C 23.336056,20.628574 23.371426,20.663944 22.127555,22.25 20.821186,23.915748 20,24.445479 20,23.622445 Z M 81.776433,1.2665034 c 2.352038,-0.2112452 5.952038,-0.2082734 8,0.0066 C 91.824395,1.4879849 89.9,1.6608219 85.5,1.6571897 81.1,1.6535574 79.424395,1.4777486 81.776433,1.2665034 Z m 627.999997,0 c 2.35204,-0.2112452 5.95204,-0.2082734 8,0.0066 2.04796,0.2148774 0.12357,0.3877144 -4.27643,0.3840822 -4.4,-0.00363 -6.07561,-0.1794411 -3.72357,-0.3906863 z"
         id="path429" />
      <path
         style="fill:#1c84bc"
         d="m 95.20625,799.25945 c 3.688437,-0.19186 9.98844,-0.19314 14,-0.003 4.01156,0.1903 0.99375,0.34727 -6.70625,0.34883 -7.7,0.002 -10.982188,-0.15414 -7.29375,-0.34599 z m 606.57727,0.002 c 2.90594,-0.20265 7.40594,-0.20052 10,0.005 2.59406,0.20525 0.21648,0.37104 -5.28352,0.36844 -5.5,-0.003 -7.62242,-0.17053 -4.71648,-0.37317 z M 777,778.5 c 1.86578,-1.925 3.61733,-3.5 3.89233,-3.5 0.275,0 -1.02655,1.575 -2.89233,3.5 -1.86578,1.925 -3.61733,3.5 -3.89233,3.5 -0.275,0 1.02655,-1.575 2.89233,-3.5 z m 21.19495,-51 c 0.0204,-1.65 0.2445,-2.20394 0.49804,-1.23097 0.25354,0.97297 0.23687,2.32297 -0.0371,3 -0.27393,0.67703 -0.48137,-0.11903 -0.46099,-1.76903 z M 139.75,712.33772 c 0.6875,-0.27741 1.8125,-0.27741 2.5,0 0.6875,0.27741 0.125,0.50439 -1.25,0.50439 -1.375,0 -1.9375,-0.22698 -1.25,-0.50439 z m 192.01166,-0.045 c 1.24391,-0.23919 3.04391,-0.23011 4,0.0202 0.95609,0.25029 -0.0617,0.446 -2.26166,0.4349 -2.2,-0.0111 -2.98225,-0.21589 -1.73834,-0.45508 z m 75.52993,-0.0352 c 3.73537,-0.19293 9.58537,-0.19149 13,0.003 3.41462,0.19468 0.35841,0.35253 -6.79159,0.35078 -7.15,-0.002 -9.94379,-0.16103 -6.20841,-0.35396 z m 190.49193,0.004 c 2.90594,-0.20265 7.40594,-0.20052 10,0.005 2.59406,0.20525 0.21648,0.37104 -5.28352,0.36844 -5.5,-0.003 -7.62242,-0.17053 -4.71648,-0.37317 z M 432.5,707 c 0.99549,-1.1 2.03498,-2 2.30998,-2 0.275,0 -0.31449,0.9 -1.30998,2 -0.99549,1.1 -2.03498,2 -2.30998,2 -0.275,0 0.31449,-0.9 1.30998,-2 z m 152.90499,-0.25 -1.90499,-2.25 2.25,1.90499 c 2.11444,1.79022 2.70524,2.59501 1.90499,2.59501 -0.18976,0 -1.20226,-1.0125 -2.25,-2.25 z M 247.25218,683.5 c 0.0111,-2.2 0.21589,-2.98225 0.45508,-1.73834 0.23919,1.24391 0.23011,3.04391 -0.0202,4 -0.25029,0.95609 -0.446,-0.0617 -0.4349,-2.26166 z M 438.27236,678 c 0,-2.475 0.19502,-3.4875 0.43337,-2.25 0.23836,1.2375 0.23836,3.2625 0,4.5 -0.23835,1.2375 -0.43337,0.225 -0.43337,-2.25 z M 0.3853593,663 c 0,-6.875 0.15976699,-9.6875 0.35503776,-6.25 0.19527076,3.4375 0.19527076,9.0625 0,12.5 C 0.54512629,672.6875 0.3853593,669.875 0.3853593,663 Z M 580.36996,638 c 0,-5.775 0.16528,-8.1375 0.36728,-5.25 0.202,2.8875 0.202,7.6125 0,10.5 -0.202,2.8875 -0.36728,0.525 -0.36728,-5.25 z M 439.33621,531 c 0,-4.125 0.17651,-5.8125 0.39226,-3.75 0.21574,2.0625 0.21574,5.4375 0,7.5 -0.21575,2.0625 -0.39226,0.375 -0.39226,-3.75 z M 305.47023,444.5 c -1.2e-4,-34.1 0.12549,-48.19495 0.27912,-31.32211 0.15364,16.87284 0.15374,44.77284 2.3e-4,62 C 305.59606,492.40505 305.47036,478.6 305.47023,444.5 Z M 579.232,499 c 0,-1.925 0.2058,-2.7125 0.45733,-1.75 0.25152,0.9625 0.25152,2.5375 0,3.5 -0.25153,0.9625 -0.45733,0.175 -0.45733,-1.75 z m 136.05401,-8.5 c 0.008,-2.75 0.20172,-3.75631 0.43157,-2.23625 0.22986,1.52006 0.22371,3.77006 -0.0136,5 -0.23736,1.22994 -0.42542,-0.0138 -0.41792,-2.76375 z M 466,420.5 c 1.29175,-1.375 2.57363,-2.5 2.84863,-2.5 0.275,0 -0.55688,1.125 -1.84863,2.5 -1.29175,1.375 -2.57363,2.5 -2.84863,2.5 -0.275,0 0.55688,-1.125 1.84863,-2.5 z m -26.92105,-80.08333 c 0.048,-1.16495 0.28494,-1.4019 0.60416,-0.60417 0.28887,0.72187 0.25335,1.58438 -0.0789,1.91667 -0.33229,0.33229 -0.56864,-0.25834 -0.52522,-1.3125 z M 454,325.68709 c 0,-0.1721 1.4625,-1.6346 3.25,-3.25 l 3.25,-2.93709 -2.93709,3.25 C 454.82513,325.77946 454,326.45965 454,325.68709 Z M 240.40499,299.75 238.5,297.5 l 2.25,1.90499 c 2.11444,1.79022 2.70524,2.59501 1.90499,2.59501 -0.18976,0 -1.20226,-1.0125 -2.25,-2.25 z M 554.25,287.31067 c 0.9625,-0.25152 2.5375,-0.25152 3.5,0 0.9625,0.25153 0.175,0.45733 -1.75,0.45733 -1.925,0 -2.7125,-0.2058 -1.75,-0.45733 z m 10.51166,-0.0179 c 1.24391,-0.23919 3.04391,-0.23011 4,0.0202 0.95609,0.25029 -0.0617,0.446 -2.26166,0.4349 -2.2,-0.0111 -2.98225,-0.21589 -1.73834,-0.45508 z M 95.232003,174 c 0,-1.925 0.205795,-2.7125 0.457323,-1.75 0.251527,0.9625 0.251527,2.5375 0,3.5 -0.251528,0.9625 -0.457323,0.175 -0.457323,-1.75 z M 0.38176412,138.5 c 0.001977,-6.6 0.1638199,-9.16987 0.35965011,-5.71081 0.19583022,3.45905 0.19421239,8.85905 -0.003595,12 C 0.54001149,147.93013 0.37978677,145.1 0.38176412,138.5 Z M 120.5,113 c 2.14824,-2.2 4.1309,-4 4.4059,-4 0.275,0 -1.25766,1.8 -3.4059,4 -2.14824,2.2 -4.1309,4 -4.4059,4 -0.275,0 1.25766,-1.8 3.4059,-4 z m 56.3125,-24.683114 c 0.72187,-0.288871 1.58437,-0.253344 1.91667,0.07895 0.33229,0.332292 -0.25834,0.568641 -1.3125,0.52522 -1.16495,-0.04798 -1.4019,-0.284941 -0.60417,-0.604167 z M 798.232,73 c 0,-1.925 0.2058,-2.7125 0.45733,-1.75 0.25152,0.9625 0.25152,2.5375 0,3.5 C 798.4378,75.7125 798.232,74.925 798.232,73 Z M 778.87244,24.25 C 777.62857,22.663944 777.66394,22.628574 779.25,23.872445 780.91575,25.178814 781.44548,26 780.62244,26 c -0.20765,0 -0.99515,-0.7875 -1.75,-1.75 z m -4,-4 C 773.62857,18.663944 773.66394,18.628574 775.25,19.872445 776.91575,21.178814 777.44548,22 776.62244,22 c -0.20765,0 -0.99515,-0.7875 -1.75,-1.75 z M 99.75,1.2574934 c 3.9875,-0.1898119 10.5125,-0.1898119 14.5,0 3.9875,0.1898119 0.725,0.3451126 -7.25,0.3451126 -7.975,0 -11.2375,-0.1553007 -7.25,-0.3451126 z m 584.54571,-0.00162 c 4.28763,-0.1879036 11.03763,-0.1867573 15,0.00255 3.96236,0.1893045 0.45429,0.3430437 -7.79571,0.3416428 -8.25,-0.0014 -11.49193,-0.1562865 -7.20429,-0.34419 z"
         id="path427" />
      <path
         style="fill:#0075b5"
         d="M 86.5,799.0249 C 59.155735,798.45078 55.988744,798.20449 50.724701,796.24267 31.035993,788.90503 16.669358,776.23088 7.9419129,758.5 0.24977398,742.87247 0.89350516,768.11958 0.3692398,461.5 0.110629,310.25 0.29404225,157.925 0.7768248,123 l 0.8777865,-63.5 2.6471064,-8 C 8.029682,40.233466 13.309091,31.71626 22.001463,22.945217 30.18837,14.684215 38.819587,9.2800253 50.310018,5.2206271 57.32801,2.7412747 58.385066,2.6625998 94.5,1.9316402 c 46.40089,-0.93914543 559.94264,-0.96186875 610,-0.026991 36.99662,0.6909534 37.00073,0.6912689 45,3.4591207 23.45506,8.1157551 41.05857,27.2600091 47.26903,51.4062531 C 798.39361,63.086352 798.5,84.243932 798.5,401 v 337.5 l -2.30316,7.95493 c -3.82591,13.21437 -8.46666,20.87687 -19.16757,31.64816 -7.95945,8.01181 -10.94791,10.28338 -18.0348,13.70852 -17.18296,8.30464 16.54323,7.52319 -331.99447,7.69241 -170.775,0.0829 -324,-0.13269 -340.5,-0.47912 z m 149.94671,-88.59529 c 2.1707,-1.13871 5.31632,-3.76257 6.99027,-5.83079 2.63416,-3.25459 3.13506,-4.85929 3.72377,-11.92962 0.96836,-11.62977 0.89754,-369.58701 -0.075,-378.84889 -0.67595,-6.43764 -1.31767,-8.32526 -3.96778,-11.6713 -1.73877,-2.19538 -5.09372,-4.92702 -7.45544,-6.07031 -4.1717,-2.01948 -5.71039,-2.0787 -54.01042,-2.0787 -42.68448,0 -50.24226,0.21966 -53.43428,1.55305 -4.68819,1.95837 -8.85445,5.88431 -11.30946,10.65711 C 115.04983,309.82345 115,314.9873 115,503.98003 v 194.05971 l 2.40706,3.81304 c 2.85094,4.51617 7.8815,8.95421 10.92001,9.63379 4.71966,1.05559 12.90034,1.21382 57.67293,1.11552 44.98535,-0.0988 46.62856,-0.16953 50.44671,-2.17248 z M 430.2116,709.5646 c 8.763,-6.69105 8.05745,2.47596 8.89465,-115.5646 0.40764,-57.475 1.03068,-107.979 1.38454,-112.23112 0.75295,-9.04801 4.27118,-22.83568 8.58015,-33.62497 9.29897,-23.2838 26.68999,-39.28529 47.42906,-43.63951 8.97364,-1.88404 24.04922,-1.88106 33,0.007 20.80862,4.38823 37.20851,20.99918 44.41742,44.98908 5.29086,17.60699 5.0872,13.07235 6.10473,135.93117 l 0.95186,114.93117 2.37296,3.58579 c 1.30513,1.97218 4.17418,4.83403 6.37567,6.35966 l 4.0027,2.77387 54.38733,-0.29083 c 58.50293,-0.31284 56.22157,-0.10522 62.22661,-5.66302 5.99903,-5.55223 5.66369,0.96279 5.62729,-109.32815 C 715.91751,449.13309 715.17702,432.93337 706.87948,399 695.59207,352.83934 671.8495,319.9073 637.4473,302.69436 c -38.29682,-19.1616 -103.23029,-20.41312 -145.52718,-2.80488 -16.61728,6.91779 -33.90056,19.94843 -45.05547,33.96934 -3.49437,4.39217 -6.58093,7.75846 -6.85902,7.48063 -0.2781,-0.27782 -0.76402,-8.30915 -1.07982,-17.8474 -0.56229,-16.98299 -0.6313,-17.41715 -3.33091,-20.95651 -1.51619,-1.98784 -4.44737,-4.73307 -6.51372,-6.10052 l -3.75701,-2.48626 -53.56999,0.27562 -53.56999,0.27562 -3.84209,3.05108 c -2.11316,1.67809 -4.9671,5.27809 -6.3421,8 l -2.5,4.94892 0.23738,194.32962 0.23737,194.32962 2.76263,4.07909 c 4.26606,6.29897 7.46812,8.17875 15.08269,8.85433 3.67396,0.32596 28.10272,0.66346 54.28613,0.75 L 425.7124,713 Z M 202.5,257.00805 c 39.71498,-10.12656 66.16527,-45.94594 64.20665,-86.94959 -0.63046,-13.19861 -2.51137,-21.41233 -7.3047,-31.89874 -8.07162,-17.65836 -24.25972,-34.051 -41.67239,-42.198935 C 206.2167,90.573557 197.06629,88.75007 181.5,88.740977 164.60848,88.73111 157.19199,90.27632 144.44494,96.461319 106.83078,114.7121 88.030104,155.52796 98.532222,196.13687 c 6.318418,24.43164 26.593598,47.58405 49.999278,57.09463 5.70358,2.31757 16.46085,5.20409 22.9685,6.16318 6.13987,0.90489 23.26044,-0.41319 31,-2.38663 z"
         id="path425" />
    </g>
  </g>
</svg>
