<?xml version="1.0" encoding="UTF-8" standalone="no"?>
<!-- Created with Inkscape (http://www.inkscape.org/) -->

<svg
   version="1.1"
   id="svg2"
   width="348.38748"
   height="374.81708"
   viewBox="0 0 348.38748 374.81708"
   sodipodi:docname="mastodon-icon.svg"
   inkscape:version="1.2.2 (b0a8486541, 2022-12-01)"
   xmlns:inkscape="http://www.inkscape.org/namespaces/inkscape"
   xmlns:sodipodi="http://sodipodi.sourceforge.net/DTD/sodipodi-0.dtd"
   xmlns="http://www.w3.org/2000/svg"
   xmlns:svg="http://www.w3.org/2000/svg">
  <defs
     id="defs6" />
  <sodipodi:namedview
     id="namedview4"
     pagecolor="#ffffff"
     bordercolor="#000000"
     borderopacity="0.25"
     inkscape:showpageshadow="2"
     inkscape:pageopacity="0.0"
     inkscape:pagecheckerboard="0"
     inkscape:deskcolor="#d1d1d1"
     showgrid="false"
     showguides="false"
     inkscape:zoom="1.7"
     inkscape:cx="256.47059"
     inkscape:cy="123.52941"
     inkscape:window-width="1600"
     inkscape:window-height="836"
     inkscape:window-x="0"
     inkscape:window-y="0"
     inkscape:window-maximized="1"
     inkscape:current-layer="g8" />
  <g
     inkscape:groupmode="layer"
     inkscape:label="Image"
     id="g8"
     transform="translate(-28.690768,-6.0629334)">
    <path
       style="fill:#000000;stroke-width:1.33333"
       d="M 168.20876,379.68595 C 139.96102,377.51208 107.73668,369.42406 91.583252,360.45362 80.142639,354.10032 62.661889,336.83454 55.902889,325.21203 34.658389,288.68082 27.652879,243.49947 28.812119,150.4928 29.485049,96.50359 30.315679,90.91082 40.981929,68.550862 53.611419,42.075298 70.062689,26.829039 94.744192,18.726518 151.68736,0.03303929 279.77842,2.4869993 323.32571,23.105667 c 22.75835,10.775569 41.71699,36.141628 50.2334,67.210703 3.42907,12.5097 3.52043,13.84685 3.51912,51.50977 -0.001,51.53085 -3.69823,85.70129 -10.78341,99.68324 -8.79134,17.34885 -34.21866,35.18508 -63.15603,44.30137 -15.57931,4.90803 -45.00952,8.61369 -76,9.56944 -28.81381,0.88863 -47.93845,-0.48576 -78.57079,-5.64643 -10.58058,-1.78253 -19.61173,-3.24096 -20.0692,-3.24096 -1.4617,0 0.81701,16.50436 3.31855,24.03582 3.34209,10.06209 14.40661,21.08289 25.33127,25.2312 20.4881,7.7797 64.58469,8.86144 95.3235,2.33837 8.43334,-1.78963 15.41322,-3.18296 15.51086,-3.09629 0.0976,0.0867 0.39764,7.00632 0.66666,15.37701 l 0.48915,15.21945 -10.66667,3.88706 c -14.21348,5.17954 -31.77581,8.74092 -50.93128,10.32806 -17.4403,1.44504 -18.96177,1.44011 -39.33208,-0.12746 z m -38.14046,-199.52648 0.40382,-53 3.33334,-6.66667 c 10.157,-20.314 41.65104,-15.60322 47.97862,7.1765 0.73691,2.65293 1.34319,19.0735 1.34727,36.49017 l 0.007,31.66667 h 20 20 l 0.008,-31.66667 c 0.004,-17.41667 0.61036,-33.83724 1.34727,-36.49017 4.6772,-16.83825 22.94112,-24.78794 38.6961,-16.84316 4.55388,2.29639 6.73098,4.56357 9.28252,9.66666 l 3.33334,6.66667 0.40382,53 0.40382,53 h 19.33957 19.33956 l -0.41761,-58.33333 c -0.40959,-57.13459 -0.48176,-58.50996 -3.51283,-66.92805 -4.35628,-12.09975 -11.321,-21.94587 -19.83645,-28.04365 -10.90939,-7.81204 -18.62995,-10.044101 -34.38667,-9.941406 -22.68712,0.147864 -35.39729,7.591096 -47.33333,27.718986 -3.3,5.56483 -6.3,10.11787 -6.66667,10.11787 -0.36667,0 -3.36667,-4.55304 -6.66667,-10.11787 -11.93604,-20.12789 -24.64621,-27.571122 -47.33333,-27.718986 -15.75672,-0.102695 -23.47728,2.129366 -34.38666,9.941406 -8.51546,6.09778 -15.480186,15.9439 -19.836899,28.04365 -3.031072,8.41809 -3.103249,9.79346 -3.512276,66.92805 l -0.417609,58.33333 h 19.339564 19.33957 z"
       id="path1886" />
  </g>
</svg>
