<svg preserveAspectRatio="xMidYMid" viewBox="-9 0 274 274"><path fill="#3088D4" d="M250 164c-4 19-34 41-68 45-18 2-36 4-54 3-31-2-55-7-55-7v8c4 30 30 32 55 33s47-6 47-6l1 22s-17 10-48 11c-17 1-39 0-63-7-54-14-63-71-65-129V90c0-60 39-77 39-77C59 4 92 0 127 0h1c35 0 69 4 88 13 0 0 39 17 39 77 0 0 1 44-5 74"/><path fill="#FFF" d="M209 94v72h-28V97c0-15-6-23-19-23s-20 9-20 27v38h-29v-38c0-18-6-27-20-27-12 0-19 8-19 23v69H46V94c0-14 4-26 11-35 8-8 18-13 31-13 14 0 25 6 33 17l7 12 7-12c7-11 18-17 33-17 12 0 22 5 30 13 8 9 11 21 11 35"/></svg>