<?xml version="1.0" encoding="UTF-8" standalone="no"?>
<svg
   width="389"
   height="334.88889"
   xml:space="preserve"
   version="1.1"
   id="svg4"
   sodipodi:docname="redfern.svg"
   inkscape:version="1.2.2 (b0a8486541, 2022-12-01)"
   xmlns:inkscape="http://www.inkscape.org/namespaces/inkscape"
   xmlns:sodipodi="http://sodipodi.sourceforge.net/DTD/sodipodi-0.dtd"
   xmlns:xlink="http://www.w3.org/1999/xlink"
   xmlns="http://www.w3.org/2000/svg"
   xmlns:svg="http://www.w3.org/2000/svg"><defs
     id="defs8"><linearGradient
       inkscape:collect="always"
       id="linearGradient1019"><stop
         style="stop-color:#ffffff;stop-opacity:1;"
         offset="0"
         id="stop1015" /><stop
         style="stop-color:#ffffff;stop-opacity:0;"
         offset="1"
         id="stop1017" /></linearGradient><color-profile
       name="Apple-RGB"
       xlink:href="file:///usr/share/color/icc/colord/AppleRGB.icc"
       id="color-profile1191" /><color-profile
       name="Swapped-Red-and-Green"
       xlink:href="file:///usr/share/color/icc/colord/SwappedRedAndGreen.icc"
       id="color-profile1193" /><linearGradient
       inkscape:collect="always"
       xlink:href="#linearGradient1019"
       id="linearGradient1021"
       x1="-220.11719"
       y1="37.150734"
       x2="398.49954"
       y2="525.03217"
       gradientUnits="userSpaceOnUse"
       gradientTransform="translate(-7.8056066,-40.152574)" /></defs><sodipodi:namedview
     id="namedview6"
     pagecolor="#ffffff"
     bordercolor="#000000"
     borderopacity="0.25"
     inkscape:showpageshadow="2"
     inkscape:pageopacity="0.0"
     inkscape:pagecheckerboard="0"
     inkscape:deskcolor="#d1d1d1"
     showgrid="false"
     inkscape:zoom="1.7"
     inkscape:cx="233.23529"
     inkscape:cy="134.11765"
     inkscape:window-width="1600"
     inkscape:window-height="836"
     inkscape:window-x="0"
     inkscape:window-y="0"
     inkscape:window-maximized="1"
     inkscape:current-layer="svg4" /><path
     style="fill:url(#linearGradient1021);fill-opacity:1;stroke-width:0.974078"
     d="m 0,330 c 0,-5 1,-7 4.0000004,-7 l 3,-3 C 9.0000004,314 10,312 13,311 l 5,-2 c 2,0 3,-1 5,-3 l 5,-6 4,-2 c 1,-1 6,-4 13,-6 13,-5 24,-10 28,-14 4,-3 11,-6 17,-7 l 28,-8 c 2,-1 3,-1 5,1 1,1 2,2 3,1 1,-2 2,-1 3,2 0,4 3,4 5,0 v -8 c -1,-6 -1,-9 1,-5 1,2 2,2 2,-1 l -1,-2 c -2,0 -2,-2 -1,-3 l 1,-3 c -1,-2 5,-8 8,-8 l 1,-1 c 0,-2 6,-4 8,-3 3,2 4,2 6,-2 1,-3 1,-3 -1,-5 -2,-1 -3,-8 -1,-13 v -3 c -2,-3 -1,-6 2,-5 2,1 2,1 1,-2 -1,-7 1,-9 8,-5 2,2 3,3 3,1 0,-2 4,-1 6,1 2,2 5,1 5,-2 0,-6 15,-7 18,-1 3,5 1,7 -6,7 -2,0 -4,1 -6,4 l -5,4 -3,3 c -2,3 -2,5 -1,11 1,2 -2,3 -3,1 -1,-1 -1,-1 -2,1 h -3 c -2,-2 -5,0 -5,4 0,3 1,3 4,3 l 6,2 c 2,2 2,2 3,1 l 10,-5 c 3,0 5,-1 6,-5 2,-3 4,-4 6,-3 1,0 1,1 -1,4 -3,5 -3,6 2,3 3,-3 3,-3 3,-1 l 2,2 2,1 c 0,2 1,2 3,1 h 5 l 4,-1 c 1,-1 2,0 4,2 2,3 4,4 5,4 6,0 8,3 6,8 -2,3 -1,10 2,15 2,4 -1,8 -5,8 -3,-1 -3,0 -3,3 1,3 0,4 -2,4 -2,-1 -2,-1 -1,-5 0,-6 -3,-6 -5,-1 -2,4 -5,6 -15,7 l -10,2 -5,1 -3,1 -22,2 c -4,0 -5,0 -5,2 l -3,6 c -4,6 -1,22 3,17 h 3 l 3,2 2,2 2,3 1,2 v 2 c 1,1 4,-1 5,-4 2,-4 13,0 16,7 2,4 4,4 5,0 3,-6 8,-10 8,-6 l 2,2 c 2,0 4,0 5,2 l 3,1 c 3,-1 2,1 -1,3 -2,1 -3,2 -2,3 l 6,-3 6,-3 3,-10 2,-1 c 2,1 6,-3 6,-7 0,-3 1,-5 3,-5 l 3,-4 c 3,-6 3,-6 7,-2 l 6,6 c 3,3 4,11 1,16 l -1,4 c 1,1 0,3 -1,4 l -1,4 -3,4 -3,1 h -1 c -4,4 -247,1 -247,-3 z m 155,-61 h 3 c 1,1 14,-2 16,-5 2,-3 5,-2 6,2 1,2 1,2 3,-1 2,-4 7,-4 9,0 1,1 2,2 3,1 3,-2 9,-3 12,0 h 8 c 6,3 12,-2 7,-5 l -2,-3 c 0,-3 -7,-8 -10,-8 l -5,-1 c -6,-4 -39,-1 -42,3 -1,2 -1,2 -4,2 -3,0 -4,0 -5,2 -5,5 -3,17 1,13 z m 110,61 3,-9 c 4,-8 5,-28 2,-36 -4,-10 3,-18 10,-14 l 5,2 8,4 c 5,3 23,8 39,10 l 8,3 c 3,2 9,4 17,5 l 31,6 1,17 v 16 H 265 Z m -115,-131 -6,-2 c -3,0 -4,-3 -1,-5 2,-2 2,-2 -3,-1 -12,1 -18,0 -18,-4 l -6,-3 c -11,-2 -12,-2 -8,-3 9,-2 9,-1 8,-6 l 1,-5 v -5 c -1,-4 -1,-4 2,-4 4,1 9,-5 7,-8 l -2,-4 c -4,-8 -11,-4 -12,7 -1,9 -2,10 -4,10 l -3,1 H 93.000003 C 93.000003,168 92,168 90,166 87,163 87,163 69,164 46,165 39,159 41,143 43,133 73,112 94.000003,106 102,103 103,102 102,95.999996 94.000003,59.999996 116,14 145,9 l 7,-2 5,-2 4,-2 c 4,-4 12,-4 32,0 h 9 c 5,-3 14,-2.00000001 21,1 l 8,2 c 3,0 11,4 14,7 2,2 2,2 -1,0 C 240,10 238,9 229,7 211,3 212,3 210,5 l -5,2 c -2,0 -2,0 1,1 4,3 0,8 -6,9 a 169,169 0 0 0 -38,14 l -7,2 -3,1 c -3,0 -11,6 -11,8 0,2 9,9 11,8 6,-1 8,-1 10,1 l 7,1 5,1 1,1 h -3 c -3,0 -5,0 -4,1 l -2,1 -8,2 -11,2.999996 c -10,3 -24,14 -28,21 -2,4 -1,3 5,-2 a 81,81 0 0 1 49,-17 c -4,0 -5,1 -3,2 2,2 6,3 11,2 5,-2 15,-1 13,1 -3,1 -24,3 -28,1 l -3,1 -3,1 -4,2 c -4,3 0,4 17,4 l 15,1 h -14 c -12,0 -16,0 -24,2 l -13,3 c -6,1 -20,8 -22,11 -2,3 -1,3 4,1 a 73,73 0 0 1 25,-5 c -2,-2 14,-4 27,-5 11,0 11,0 1,1 a 59733,59733 0 0 0 -17,3 l -8,2 c -3,1 -5,2 -8,1 h -5 c 0,1 -9,4 -11,3 l -4,1 c -3,1 -3,1 0,1 6,1 3,4.000004 -4,5.000004 -4,0 -5,1 -6,3 -2,3 -3,6 -1,6 1,0 4,-3 3,-4 h 3 l 3,2 -2,1 c -2,-1 -2,0 -2,1 0,2 1,1 5,-1 l 3,-3 c -1,-2 0,-2 1,-1 2,2 2,6 -1,8 -3,2 2,2 18,0 a 918,918 0 0 1 122,-1 c 6,-1 8,0 9,1 l 2,1 c 4,-2 8,0 10,4 l 2,3 v 10 l -1,-1 c -1,-2 -3,-3 -6,-3 -3,0 -4,1 -2,4 2,4 0,7 -3,4 l -3,-1 c -1,0 -3,-3 -2,-4 l 2,-1 c 3,0 2,-4 -1,-6 -5,-2 -9,-1 -6,2 l 3,6 3,4 5,4 4,2 c 4,0 6,6 3,8 -4,1 -7,0 -7,-2 l -2,-2 v 2 l 1,5 c 0,2 0,2 1,0 2,-2 1,-2 6,5 1,1 2,2 3,1 h 4 l 4,-2 1,-2 h -2 c -2,-2 1,-4 5,-4 5,0 4,2 -2,8 -5,5 -5,5 -7,3 -1,-2 -2,-2 -3,-1 -1,1 -2,0 -4,-3 -3,-4 -4,-3 -6,2 -3,9 -11,15 -19,15 l -4,3 c -5,3 -9,4 -27,3 -13,-1 -15,0 -11,5 3,2 3,3 0,6 -2,3 -3,3 -5,-1 l -5,-8 -2,-6 -4,-5 -4,-3 c 0,-2 -11,-8 -15,-8 -8,0 -25,20 -20,24 2,2 2,2 0,7 l -1,6 c 0,4 -1,4 -5,1 z"
     id="path2" /></svg>
