<svg width="400" height="400" xml:space="preserve" xmlns="http://www.w3.org/2000/svg"><path style="fill:#000;stroke-width:.974078" d="M10 397c0-5 1-7 4-7l3-3c2-6 3-8 6-9l5-2c2 0 3-1 5-3l5-6 4-2c1-1 6-4 13-6 13-5 24-10 28-14 4-3 11-6 17-7l28-8c2-1 3-1 5 1 1 1 2 2 3 1 1-2 2-1 3 2 0 4 3 4 5 0v-8c-1-6-1-9 1-5 1 2 2 2 2-1l-1-2c-2 0-2-2-1-3l1-3c-1-2 5-8 8-8l1-1c0-2 6-4 8-3 3 2 4 2 6-2 1-3 1-3-1-5-2-1-3-8-1-13v-3c-2-3-1-6 2-5 2 1 2 1 1-2-1-7 1-9 8-5 2 2 3 3 3 1s4-1 6 1 5 1 5-2c0-6 15-7 18-1 3 5 1 7-6 7-2 0-4 1-6 4l-5 4-3 3c-2 3-2 5-1 11 1 2-2 3-3 1-1-1-1-1-2 1h-3c-2-2-5 0-5 4 0 3 1 3 4 3l6 2c2 2 2 2 3 1l10-5c3 0 5-1 6-5 2-3 4-4 6-3 1 0 1 1-1 4-3 5-3 6 2 3 3-3 3-3 3-1l2 2 2 1c0 2 1 2 3 1h5l4-1c1-1 2 0 4 2 2 3 4 4 5 4 6 0 8 3 6 8-2 3-1 10 2 15 2 4-1 8-5 8-3-1-3 0-3 3 1 3 0 4-2 4-2-1-2-1-1-5 0-6-3-6-5-1-2 4-5 6-15 7l-10 2-5 1-3 1-22 2c-4 0-5 0-5 2l-3 6c-4 6-1 22 3 17h3l3 2 2 2 2 3 1 2v2c1 1 4-1 5-4 2-4 13 0 16 7 2 4 4 4 5 0 3-6 8-10 8-6l2 2c2 0 4 0 5 2l3 1c3-1 2 1-1 3-2 1-3 2-2 3l6-3 6-3 3-10 2-1c2 1 6-3 6-7 0-3 1-5 3-5l3-4c3-6 3-6 7-2l6 6c3 3 4 11 1 16l-1 4c1 1 0 3-1 4l-1 4-3 4-3 1h-1c-4 4-247 1-247-3zm155-61h3c1 1 14-2 16-5s5-2 6 2c1 2 1 2 3-1 2-4 7-4 9 0 1 1 2 2 3 1 3-2 9-3 12 0h8c6 3 12-2 7-5l-2-3c0-3-7-8-10-8l-5-1c-6-4-39-1-42 3-1 2-1 2-4 2s-4 0-5 2c-5 5-3 17 1 13zm110 61 3-9c4-8 5-28 2-36-4-10 3-18 10-14l5 2 8 4c5 3 23 8 39 10l8 3c3 2 9 4 17 5l31 6 1 17v16H275ZM160 266l-6-2c-3 0-4-3-1-5 2-2 2-2-3-1-12 1-18 0-18-4l-6-3c-11-2-12-2-8-3 9-2 9-1 8-6l1-5v-5c-1-4-1-4 2-4 4 1 9-5 7-8l-2-4c-4-8-11-4-12 7-1 9-2 10-4 10l-3 1h-12c0 1-1 1-3-1-3-3-3-3-21-2-23 1-30-5-28-21 2-10 32-31 53-37 8-3 9-4 8-10-8-36 14-82 43-87l7-2 5-2 4-2c4-4 12-4 32 0h9c5-3 14-2 21 1l8 2c3 0 11 4 14 7 2 2 2 2-1 0-4-3-6-4-15-6-18-4-17-4-19-2l-5 2c-2 0-2 0 1 1 4 3 0 8-6 9a169 169 0 0 0-38 14l-7 2-3 1c-3 0-11 6-11 8s9 9 11 8c6-1 8-1 10 1l7 1 5 1 1 1h-3c-3 0-5 0-4 1l-2 1-8 2-11 3c-10 3-24 14-28 21-2 4-1 3 5-2a81 81 0 0 1 49-17c-4 0-5 1-3 2 2 2 6 3 11 2 5-2 15-1 13 1-3 1-24 3-28 1l-3 1-3 1-4 2c-4 3 0 4 17 4l15 1h-14c-12 0-16 0-24 2l-13 3c-6 1-20 8-22 11s-1 3 4 1a73 73 0 0 1 25-5c-2-2 14-4 27-5 11 0 11 0 1 1a59733 59733 0 0 0-17 3l-8 2c-3 1-5 2-8 1h-5c0 1-9 4-11 3l-4 1c-3 1-3 1 0 1 6 1 3 4-4 5-4 0-5 1-6 3-2 3-3 6-1 6 1 0 4-3 3-4h3l3 2-2 1c-2-1-2 0-2 1 0 2 1 1 5-1l3-3c-1-2 0-2 1-1 2 2 2 6-1 8s2 2 18 0a918 918 0 0 1 122-1c6-1 8 0 9 1l2 1c4-2 8 0 10 4l2 3v10l-1-1c-1-2-3-3-6-3s-4 1-2 4c2 4 0 7-3 4l-3-1c-1 0-3-3-2-4l2-1c3 0 2-4-1-6-5-2-9-1-6 2l3 6 3 4 5 4 4 2c4 0 6 6 3 8-4 1-7 0-7-2l-2-2v2l1 5c0 2 0 2 1 0 2-2 1-2 6 5 1 1 2 2 3 1h4l4-2 1-2h-2c-2-2 1-4 5-4 5 0 4 2-2 8-5 5-5 5-7 3-1-2-2-2-3-1s-2 0-4-3c-3-4-4-3-6 2-3 9-11 15-19 15l-4 3c-5 3-9 4-27 3-13-1-15 0-11 5 3 2 3 3 0 6-2 3-3 3-5-1l-5-8-2-6-4-5-4-3c0-2-11-8-15-8-8 0-25 20-20 24 2 2 2 2 0 7l-1 6c0 4-1 4-5 1z"/></svg>