<?xml version="1.0" encoding="UTF-8" standalone="no"?>
<!-- Created with Inkscape (http://www.inkscape.org/) -->

<svg
   version="1.1"
   id="svg2"
   width="460"
   height="460"
   viewBox="0 0 460 460"
   sodipodi:docname="redfern.svg"
   inkscape:version="1.2.2 (b0a8486541, 2022-12-01)"
   xmlns:inkscape="http://www.inkscape.org/namespaces/inkscape"
   xmlns:sodipodi="http://sodipodi.sourceforge.net/DTD/sodipodi-0.dtd"
   xmlns="http://www.w3.org/2000/svg"
   xmlns:svg="http://www.w3.org/2000/svg">
  <sodipodi:namedview
     id="namedview320"
     pagecolor="#ffffff"
     bordercolor="#000000"
     borderopacity="0.25"
     inkscape:showpageshadow="2"
     inkscape:pageopacity="0.0"
     inkscape:pagecheckerboard="0"
     inkscape:deskcolor="#d1d1d1"
     showgrid="false"
     inkscape:zoom="1.4065217"
     inkscape:cx="230.71098"
     inkscape:cy="230.35549"
     inkscape:window-width="1600"
     inkscape:window-height="827"
     inkscape:window-x="0"
     inkscape:window-y="0"
     inkscape:window-maximized="1"
     inkscape:current-layer="svg2" />
  <defs
     id="defs6" />
  <g
     id="g8">
    <path
       style="fill:#000000"
       d="M 9.7621833,461.80487 C 12.354497,436.94367 0.49923214,407.11569 18.9343,386.3001 c 20.373972,-19.64495 52.436876,-12.46938 73.4572,-30.81608 16.43621,-19.2565 52.36476,-21.96833 54.91684,-50.92271 0.2988,-28.38358 -18.35052,-52.88049 -18.65019,-81.41559 -3.25748,-21.2644 5.76979,-32.97707 5.58231,-54.01363 0.0878,-31.04544 10.94378,-62.81736 30.8923,-86.624146 20.87537,-18.694606 50.15424,-28.493488 77.83615,-21.542565 25.08884,0.624793 49.06815,11.964751 62.96145,33.358161 24.06065,30.45853 38.34397,74.38784 22.13106,111.47575 -5.37662,-15.09232 -5.56715,-36.34261 -5.70722,-53.85689 0.90641,-24.17493 -14.80087,-45.42771 -30.20956,-62.562475 -14.77627,-19.623333 -36.95094,-5.376634 -47.08738,8.059619 -2.29488,-17.916474 -17.54574,-25.762688 -33.81573,-15.397942 -17.12701,-1.104639 -36.55223,9.769121 -53.5251,19.791568 -6.43214,9.62117 -21.63799,37.83299 -11.70773,37.77331 14.19124,-9.26947 11.24636,25.92272 6.54304,30.80378 16.96164,13.11853 42.70978,7.74287 59.11692,21.86021 17.58592,20.96294 -15.70822,51.10865 4.79387,67.69564 7.36042,8.61847 46.74964,1.12629 20.91387,6.38239 -27.20488,5.04839 -17.56999,33.07036 3.48533,38.50285 9.52627,2.39506 35.78212,6.3617 36.62358,-3.37675 2.34935,-14.15649 28.75375,27.45124 4.29721,13.83293 -21.2423,-15.01703 -47.43948,4.28824 -71.12639,0.28238 13.02852,13.16312 -11.73427,9.03769 -15.7548,10.29008 9.87395,14.45895 27.14724,21.90837 42.21476,9.74849 20.76856,9.08582 -18.35363,31.6198 -14.0045,17.64966 -9.24625,6.88343 -2.57409,22.92691 -13.2678,15.03265 -7.1084,6.08383 -3.20964,20.927 -6.05211,7.10606 -5.77373,-5.81812 9.23281,-22.69374 -5.31834,-12.70383 -4.06499,13.56251 -17.13926,11.24448 -7.20307,-0.93603 10.5843,-4.37127 16.5513,-12.33473 1.54365,-6.09843 -19.11218,9.5636 -7.37485,35.83711 -3.94843,43.28999 -6.21047,18.49903 27.20446,23.97655 41.55071,26.38552 23.68492,2.21131 50.17284,-6.29127 63.26424,-27.25235 -3.4461,17.85776 -24.70224,28.93558 -42.03631,31.51983 -24.31819,10.79446 26.38245,0.24333 31.28777,-8.3818 23.33646,-15.46375 41.40929,-44.05224 36.78613,-72.60661 -7.82528,-13.68876 -5.629,-43.72758 15.34326,-25.99225 24.30003,9.41305 47.97489,20.41346 72.58602,29.02568 17.00548,19.3114 18.2576,46.61529 28.2341,69.47759 7.07644,18.52681 1.04737,52.55118 -25.04917,41.67122 -22.43131,4.47768 -55.91364,3.87263 -53.81214,-27.5292 -1.64964,-13.50821 -8.10684,-41.73957 -12.61976,-44.59403 3.60293,22.63328 3.64897,46.34835 12.07623,67.76837 -9.10461,13.04096 -31.20698,0.17665 -44.47111,5.59219 -8.74048,-11.77227 2.53225,-0.49133 -0.11724,-11.67507 -6.67148,-5.49649 -7.31197,17.71894 -20.74622,11.8698 -49.83927,-1.482 -99.82445,-0.32746 -149.73318,-0.69261 -43.602258,0 -87.204513,0 -130.806767,0 l -0.521415,-1.08645 z m 304.9694967,-22.45 c -5.6112,-2.0866 4.74063,11.62322 0,0 z m -7.76713,-30.37641 c 8.2978,-16.86572 -14.18415,13.07057 0,0 z m 19.13385,-14.04228 c 13.53788,-9.0115 -5.74328,-48.9219 -6.67566,-17.6426 -0.81184,5.4765 -4.93483,23.04761 6.67566,17.6426 z m -3.33753,-3.55212 c 2.1275,-9.88468 0.16116,-37.46331 4.59425,-12.84836 -0.18682,3.30774 2.67854,16.37801 -4.59425,12.84836 z m 3.77081,-3.35682 c -4.10787,-5.06229 -0.19943,6.47678 0,0 z m -1.90622,-17.77859 c -5.45077,0.77346 7.89332,7.46817 0,0 z m -2.59378,11.30622 c 3.61785,-4.41898 -0.62963,3.89169 0,0 z m 20.5,-3 c -1.87382,-5.41267 -1.97363,3.43497 0,0 z m -164.89353,-4.00525 c -8.89407,-14.17577 30.85822,-34.42327 0.47712,-23.2134 -13.17355,-4.69307 14.80446,-18.97356 -3.32919,-14.19764 -5.93597,9.70854 -4.59088,30.28811 2.85207,37.41104 z m -3.4398,-15.66142 c -4.54516,-10.95342 12.10959,0.45522 0,0 z m 148.58231,-27.58333 c 3.79612,-17.84124 -16.67663,-3.10534 0,0 z m -137.3519,-1.66523 c 12.09167,-18.54557 -31.17244,-8.17607 -8.5286,-1.60182 2.37447,1.24662 5.74951,3.35632 8.5286,1.60182 z m -7.81468,-3.63805 c -20.698,-8.14282 23.59873,-1.85437 0,0 z m 5.21592,-1.41396 c -6.17353,-11.44081 -7.10206,7.33415 0,0 z m 60.02634,-13.69075 c -3.80776,-9.62016 -9.17168,6.45484 0,0 z m -35.32466,-5.71957 c -1.0572,-11.70194 -6.5539,0.0977 0,0 z m -49,-2.56544 c 20.15182,0.52028 43.86467,-12.4391 39.12448,-35.69937 -7.49234,-14.45751 13.43298,-47.58741 -14.5464,-42.42168 -10.71873,8.45387 -31.29952,1.74975 -35.68591,6.03534 -2.63622,24.21312 0.33959,53.21046 8.9326,74.32806 l 1.08136,-0.6533 z m -3.28828,-0.67862 c 11.8189,-11.31302 38.21536,-1.93637 40.06013,-26.049 6.66761,-4.46281 -7.68169,19.05074 -17.15382,20.49064 -7.65928,4.76317 -16.70171,-2.78738 -22.90631,5.55836 z m -1.51677,-7.87838 c 0.4988,-9.21549 0.1746,9.00415 0,0 z m -0.96295,-6.5 c 0.44302,-10.01186 0.22602,10.47203 0,0 z m -1.03705,-6.5 c 0.4988,-9.21549 0.1746,9.00415 0,0 z m -1.03706,-5.5 v 0.0898 z m -0.88553,-7 c 0.23354,-14.44351 0.36286,12.34467 0,0 z m 43.03751,-5.5 c 0.46614,-16.36361 0.18232,16.57695 0,0 z m -43.40629,-12 c -1.21525,-16.8783 2.80709,12.9709 0,0 z m 44.3486,1 c 0.30496,-11.47687 0.25005,11.53008 0,0 z m 0.90571,-6.5 v 0.0898 z m 1.57679,-9 c 2.24238,-15.88412 -0.94513,15.91479 0,0 z m -49.72852,-1.80305 c -4.28051,-11.07279 17.24886,-0.87011 3.27762,-5.126 -0.0434,-1.91521 -3.05483,8.93737 -3.27762,5.126 z m 18.49384,-3.25167 c 11.30505,-6.21754 -0.445,5.09797 0,0 z m 21,-4.94528 c 14.73493,-6.81141 -13.49647,7.73959 0,0 z m 8.8336,-0.57285 c -5.17005,-8.80032 5.67395,5.56736 0,0 z m 19.6664,64.95755 c 10.57022,-24.04857 -24.34319,2.57966 -8.24338,2.66177 2.11089,-5.47221 6.163,18.72008 8.42577,0.86861 z m 3.7381,11.92482 c -9.04675,-6.16239 3.43348,5.38116 0,0 z m -18.58294,-11.94993 c -5.00451,-13.49266 -13.64859,11.99651 0,0 z m 23.84484,-22.82971 c -2.52188,-12.52524 -23.73856,-6.47791 -6.77784,-0.5438 1.05013,1.47371 5.93429,4.05495 6.77784,0.5438 z m -20.34053,-6.6121 c 9.42414,-14.37715 -8.83668,-13.89407 -4.5551,0.619 1.0113,5.06253 6.11319,4.6077 4.5551,-0.619 z m 6.87677,-35.16778 c 11.39828,-19.09345 -15.35195,-3.4463 -2.64364,4.22468 1.22971,-1.18675 1.89057,-2.72584 2.64364,-4.22468 z m -3.5008,-0.3 c 0.40544,-9.49045 4.65249,-1.70899 0,0 z m -67.03544,-9.45 c -1.37701,-9.87021 -2.35553,8.89507 0,0 z m 52.22354,1.0277 c 22.8399,2.98158 -4.3691,-24.92325 -8.80696,-6.23013 -12.1673,-3.60058 -26.23489,7.69798 -7.08709,8.22261 5.35182,0.0664 10.75594,-0.4275 15.89405,-1.99248 z m -21.72354,-0.70225 c 6.56193,-8.88183 41.50804,-8.60909 17.87999,-0.2786 -5.89603,0.70098 -11.98904,1.26659 -17.87999,0.2786 z m 21.59861,-3.1808 c -0.28797,-12.32505 -10.18093,9.69674 0,0 z m -14.42693,-11.28877 c 11.34583,4.03667 34.55121,-2.69929 13.54249,-12.62346 -12.10773,-5.25124 -31.94242,1.96214 -25.74722,12.61828 -3.12371,5.66877 9.98894,-1.40399 12.20473,0.005 z m -2.91898,-3.02346 c 13.24847,-3.71021 21.41943,3.78184 0,0 z m -9.7527,-4.73789 c 7.22161,-11.43879 37.02517,2.81783 10.86647,-0.73125 -3.59812,0.38281 -7.22971,2.10904 -10.86647,0.73125 z m 15.25,-2.80026 c -10.51974,-2.74378 -1.15903,2.96261 0,0 z m -38.04795,2.55889 c 4.71462,-10.09395 -2.55219,-31.65645 -3.80297,-9.27503 -2.03737,5.6776 1.69473,25.16085 3.80297,9.27503 z m 33.24919,-11.9044 c -9.45529,-10.65578 -16.12524,10.93489 0,0 z m 73.84691,-97.580245 c 2.6806,-11.905624 -9.6793,0.536117 0,0 z m 10.70185,-10.368517 c -4.24557,-6.213357 -5.88502,6.107855 0,0 z m 99.48011,384.447852 c -4.03551,-11.12875 -9.04201,-26.70296 -7.51539,-36.61723 1.48536,12.34248 12.32697,23.88952 7.51539,36.61723 z m -3.06835,-17.85961 c -5.6458,-13.76874 4.00425,16.21292 0,0 z m -2.72865,-9.77574 c -2.77432,-3.02837 2.47846,7.99489 0,0 z m 83.58925,26.1875 c 0.23354,-14.44351 0.36286,12.34467 0,0 z m 0.82136,-7 c 1.16483,-4.64666 2.67602,-7.99313 0,0 z m 3.98523,-12.58333 c -0.18437,-11.57536 1.53211,5.50644 0,0 z m -0.92106,-4.41667 v 0.0898 z m -1,-5 v 0.0898 z m -1.07894,-3.66821 c -7.23701,-4.87063 1.94199,-5.38718 0,0 z m -206.79244,-2.07187 c 16.28608,-0.63923 12.03492,1.20933 0,0 z m -14.78651,-1.73192 c -2.8566,-4.29933 12.24987,4.92388 0,0 z m 32.76903,0.77901 c 7.23177,-1.49445 4.58311,1.24908 -0.48496,0.52993 z m 5.54347,-0.99012 c 6.50432,-3.28829 -1.21391,2.91995 0,0 z m 6.1875,-1.81689 c 14.22958,-4.8357 -7.8704,4.17481 0,0 z m 175.07895,-1.08333 c -0.18437,-11.57536 1.53211,5.50644 0,0 z m -230.07895,-0.41667 c -4.02947,-4.19072 12.584,7.06247 0,0 z m 65.68683,-2.78986 c 19.63142,-1.14275 11.5741,-32.76058 25.11519,-34.37865 -14.88482,6.4294 3.05057,20.04462 -12.88852,26.44683 -3.72007,2.781 -7.24548,7.74345 -12.22667,7.93182 z m 163.47106,-1.21014 v 0.0898 z m -242.28563,-3.75 c -10.49352,-10.70001 13.27292,4.221 13.68859,-3.43646 13.77099,-1.18609 -20.44224,-14.77788 0.007,-18.65323 17.92291,-2.76277 3.64695,33.45495 27.40311,20.67061 10.39837,-4.32583 25.71145,0.34711 14.2907,-15.44368 -5.36357,-11.18474 21.37023,-24.23994 17.68647,-4.27616 7.71002,15.13236 -16.64268,7.53891 -12.94764,8.29841 5.03258,22.21375 -39.95719,18.73912 -41.00642,-3.24327 -6.7702,-4.53942 8.31189,24.71435 -8.83176,17.84869 -8.52196,-3.82396 -16.05685,-7.22478 -5.17537,1.72998 l -2.64981,-1.60812 z m 75.12774,-10.81574 c 0.70916,-12.96334 -7.70859,3.20008 0,0 z m -8.37646,-6.14405 c -8.50569,2.26323 4.78972,8.90359 0,0 z m -1.62354,-2.70842 c 5.61259,-10.23134 -10.54375,1.83552 0,0 z m 6.58085,-3.73813 c -1.01288,-13.8949 -6.79366,13.70328 0,0 z m 27.33878,20.9114 c 12.66491,-14.08629 -8.94974,12.99251 -0.0648,0.0832 z m 141.01563,-0.50506 c -7.26881,-16.79641 3.93555,5.51376 0.38064,0.67539 z m -210.5554,0.58745 c -10.2398,-7.98703 4.60758,-17.6554 3.74632,-3.46312 7.54218,-3.30323 9.05889,-18.49801 9.30607,-1.98143 -1.01558,5.60365 -8.51935,6.50193 -13.05239,5.44455 z m -25.92098,-1.90398 c 0.4211,-6.04863 3.34162,4.57116 0,0 z m 9.8862,-1.4766 c -1.74866,-9.15911 4.42712,6.94157 0,0 z m 44.23787,-0.32266 c -3.21896,-6.4774 4.1024,2.84832 0,0 z m -25.53776,-4.38421 c -2.31286,-15.73626 12.11767,-1.12953 0,0 z m 17.62148,0.58333 c -11.19295,-7.93299 3.2537,-28.0279 1.69147,-7.34165 -0.0743,2.51664 -0.43261,5.11084 -1.69147,7.34165 z m -39.66667,-1.33333 c 2.20038,-4.48834 2.20038,4.48834 0,0 z m 225.07895,-3.66821 c -7.23701,-4.87063 1.94199,-5.38718 0,0 z m -150.3701,-1.95627 c -14.58415,-7.4405 11.39395,-10.82009 2.13234,-6.71565 -9.94566,-7.78575 4.31677,6.60908 -2.13234,6.71565 z m 23.29115,-1.72053 c 1.73452,-12.38357 7.32488,4.64841 0,0 z m 3.075,-0.92999 c -3.44392,-2.42549 -0.87995,4.98678 0,0 z M 9.9803333,389.63797 c 7.0212097,-7.02701 42.3502517,-26.67424 18.0737447,-11.87159 -5.896607,4.13758 -11.516387,8.77893 -18.0737447,11.87159 z M 187.37508,386.9602 c -5.03098,-14.96087 23.28168,-25.56844 13.04836,-4.03936 -8.89127,-21.04192 -6.94979,4.0959 -11.14135,6.64361 z m 107.1566,2.64996 c 7.50524,-5.74152 7.96705,-43.53808 10.32995,-17.96168 -0.0328,6.9562 -0.9809,17.92826 -10.32995,17.96168 z m 132.07895,-0.7235 c -7.23701,-4.87063 1.94199,-5.38718 0,0 z M 308.10036,378.80487 c 5.78579,-11.12827 -7.54227,-44.06751 5.43026,-41.61552 4.94375,16.69625 2.45646,35.49424 -5.68574,50.78408 l -0.4136,-4.6014 z m -97.56868,6.15 c 0.0731,-14.0706 5.35986,2.83174 0,0 z m 11.75,1.51807 c -14.30752,-11.34055 11.16631,-34.81843 14.3405,-28.90784 -11.05952,-2.01569 -21.94919,19.2812 -5.97068,11.44876 15.52479,2.83109 9.88726,13.73549 0.38854,1.50749 -4.11,3.39687 -0.49727,17.28337 -8.75836,15.95159 z m 4.16372,-8.04621 c -7.25815,-2.9672 -2.11393,10.13634 0,0 z m 0.25754,-3.52685 c 10.84214,-9.25835 -10.46468,2.51476 0,0 z m -44.13608,5.72073 c -5.5193,-13.61939 9.77896,-8.3005 0,0 z m 48.03463,-2.30914 c 2.83754,-12.70926 2.79233,10.4996 0,0 z m 44.96669,0.28247 c -7.73038,-5.06377 -6.33947,-38.14966 -1.43826,-18.59922 4.84646,3.24413 17.41855,29.34978 1.43826,18.59922 z m 7.9635,-0.30745 c -2.80538,-12.82072 -19.59673,-15.70982 -8.35144,-0.88657 1.17157,1.89528 8.51366,6.64041 8.35144,0.88657 z m -5.5573,-1.14986 c -5.41879,-7.37794 12.5725,8.60121 0,0 z m 144.64821,-0.67267 c -4.1898,-14.99884 5.40437,11.54258 0,0 z m -134.42922,-0.15087 c 11.78373,-9.45365 -15.87389,-24.12865 -3.85939,-22.00964 -3.61889,-2.91394 -5.82699,-22.65375 1.39182,-12.65298 -19.26077,4.07139 23.1908,17.23927 6.19706,0.48098 4.42956,-11.61732 16.39392,6.08458 2.02061,10.05648 -9.56861,5.29542 6.53298,31.00013 -5.7501,24.12516 z m 6.7956,-32.68912 c 1.77806,-4.98568 -4.48671,1.70621 0,0 z m -36.37834,28.73992 c -8.75668,-3.12437 0.98663,-6.12797 0,0 z m 39.116,-2.30902 c 0.49891,-9.21553 0.17481,9.00415 0,0 z m 122.37648,-2.07143 c -2.87776,-11.80596 3.69367,6.93597 0,0 z m -373.821427,0.90915 c 11.555359,-3.90738 -0.1654,3.30068 0,0 z m 5,-1 c 11.555359,-3.90738 -0.1654,3.30068 0,0 z m 228.225247,-1.90282 c -8.67046,-11.99604 9.37567,-1.82034 0.77727,0.77351 z m -219.975247,0.51406 c 16.907463,-2.05821 -11.687633,2.86642 0,0 z m 239.199357,-1.44896 c 4.29555,-9.64858 -2.9674,-2.90435 0,0 z m -221.667427,-3.7792 c 14.016805,-6.62403 39.545657,-29.06595 43.723187,-29.47549 -12.722,10.34262 -35.412318,26.48148 -43.723187,29.47549 z m 223.625957,-5.7208 v 0.0898 z M 413.6709,352.5216 c -8.2225,-6.62928 11.46094,5.10637 0,0 z m -111.94052,-8.37266 c 1.78017,-12.39289 20.70716,-41.89919 19.96801,-39.86808 6.7578,21.79324 35.19297,19.81151 51.46797,31.24252 17.01272,7.67272 -17.58047,-4.74961 -22.57211,-9.09017 -19.76871,-15.90592 -41.54714,-12.874 -47.48706,12.71165 -3.85769,0.97409 -0.69107,16.72214 -1.37681,5.00408 z m -59.1987,5.46495 c 0.46806,-12.54894 2.77471,4.23519 0,0 z m 164.75,0.2787 c 11.55536,-3.90737 -0.1654,3.30067 0,0 z m -10.63569,-4.88916 c -6.55452,-7.8453 11.42991,9.64425 0,0 z m -150.05261,0.82425 c 3.5399,-11.74439 -22.11938,-15.9025 -0.52078,-11.48859 1.54112,1.53352 4.56822,13.38834 0.52078,11.48859 z m 42.0575,-2.58791 c -4.96068,-10.25507 1.9896,-7.78472 0,0 z m -38.45253,-1.35157 c -7.42198,-16.70553 25.67013,2.61331 4.77724,-2.37634 -0.8903,0.9161 -2.92055,4.29144 -4.77724,2.37634 z m 3.83049,-3.32438 c -1.16059,-16.01609 -7.58606,8.50256 0,0 z m 9.32616,0.36053 c -8.11327,-15.25423 -6.27501,9.83027 0,0 z m 123.67668,1.63052 c -2.46415,-3.33513 9.77984,3.72384 0,0 z m -168.32019,-3.08368 c -11.17641,0.92988 -18.05607,-12.13475 -3.41091,-12.27085 -25.3708,11.59018 32.22351,9.78239 4.5404,13.47643 z m 66.82019,-3.48991 c 2.14423,-8.02608 5.87577,-3.35905 0,0 z m 8.25,-1.45757 c -11.27347,-9.25823 11.80951,0.0815 0,0 z m 5.15096,-1.71884 c -3.16809,-10.11132 -33.43883,-18.55935 -11.44149,-9.51673 12.39244,-2.20986 13.69628,-15.30501 8.9355,0.66531 0.87618,2.75565 4.20696,5.75483 2.50599,8.85142 z m -167.65565,-4.97305 c 11.79918,-2.6051 19.82897,-36.02652 10.78236,-9.04568 -2.6853,3.51616 -5.51803,9.53411 -10.78236,9.04568 z m 162.25469,-0.27695 c 1.87382,-5.41267 1.97363,3.43497 0,0 z m -74.21613,-0.75382 c -11.61066,-11.58505 22.00569,-8.14842 -0.57535,-6.42484 -2.24225,1.05122 3.47149,8.1789 0.57535,6.42484 z m 29.46613,0.0915 c 4.71226,-12.38463 15.71403,1.53363 0,0 z m -12.5,-9.04345 c 10.51974,-2.74378 1.15903,2.96261 0,0 z m 9,-0.95655 c 11.55536,-3.90737 -0.1654,3.30067 0,0 z m 5.0625,-1.02083 c 6.50432,-3.28829 -1.21391,2.91995 0,0 z m 4.6875,-1.31685 c 11.76843,-5.01712 -2.03865,3.22968 0,0 z m 8.5,-0.60451 c 0.42908,-4.44399 10.39137,7.58411 0,0 z m 40.06363,-4.39549 c -7.68819,-6.13972 -31.39579,-15.52507 -29.88802,-13.28604 10.97446,-7.34256 22.90717,6.06617 29.88802,13.28604 z m -46.66165,-3.39484 c -6.20225,-13.54698 18.07554,10.61432 0,0 z m -10.84311,-1.13696 c -9.82331,-10.73771 2.03877,-14.60059 -1.41792,-8.99729 4.89198,-4.65751 15.15785,-2.70306 3.31875,-0.99777 -1.69792,3.1474 6.76054,13.5691 -1.90083,9.99506 z m 21.44113,1.14838 c 7.98569,-5.43242 4.54936,3.15066 0,0 z m -13.92105,-5.19991 c -0.18406,-11.57469 1.53193,5.50651 0,0 z m -16.07895,-4.33488 c -1.75566,-10.39881 5.73869,0.0625 1.79013,2.1762 z m -94.82215,-2.97913 c -6.90719,-14.02608 7.10209,10.034 0,0 z m 114.82215,-1.17598 c 5.37644,-7.34814 2.24303,9.26277 0,0 z m -27.98494,-1.60336 c -4.61535,-12.81729 10.08713,-2.83169 0,0 z m 5.98494,-3.72828 c 4.96428,-13.81621 -23.23622,4.01945 -10.61015,-10.05529 6.51752,-6.77909 23.27294,-7.89603 5.78803,-3.2203 -15.45194,16.39233 25.25823,-9.94664 7.43606,6.72431 4.21149,4.40576 -1.81021,14.92617 -2.61394,6.55128 z m 4,-1.20203 c -4.12035,-3.73651 -3.08646,5.13953 0,0 z m -99.74782,-3.89301 c 0.30496,-11.47687 0.25005,11.53008 0,0 z m 104.74782,-0.96862 c 1.67757,-4.47841 2.41382,4.80681 0,0 z m 5.75,0.49088 c 2.60766,-5.63477 -3.26766,-14.3346 3.05366,-3.73462 0.38299,-0.31541 -3.79002,7.90331 -3.05366,3.73462 z m -3.69142,-4.67492 c -1.05573,-7.57367 1.83632,-0.99791 2.31025,2.48305 z m -108.55858,-2.34734 c -2.97551,-14.02386 3.7263,8.13305 0,0 z m 112.5,-5.02788 c 12.56254,0.70653 -3.97689,-16.13126 7.71532,-2.80666 1.10709,4.21116 -5.40267,4.83148 -7.71532,2.80666 z m -113.86382,-1.67771 c -8.64054,-11.98251 2.32953,-8.47148 0.24536,1.81876 l -0.16136,-1.19613 z m 90.36382,-2.90598 c -9.73315,0.65457 -20.406,-20.85361 -8.08828,-4.00894 4.35577,0.68378 23.77687,6.51286 8.08828,4.00894 z m 14.5,-3.38843 c 9.05709,-5.45837 -0.4112,3.52165 0,0 z M 128.56629,242.26909 c -3.25847,-17.71426 -8.39194,-39.04993 1.19691,-55.37163 -10.63767,17.73895 0.53595,48.44623 0.32357,60.35508 l -0.95324,-3.19686 z m 83.10596,1.28578 c -0.61188,-10.49611 3.59056,1.3337 0,0 z m 1.98114,-6.5 c 3.3168,-17.0379 4.83402,-10.75649 0,0 z M 327.53168,224.0877 c -1.41583,-6.53474 -5.18027,-22.42229 -0.69591,-7.62968 13.20209,4.98276 5.94705,-17.0671 4.28277,-10.43688 1.66271,-11.8011 8.64179,-26.32778 2.25243,-5.87822 3.57625,6.3464 8.99089,32.78887 -0.71298,24.71735 0.38346,-8.11306 -5.99848,14.67921 -5.12631,-0.77257 z m 9.92874,-2.1641 c 3.38579,-15.93651 -6.79807,10.32842 0,0 z m -53.67874,0.94194 c 7.73671,-2.49278 1.89159,2.9545 0,0 z m -8,-1 c 7.73671,-2.49278 1.89159,2.9545 0,0 z m 15.5,-0.34183 c 4.9901,-10.41717 -0.75033,6.9468 0,0 z m -73.59211,-1.96884 v 0.0898 z m 52.11114,1.30701 c 7.23178,-1.49465 4.58303,1.24914 -0.48499,0.52998 z m -10.99508,-3.51853 c -4.51648,-6.14865 -23.64559,-31.53865 -8.2623,-14.51683 14.20099,7.44837 43.85557,7.81227 51.43783,-0.72582 -7.66055,-7.57525 -40.39252,-5.62239 -34.08522,-13.58321 14.03173,-3.43122 54.10173,6.00953 27.63207,21.34642 -8.58698,-2.60406 -27.37484,-2.21023 -9.94513,6.74446 2.5041,-0.92104 -33.65871,-13.7002 -24.6966,1.40188 14.92743,4.14806 3.47568,3.13929 -2.08065,-0.6669 z m 9.62518,-9.31793 c -9.74482,-4.20956 -1.46856,5.94543 0,0 z m 37.08556,-9.22055 c -5.91694,-12.83407 -21.27278,-4.01564 -3.57341,0.60877 l 1.9123,0.38353 z m -15.98469,-4.25 c -5.03604,-3.34233 -9.44418,2.14054 0,0 z m -4.27083,-3.60417 c -6.2885,-4.36019 -2.1588,3.38268 0,0 z m -16.22917,27.20016 c -19.9924,-4.31602 12.73863,-6.37936 2.93498,1.15777 z m -50.21399,-6.09599 c 0.30686,-14.43739 0.39189,13.92636 0,0 z m 50.71451,-8.49934 c 0.97968,-18.45847 46.96623,7.04914 17.73234,-0.61863 -5.37038,2.60428 -13.77227,8.99574 -17.73234,0.61863 z m -14.50052,1.23403 c -12.08726,-8.93063 -16.71221,-19.68529 0.16922,-21.89468 8.83446,-5.43093 33.35861,-21.16578 31.24841,-3.68645 8.27879,-3.24101 23.64944,-12.05721 10.08869,2.15199 -12.83171,6.66198 -33.53574,-4.51812 -41.14544,11.7471 12.27691,-7.15644 9.99555,17.76797 -0.36088,11.68204 z m -38.30505,-9.73469 c 0.4988,-9.21549 0.1746,9.00415 0,0 z m 106.05723,-2 c 0.30496,-11.47687 0.25005,11.53008 0,0 z m -87.05218,-1.7 c 1.33664,-9.85796 12.05789,-6.38042 0.3932,-2.29388 0.075,0.40664 3.24681,6.09479 -0.3932,2.29388 z m -18.05943,-0.8 c -0.61188,-10.49611 3.59056,1.3337 0,0 z m -7.14057,-2.39301 c 3.4154,-5.13092 3.31167,3.1304 0,0 z m 111.232,-2.60699 c 0.44302,-10.01186 0.22602,10.47203 0,0 z m -124.90077,-2.25081 c -5.42861,-9.18272 -45.76612,-9.90396 -18.02318,-8.73149 6.08157,-1.18917 41.26948,16.70251 18.02318,8.73149 z m 75.48127,2.5677 c 6.50429,-3.28828 -1.21413,2.92012 0,0 z m -59.61755,-2.81689 c 0.4988,-9.21549 0.1746,9.00415 0,0 z m 2.82036,-2.25 c 1.3194,-15.4349 2.5162,13.62697 0,0 z m 71.92112,4.0015 c 17.74256,11.76723 15.74382,-23.36619 15.03335,-18.7325 32.25123,18.56859 -44.3055,22.88279 -18.14246,18.81151 z m 19.97797,-11.2515 c -3.92818,0.38436 0.65656,10.48856 0,0 z m 3.16119,10.27289 c 9.2696,-8.57983 -3.69638,6.59433 0,0 z m -91.11355,-5.37481 c -7.01805,-16.74283 3.41172,-4.92512 0.0725,4.01937 z m 30.03796,5.10192 c 11.13016,-7.21263 -2.27277,3.94179 0,0 z m 11.47544,-8.57284 c 16.02687,-14.07969 -13.47009,15.13731 -0.76709,0.79367 z m 47.60351,4.98951 c -0.18437,-11.57536 1.53211,5.50644 0,0 z m 12.15305,-1.41667 c 0.44302,-10.01186 0.22602,10.47203 0,0 z m -189.93234,-4 c 0.44055,-15.81783 0.26127,16.12097 0,0 z m 139.70034,-1.05902 c 9.21439,-6.68716 9.58458,-1.66923 0,0 z m 17.4152,-0.0782 c 7.44039,-10.89748 9.53772,10.05385 0,0 z m 7.5848,-1.36278 c -7.45228,-4.81613 -6.18086,4.78564 0,0 z m 24.25218,-1 c 0.30496,-11.47687 0.25005,11.53008 0,0 z m 18.02018,-0.5 c 0.23354,-14.44351 0.36286,12.34467 0,0 z m -184.72755,-1.2623 c 2.11162,-5.82876 16.25098,-23.49773 10.81737,-9.73879 -12.84104,-2.20823 -4.92367,16.01067 -10.81737,9.73879 z m -21.4265,-7.32103 c 0.96627,-19.67767 1.96943,8.69015 0.0694,2.29633 l -0.0364,-1.20642 z m 155.88169,2.29936 c 7.43029,-7.06189 1.72015,3.28268 0,0 z m 31.29966,-3.71603 c 0.44055,-15.81783 0.26127,16.12097 0,0 z m 17.77929,3.41667 c -0.18437,-11.57536 1.53211,5.50644 0,0 z m -0.92106,-4.41667 v 0.0898 z m -1.32714,-9 c -3.58599,-15.25769 3.23031,5.16758 0.0863,0.71439 z m -16.7518,0.41667 c -0.18437,-11.57536 1.53211,5.50644 0,0 z m 0.92105,-3.39366 c 4.4158,-7.67328 3.26792,3.96612 0,0 z m -184.86639,-3.1582 c 1.32187,-14.7119 2.76976,4.64132 0,0 z m 22.49157,-0.84356 c -6.0625,-14.57474 6.50564,10.91329 0,0 z m 174.99836,-5.55991 c -4.43195,-8.30294 3.77569,3.34329 0,0 z m -12.54459,-0.12955 c -7.23701,-4.87063 1.94199,-5.38718 0,0 z m -166,-4.91512 c -0.18406,-11.57469 1.53193,5.50651 0,0 z m 176.54459,0.0447 c -4.91268,-10.14006 3.814,0.91488 0,0 z M 136.66786,131.6339 c 0.27997,-9.82491 11.81441,-23.72178 3.13527,-7.01728 -0.0644,-1.39483 -2.5346,11.79423 -3.13527,7.01728 z m 177.8475,-3.39604 c -8.87179,-13.979 8.8957,10.72503 0,0 z m -162.98368,1.03337 c -7.00635,-9.19736 3.57125,-13.16989 0,0 z m 176.15789,-3.71636 v 0.0898 z m -5.65789,-10.09243 c -8.7905,-21.229334 -26.80473,-38.076945 -45.98446,-50.01599 22.97618,6.083455 44.15214,44.33653 48.16975,52.77738 z m -12.38889,2.98132 c -4.34045,-13.3508 5.04553,9.05843 0,0 z M 152.57588,114.1902 c 7.06747,-19.647627 33.35462,-22.71236 49.03154,-27.111847 7.43822,8.390724 16.8615,-9.158494 6.20648,4.111038 -18.32846,-4.283067 -37.01046,4.72414 -51.29181,16.358079 -1.68465,1.96555 -3.01368,4.22936 -3.94621,6.64273 z m 149.56508,-9.10233 c -4.35401,-9.589181 -31.90209,-28.82623 -8.92575,-12.637335 3.11429,2.945501 20.05943,27.098645 8.92575,12.637335 z m -156.60928,3.27098 c 3.12716,-14.54429 26.51319,-38.326625 29.87454,-37.91484 -14.57498,8.31157 -20.40424,25.03507 -29.87454,37.91484 z m 94.97999,-7.87831 c 0.22373,-2.397924 11.94208,5.94591 12.81376,-5.415231 -0.37198,2.347935 -14.17174,16.574021 -12.81376,5.415231 z m -13.64198,-6.39485 c -10.70775,1.870587 -11.43235,-18.049756 -0.13024,-6.439265 11.10049,0.156841 1.01463,-16.63588 11.31014,-3.417068 -0.63652,6.778568 1.57953,19.589253 -11.1799,9.856333 z m 9.63057,0.719178 c -9.92634,-16.50213 -16.86766,5.542172 0,0 z m 19.14742,-6 c 5.67148,-7.707686 2.89921,5.08828 0,0 z m 7.40512,-0.641787 c 7.27788,-9.959868 20.57904,-0.983974 3.15934,-1.513599 l -1.77216,0.396732 z m -36.02112,-4.608213 c -9.12962,-3.406394 14.0067,2.187969 0,0 z M 192.6122,63.221844 c 9.47127,-6.700248 13.65055,-3.018841 0.78824,0.999542 -0.72446,1.693515 -9.81516,1.406117 -0.78824,-0.999542 z m 73.73198,-1.35009 c 6.98004,-2.734071 -1.94004,2.649197 0,0 z m -9.3125,-1.316886 c 1.15128,-3.57997 10.30667,5.28184 0,0 z m -14.73209,-1.724731 c 6.01845,-0.696617 7.64223,1.290253 0,0 z M 227.5966,57.419555 c -12.56173,-4.450306 18.175,3.0082 0,0 z m -18.98159,-0.229219 c 7.76576,-2.629628 9.20975,1.186325 0,0 z m 213.58334,-6.302135 c -6.63549,-9.860406 6.67124,-3.920207 0,0 z"
       id="path239" />
  </g>
</svg>
