<svg xmlns="http://www.w3.org/2000/svg" width="434" height="420" stroke="#000" stroke-linecap="round" stroke-linejoin="round" fill="#fff" fill-rule="evenodd"><path d="M1 416c2-25-9-55 9-76 20-19 53-12 74-31 16-19 52-21 54-50 1-29-18-53-18-82-3-21 6-33 5-54 0-31 11-63 31-86 21-19 50-29 78-22 25 1 49 12 63 33 24 31 38 75 22 112-5-15-5-37-6-54 1-24-14-45-30-63-14-19-37-5-47 8-2-17-17-25-34-15-17-1-36 10-53 20-7 9-22 38-12 38 14-10 11 26 7 30 17 14 42 8 59 22 17 21-16 51 5 68 7 9 46 1 21 6-28 5-18 33 3 39 10 2 36 6 37-4 2-14 28 28 4 14-21-15-48 5-71 1 13 13-12 9-16 10 10 14 27 22 42 10 21 9-18 31-14 17-9 7-2 23-13 15-7 6-3 21-6 7-6-5 9-22-5-12-4 13-18 11-8-1 11-5 17-13 2-6-19 9-7 36-4 43-6 18 27 24 42 26 23 3 50-6 63-27-4 18-25 29-42 32-25 10 26 0 31-9 23-15 41-44 37-72-8-14-6-44 15-26l73 29c17 19 18 46 28 69 7 19 1 53-25 42-22 4-56 4-54-28-1-13-8-41-12-44 3 22 3 46 12 67-9 14-32 1-45 6-9-12 3 0 0-12-7-5-7 18-21 12H2l-1-2zm305-23c-6-2 5 12 0 0zm-8-30c8-17-14 13 0 0zm19-14c14-9-6-49-6-18-1 6-5 23 6 18zm-3-4c2-9 0-37 4-12 0 3 3 16-4 12zm4-3c-4-5-1 7 0 0zm-2-18c-6 1 8 8 0 0zm-3 12c4-5 0 3 0 0zm21-3c-2-6-2 3 0 0zm-165-4c-9-15 31-35 0-24-13-4 15-19-3-14-6 10-5 30 3 38zm-4-16c-4-11 12 0 0 0zm149-28c4-18-17-3 0 0zm-137-1c12-19-32-9-9-2 2 1 6 3 9 2zm-8-4c-21-8 23-2 0 0zm5-1c-6-12-7 7 0 0zm60-14c-4-10-9 6 0 0zm-35-6c-1-12-7 0 0 0zm-49-2c20 0 44-13 39-36-8-15 13-48-15-43-10 9-31 2-35 7-3 24 0 53 8 74l2-1zm-4-1c12-11 39-2 40-26 7-5-7 19-17 20-7 5-16-2-23 6zm-1-8c0-9 0 9 0 0zm-1-6c0-10 0 10 0 0zm-1-7c0-9 0 9 0 0zm-1-5zm-1-7c0-15 0 12 0 0zm43-6c0-16 0 17 0 0zm-43-12c-2-17 2 13 0 0zm44 1c0-11 0 12 0 0zm1-6zm1-9c3-16-1 15 0 0zm-49-2c-5-11 17-1 3-5 0-2-3 9-3 5zm18-3c11-7 0 5 0 0zm21-5c15-7-13 7 0 0zm9-1c-5-9 6 6 0 0zm20 65c10-24-25 3-9 3 3-6 7 18 9 0zm3 12c-9-6 4 5 0 0zm-18-12c-5-14-14 12 0 0zm24-23c-3-12-24-6-7 0 1 1 6 4 7 0zm-21-7c10-14-9-13-4 1 1 5 6 5 4-1zm7-35c12-19-15-3-2 5l2-5zm-3 0c0-9 4-2 0 0zm-67-9c-2-10-3 8 0 0zm52 1c23 3-4-25-9-7-12-3-26 8-7 9l16-2zm-22-1c7-9 42-9 18 0h-18zm22-3c-1-13-10 9 0 0zm-15-12c12 4 35-2 14-12-12-5-32 2-26 12-3 6 10-1 12 0zm-3-3c14-3 22 4 0 0zm-9-4c7-12 37 2 11-1-4 0-8 2-11 1zm15-3c-11-3-1 3 0 0zm-38 2c5-10-3-31-4-9-2 6 2 25 4 9zm33-11c-9-11-16 10 0 0zm74-98c3-12-10 0 0 0zm11-10c-5-7-6 6 0 0zm99 384c-4-11-9-27-7-37 1 13 12 24 7 37zm-3-18c-6-14 4 16 0 0zm-3-10c-2-3 3 8 0 0zm84 27c0-15 0 12 0 0zm1-7c1-5 2-8 0 0zm4-13c0-12 1 5 0 0zm-1-4zm-1-5zm-1-4c-7-5 2-5 0 0zm-207-2c16-1 12 1 0 0zm-15-2c-3-4 12 5 0 0zm33 1c7-2 5 1-1 0zm5-1c7-3-1 3 0 0zm7-2c14-5-8 4 0 0zm175-1c0-12 1 5 0 0zm-230 0c-4-5 12 7 0 0zm65-3c20-1 12-33 25-35-14 7 4 20-12 27-4 3-8 8-13 8zm164-1zm-242-4c-11-11 13 4 13-4 14-1-20-14 0-18 18-3 4 33 28 20 10-4 25 1 14-15-5-11 21-24 18-4 7 15-17 7-13 8 5 22-40 19-41-3-7-5 8 24-9 18-9-4-16-8-5 1l-3-1zm75-11c0-13-8 3 0 0zm-9-6c-8 2 5 9 0 0zm-1-3c5-10-11 2 0 0zm6-4c-1-13-7 14 0 0zm28 21c12-14-9 13 0 0zm141 0c-8-17 4 5 0 0zm-211 0c-10-8 5-17 4-3 7-3 9-19 9-2-1 6-8 6-13 5zm-26-2c1-6 3 5 0 0zm10-1c-2-9 4 7 0 0zm44 0c-3-7 4 3 0 0zm-25-5c-3-15 12-1 0 0zm17 1c-11-8 4-28 2-7 0 2 0 5-2 7zm-39-1c2-5 2 4 0 0zm225-4c-7-5 2-5 0 0zm-151-2c-14-8 12-11 3-7-10-8 4 7-3 7zm24-2c1-12 7 5 0 0zm3-1c-4-2-1 5 0 0zM1 344c7-7 42-27 18-12-6 4-11 9-18 12zm178-3c-6-15 23-26 13-4-9-21-7 4-12 7zm107 3c7-6 8-44 10-18 0 7-1 18-10 18zm132-1c-7-5 2-6 0 0zm-119-10c6-11-7-44 6-42 5 17 2 36-6 51v-5zm-97 6c0-14 5 3 0 0zm11 1c-14-11 12-34 15-28-11-2-22 19-6 11 15 3 10 14 0 2-4 3 0 17-9 15zm5-8c-8-3-3 11 0 0zm0-3c11-9-11 2 0 0zm-44 6c-6-14 9-9 0 0zm48-3c3-12 3 11 0 0zm45 1c-8-5-7-39-2-19 5 3 18 29 2 19zm8-1c-3-13-20-15-9-1 1 2 9 7 9 1zm-6-1c-5-7 13 9 0 0zm145-1c-4-15 5 12 0 0zm-135 0c12-9-16-24-4-22-3-3-5-22 2-12-19 4 23 17 6 0 4-11 16 6 2 10-9 5 7 31-6 24zm7-32c2-5-4 1 0 0zm-36 28c-9-3 1-6 0 0zm39-2c0-9 0 9 0 0zm122-2c-3-12 4 7 0 0zm-374 1c12-4 0 3 0 0zm5-1c12-4 0 3 0 0zm229-2c-9-12 9-2 0 1zm-220 1c17-3-12 2 0 0zm239-2c4-10-3-3 0 0zm-222-4c14-6 40-29 44-29-13 10-35 26-44 29zm224-5zm113-3c-8-7 11 5 0 0zm-112-9c2-12 21-42 20-40 7 22 35 20 51 32 17 7-17-5-22-10-20-15-42-12-48 13-4 1 0 17-1 5zm-59 6c0-13 2 4 0 0zm164 0c12-4 0 3 0 0zm-10-5c-7-8 11 10 0 0zm-150 1c3-12-22-16-1-12 2 2 5 14 1 12zm42-3c-5-10 2-8 0 0zm-39-1c-7-17 26 2 5-2-1 0-3 4-5 2zm4-3c-1-16-7 8 0 0zm9 0c-8-15-6 10 0 0zm124 2c-2-4 10 3 0 0zm-168-4c-11 1-18-12-4-12-25 12 33 10 5 14zm67-3c2-8 6-3 0 0zm8-1c-11-10 12 0 0 0zm5-2c-3-10-33-19-11-10 12-2 13-15 9 1 0 3 4 6 2 9zm-168-5c12-3 20-36 11-9-2 3-5 9-11 9zm163 0c2-6 2 3 0 0zm-75-1c-11-12 22-8 0-7-2 1 3 9 0 7zm30 0c5-12 16 1 0 0zm-13-9c11-3 2 3 0 0zm9-1c12-4 0 3 0 0zm5-1c7-3-1 3 0 0zm5-1c12-5-2 3 0 0zm9-1c0-4 10 8 0 0zm40-4c-8-7-32-16-30-14 11-7 23 6 30 14zm-47-4c-6-13 18 11 0 0zm-11-1c-10-11 2-15-1-9 5-5 15-3 3-1-2 3 7 14-2 10zm22 1c8-5 4 3 0 0zm-14-5c0-12 1 5 0 0zm-16-4c-2-11 5 0 1 2zm-95-3c-7-14 7 10 0 0zm115-2c5-7 2 10 0 0zm-28-1c-5-13 10-3 0 0zm6-4c5-14-24 4-11-10 7-7 23-8 6-3-16 16 25-10 7 7 4 4-2 15-2 6zm4-1c-4-4-3 5 0 0zm-100-4c0-11 0 12 0 0zm105-1c1-4 2 5 0 0zm5 1c3-6-3-15 3-4 1 0-3 8-3 4zm-3-5c-1-8 2-1 2 2zm-109-2c-3-14 4 8 0 0zm113-5c12 0-4-17 7-3 1 4-5 5-7 3zm-114-2c-9-12 2-9 0 2v-2zm90-3c-10 1-20-21-8-4 4 1 24 6 8 4zm15-3c9-6-1 3 0 0zm-113-18c-4-17-9-39 1-55-11 18 0 48 0 60l-1-3zm83 2c-1-11 3 1 0 0zm2-7c3-17 5-11 0 0zm114-13c-2-6-6-22-1-8 13 5 6-17 4-10 2-12 9-26 3-6 3 6 8 33-1 25 0-8-6 15-5-1zm10-2c3-16-7 10 0 0zm-54 1c8-3 2 3 0 0zm-8-1c8-3 2 3 0 0zm15 0c5-11 0 6 0 0zm-73-2zm52 1c7-2 5 1-1 0zm-11-4c-5-6-24-31-8-14 14 7 44 8 51-1-8-7-40-6-34-13 14-4 54 6 28 21-9-3-28-2-10 7 2-1-34-14-25 1 15 4 3 3-2-1zm10-9c-10-4-2 6 0 0zm37-9c-6-13-22-4-4 0l2 1zm-16-4c-5-4-10 2 0 0zm-5-4c-6-4-2 3 0 0zm-16 27c-20-4 13-6 3 1zm-50-6c0-14 0 14 0 0zm51-8c1-19 47 7 17-1-5 3-13 9-17 1zm-15 1c-12-9-17-20 0-22 9-6 34-21 32-4 8-3 23-12 10 2-13 7-34-4-41 12 12-7 10 18-1 12zm-38-10c0-9 0 9 0 0zm106-2c0-11 0 12 0 0zm-87-2c1-10 12-6 0-2 0 0 4 6 0 2zm-18 0c-1-11 3 1 0 0zm-7-3c3-5 3 3 0 0zm111-2c0-10 0 10 0 0zm-125-3c-5-9-46-10-18-8 6-2 41 16 18 8zm75 3c7-3-1 3 0 0zm-59-3c0-9 0 9 0 0zm3-2c1-16 2 13 0 0zm72 4c17 12 15-24 15-19 32 19-45 23-19 19zm20-11c-4 0 0 10 0 0zm3 10c9-9-4 6 0 0zm-91-6c-7-16 3-4 0 4zm30 6c11-8-3 3 0 0zm11-9c16-14-13 15-1 1zm48 5c0-12 1 5 0 0zm12-1c0-10 0 10 0 0zm-190-4c0-16 0 16 0 0zm140-2c9-6 9-1 0 0zm17 0c8-10 10 10 0 0zm8-1c-8-5-7 5 0 0zm24-1c0-11 0 12 0 0zm18 0c0-15 0 12 0 0zm-185-2c2-6 16-23 11-9-13-3-5 16-11 9zm-21-7c1-20 2 9 0 2v-1zm156 2c7-7 1 4 0 0zm31-3c0-16 0 16 0 0zm18 3c0-12 1 5 0 0zm-1-4zm-2-9c-3-16 4 5 1 0zm-16 0c0-12 1 5 0 0zm1-3c4-8 3 4 0 0zm-185-4c1-14 3 5 0 0zm22 0c-6-15 7 10 0 0zm175-6c-4-8 4 3 0 0zm-12 0c-7-5 2-6 0 0zm-166-5c0-12 1 5 0 0zm176 0c-5-10 4 1 0 0zm-192-1c0-10 12-24 3-7 0-2-3 11-3 7zm178-4c-9-14 9 11 0 0zm-163 1c-7-9 3-13 0 0zm176-3zm-6-11c-9-21-27-38-46-50 23 7 44 45 48 53zm-12 3c-5-13 5 10 0 0zm-157-4c7-19 33-23 49-27 7 8 17-9 6 4-18-4-37 5-51 17l-4 6zm149-9c-4-10-32-29-9-13l9 13zm-156 3c3-14 26-38 30-38-15 9-21 25-30 38zm95-8c0-2 12 6 12-5 0 2-14 17-12 5zm-14-6c-11 2-11-18 0-6 11 0 1-17 11-4 0 7 2 20-11 10zm10 1c-10-17-17 5 0 0zm19-6c5-8 3 5 0 0zm7-1c7-10 21-1 3-1h-1zm-36-4c-9-4 14 2 0 0zm-34-21c9-6 13-3 1 1-1 2-10 2-1-1zm73-1c7-3-1 3 0 0zm-9-1c1-4 10 5 0 0zm-15-2c6-1 8 1 0 0zm-14-2c-13-4 18 3 0 0zm-19 0c8-2 9 1 0 0zm213-6c-6-10 7-4 0 0z" fill="#000" fill-rule="nonzero" stroke="none"/></svg>