<?xml version="1.0" encoding="UTF-8" standalone="no"?>
<!-- Uploaded to: SVG Repo, www.svgrepo.com, Generator: SVG Repo Mixer Tools -->

<svg
   height="137.28392"
   width="137.28394"
   version="1.1"
   id="Layer_1"
   viewBox="0 0 65.553079 65.553072"
   xml:space="preserve"
   sodipodi:docname="linkedin.svg"
   inkscape:version="1.4.3 (0d15f75042, 2025-12-25)"
   xmlns:inkscape="http://www.inkscape.org/namespaces/inkscape"
   xmlns:sodipodi="http://sodipodi.sourceforge.net/DTD/sodipodi-0.dtd"
   xmlns="http://www.w3.org/2000/svg"
   xmlns:svg="http://www.w3.org/2000/svg"><defs
   id="defs1" /><sodipodi:namedview
   id="namedview1"
   pagecolor="#ffffff"
   bordercolor="#000000"
   borderopacity="0.25"
   inkscape:showpageshadow="2"
   inkscape:pageopacity="0.0"
   inkscape:pagecheckerboard="0"
   inkscape:deskcolor="#d1d1d1"
   inkscape:zoom="1.0125"
   inkscape:cx="-11.851852"
   inkscape:cy="115.06173"
   inkscape:window-width="1366"
   inkscape:window-height="696"
   inkscape:window-x="0"
   inkscape:window-y="0"
   inkscape:window-maximized="1"
   inkscape:current-layer="Layer_1" />
<path
   style="fill:#000000;stroke-width:0.171605"
   d="M 59.623267,0 H 5.929797 C 2.654897,0 0,2.65489 0,5.9298 v 53.693295 c 0,3.27508 2.654897,5.92998 5.929797,5.92998 h 53.6933 c 3.27508,0 5.92998,-2.6549 5.92998,-5.92998 V 5.9298 C 65.553077,2.65489 62.898177,0 59.623267,0 Z m -39.33837,56.602845 c 0,0.9531 -0.77257,1.72566 -1.72566,1.72566 h -7.34572 c -0.9531,0 -1.72566,-0.77256 -1.72566,-1.72566 V 25.80989 c 0,-0.95309 0.77256,-1.72566 1.72566,-1.72566 h 7.34572 c 0.95309,0 1.72566,0.77257 1.72566,1.72566 z M 14.886377,21.18153 c -3.85407,0 -6.97849,-3.12441 -6.97849,-6.97848 0,-3.85408 3.12442,-6.97849 6.97849,-6.97849 3.85407,0 6.97849,3.12441 6.97849,6.97849 0,3.85407 -3.12424,6.97848 -6.97849,6.97848 z m 43.78706,35.560315 c 0,0.87622 -0.71045,1.58666 -1.58666,1.58666 h -7.8825 c -0.87622,0 -1.58666,-0.71044 -1.58666,-1.58666 V 42.29821 c 0,-2.15467 0.63202,-9.44188 -5.63087,-9.44188 -4.85797,0 -5.84332,4.98787 -6.04118,7.22629 v 16.659225 c 0,0.87622 -0.71028,1.58666 -1.58666,1.58666 h -7.62372 c -0.87622,0 -1.58666,-0.71044 -1.58666,-1.58666 V 25.67089 c 0,-0.87621 0.71044,-1.58666 1.58666,-1.58666 h 7.62372 c 0.87621,0 1.58666,0.71045 1.58666,1.58666 v 2.68648 c 1.80133,-2.7033 4.47837,-4.78984 10.17823,-4.78984 12.62188,0 12.54964,11.79201 12.54964,18.27112 z"
   id="path1" />
</svg>
