<?xml version="1.0" encoding="UTF-8" standalone="no"?>
<!-- Created with Inkscape (http://www.inkscape.org/) -->

<svg
   version="1.1"
   id="svg1"
   width="20"
   height="20.015444"
   viewBox="0 0 20 20.015444"
   sodipodi:docname="InBug-Black.svg"
   inkscape:version="1.4.3 (0d15f75, 2025-12-25)"
   xmlns:inkscape="http://www.inkscape.org/namespaces/inkscape"
   xmlns:sodipodi="http://sodipodi.sourceforge.net/DTD/sodipodi-0.dtd"
   xmlns="http://www.w3.org/2000/svg"
   xmlns:svg="http://www.w3.org/2000/svg">
  <defs
     id="defs1" />
  <sodipodi:namedview
     id="namedview1"
     pagecolor="#ffffff"
     bordercolor="#000000"
     borderopacity="0.25"
     inkscape:showpageshadow="2"
     inkscape:pageopacity="0.0"
     inkscape:pagecheckerboard="0"
     inkscape:deskcolor="#d1d1d1"
     inkscape:zoom="1.9062902"
     inkscape:cx="129.04646"
     inkscape:cy="127.73501"
     inkscape:window-width="1366"
     inkscape:window-height="697"
     inkscape:window-x="-8"
     inkscape:window-y="-8"
     inkscape:window-maximized="1"
     inkscape:current-layer="g1" />
  <g
     inkscape:groupmode="layer"
     inkscape:label="Image"
     id="g1"
     transform="translate(-10.824915,-2.2649827)">
    <g
       id="g2"
       transform="matrix(0.07712082,0,0,0.07712082,11.931975,1.9689375)">
      <path
         style="fill:#000000"
         d="m 0.5140691,262.79169 c -6.783482,-1.45447 -12.6387031,-7.03055 -14.3725871,-13.68738 -0.434901,-1.6697 -0.496364,-15.98386 -0.496364,-115.59893 0,-99.615074 0.06146,-113.929232 0.496364,-115.598928 1.643615,-6.310267 6.6962021,-11.4012679 13.3543961,-13.4559269 1.906901,-0.588453 6.327489,-0.611805 115.8159019,-0.611805 109.48842,0 113.90901,0.02335 115.81591,0.611805 6.67663,2.06035 11.70129,7.1092399 13.34129,13.4056279 0.45225,1.736285 0.50947,14.725232 0.50947,115.649227 0,100.924 -0.0572,113.91294 -0.50947,115.64923 -1.76204,6.76494 -7.5627,12.17545 -14.66676,13.68028 -3.5128,0.74411 -225.8115989,0.70223 -229.2881509,-0.0432 z M 62.478451,163.00538 v -61.83333 l -19.25,-0.086 -19.249999,-0.086 v 61.78048 c 0,33.97926 0.101217,61.8817 0.224926,62.00541 0.12371,0.12371 8.78621,0.18621 19.250003,0.13889 l 19.02507,-0.086 z m 62.595819,27.58333 c 0.15513,-36.24641 0.18265,-36.91972 1.75256,-42.87293 2.19017,-8.30525 7.4497,-13.68821 14.90499,-15.25477 2.97824,-0.62581 9.06647,-0.69856 11.74663,-0.14036 6.24262,1.30018 10.61355,5.51642 12.80451,12.35139 1.76686,5.51193 1.77843,5.77834 1.92916,44.41667 l 0.1401,35.91666 h 19.14645 19.14644 v -37.78492 c 0,-44.25341 -0.18118,-47.97372 -2.84329,-58.38174 -4.52297,-17.68338 -14.27935,-26.84087 -31.99004,-30.026346 -2.47935,-0.44594 -5.12669,-0.60477 -10.33333,-0.61993 -6.16467,-0.0179 -7.41444,0.0724 -10.47293,0.75708 -5.99921,1.342996 -10.5071,3.245316 -15.36041,6.482056 -3.17569,2.11792 -8.43471,7.46586 -10.16666,10.33857 -0.73334,1.21634 -1.44584,2.21687 -1.58334,2.22339 -0.1375,0.007 -0.25,-3.81315 -0.25,-8.48815 v -8.5 h -18.5 -18.499999 v 61.77777 c 0,33.97778 0.1,61.87778 0.22223,62 0.12222,0.12222 8.73564,0.22222 19.140919,0.22222 h 18.91871 z M 48.775291,83.348054 c 3.94602,-1.00923 6.95476,-2.75453 10.06371,-5.83775 3.0024,-2.97755 4.31854,-5.06562 5.67596,-9.00492 0.80644,-2.34033 0.91798,-3.15617 0.91145,-6.66667 -0.006,-3.40539 -0.13752,-4.3964 -0.88255,-6.66666 -1.13897,-3.47072 -2.78032,-6.1684 -5.33436,-8.76741 -2.66484,-2.711771 -4.96661,-4.227667 -8.22511,-5.416871 -12.05359,-4.399015 -24.858058,1.883867 -28.907462,14.184281 -0.731883,2.22315 -0.882375,3.30421 -0.904851,6.5 -0.03025,4.30107 0.649035,7.14897 2.583982,10.83333 1.527171,2.90791 6.086296,7.37763 9.127567,8.94857 4.894574,2.52825 10.704574,3.22073 15.891664,1.8941 z"
         id="path1"
         sodipodi:nodetypes="ssscssssscssccccsssccsssssscccssscssscscccssscsssscssssssss" />
    </g>
  </g>
</svg>
