<?xml version="1.0" encoding="UTF-8" standalone="no"?>
<!-- Uploaded to: SVG Repo, www.svgrepo.com, Generator: SVG Repo Mixer Tools -->

<svg
   height="60.246891"
   width="60.246895"
   version="1.1"
   id="Layer_1"
   viewBox="0 0 28.767892 28.76789"
   xml:space="preserve"
   sodipodi:docname="linkedin.svg"
   inkscape:version="1.4.3 (0d15f75, 2025-12-25)"
   xmlns:inkscape="http://www.inkscape.org/namespaces/inkscape"
   xmlns:sodipodi="http://sodipodi.sourceforge.net/DTD/sodipodi-0.dtd"
   xmlns="http://www.w3.org/2000/svg"
   xmlns:svg="http://www.w3.org/2000/svg"><defs
   id="defs1" /><sodipodi:namedview
   id="namedview1"
   pagecolor="#ffffff"
   bordercolor="#000000"
   borderopacity="0.25"
   inkscape:showpageshadow="2"
   inkscape:pageopacity="0.0"
   inkscape:pagecheckerboard="0"
   inkscape:deskcolor="#d1d1d1"
   inkscape:zoom="1.0125"
   inkscape:cx="-11.358025"
   inkscape:cy="115.06173"
   inkscape:window-width="1366"
   inkscape:window-height="697"
   inkscape:window-x="-8"
   inkscape:window-y="-8"
   inkscape:window-maximized="1"
   inkscape:current-layer="Layer_1" />
<path
   style="fill:#000000;stroke-width:0.0753087"
   d="M 26.165602,0 H 2.6022845 C 1.1650985,0 0,1.1650954 0,2.6022859 V 26.165526 c 0,1.437265 1.1650985,2.602365 2.6022845,2.602365 H 26.165527 c 1.437265,0 2.602365,-1.1651 2.602365,-2.602365 V 2.6022859 C 28.767892,1.1650954 27.602792,0 26.165602,0 Z M 8.9020035,24.840093 c 0,0.418267 -0.3390414,0.757304 -0.7573039,0.757304 H 4.9210389 c -0.4182668,0 -0.7573039,-0.339037 -0.7573039,-0.757304 V 11.32664 c 0,-0.418262 0.3390371,-0.757304 0.7573039,-0.757304 h 3.2236607 c 0.4182625,0 0.7573039,0.339042 0.7573039,0.757304 z M 6.5328693,9.2954899 c -1.6913542,0 -3.0625023,-1.3711437 -3.0625023,-3.0624979 0,-1.6913585 1.3711481,-3.0625022 3.0625023,-3.0625022 1.6913541,0 3.0625022,1.3711437 3.0625022,3.0625022 0,1.6913542 -1.3710691,3.0624979 -3.0625022,3.0624979 z M 25.74877,24.901093 c 0,0.384528 -0.31178,0.696304 -0.696304,0.696304 H 21.59324 c -0.384528,0 -0.696304,-0.311776 -0.696304,-0.696304 V 18.56252 c 0,-0.945574 0.277361,-4.143558 -2.471101,-4.143558 -2.131914,0 -2.564334,2.188921 -2.651165,3.171249 v 7.310882 c 0,0.384528 -0.311705,0.696304 -0.696303,0.696304 h -3.345661 c -0.384528,0 -0.696304,-0.311776 -0.696304,-0.696304 V 11.26564 c 0,-0.384523 0.311776,-0.696304 0.696304,-0.696304 h 3.345661 c 0.384523,0 0.696303,0.311781 0.696303,0.696304 v 1.178959 c 0.790512,-1.18634 1.965328,-2.102016 4.466705,-2.102016 5.539097,0 5.507395,5.17491 5.507395,8.01826 z"
   id="path1" />
</svg>
