<svg width="348" height="375" xmlns="http://www.w3.org/2000/svg"><path style="fill:#000;stroke-width:1.33333" d="M168 380c-28-2-60-11-76-20-12-6-29-23-36-35-21-36-28-82-27-175 0-53 1-59 12-81 13-27 29-42 54-50 57-19 185-17 228 4 23 11 42 36 51 67 3 13 3 14 3 52 0 51-4 86-11 100-8 17-34 35-63 44-15 5-45 8-76 9a351 351 0 0 1-99-9c-1 0 1 17 4 25 3 10 14 21 25 25a210 210 0 0 0 111-1l1 15v16l-11 3a200 200 0 0 1-90 11zm-38-200v-53l4-7c10-20 41-15 48 8l1 36v32h40v-32l1-36c5-17 23-25 39-17 5 2 7 4 9 9l4 7v53l1 53h38v-58c-1-57-1-59-4-67-4-12-11-22-19-28-11-8-19-10-35-10-23 0-35 8-47 28l-7 10-7-10c-11-20-24-28-47-28-16 0-23 2-34 10-9 6-16 16-20 28-3 8-3 10-4 67v58h39z" transform="translate(-29 -6)"/></svg>