<svg xmlns="http://www.w3.org/2000/svg" xml:space="preserve" width="740" height="277" viewBox="0 0 196 73"><path d="m45 78-3-11h-1l-1 1-2-1-2-1h2l2-1 1-1-3-1h-1l2-1q4-4 5-11v-7q-1-2 0 0v1l1-1-1-12-4-1-6 2-1 1 1-1 5-4q4 0 3-3v-1l1 1 2 1v-2l-1-1-1-2-6-1h-1l-1 2v4h1-1l-1 1h1l-1 1v1-1h-2l-3 4-2 2-1-1-2 3 1 2-2-1v2l3 5v1l1 2 4 5 1 1-1 1 1 2h4l-1 2-2 2q1 6 7 11h-1l-5-4q-3-3-4-2l-2 1v-1l1-5-1-6-2-3v-2l-6-7-1-1 1 1 1 3v2l-2 1q0 6 3 5h1l-3 1-2 2v19l-3-11q0-6-3-5h-1l1-1 4-7 1-7-1-5-4 4-1 2 3-6 2-3v-3h-1 2l-2-9h1q1 2 1-2 1-3-2-2l-1 1 1-1 1-1-8-2H6l7-1 3 1 1-1 1-2v-4l-2-3q0-3 1 0l3 5q1 3 3 3h1l-2 3 3 3 6 2v1l1 1 3-4-5 1-1 1 5-4q2 1 2-2l1-1v2q3 0 3-3v-2l1 1 4 3v-2l-2-8V7l3 6 2 2 2 1h1l-1 1-1 2h-1l1 1h2l3-1h2-1v1l2-2h-2l-1 1 1-1 1-1h3l4-1q6 1 6-2v-1 1l1 1 1 1v-2l-2-7-1-1 1 1 3 4 2 4h2l-1 1-1 3 4 3 7 3v1h-1 1l1 1 2-5-5 1-1 1 1-1 6-3q4-1 4-4v-1l1 1 4 3v-3l-2-8-1-1 1 1 3 5q1 4 4 3h1l-1 1-2 2v1h1l5-1h2-1v1l1-1v-2 1l1 1q3 3 10-1l2-1-5 3-3 3 1-1 6-2 2-1 2-3-1-2 1 1 4 3 1-2-2-8V7l3 6 1 2 2 1h1l-1 1-1 2h-1l1 1h3l3-1h1v1l1-2v-1l1 2 2 1 6-1-4-1h1l4-1h2q2 0 0 0l1 1 3-3v-4l-2-3q-1-3 1 0l2 5q1 3 4 3 1 0 0 0l-1 3 3 3 5 2q3 0 1 1h-1l2 1 1-2 3-6 1-1v1l-2 4-1 3 1 2h1-1l-1 1h1l-1 1v1-1h-2l-4 4-1 2-1-1-2 3 1 2h-1l-1-1v2l3 5v3l5 5 1 1-1 1 1 2h4l-2 2-1 2q0 3 1 1 5-3 6-11v-8 1l1 1-1-13-1-4h1v1l1-3-1-4-1-1h1l1-1h-3l2-1h1l-5-11 4 6 2 3v-6l-2-4-1-2 1 1 3 6q1 3 4 3h1l-1 1-2 4v2l1 3 2 2h2v12l4 15v1l1-2V42l1 1v1-6q1-9-2-11h2v-1q1-3-1-5l-1-1q-1 1 0 0l1-1 2-1v-3l-1-8-1-1 4 6q1 3 3 3h1l-1 1-2 2v3l1 1-1 4q-2 8-1 9l1 1-1 1v11l1 2-1-1-1 4q0 4 3 3l1-1-1 1-2 1c-3 0-5 10-3 19l1 1-3-10q-1-5-4-5h-1l1-1 2-2 1-1-1-2-5-10h1c1 0-1-6-3-8l-2 1q-2 5 1 11l1 2-1-1h-1v4q0 3 3 2h1l-1 1-3 1h-1l-2 9v4l1 1h-1l1 5-2-5-2-2-3-3q-4-4-6-1v-1l1-5-1-6-2-3v-1l-1-1-5-7-1-1v1l1 3 1 2-2 1q-1 6 3 5h1l-3 1-2 2c-1 3-2 11 0 16v3l-3-11q-1-5-3-5h-2l2-1 4-7 1-7-1-5-4 4-1 2q0-3 3-6l2-3v-1l-1-2h2l-2-9q-1-1 0 0 3 2 2-2 1-2-2-2l-1 1 1-1 1-1-3-1-6 3v2h-1l-5-2-5 2-1 1v-2q-1 0 0 0l-1 3-1 3h6v-2l1 2h5l5-2h1l-4 3-3 3 1 1-2-1-4-1-2 2h-1v-1h-3v3l1 1-1 1-1 5 2 8q0 1 0 0-1-1-2 1l1 5h3-1l-2 1-1 1h3q2-2 1-4l-1-1 3 2 2 1 1-1h1l2-2-2-10-1-1 1 1 4 6 3 2 4-5v1l-4 7q-4 2-3 4v2l1 1h-9l-8 3-1 1v3l1 8v1l-3-11h-1l-1 1-1-1-2-1h1l3-1 1-1-3-1h-1l1-1q4-4 5-11v-7h1v1-13l-5-1-6 2v1-1l6-4q3 0 3-3v-1l1 1 1 1v-4l-4-2-10 2-1 1h-1q-5-3-9 0l-2 1v-2 1l-1 3v2l2 1 4-1v-1q-2-2 0 0l1 1 1 1q4 0 8-3l2-1-2 2-3 2q-3 2-2 4l-1-1-2-1q-3 0-5 2h-1v-1h-3l1 4v1l-2 4 2 7v2h-1l-1 2q1 5 3 4h1l-3 2q-3 0-3 6v12l-2-8q0-6-2-5l-1-1h-2l2-1 5-10v-8q-1-2 0 0h1l-1-12-4-1-6 2q-2 1 0 0l1-2h-1l-3 4-2 9-1 2v-1h-1l-3 8h2v1h-3l-2 1v1l2 1q1-2 0 0l-2 1-2 2-1 8 1 10v-1l-3-8-1-3-3 11v1l1-12 1-3h-3 1l2-3 1-2-3-1 1-1 3-2 1-1v-9q-1-2 0 0l1 1-1-11-2-6h1l1 1v-5l-1-2-1-1h1v-1h-1q-1 1 0 0v-1l-3 1-4 3v1l-5-2-5 2-1 1v-2h-1v3l-1 3h6v-2l1 2h5l4-2h1l-4 3q-3 2-2 3v1l-1-1-5-1-2 2h-1v-1h-2l-1 1 1 2v2l-2 5 3 8h-1l-1 1v5h3l-3 1-1 1h3q4-2 1-4v-1h-1l3 2 2 1 2-1h1l1-2q1-5-1-10l-1-1 1 1 3 6q1 3 4 2l4-5v1l-5 7-3 4 1 2v1h-9l-7 3-1 1v3zm132-9q0-7-3-6h-1l3 6 1 2zm16-15h1zM77 45l4-10 1-2v3l1-2 1-2v-1l-2-2 1-1 1 1h1l-1-1-6-2-1-1h1l-1-1-3-1v14l-1 1v9l1 2v-1zm-60-5v1zm139 0 1 1zM20 41v-1l-1-1v2zm139 0-1-1v-1 2zm25-5v-7h-1l-1 5zM22 33l6-3v-3h-3q-1 0 0 0v-1l-3-1q-2-1-2 3v5zm139 0 5-3q3-2 1-3-1 0 0 0h-4 1v-1l-3-1q-2-1-2 3v5zm-71-3 2-1q4 0 3-3v-1h1l1 2 1 1v-2l-1-2q0-2-3-2h-6l1 1v5zh-2v2l1-1zM64 19q3 0 1-1h-8l1 1 3 1zm112-2" style="fill:red;stroke-width:2.7413" transform="translate(-6 -5)"/></svg>