<?xml version="1.0" encoding="UTF-8" standalone="no"?>
<!-- Created with Inkscape (http://www.inkscape.org/) -->

<svg
   width="139.72043mm"
   height="97.945946mm"
   viewBox="0 0 139.72043 97.945946"
   version="1.1"
   id="svg1"
   xml:space="preserve"
   inkscape:version="1.4.3 (0d15f75, 2025-12-25)"
   sodipodi:docname="drawing.svg"
   xmlns:inkscape="http://www.inkscape.org/namespaces/inkscape"
   xmlns:sodipodi="http://sodipodi.sourceforge.net/DTD/sodipodi-0.dtd"
   xmlns="http://www.w3.org/2000/svg"
   xmlns:svg="http://www.w3.org/2000/svg"><sodipodi:namedview
     id="namedview1"
     pagecolor="#ffffff"
     bordercolor="#000000"
     borderopacity="0.25"
     inkscape:showpageshadow="2"
     inkscape:pageopacity="0.0"
     inkscape:pagecheckerboard="0"
     inkscape:deskcolor="#d1d1d1"
     inkscape:document-units="mm"
     inkscape:zoom="0.44097222"
     inkscape:cx="293.66929"
     inkscape:cy="350.3622"
     inkscape:window-width="1366"
     inkscape:window-height="697"
     inkscape:window-x="-8"
     inkscape:window-y="-8"
     inkscape:window-maximized="1"
     inkscape:current-layer="layer1" /><defs
     id="defs1" /><g
     inkscape:label="Layer 1"
     inkscape:groupmode="layer"
     id="layer1"
     transform="translate(-27.332059,-56.040559)"><path
       style="fill:#1a1a1a"
       d="m 87.97834,153.96244 c -23.92503,-0.36622 -39.74201,-1.39528 -45.46293,-2.95783 -5.00568,-1.36719 -9.52876,-5.37559 -11.59552,-10.27608 -1.85823,-4.40603 -3.00728,-14.12504 -3.49343,-29.54854 -0.49511,-15.70754 1.0162,-35.371855 3.15528,-41.054865 2.05318,-5.454805 6.44517,-9.564182 11.82421,-11.063361 5.32556,-1.484276 18.15981,-2.405697 39.98439,-2.870638 25.00177,-0.532626 54.68215,0.394263 65.58553,2.048172 5.458,0.82791 8.38209,2.116827 11.40543,5.027414 3.82495,3.68231 5.2194,7.293318 6.39098,16.549787 0.95141,7.516911 1.28051,13.980301 1.2802,25.142581 -3e-4,11.19832 -0.32061,17.51972 -1.27847,25.23067 -1.12669,9.07015 -2.55957,12.80735 -6.33008,16.51 -2.30499,2.26351 -4.84684,3.6703 -8.06818,4.46532 -4.91997,1.21425 -16.44856,2.08731 -33.76408,2.55697 -6.65273,0.18044 -24.23314,0.32306 -29.63333,0.2404 z m 14.224,-38.91128 c 9.40646,-5.46006 17.12239,-9.9855 17.14649,-10.05655 0.0353,-0.10396 -35.31375,-20.637275 -35.86892,-20.835306 -0.0975,-0.03479 -0.15824,7.976006 -0.15824,20.886496 v 20.94295 l 0.889,-0.50511 c 0.48895,-0.27781 8.5852,-4.97242 17.99167,-10.43248 z"
       id="path1" /></g></svg>
