<?xml version="1.0" encoding="UTF-8" standalone="no"?>
<!-- Created with Inkscape (http://www.inkscape.org/) -->

<svg
   width="512mm"
   height="512mm"
   viewBox="0 0 512.00001 512"
   version="1.1"
   id="svg1"
   xml:space="preserve"
   inkscape:version="1.4.3 (0d15f75042, 2025-12-25)"
   sodipodi:docname="youtube.svg"
   xmlns:inkscape="http://www.inkscape.org/namespaces/inkscape"
   xmlns:sodipodi="http://sodipodi.sourceforge.net/DTD/sodipodi-0.dtd"
   xmlns="http://www.w3.org/2000/svg"
   xmlns:svg="http://www.w3.org/2000/svg"><sodipodi:namedview
     id="namedview1"
     pagecolor="#ffffff"
     bordercolor="#000000"
     borderopacity="0.25"
     inkscape:showpageshadow="2"
     inkscape:pageopacity="0.0"
     inkscape:pagecheckerboard="0"
     inkscape:deskcolor="#d1d1d1"
     inkscape:document-units="mm"
     inkscape:zoom="0.44097222"
     inkscape:cx="294.80315"
     inkscape:cy="349.22835"
     inkscape:window-width="1366"
     inkscape:window-height="696"
     inkscape:window-x="0"
     inkscape:window-y="0"
     inkscape:window-maximized="1"
     inkscape:current-layer="layer1" /><defs
     id="defs1" /><g
     inkscape:label="Layer 1"
     inkscape:groupmode="layer"
     id="layer1"
     transform="translate(-27.33206,-56.040559)"><path
       style="fill:#1a1a1a;stroke-width:4.3767"
       d="M 249.56798,567.91478 C 161.89564,566.00041 103.93494,560.62113 82.970852,552.4531 64.627734,545.30628 48.053085,524.35288 40.479524,498.73619 33.670113,475.70423 29.459464,424.89933 27.677987,344.27494 c -1.814311,-82.10917 3.723825,-184.90188 11.5624,-214.6091 7.523797,-28.5143 23.618072,-49.995548 43.329353,-57.832316 19.51531,-7.758864 66.54591,-12.575476 146.52123,-15.005896 91.618,-2.784235 200.38059,2.06096 240.3356,10.70656 20.00063,4.327794 30.71584,11.065444 41.79475,26.280169 14.01638,19.248813 19.12629,38.124893 23.4195,86.511913 3.4864,39.2937 4.69237,73.08025 4.69124,131.42966 -10e-4,58.53779 -1.17486,91.58211 -4.6849,131.89012 -4.12872,47.41306 -9.37945,66.9488 -23.19633,86.30394 -8.44655,11.83221 -17.76106,19.18602 -29.56553,23.34189 -18.02904,6.34734 -60.27511,10.91115 -123.72715,13.36624 -24.37867,0.94322 -88.80139,1.68875 -108.59017,1.25666 z m 52.12329,-203.40379 c 34.4696,-28.54177 62.74432,-52.19793 62.83263,-52.56934 0.12936,-0.54343 -129.40585,-107.87873 -131.44025,-108.91392 -0.35728,-0.18186 -0.57986,41.69356 -0.57986,109.18151 v 109.47662 l 3.25771,-2.6404 c 1.79173,-1.45222 31.46012,-25.99269 65.92977,-54.53447 z"
       id="path1" /></g></svg>
