<svg width="800" height="800" viewBox="0 0 48 48" xmlns="http://www.w3.org/2000/svg"><g data-name="Layer 2"><g data-name="invisible box" fill="none"><path d="M0 0h48v48H0z"/><path d="M0 0h48v48H0z"/></g><path d="M24 2a22 22 0 0 0-7 42l2-2v-3c-6 2-8-3-8-3a7 7 0 0 0-2-3c-2-1 0-1 0-1a4 4 0 0 1 3 2c2 3 6 3 7 2a5 5 0 0 1 1-3c-7-1-11-5-11-10a11 11 0 0 1 3-8 6 6 0 0 1 0-6 9 9 0 0 1 7 2 15 15 0 0 1 5 0 17 17 0 0 1 5 0 9 9 0 0 1 7-2 7 7 0 0 1 0 6 11 11 0 0 1 3 8c0 5-4 9-10 10a5 5 0 0 1 0 3v6a2 2 0 0 0 2 2 22 22 0 0 0-7-42Z" data-name="icons Q2"/></g></svg>