<?xml version="1.0" encoding="UTF-8" standalone="no"?>
<svg
   viewBox="0 0 280 277.33334"
   height="277.33334"
   width="280"
   xml:space="preserve"
   id="svg2"
   version="1.1"
   sodipodi:docname="SVGLogo.svg"
   inkscape:version="1.3.2 (091e20ef0f, 2023-11-25, custom)"
   inkscape:export-filename="SVGLogo.png"
   inkscape:export-xdpi="205.71001"
   inkscape:export-ydpi="205.71001"
   xmlns:inkscape="http://www.inkscape.org/namespaces/inkscape"
   xmlns:sodipodi="http://sodipodi.sourceforge.net/DTD/sodipodi-0.dtd"
   xmlns="http://www.w3.org/2000/svg"
   xmlns:svg="http://www.w3.org/2000/svg"
   xmlns:rdf="http://www.w3.org/1999/02/22-rdf-syntax-ns#"
   xmlns:cc="http://creativecommons.org/ns#"
   xmlns:dc="http://purl.org/dc/elements/1.1/"><sodipodi:namedview
     id="namedview1"
     pagecolor="#ffffff"
     bordercolor="#000000"
     borderopacity="0.25"
     inkscape:showpageshadow="2"
     inkscape:pageopacity="0.0"
     inkscape:pagecheckerboard="0"
     inkscape:deskcolor="#d1d1d1"
     inkscape:zoom="1.7740384"
     inkscape:cx="126.82927"
     inkscape:cy="131.90244"
     inkscape:window-width="1366"
     inkscape:window-height="696"
     inkscape:window-x="0"
     inkscape:window-y="0"
     inkscape:window-maximized="1"
     inkscape:current-layer="g10" /><metadata
     id="metadata8"><rdf:RDF><cc:Work
         rdf:about=""><dc:format>image/svg+xml</dc:format><dc:type
           rdf:resource="http://purl.org/dc/dcmitype/StillImage" /></cc:Work></rdf:RDF></metadata><defs
     id="defs6"><rect
       x="5.0169537"
       y="235.0478"
       width="112.40361"
       height="12.014497"
       id="rect1" /></defs><g
     transform="matrix(1.3333333,0,0,-1.3333333,0,277.33333)"
     id="g10"><path
       id="path14"
       style="fill:#1a1a1a;fill-opacity:1;fill-rule:evenodd;stroke:none;stroke-width:0.1"
       d="m 204.051,144.898 c -0.199,0.164 -1.332,1.301 -3.399,3.399 -2.066,2.101 -3.816,4.234 -5.25,6.402 -0.636,0.766 -2.066,1.965 -4.3,3.598 0.164,0.168 -0.051,1.719 -0.653,4.652 -0.633,2.899 -2.5,6.164 -5.597,9.797 -0.235,0.168 -1.368,1.285 -3.403,3.352 -2.031,2.066 -3.566,4.117 -4.597,6.148 0.464,1.066 -2,4.086 -7.403,9.051 -0.164,0.265 -1.281,1.601 -3.347,4 -2.102,2.402 -4.168,4.234 -6.2,5.5 -1.035,0.234 -2.703,0.785 -5,1.652 -0.703,0.133 -2.336,1.215 -4.902,3.25 -0.164,0.766 -1.832,1.231 -5,1.399 -1.031,-0.668 -3.25,-0.633 -6.648,0.101 0.234,1.067 -3.118,1.067 -10.051,0 -0.567,0.133 -4.133,-1.402 -10.699,-4.601 -6.602,-3.2 -12.852,-8.883 -18.75,-17.051 -0.668,-0.766 -3.45,-5.133 -8.352,-13.098 -4.8672,-8 -7.766,-15.137 -8.6988,-21.402 0.0347,-0.235 -0.0352,-1.582 -0.1992,-4.051 -0.168,-2.465 -0.6329,-4.664 -1.4032,-6.598 C 79.8359,139.965 78.102,136.43 75,129.797 71.902,123.133 69.5859,115.883 68.0512,108.047 67.516,107.582 63.918,105.664 57.25,102.297 56.418,102.898 52.7852,100.547 46.352,95.2461 45.918,95.348 42.5352,94.0469 36.1988,91.348 29.8672,88.648 23.0512,83.9961 15.75,77.398 8.48398,70.7969 3.23398,61.6801 0,50.0469 h 166.902 c -0.367,3.7652 -1.703,7.816 -4,12.1519 -0.203,0.2313 -1.316,1.3321 -3.351,3.2973 -2.067,2 -3.918,3.4019 -5.551,4.2027 0.902,0.434 5.367,3.3832 13.402,8.8481 8,5.4691 14.149,10.9179 18.45,16.3511 0.699,1.0321 3.964,6.082 9.8,15.149 5.797,9.066 9.934,16.051 12.399,20.949 0.234,0.203 0.398,1.785 0.5,4.75 0.066,2.969 -1.434,6.02 -4.5,9.152" /><path
       id="path16"
       style="fill:#000000;fill-opacity:1;fill-rule:evenodd;stroke:none;stroke-width:0.1"
       d="m 132.402,61.4961 c -0.468,0.168 -3.468,2.6168 -9,7.3519 -5.566,4.734 -10.933,10.668 -16.101,17.8 -5.199,7.1329 -7.4651,14.383 -6.801,21.75 -0.8012,1.032 0.586,4.215 4.152,9.551 0.364,-0.601 1.547,0.098 3.547,2.098 -0.164,-0.031 -0.699,0.234 -1.597,0.801 -0.903,0.566 -1.118,1.668 -0.653,3.3 -0.832,-0.066 -3.183,-2.25 -7.047,-6.55 -3.8668,-4.301 -4.3,-10.25 -1.3,-17.8519 -0.5,0 -1.3829,1.8519 -2.6532,5.5509 -1.2648,3.699 0.1532,9.301 4.25,16.801 0.1684,0.199 1.0672,2.117 2.7032,5.75 1.633,3.668 3.047,7.949 4.25,12.851 0.067,1.067 1.032,6.047 2.899,14.949 1.832,8.868 4.051,15.2 6.648,19 -0.363,0.133 -2.183,-1.468 -5.449,-4.8 -3.266,-3.368 -5.816,-9.332 -7.648,-17.899 -0.102,-0.469 -0.903,-3.316 -2.403,-8.551 -1.5002,-5.265 -3.199,-10.05 -5.097,-14.351 -0.2,-0.067 -0.786,-1.414 -1.75,-4.051 -0.934,-2.633 -0.9848,-6.164 -0.1532,-10.598 -0.4328,0.368 -1.7968,5 -4.0968,13.899 -2.336,8.902 -3.102,19.785 -2.3008,32.652 -0.1684,-0.101 -0.6992,-1.617 -1.6024,-4.551 -0.8976,-2.902 -1.1129,-6.515 -0.6476,-10.851 0.234,-0.867 0.2648,-6.235 0.1008,-16.098 -0.2032,-9.902 -1.918,-19.168 -5.152,-27.801 0.0352,0.868 0.102,5.414 0.1988,13.649 0.1024,8.234 0.0352,14.949 -0.1988,20.152 -0.3012,-0.168 -1.1328,-2.902 -2.5,-8.203 -1.398,-5.266 -1.6328,-12.082 -0.6988,-20.449 0.066,-0.301 -0.0352,-1.934 -0.3012,-4.899 -0.266,-2.9679 -1.1641,-5.5 -2.6988,-7.6011 0.4328,-0.5309 4.3828,-3.9137 11.8508,-10.1489 7.4652,-6.2652 15.797,-12.1011 25,-17.5 9.2,-5.4019 16.614,-7.1171 22.25,-5.1519" /><path
       id="path18"
       style="fill:#000000;fill-opacity:1;fill-rule:evenodd;stroke:none;stroke-width:0.1"
       d="m 56.25,83.898 c 0.3359,-0.2648 1.918,-2.7648 4.75,-7.5 2.8672,-4.7339 5,-10.066 6.402,-16 0.0671,-0.5 0.598,-1.6519 1.598,-3.4492 1.0352,-1.7687 2.2852,-1.1168 3.75,1.9492 1.0352,-0.7339 2.652,-3.6832 4.852,-8.8511 h 3.8 c -0.1008,0.1992 -0.2848,1.6172 -0.55,4.25 -0.2661,2.6332 -0.086,5.1519 0.55,7.5511 0.2,-0.0359 1.2308,-0.8519 3.098,-2.45 1.8672,-1.566 3.2852,-3.632 4.25,-6.1992 0.168,0.1641 -0.082,1.684 -0.75,4.5473 -0.6641,2.8668 -2.75,6.1367 -6.25,9.8008 -0.234,0.1679 -1.4141,2.0511 -3.5512,5.6519 C 76.066,76.832 74.25,81.2809 72.75,86.5469 73.25,86.4488 76.066,83.1641 81.1988,76.6988 86.3359,70.266 90.852,61.3828 94.75,50.0469 h 20.152 c -0.668,0.6992 -0.668,4.9332 0,12.6992 l -19,16.4527 -27.3,14.7973 c -0.2348,0.434 -2.0668,1.2848 -5.5,2.5508 -0.0668,-0.2348 -0.9848,-1.5508 -2.75,-3.9489 -1.8008,-2.3992 -4.0508,-4.582 -6.75,-6.5511 -0.2661,-0.1328 -1.6329,-1.2348 -4.102,-3.3008 -2.5,-2.066 -4.582,-4.332 -6.25,-6.7973 0.1988,-0.066 1.352,-0.9328 3.4488,-2.6008 2.1024,-1.6332 3.9532,-3.5671 5.5512,-5.8011 -0.098,0.1992 -0.684,1.25 -1.75,3.1519 -1.098,1.8992 -2.184,3.4653 -3.25,4.6992 0.0352,0.1641 0.852,1.25 2.4488,3.25 1.6024,1.9649 3.7852,3.7149 6.5512,5.25" /><path
       id="path20"
       style="fill:#000000;fill-opacity:1;fill-rule:evenodd;stroke:none;stroke-width:0.1"
       d="m 149.652,67.6988 c -0.367,0 -2.086,-0.5187 -5.152,-1.5508 -3.066,-1.0351 -5.316,-2.5859 -6.75,-4.6519 0.234,-0.1992 1.367,-1.566 3.402,-4.0981 2,-2.566 3.45,-5.0152 4.348,-7.3511 h 12.152 c 0,0.234 -0.535,1.7652 -1.601,4.6011 -1.067,2.8008 -2.602,5.45 -4.602,7.95 0.203,-0.0671 1.352,-0.6679 3.453,-1.8011 2.133,-1.1641 4.047,-2.5 5.75,-4 0.032,0.234 -0.851,1.5859 -2.652,4.0511 -1.801,2.5 -4.582,4.7848 -8.348,6.8508" /><path
       id="path24"
       style="fill:#000000;fill-opacity:1;fill-rule:evenodd;stroke:none;stroke-width:0.1"
       d="m 161.152,174.297 c 0.032,0.265 -0.5,1.199 -1.601,2.801 -1.133,1.632 -2.985,2.332 -5.551,2.101 l 0.652,1.5 c 0.766,0.199 1.75,0.414 2.95,0.649 1.398,0.199 2.582,0.382 3.55,0.55 v -0.449 c 0.067,-0.168 0.297,-0.851 0.7,-2.051 0.367,-1.199 0.597,-1.933 0.699,-2.199 -0.434,-1.066 -0.899,-2.035 -1.399,-2.902" /><path
       id="path26"
       style="fill:#000000;fill-opacity:1;fill-rule:evenodd;stroke:none;stroke-width:0.1"
       d="m 161.949,181.398 c 0.301,0.2 1.684,0.266 4.153,0.2 2.464,-0.067 4.3,-1.536 5.5,-4.399 0.265,0.797 0.515,1.965 0.75,3.5 0.199,-0.035 1.382,-0.469 3.55,-1.301 2.133,-0.836 3.95,-1.918 5.45,-3.25 -0.067,0.235 -1.266,1.332 -3.602,3.301 -2.332,1.934 -5.25,3.363 -8.75,4.297 l -10.199,-0.5 3.148,-1.848" /><path
       id="path28"
       style="fill:#000000;fill-opacity:1;fill-rule:evenodd;stroke:none;stroke-width:0.1"
       d="m 155.449,197.898 c -0.265,-0.101 -2.113,0.051 -5.547,0.45 -3.468,0.398 -6.953,1.648 -10.453,3.75 -0.164,-0.434 0.801,-1.618 2.903,-3.551 2.132,-1.965 6.5,-2.184 13.097,-0.649" /><path
       id="path30"
       style="fill:#000000;fill-opacity:1;fill-rule:evenodd;stroke:none;stroke-width:0.1"
       d="m 62,50.0469 c -0.0309,0.3672 -1.75,3.1172 -5.148,8.25 -3.4032,5.1679 -8.2661,10.4179 -14.602,15.75 -0.1988,-0.1989 -1.5309,-1.8008 -4,-4.8008 -2.434,-3 -4.648,-6.1332 -6.648,-9.3981 0.1992,0.3 1.5152,1.6989 3.9492,4.1989 2.4328,2.5 4.8508,4.3511 7.25,5.5511 0.3976,-0.2351 2.1679,-2.332 5.3008,-6.3011 3.132,-3.934 5.2808,-8.3481 6.4492,-13.25 H 62" /><path
       id="path32"
       style="fill:#000000;fill-opacity:1;fill-rule:evenodd;stroke:none;stroke-width:0.1"
       d="m 118.801,63.9961 c -0.832,-0.3633 -1.418,-3.5473 -1.75,-9.5473 0.035,0.3633 0.465,1.8832 1.301,4.5473 0.867,2.6367 2.015,4.3008 3.449,5 h -3" /><path
       id="path34"
       style="fill:#000000;fill-opacity:1;fill-rule:evenodd;stroke:none;stroke-width:0.1"
       d="m 137.699,61.5469 c -0.933,-0.266 -2.113,-4.0981 -3.547,-11.5 h 1.797 c -0.097,0.234 0.067,1.6332 0.5,4.1992 0.469,2.566 1.684,5.0508 3.653,7.4527 l -2.403,-0.1519" /><path
       id="path36"
       style="fill:#000000;fill-opacity:1;fill-rule:evenodd;stroke:none;stroke-width:0.1"
       d="m 133.25,59.9961 c -0.332,-0.434 -0.434,-2.1641 -0.301,-5.1992 0,0.1679 0.25,1.0859 0.75,2.75 0.5,1.6679 1.219,2.9492 2.153,3.8511 -0.668,-0.3671 -1.536,-0.8359 -2.602,-1.4019" /><path
       id="path38"
       style="fill:#000000;fill-opacity:1;fill-rule:evenodd;stroke:none;stroke-width:0.1"
       d="m 96,164.547 c 0.102,1.035 2.5352,5.765 7.301,14.199 4.765,8.434 11.316,14.469 19.648,18.102 -0.398,0.734 -3.465,-0.465 -9.199,-3.602 -5.734,-3.164 -11.648,-12.73 -17.75,-28.699" /><path
       id="path40"
       style="fill:#000000;fill-opacity:1;fill-rule:evenodd;stroke:none;stroke-width:0.1"
       d="m 132.5,63.9488 c -0.434,0.3321 -2.766,2.6992 -7,7.0981 -4.234,4.3672 -7.734,8.75 -10.5,13.1519 -0.566,0.6992 -2.5,4.3481 -5.801,10.9492 -3.332,6.633 -4.781,12.032 -4.347,16.2 -0.102,0.132 0.031,1.05 0.398,2.75 0.336,1.699 1.434,3.234 3.301,4.601 0.668,0.465 1.816,2.031 3.449,4.699 0.902,0.098 2.352,1.2 4.352,3.301 -0.266,0.434 0.464,1.231 2.199,2.399 0.5,-0.067 1.715,1.132 3.648,3.601 0.602,-0.336 2.52,1.133 5.75,4.399 0.77,0.101 1.934,0.867 3.5,2.3 -0.031,0.465 0.887,0.934 2.75,1.399 0.703,-0.235 1.953,0.265 3.75,1.5 0.735,0.035 1.934,0.765 3.602,2.199 1.133,-0.531 3.101,0.234 5.898,2.301 0.203,-0.031 1.137,-0.016 2.801,0.051 1.668,0.101 2.934,0.449 3.801,1.05 0.734,-0.101 2.015,0.235 3.851,1 0.364,-1.066 2.766,-1.066 7.2,0 1.066,-0.199 2.734,0.016 5,0.649 0.164,0.035 1.183,0 3.05,-0.098 1.832,-0.101 3.414,-0.433 4.75,-1 -0.168,-0.703 1.282,-0.953 4.348,-0.75 0.5,-1.137 2.586,-1.683 6.25,-1.652 0,-1.199 1.934,-1.817 5.801,-1.848 0.668,-0.933 2.199,-1.887 4.601,-2.851 0.2,-1.133 2.164,-2.352 5.899,-3.649 0.867,-0.367 0.867,-2.152 0,-5.351 -0.766,-0.133 -1.633,-1.266 -2.602,-3.399 -0.965,-0.168 -2.015,-1.769 -3.148,-4.801 -0.867,-0.035 -1.449,-1.218 -1.75,-3.55 -0.602,-0.067 -1.649,-1.368 -3.149,-3.899 -1.101,-0.367 -1.617,-1.601 -1.55,-3.703 -0.934,0.27 -1.516,-0.598 -1.75,-2.598 -1.2,0.266 -2.051,-0.949 -2.551,-3.652 -0.934,-0.066 -1.801,-1.281 -2.602,-3.648 -1.199,0.332 -2.531,-1.149 -4,-4.45 -0.199,0.0321 -1.113,-0.2851 -2.75,-0.9492 -1.597,-0.6679 -2.648,-1.7847 -3.148,-3.3508 -0.133,-0.0359 -0.766,-0.3679 -1.899,-1 -1.136,-0.6679 -1.785,-1.3832 -1.953,-2.1492 -1.031,0.2313 -0.363,1.4344 2,3.5981 0.203,0.1332 1.285,1.1832 3.25,3.1519 2,2 3.735,4.0982 5.203,6.2972 0.297,0.336 1.465,2.652 3.5,6.953 2.067,4.297 3.332,8.613 3.797,12.949 -0.597,1.098 -2.781,-0.367 -6.547,-4.402 -0.136,-0.266 -0.918,-2.215 -2.351,-5.848 -1.434,-3.632 -2.852,-7.468 -4.25,-11.5 -0.832,0.434 -1.5,4.25 -2,11.45 0.199,0.398 0.117,1.964 -0.25,4.699 -0.399,2.765 -2.418,4.301 -6.051,4.601 -1.031,-0.765 -5.734,-5.851 -14.098,-15.25 -8.367,-9.3671 -14.316,-18.3671 -17.851,-27 -0.602,-1.066 0.25,-3.3 2.551,-6.6992 -0.735,-0.6008 0.75,-0.5508 4.449,0.1492 0.433,-0.9652 1.867,-0.7859 4.301,0.55 -0.633,-1.1011 -3.219,-2.9179 -7.75,-5.4492 -0.235,-0.0347 -1.352,-0.5508 -3.352,-1.5508 -1.965,-1.0351 -3.301,-2.3511 -4,-3.9492" /><path
       id="path42"
       style="fill:#000000;fill-opacity:1;fill-rule:evenodd;stroke:none;stroke-width:0.1"
       d="m 155.949,71.598 c 0.367,-0.2 1.637,0.3981 3.801,1.8 2.168,1.368 3.016,4.6489 2.551,9.8481 -0.766,1.1019 -0.399,2.75 1.101,4.9527 0.2,-0.8008 1.75,-1.5656 4.649,-2.3008 2.898,-0.7648 5.883,3.2821 8.949,12.1489 0.336,0.1332 1.434,1.4019 3.301,3.8011 1.867,2.398 2.351,5.05 1.449,7.949 l 1.949,10.851 -42.547,12 -29.5,-29.699 9.098,-19.101 c 0.199,-0.3679 3.535,-2.1492 10,-5.3519 6.5,-3.1992 14.902,-5.5 25.199,-6.8981" /><path
       id="path44"
       style="fill:#ffffff;fill-opacity:1;fill-rule:evenodd;stroke:none;stroke-width:0.1"
       d="m 123.852,130.746 c -1.036,-1.363 -2,-2.348 -2.903,-2.949 0.969,-1.899 1.602,-4.317 1.903,-7.25 0.433,1.234 1.867,5.336 4.3,12.301 -1.367,-1.067 -2.468,-1.766 -3.3,-2.102" /><path
       id="path46"
       style="fill:#ffffff;fill-opacity:1;fill-rule:evenodd;stroke:none;stroke-width:0.1"
       d="m 180.449,145.047 c -2,0.133 -3.316,0.601 -3.949,1.402 -1.266,0.434 -3.199,0.664 -5.801,0.699 -0.73,-0.402 -2.297,-0.617 -4.699,-0.652 -0.098,0 -0.215,0 -0.348,0 -1.367,-0.633 -2.769,-0.949 -4.203,-0.949 -1.465,0.066 -2.648,0.301 -3.547,0.699 -1.101,-0.398 -2.086,-0.633 -2.953,-0.699 -0.73,-0.633 -2.847,-1.016 -6.347,-1.149 -2.102,-1.601 -4.086,-2.367 -5.95,-2.3 -1.234,-0.934 -2.336,-1.567 -3.3,-1.899 -2.336,-1.433 -4.051,-2.035 -5.153,-1.801 -0.398,-0.035 -0.648,-0.132 -0.75,-0.3 -0.531,-0.801 -1.199,-1.45 -2,-1.95 0.168,-0.836 0.168,-1.652 0,-2.449 0.235,0.434 1.137,0.5 2.703,0.199 1.532,-0.265 2.25,-3.367 2.149,-9.3 0.535,-1.036 -1.852,-3.899 -7.149,-8.602 0.164,-0.332 0.032,-1.715 -0.402,-4.148 -0.434,-2.399 -2.301,-3.95 -5.598,-4.649 -1.035,0.5 -1.902,-0.586 -2.601,-3.25 0.301,-0.137 1.617,-1.137 3.949,-3 2.301,-1.8361 3.801,-3.7342 4.5,-5.7029 0.434,0.3359 2.668,1 6.699,2 4.035,1 7.336,0.3871 9.903,-1.8481 0.199,-0.1011 0.3,-0.8671 0.3,-2.3 0.032,-1.4339 -1.269,-2.832 -3.902,-4.2 -0.234,-0.066 -1.367,-0.8 -3.398,-2.1992 -2.036,-1.4019 -3.567,-2.9687 -4.602,-4.7027 0.168,0.1019 0.934,0.0199 2.301,-0.25 1.367,-0.266 2.285,-1.25 2.75,-2.9492 0.199,0.1332 1.051,0.2191 2.551,0.25 1.5,0.0351 2.5,-0.6641 3,-2.0981 0.164,0.2313 0.949,0.5473 2.347,0.9492 1.367,0.434 2.387,-0.2851 3.051,-2.1519 0.133,0.168 0.766,0.3668 1.902,0.6019 1.133,0.2649 1.883,-0.3992 2.25,-2 0.2,0.168 0.914,0.5 2.149,1 1.234,0.4641 1.918,0.1008 2.051,-1.1019 0.164,-0.066 0.664,0.4527 1.5,1.5508 0.867,1.066 1.082,3.0152 0.648,5.8511 -1.164,1.0668 0.133,4.184 3.902,9.3481 0.067,-0.6992 1.067,-1.5313 3,-2.5 1.899,-0.9652 4.317,2.1019 7.25,9.2027 -0.3,-0.734 -1.8,-2.3156 -4.5,-4.75 -2.703,-2.4328 -4.836,-1.2187 -6.402,3.6492 -0.031,0.3 -0.215,1.8161 -0.551,4.55 -0.297,2.735 -0.566,4.95 -0.797,6.649 0,0.301 0.481,1.383 1.45,3.25 0.964,1.836 2.433,2.551 4.398,2.152 0.402,0.098 1.969,-0.535 4.699,-1.902 2.703,-1.399 4.168,-4.266 4.403,-8.598 1.066,-0.234 1.617,2.817 1.648,9.149 -0.066,0.168 0.051,1.449 0.352,3.851 0.265,2.434 1.031,4.981 2.3,7.649 0.332,0.199 1.032,2.418 2.098,6.648 1.066,4.27 0.367,9.316 -2.098,15.152 -0.402,-0.101 -0.8,-0.132 -1.203,-0.101" /><path
       id="path48"
       style="fill:#000000;fill-opacity:1;fill-rule:evenodd;stroke:none;stroke-width:0.1"
       d="m 160.449,99.4488 c 0.137,0.3321 0.051,0.9342 -0.25,1.7972 -0.297,0.867 -1.515,0.02 -3.648,-2.5472 -0.367,-0.3008 -1.715,-1.8867 -4.051,-4.75 -2.367,-2.8668 -3.551,-5.2687 -3.551,-7.2027 -0.433,-1.1992 0.77,-1.3832 3.602,-0.5473 0.367,0.1992 0.484,0.9813 0.351,2.3481 0.598,0.1011 1.25,-0.7149 1.95,-2.4489 -0.2,-0.766 0.148,-1.4851 1.05,-2.1492 -0.101,-1.2027 0.864,0.2813 2.899,4.4492 0.066,0.2352 0.515,1.5668 1.351,4 0.797,2.434 1.434,4.5821 1.899,6.45 0.066,0.1989 0.082,0.6321 0.051,1.3 0,0.664 -0.551,0.434 -1.653,-0.6992" /><path
       id="path50"
       style="fill:#000000;fill-opacity:1;fill-rule:evenodd;stroke:none;stroke-width:0.1"
       d="m 150.551,102.047 c 0.867,-0.434 2.117,0.652 3.75,3.25 -0.035,0.168 0.133,0.75 0.5,1.75 0.367,1 1.133,1.515 2.301,1.551 0.597,-0.266 1.5,0.382 2.699,1.949 0.832,0.469 0.316,2.234 -1.551,5.301 0.035,0.168 -0.883,0.867 -2.75,2.101 -1.832,1.199 -4.766,1.883 -8.801,2.047 -0.363,0.203 -2.113,0.066 -5.25,-0.398 -3.133,-0.434 -5.398,-2.368 -6.797,-5.801 -0.168,-0.098 -0.453,-1.164 -0.851,-3.199 -0.367,-2 0.215,-4.286 1.75,-6.852 -0.133,-0.832 2.316,-1.516 7.351,-2.047 0.633,-0.066 3.184,0.047 7.649,0.348" /><path
       id="path52"
       style="fill:#000000;fill-opacity:1;fill-rule:evenodd;stroke:none;stroke-width:0.1"
       d="m 156.852,138.648 c -0.336,0.133 -1,-0.168 -2,-0.902 -0.969,-0.73 -0.153,-2.699 2.449,-5.898 0.265,-0.168 1.551,-1.368 3.851,-3.602 2.332,-2.23 4,-4.582 5,-7.047 -0.066,-0.168 0.032,-0.617 0.297,-1.351 0.235,-0.7 1,-0.684 2.301,0.05 0,0.164 0.617,0.633 1.852,1.399 1.199,0.765 2.933,0.883 5.199,0.351 0.933,0.164 2.183,-1.3 3.75,-4.402 l 4.148,3.453 v 9.149 c 0.102,-0.766 -1.347,-1.7 -4.347,-2.801 -0.934,-0.434 -3.883,-0.465 -8.852,-0.098 -0.465,-0.203 -1.816,0.731 -4.051,2.797 -0.199,0.336 -1.398,1.734 -3.597,4.203 -2.235,2.434 -4.235,4 -6,4.699" /><path
       id="path54"
       style="fill:#000000;fill-opacity:1;fill-rule:evenodd;stroke:none;stroke-width:0.1"
       d="m 130.5,76.7969 c -0.031,-0.9649 1.566,-1.5981 4.801,-1.8989 -0.434,-0.1992 -0.25,-0.7339 0.551,-1.6011 0.3,-0.8321 2.148,-0.9649 5.55,-0.3989 -0.535,-0.2339 -0.019,-0.8359 1.547,-1.8 0.434,-0.5 2,-0.3519 4.703,0.4489 -0.402,-0.3668 0.016,-0.8828 1.25,-1.5508 0.133,-0.2973 1.399,-0.0981 3.797,0.6019 -0.597,-0.5671 0.336,-0.8832 2.801,-0.95 0.469,-0.1679 1.633,0.9141 3.5,3.25 l -6.699,0.25 -10.301,2.8989 -6.148,1.9492 -4.051,1.2027 -1.301,-2.4019" /><path
       id="path56"
       style="fill:#ffffff;fill-opacity:1;fill-rule:evenodd;stroke:none;stroke-width:0.1"
       d="m 152.602,75.4961 c 0.164,0.066 0.484,-0.1992 0.949,-0.7973 0.465,-0.566 0.015,-1.7687 -1.352,-3.6008 -0.5,-0.1679 -1.23,-0.1679 -2.199,0 0.867,0.8981 1.734,2.3668 2.602,4.3981" /><path
       id="path58"
       style="fill:#ffffff;fill-opacity:1;fill-rule:evenodd;stroke:none;stroke-width:0.1"
       d="m 156.949,74.7461 c 0.168,0.066 0.418,-0.1332 0.75,-0.5981 0.336,-0.4679 -0.164,-1.6832 -1.5,-3.6519 -0.531,-0.1641 -1.297,-0.1133 -2.297,0.1519 0.965,0.8321 1.981,2.2 3.047,4.0981" /><path
       id="path60"
       style="fill:#ffffff;fill-opacity:1;fill-rule:evenodd;stroke:none;stroke-width:0.1"
       d="m 148.152,77.2461 c 0.164,0.0348 0.5,-0.2813 1,-0.9492 0.465,-0.6989 -0.066,-2.016 -1.601,-3.9489 -0.5,-0.4652 -1.5,-0.5671 -3,-0.3011 1.133,0.566 2.332,2.3011 3.601,5.1992" /><path
       id="path62"
       style="fill:#ffffff;fill-opacity:1;fill-rule:evenodd;stroke:none;stroke-width:0.1"
       d="m 142.551,78.4961 c 1.199,0.0348 0.918,-1.5 -0.852,-4.5981 -0.199,-0.3671 -1.164,-0.5152 -2.898,-0.4492 0.168,0.1332 0.785,0.8321 1.851,2.0981 1.098,1.234 1.731,2.2191 1.899,2.9492" /><path
       id="path64"
       style="fill:#ffffff;fill-opacity:1;fill-rule:evenodd;stroke:none;stroke-width:0.1"
       d="m 136.551,80.9488 c 0.168,-0.0347 0.449,-0.5187 0.851,-1.4527 0.399,-0.9652 -0.117,-2.25 -1.55,-3.8481 -0.567,-0.1992 -1.434,-0.1992 -2.602,0 1.035,0.5321 2.133,2.3008 3.301,5.3008" /><path
       id="path66"
       style="fill:#ffffff;fill-opacity:1;fill-rule:evenodd;stroke:none;stroke-width:0.1"
       d="m 111.949,50.0469 h 1.653 c 1.367,3.734 -1.383,10.6172 -8.25,20.6519 -6.536,8.934 -9.7661,15.766 -9.7,20.5 0.0671,4.6992 0.7152,7.5672 1.95,8.5981 -0.536,0.1992 -1.036,0.4331 -1.5,0.6991 -1.434,-1.398 -2.1329,-4.598 -2.102,-9.598 0.0352,-5 3.3828,-12.066 10.051,-21.1992 6.668,-9.8008 9.301,-16.3508 7.898,-19.6519" /><path
       id="path68"
       style="fill:#000000;fill-opacity:1;fill-rule:evenodd;stroke:none;stroke-width:0.1"
       d="m 120.25,149.598 c 0.066,0.433 2.219,3.351 6.449,8.75 4.235,5.433 10.137,10.75 17.703,15.949 7.532,5.234 16.348,7.765 26.45,7.601 L 169,183.199 h -18 l -25.098,-11.051 -11.953,-15.55 -0.347,-7.352 6.648,0.352" /><path
       id="path70"
       style="fill:#ffffff;fill-opacity:1;fill-rule:evenodd;stroke:none;stroke-width:0.1"
       d="m 127.602,121.949 c -1.801,-7.769 -5.235,-13.836 -10.301,-18.203 -5.067,-4.3319 -10.617,-5.9651 -16.649,-4.898 -5.968,1.464 -10.386,5.199 -13.25,11.199 -2.902,6.035 -3.6008,12.969 -2.1008,20.801 1.8008,7.765 5.234,13.816 10.3008,18.148 5.066,4.367 10.617,6.02 16.648,4.953 5.934,-1.469 10.352,-5.219 13.25,-11.25 2.902,-6 3.602,-12.918 2.102,-20.75" /><path
       id="path72"
       style="fill:#000000;fill-opacity:1;fill-rule:evenodd;stroke:none;stroke-width:0.1"
       d="m 127,122.047 c 0,0.035 0.102,0.601 0.301,1.699 0.101,0.566 0.183,1.25 0.25,2.051 0.101,0.836 0.148,1.785 0.148,2.851 0,0.5 0,1.051 0,1.649 -0.031,0.566 -0.066,1.168 -0.097,1.801 -0.036,0.668 -0.118,1.332 -0.25,2 -0.067,0.668 -0.184,1.367 -0.352,2.101 -0.566,2.934 -1.816,5.914 -3.75,8.949 -0.266,0.368 -0.516,0.735 -0.75,1.098 -0.301,0.367 -0.598,0.719 -0.898,1.051 -0.602,0.699 -1.266,1.367 -2,2 -0.368,0.301 -0.75,0.601 -1.153,0.902 -0.363,0.297 -0.765,0.567 -1.199,0.797 -0.434,0.234 -0.848,0.469 -1.25,0.703 -0.465,0.199 -0.914,0.399 -1.348,0.598 -4,1.469 -8.101,1.367 -12.3,-0.301 -4.102,-1.797 -7.536,-4.648 -10.3008,-8.547 l -0.5512,-0.703 -0.4488,-0.75 c -0.3012,-0.465 -0.6024,-0.949 -0.8992,-1.449 -0.6008,-1.067 -1.1168,-2.133 -1.55,-3.199 -0.2348,-0.536 -0.4692,-1.082 -0.7,-1.649 l -0.55,-1.652 c -0.336,-1.133 -0.6329,-2.281 -0.9032,-3.449 -0.5,-2.332 -0.7648,-4.684 -0.7968,-7.051 0,-1.199 0.0468,-2.383 0.1492,-3.551 0.066,-0.566 0.1476,-1.148 0.25,-1.75 l 0.1008,-0.848 0.2,-0.851 c 1,-4.664 3.0152,-8.649 6.05,-11.949 1.5,-1.633 3.2,-2.883 5.098,-3.75 0.4691,-0.2 0.9488,-0.399 1.4488,-0.602 0.5,-0.133 1.0203,-0.2812 1.5512,-0.4491 l 0.301,-0.0981 0.398,-0.0508 0.75,-0.1011 c 0.5,-0.1328 1,-0.1989 1.5,-0.1989 0.5,0 1,0 1.5,0 0.5,0.0352 0.985,0.0821 1.453,0.1481 0.5,0.0348 0.981,0.1168 1.45,0.25 0.464,0.1019 0.933,0.2187 1.398,0.3519 0.902,0.265 1.766,0.601 2.602,1 0.433,0.199 0.847,0.398 1.25,0.601 0.367,0.231 0.75,0.465 1.148,0.699 3,2 5.352,4.25 7.051,6.75 0.433,0.567 0.816,1.149 1.148,1.75 0.403,0.567 0.75,1.133 1.051,1.7 0.266,0.566 0.551,1.101 0.852,1.601 0.199,0.531 0.414,1.047 0.648,1.547 0.402,0.969 0.719,1.836 0.949,2.602 0.301,0.765 0.5,1.433 0.602,2 0.265,1.035 0.418,1.601 0.449,1.699 m 1.102,-0.25 c 0,-0.031 -0.133,-0.598 -0.403,-1.699 -0.133,-0.567 -0.332,-1.266 -0.597,-2.102 -0.235,-0.797 -0.567,-1.715 -1,-2.75 -0.2,-0.5 -0.418,-1.016 -0.653,-1.547 -0.297,-0.566 -0.597,-1.137 -0.898,-1.703 -0.266,-0.598 -0.602,-1.199 -1,-1.797 -0.367,-0.601 -0.785,-1.219 -1.25,-1.851 -1.735,-2.567 -4.168,-4.95 -7.301,-7.149 -0.398,-0.234 -0.801,-0.484 -1.199,-0.75 -0.434,-0.234 -0.867,-0.4689 -1.301,-0.7029 -0.867,-0.434 -1.801,-0.816 -2.801,-1.1481 -0.5,-0.1679 -1,-0.3011 -1.5,-0.3992 -0.5,-0.1679 -1.015,-0.2847 -1.547,-0.3508 -0.535,-0.0671 -1.066,-0.1332 -1.601,-0.2 -0.567,0 -1.117,0 -1.649,0 -0.566,0 -1.136,0.0508 -1.703,0.1489 l -0.797,0.1011 -0.453,0.0508 c -0.199,0.0672 -0.347,0.0981 -0.449,0.0981 -0.5309,0.1679 -1.0512,0.316 -1.5512,0.4492 -0.566,0.168 -1.1129,0.3871 -1.6476,0.6519 -2.1992,0.934 -4.1684,2.266 -5.8992,4 -3.4329,3.567 -5.7032,7.868 -6.8,12.899 l -0.2,0.949 -0.152,0.902 c -0.098,0.633 -0.184,1.25 -0.25,1.848 -0.1328,1.27 -0.1988,2.535 -0.1988,3.801 0,2.535 0.25,5.051 0.75,7.551 l 0.5,1.8 c 0.1328,0.598 0.3008,1.2 0.5,1.801 l 0.6476,1.848 c 0.2352,0.601 0.4692,1.183 0.7032,1.75 0.532,1.168 1.098,2.301 1.7,3.402 0.332,0.531 0.664,1.047 1,1.547 l 0.5,0.801 0.5968,0.75 c 3,4.199 6.8012,7.234 11.4032,9.101 4.765,1.735 9.3,1.735 13.597,0 0.5,-0.234 1.02,-0.468 1.551,-0.699 0.469,-0.269 0.918,-0.535 1.352,-0.801 0.5,-0.265 0.949,-0.586 1.347,-0.949 0.403,-0.301 0.801,-0.617 1.203,-0.953 0.766,-0.699 1.465,-1.434 2.098,-2.199 0.301,-0.399 0.602,-0.781 0.902,-1.149 0.266,-0.402 0.532,-0.8 0.797,-1.199 1.969,-3.269 3.235,-6.433 3.801,-9.5 0.168,-0.734 0.285,-1.469 0.352,-2.203 0.132,-0.699 0.214,-1.383 0.25,-2.047 0.031,-0.637 0.066,-1.25 0.097,-1.851 0,-0.633 -0.015,-1.215 -0.047,-1.75 0,-1.102 -0.066,-2.067 -0.203,-2.899 -0.066,-0.836 -0.148,-1.551 -0.25,-2.152 l -0.347,-1.75" /><path
       id="path74"
       style="fill:#000000;fill-opacity:1;fill-rule:evenodd;stroke:none;stroke-width:0.1"
       d="m 115.602,123.699 c -2.133,-13.203 -7.985,-19.984 -17.5508,-20.351 -4.3992,0.566 -7.8672,3.035 -10.3992,7.398 -2.5348,4.402 -3.5661,9.684 -3.1008,15.852 2.1328,13.234 7.984,20.035 17.5508,20.398 4.398,-0.566 7.867,-3.031 10.398,-7.398 2.535,-4.399 3.566,-9.7 3.102,-15.899" /><path
       id="path76"
       style="fill:#ffffff;fill-opacity:1;fill-rule:evenodd;stroke:none;stroke-width:0.1"
       d="m 112.652,124.199 c 0.332,11.399 -3.5,18.016 -11.5,19.848 -2.5,0.199 -4.836,-0.465 -7,-2 1.3992,0.535 2.848,0.75 4.348,0.652 8,-1.836 11.852,-8.469 11.551,-19.902 -0.899,-7.098 -3.582,-12.235 -8.051,-15.399 5.934,2.5 9.484,8.098 10.652,16.801" /><path
       id="path78"
       style="fill:#000000;fill-opacity:1;fill-rule:evenodd;stroke:none;stroke-width:0.1"
       d="m 174.551,185.348 c 0.867,0.265 -0.051,1.765 -2.75,4.5 -2.735,2.765 -12.485,5.132 -29.25,7.101 -0.367,0.465 -4.301,-2.25 -11.801,-8.152 -7.531,-5.934 -16.5,-17.832 -26.898,-35.699 l 9.75,-3.852 c 0.031,0.602 2.398,4.316 7.097,11.152 4.735,6.868 11.637,13.266 20.703,19.2 9.032,5.964 20.082,7.882 33.149,5.75" /><path
       id="path80"
       style="fill:#000000;fill-opacity:1;fill-rule:evenodd;stroke:none;stroke-width:0.1"
       d="m 117.051,118.098 c -4.367,-9.766 -9.067,-15.036 -14.102,-15.801 -5.0662,-0.735 -7.797,-0.801 -8.199,-0.199 4.734,-3.2351 10.102,-3.0671 16.102,0.5 6.031,3.535 10.316,8.25 12.847,14.148 -2.363,0.27 -4.582,0.719 -6.648,1.352" /><path
       id="path82"
       style="fill:#ffffff;fill-opacity:1;fill-rule:evenodd;stroke:none;stroke-width:0.1"
       d="m 138.352,179.148 -12.153,5.301 -1.648,-1.75 11.449,-5.5 2.352,1.949" /><path
       id="path84"
       style="fill:#ffffff;fill-opacity:1;fill-rule:evenodd;stroke:none;stroke-width:0.1"
       d="m 116.402,150.449 c 0.266,0.766 3.782,4.781 10.547,12.047 6.735,7.27 15.051,13.184 24.953,17.75 9.899,4.566 19.715,3.203 29.45,-4.098 0.234,0.567 -0.883,2.868 -3.352,6.899 -2.434,4.035 -7.664,6.551 -15.699,7.551 -0.465,0.765 -5.418,-1 -14.852,-5.301 -9.433,-4.266 -20.597,-15.715 -33.5,-34.348 l 2.453,-0.5" /><path
       id="path86"
       style="fill:#000000;fill-opacity:1;fill-rule:evenodd;stroke:none;stroke-width:0.1"
       d="m 91.152,141.848 c 0.098,0.699 2.114,2.332 6.0468,4.898 3.9342,2.566 9.2502,1.902 15.9532,-2 0.164,0.137 1.364,0.453 3.598,0.953 2.234,0.531 4.434,0.383 6.602,-0.453 1.367,-0.098 1.484,0.418 0.347,1.551 l -6.25,5.051 -6.648,1.398 c -0.168,0.035 -0.965,0.102 -2.399,0.203 -1.402,0.067 -2.351,-0.019 -2.851,-0.25 -0.5,-0.301 -1.567,-0.601 -3.199,-0.902 -1.633,-0.301 -2.5668,-0.465 -2.8008,-0.5 -0.2352,-0.133 -1.1492,-0.715 -2.75,-1.75 -1.6024,-1.067 -2.4852,-1.848 -2.6492,-2.348 -0.234,-0.5 -1.0661,-1.387 -2.5,-2.652 -1.4329,-1.266 -1.6008,-2.332 -0.5,-3.199" /><path
       id="path88"
       style="fill:none;stroke:#000000;stroke-width:1;stroke-linecap:round;stroke-linejoin:round;stroke-miterlimit:10;stroke-dasharray:none;stroke-opacity:1"
       d="m 120.301,115.098 c 0.316,0.765 1.351,4.668 3,12 1.148,7.168 -1.184,14.398 -7,22" /><path
       id="path90"
       style="fill:#000000;fill-opacity:1;fill-rule:evenodd;stroke:none;stroke-width:0.1"
       d="m 115.402,151.047 c 0.098,0.469 2.797,3.785 8.098,9.949 2.602,2.969 5.734,6.051 9.402,9.25 3.7,3.203 7.817,6.117 12.348,8.75 2.266,1.234 4.602,2.316 7,3.25 2.402,0.867 4.801,1.5 7.199,1.902 2.434,0.368 4.77,0.465 7,0.301 1.137,-0.066 2.219,-0.234 3.25,-0.5 1,-0.203 1.969,-0.453 2.903,-0.75 1.867,-0.601 3.484,-1.301 4.847,-2.101 1.403,-0.801 2.5,-1.618 3.301,-2.45 0.801,-0.836 1.336,-1.515 1.602,-2.05 0.3,-0.536 0.449,-0.801 0.449,-0.801 0,0 -0.168,0.25 -0.5,0.75 -0.332,0.5 -0.918,1.133 -1.75,1.902 -0.832,0.731 -1.949,1.465 -3.352,2.199 -1.363,0.7 -2.965,1.317 -4.797,1.848 -1.836,0.566 -3.836,0.953 -6,1.152 -2.168,0.164 -4.433,0.067 -6.8,-0.3 -4.766,-0.868 -9.403,-2.582 -13.903,-5.149 -4.465,-2.566 -8.515,-5.469 -12.148,-8.703 -3.633,-3.199 -6.75,-6.23 -9.352,-9.098 -2.633,-2.867 -4.633,-5.218 -6,-7.05 -1.398,-1.801 -2.113,-2.735 -2.148,-2.801 l -0.649,0.5" /><path
       id="path92"
       style="fill:#000000;fill-opacity:1;fill-rule:evenodd;stroke:none;stroke-width:0.1"
       d="m 24,50.0469 c -0.098,1 1.852,6.6992 5.852,17.1011 3.964,10.3989 10.582,19.4852 19.8468,27.25 C 49.3012,94.398 45.902,92.6801 39.5,89.2461 33.102,85.848 26.25,80.8629 18.9488,74.2969 11.652,67.6988 6.41797,59.6129 3.25,50.0469 H 24" /><path
       id="path94"
       style="fill:#000000;fill-opacity:1;fill-rule:evenodd;stroke:none;stroke-width:0.1"
       d="m 24,50.0469 c -0.234,0.6679 2.3012,5.8011 7.602,15.4019 5.332,9.5981 14.714,19.7313 28.148,30.3992 -0.766,0.4641 -4.1172,-0.016 -10.0512,-1.45 C 49.4691,94.2301 48.168,93.3121 45.8012,91.648 43.402,89.9801 41.3012,88.516 39.5,87.2461 39,86.9488 36.1988,84.4488 31.102,79.7461 26.0352,75.082 21.668,70.098 18,64.7969 l 2.25,-14.3481 c 0.066,0.2973 0.516,0.8633 1.352,1.6992 0.832,0.8008 1.632,0.0981 2.398,-2.1011" /><g
       id="g1"
       transform="matrix(1.3351398,0,0,1.2500074,-69.819922,7.8230274)"><text
         xml:space="preserve"
         transform="matrix(0.56173894,0,0,-0.59999646,52.294091,164.50577)"
         id="text1"
         style="white-space:pre;shape-inside:url(#rect1);display:inline;fill:#000000" /><text
         xml:space="preserve"
         style="font-style:normal;font-variant:normal;font-weight:normal;font-stretch:normal;font-size:21.674px;font-family:'Gargi-1.2b';-inkscape-font-specification:'Gargi-1.2b';fill:#000000;stroke-width:0.580553"
         x="64.8787"
         y="-9.9971285"
         id="text2"
         transform="scale(0.96759345,-1.0334919)"><tspan
           sodipodi:role="line"
           id="tspan2"
           style="font-style:normal;font-variant:normal;font-weight:normal;font-stretch:normal;font-size:21.674px;font-family:'Burn The Witch';-inkscape-font-specification:'Burn The Witch';fill:#1a1a1a;stroke-width:0.580553"
           x="64.8787"
           y="-9.9971285">Brian Redfern</tspan></text></g></g></svg>
