<svg xmlns="http://www.w3.org/2000/svg" xml:space="preserve" width="83.87" height="106.1" viewBox="0 0 22.19 28.07"><path d="m3.03 28.03-2.91-.07c-.2-.2-.15-2.28.04-2.56q1.69-2.5 1.92-2.73c.15-.17.15-.17.12-1.56a10 10 0 0 1 .2-2.75c.06-.43.09-.6.04-.98-.05-.47-.02-.7.1-2.65a5 5 0 0 0 0-1.47c-.15-.43-.1-.8.18-1.42.27-.7.29-1.43 0-2.54l-.09-.6q.05-.16-.17-.14c-.23 0-.23.07-.23-1.54q0-2.58.42-2.6l-.04.09q-.12.12.02.1.05 0 .05.06 0 .08.04.15l-.02.1q-.07 0-.07-.1-.02-.2-.12-.12l.02.1q.12.11 0 .04l-.09.02q0 .05.05.05l.1.03.09.02q.07 0 .07.07 0 .02-.05 0l-.17.05q-.07.02-.02.05l-.05.09q-.07.1.05 0 .14-.14.12 0t-.05.12l-.05.12q0 .16.08.1v.06q-.08.07-.05.12l.02-.05q0-.04.07.08l.1.2-.07-.04q-.03-.14-.05 0c0 .12.17.17.24.07q0-.07.02 0 .05.2.14.05.03-.05.12-.02.07 0 .1-.05-.03-.1-.24 0-.07.02-.07-.05t.05-.07q.23.05.18-.12 0-.12.03-.07.07.02.07-.1 0-.18.05 0 .07.15 0 .17-.1.07 0 .07c.16 0 .14.17-.05.26l-.24.17q-.1.07-.14.05-.07 0-.02.07.02.24-.17.16-.07-.07-.07 0l.07.1.02.17v.07c.08-.17.29 0 .24.21-.05.14.07.12.14-.05q.07-.16 0-.12H3q.06-.11.13-.04h.1q.06 0-.06.11c-.07.1-.07.1 0 .2q.12.11.22-.03.07-.1.05-.02c-.1.14-.08.35 0 .19q.11-.2.26.35c.04.17.38.31.47.24q.07-.1 0-.1t-.05-.14q.05-.1.12-.07t.05-.05l.02-.1q.07 0 0-.11t-.07 0v.02c-.07-.04.12-.3.17-.28l.02-.05q0-.07-.05-.07c-.11 0-.04-.19.08-.24s.28 0 .23.12q0 .05.07.1.17.07.07-.07-.11-.22 0-.15v-.04l-.11-.12q-.1-.03-.15-.12-.1-.24.08-.17.04.05.09.03.07-.1-.05-.12-.07 0-.04-.12.04-.17.14.05.12.21.07 0l-.03-.14-.07-.05q-.07 0-.11-.12-.05-.12-.12-.12t-.1-.05q-.1-.07-.16.1-.08.16 0 .14l.02.05c0 .1.19.19.21.12q0-.07.07-.07t0 .07 0 .11H4.5q-.12 0-.07.05 0 .07-.07.05-.1-.02-.1-.1T4.23 6t-.07-.16l-.05-.17-.05-.1q0-.07.05 0l.12.08q.1-.03-.05-.2-.12-.06 0-.18 0-.12.07-.05c0 .07.26.1.26 0l-.1-.17q-.18-.33 0-.35.1 0 .13.07v.07q-.12-.05 0 .17.07.07.12.04l.14.03q.14.07.04-.03t0-.04q.08 0 .1.1 0 .06.05.06c.14 0-.1-.54-.24-.59q-.12 0-.1-.07l-.02-.1q-.07 0-.02.03 0 .05-.05.07l.05.05.12.11h-.05l-.2-.07q-.18-.04-.04-.14.07-.05.05-.07-.07 0-.05-.05.03-.04.1 0 .04 0 0-.04c-.03-.08-.2 0-.22.11l-.04.15c-.1.04-.08.42.04.52q.12.1.07.12l-.1-.03q-.04-.12-.1 0c-.08.1-.25.12-.2.03l.1-.1q.11-.02-.03-.12-.12-.07-.12-.14t-.07-.07 0-.05.1-.16l.07-.22q.07-.04.07-.14t-.07 0-.03 0q0-.07.15-.12.1 0 .16-.1.07-.09.17-.06.14 0 .02-.05c-.1-.05.24 0 .43.07l.19.05q.07 0 .05.04-.03.05.02.03.14-.05.47.38l.24.38c.2.21.24.64.07.47q-.33-.38-.54.33l-.24.64c-.4.95 2.11.88 2.85-.12.7-.92.85-1.13.9-1.51l.19-.71c.1-.34.11-.53.14-1.52 0-.64.05-1.16.05-1.19h.52c.57 0 .66-.04.57-.33-.12-.28.12-.73.42-.85.48-.14.95.28.86.78q-.17.47.47.47c.36 0 .36 0 .33.86 0 .83 0 .83.24 1.4.12.3.28.76.33.97.12.5.24.73.71 1.33l.5.7c.2.32 2.3.48 2.47.17l.21-.3c.14-.22.38-.72.38-.86 0-.19-.47-.23-.9-.07-.3.14-.3.12-.26.05q0-.05-.03 0-.04 0-.04.07c.12.17-.36.24-.55.1-.24-.17-.02-.65.22-.55h.04q-.02-.05.07-.17c.12-.14.24-.16.15-.02q-.12.1 0 0 .1-.02.1-.12 0-.05.06-.05.1 0 .07-.02l.17-.17.38-.28q.19-.17.54-.29c.34-.14.9-.94 1.14-1.58q0-.05.24 0 .21.11.24 0 .02-.07.1-.05l.06-.05q0-.05 0 0-.16.07.03-.21l.16-.12v-.05c-.05-.14.14-.1.29.1l.1.1q-.06-.08.06 0c.2.09.17.13-.02.42-.93 1.23-.97 1.35-.71 1.5.64.35.8.85.83 2.5.02 1.55 0 2.04-.17 2.07-.35.05-.66 2.37-.43 3.13s.24 1.18-.04 1.75c-.22.48-.22.38-.05 3.75 0 .24.1.71.21 1.16.17.71.17.71.22 2.3.02 1.66.07 2.02.2 2.23l1.65 1.94c.56.67.94 2.68.59 3.09-.07.07-14.23.1-19.02.02m5.08-.26-.07-.05q-.08 0-.05.05l.07.05q.05 0 .05-.05m-5.05-.14h-.24Zm4.53-.38-.12.04q-.03.05.07 0 .12 0 .05-.04m1.47.07c0-.03-.38-.12-.43-.1l.16.07q.29.08.24.03m.76-.1c.05-.04-.3.03-.38.07h.17Zm-5.69-.04q.02-.03-.05-.05l-.21-.07q-.12-.1-.05-.03.17.29.31.15m3.8-.12q-.03-.07-.05-.05v.07q.1.12.04 0m-2.68-.07q0-.05-.04-.02-.05.02-.2-.1-.23-.19 0 .1.22.19.24.02m3.56 0-.02-.05-.07.05.02.05q.07 0 .07-.05m.88.02L9.6 27h-.05q0 .07.05.07zm.19-.23q0-.07-.03.02v.07q.07-.02.03-.1m-8.7 0H.99q-.07.05.07.05t.1-.02m3.2-.24-.12-.1q-.16-.18 0 0 .12.17.12.13m3.89-.2q0-.04-.02.03v.07q.07 0 .02-.1m-.1-.14c-.1-.07-.23-.07-.16 0l.14.05q.14 0 .02-.05m0-.28h-.11Zm.36 0q-.02-.05-.1 0zm8.25-.19h-.12q-.14 0-.1-.17l-.13-.04h-1.3l.11.07q0 .07.07 0h.52l.43.02q-.12 0 0 .07.07.05 0 .05l-.1-.07q-.07-.07-.09 0 0 .07-.07.07t-.03-.05l-.02-.04q-.07 0-.05.04c.05.12.88.17.88.05m-.43-.05q0-.07.08-.02l.04.05-.04.02q-.08 0-.08-.05m1.95.12c.71 0 .95 0 .95-.05q0-.14.1 0c.02.08 1.22.08 1.3-.02l-.03-.1q-.05 0-.07.05c-.05.07-.17.07-.17-.02q0-.1.22-.07.24-.03.14.1c-.05.09-.05.09.47.09q.53 0 .38-.05-.11-.02-.1-.05.08 0 .08-.07h-.07q-.07 0-.1-.05c0-.04-.23-.04-.23 0-.05.08-.33.12-.33.08q.02-.05.11-.08.15 0-.02-.02c-.1-.02-.76-.05-1.47-.02h-2.06c-.71 0-.79 0-.79.1q0 .09.05.02c.05-.1.17-.08.17.04q0 .1.16.1.12 0 .15-.05t-.12-.05-.14-.04q.04-.05.35-.05t.29.02q-.67.24.1.22c.2-.03.51-.05.68-.03m.4-.12-.1-.07h.65l-.4.07q-.12.12-.15 0m2.59-.02.02-.07.07.07q0 .07-.05.07-.04 0-.04-.07m-3.47-.05q.05-.07.1 0t-.05.05-.05-.05m.36 0q.05-.05.1 0zm.21 0q.05-.05.1 0zm1.28 0h.15zM8.7 25.66q.02 0 0 .05h.05c.16-.05.02-.12-.2-.1q-.28 0-.28.14h.12q.17 0 .12.05l.05-.05zm.9.12q.17-.12-.07-.07l-.26.04q-.05 0 .07.05l.17.05zm.76 0h-.05l-.1-.03q-.02-.04-.09 0-.19.05.07.1.17 0 .17-.05m2.44 0v-.17h-.05c-.04.05 0 .24.08.24zm1.07 0q0-.07-.03-.05l-.04.07q0 .12.07-.02m1.04.02-.02-.04q-.05 0-.05.04v.05zm.88 0h-.14q-.03.05.07.05t.07-.02m-13.8-.07v-.05c0-.1-.19-.12-.29 0q-.09.05-.04 0 .07-.1-.12-.1h-.48q-.3 0-.35.05c-.07.07-.1.07.52.1q.36 0 .4.04l.17-.02q.14-.05.19 0m1.42 0h.12q.19.05.12-.02c-.07-.1-.5-.1-.64 0h.07q.17 0 .21.04l.07.05q.08 0 .03-.05m2.54-.04q.11-.24-.17-.05-.14.1-.12 0c0-.1-.12-.1-.12 0 0 .02.2.17.29.17zm.35.04c.05.05.24-.02.24-.09 0-.05-.31-.05-.43 0q-.1 0-.02.1.05.07.12.02t.1-.03m.7-.04c0-.1-.14-.17-.19-.1q0 .05-.1.03-.06 0-.09.04-.04.1.12.05.17-.05.17 0t.07.07.02-.1m.17.08q0-.07.07-.03c.14.05.4.03.45-.04q.05-.07.05 0t.1.07.16-.07.02 0v.07l.1.02h.07v-.07q.07 0 .07-.07h-.07l-.05-.02-.24-.08q-.26 0-.28.05c0 .03-.2.05-.3 0l.04-.07c.07-.1-.14-.05-.24.05-.07.07-.02.24.05.24q.02 0 0-.05m1.8-.07-.1-.05c0 .05.12.17.15.14zm.95.1h-.12.14m.71 0v-.1c.2-.12 0-.2-.23-.15q-.24.08.16.05.14 0 .05.07-.05.07-.02.12.07.05.04 0m3-.02-.1-.05q-.12 0-.1.05l.12.02zm.66-.05q0-.1.11-.1h.17q.07-.07-.1-.07l-.2.05q-.03.07-.13.07-.14 0-.04.07.11.15.19-.02m.42.05q0-.1-.12-.07-.04.07.07.12.05 0 .05-.05m-12.47-.07c-.02-.1-.19-.12-.19 0q0 .04.12.07.12.02.07-.07m.47 0-.07-.03q-.04 0-.07.05l.07.05zm1.3 0-.09-.03q-.04 0-.04.05l.07.05q.07 0 .07-.05m.28 0q.07-.1-.04-.1t-.1.1l.02.07zm.17-.05q-.07-.07-.07 0 .02.12.1.1zm.19.07-.05-.04q-.07 0-.02.04l.05.05zm.62-.02q.07-.07 0-.1-.1-.02-.1.05 0 .12-.07 0c-.1-.07-.36-.04-.38.05-.02.07.47.07.55 0m8.06 0h-.2q-.18.05.05.05.15 0 .12-.05m8.56 0-.05-.02-.04.04.04.05zM.54 25.78q.03-.07-.14-.07-.19 0-.17.07l.17.04zm8.66 0q0-.07.16-.07.6.02.17-.05l-.36.02q-.04.1.05.14zm4.98-.1h-.48q-.54 0-.23.03c.26.02.66 0 .7-.03m.67.03-.12-.05q-.14 0 0 .05.12.11.12 0m-4.88-.05q0-.05-.05-.05t-.03.05l.05.05zm1.18 0h-.28q-.1.05.14.05.26 0 .14-.03m.48 0h-.2q-.04.05.1.05t.1-.02m.87.02h-.1q-.04 0 .03.02.1 0 .07-.02m.67 0H13l.08.02q.11 0 .07-.02m-.24-.12h-.19q-.05.02.1.02zm-.92-.05h-.24q-.12 0 .1.03zm.61-.04q.29-.03.14-.08-.11-.07-.11 0l-.17.05-.24.07q-.07.07.05 0zm-6.07-.05v-.07q-.07 0-.07.07v.1zm.97.05h-.1l.07.02zm3.09 0-.07-.12q-.05-.07-.05.04t.1.1q.06 0 .02-.02m4.22-.17q0-.07-.12 0-.24.12-.03.1.12 0 .15-.1m4.62.07h-.12l.05.02zm-7.26-.16q-.09-.05-.04.09.02.07.04 0zm-9 .07-.15-.05H2.9c0 .07.26.1.26.05m4.6-.03-.02-.07-.05.07v.05q.07 0 .07-.05m4.01-.07h-.12v.07h.15zm.76.07q-.02-.07-.1-.07-.04 0 0 .07.17.07.1 0m-.9-.19v-.04q-.07 0-.07.07 0 .12.07-.03m1.61-.04q-.07-.08-.02.02t.05.07zm-2.84 0q-.05-.08-.07-.05l-.1.07q0 .05.07.05.12 0 .07-.1m1.47-.14-.02.05v.07zm.26.1h.07v-.08q0-.12-.07 0-.04.07-.07-.12 0-.14-.07-.18c-.05-.03 0 .14.05.28v.12l.05.05q.07 0 .04-.08m-1.66-.14q0-.12-.04-.05v.15q.12.12.07-.1m1.99.07q0-.07-.05-.04v.07q.12.12.05 0m-7.82 0H4.4h.21m7.04-.2-.04-.11q-.05 0-.05.1l.05.09zm-9.48 0-.1-.04H2q0 .07.07.07zm1.07 0q0-.06-.1 0zM4 24.7h-.1l.04.02q.12 0 .07-.02m3.47 0q-.05-.07-.1-.07t0 .04q.14.12.1 0m4.4 0-.09-.04q-.07 0-.05.02c.03.05.15.07.15.02m-8.78-.14q-.04-.07-.11 0t.07.07.07-.07m4.62-.02-.02-.07-.1.07.03.04zm-3.13-.05h-.07q-.07 0 .05.02zm-1.11-.1q0-.07-.07-.04l-.08-.03-.11-.04q-.1 0 .02.04.12.03.12.1l.07.05q.07 0 .05-.08m4.03.05h-.1l.05.03q.07 0 .05-.03M3 24.33l.05-.1q.14-.09 0-.04c-.12 0-.2.19-.07.19q.04 0 0-.05m1.9 0h-.1q-.07.05.04.05.08 0 .05-.03m.33 0-.07-.04q-.04 0-.04.04 0 .05.07.05t.04-.05m4.2 0q.07-.04.02-.04-.04 0-.11.04-.08.05-.03.05zm1.19 0-.31-.02q-.36 0-.2.02c.17.05.48.08.48 0m1.19-.04q.14 0 0-.05-.2-.12-.17.05 0 .1.03.07 0-.07.14-.07m1.66.07h-.14zm-6.29-.2-.02.08q0 .12.02.05zm2.47.15-.1-.1q-.11-.07 0 .03.1.14.1.07m3.46 0h-.14zm-1.09-.14-.12-.05q-.04 0-.04-.05.02-.04-.05-.1-.14-.04 0-.13.07-.1 0-.07c-.14.04-.12.37 0 .4q.12 0 .12.05 0 .04.07.04t0-.1m2.13 0q.12.13.07 0l.03-.04h.14l.12-.05q.07 0 .1-.07 0-.07.06-.1.07 0 .07-.04l.15-.26q.14-.21.07-.24t-.03.03q0 .07-.04.07-.05 0-.05-.05t-.14-.07-.17.07-.14.07q-.1 0-.07.02l-.03.05q-.07 0 0 .1v.16q0 .07.1.12.12.02 0 .02t-.14-.07-.07-.07 0 .07.02.17q-.05.14-.07-.02-.07-.17-.05 0 .02.1-.17.07-.14 0-.16.04-.03.05.05.05l.16.03q.1.07.1 0 .02-.15.12-.03m.2-.35q0-.05.1-.15t.12-.14q-.02-.14.2-.05.16.1.02.12-.05 0-.05.07t-.07.08-.05-.08q.05-.1-.07 0-.12.08-.05.12.07.05-.02.07t-.12-.04m-9.72.3q-.03-.07-.14 0t.02.03q.12 0 .12.05 0 .04.05 0zm3.44.05-.05-.05-.05.05q0 .07.05.07t.05-.07m.26-.07q.11-.14 0-.02-.1.04-.1.1zm-3.44 0q0-.07-.07-.1-.14-.02-.05.1.1.07.12 0m8.63-.12-.12.07q-.14.15.02.03.12-.05.1-.1m-6.26-.05-.02-.04-.05.1q0 .09.07-.06m-3.15-.07q.11.03 0-.1-.12-.11-.15 0h-.07q-.02 0 0 .1.1.15.1.07.02-.07.12-.07m.52.05q-.17-.07-.12 0t.12.07 0-.07m.33-.07q-.21-.14-.24-.02 0 .07.22.04.07 0 .02.07 0 .05.02 0 .1 0 0-.09m1.57.1q.16 0 .16-.08l.15-.02q.85 0 .85-.05a8 8 0 0 0-1.66 0v.1c.1.1.19.1.47.04m-.28-.04h.1l-.08.02q-.1 0-.02-.02m1.85.04q0-.07-.07-.02-.2.05-.03.07zm-3.68-.09-.1-.02q-.09 0-.09.04c.05.05.2 0 .2-.02m4.76.02v-.04l-.1.04v.05q.08 0 .1-.05m.52-.1q0-.11-.05-.09l-.04.15q0 .16.1-.05m-1.79.05c-.02-.07-.16-.07-.16 0l.1.04q.09-.02.06-.04m2.33-.12q-.03-.05-.03.07v.07zm-.2 0v.05q.08 0 0-.08c0-.07-.23.03-.23.12l.12-.04q.12-.1.12-.03m-.83 0q.35-.14.02-.1l-.47.1q-.45.05-.05.07zm4.98 0-.05-.05-.05.08.03.04zm-2.37-.14-.08-.05q-.04 0-.04.05t.07.05.05-.05m-7.83-.14q.07-.12-.02 0h-.12l-.02.02c0 .1.14.07.18 0m4.98-.02q-.07-.07-.26-.07-.35 0 0 .04.43.15.26 0m-5.14-.1q.12-.04 0-.04t-.1-.05q0-.07-.1-.07-.13 0 0 .07.08.05.06.1 0 .12.14 0m11.38 0c0-.05-.24-.17-.26-.14-.05.04.1.19.16.19zm-6.64-.33q.1-.07-.07-.03-.14 0-.12-.02.02-.05-.1-.12-.16-.07 0 .02c.17.17-.14.08-.7-.2q-.79-.36-.34-.06c.43.26 1.19.48 1.33.4m6.26-.04q.07-.07 0-.07-.12 0-.14.07-.05.07.14 0m-10.9-.17q0-.04-.05-.04t-.05.04v.05l.07-.05m11.07-.16c.2-.15.24-.24.33-.9.34-1.97.55-3.8.64-5.7a18 18 0 0 1 .27-2.6l.09-.83c.07-.22.1-2.02.05-3.32 0-.71 0-.76-.14-.8-.12-.08-.12-.1-.05-.39 0-.07-.12-.07-1-.1-.87-.02-1.04-.04-1.14-.11q-.11-.19-.1.21l-.01.88v1.85a8 8 0 0 1 0 1.9c-.12 1.2-.12 1.66.07 2.15.16.5.14.6-.1.67l-.38.16c-.28.12-.28.12-.38 0q-.23-.33-.23.36l-.07.66c-.15.86-.2 1.24-.15 1.66v2.42c-.02 1.95-.02 1.95 1.07 1.95 1.02 0 1.11 0 1.23-.12m2.8-.07c.6-.36.62-.43.33-1.8-.14-.72-.4-2.38-.45-2.85 0-.2-.21.71-.28 1.3a7 7 0 0 1-.24 1.33 24 24 0 0 0-.62 2.18c0 .12.95 0 1.26-.16m-12.04-.26q-.15-1.12-.72-2.8c-.11-.29-.23-.74-.33-1.02-.23-1-.28-1.02-.38-.52l-.14.52c-.35 1.09-.71 3.72-.54 3.93.23.34 2.13.22 2.13-.11m3.41.18c.03 0 .05-.85.05-1.84l.05-2.52c.07-.85.12-.78-.43-.83-.57-.05-.54 0-.6-.92-.01-.8-.01-.8-.18-.93-.24-.14-.24-.38-.02-.95.16-.54.16-.35.04-2.2a10 10 0 0 1 0-1.66 12 12 0 0 0-.04-2.49c0-.21 0-.21-.24-.14-.12.05-.62.1-1.1.1-.85.04-.85.04-.82.2q0 .15-.05.2-.1.04-.1.28t-.07.4c-.09.22-.07 1.43.03 1.97l.1.88c.02.3.11.9.2 1.3.2.9.34 2.07.43 3.2a29 29 0 0 0 .34 3.56c.2 2.18.45 2.51 1.75 2.44zm2.78-1.32q.1-.2 0-.12-.1 0-.1.16v.1zm.12-.83-.03-.05q-.04 0-.04.05v.04zm.23-.24h-.07q-.07 0-.05.07.08.07.12-.05m-.26 0L12 20.1h-.05q0 .07.05.07zm.17-.19-.12-.07h.07q.07 0 .1-.07 0-.07-.12-.05-.14.08-.1-.16.03-.07-.1 0c-.11.07-.09.21 0 .21q.08 0 .15.1.05.07.14.1.12 0-.02-.06m.21-.11q-.1-.08-.05.02.03.1.08.07zm-.7-.08h-.1q-.05 0 .02.03zm.58-.23q-.07-.07-.1 0-.06.04.06.04t.04-.04m-.16-.17q.12 0 .04-.05-.11-.2.08-.2.19.04 0-.06-.08-.07-.12-.04l-.07-.1q0-.07-.07-.1-.08 0-.03.05 0 .05-.07 0-.07 0-.05.05t.12.07q.14 0 0 .07t-.05.07l.1-.07q.1-.07.07.1 0 .12-.07.14-.1 0-.1-.07t-.04 0q-.05 0 0 .07.12.02 0 .1-.07.07.02 0zm.47-.35q-.05-.08-.05.04 0 .07.03.05zm-.24-.1q0-.1-.07-.07t0 .1q.03.16.05 0m-.47-.12-.1-.12q-.07-.07-.05-.14-.1 0 0 .14.08.21.12.12m.43-.1v-.05l-.1.05v.07q.08 0 .1-.07m-.1-.19c-.04-.07-.18-.07-.18 0q0 .05.04 0 .05 0 .07.05.05.05.07.02zM5.9 18.4l-.05-.04q-.07 0-.07.07t.07.07zm6-.04q0-.08-.1 0l-.07.1.08-.03q.09 0 .09-.07m-.17-.55q0-.07-.04-.05-.05.03-.03.07.07.12.07-.02m.38 0q.05-.07-.1-.05h-.11c-.05.03.12.12.14.12zm5.13-.07v-.07q-.08-.03-.08.05 0 .11.08 0m.09-.24h-.12c-.05.05.12.12.17.1q.02-.03-.05-.08m-5.38.05c0-.05-.12-.07-.14-.05q0 .05.04.05zm-7.73-.21q.12-.1 0-.08-.07 0-.07.08v.07zm7.99 0-.1-.1-.07.02q0 .08-.07 0-.12-.07-.14.08h.12c.05.1.23.07.23 0m5.27-.17q0-.07.02-.05.07.03.05-.04l-.12-.05q-.05.05-.05.12l.03.12q0 .04.07.02zm-13.11-.05q0-.04-.12-.02-.12 0-.12.05zm12.7-.33h.17q.24 0 .12-.05c-.12-.07-.64-.12-.6-.07q.03.07.13.07t.14.05l.05.05q.02 0 0-.05m1.16 0q0-.05-.38-.05-.36 0-.36.05c0 .05.69.02.71 0m-13.3-.24q.1-.1-.23-.04-.24 0-.34.07t.24.04zm12.71 0q.19-.14-.1-.02h-.16l-.1-.05.05.07q.17.15.31 0m-13.66 0c.07-.1-.16-.19-.23-.11q-.05.04.07.04t.05.05q-.12.07 0 .05t.11-.05m.24 0q-.05-.07-.12-.07l.03.05.14.04zm.05-.24-.1-.04q-.04 0 0 .07.15.12.1 0m13.4-.55.02-.12c-.05 0-.17.17-.17.24q0 .07.14-.12m.24-.1q-.05-.06-.19.15-.1.19.07 0zm-.54-.09-.07-.07q-.1-.07-.05-.1c.07-.02.05-.18-.03-.18l-.1.14q-.09.19-.01.16.19-.02.14.1 0 .07.05.02.07 0 .07-.07m.4-.05-.1-.04q-.07 0 0 .04.17.12.1 0m-.24-.04c.05-.05-.1-.2-.14-.12v.05q.07 0 .05.07l.02.04q.07 0 .1-.04m.47 0q-.12 0-.07-.12.02-.12 0-.2 0-.06-.07.03 0 .07-.1.07-.07-.02-.04.05 0 .12-.03 0l-.16-.1q-.1 0-.12-.07-.07-.16 0-.14.07.03.07.1t.02.04l.14.03q.15.05.17-.03.02-.14-.19-.11h-.1q0-.07.05-.07c.05 0 .03-.24-.02-.31l-.02.04q0 .27-.05.24-.17-.05-.21.14c0 .12.23.29.33.24q0-.05 0 0c-.03.07.23.24.38.21q.11 0 0-.02m.19 0c0-.07-.15-.24-.2-.19l.08.14q.14.17.12.07M4.8 15.42q0-.12-.05-.05-.14.1-.1-.12l-.04-.17q-.1-.14-.05 0v.05q-.07-.07-.04-.12l-.05-.07h.07q.1 0 .14-.07 0-.07-.07-.05l-.16-.02q-.08-.02-.15.02-.07.1-.02.1l.05.1q0 .11-.05 0-.05-.05-.05.09.07.33.1.12 0-.12.04-.08.08.03.05.1t.07.14h.1l.05.05q.16.19.16 0m-.24-.24q0-.05.05-.05t0 .05l-.02.05zm-.33.2q-.05-.08-.12-.06 0 .05.05.05zm-.16-.17-.05.07q-.05.1 0 .02.07-.05.05-.1m13.04.03v-.05l-.07.05v.07q.07 0 .07-.07m-4.89-.05q.03.05.03 0c0-.1-.24-.1-.24 0q0 .05.1 0zm-8.13-.1q.12-.09 0-.04-.12.02-.12-.07-.02-.12.05-.07.12.05 0-.07t-.14-.05l-.07.17q-.05.11.04.07.07-.03.07.04 0 .15.17 0m13.11-.04q0-.07-.1-.1-.06-.02 0 .03.08.04.05.11v.05q.08 0 .05-.1m-8.15 0-.1-.06q-.1-.08-.05.02c.03.07.15.12.15.07m3.48-.12q-.07-.1-.02 0 0 .1.07.1zm1.19-.14.14.1q.14.18 0-.05c-.07-.2-.36-.12-.33.12l.04-.05q.05-.12.12-.12m-.42.02-.03.05.03.07zm.23-.04q-.04-.12-.12.07-.04.14.05.04zm-9.34.04q-.07-.07-.1-.04c-.02 0 .05.11.1.11q.05 0 0-.07m4.43-.14c-.02-.19-.14-.36-.16-.19q0 .07-.05 0-.07-.17-.12.12-.07.19.1.07.14-.17.14.05.07.33.1-.05m3.5.17q.03-.05-.04-.03-.15.05-.03.07zm.9-.07q-.04-.05.1-.22l.14-.24-.07.08q-.07.1-.12.07v-.05q.07 0 .05-.17-.02-.23.05-.19.1 0 .02-.14l-.02-.28q0-.2-.12-.48l-.07-.38q0-.02-.03 0-.07.05 0 .29v.28l.05.2c.07.13.12.4.05.4l-.05.09-.05.47q0 .43.03.36.07 0 .04-.1m-8.72-.09-.02-.05-.08.05.03.05q.07 0 .07-.05m4.62-.05q-.07-.23-.1-.12l.08.24zm-.04-.28q.04 0 0-.05-.08-.16-.1.02 0 .12.02.08 0-.08.08-.05m3.34 0q-.07-.07-.2 0 0 .07.1.05t.1-.05m-3.82-.17q-.02-.07-.05.05 0 .17.03.1zm5.22.14-.05-.04q-.05 0-.05.04 0 .05.05.05zm-4.98-.16q-.17-.07-.1.05 0 .07.07.02.08 0 0-.07m4.63.02q0-.07-.07-.07l-.05.07.05.1q.07 0 .07-.1m-3.1 0q.04-.16-.08-.04-.07.07 0 .07zm.42 0h-.1q-.04 0 .03.03zm1.59-.07q.07-.02-.05-.33l.02-.1.12.15q.05.19.05.04 0-.09-.05-.16t.05-.14l.1-.17.07-.1q.07-.02.02.05v.05q.1-.05.02-.19t.03-.14.02-.07-.1-.03c-.04.05-.04-.26 0-.42q0-.1-.11-.1-.12-.05-.03-.05c.15 0 .1-.23-.1-.28q-.09-.05-.09.1 0 .14-.02.07t-.1-.1c-.07 0-.26.21-.23.26q0 .03-.1 0-.14-.07-.12 0v.24q-.02.12.03.19.07.02 0 .02t-.05.24.05.21v-.21q0-.17.07-.14l.05.16q-.03.22.1.03.06-.1.06-.03 0 .05.1.07l.16.1.17.1c.14 0-.05.14-.19.14q-.19 0-.05-.05l.05-.1q-.07 0-.07-.07 0-.14-.02 0-.1.17-.15 0 .03-.12-.1 0-.06.05-.09.12 0 .05.1.03t.1.09.06.07l.08.1.09.16c.07.03-.05.2-.14.2v-.08q.1-.1.02-.1-.05 0-.05-.07 0-.14-.04 0c-.07.15.02.31.12.27zm.04-.88c0-.04.2-.1.24-.04q0 .04-.02 0l-.07.02q0 .05-.07.05zm.03-.94q-.07-.1.05-.08.07 0 .07.08-.03.11-.12 0m5.62 1.73q0-.07-.05-.07t-.07.07.07.04zm-7.64-.17-.07-.02q-.12 0-.07.02l.07.05zm6.74-.07-.05.05q0 .07.05.07zm-7 .02-.05-.1q-.04 0 0 .03l-.04.1q-.07 0 0 0zm.71-.04v-.08q-.07 0-.07.08l.03.04zm-.64-.24-.07-.1q-.21-.14-.1.03.08.07.03.12h.05zm.26 0-.04-.02q-.05 0-.05.04 0 .05.05.05zm1.43.05-.07-.05h-.05q0 .07.05.07zm-1.57-.29q-.07 0 0-.1.1-.11-.05 0-.14.08-.02.13l.12.04zm-.24-.12q0-.02-.02 0-.07 0-.07.07h.07zm-1.37 0q-.02-.12-.05-.07v.07q.1.12.05 0m9.48 0v-.04q-.07 0-.07.04l.03.07zm-7.94-.14q-.1 0-.1-.07h-.07l.05.1q.1.07.14.04.08-.02-.02-.07m8.32 0q0-.07-.02 0l.02.1zm-8.06-.07q0-.07-.1-.05-.09.03-.09-.05t-.07 0l-.05.08h.05l.12.07q.12.1.14-.05m.71-.05-.1-.05q-.04 0 0 .05.17.12.1 0m.48.05-.05-.05h-.07q.12.12.14.05m6.88-.19q0-.1.04-.14.1-.2-.11-.05-.12.1 0 .12v.14q0 .12.04.07zm-7.07-.07q-.07-.07 0 .02 0 .1.05.07zm1.42-.05q-.04-.02-.11.07-.08.17.02.03l.07-.1m.28-.05-.09-.04v.07q.17.12.1 0m5.8-.4q0-.29-.16-.31-.05 0-.05.07 0 .1-.07.02c-.1-.07-.17.1-.1.17q.08.1.03-.05-.03-.1.02-.02.12.14-.1.16-.06 0 .05.07t.22 0q.07-.02 0 .05l-.05.1q-.05 0 0 .07c.02.14.19-.12.21-.34m-.14-.16q0-.1.05-.05t0 .1-.05-.05m-5.74.43v-.08q-.07 0-.07.08l.03.04zM3.7 12.4l-.05-.04-.05.04q0 .08.05.08t.05-.08m14.7 0v-.04l-.07.04v.08q.07 0 .07-.08m-14.58-.14q0-.05-.08-.05-.02 0 0 .05l.05.05zm.07-.16q0-.12-.1-.07-.07 0-.1-.08-.02-.11.05-.07.08.05.1-.16t-.05-.15c-.05.08-.21 0-.16-.04q0-.05-.05-.05-.17 0-.03.14.05 0 .03.14l.02.15.05.1q0 .13.12.11l.1.02v.07q.04 0 .02-.11m-.24-.4.07-.05q.07 0 .05.04l-.07.05q-.05 0-.05-.05m5.52.45-.1-.07q0 .12.1.14zM12.9 12q-.1-.02-.05.12.05.07.07 0zm5.45 0c.05-.05-.1-.12-.14-.07h.02l.07.07-.1.05-.06.05c0 .07.19 0 .23-.1m-13.91-.07-.1-.12c-.12-.07-.14-.24-.07-.24q.07 0 .07.1 0 .05.05.07t.02-.19v-.17c.1 0 .07-.18 0-.26l-.07-.14q-.05-.14-.12 0l-.07-.05v-.07q.07 0 .05-.12-.03-.07-.1-.07t-.04.07q0 .05-.08.03l-.07.02q0 .07-.07.05h-.12q0 .07.1.07t.12.12.07.14q.12.07.07.17c-.02.14-.12.12-.07-.03q0-.16-.05-.04l-.14.14q-.12.1 0 .05h.1q0 .07.11.02.12 0 .07.05v.07q.07.05.07.16 0 .15.1.15t.07.07q0 .1.02.05.08-.03.08-.1m9.22-.05-.07-.04a.07.07 0 0 1-.1-.08q0-.14.24 0 .12.17.07-.04v-.15c.07-.07.05-.47-.02-.47q-.07 0-.07.14t-.08.12-.07-.05l-.1-.04c-.11 0-.13.23-.04.35v.07c-.14 0-.07.15.05.17q.14.05.1.1 0 .07.02.02.07 0 .07-.1m-.71-.19-.07-.04-.07-.03q0-.07-.08-.02l.03.1q.05.04.02.14-.02.11.07 0 .07-.05.07-.15m5.5.07q0-.07-.04-.04l-.05.07q0 .05.05.05.04 0 .04-.08m.27.03v-.05q-.05 0-.08.05v.05q.08 0 .08-.05m-.55-.17q0-.1.07-.12c.07-.04.14.07.07.1q-.07.05-.07.12 0 .1.14-.05.12-.12.12-.21t.07-.08q.07-.02 0 .24-.07.12 0 .07.1-.02.1-.12l.02-.19q.05-.07 0-.04c-.07.04-.24-.12-.14-.17.07-.05.07-.24 0-.19q-.07.03-.05.12 0 .07-.07.02-.14-.04 0-.16.17-.17 0-.14c-.12 0-.14.28-.05.33q.05.02.05.1-.05.11-.14-.1-.07-.17-.05-.24l-.05.05q-.07.07-.07.12.12.16 0 .19v-.07l-.02-.08-.05.1q0 .07.05.1c.05 0 .02.37-.03.44q-.04 0 0 0 .1 0 .1-.14m.1-.19q-.08-.05-.05-.14.04-.14.12.02.07.17.1.03 0-.07.06-.05c.07.1-.12.21-.24.14m-8.44.14q-.07-.07-.07 0l.05.08q.02.02.05 0zm2.19.03q.09-.1-.1 0-.3.07-.07.1zm-7.4-.07q0-.05-.07-.03l-.05.1h.05q.04 0 .07-.07m3.96-.1q-.2-.35-.12.17h.1q.06-.07 0-.17m3.86.07q.05.03.02-.02-.12-.19-.19.02 0 .17.05.07.05-.09.12-.07m-7.19-.12q0-.16-.07 0-.16.17 0 .12.07 0 .07-.12m4.91.12-.47-.23.05.11q-.03.03.04 0h.07q-.04.15.17.12zm.71-.02q0 .05.05.05.02 0 0-.05 0-.07.05-.02.28.14.28-.08v-.11q.07 0 .05.07c-.05.14.21.21.36.12q.1-.08.16-.05.07.02.05-.05t-.1-.05v-.02q0-.07-.04-.1c-.07 0 .04-.2.16-.23.15 0 .31-.22.22-.22q-.12 0-.07-.09.02-.12.09-.12.02 0 0-.05-.1 0-.02-.16.11-.24 0-.2-.05 0-.05.13l-.05.19q-.07.12-.05 0t-.11-.15q-.24-.04-.08.17.17.21-.11.07-.15-.05-.05-.12.07-.02 0-.07c-.1-.02-.1-.14 0-.1l.1-.02q0-.1.09 0 .16.07.1-.07c-.08-.12-.1-.33 0-.33q.04 0 .04.05h.1q.07 0 .07-.07h-.05l-.05-.03c0-.07-.21-.12-.28-.1v.15q.07.1.02.1t-.07-.08l-.1-.1q-.07 0 0 .1.12.12-.07.07-.14-.02-.14.03 0 .14-.14 0-.07-.05-.05.05t-.1.07-.23.07l-.14.07-.05.05q-.05.14-.05 0c0-.07-.12-.12-.12-.03 0 .05-.23.15-.23.1l-.1.07c-.1.07-.07.21.05.21q.12 0 .07.17h.07l.1.02q0 .05-.12.07t-.1-.1c0-.06-.28-.18-.33-.13q-.1.11.07.1h.1q0 .06-.05.06l-.05.05q0 .05.17.05.12 0 .21.07.03.12.1 0t.02 0l-.02.16-.07.05v-.07l-.15.05q-.16.07-.16 0h-.05l-.12-.05q-.1-.07-.1.02t.1.15q.1.1.05 0 0-.05.05-.05.04 0 .04.05-.02.11.15 0 .07-.1.02.04v.07q.1-.11.12 0c0 .1.24.1.38 0q.07 0 0 .08-.12.14.02.02.12-.05.12 0m-.4-.19q.02-.14.12-.05.14.12-.08.14-.11.03-.04-.09m.52-.14q0-.07.1-.1c.04 0 0 .12-.08.15q-.05.02 0-.05m-.24-.05h.05q.12.05 0 .05t-.07-.05m.45 0q-.02-.12.07-.05.2.12.03.12zm-.19-.17q.07-.04-.05-.11-.19-.05.08-.1.14 0 .19.07.09.24-.03.12-.07-.07-.1 0l-.06.07q-.1.03-.03-.05m.71-.07.07-.1q.03 0 0 .06-.02.14-.04.04m-1.4-.28q-.07-.2 0-.2.28-.1.16.08l-.07.14q.03.14-.1-.02m1.57.05q0-.07.07-.05t-.02.1q-.1 0-.05-.05m-1.04-.1q-.12-.14 0-.19.07 0 .05.03t0 .09q.14.17-.05.07m.38-.16q-.1-.1 0-.1.19-.05.07-.12h-.12q-.05.1-.16.05-.15-.02-.05-.1.05-.07.1 0 .02.1.09 0c.1-.11.3-.02.3.12q-.04.31-.23.15m1.66.94q-.14-.1-.12.05 0 .07-.02.05-.07-.03-.03.05 0 .11.1 0 .07-.08.05-.12m-.72.07q.1-.12-.04 0l-.1.1q.07 0 .14-.1m-7.44-.1c.07-.1.05-.33-.02-.33q-.03 0 0 .1 0 .07-.05.04-.05-.02-.05 0 0 .08.05.08t0 .04q-.1.14-.03.17zm.76.07-.1-.09q-.1-.12 0 0 .07.14.1.1m6.87-.24c0-.17-.16-.31-.26-.2q-.12.15.03.06.14-.05 0 .07t.04.07q.2-.05 0 .07-.14.1.03.05.14-.03.1.02-.06.05 0 .05zm-8.44.07q0-.07-.04-.05l-.05.07q0 .05.05.05.04 0 .04-.07m1.26 0-.02-.02-.08.04.03.05q.07 0 .07-.05m6.85-.04q0-.2-.19-.1c-.1.07 0 .24.1.21q.07-.02.1-.11m-2.76-.05-.05-.07-.04.02.04.07zm-5.38-.1v-.04q-.07 0-.1.04v.05q.08 0 .1-.05m5.9-.12q-.04-.02-.04.05t.04.07zm9.01-.07q0 .05 0 0 0-.04-.07-.14-.07-.14-.05 0 .03.07-.04.07t-.07.05.09 0zm-.47-.16-.1.04q-.07.05.03 0 .07 0 .07-.04m.14-.12q0-.07-.02-.05-.07.05-.03.1.07.14.05-.05m-9.91-.05q0-.05-.07-.05l-.05.05.05.05q.07 0 .07-.05m9.82-.21q-.03-.07.04-.03.17.05 0-.07-.14-.07-.1.05 0 .14.06.12zm-.31-.2q-.07-.06-.12 0l.05.06q.07 0 .1.04 0 .07.01.03.03-.05-.04-.12M5.26 9.99q0-.05-.05-.08-.04-.02-.04.08t.04.1zm4.89.02h-.1q-.05 0-.07.05h.07zm-5.93-.07q.1-.17-.05-.05-.07.07-.07.12 0 .12.12-.07m6.07-.05.07.05q0 .07.24-.03c.42-.18.45-.2.35-.23q-.07 0-.07-.05 0-.12.19-.05h.17q0-.07.1 0 .06.1.18.05.21-.14.07-.17l-.05.08-.07.04q-.07 0-.07-.07h.05l.05-.05q.02-.04.16 0 .17 0 .1.08-.07 0 0 .07.1 0 .1-.05t.04 0c.05.1.26.14.26.07q0-.05-.05-.02l-.04-.05q0-.07.1-.12.06-.07.04-.12-.07-.07-.07 0h-.12q-.12-.07 0-.1.1-.06-.05-.09-.12 0-.19.07-.1.12-.05 0l-.02-.11q-.05-.03-.02-.1t-.15-.07-.16-.07q-.05-.07-.17-.07l-.19-.05q-.1-.02-.1 0 0 .07.03.05h.12q.1.07-.14.07t-.2-.07l.1-.1q.05 0 0-.02l-.3-.03q-.31 0-.31-.07t-.07-.04l-.12-.05q-.07-.05.1-.03.32.05 0-.16-.25-.24-.1-.2.04 0 .07-.04.02-.05 0-.05t-.07-.04-.1.07q-.12.14-.19.07-.12-.1-.16.05-.1.12 0 .14c.1.07.12.21.04.19q-.07 0-.1.05l.03.07q.07 0 .07.12 0 .16.08 0 .07-.08.07-.03l-.07.14q-.1.08-.03.08l.1-.08q.07-.07.11-.04l.05-.03q0-.07-.07-.07t0-.02l.1.02q.1.12.04 0 0-.1.05-.1.17 0 .24.24 0 .2.07.08c.1-.12.33-.24.28-.15l.03.12-.05.03c-.14 0-.33.16-.19.16q.07 0 .05.05l.05.1q.11.09 0 .16-.17.14.14.12.04 0-.05.07-.1.07-.07.07t.07.1q.02.07-.05.04-.07-.02-.12.03-.04.04-.04-.12 0-.2-.05-.29-.05-.1-.07-.02t-.07.05q-.1 0-.17.14t-.12.1 0-.08q.1-.07-.05-.04-.18.04-.02.11l.05.1v.05q.07 0 .1-.07v.04l.02.1.12.07q.07.14.1.02zm-.24-.19q0-.07.05-.05c.07 0 .12.15.05.15q-.05 0-.08-.1m1-.24c-.17-.09 0-.42.21-.42q.17 0 .05.05-.14.11 0 .11c.1 0 .07.2 0 .22q-.1 0-.05-.05.05-.12-.21 0-.14.05 0 .07.14.05.14.1.05.09-.14-.05m.4-.14q0-.05.05-.05t.02.05l-.04.04zm.36 0 .05-.08h.07q0 .08-.07.1zm-1.19-.12.05-.05.05.05-.03.07-.04-.07m.87-.07q0-.08.05-.05t.03.07q-.08.12-.08-.02m-.7-.03.14-.05q.19 0 0 .05-.17.1-.15 0m-.16-.05q-.1-.04.04-.11.22-.1.1.07-.07.1-.14.05m.28-.15h.12l-.07.03q-.1 0-.05-.03m.31 0v-.07q.07 0 .07.05v.05q-.05 0-.07-.05m-.83-.21h.12q0 .04-.07.02zm8.42 1.32-.1-.04h-.04c.02.04.14.07.14.04m-8.9-.12q-.04-.07-.09-.07v.07l.1.08zm2.69-.09-.05-.02q-.05 0-.05.11.05.12.1-.09m1 .1q0-.08-.06-.08-.04 0-.07.07-.02.08.07.08zm-4.9 0q0-.08-.04-.05l-.05.02.05.05zm4.04-.03v-.05l-.07.05.02.05q.07 0 .07-.05m.55.02-.07-.04h-.05q0 .07.05.07zm5.28-.04.24-.17q.1-.1-.1 0-.16.12-.16 0c-.05-.19.12-.3.17-.14l.04-.33q0-.2.07-.12c.08.07.15-.07.05-.17q-.07-.07.1-.02l.16-.02v-.05q-.19.02-.19-.05t.1-.02q.07 0 .16-.07.03-.2-.23-.05l-.1-.03v.05q.03.24-.19.05-.16-.12 0-.07.12.02.12-.05t-.07-.07l-.05-.07h.1q.14.07.19-.21.04-.15-.07-.12t-.17-.03q-.05-.04-.12 0-.05.05-.1 0v.07q0 .1.1.08h.1l.1.04.01.05-.04.05c-.07-.03-.2.1-.17.14q0 .05-.05.05-.11 0-.04.1l.04.18q0 .12.08.17.07.07-.05.05t-.05.18h-.02q-.07 0-.05-.09.02-.1-.07-.12t-.07.07-.07.05h-.1q-.02.3.05.3h.07q0-.09.07 0 .07.06.1-.02 0-.07.02 0l-.05.1-.05.07q0 .05.05.02.05 0 .05.05t-.05.07c-.05-.04-.21 0-.21.07q0 .05.1 0 .06-.07.11-.02.07 0 0 .07-.14.1.14-.02m.08-.67.04-.04q.07 0 .03.04 0 .07-.05.07zm-5.2.53q-.02-.1.1-.15l.19-.23q.1-.22 0-.08-.12.1-.2 0-.06-.07.05-.07.2-.04 0-.16c-.16-.05-.04-.14.12-.1q.2 0 0-.04-.19-.12-.07-.24c.12-.07.05-.24-.1-.22h-.06q.07 0 0-.09-.05-.07 0-.07.04 0 .04-.12l.05-.17c.1-.09.1-.2 0-.16q-.07.05 0-.05.17-.17.1-.02l.02.04q.1.03 0-.16c-.05-.12-.17-.12-.12 0q0 .1-.16 0-.05-.07 0-.03c.09.05.18-.16.11-.23q-.1-.05.05-.14c.12-.12-.07-.4-.24-.34l-.14-.07q-.05-.07-.1-.04v.07q.13 0 0 .07-.06.04.05.04.17.03.03.12-.05.03-.05-.02-.05-.1-.12.12c-.05.16-.19.47-.24.42q-.07 0-.02.05 0 .07-.07.14c-.12.12-.05.36.12.36l-.07-.07q-.07-.07 0-.05.14.07.47.1.2 0 .2.07-.06.16-.13.07-.12-.12-.14 0l.07.05q.1 0 .1.1 0 .09.04.13.12.1-.02.12-.07 0-.05-.07c.03-.1-.14-.14-.19-.07q-.07.1-.07-.12 0-.05-.02 0c-.07 0 0 .24.05.24l.07-.07q.02-.05.12.07l.04.19v.07q.1.1-.04.05-.1-.03-.08-.05c.08-.07-.07-.24-.16-.17q-.14.12 0 .12.12-.02.07.07-.02.12.1.07.14 0 0 .08-.05.07-.12.07l-.08.02v.12q-.07.1 0 0 .17-.1.08.12-.08.12-.05.14l.12-.17q.14-.28.23-.14 0 .07-.07.07t-.07.05q.05.05.1.02l.04.03q0 .07-.1.04-.23-.02-.1.12.06.12.1.05.15-.1.15.14 0 .12.05.1.05-.03.02-.14m-.7-1.76q-.06-.05.06-.17.12-.11.07-.04t-.02.16q-.02.15-.12.05m.67-.83.04-.07.03.07-.05.05q-.05 0 0-.05m4.74 2.66q-.02-.07-.12-.07-.12-.03 0 .09.22.12.12-.02m-6.88-.05h-.14l.07.02zm-2.13-.07c-.02-.05-.24 0-.24.05h.12q.12 0 .12-.05m-5.07-.14q-.05-.15-.12.04-.03.12.05.07.04-.02.07-.11M9 9.58q0-.04.05-.07.07-.05 0-.07-.12-.07 0-.1H9q-.2 0-.2-.04 0-.14.25-.1.14.07.14 0 0-.1-.1-.04-.07 0-.04-.03.04-.12-.17 0c-.12.07-.12-.14 0-.23q.19-.12-.02-.08h-.12q0-.07-.05-.04-.14.02.02.26l.05.16v.1l-.05.16q-.07.12-.02-.04v-.07q-.02.07-.1.04l-.11.03q-.03.07.02.04.1 0 .14.05.1.1.1.03.12-.12.21 0 0 .09.05.09zm10.03-.12v-.04l-.07.04v.08q.07 0 .07-.08m-14.7-.11c0-.1-.12-.12-.17 0q-.02 0 0 0h.07q0 .07.05.07t.05-.07m6.26 0q.1-.1 0-.05-.1 0-.1.07 0 .12.1-.02m-.24-.03q-.02-.1-.24-.14v.05h.07q.07 0 .03.04 0 .1.04.1.05 0 .08-.05m2.46-.02q0-.1-.05-.1-.04 0 0 .15.07.07.05-.05m-4.2-.03q.08-.07-.02-.07-.17 0 0-.07.14-.1-.02-.04-.15 0-.15.11 0 .2.2.07m-4.46-.14-.05.07q-.05.1 0 .03.07-.05.05-.1m6.33.05q0-.07-.07-.05-.1.1.02.12.07 0 .05-.07m7.68.02-.02-.04-.05.04v.07zM4.03 9.06v-.05q-.07 0-.07.05l.02.05zm8.2-.07q0-.14.05-.19t.07-.02l.05-.03q.07-.12.05 0 0 .07-.1.05-.05 0-.05.05l.1.05q.1 0 .1-.08t.06-.07.1-.12 0-.09l-.07.1q-.05.07-.05.02-.17-.03 0-.17l.07-.12q0-.1-.21.05-.24.24-.05 0 .14-.16.24-.14h.12q0-.05-.07-.05t-.05-.14-.05-.12-.05.12-.04.02q0-.1-.24.07l-.24.1q-.05 0 .03.1.07.09.04.11l-.07-.05q0-.04-.1-.07-.14-.07-.02.05c.07.1.07.1-.1.24q-.13.14-.11.07 0-.1-.07-.07-.12 0-.07-.03.1-.23-.05-.23-.1 0-.1.04 0 .03-.09 0-.24-.11-.19 0l-.07.03q-.1 0-.07-.05c0-.05 0-.05-.2-.05q-.35-.02-.3.12 0 .07.05.1.05 0 .05-.07 0-.1.14-.08.21 0 0 .05-.17.07.12.1c.35 0 .4 0 .38.07l.02.02.1-.07q.06-.17.14.05c.02.12.3.28.3.19q0-.05.05-.05.07.05.05.1-.02.04.17 0 .23-.15.04 0-.19.19-.07.14h.17l.1.07zM12 8.75c0-.07.14-.12.16-.07q0 .05-.07.07zm-.2-.04h.12q0 .04-.07.02zm-1.58.23c.07-.19 0-.3-.07-.16q-.1.16-.05.23.05.12.12-.1m8.1 0q-.04-.16-.09-.01 0 .11.1.14zm-9.79.03q.1.07.05-.02l-.05-.14q-.04-.1-.14.12-.07.14 0 .04t.14 0m9.65 0q0-.07-.04-.07l-.05.05q0 .07.05.07.04 0 .04-.07m.36-.17q0-.16-.07-.21v.07l-.03.19q-.04.1 0 .12.17.07.1-.17m-14.75.07q0-.07-.05-.04l-.04.07.04.05q.05 0 .05-.08m.2 0q-.03-.1.01-.04.2.12.24 0 .03-.07-.1-.15-.16-.07-.14-.23h-.04v.21q0 .17-.05.12c-.07-.05-.05.07 0 .14q.12.1.07-.05M4 8.71q0-.08.05-.03.07 0 .07.05h-.07zm5.13.07q0-.07-.05-.07v.09q.12.12.05-.02m-3.9-.12c-.04-.07-.18-.1-.18 0l.1.05q.06 0 .04.04-.05.1 0 0 .07-.02.05-.1m13.2.08-.04-.05h-.05q0 .07.05.07zm-14-.05-.1-.1q-.15-.11 0 0 .1.17.1.1m4.02-.07-.05-.07-.04.07v.1q.07 0 .07-.1m1.16.05h-.1q-.04 0 .03.02zm-.47-.12q0-.12-.03 0-.07.07-.07 0h-.07q-.17.07.05.1.14 0 .14-.1m8.1.02v-.04q-.06 0-.06.07 0 .14.07-.03m-12.97-.1q.17-.11.02-.23-.07 0 0 .05l-.1.16q-.16.2.08.03m4.4 0-.04-.03q-.05 0-.05.05t.05.05.05-.05m3.08-.02q0-.07-.05-.07-.04 0-.07.1-.02.09.07.04zm-3.44-.03-.07-.07-.04.03q0 .07.04.07zm1.19-.04v-.05l-.07.05v.07q.07 0 .07-.07M2.7 8.16l-.02.1v.09q.02-.1 0-.19m5.73.19q-.11-.07 0-.05t.1-.04.1-.05h.04c-.05-.07-.24 0-.3.07q-.05.12.09.12.02 0 0-.05m-4.2-.26-.05-.05h-.11q-.08 0-.05.05t-.07.07q-.14 0 0 .02.1 0 .02.12l.1-.04zm9.44.24q0-.07-.05-.07t-.02.04l.04.05zm-2.47-.05q0-.02-.1 0zm5.55-.02q-.17-.12-.14 0l.12.04q.14 0 0-.04m.57-.05q0-.1-.03 0h-.1q-.04 0 0 .05.1.11.13-.05m1.13.05q0-.05-.04-.05-.05 0-.05.05l.05.04q.04 0 .04-.04m-13.23-.1c0-.17-.14-.28-.14-.14q0 .16.07.16zm3.06-.07-.1-.05q-.06 0 0 .05.06 0 .03.07 0 .05.03 0 .07 0 .04-.07m5.36.07v-.12q-.07-.07-.1 0t.03.05 0 .05 0 .07zm3.4-.21q.18-.24.13-.31l-.02-.17q0-.07-.02-.02c-.07.02-.1.24 0 .24v.07q-.1.14-.12 0 0-.1-.07.07-.03.16-.1.16-.05 0-.02.08l-.03.09q-.02 0 0 0zm-4.92.1q0-.06.03-.03c.07.05.23-.03.19-.1l.04-.04q.08 0 .12-.05.03-.07-.02-.03-.07 0-.07-.04 0-.15-.07.02-.07.12-.2.14-.11.03-.11.07l-.05.12h.05q.07 0 .1-.07m-7.1 0L4.95 8q-.04 0-.04.05l.07.05q.07 0 .04-.05m3.6-.02-.02-.07q-.04 0-.04.07v.07zm.96 0q0-.07.14-.07h.05q-.2-.1.16-.1.29 0 .17-.05l-.2-.11c-.09-.08-.09-.08.22 0l-.14-.12q-.4-.29-.24-.05.12.07.07.28l-.11-.07q-.08-.16-.17-.04-.07.04-.07.1l.1-.06q.06-.04.11 0l-.02.05q-.07 0-.1.05 0 .07.05.02.07 0 .02.03-.02.07-.11 0t-.08 0-.09.07.02.07q.17.14.2 0m-1.22-.17q.05-.28-.16-.1-.12.1 0 .05.12-.04.1.08 0 .16.06.16zm10.18.1q-.2-.1 0-.05l.16-.05.12-.05q.1.05-.05-.07-.07-.07-.04 0l-.08.07q-.14.03-.16-.04-.05-.07-.1-.07c-.07 0 0 .26.07.3q.2.1.08-.04m.47.04-.07-.07q-.07 0-.07.05.02.12.12.02M8.53 7.92q0-.07.15-.04.14.02 0-.05l-.05-.1V7.7q-.07 0-.07-.08l.12.05.16.12-.02-.05q-.1-.04 0-.04l.07.07q.05.07.07.04.05 0 .07.05.03.1.14.1.12.02 0-.1-.14-.05-.04-.16.11-.2.1-.05 0 .07.04.12.19.14.14.02l.05-.1.1-.14-.1.05q-.07.1-.07.05l.04-.1q.05-.02.03-.1c-.05-.11-.2 0-.14.13q.07.16-.1-.07-.05-.07 0-.07c.07.04.2-.1.14-.17h-.12q-.14 0 0-.07t0-.17q-.14-.14-.09 0v.03q-.07 0-.07-.08 0-.11.21-.07.05 0 .03-.02c-.05-.07-.29-.07-.29 0l-.05.05-.1.02q-.13.14-.04-.1.1-.14.03-.16-.05 0 0-.07 0-.05-.05 0-.05.02-.03.12 0 .07-.1-.05-.16-.21-.06 0 .1.17-.05.05-.07-.05-.12-.03l.05.03q.05 0-.05.12-.16.19 0 .11c.14-.04.07.12-.14.24q-.14.12-.05.2.1.06.03.16 0 .07.04.02.05-.05.05.12 0 .47.14.21m.36-.3q-.07-.05.12-.08.14 0 .07.07-.12.12-.2 0m-.23-.09.1-.05h.07l-.07.07zm-.3-.14.06-.1q.2-.12.03.07-.05.05-.1 0m10.82.34q-.08-.15.04-.1t0-.05q-.04-.1-.02-.14v-.07q-.05-.05-.05-.17.05-.23.07-.14l.05.05q.07 0 0-.12-.07-.16.05-.12h.05q-.05-.07-.12-.07t-.05-.05l-.05-.1-.07-.16-.1-.14-.07-.12.08-.02.1.02.09.05q.09 0 .09-.1 0-.09.1-.07h.02q-.07-.07-.02-.23 0-.17-.03-.03c-.07.12-.24.22-.24.12q0-.05-.07.07t-.07.1-.05-.03l-.07-.04v.1q.03.16-.04.09-.05-.05-.17-.03-.07 0-.07-.05 0-.04.05 0 .04.05.02-.04-.02-.07-.12-.05-.07.02-.05-.02.03-.05.1-.07l.1-.08q0-.07-.05-.02l-.05-.02q.05-.12.1-.05 0 .05.04-.05.05-.1.03.05-.03.14.07.14c.11 0 .23-.24.23-.47 0-.1.12-.03.15.1q0 .06-.08.04l.03.05c.1.07.14.16.05.1l-.05.02.07.09q.14.07.02-.3-.04-.24.07-.15h.24q.1-.05-.14-.07t-.21-.14.04-.05l.05-.38q0-.4-.05-.45-.04 0 0 .07 0 .02-.04 0c-.08-.05-.08-.19 0-.14q.04 0-.05-.07-.24-.2-.31-.05 0 .07-.1.05-.14 0 0 .02.08.07.17-.02.07-.07.05-.03t.07.17q.12.07.1.17v.02l.07-.02q.04 0 0 .09-.05.1-.12.07-.05 0-.12.07-.1.12-.05 0l-.02-.1q-.12.03-.05.24v.27q0 .14.07.16c.1.03.07.38-.05.55q-.04.07 0-.03l.05-.45q-.05.03-.1-.02-.06-.12-.06.02t.04.17l-.07.1q-.07.02-.1 0 0-.05.05-.05t0-.1q0-.12-.04 0-.05.07-.05-.02t.07-.07q.14.02 0-.1t0-.07c.17 0 .14-.19-.02-.21q-.17 0-.07.04.09.05-.03.17-.07.1-.02.07.12-.02 0 .1v.14q.07.12 0 .07l-.07.02q0 .05-.07.03l-.12.04q-.07.1.04.08t.08.04q0 .1.04.05.07-.02.03 0 0 .07-.15.02-.11 0-.07.05.05.05-.07.24-.23.3.03.07.11-.1.1-.17l.06-.02q.07 0 .05.05l.02.04q.05 0 0 .08-.04.07-.12 0l-.07.04-.14.12-.12.03h-.1l-.04.1-.02.13q-.1.15.04.2.05 0 .03-.1 0-.17.21-.14.1 0 .02-.03-.07-.05.1-.14.33-.17.47-.07h.08q.11-.14.2 0 .08.05.06.14t.04.14.03.12q-.03.12-.1-.1-.07-.2-.28-.11-.14.07 0 .19.12.07-.1.07h-.1l.08-.1q0-.04-.05-.02-.07 0-.07-.05-.02-.07-.12.05-.07.12-.02.14.12.07-.03.14-.07.05-.07.15l.03.16q0 .05.07.05t0-.02l.07-.22q.14-.21.05 0l.02.15q.07 0 0 .09c-.1.19.1.3.24.12q.12-.1.07 0l.12.24q.19.19.14-.03 0-.19-.1-.14-.09.05-.09-.1 0-.14.05 0 .07.12.04-.14c0-.1.05 0 .08.1q0 .1.07.1t.02.23q-.02.3.05.17.1-.05.05-.2m-.62-.37q0-.07.05-.05l.04.05q0 .07-.04.07-.05 0-.05-.07m0-.17q-.05-.17.1-.02v.07zm.57-.97-.05-.12q0-.12.02 0 0 .02.1 0 .07-.07.05.05l-.05.1zm-.1-.93q-.1-.1-.12-.02t-.02 0c0-.1.24-.24.24-.17q.02.05-.05.1t0 .14l.05.07q-.03-.02-.1-.12m-.35-.11q0-.1.05-.03v.1q-.05 0-.05-.07M5.1 7.73l-.08.07q0 .12.05 0 .05 0 .03-.07m.14.05q-.05-.07-.07-.05v.07q.12.12.07 0m6.38.05q-.15 0-.12-.07l-.03-.07c-.07-.05-.07.1-.02.14l.17.03q.2 0 0-.03m6.63 0q.05.07.05-.02 0-.07-.1-.1-.04 0-.06.1-.03.1.04 0 0-.07.07 0m-7.49-.14v.11zm1.35-.03.29-.3-.24.16-.26.19-.1.05c-.04.1.2 0 .31-.1m.48-.02-.07-.07q0 .12.1.14zm6.02 0-.07-.05v.07l.05.05zM5.17 7.59q0-.07-.07-.12c-.1 0-.15-.28-.08-.28l.03.05q0 .07.07.02.1-.07 0-.12-.17.02-.17-.1 0-.07-.04-.04c-.08.05.1.66.19.66zm6.61 0 .07-.05c.1-.07-.04-.23-.21-.23-.26-.03-.57-.12-.36-.1.24 0 .34-.16.15-.24q-.05 0-.03-.07.05-.1-.33-.07-.3 0-.33.05t.1 0q.11 0 .11.05 0 .04-.12.04t-.04.05 0 .07l-.08.22c0 .19.57.3.9.19.12-.05-.04-.1-.3-.12q-.24 0-.05-.03c.24-.07.62.1.45.2l-.14.09.12-.05zm-.85-.38h.12zm.07-.16h.3zm.17-.12q-.12-.07.02-.05.1 0 .1.05c-.05.07-.03.07-.12 0m7.18.68c0-.11-.12-.18-.12-.07q0 .1.07.12zm-8.58-.07-.1-.14-.16-.19q-.12-.16 0 .05.04.17.14.24.19.19.12.04m7.68-.23q-.03-.2.1-.17.11.02.16-.38 0-.28.07-.33l.05-.1-.17.15c-.12.19-.16.38-.02.3q.05 0 0 .03-.03.07-.1 0l-.1-.02q-.06.28 0 .2.08-.02.06.03-.05.05-.1.03-.05 0-.05.04h-.04l-.1.05q0 .07.03.02.14-.04 0 .12-.08.1 0 0 .23-.1.07.12-.1.12-.07.17c.02.04.23-.17.23-.24m-9.2.12q-.07-.07-.02.05.02.07.05.04zm8.5.05v-.07q-.08 0-.08.07l.02.07zm-8.9-.1-.05-.05q-.07-.07-.05-.11l-.04-.05q-.22-.05-.22.19.05.12.08.02v-.1q-.1-.06 0-.02.07 0 .07.15t.07 0q.04-.05.14-.03m2.42.07-.12-.04q-.05 0 0 .04l.14.05q.03 0 0-.05m2.54-.12v.15q.07-.03.1-.12 0-.22-.24.05-.07.16 0 .02zm-6.17 0q.03.12.1 0 .02-.04.12-.02.1 0 .1-.05 0-.04-.08-.04t-.05-.1q0-.14-.04-.12-.05.05-.05.14.05.12-.1.05-.28-.12-.19.07.05.15-.04 0-.17-.16-.03.07.07.15.12 0 .07-.07.12 0m3.27 0c-.12-.14-.12-.14-.05-.2q.12-.03-.04-.25-.17-.21-.1-.07 0 .12.05.07.05 0 0 .07 0 .08.02.05l.1.03q0 .04-.1.1-.07 0-.07.09l-.07-.05q-.21-.17-.05 0 .08.14.12.14l.17.07q.24.17 0-.07m2.23 0h-.07l-.07.1h.07q.07-.05.07-.1m-4.98-.05q0-.04.07-.12.12-.14.07.1 0 .07.05.07t.02-.02l.03-.12c.04-.1-.08-.24-.15-.2h-.1q0-.06-.06-.06-.07 0 0 .04c.07.08 0 .22-.07.22q-.12.05-.05.16.1.05.14-.07m6.6 0q-.03-.04-.06.03 0 .1.05.07zm1.04-.07q0-.05-.08-.07t-.04.1l.02.11c0 .08.1-.07.1-.14m1.4.12q.11-.05.09 0v.07q.07-.02.12-.12c.07-.14-.24-.19-.4-.04q-.15.2.18.09M10 7.31q0-.07-.07-.1-.12-.02-.05.1.1.07.12 0m5.12 0q-.04-.15-.23-.05-.07.02.02 0l.14.02q.05.12.07 0m.55-.07c0-.1-.14-.12-.14-.02q0 .07-.07.05l-.07-.12q0-.1-.05 0t-.12 0q-.1-.1 0 .12c0 .09.47.09.47 0m.17.04q-.02-.02.05-.1l.04-.04q-.16.05-.16.14l.07.05zm.95 0v-.1l-.07.08.02.07q.05 0 .05-.07M3.17 7.19q0-.07-.07-.07v.07q0 .07.05.07t.02-.07m3 .05h-.1q-.05 0 .02.02.12 0 .07-.02m7.47 0v-.08q-.05 0-.07.05t0 .05q.07 0 .07-.05m.88 0-.05-.05-.05.03.05.05zM4.46 7.14V7.1l-.08.05v.05q.08 0 .08-.05m5.83 0q0-.05-.05-.05t0 .05l.02.05zm-.2-.14q-.04 0-.02-.07 0-.05-.04-.05-.05 0-.05-.05 0-.04-.05-.02-.07 0 0 .12.14.19.22.12zm1.6.05q0-.08-.05-.03-.14.05-.05.07zM9.6 6.88l-.1-.1c0 .08.15.24.17.24zm4.36-.19q-.21-.43-.3-.43l.14.29c.23.47.38.61.16.14m-5.69 0q-.1-.14.12-.17v-.11q0-.1.05-.17c.1-.12.35-.66.3-.71l-.04.02q0 .07-.1.07-.07 0-.04.07c.02.1-.26.64-.33.62q-.08 0-.05.05t-.05.14c-.12.1-.1.1 0 .21.14.12.28.15.14 0m3.23 0c-.07-.02-.36-.07-.36-.02l.17.07q.23 0 .19-.02m-.43 0c0-.07-.28-.05-.33 0l.14.02q.19 0 .19-.05m-8.7-.14q-.05-.02-.05.05l.03.07zm8.46 0-.04-.02q-.08 0-.08.05l.05.04zm.64 0-.21-.02q-.17 0-.07.02.28.1.28 0m7.73-.12q-.04-.07-.1-.04l.06.07q.16.12.04 0m-14.3 0-.02-.07q-.05 0-.05.04v.05q.05 0 .08-.05m4.5-.04q.12-.08.05-.08l-.2.08q-.16.14.13 0m1.5.02q.13-.07 0-.05-.15.03-.18.05-.07.1.17 0m.55-.05q0-.1-.1-.1-.07 0-.05-.06v-.08q-.04 0-.04.08 0 .11.07.11.12 0 0 .05h-.2q-.2 0 0 .05.36.1.32-.05m7.16 0q-.03-.05-.1 0-.05 0 0 .05.14.07.1-.05m.9-.02-.07.05q-.03.11.02.04zM2.72 6.33q0-.11-.07-.04-.02.12.1.14zm16.17.05c-.04-.05-.18-.05-.16 0l.12.03zm-.83-.35c-.04-.05-.16.07-.14.14q0 .07-.02.02-.07-.02-.07.1-.05.16.14-.07.12-.15.1-.2m-8.23.24q.14-.07-.2 0-.16.07-.02.05zm1.04 0-.05-.04q-.07 0-.1.07l.06.04zm.29 0q0-.04-.12-.04l-.1.04q0 .05.1.03.12 0 .12-.05m2.44-.07q.07-.07 0-.07l-.07.07v.1zm-3.51-.14-.03.04v.07q.08-.04.03-.11m7.44-.1.05-.1-.12.1-.05.12zM2.51 5.77q-.05-.03 0 .07 0 .12.05.04zm10.9.04h-.06q.02.15.1.1zm5.6-.14q0-.05-.04.02-.08.27 0 .15.07-.1.04-.17M18 5.72h.05q-.02-.14-.12.02v.12q.07 0 .07-.07M4.48 5.55q-.05-.16-.24-.23-.14.04.05.16.07 0 .1.07l.04.05q.05 0 .05-.07m6.7 0-.2-.05c-.17 0 0 .07.16.07q.2 0 .05-.02m4.86-.14q0-.07.07-.05 0-.07-.1-.05l-.09-.02V5.2q.07 0 .05-.05L16 5.1l.2-.05v-.04h-.13q-.04.07-.14.04c-.1-.02-.1.15 0 .27l-.02.09-.07-.02q0-.12-.03 0 0 .07-.1-.05-.06-.07-.04 0l-.05.05q-.07 0-.12.07t.08 0q.11 0 .14.04h.14q.21-.14.1.03.09-.05.09-.12m2.3.07q-.05-.07-.05 0 0 .12.1.1zM2.44 5.43q0-.04-.02.03v.07q.07-.03.02-.1m6.4.05-.1-.05v.05q0 .05.08.07t0-.07m2.35-.1-.05-.09q-.05 0 0 .03l-.03.07q-.07 0-.07-.05l-.12-.02q-.23 0 0 .07c.24.04.24.04.24 0m-.38-.24q.1-.1.03-.17-.03-.07 0-.1c.23-.13.11-.49-.17-.47-.19 0-.21.12 0 .12q.12 0 .17.07 0 .07-.03.03l-.07.02.1.05q.11 0 0 .1-.05.06-.12.04t-.05.02l-.05.1q-.07 0-.1.14.06.2.3.03m.82-.2q-.05-.09-.14.05-.07.24.05.1zm4.84.22-.17-.1.12.1zM5.73 5q-.07 0-.09-.07 0-.05-.05-.03-.02.12.15.14.11 0 0-.04m5.52-.03q-.07-.07-.12-.04-.05.02 0-.05.12-.12 0-.1-.07 0-.12.12-.14.17.12.14.2 0 .12-.07m5.45 0q.1 0 .1-.1-.03-.06.05 0 .07.08.11 0h.1q.1 0 .1-.04h.11q.07 0 .07-.05 0-.04.17-.14t.12-.12l.1-.1q.18-.09 0-.04-.15.02-.13-.05 0-.14-.02 0-.02.07-.12.1-.1 0 0 .05.17.04.03.04-.08 0-.05.05t-.03.02l-.09.03q-.14.14-.1-.07l-.02-.15q-.07 0-.05.05c0 .14 0 .29-.07.24q-.07 0-.02.05 0 .07-.05.07-.14-.03 0-.17.07-.1-.02-.05-.1.03-.1-.04c.05-.24-.23-.15-.54.19q-.26.3.02.07.14-.12.2-.1l.04-.02q0-.07.07-.07.24.04.19.14-.05.02-.1-.02-.07-.12-.04 0 .02.11-.12.11t-.05.03q.1.07-.05.07-.04 0-.04.05 0 .04.1 0zm-5.19-.19q-.1 0-.1-.1 0-.04-.04-.04h-.07c0-.07.21-.14.3-.14l.08-.02c0-.1-.24-.08-.36.04s-.12.14.02.31q.1.1.2.02.11-.04 0-.07m-6.53-.02q-.09-.14 0 .02l.08.1q.04-.03-.08-.12m13.33-.36q-.05 0 0-.1h-.07l-.17.06q-.23 0-.19.1h.05q.12-.06 0 .13-.05.1 0 .1t.07-.07.07-.07.05-.1V4.4c.1.05.1.29.02.29l-.07-.05q0-.07-.02 0 0 .12.05.12.04 0 .02.07t.1-.17zm.36.36q0-.05-.05-.07t-.03.05l-.02.1q-.02 0 0 0 .07 0 .1-.08m-9.54 0-.04-.02h-.05q0 .07.05.07zM5.7 4.7l-.05-.05q-.07 0-.07.05t.07.07.05-.07m5.5-.07q0-.17.1-.22c.09-.07.09-.28 0-.28v.12l-.03.1-.1-.1c-.07-.14-.63-.17-.63-.05q0 .07.07.12.07 0 .1-.05 0-.07.09-.1.07 0 .02.05-.07.05.12.12.19.1.14 0 0-.1 0 0 .07.07.05.24l.02.19zM5.07 4.6q-.19-.23 0-.11.1.11.12-.08v-.16q-.07 0-.05-.05c.03-.07-.16-.05-.23 0q-.1.07-.05 0 .02-.07-.03 0-.07.1-.14.1t-.02.04.12 0 .07 0 .05.05.02-.05l.05-.02q.12 0 0 .07c-.07.07.02.3.14.3zm5.57.05-.14-.05.03.05.14.05zm-1.58-.12-.03.05.03.07zm3.08-.02q0-.07-.05-.07l-.05.07.03.05zm6.83-.05q0-.07-.03-.05h-.07q-.02-.07-.19-.1-.16 0-.14.06.02.04.07.04t.12.08q.14.14.24-.03m-1.5-.14c0-.12-.23-.19-.38-.14q-.16.04.05.12.17.04.17.09t.07.02q.07-.02.1-.1m-5.82-.04-.1-.1h-.11q-.1-.06-.07.08 0 .14.16.12.22.02.12-.1m-.23-.02q0-.07.07-.03.14.05.02.08zm6.5 0q-.08-.14-.1-.05-.12.14.05.14.14.03.04-.12m-.23-.09q-.1-.14-.03.05 0 .1.05.07zm.47.1v-.08q-.07 0-.07.07l.02.05zm0-.17-.12-.07q-.16-.05-.07.14c.02.1.17.02.17-.07M11.66 4c0-.1-.19-.21-.3-.21-.12 0 0 .21.14.23q.26.15.16-.02m-.97-.07q-.02-.07-.1-.05-.06.03-.11-.04 0-.05.12-.05.23 0-.03-.22-.14-.11-.14-.19v-.04c-.12 0-.1.3 0 .54.1.14.3.22.24.07m7.85-.07q.23-.28.04-.26l-.19-.02q-.14-.07 0 .02.1.07.05.1-.07 0-.07.04 0 .05.1 0 .26-.2.07 0-.12.15-.17.12l-.07.05v-.1q0-.16-.03-.14-.02.03-.07-.04 0-.05-.07.09-.02.12-.1.19-.04.05.03.02h.17q.14.15.3-.07m-7.72-.14q-.08-.1 0 .05v.14q.02.05.04-.02 0-.12-.04-.17m-1.07.1q-.05 0-.05-.08v-.04c-.07 0-.1.12-.05.16h.1q.07-.04 0-.04m1.33-.17-.1.05q-.1.19.03.07zm.23 0 .05-.2.05-.09q0-.04-.07.03c-.07.12-.2.05-.12-.07V3.3q-.07 0-.07.1 0 .09.05.11.04.03.04.05t-.04.02-.05.12q-.03.2.1.15.06 0 .06-.17m.38 0q0-.07-.04-.02-.15.04-.05.07.1.02.1-.07m-1.9-.2q0-.14-.07 0-.08.22 0 .15.07 0 .04-.14m1.19.04q0-.07-.03-.04v.07q.08.12.05-.03m7.61-.04q0-.08.12-.1.14 0 .05.1-.07.07 0 .07l.07-.07q0-.08.07-.05t0-.07v-.12l.07.05c0 .07.24-.24.29-.36v-.28q0-.24.12-.2.09 0 .09-.06h-.12l-.16.02q-.08 0 0 .12 0 .14-.05.12l-.07-.05-.07.14q-.08.19-.1.14t-.05-.04c-.07.07-.07-.05.03-.12l.07-.12q-.03-.1-.17.16l-.04.15q.07-.03.07.07t-.05.07c-.07-.02-.29.28-.24.35l-.02.05q-.07 0-.07.05l.1.05q.06 0 .06-.07m.2-.12q-.17-.15.06-.2l.2-.09q0-.02-.05 0-.17 0 0-.14.23-.07.14.1l-.07.14q0 .07-.12.04-.12-.02-.12.1t-.05.05m-8.72 0q-.1-.05-.03.04l.05.08zm.57 0q0-.15-.05-.07c0 .04 0 .2.05.2zm1.13-.1-.04-.14q0-.1-.12-.05-.17 0 0 .12.12.07.12.2 0 .1.04 0zm-1.32-.1q0-.06.26-.06.23 0 .4-.07t.24.02q.12.1.1 0-.03-.1.09-.1l.1-.02q0-.05.04-.07l.02.07q0 .07.15.07h.11l.03-.12q.07-.04 0-.1-.05 0-.05.06c0 .09-.14.11-.17.02l-.23-.07q-.26 0-.22.07t-.14.05-.21.04v-.07q.02-.16-.05-.1l-.07-.02q0-.04-.07-.02l-.05-.02q0-.05.07-.05.2.07 0-.12-.05-.12-.1-.05l.03.05q.07 0 0 .1-.12.11-.14 0c-.07-.08.1-.22.26-.24q.21 0 .12-.12 0-.05-.14-.02-.08 0-.12-.05 0-.05-.07.07l-.15.21q-.1.1-.04 0 .04-.1.1-.1l.04-.06-.12-.03q-.14 0-.12.15t-.05.04q-.07-.04-.07.03t.1.1q.14 0 .05.04-.1.05 0 .05.09 0 0 .07c-.08.07-.24.05-.2-.03.08-.09-.04-.19-.11-.11q-.12.11 0 .04l.1.03-.1.04q-.12 0 0 .05.12.14.02.33-.1.15.1 0 .11-.1.1-.16-.03-.07.06-.05.1.02.05-.07V2.8q.07 0 .07-.07 0-.14.07 0l.1.17-.05-.05c-.07-.1-.17.05-.12.17q0 .11-.05 0-.14-.05-.07.2.07.1.1-.06m.1-.14q0-.05.11-.05.24 0 .02.07zm1.39.18-.1-.09q-.14-.1-.02.02t.12.07m6.52-.4q.07-.12.05-.19-.03-.02-.12.12-.12.33.07.07m.97-.05v-.04l-.07.04v.05q.07 0 .07-.05m-8.41-.23q-.08-.14-.15 0l.05.02q.07 0 .05.1-.05.11 0 0 .07-.05.05-.12m.42.12c0-.1.17-.08.24 0 .02.07.24 0 .24-.08q0-.04-.12-.02-.12 0-.12-.05 0-.04.05-.04.19.02.14-.2c-.1-.18-.3-.23-.3-.09q0 .07-.06.07l-.04-.1q0-.11.04-.09.36.03.05-.23-.17-.15-.14 0t.05.1h.07v.06q-.17 0-.17.07v.03q-.1-.12-.1.1 0 .11.08.11.1 0 .07.1 0 .23-.07.11-.12-.02-.05.2.05.04.14-.05m.05-.24.02-.1q.05 0 .05.05 0 .14-.07.05m.17-.14q-.05-.24.1-.03.13.17 0 .17zm7.09.4-.1-.05q-.05 0 0 .05.14.07.1 0m.85-.1.05-.07.1-.16q.1-.14 0-.05-.13.1-.2-.05c-.1-.14-.24-.14-.24 0v.07c.05-.04.24-.1.22-.02v.07c.12.03.02.14-.1.14l-.1.05q0 .07.27 0m-9.27-.38q-.05.14.24.07.07-.02.04-.04-.04 0-.04-.05.04-.07.16-.05.24.02.12-.19 0-.14-.1 0-.07.14 0-.02 0-.17-.07-.07l-.1.02h-.06l.05.12q.02.05-.08.14-.23.17-.04-.05.07-.04.04-.12l-.1.08q-.01.11-.1 0-.1-.03-.06 0 0 .07-.04.11-.08.03-.08.12-.02.07.1-.02zm.88-.12q0-.3.14-.14.1.17.07-.05 0-.26.16-.16c.05.1.17.07.12 0 0-.07-.19-.12-.23-.07-.05.02-.2-.12-.17-.17.07-.12-.3-.19-.43-.07-.12.12.07.14.17.07q.1-.07.07 0 0 .05-.05.05-.04 0-.02.07l-.05.05q-.07 0-.07-.07t-.1 0l-.09-.08q-.02-.11-.12 0-.14.08-.07-.07l.14-.07q.12 0 .2-.07.04-.05.14-.02.11.02 0-.05c-.1-.1-.31-.12-.31-.02h.07q.07 0 .05.02-.05.05-.15.02l-.14.03-.1.16q-.16.12 0 .12l.1.1q0 .04-.1 0-.09 0-.14.04 0 .05.05 0 .07 0 .1.05 0 .07-.2.05-.02 0 0 .05c.08.07.24.04.24-.03q0-.07.08-.05t.09-.04.1-.07 0 .04q0 .07.07 0t.1 0c0 .07.16.05.23-.04q.02-.07.14 0 .12 0-.07.14c-.14.12-.14.14-.1.3q.12.36.08 0M11 1.84v-.05q-.07 0-.07.07v.05zm-7.18 5.8-.1-.11V7.4q-.05-.1.02-.05.1.03.08.05l.04.2q.14.23-.04.04m.28-.17q-.07-.04 0-.04l.07.04q.07.12-.07 0m-.47-.23q-.12-.17.07-.2.14 0 .12.08h-.1l-.05.07q-.02.07-.04.05m.5-.17q.06-.19.14-.07.02.07-.05.12-.14.19-.1-.05m-.04-.24q-.12-.07-.08-.12l.05.03q0 .07.07-.03l.05-.19q-.02-.1 0 0 .07.08 0 .15v.14q.07.16-.1 0M2.9 6.74l.12-.07q.07-.05.1 0l-.1.07zm-.1-.05c0-.07.17-.28.22-.24q.12.05-.1.2zm.36-.05q0-.07.05-.04.05.02.07.07.02.04-.07.04zm1.3-.02-.09-.07q-.12-.03-.12-.1t.07 0q.05.12.05 0t-.1-.1-.2-.04q-.08-.05-.03-.07l.12.07-.05-.07-.07-.14q.07 0 .12.07l.12.07c.04 0 .4.36.4.4h-.1ZM3.3 6.48q-.02-.12.2-.17.09 0 .09.05H3.5q-.05 0-.12.07t-.1.05m.43-.07.07-.05q.03 0 0 .05l-.05.04zm-.52-.08.1-.09q.14-.12.02 0-.12.17-.12.1m.52-.29h.1q.04.05-.08.05-.07 0-.02-.05m-.19-.12q-.12-.28.02-.19.1.1.08-.05 0-.09-.15-.09-.1 0 0 0l.1-.17q.1-.23.14.05 0 .07-.05.07h-.04q.04.2.23.24.03 0 0-.05-.07 0-.04-.07.02-.07-.03-.02h-.07q0-.07.14-.1c.14 0 .26.17.24.29v.14q.07.05-.1 0-.11 0-.07-.02.05 0 .03-.08-.1-.11-.12 0c0 .15-.24.17-.3.05m.51-.14q0-.07-.07-.07v.07l.05.05zm-1.25.05q0-.05.04-.05.05 0 .05.05 0 .04-.05.04zm1.7-.03v-.1q.12 0 .07.13-.04.12-.07 0m-1.56-.07q0-.08-.12-.05t-.14-.05.07-.05l.07-.04q0-.08 0 0 .02.07.07.04c.07-.04.14.12.1.17zm-.29-.29q-.04-.12.12-.14.17-.02 0 .02-.07.03-.05.1.03.16-.07.02m.36 0 .05-.05q.04 0 .02.05t-.05.07zm.78 0c.03-.1.24-.12.24-.05q0 .07-.05.03l-.14.04q-.1.05-.05 0m.03-.28V5.1l-.05-.12q-.05-.07.02-.04.07.02.1.16 0 .24-.07.12m-1-.92q.05-.12-.07-.08t0-.07q.19-.19.12-.04 0 .07.04.07.05 0 .12.07v.05q-.16-.03-.21.07zm.88.02q0-.07.04-.05v.07q-.04.12-.04-.02m-.38-.17q-.12-.14 0-.02l.1.1q0 .04-.1-.08M3 4.11l.07-.05q.07 0 .05.02-.07.07-.12.03m.9-.1q.05-.07.1-.05.07.07-.1.12-.12 0 0-.07m-.95 0c0-.05.36-.19.38-.16l-.19.09zm.71-.05.1-.04h.05q-.12.11-.15.04m.22-.16q.04-.03.1 0z" style="fill:#000;stroke-width:.147711"/></svg>