<svg width="38" height="38" xmlns="http://www.w3.org/2000/svg"><path fill="#d7d7d7" d="M21 36zm0 0zm-1-1zm1 0v-1h1v1h-1zm2 0zM0 34v-1h1l1 1H1l-1 1Zm37 1-2-1h-2l-1-1a137 137 0 0 1-2 0h-1v-1h-2v-1l1-1v-3 1-2l1-2v-1h2l1 1 1-1-1-2v-2l1-1h1l-1-1-1-1v-2a61 61 0 0 1 0-3 26 26 0 0 0 0-5V0v2h1v1h1v1l1 1v1h1l1 1h1v28zm-9-7zm-9 6c0 1 0 1 0 0zm3 0h1zm-1 0zm-2 0zm1 0v-1zm2 0v-1 1zm1 0zm0-1zm-1 0zm2 0s0-1 0 0zM0 32v-1l1 1 1-1v1h1-3zm7 0zm0 0v-1l-1-1h3v-1l-1-1v-1l1-1H8v-1H7v-2H6l1-1h2l1 1h1v3a19 19 0 0 0 0 5h-1l-1 1H7zm1-1zm-6 1v-1zm24-1zm-2-1v1zm3 0zm0-1v1zm1 0zm-6-1zm-1 0v-1 1h1zm-2-1zm9 0v-2a4 4 0 0 1 0 2zm-1-1s0 1 0 0zm1 0zm-1 0v-1zm1-1zm-12-1Zm12-1v1zm-10 0h1zm-8 0v-1H9h2-1v1h1zm7 0zM0 17v-4l1-1a14 14 0 0 0 1-2V7H1V6H0V5h1V4L0 3l1-1 1-1h2v1h4l1 1v3h1v3h1l-1 2v2a11 11 0 0 0 0 2H9v1-1 1H7v-1h1v-5L7 9V8L6 9v2a12 12 0 0 0-1 1l-1 1v1l-1 1v1l-1 1-1 2v1l-1 1ZM0 2v1zm29 18zm-1 0zm1 0h1zm0 0zM7 16h1-1zm4-1zm18 0v-1l-1 1v-2h1v2zm-1 0v-1 1zm-17 0h1v-1 1h-1zm0 0zm17 0-1-1h-1v-1h-1l-3-1a14 14 0 0 0-9 0h1-1 1-1 2v-1h-1 4l4 1h2l2 1v1l1-1v1h1v1zm-1-1zm-1-1h-1 1zm-2-1Zm-10 0zm1-1c1 0 1 0 0 0zm2 0h-1 1zm9 4-3-1a61 61 0 0 1-3 0h-1l1-1a11 11 0 0 1 1 1l-1-1a11246 11246 0 0 0 5 1h1v1zm-1-1h-1zm-1 0zm-1 0zm-1 0h-1 1zm1 0zm0 0zm-3 0h-1zm-7 0h-1 2-1 1l1-1h2a23 23 0 0 0 2 0v1h-1l-1-1v1h-1v-1l-2 1c1 0 0 0 0 0h-1zm5-1h-1zm-4 1zm1 0zm0 0h2-1Zm-3 0v-1zm16-1v1zm-16 0h1v-1 1-1 1h-1zm15-2zm1 0zm0-1zm0-2zm-2 0zm0 0zm0 0V7v1zm-1-1h1zM1 7H0h1zm37 0zM12 7V5l-1-1V0h4v3l1 2v1h-3v1zm7-1h-1l-1-1s-1 0 0 0V2l-1-2h3v1a89 89 0 0 1 0 5z"/><path fill="#d2a3a6" d="M26 38zm-8-2h-1v-1c0-1 0-1 0 0h-1v-2h5v2h-2v1-1h-1v1-1 1zm-1-1zm1 0zm1-1c0 1 0 1 0 0zm0 0zm1 0v-1 1zm-2 0c0-1 0-1 0 0zm-2-1v1zm3 2zm-2 0zm4-2h1zm-8 0s0-1 0 0zm2-1zm1 0zm-1 0s0-1 0 0v-2h4v-1 1h2v1h1v1h-1v-1h-1v1l-1-1h-1v1l-1-1h-1v1-1l-1 1zm-2 0zm-1 0v-1 1zm1-1h-2v-8h1v1h2-1v1h2v3h-1v1h-1v1-1 2c0 1 0 1 0 0zm-1-2zm1 0zm0 0zm1-1h-1zm1 0h-1zm0 0zm-1-1v1zm1 0zm0-2v1zm-2 0h-1zm0 0zm-1-1zm1 7zm0 0zm0-1zm0-1c0 1 0 1 0 0zm2 0zm2-1h-1v-1h1v1-2l1 1v-1h1v-1h1-1v-1h-1v1h-1l-1-1v2l-1-2a68 68 0 0 0 0-1v-1h1l1-1 2 1v1h1v1h1l-1-1h6-1s0 1 0 0v5h-4 1-2v-1h-1v-1 2h-1v1-1 1zm1 0zm0 0-1-1v1zm0-1v1zm1 1v-1s0 1 0 0v1zm0-1zm0 0zm0-1zm2-2zm1 0h-1zm0 0zm-6 0zm3-1h-1zm-2 0zm-1 5v1zm3 0h1-1zm5 0zm-9 0zm0 0zm0 0zm6 0Zm-6 0zm1 0v-1zm0-1v1zm0 0v1zm0 0h-1 1zm0-1zm9-1v-1zm-11-1 1-1v1zm1 0v-1 1zm-3-1zm-1 0h-1v-1h1v-3l1 1v1h-1v2zm0 0zm2 0h1zm-1 0v-2h2-1v1h1-1v1a88 88 0 0 0-1 0zm0-1v-1zm-2 1v-1 1zm4-1c0 1 0 1 0 0zm1 1c0-1 0-1 0 0zm8-1Zm-9 0zm1 0zm-6 0h1zm5 0zm2 0zm-2 0zm7 0h1zm-7 0 1-1zm-2-2h1zm4 0Zm-4 0Zm0-1zm4 0h1zm0 0zm-4-5h1-1zm12 0h1zm-12 0zm1 0h1s1 0 0 0l2-1v1h1v-1l1 1h1v-1l1 1v-1 1h-2a16 16 0 0 0-3 0h-1zm10 0zm-1 0zm-1 0zm2 0zm-10 0h1-1zm7 0zm0 0zm1 0zm-1-1v1zm6 0h1l-1 1v-1zm-8 0zm-1 0zm9 0zm-13 0Zm0-1h1-1 1-1zm1 0zm0 0v-1h1v1-1zm1-1h1-1zm1 0h1z"/><path fill="#b1adae" d="M24 38zm0 0h1v-3c-1 0-1 0 0 0l-1-1v1h-1v1h-1s0 1 0 0v1h-1 1-2v-1 1h-1s0-1 0 0l-1-1h-1 1-1v1-1h-1v-1 1h-1v-2l1-1v2h1c0-1 0-1 0 0v1h1v-1 1-1h1v1-1h2v-2s0-1 0 0v-1h1s0 1 0 0h1v-2c0 1 0 0 0 0v-1 1h1-1v-1h-1v-1h3v-5c0 1 0 0 0 0h1-2 1-1l1-1h1v-1h1v-1 1h1v1-1 1-1h1v-1h-1l2-1h2v2l1 2-1 1-1-1h-2v1l-1 2v2-1 3l-1 1v1h-1v1l1 3-1 1v1-1 1zm-5-1zm0 0v-1 1zm2 0zm1 0v-1zm-5-1zm1 0zm3 0zm-2 0zm3 0zm-5 0zm4 0zm1 0zm-1 0zm1-1v1zm1 0v1zm-4 0zm2 0h1v-1h-1v1zm2 0zm-6 0zm8-1h-1c0-1 0-1 0 0h1v1zm-2 0h-1 1zm-7 0zm0 0zm6 0v-1 1zm1 0zm1 0zm-1-1zm0 0zm-1 0h-1zm0 0zm2 0c0-1 0 0 0 0zm-3-1v1zm2 0v-1 1h1zm3-1zm-2-1v1zm3 0zm0-1v1zm1 0zm-5 0zm1-1zm4-1v-2 2zm-1-1zm1 0zm-1 0v-1zm1-1zm-3-1v1zm3 0c0-1 0-1 0 0v-1 1zm1-2v-1 2zm-1 0zm2-2h-1zm0 0h-1zm-1 0zm-8 17v1zm0 1v-1 1zm4-1zM0 36v-1l1-1h1l-1-1H0v-1h3-1v-1l-1 1-1-1V21l1-1v-1l1-2 1-1v-1l1-1v-1l1-1 1-1V9l1-1v1l1 1v5H7v1h2v-1 1-1h1l-1 1-2 1H6v1l-1 1-1 1 2 1h3v1H7l-1 1h1v2h1v1h1l-1 1v1l1 1v1H6l1 1v1h2l1-1h2l-3 1H7l-1 1-1 1H3a338 338 0 0 1-1 1v1H1v1H0Zm7-4zm-5-1v1zm6-15H7zm9 21h-1v-1h1v1zm0-1h-1l1 1zm1 0v1zm-3 0h1zm0-1zm0 0zm2 0zm1 0zm-3 0zm0-1zm21 0zm-22 0h1-1zm1 0zm-1 0h1zm0-1v1zm4 1v-1zm15 0v-1 1zm0-1zm-1 0zm0 0zm-18 0h1zm16 0h1zm-16 0c0-1 0-1 0 0zm0 0zm15-1zm-1 0c-1 0-1 0 0 0a14 14 0 0 0 1 0zm-16 0h1zm10 0zm-9 0v-1 1zm0 0zm4 0zm-2 0 1-1v1h-1zm4 0c0-1 0-1 0 0v-1h1-1v1zm-7 0v-1zm5 0c0-1 0-1 0 0zm1 0v-1 1zm3 0v-1 1zm-5 0h1c0-1 0 0 0 0zm1 0v-1zm3-1h1l-1 1zm2 1v-1zm-4-1c0 1 0 1 0 0zm-6 0zm-4 0zm5 0zm0 0v-1l1 1h-1zm8 0h1zm1-1h-1l1 1zm-9 0h1zm0 0zm0 0c0-1 0 0 0 0zm0-1zm1 0h-1 1zm0 0zm-3 0v-1 1zm10 0zm-7-1c1 0 0 1 0 0zm0 0zm1 0zm6 0h1-1zm0 0zm-6 0zm5 0h-1 1zm-5 0v-1 1c0-1 0-1 0 0h1s-1 0 0 0h-1zm13 0zm-17 0zm4 0zm4 0zm0 0v-1Zm-3-1s0 1 0 0v1zm3 0h1zm-8 0v-2 2zm5 0v-1 1zm3 0v-1zm0-1zm-8-3s-1 0 0 0zm-1 0-1-1 1 1zm0 0c-1-1-1-1 0 0zm1 0zm0 0c1 0 1 0 0 0zm1 0zm1 0v-1 1zm8-1h1zm-10 0zm13 0zm-14 0zm16 0zm-7 0zm-8 0zm0 0zm1-1v1zm7 0zm7 0zm-15 0v-1 1zm2 0zm13 0v-1h1l-1 1zm-14-1 1 1zm1 0zm15 0zM8 20zm4-1v1zm16 0zm-1 0h1v-1 1zm6 0v-1zm-6-1s0 1 0 0zm6 0h1v-1h-1 1v1zm-1-2-3-1h-1v-1 1-3l-1-3-1-1-3-2h-4a39 39 0 0 0-1 0V5v1a13 13 0 0 0 1 0V4a86 86 0 0 0 0-4h19v7h-1l-1-1h-1V5l-1-1V3h-1V2h-1V0a9 9 0 0 0 0 3v4a26 26 0 0 1 0 5 61 61 0 0 0 0 4l1 1zm-3-1v-2h-1v2l1-1v1zm-1-2v1zm0-2zm0-1zm0-2zm-2 0zm0 0zm0 0V7v1zm0-1h-1zm-15 8Zm-1 0v-1 1zm1 0h1-1zm1 0zm-1 0 1-1zm16-1 1 1zm-16 0h1v-1l1-1v1h-1v1h-1v1zm14 0v1zm3 0h-1 1c0 1 0 1 0 0zm-15 0zm11 0zm-10 0zm9 0zm-13-1v-2a35 35 0 0 0 1-2h-1V6H9V3L8 2H4V1H2L1 2H0l1-2h10v4l1 1v1l1 1-3 4v3zm12 1zm2 0zm-10 0h1-1zm7 0zm-6 0zm5 0s-1 0 0 0zm1 0h1zm-6 0zm4 0h1a15 15 0 0 0-1 0zm-6 0zm5 0zm7 0h-1zm1 0h1zm-10 0h1zm2 0zm6 0zm-10 0zm0-1v1zm8 0h1l-1 1zm-3 0h1zm2 0h1zm6 0h-1 1zm-8 0zm1 0h1zm-2 0h1zm8 0h-1 1zm-11 0zm9 0h1zM0 8l1-5v2H0v1h1v1h1v3a5 5 0 0 1-1 1 14 14 0 0 1-1 2Zm1-1H0h1zm12 5h1zm11 0zm-2 0zm2 0zm-10 0zm6 0h1zm-3-1zm1 0zm-2 0zm2 0h1zm9 0v-1ZM15 6h-1zm0 0h1V5l-1-2a19 19 0 0 0 0-1V0h1v2l1 1v2c-1 0 0 0 0 0 1 0 1 0 0 0l-1 1h-1ZM0 2v1z"/><path fill="#4ec4b5" d="m1 38-1-1h1v-1h1v-1h1v-1 2H2h1-1v1h1l1-1v-1h1v-1a29 29 0 0 0 1 0l-1 2H4v1l-1 1H1Zm1 0-1-1v1zm0-1zm0 0Zm1-2zm25 3 1-2v-1l-1-1v3l-1-1v1-1h1-1l1-1h-1v1-2a11 11 0 0 1 0-2v1h-1l1-1h2l1 1h2l1 1h3l1 1h1v3h-8v-2h-1v2zm1-1c0 1 0 1 0 0zm0 0v-1 1zm1 0zm-2-1h-1zm1 0zm-1 0zm2 0h-1zm-3 2zm1 0v-1zm0 0v-1zm-1-1zm1 0zm0 0zm0 0v-1 1zm0-1zm0 0c1 0 0 0 0 0zM6 35zm-2-1h1zm23-1v1zM6 33zm1 0zm21-12v-1 1zm0-1zm0 0 1-1v1zm0-1v1zm1 0zm1 0zm-1 0zm1 0h1-1 2-1zm0 0s-1 0 0 0zm2 0v-1h1-1v-1l-1-1 1 1h1-1 2v1h-1v1zm1-1zm0 0h-1zm0-1zm-2 1h1zm1 0zm0 0zm0-1s-1 0 0 0zm0 0zm-2-1zm2 0h-1 1zm-4-1zm0 0zm-2 0h1zm2 0zm0-2v1zm0 1zm-1 0zm1-1zm0-1v1zm0 0zm0 0zm-1-1zm0 0v-1z"/><path fill="#976369" d="m14 38-1-2v-2l-1-2v-1h1v1-1 1-2c0 1 0 1 0 0v-1h1v-1h1c0 1 0 0 0 0h1c-1 0-1 0 0 0v-2 1h-1 1v1h-1c0-1 0-1 0 0v-3h-2v-1h1-2v-1h-1 1l-1-1s1 0 0 0v-1h1v2h2-1 1v-1h-1v-1h3l-1 2h-1 1v1l1 2v-2l1 1h1l1-1v1h1-1v1h-1v1l-1-1v2-1h-1v1h1l1 1v-1 1-1h1v-1 1l1-1v1h-1 1s0 1 0 0h1v1-1h1v1h1v1h1-1v-1 1s0 1 0 0v2h-1c0 1 0 0 0 0h-1l-2 1h-3l-1 1v2h1v-1 1h1v1-1h1-1 1l1 1c0-1 0 0 0 0h1v-1 1h2-1 1c1 0 1 0 0 0h1v-1 1h-1 1-1v-1h1v-1h1v-2 1l1 1c-1 0-1 0 0 0v3h-6Zm7 0zm0-1v1zm0 1v-1 1zm4-1zm-8 0v-1h-1v1zm0-1v1zm1 0v1zm-2 0h-1zm7 0zm-8-1zm0 0zm0 0zm0-1zm0 0h-1zm0 0zm0 0zm-1-1v1zm1 1h-1zm0 0zm0-1zm0 0h-1zm-1 0c0-1 0-1 0 0zm-1 0c0-1 0 0 0 0zm1 0zm0-1zm-1 0zm-1 0c1 0 1 0 0 0zm6 0zm-4 0zm1 0zm1 0zm6 0zm-5 0zm-3 0h-1zm1 0h2v-1l1 1v-1h1v1c0-1 0-1 0 0v-1l1 1 1-1v1h1v-1h-1 1v-1h-3v-1 1h-4v2c0-1 0 0 0 0zm2 0c0-1 0-1 0 0zm-3-1v1zm0 1zm0-1zm0 0v-1 1-1h-1v1h1zm0 0zm1-1 1-1h1-2v1h-1v1zm8 0s-1 0 0 0zm-1 0-1-1h-2 1l1 1h1zm1 0zm-6-1zm1 0zm1 0h-1zm0 0zm-4 0zm1-1c-1 0-1 0 0 0v1zm-1 1v-1zm1-4zm3 0v-1l-1 1h1zm-4-1v-1l-1 1zm0 0v-1 1zm-3-1zm1 0h-1zm-1 0zm3-1zm-1 0zm1 0zm-1 0zm1-1-1 1zm11 17v-1zm-7-1zm0 0v-1 1zm2 0zm0 0 1-1v1zm-4-1zm1 0zm3 0zm-2 0zm8 0zm-5 0zm-5 0zm5 0zm5 0zm-5 0v-1 1zm1-1v1zm2-1h-1c0-1 0-1 0 0h1v1zm-9 0zm0 0zm0-1v1zm5-1v1zM8 32zm0 0zm1 0zm0 0h1zm1 0h1zm2 0h-1l1-1zm11 0v-1 1h1zm-11-3zm1 0zm10 0zm-9-1v1zm1 0zm-2 0h1zm8 0zm-3 0zm-1 0v-1l1 1zm-3 0v-1zm4 0v-1 1zm1 0zm-4-1zm5 0c-1 0-1 0 0 0zm-4 0zm3 0zm-4 0zm4 0zm0-1zm-4-1v1zm-3 0h1zm1 0zm7-1v-1h-1v-1l-2-1-1 1v-3 1h-1v-1l-1 1h1-1v1h-1v-1 1h-1l1-1h-1c0 1 0 1 0 0v-1l-1 1v-1 1-1l3-1 1 1h3-1l1 1 1 1v-1 2h1v1h2l3-1-1 1h1-5l1 1zm-4-2zm-2-2h-1v1h1zm3 0h-1zm-5 0zm5-1zm-2 0c-1 0 0 0 0 0zm0 0zm-3 0zm5 0h-1zm-5 0zm2-1h-1l-1 1h1zm-2 6zm16 0a150 150 0 0 1 0-1v1-1zm-7 0zm0 0h1zm1 0zm-12-1zm0 0-1-1-1-1H6l-2-1v-1h1v-1l2-1-1 1H5v1H4v1l1 1h4v1-1h2-1 1v1s-1 0 0 0H9l1 1zm0-2H9h1zm-5-2H4zm23 4zm-13 0v-1h1-1v1zm-4 0Zm9-1h-1v-1c0 1 0 1 0 0v-1 1h2v-1h4v1c-1 0-1 0 0 0l1-1h-1v-1 1h-1l-1-1h2l1-1h1v1-1h-1v1h-1 1l1 1h-1 1l-1 1v1l-5 1zm2 0h-1zm1 0h-1zm1 0zm-3-1zm5 0zm3 1v-1 2zm-1 0zm0 0v-1h-1 1zm0 0v-2 1l1-1v1h-1v1zM7 21h1zm2-1v1zm0 0v1zm6 0v1zm12 0v1zm-8 0h-1l1-1zM8 20v-1 1-1 1zm19 0zM9 19h1-1zm12 0h1zm1 0h1zM5 19zm5 0zm6 0v-1h-2 1v-1 1l-1-1h1l1 1h1v-1s1 0 0 0l1 1h-1v1l1-1v1h-2zm-6 0zm9 0v-1 1zM5 19h1zm6 0zm7 0v-1zm0 0 1-1c-1 0-1 0 0 0zm9-1c0 1 0 1 0 0zm-8 0zm-8 0v-1l1 1h-1zm-5 0zm12 0v-1h1v1zm1 0v-1zm7 0zm0-1h-2 2v1zM7 17zm0 0h1v-1 1H7zm2-1h1v-2l1 1v-1h1l-1 1h-1v1a7 7 0 0 1-1 0c-1 0-1 0 0 0zm2-1v-1 1zm0 0zm1 0zm-2 0zm2 0zm1 0zm-3-2zm12 1zm-12 0 1-2v2zm11 0zm-9 0zm6 0zm-6 0v-1zm1 0h1zm-1-1v-1zm7 0zm-6 0zm3 0h1zm-4 0v-1zm1-1zm-3 0 1-3 1-2h1V6h3l1-1 1 1h1-5v1h-1l-1 1v1a617 617 0 0 1-1 0l1-1h-1v3h-1v1Zm4-6zm-3 6v-1zm5-1h1l-1 1zm1 0h1zm1 0s-1 0 0 0zm8-2c0-1 0-1 0 0zm-1-1h1zm-1-1h1zm0 0-1-1c-1 0-1 0 0 0zm-2-1h-1a9 9 0 0 0-2 0h3zM0 1V0h1L0 1Z"/><path fill="#3d9e5e" d="M0 38v-1l1 1H0zm2 0H1v-1l1 1zm1 0 1-1v-1h1a4 4 0 0 1 1-2 29 29 0 0 1-1 0v1H4v1l-1 1H2v-1h1-1 1v-1l1-1h1l1-1 1-1h1a21 21 0 0 1 3 0h-1 2v2c0 1 0 0 0 0v-1h1v1a70 70 0 0 1 0 3c0 1 1 1-5 1zm3-3zm20 3 1-1v-2 1-1h1l-1 1h1-1v1-1l1 1v-3l1 1v1a5 5 0 0 1-1 2h-2zm1 0zm1 0v-1zm0 0v-1zm-1-1zm1 0zm0 0zm0 0v-1 1zm0-1zm0 0s1 0 0 0zm-1-1v1zm2 3zm0 0v-2h1v2zM2 37zm27 0c0 1 0 1 0 0zM2 37zm27 0v-1 1zm1 0zm-3-1h1zm2 0zm-1 0zm1 0h1zM3 35Z"/><path fill="#32499b" d="M27 34v-2 2zm1-13-1-1h1v1-1 1zm0 0v-1c1 0 1 0 0 0zm-9-1v1zm9 0v-3h-2v-1h-3a107 107 0 0 0-12 0h1-1v-1h1-1 3v-1h1a11 11 0 0 1 4 0h2a16 16 0 0 1 2 0l3 1h1l-1-1h-3a50 50 0 0 1-4-1h-5l1-1h4-2c-1 0-1 0 0 0a14 14 0 0 1 3 0h3a50 50 0 0 1 1 1h1l1 1 2 1v-2l-1 1a12 12 0 0 0-2-2h-1a9 9 0 0 1-2-1h-6v-1h-1v1-1h-1V9h1l1-1h2V7h2V6h2l2 1 3 2 1 2v4h2l1 1h1l1 1h-1l-1-1 1 1v1h1-1v1h-2 1-2v1-1l-1 1zm1-1zm1 0c-1 0 0 0 0 0zm2-1h-1zm0 0zm0 0zm0-1c-1 0 0 0 0 0zm0 0zm-4 0Zm-15-1h-1l1 1zm0 0s1 0 0 0zm1 0zm13 0h-1zm3 0zm-17 0h-1zm0 0zm3 0h-1Zm-5 0s0-1 0 0zm2 0zm-1 0zm1 0-1-1v1zm0-1h-1zm0 0Zm15-1Zm-13-1zm0 0zm13-1zm-8 0zm-3 0zm10-1v-1 1zm-6-1h-1v1zm-7 0zm10-2zm3 12v-1 1zm0-1h1v1-1h-1zm1 0v1zm0 0zm-2 0h1zm1-1v1zm0 0h1zm-1 0v-1 1-1l1 1h-1zm7 0zm-1 0h1zm-7 0zm2 0v-1ZM7 17zm26 0zM8 17zm-1 0h1zm3 0H9h1a16 16 0 0 0 1 0zm1 0zm1 0c-1 0-1 0 0 0zm-4-1h2-1 2-1zm2 0h1-1zm1-1zm2-2v1zm1 0zm-2-1h1-1zm-1-1zm2-1zm0 0h1zm2-3V6v1zm1-1zm1 0h2-2z"/><path fill="#3e3c55" d="M13 37v-1a14 14 0 0 0 1 2zm13 1zm-5 0zm1-1c1 0 1 0 0 0h1-1zm4 0zm-3 0v-1 1zm3 0h1zm-4 0h1zm5-1zm-4 0zm0 0zm4 0v-1zm-4 0c0-1 0-1 0 0zm-12-2h1v-2l1 1h-1v1s0 1 0 0zm4 0zm0 0zm0-1zm-5-1h2-2zm8 0zm-4 0zm-1 0h1zm1 0v-1 1zm0 0zm0-1zm0 0v-1 1zm0 0zm0 0v-1h1v-1h2-1l-1 1zm9-1c-1 0 0 0 0 0zm-1 0h-1l-1-1h-1 2l1 1zm1 0zm-6-1zm1 0zm0 0h1zm1 0zm-3-4zm3 0h-1l1-1v1zm-9-2h1zm2 0h1zm-2 0zm4 0 1-1 1-1h-2v-1h1-1l1-1v1h1v-1 1l-1 3h-1zm1-3v1zm5 3-1-2v-1 1l-1-1-1-1h1-2l-3-1a18 18 0 0 0-2 1v2H9v1-1H5l-1-1v-1h1v-1h1l1-1h1l2-1h1-2 1v-1h2-1v1h1-1 1v1h2l1-1a107 107 0 0 1 8 0h3v1h2v1h-1v1-1 1l-1 3h-1zm4-1h2l1-2v-1h-2 2l-1-1-1-1v1h1l-1 1a68 68 0 0 0-1 0h-1l1 1h1v-1 1h1l-1 1c-1 0-1 0 0 0v-1h-4v1h-1l-1-1v2h1l1 1h1zm-3-1zm5-2zm0-1h1v1zM6 21H5zm2 0H7zm1-1v1zm0 1v-1zm10-1v1-1zm0 0v-1l-1 1h1zM8 20v-1 1c0-1 0-1 0 0zm2-1H9zm12 0h-1zm1 0h-1ZM5 19zm5 0zm7 0h1v-1 1h-1v-1h1l-1-1c1 0 0 0 0 0v1h-1l-1-1h-1l1 1v-1 1h-1 1l1 1zm-6 0h-1zm8 0v-1 1zM6 19H5zm12 0zm1-1c-1 0-1 0 0 0l-1 1zm0 0zm-7 0-1-1v1zm-6 0zm12 0h1v-1h-1zm1 0v-1zm6 0zm2 0v-1ZM7 17zm1 0H7h1zm3 0h-1a16 16 0 0 1-1 0h1zm0 0zm1 0c-1 0-1 0 0 0zm-1-1h-1zm-2 5h1zm-2 0zm21 0v-1h1-1v1zm-15 0v-1h1zm14-1v-1h1c0 1 0 1 0 0v1h-1zm1-1v1zm-11 0zm-2 0zm0 0zm13 0zM4 19h1zm23 0Zm-15 0zm0 0 1-1h1a6 6 0 0 1-2 1zm16-2Zm-16-1h1v1zm-4 0h1-1zm5 0c1 0 0 0 0 0zm1 0zm12 0h1zm-14 0h1zm1 0zm2 0h1-1zm-4 0c0-1 0 0 0 0zm2 0zm-1 0zm0 0v-1l1 1zm0-1h1zm1 0zm-3 0v-4h1V8h1l-1 1v2-1l1-2 1-1h1V6h7-1v1h-2v1h-2l-1 1h-1v1h1v1-1h1v1a26 26 0 0 1 3 0h-5l-1 1h-1 1-1v1l-1 1v1l-1-1zm1-1v-2l-1 2h1zm1-2v1zm-1-1v1-1zm2-1zm1 0h-1zm1-3V6v1zm1-1Zm-4 9zm0 0h1zm1 0a22 22 0 0 1 4-1 19 19 0 0 0-4 1zm13-1zm-15 0 2-1 2-1 3-1 1 1h4-7 3-4l-1 1h-1 4-2a27 27 0 0 1-2 1h-1zm2-1v1zm1 0zm6 1h-1a10 10 0 0 1 2 0zm-2 0zm7-1zm-5 0h1zm5 0c-1 0-1 0 0 0zm-5 0zm-3 0h2-1zm-2 0zm8 0h1zm-8 0zm5-1zm-3 0zm5-1zm-1 0h1-1zm0 0zm-2 0zm1 0v-1l1 1zm-6-1zm10-2ZM13 7V6zm1-1z"/></svg>