<svg xmlns="http://www.w3.org/2000/svg" width="434" height="420" stroke="#000" stroke-linecap="round" stroke-linejoin="round" fill="#fff" fill-rule="evenodd" xmlns:v="https://vecta.io/nano"><path d="M.895 415.806c2.592-24.861-9.263-54.689 9.172-75.505 20.374-19.645 52.437-12.469 73.457-30.816 16.436-19.257 52.365-21.968 54.917-50.923.299-28.383-18.351-52.88-18.65-81.416-3.258-21.264 5.77-32.977 5.582-54.014.088-31.045 10.944-62.817 30.892-86.624 20.875-18.695 50.154-28.493 77.836-21.543 25.089.625 49.068 11.965 62.962 33.358 24.06 30.459 38.344 74.388 22.131 111.476-5.377-15.092-5.567-36.343-5.707-53.857.906-24.175-14.801-45.428-30.21-62.562-14.776-19.623-36.951-5.377-47.087 8.06-2.295-17.916-17.546-25.763-33.816-15.398-17.127-1.105-36.552 9.769-53.525 19.792-6.432 9.621-21.638 37.833-11.708 37.773 14.191-9.269 11.246 25.923 6.543 30.804 16.962 13.119 42.71 7.743 59.117 21.86 17.586 20.963-15.708 51.109 4.794 67.696 7.361 8.619 46.75 1.126 20.914 6.382-27.205 5.048-17.57 33.07 3.485 38.503 9.526 2.395 35.782 6.362 36.624-3.377 2.349-14.156 28.754 27.451 4.297 13.833-21.242-15.017-47.439 4.288-71.126.283 13.029 13.163-11.734 9.038-15.755 10.29 9.874 14.459 27.147 21.908 42.215 9.748 20.768 9.086-18.354 31.62-14.005 17.65-9.246 6.883-2.574 22.927-13.268 15.033-7.108 6.084-3.21 20.927-6.052 7.106-5.774-5.818 9.233-22.694-5.318-12.704-4.065 13.563-17.139 11.245-7.203-.936 10.584-4.371 16.551-12.335 1.544-6.098-19.112 9.564-7.375 35.837-3.948 43.29-6.21 18.499 27.204 23.976 41.551 26.385 23.685 2.211 50.173-6.291 63.264-27.252-3.446 17.858-24.702 28.936-42.036 31.52-24.318 10.794 26.382.243 31.288-8.382 23.336-15.464 41.409-44.052 36.786-72.607-7.825-13.689-5.629-43.728 15.343-25.992 24.3 9.413 47.975 20.414 72.586 29.026 17.005 19.311 18.258 46.615 28.234 69.478 7.077 18.527 1.047 52.551-25.049 41.671-22.431 4.478-55.914 3.873-53.812-27.529-1.65-13.508-8.107-41.74-12.62-44.594 3.603 22.633 3.649 46.348 12.076 67.768-9.105 13.041-31.207.177-44.471 5.592-8.74-11.772 2.532-.491-.117-11.675-6.671-5.497-7.312 17.719-20.746 11.87-49.839-1.482-99.824-.327-149.733-.693H1.735l-.521-1.087zm304.97-22.45c-5.611-2.087 4.741 11.623 0 0zm-7.767-30.376c8.298-16.866-14.184 13.071 0 0zm19.134-14.042c13.538-9.012-5.743-48.922-6.676-17.643-.812 5.476-4.935 23.048 6.676 17.643zm-3.338-3.552c2.128-9.885.161-37.463 4.594-12.848-.187 3.308 2.679 16.378-4.594 12.848zm3.771-3.357c-4.108-5.062-.2 6.477 0 0zm-1.906-17.779c-5.451.773 7.893 7.468 0 0zm-2.594 11.306c3.618-4.419-.63 3.892 0 0zm20.5-3c-1.874-5.413-1.974 3.435 0 0zm-164.893-4.005c-8.894-14.176 30.858-34.423.477-23.214-13.173-4.693 14.804-18.973-3.329-14.198-5.936 9.709-4.591 30.288 2.852 37.411zm-3.44-15.661c-4.545-10.953 12.11.455 0 0zm148.582-27.583c3.796-17.841-16.677-3.105 0 0zm-137.352-1.665c12.092-18.546-31.172-8.176-8.529-1.602 2.375 1.247 5.75 3.356 8.529 1.602zm-7.815-3.638c-20.698-8.143 23.599-1.854 0 0zm5.216-1.414c-6.173-11.441-7.102 7.334 0 0zm60.026-13.691c-3.808-9.62-9.172 6.455 0 0zm-35.325-5.719c-1.057-11.702-6.554.098 0 0zm-49-2.565c20.152.52 43.865-12.439 39.124-35.699-7.492-14.458 13.433-47.588-14.546-42.422-10.719 8.454-31.299 1.75-35.686 6.035-2.636 24.213.34 53.21 8.933 74.328l1.081-.653zm-3.288-.679c11.819-11.313 38.215-1.936 40.06-26.049 6.668-4.463-7.682 19.051-17.154 20.491-7.659 4.763-16.702-2.787-22.906 5.558zm-1.517-7.878c.499-9.215.175 9.004 0 0zm-.963-6.5c.443-10.012.226 10.472 0 0zm-1.037-6.5c.499-9.215.175 9.004 0 0zm-1.037-5.5v.09zm-.885-7c.233-14.443.363 12.345 0 0zm43.037-5.5c.466-16.364.182 16.577 0 0zm-43.406-12c-1.215-16.878 2.807 12.971 0 0zm44.349 1c.305-11.477.25 11.53 0 0zm.906-6.5v.09zm1.577-9c2.243-15.884-.945 15.915 0 0zm-49.728-1.803c-4.28-11.073 17.249-.87 3.278-5.126-.043-1.915-3.055 8.937-3.278 5.126zm18.494-3.252c11.305-6.218-.445 5.098 0 0zm21-4.945c14.735-6.811-13.497 7.74 0 0zm8.833-.573c-5.17-8.8 5.674 5.567 0 0zm19.666 64.957c10.57-24.049-24.343 2.58-8.243 2.662 2.111-5.472 6.163 18.72 8.426.869zm3.738 11.925c-9.047-6.162 3.434 5.381 0 0zm-18.583-11.95c-5.005-13.493-13.649 11.997 0 0zm23.845-22.83c-2.522-12.525-23.739-6.478-6.778-.544 1.05 1.474 5.934 4.055 6.778.544zm-20.341-6.612c9.424-14.377-8.837-13.894-4.555.619 1.011 5.063 6.113 4.608 4.555-.619zm6.877-35.168c11.398-19.093-15.352-3.446-2.643 4.225 1.23-1.187 1.891-2.726 2.643-4.225zm-3.501-.3c.405-9.49 4.653-1.709 0 0zm-67.035-9.45c-1.377-9.87-2.356 8.895 0 0zm52.224 1.028c22.84 2.982-4.369-24.923-8.807-6.23-12.167-3.601-26.235 7.698-7.087 8.223 5.352.066 10.756-.428 15.894-1.993zm-21.723-.702c6.562-8.882 41.508-8.609 17.88-.279-5.896.701-11.989 1.267-17.88.279zm21.599-3.181c-.288-12.325-10.181 9.697 0 0zm-14.427-11.289c11.346 4.037 34.551-2.699 13.542-12.624-12.108-5.251-31.942 1.962-25.747 12.618-3.124 5.669 9.989-1.404 12.205.005zm-2.919-3.024c13.248-3.71 21.419 3.782 0 0zm-9.753-4.738c7.222-11.439 37.025 2.818 10.867-.731-3.598.383-7.23 2.109-10.867.731zm15.25-2.8c-10.52-2.744-1.159 2.963 0 0zm-38.048 2.559c4.715-10.094-2.552-31.656-3.803-9.275-2.037 5.678 1.695 25.161 3.803 9.275zm33.249-11.904c-9.455-10.656-16.125 10.935 0 0zm73.847-97.58c2.681-11.906-9.679.536 0 0zm10.702-10.369c-4.246-6.213-5.885 6.108 0 0zm99.48 384.448c-4.035-11.129-9.042-26.703-7.515-36.617 1.485 12.342 12.327 23.89 7.515 36.617zm-3.068-17.86c-5.646-13.769 4.004 16.213 0 0zm-2.729-9.776c-2.774-3.028 2.478 7.995 0 0zm83.589 26.188c.233-14.443.363 12.345 0 0zm.821-7c1.165-4.647 2.676-7.993 0 0zm3.985-12.583c-.184-11.575 1.532 5.506 0 0zm-.921-4.417v.09zm-1-5v.09zm-1.079-3.668c-7.237-4.871 1.942-5.387 0 0zm-206.792-2.072c16.286-.639 12.035 1.209 0 0zm-14.786-1.732c-2.857-4.299 12.25 4.924 0 0zm32.769.779c7.232-1.494 4.583 1.249-.485.53zm5.544-.99c6.504-3.288-1.214 2.92 0 0zm6.188-1.817c14.229-4.836-7.87 4.175 0 0zm175.079-1.083c-.184-11.575 1.532 5.506 0 0zm-230.079-.417c-4.03-4.191 12.584 7.063 0 0zm65.687-2.79c19.631-1.143 11.574-32.761 25.115-34.379-14.885 6.429 3.051 20.045-12.889 26.447-3.72 2.781-7.245 7.743-12.227 7.932zm163.471-1.21v.09zm-242.286-3.75c-10.494-10.7 13.273 4.221 13.689-3.436 13.771-1.186-20.442-14.778.007-18.653 17.923-2.763 3.647 33.455 27.403 20.671 10.398-4.326 25.711.347 14.291-15.444-5.363-11.185 21.37-24.24 17.686-4.276 7.71 15.132-16.643 7.539-12.947 8.298 5.032 22.214-39.957 18.739-41.007-3.243-6.77-4.539 8.312 24.714-8.832 17.849-8.522-3.824-16.057-7.225-5.175 1.73l-2.65-1.608zm75.128-10.816c.709-12.963-7.709 3.2 0 0zm-8.376-6.144c-8.506 2.263 4.79 8.904 0 0zm-1.624-2.708c5.613-10.231-10.544 1.836 0 0zm6.581-3.738c-1.013-13.895-6.794 13.703 0 0zm27.339 20.911c12.665-14.086-8.95 12.993-.065.083zm141.016-.505c-7.269-16.796 3.935 5.514.381.675zm-210.555.587c-10.24-7.987 4.608-17.655 3.746-3.463 7.542-3.303 9.059-18.498 9.306-1.981-1.016 5.604-8.519 6.502-13.052 5.445zm-25.921-1.904c.421-6.049 3.341 4.571 0 0zm9.886-1.477c-1.749-9.159 4.427 6.942 0 0zm44.238-.323c-3.219-6.477 4.102 2.848 0 0zm-25.538-4.384c-2.313-15.736 12.118-1.13 0 0zm17.621.583c-11.193-7.933 3.254-28.028 1.691-7.342-.074 2.517-.433 5.111-1.691 7.342zm-39.667-1.333c2.2-4.488 2.2 4.488 0 0zm225.079-3.668c-7.237-4.871 1.942-5.387 0 0zm-150.37-1.956c-14.584-7.441 11.394-10.82 2.132-6.716-9.946-7.786 4.317 6.609-2.132 6.716zm23.291-1.721c1.735-12.384 7.325 4.648 0 0zm3.075-.93c-3.444-2.426-.88 4.987 0 0zm-294.626-.642c7.021-7.027 42.35-26.674 18.074-11.872-5.897 4.138-11.516 8.779-18.074 11.872zm177.395-2.678c-5.031-14.961 23.282-25.568 13.048-4.039-8.891-21.042-6.95 4.096-11.141 6.644zm107.157 2.65c7.505-5.741 7.967-43.538 10.33-17.962-.033 6.956-.981 17.928-10.33 17.962zm132.079-.724c-7.237-4.871 1.942-5.387 0 0zm-118.51-10.082c5.786-11.128-7.542-44.067 5.43-41.615 4.944 16.696 2.456 35.494-5.686 50.784l-.414-4.601zm-97.569 6.15c.073-14.071 5.36 2.832 0 0zm11.75 1.518c-14.308-11.341 11.166-34.818 14.34-28.908-11.06-2.016-21.949 19.281-5.971 11.449 15.525 2.831 9.887 13.736.388 1.507-4.11 3.397-.497 17.283-8.758 15.952zm4.164-8.046c-7.258-2.967-2.114 10.136 0 0zm.257-3.527c10.842-9.258-10.465 2.515 0 0zm-44.136 5.721c-5.519-13.619 9.779-8.301 0 0zm48.035-2.309c2.838-12.709 2.792 10.5 0 0zm44.967.283c-7.73-5.064-6.339-38.15-1.438-18.599 4.846 3.244 17.418 29.35 1.438 18.599zm7.964-.308c-2.805-12.821-19.597-15.71-8.352-.887 1.172 1.895 8.514 6.64 8.352.887zm-5.557-1.15c-5.419-7.378 12.572 8.601 0 0zm144.648-.673c-4.19-14.999 5.404 11.543 0 0zm-134.429-.151c11.784-9.454-15.874-24.129-3.859-22.01-3.619-2.914-5.827-22.654 1.392-12.653-19.261 4.071 23.191 17.239 6.197.481 4.43-11.617 16.394 6.085 2.021 10.056-9.569 5.295 6.533 31-5.75 24.125zm6.796-32.689c1.778-4.986-4.487 1.706 0 0zm-36.378 28.74c-8.757-3.124.987-6.128 0 0zm39.116-2.309c.499-9.216.175 9.004 0 0zm122.377-2.072c-2.878-11.806 3.694 6.936 0 0zm-373.821.909c11.555-3.907-.165 3.301 0 0zm5-1c11.555-3.907-.165 3.301 0 0zm228.225-1.903c-8.671-11.996 9.376-1.82.777.774zm-219.975.514c16.908-2.058-11.688 2.866 0 0zm239.199-1.449c4.296-9.649-2.967-2.904 0 0zm-221.667-3.779c14.017-6.624 39.546-29.066 43.723-29.476-12.722 10.343-35.412 26.481-43.723 29.476zm223.626-5.721v.09zm112.981-3.033c-8.223-6.629 11.461 5.106 0 0zm-111.941-8.373c1.78-12.393 20.707-41.899 19.968-39.868 6.758 21.793 35.193 19.812 51.468 31.243 17.013 7.673-17.581-4.75-22.572-9.09-19.769-15.906-41.547-12.874-47.487 12.712-3.858.974-.691 16.722-1.377 5.004zm-59.199 5.465c.468-12.549 2.775 4.235 0 0zm164.75.279c11.555-3.907-.166 3.301 0 0zm-10.636-4.889c-6.555-7.845 11.43 9.644 0 0zm-150.053.824c3.54-11.744-22.119-15.902-.521-11.488 1.541 1.534 4.568 13.388.521 11.488zm42.057-2.588c-4.961-10.255 1.99-7.785 0 0zm-38.453-1.352c-7.422-16.705 25.67 2.613 4.777-2.376-.89.916-2.921 4.291-4.777 2.376zm3.831-3.324c-1.161-16.016-7.586 8.503 0 0zm9.326.361c-8.113-15.254-6.275 9.83 0 0zm123.677 1.63c-2.464-3.335 9.78 3.724 0 0zm-168.32-3.084c-11.176.93-18.056-12.135-3.411-12.271-25.371 11.59 32.224 9.782 4.54 13.476zm66.82-3.49c2.144-8.026 5.876-3.359 0 0zm8.25-1.458c-11.274-9.258 11.81.082 0 0zm5.151-1.719c-3.168-10.111-33.439-18.559-11.441-9.517 12.392-2.21 13.696-15.305 8.935.665.876 2.756 4.207 5.755 2.506 8.851zm-167.656-4.973c11.799-2.605 19.829-36.026 10.782-9.046-2.685 3.516-5.518 9.534-10.782 9.046zm162.255-.277c1.874-5.413 1.974 3.435 0 0zm-74.216-.754c-11.611-11.585 22.006-8.149-.575-6.425-2.242 1.051 3.471 8.179.575 6.425zm29.466.091c4.712-12.385 15.714 1.534 0 0zm-12.5-9.043c10.52-2.744 1.159 2.963 0 0zm9-.957c11.555-3.907-.165 3.301 0 0zm5.063-1.021c6.504-3.288-1.214 2.92 0 0zm4.688-1.317c11.768-5.017-2.039 3.23 0 0zm8.5-.604c.429-4.444 10.391 7.584 0 0zm40.064-4.396c-7.688-6.14-31.396-15.525-29.888-13.286 10.974-7.343 22.907 6.066 29.888 13.286zm-46.662-3.395c-6.202-13.547 18.075 10.614 0 0zm-10.843-1.137c-9.823-10.738 2.039-14.601-1.418-8.997 4.892-4.657 15.158-2.703 3.319-.998-1.698 3.147 6.761 13.569-1.901 9.995zm21.441 1.148c7.986-5.432 4.549 3.151 0 0zm-13.921-5.2c-.184-11.575 1.532 5.507 0 0zm-16.079-4.335c-1.756-10.399 5.739.063 1.79 2.176zm-94.822-2.979c-6.907-14.026 7.102 10.034 0 0zm114.822-1.176c5.376-7.348 2.243 9.263 0 0zm-27.985-1.603c-4.615-12.817 10.087-2.832 0 0zm5.985-3.728c4.964-13.816-23.236 4.019-10.61-10.055 6.518-6.779 23.273-7.896 5.788-3.22-15.452 16.392 25.258-9.947 7.436 6.724 4.212 4.406-1.81 14.926-2.614 6.551zm4-1.202c-4.12-3.737-3.087 5.14 0 0zm-99.748-3.893c.305-11.477.25 11.53 0 0zm104.748-.969c1.678-4.478 2.414 4.807 0 0zm5.75.491c2.608-5.635-3.268-14.335 3.054-3.735.383-.315-3.79 7.903-3.054 3.735zm-3.691-4.675c-1.056-7.574 1.836-.998 2.31 2.483zm-108.559-2.347c-2.976-14.024 3.726 8.133 0 0zm112.5-5.028c12.563.707-3.977-16.131 7.715-2.807 1.107 4.211-5.403 4.832-7.715 2.807zM127.8 219.85c-8.641-11.982 2.33-8.471.245 1.819l-.161-1.196zm90.364-2.906c-9.733.655-20.406-20.854-8.088-4.009 4.356.684 23.777 6.513 8.088 4.009zm14.5-3.388c9.057-5.458-.411 3.522 0 0zM119.699 196.27c-3.258-17.714-8.392-39.05 1.197-55.372-10.638 17.739.536 48.446.324 60.355l-.953-3.197zm83.106 1.286c-.612-10.496 3.591 1.334 0 0zm1.981-6.5c3.317-17.038 4.834-10.756 0 0zm113.878-12.967c-1.416-6.535-5.18-22.422-.696-7.63 13.202 4.983 5.947-17.067 4.283-10.437 1.663-11.801 8.642-26.328 2.252-5.878 3.576 6.346 8.991 32.789-.713 24.717.384-8.113-5.998 14.679-5.126-.773zm9.929-2.164c3.386-15.936-6.798 10.328 0 0zm-53.679.942c7.737-2.493 1.892 2.954 0 0zm-8-1c7.737-2.493 1.892 2.954 0 0zm15.5-.342c4.99-10.417-.75 6.947 0 0zm-73.592-1.969v.09zm52.111 1.307c7.232-1.495 4.583 1.249-.485.53zm-10.995-3.518c-4.516-6.149-23.646-31.539-8.262-14.517 14.201 7.448 43.856 7.812 51.438-.726-7.661-7.575-40.393-5.622-34.085-13.583 14.032-3.431 54.102 6.01 27.632 21.346-8.587-2.604-27.375-2.21-9.945 6.744 2.504-.921-33.659-13.7-24.697 1.402 14.927 4.148 3.476 3.139-2.081-.667zm9.625-9.318c-9.745-4.21-1.469 5.945 0 0zm37.086-9.221c-5.917-12.834-21.273-4.016-3.573.609l1.912.383zm-15.985-4.25c-5.036-3.342-9.444 2.141 0 0zm-4.271-3.604c-6.288-4.36-2.159 3.383 0 0zm-16.229 27.2c-19.992-4.316 12.738-6.379 2.935 1.158zm-50.214-6.096c.307-14.437.392 13.926 0 0zm50.715-8.499c.98-18.458 46.966 7.049 17.732-.619-5.37 2.604-13.772 8.996-17.732.619zm-14.5 1.234c-12.087-8.931-16.712-19.685.169-21.895 8.834-5.431 33.359-21.166 31.248-3.686 8.279-3.241 23.649-12.057 10.089 2.152-12.832 6.662-33.536-4.518-41.145 11.747 12.277-7.156 9.996 17.768-.361 11.682zm-38.305-9.735c.499-9.215.175 9.004 0 0zm106.057-2c.305-11.477.25 11.53 0 0zm-87.052-1.7c1.337-9.858 12.058-6.38.393-2.294.075.407 3.247 6.095-.393 2.294zm-18.059-.8c-.612-10.496 3.591 1.334 0 0zm-7.141-2.393c3.415-5.131 3.312 3.13 0 0zm111.232-2.607c.443-10.012.226 10.472 0 0zm-124.901-2.251c-5.429-9.183-45.766-9.904-18.023-8.732 6.082-1.189 41.269 16.703 18.023 8.732zm75.481 2.568c6.504-3.288-1.214 2.92 0 0zm-59.618-2.817c.499-9.216.175 9.004 0 0zm2.821-2.25c1.319-15.435 2.516 13.627 0 0zm71.921 4.001c17.743 11.767 15.744-23.366 15.033-18.732 32.251 18.569-44.305 22.883-18.142 18.812zm19.978-11.251c-3.928.384.657 10.489 0 0zm3.161 10.273c9.269-8.58-3.696 6.594 0 0zm-91.114-5.375c-7.018-16.743 3.412-4.925.072 4.019zm30.038 5.102c11.13-7.213-2.273 3.942 0 0zm11.475-8.573c16.027-14.08-13.47 15.137-.767.794zm47.604 4.989c-.184-11.575 1.532 5.506 0 0zm12.153-1.417c.443-10.012.226 10.472 0 0zm-189.932-4c.441-15.818.261 16.121 0 0zm139.7-1.059c9.214-6.687 9.584-1.669 0 0zm17.415-.078c7.44-10.897 9.538 10.054 0 0zm7.585-1.363c-7.452-4.816-6.181 4.786 0 0zm24.252-1c.305-11.477.25 11.53 0 0zm18.02-.5c.233-14.443.363 12.345 0 0zm-184.728-1.262c2.112-5.829 16.251-23.498 10.817-9.739-12.841-2.208-4.924 16.011-10.817 9.739zm-21.427-7.321c.966-19.678 1.969 8.69.069 2.296l-.036-1.206zm155.882 2.299c7.43-7.062 1.72 3.283 0 0zm31.3-3.716c.44-15.818.261 16.121 0 0zm17.779 3.417c-.184-11.575 1.532 5.506 0 0zm-.921-4.417v.09zm-1.327-9c-3.586-15.258 3.23 5.168.086.714zm-16.752.417c-.184-11.575 1.532 5.506 0 0zm.921-3.394c4.416-7.673 3.268 3.966 0 0zm-184.866-3.158c1.322-14.712 2.77 4.641 0 0zm22.492-.844c-6.062-14.575 6.506 10.913 0 0zm174.998-5.56c-4.432-8.303 3.776 3.343 0 0zm-12.545-.13c-7.237-4.871 1.942-5.387 0 0zm-166-4.915c-.184-11.575 1.532 5.507 0 0zm176.545.045c-4.913-10.14 3.814.915 0 0zM127.8 85.635c.28-9.825 11.815-23.722 3.135-7.017-.064-1.395-2.535 11.794-3.135 7.017zm177.848-3.396c-8.872-13.979 8.896 10.725 0 0zm-162.984 1.033c-7.006-9.197 3.571-13.17 0 0zm176.158-3.716v.09zm-5.658-10.092c-8.791-21.229-26.805-38.077-45.985-50.016 22.976 6.084 44.152 44.337 48.17 52.777zm-12.389 2.981c-4.341-13.351 5.046 9.058 0 0zm-157.067-4.254c7.067-19.648 33.355-22.712 49.031-27.112 7.438 8.391 16.861-9.158 6.207 4.111-18.328-4.283-37.011 4.724-51.292 16.358-1.685 1.966-3.014 4.229-3.946 6.643zm149.565-9.102c-4.354-9.589-31.902-28.826-8.926-12.637 3.114 2.946 20.059 27.099 8.926 12.637zM136.664 62.36c3.127-14.544 26.513-38.327 29.875-37.915-14.575 8.312-20.404 25.035-29.875 37.915zm94.98-7.878c.224-2.398 11.942 5.946 12.814-5.415-.372 2.348-14.172 16.574-12.814 5.415zm-13.642-6.395c-10.708 1.871-11.432-18.05-.13-6.439 11.1.157 1.014-16.636 11.31-3.417-.636 6.779 1.58 19.589-11.18 9.856zm9.631.719c-9.926-16.502-16.868 5.542 0 0zm19.148-6c5.671-7.708 2.899 5.088 0 0zm7.405-.642c7.278-9.96 20.579-.984 3.159-1.514l-1.772.397zm-36.021-4.608c-9.13-3.406 14.007 2.188 0 0zm-34.419-20.333c9.471-6.7 13.65-3.019.788 1-.724 1.694-9.815 1.406-.788-1zm73.732-1.35c6.98-2.734-1.94 2.649 0 0zm-9.312-1.317c1.151-3.58 10.307 5.282 0 0zm-14.732-1.725c6.018-.697 7.642 1.29 0 0zm-14.703-1.411c-12.562-4.45 18.175 3.008 0 0zm-18.982-.229c7.766-2.63 9.21 1.186 0 0zm213.583-6.302c-6.635-9.86 6.671-3.92 0 0z" stroke="none" fill="#000" fill-rule="nonzero"/></svg>