<?xml version="1.0" encoding="UTF-8" standalone="no"?>
<!-- Created with Inkscape (http://www.inkscape.org/) -->

<svg
   id="svg1367"
   sodipodi:docname="redfern.svg"
   viewBox="0 0 564.23 831.87"
   sodipodi:version="0.32"
   version="1.0"
   inkscape:output_extension="org.inkscape.output.svg.inkscape"
   inkscape:version="1.2.2 (b0a8486541, 2022-12-01)"
   xmlns:inkscape="http://www.inkscape.org/namespaces/inkscape"
   xmlns:sodipodi="http://sodipodi.sourceforge.net/DTD/sodipodi-0.dtd"
   xmlns="http://www.w3.org/2000/svg"
   xmlns:svg="http://www.w3.org/2000/svg"
   xmlns:rdf="http://www.w3.org/1999/02/22-rdf-syntax-ns#"
   xmlns:cc="http://creativecommons.org/ns#"
   xmlns:dc="http://purl.org/dc/elements/1.1/">
  <defs
     id="defs41" />
  <sodipodi:namedview
     id="base"
     bordercolor="#666666"
     inkscape:pageshadow="2"
     inkscape:window-y="0"
     pagecolor="#ffffff"
     inkscape:window-height="1007"
     inkscape:zoom="0.49497475"
     inkscape:window-x="0"
     borderopacity="1.0"
     inkscape:current-layer="layer1"
     inkscape:cx="392.94934"
     inkscape:cy="458.60925"
     inkscape:window-width="1600"
     inkscape:pageopacity="0.0"
     inkscape:document-units="px"
     inkscape:showpageshadow="2"
     inkscape:pagecheckerboard="0"
     inkscape:deskcolor="#d1d1d1"
     showgrid="false"
     inkscape:window-maximized="0" />
  <g
     id="layer1"
     inkscape:label="Layer 1"
     inkscape:groupmode="layer"
     transform="translate(-93.404 -108.74)">
    <g
       id="g2528"
       transform="matrix(1 0 .058287 1 -30.582 0)"
       style="fill:#ff0000">
      <path
         id="path1385"
         style="fill:#ff0000"
         d="m547.11 847.73c-7.07-7.56-14.3-14.12-16.07-14.58-1.76-0.45-3.16-1.94-3.11-3.3 0.06-1.36-2.61-2.34-5.92-2.17-3.53 0.18-4.87-0.4-3.24-1.38 4.48-2.7 1.13-4.35-5.94-2.94-5.19 1.04-5.73 0.82-2.64-1.09 5.2-3.2 2.88-5.35-5.1-4.73-5.78 0.46-6.18 0.17-3.58-2.61 2.37-2.54 2.03-3.25-1.82-3.76-2.61-0.35-6.43 0.3-8.48 1.45-3.26 1.82-3.4 1.61-1.09-1.75 3.57-5.2-0.11-8.82-5.69-5.59-2.5 1.44-5.12 1.93-5.84 1.1s-0.21-2.14 1.14-2.92c4.57-2.64-2.54-4.06-8.86-1.77-5.07 1.84-6.84 1.38-9.26-2.39-2.82-4.4-3.34-4.38-9.15 0.28-5.83 4.69-6.25 4.7-8.09 0.14-1.88-4.67-2.14-4.65-9.29 0.99-6.52 5.13-7.67 5.44-10.03 2.71-3.71-4.28-5.85-2.43-8.31 7.19-2 7.81 1.87 16.32 7.57 16.64 1.4 0.08 3.05-2.49 3.66-5.7l1.1-5.84 2.16 4.99c2.31 5.32 5.39 4.9 7.7-1.05 1.16-3 1.57-2.93 2.31 0.37 2.47 11.11 5.61 12.76 8.72 4.59 0.76-1.99 1.22-0.83 1.04 2.59-0.4 7.18 5.18 8.01 8.35 1.24 1.6-3.41 1.87-2.98 1.49 2.42-0.54 7.59 3.12 8.83 7.23 2.44 1.56-2.42 3.39-3.75 4.08-2.96 0.68 0.79 0.58 2.44-0.22 3.67-1.73 2.66 2.82 8.57 5.43 7.06 1-0.57 2.43-2.67 3.18-4.66 1.12-2.99 1.42-2.73 1.69 1.53 0.4 6.27 8.3 8.22 8.62 2.12 0.1-1.92 0.78-2.8 1.5-1.97 0.71 0.83 1.22 3.03 1.12 4.9-0.25 4.78 4.05 5.34 6.14 0.81 1.49-3.22 2.04-3.03 3.8 1.34 1.88 4.68 2.42 4.78 6.2 1.13 3.64-3.52 4.29-3.48 5.46 0.34 1.06 3.49 1.88 3.74 4.17 1.28 1.57-1.67 3.46-2.34 4.21-1.48 0.75 0.87 3.66 1.7 6.47 1.86s9.49 3.35 14.85 7.08c15.41 10.73 16.42 7.43 2.34-7.62z" />
      <path
         id="path1449"
         style="fill:#ff0000"
         d="m627.17 766.06c-0.67-0.77-3.41-0.73-6.08 0.1-2.68 0.82-10.8 1.37-18.07 1.21-7.26-0.16-14.2 0.29-15.42 1-1.23 0.7-2.52-0.08-2.88-1.74-0.46-2.1-2.13-2.17-5.47-0.24-4.67 2.7-4.77 2.62-3.33-2.61 1.45-5.27 1.34-5.31-5.2-1.71-3.68 2.03-5.71 2.61-4.51 1.29 4.11-4.55-0.25-5.16-7.74-1.09-4.14 2.24-6 2.73-4.15 1.09 5.99-5.3 0.26-7.65-7.6-3.11-6.8 3.93-7.08 3.9-4.7-0.52 2.36-4.39 2.21-4.62-2.32-3.44-2.68 0.7-7.23 3.34-10.13 5.86-5.08 4.42-5.22 4.4-3.86-0.54 2.06-7.48 0.28-8.04-7.15-2.27-5.97 4.64-6.26 4.69-3.02 0.45 5.36-7 2.69-7.65-8.62-2.11-8.42 4.13-9.45 4.27-6.06 0.85 6.52-6.62 2.56-7.26-7.91-1.29-8.79 5.01-9.46 5.1-7.31 0.98 3.38-6.51-2.46-7.13-10.1-1.08-5.12 4.05-5.87 4.26-3.82 1.09 4.61-7.17 0.3-7.43-8.97-0.54l-8.79 6.53 2.91-6.01c3.68-7.63-1.56-7.35-12.02 0.65-6.67 5.09-7.28 5.25-5.38 1.38 1.19-2.41 1.49-5.15 0.67-6.1-2.18-2.52-9.85 2.53-10.87 7.15-1.19 5.39-3.96 4.84-4.21-0.84-0.15-3.6-0.86-4.22-3.22-2.86-1.66 0.96-3.6 3.35-4.3 5.31-1.02 2.88-1.61 2.93-3 0.27-2.84-5.43-8.24-1.93-7.81 5.06 0.23 3.57-0.55 7.45-1.71 8.6-1.51 1.49 0.62 4.44 7.26 10.06l9.39 7.94 1.06-6.15 1.06-6.16 4.3 4.88c4.85 5.5 6.87 5.2 7.92-1.18 0.65-3.93 1.16-3.88 5.04 0.49 4.98 5.61 9.42 4.29 8.11-2.41-0.99-5.06 0.82-4.3 5.67 2.38 3.67 5.06 6.05 4.43 7.33-1.96 0.8-4.02 1.19-3.89 3.73 1.24 3.09 6.25 7.48 5.7 7.52-0.94 0.01-3.19 1.08-2.79 5.37 2l5.35 5.97 1.23-6.37 1.23-6.38 4.12 7.25c4.28 7.54 10 8.01 7.74 0.63-1.76-5.76 2.51-6.91 6.89-1.85 4.35 5.02 10.6 5.24 10.86 0.39 0.13-2.41 0.91-2.39 3.08 0.06 3.58 4.06 9.67 3.59 9.91-0.76 0.13-2.41 0.91-2.39 3.07 0.06 3.58 4.06 9.68 3.59 9.91-0.77 0.13-2.29 1.23-2.02 3.81 0.91 4.12 4.7 7.93 3.58 7.96-2.32 0.01-3.4 0.55-3.38 3.68 0.13 3.95 4.44 6.62 4.01 8.44-1.36 0.9-2.63 1.79-2.64 4.03-0.06 2.96 3.43 8.63 2.24 5.85-1.22-0.85-1.07 0.88-1.28 3.85-0.47 3.54 0.97 7.63 0.13 11.85-2.41 3.54-2.15 12.85-5.25 20.69-6.91 16.17-3.43 16.51-3.55 14.84-5.48z" />
      <path
         id="path1447"
         style="fill:#ff0000"
         d="m423.92 850.97c-11.79-13.85-17.82-32.41-27.4-84.42-3.94-21.4-14.4-67.87-23.24-103.26s-17.36-76.9-18.92-92.25c-4.99-48.79-0.61-135.86 9.46-187.89 16-82.71 38.12-167.33 45.64-174.59 1.81-1.75 12.03-6.06 22.73-9.59 10.69-3.53 23.31-8.12 28.05-10.2 8.38-3.68 8.09-3.74-10.35-2.15-10.44 0.9-20.7 2.64-22.81 3.85s-5.08 1.88-6.61 1.49c-1.82-0.47 0.13-1.9 5.59-4.11 4.6-1.86 10.61-4.33 13.34-5.48 2.74-1.16 9.47-3.99 14.95-6.28l9.98-4.18-7.13-0.76c-3.92-0.41-9.06 0.36-11.42 1.72-4.53 2.62-21.15 6.16-22.36 4.77-0.39-0.45 7.85-5.05 18.32-10.23 10.47-5.17 18.68-9.82 18.24-10.33-1.16-1.34-23.41 2.99-27.51 5.35-1.92 1.11-4.05 1.37-4.73 0.58-1.15-1.32 6.37-5.36 19.9-10.7 2.91-1.15 6.19-3.48 7.3-5.18 1.52-2.36 0.2-2.62-5.5-1.11-10.08 2.68-10.05 1.81 0.12-2.94 9.31-4.36 9.56-6.34 0.74-6.01-5.16 0.18-4.98-0.09 1.7-2.6 6.26-2.35 6.89-3.08 3.89-4.47-2.65-1.23-2.32-2.4 1.24-4.46 2.66-1.53 3.9-2.84 2.75-2.91-1.14-0.06-1.26-2.55-0.25-5.52s0.95-6.43-0.15-7.69c-2.25-2.6-9.3 2.51-17.6 12.76-3.72 4.6-5.56 5.75-8.09 5.1-2.21-0.58-3.03 1.07-2.52 5.03 0.68 5.19 0.3 5.66-3.26 4.03-3.44-1.57-3.85-0.86-2.73 4.76 1.7 8.61-1.08 9.98-6.81 3.36-2.52-2.9-5.43-4.79-6.48-4.19-2.82 1.63-1.01 11.23 3.01 15.93 1.92 2.26 3.42 5.64 3.31 7.52-0.13 2.45-2.53 1.45-8.53-3.53-7.96-6.62-19.4-9.81-16.14-4.5 3.3 5.39 6.2 9.34 13.06 17.79 7.58 9.33 5.8 12.36-3.41 5.82-8.8-6.24-27.95-13.37-29.5-10.99-0.85 1.3 1.42 4.41 5.52 7.54 3.83 2.93 9.79 7.73 13.24 10.67s6.91 5.53 7.68 5.76 1.82 2.22 2.33 4.41c0.73 3.12-2.15 2.3-13.13-3.72-7.73-4.24-16.86-8.36-20.28-9.16s-7.3-2.65-8.62-4.11c-1.33-1.46-4.82-3.07-7.76-3.57-4.89-0.84-5.12-0.45-2.68 4.6 3.48 7.21 19.27 17.56 39.86 26.12 8.71 3.62 8.83 1.63-2.83 44.31-18.48 67.63-36.31 160.01-39.08 202.42-6.12 93.82-3.06 126.59 21.41 228.91 4.71 19.71 11.36 51.55 14.77 70.77 5.44 30.66 21.57 99.48 25.72 109.75 1.07 2.66 3.96 3.33 10.5 2.43 4.96-0.68 9.88-1.74 10.93-2.35 1.06-0.61-2.3-6.06-7.45-12.12z" />
      <path
         id="path1445"
         style="fill:#ff0000"
         d="m303.24 927.97c4.57-7.49 9.61-13.78 11.21-13.98 1.61-0.19 3-1.8 3.09-3.58 0.15-2.66 0.53-2.84 2.25-1.02 1.55 1.66 2.26 0.98 2.87-2.78 0.69-4.28 1.39-4.84 4.98-4 3.6 0.84 4.18 0.39 4.22-3.29 0.03-3.16 0.91-4.03 3.42-3.38 4.7 1.22 7.15-3.4 4.02-7.57-2.01-2.67-1.85-3 0.72-1.42 4.93 3.04 7.3 0.59 5-5.15l-2.04-5.05 5.75 1.85c6.22 2 8.54-0.41 4.69-4.86-2.93-3.38 0.38-5.69 5.05-3.53 4.97 2.31 6.9-2.29 2.9-6.91-3.3-3.81-3.2-3.93 2.34-2.92 5.62 1.03 5.75 0.92 4.78-4.03-0.54-2.8-0.19-4.28 0.79-3.28 3.18 3.22 6.28-0.64 4.35-5.42-1.69-4.21-1.39-4.56 3.16-3.71 4.69 0.87 5.04 0.64 5.05-3.41 0.01-3.91 0.25-4.08 2.37-1.75 3.25 3.6 5.26 1.85 8.18-7.09 2.16-6.62 1.57-8.42-4.32-13.3-7.49-6.21-10.6-5.85-10.93 1.25-0.28 6.24-2.97 7.44-6.78 3.03-4.48-5.17-11.89-2.64-10.5 3.6 1.34 6.03-0.51 7.32-9.03 6.3-9.13-1.1-12.61 1.48-6.87 5.1 5.43 3.42 4.76 4.14-4.76 5.11-9 0.92-13.69 6.76-6.24 7.75 4.26 0.57 3.69 1.16-4.57 4.78-7.79 3.41-8.64 4.2-4.87 4.51 7.2 0.59 6.81 2-1.55 5.7-6.42 2.84-7.15 3.72-4.2 5.08 2.57 1.19 2.3 2.38-0.97 4.27-2.49 1.44-4.23 3.97-3.87 5.63s-1.38 4.2-3.87 5.64c-3.24 1.87-3.53 3.08-1.03 4.24 2.54 1.17 2.33 1.94-0.77 2.75-2.46 0.65-4.01 2.41-3.64 4.12 0.36 1.64-0.4 3.59-1.68 4.32-4.23 2.45-12.34 37.37-9.05 39 1.13 0.56 5.79-5.11 10.35-12.6z" />
      <path
         id="path1443"
         style="fill:#ff0000"
         d="m638.07 725.66c-4.08-1.38-11.23-2.08-15.88-1.57-12.3 1.36-15.95 0.98-16.73-1.74-0.37-1.33-2.6-1.39-4.94-0.14-2.44 1.31-3.33 1.26-2.08-0.12 3.49-3.85 0.2-5.41-5.04-2.38-4 2.31-4.66 2.12-3.95-1.1 0.7-3.2-0.29-3.58-5.74-2.2-3.63 0.91-5.36 0.88-3.85-0.07 6.23-3.92-0.45-4.42-7.27-0.55-6.19 3.52-6.96 3.57-4.74 0.34 3.91-5.69-1.82-6.04-8.48-0.52-5.93 4.92-10.43 4.12-5.64-1 5.6-6-0.32-6.4-8.13-0.55-7.12 5.33-7.53 5.41-5.23 1.04 3.71-7.04-4.21-7.18-10.07-0.18-2.32 2.77-4.73 4.45-5.36 3.73-0.63-0.73 0.05-2.59 1.51-4.15 1.45-1.56 1.96-3.62 1.12-4.59-1.03-1.19-4.37 0.3-10.41 4.65-7.61 5.49-8.57 5.8-6.62 2.17 1.25-2.33 1.54-5.09 0.63-6.13-1.66-1.92-7.03 1.62-14.06 9.27-3.24 3.53-3.36 3.32-1.64-2.88 1.03-3.67 1.39-7.22 0.81-7.89-1.09-1.27-7.5 3.47-13.46 9.96-3.25 3.53-3.37 3.32-1.64-2.88 2.6-9.32 0.94-10-7.77-3.14-7.53 5.93-7.55 5.93-6.01 0.37 1.34-4.87 0.99-5.43-2.77-4.44-2.37 0.63-5.94 3.81-7.94 7.07-4 6.52-5.39 6.38-5.07-0.49 0.29-6.29-4.02-5.88-9.29 0.88-7.36 9.45-7.9 9.81-6.46 4.33 1.47-5.61-0.4-9.55-3.64-7.68-1.08 0.62-3.58 4.36-5.56 8.3l-3.59 7.17 0.41-6.35c0.56-8.56-5.29-7.67-8.82 1.35l-2.7 6.89-1.37-4.3c-1.83-5.72-6.26-3.06-10.91 6.53-2.89 5.97-2.54 8.79 1.86 14.71 5.93 8.01 11.96 9.26 10.28 2.13-1.01-4.25-0.69-4.3 6.38-1l7.44 3.48-2.35-5.44-2.34-5.44 5.61 3.56c9.29 5.88 10.54 6.37 12.81 5.06 1.19-0.69 1.29-3.04 0.21-5.22-1.41-2.87-0.69-2.66 2.6 0.76 5.26 5.46 9.15 4.43 7.3-1.94-1.15-3.95-0.71-3.95 4.62-0.02 6.97 5.13 13.08 4.16 10.21-1.62-1.53-3.06-0.9-2.89 2.54 0.67 5.15 5.35 7.12 5.02 8.21-1.34 0.66-3.88 1.09-3.73 3.62 1.3 2.96 5.88 6.2 5.84 8.22-0.1 0.89-2.63 2.08-2.3 5.33 1.46 4.32 4.98 9.37 4.44 8.21-0.88-1.01-4.62 3.75-4.11 6.13 0.66 2.83 5.7 9.13 4.67 7.96-1.3-0.82-4.17-0.36-4.08 4.12 0.88 5.06 5.59 10.3 5.51 9.06-0.14-1.11-5.11 3.18-5.6 7.32-0.82 4.32 4.99 11.28 3.12 9.13-2.45-0.69-1.78 0.78-1.1 3.26 1.52 4.96 5.22 8.81 4.48 8.84-1.71 0.02-3.13 0.46-3.51 2.09-1.77 1.13 1.22 3.95 2.65 6.26 3.19 3.72 0.87 4.22 0.58 4.49-2.6 0.26-2.98 1.03-3.14 4.68-0.96 3.47 2.07 4.73 1.88 6.01-0.91 1.3-2.82 2.22-2.85 4.56-0.14 2.46 2.84 3.22 2.77 4.71-0.45 1.46-3.16 2.17-3.38 4.03-1.23 1.47 1.7 3.19 1.63 4.91-0.22 1.45-1.56 3.16-2.23 3.8-1.49 0.64 0.73 6.87-0.17 13.85-2.02 6.97-1.84 15.61-2.67 19.19-1.83 9.44 2.21 11.95-0.42 3.22-3.35z" />
      <path
         id="path1441"
         style="fill:#ff0000"
         d="m641.69 680.37c-4.52-1.2-15.36-1.42-24.1-0.48-8.73 0.94-15.61 0.92-15.28-0.05s-1.43-1.23-3.93-0.57c-2.49 0.65-4.49 0.25-4.45-0.89 0.05-1.14-1.47-1.17-3.37-0.07-2.15 1.23-3.71 0.85-4.12-1.02-0.47-2.15-2.17-2.15-5.89-0.01-4.06 2.35-4.97 2.27-4.07-0.36 1.89-5.57-0.53-6.03-8.35-1.59-6.13 3.48-6.95 3.54-4.77 0.37 4.28-6.23 0.74-7.03-8.43-1.89-7.62 4.27-8.13 4.31-4.55 0.38 5.31-5.84 0.38-6.89-8.45-1.79-7 4.04-7.01 4.04-5.51-1.69l1.51-5.73-9.11 6.54-9.11 6.54 1.99-6.92 1.99-6.91-10.18 7.49-10.18 7.49 3.1-7.81 3.11-7.81-9.17 6.39c-8.89 6.21-9.12 6.25-7.76 1.3 1.19-4.34 0.8-4.95-2.65-4.04-2.22 0.59-6.17 3.33-8.77 6.1-5.68 6.04-8.72 4.26-3.89-2.27 5.03-6.79-3.02-6.57-8.72 0.24-6.41 7.67-9.5 8.71-7.82 2.63 1.97-7.18-2.19-7.08-9.08 0.22-6.74 7.15-9.45 7.42-7.62 0.77 2.51-9.1-1.9-7.86-13.22 3.73-3.36 3.45-3.46 3.4-1.52-0.78 4.51-9.7-4.11-9.09-9.69 0.69-1.65 2.89-3.59 4.58-4.31 3.75-0.71-0.83-0.65-2.51 0.16-3.74 2.66-4.1-0.93-5.13-6.56-1.88-3.05 1.76-5.6 5.02-5.67 7.24-0.1 3.26-0.54 3.08-2.31-0.94-3.12-7.09-7.34-3.69-7.46 6.01-0.06 4.39-1.42 8.75-3.03 9.68-3.73 2.15-2.75 6.67 2.85 13.13 5.38 6.22 10.92 6 9.66-0.39-0.91-4.65-0.88-4.66 2.74-0.73 5.12 5.56 9.58 4.36 7.8-2.09l-1.48-5.38 5.9 3.95c7.46 5 11.36 3.03 6.07-3.07-2.33-2.7-2.72-4.78-0.92-5 1.69-0.2 4.47 1.25 6.19 3.23 4.56 5.27 8.94 3.75 7.41-2.57-1.15-4.76-0.93-5.06 1.69-2.31 6.77 7.12 16.66 7.56 11.24 0.49-2.08-2.71-1.39-2.67 3 0.17 10 6.48 13.28 6.35 12.15-0.5l-1.01-6.13 4.78 5.35c6.13 6.85 9.78 7.03 9.79 0.47 0.01-4.97 0.16-4.96 3.85 0.31 4.53 6.48 9.95 5.85 9.25-1.08-0.45-4.39 0.08-4.24 5.21 1.45 5.46 6.05 10.42 6.78 9.38 1.38-0.27-1.4 0.78-1.24 2.33 0.35 1.56 1.6 4.55 3.33 6.64 3.85 2.96 0.73 3.79-0.5 3.69-5.53l-0.12-6.48 3.4 6.28c4.28 7.91 10.47 7.67 9.15-0.36l-0.95-5.82 5.34 4.85c9 8.18 11.69 8.74 11.56 2.39l-0.11-5.6 4.11 4.61c5.47 6.14 9.13 6.05 8.99-0.21-0.12-5-0.04-5.01 3.99-0.49 5.42 6.07 9.16 6.07 8.89 0.01-0.2-4.77-0.06-4.79 5.53-1 6.69 4.53 10.44 3.39 7.66-2.32l-1.94-3.97 4.66 2.44c2.56 1.35 5.69 1.64 6.95 0.66 3.49-2.71 38.92-9.77 44.93-8.94 8.97 1.23 9.67-1.41 0.99-3.72z" />
      <path
         id="path1439"
         style="fill:#ff0000"
         d="m232.04 912.13c16.04-15.74 23.64-21.85 26.33-21.15 1.7 0.44 2.78-0.82 2.74-3.19-0.06-3.14 0.65-3.73 3.57-2.98 2.74 0.71 3.38-0.29 2.56-4.04-0.94-4.32-0.57-4.75 2.81-3.26 2.14 0.94 4.8 1.19 5.91 0.55 1.12-0.64 1.08-2.41-0.08-3.92-1.26-1.64-0.99-2.25 0.67-1.51 3.83 1.69 9.62-1.99 7.31-4.66-1.04-1.19-1.24-3.17-0.45-4.39 0.83-1.27 1.73-0.88 2.12 0.91 1.23 5.6 5.84 0.32 4.79-5.48l-1.03-5.64 5.43 3.67 5.42 3.66 0.13-7.42c0.14-8.35 2.35-11.03 4.51-5.45 2.06 5.33 6.72 1.75 5.9-4.54-0.83-6.28 2.09-8.76 4.12-3.51 2.06 5.33 6.72 1.75 5.9-4.54-0.82-6.25 2.9-9.32 4.59-3.78 1.69 5.52 5.43 2.44 6.89-5.68 0.82-4.57 1.4-5.4 1.71-2.42 0.45 4.49 3.1 5.87 6.97 3.64 1.11-0.64 1.31-3.82 0.46-7.06-1.73-6.53 1.27-10.18 3.54-4.31 0.79 2.06 2.54 3.06 3.94 2.26 1.38-0.8 2.6-3.55 2.72-6.11s1.11-5.17 2.21-5.81c1.1-0.63 1.61 0.63 1.13 2.81-1.31 5.93 3.35 5.01 5.84-1.16 1.95-4.82 2.39-5.11 4.34-2.86 2.58 2.98 5.26 1.77 7.21-3.24 1.15-2.98 1.58-3.02 2.31-0.21 1.4 5.42 6.39 1.07 9.24-8.06 2.55-8.16 2.55-8.16-7.6-14.16-10.41-6.16-18.79-6.68-13.75-0.86 1.54 1.78 1.42 3.4-0.27 3.61s-4.21-0.95-5.61-2.56-4.07-2.05-5.94-0.97c-1.89 1.09-2.23 3.31-0.78 4.99 3.71 4.28-0.92 6.15-6.52 2.63-2.58-1.63-6.18-2.1-8-1.05-2.27 1.31-2.04 2.59 0.75 4.1 4.67 2.52 1.37 5.47-3.56 3.19-4.75-2.2-8.38 0.67-5.32 4.21 3.89 4.5-0.02 5.48-7.61 1.92-7.16-3.37-12.76 0.27-6.43 4.16 5.83 3.59 1.14 7.07-7.35 5.47-9.45-1.78-12.46 1.38-5.57 5.85l4.96 3.22-11.34-0.25-11.34-0.24 5.64 4.1c6.59 4.8 5.54 5.93-5.18 5.59-8.98-0.29-13.01 3.7-7.02 6.94 3.56 1.92 3.32 2.31-1.96 3.2-8.29 1.4-11.2 3.39-8.88 6.07 1.08 1.25 2.98 1.68 4.23 0.96 1.24-0.72 2.92-0.55 3.72 0.37 0.89 1.04-1.51 1.99-6.24 2.47-4.23 0.43-9.26 1.69-11.17 2.8-3.92 2.25-2.63 5.04 2.05 4.47 1.69-0.2 3.67 0.3 4.38 1.13 0.72 0.83-1.87 1.76-5.76 2.07-10.05 0.79-11.8 2.42-6.3 5.89 4.26 2.68 4.17 3.12-0.85 3.96-6.49 1.1-8.07 3.49-3.66 5.54 2.04 0.94 1.43 2.35-1.85 4.24-2.7 1.56-3.69 3.15-2.2 3.54s1.63 1.33 0.31 2.09-1.68 2.24-0.81 3.29c0.88 1.06-1.8 6.94-5.95 13.07-14.02 20.73-15.09 25.72-2.98 13.83z" />
      <path
         id="path1437"
         style="fill:#ff0000"
         d="m646.21 646.79c-1.44-1.67-5.92-3.55-9.95-4.2-10.7-1.71-22.84-6.15-22.18-8.11 0.32-0.94-1.46-1.16-3.95-0.51-2.49 0.66-4.49 0.19-4.44-1.04 0.05-1.22-2.44-2.07-5.52-1.87-5.26 0.33-5.42 0.15-2.6-2.86 4.53-4.86-1.49-5.18-9.73-0.51l-7.28 4.12 3.85-5.37c3.37-4.72 3.25-5.22-1.01-4.11-2.67 0.69-6.05 2.53-7.5 4.09-2.94 3.14-5.86 1.37-3.57-2.16 3.09-4.74-1.36-4.88-9.6-0.3-8.48 4.72-8.53 4.72-3.67-0.34 6.75-7.01 1.97-7.53-9.61-1.02-8.57 4.81-9.2 4.89-5.91 0.79 6.31-7.85 1.82-8.06-8.85-0.41l-9.96 7.13 2.63-5.79c3.9-8.59 1.82-8.78-9.16-0.8-9.43 6.85-9.76 6.94-6.87 1.88 6.05-10.61-0.81-9.19-12.27 2.55-3.36 3.44-3.46 3.39-1.52-0.78 1.14-2.46 1.34-5.32 0.43-6.37-1.61-1.86-4.43 0.07-11.76 8-3.46 3.75-3.49 3.73-2.02-1.98 1.92-7.53-2.07-7.6-9.09-0.16-6.74 7.14-9.45 7.42-7.62 0.77 0.75-2.72 0.97-5.4 0.49-5.96-1.6-1.84-7.78 2.91-11.35 8.74-4.37 7.13-8.51 7.28-6.57 0.24 2.34-8.49-3.75-7.91-9.48 0.9-4.84 7.44-8.45 8.42-6.16 1.67 2.02-5.93-4.07-3.84-8.86 3.04-5.44 7.81-8.99 8.58-7.04 1.52 0.75-2.72 0.96-5.4 0.48-5.96-1.94-2.24-8.67 3.8-11.18 10.03-2.57 6.41-2.94 6.17-4.72-2.93-1.01-5.13-7.87-0.65-7.63 4.97 0.1 2.43-0.95 5.08-2.35 5.89-1.43 0.82-1.94-0.69-1.18-3.47 3.36-12.18-7.53-5.49-11.55 7.1-2.67 8.34-2.23 10.08 4.12 16.32 7.35 7.23 12.36 6.97 9.47-0.49-1.54-3.99-1.33-4.02 3.07-0.39 6.25 5.16 11.87 3.29 8.2-2.72-2.84-4.67-2.79-4.68 6.6-1.11l9.47 3.59-2.38-5.42-2.39-5.42 6.67 4.65c8.03 5.59 12.27 4.14 6.69-2.3-2.33-2.7-2.72-4.78-0.92-5 1.69-0.2 5.06 1.93 7.49 4.74 5.9 6.8 10.47 5.92 7.27-1.4l-2.56-5.85 6.13 4.03c8.43 5.55 15.19 5.81 10.51 0.4-5.74-6.63 0.19-7.07 7-0.52 7.17 6.89 11.79 5.74 8.22-2.04-2.13-4.65-1.73-4.53 3.41 0.99 4.19 4.51 6.78 5.71 9.22 4.3 1.87-1.08 2.26-3.28 0.86-4.89-1.4-1.62-1.88-3.94-1.08-5.18 0.88-1.35 3.53 0.16 6.69 3.8 6.29 7.27 11.42 7.38 8.93 0.2-1.74-5.03-1.6-5.03 4.61 0 7.66 6.2 13.88 5.26 10.04-1.52-2-3.54-1.19-3.19 3.11 1.34 7.21 7.6 11.88 7.39 9.81-0.44-2.02-7.66-1.21-7.87 4.6-1.16 2.66 3.06 6.29 5.08 8.17 4.53 2.14-0.63 2.14-2.44 0.01-4.89-5.19-6.01 0.17-7.03 6.39-1.22 6.44 6.01 14.09 5.24 8.79-0.88-2.01-2.32-2.15-4.15-0.33-4.37 1.71-0.21 3.08 0.65 3.03 1.91-0.13 3.14 8.56 8.36 11.3 6.78 1.22-0.71 0.75-2.98-1.05-5.06s-2.2-4.39-0.9-5.14c1.48-0.86 3.53 0.94 5.46 4.78 2.49 4.95 3.79 5.73 6.74 4.03 2.01-1.16 2.77-3.12 1.69-4.37s-0.94-2.85 0.3-3.57c1.25-0.72 4.1 0.81 6.35 3.4 3.51 4.06 4.34 4.17 5.88 0.82 1.52-3.3 1.92-3.34 2.6-0.25 0.62 2.85 1.44 2.96 3.74 0.49 1.63-1.73 3.52-2.5 4.22-1.69 0.7 0.8 2.63 0.68 4.29-0.28 2.96-1.71 12.35-1.2 30.05 1.64 7.69 1.24 8.51 1.03 6.24-1.59z" />
      <path
         id="path1435"
         style="fill:#ff0000"
         d="m375.34 753.29c1.7-5.97 0.8-8.92-4.5-14.77-7.54-8.31-12.86-8.32-11.17-0.01l1.15 5.6-4.49-4.77c-3.16-3.34-5.59-4.14-8.16-2.65-2.55 1.47-2.5 2.83 0.14 4.45 2.09 1.28 3.25 3.18 2.58 4.21-0.68 1.04-3.13 0.24-5.46-1.76-5.9-5.07-11.95-2.82-7.46 2.77l3.52 4.38-8.12-3.24-8.13-3.23 2.35 6.57 2.34 6.58-7.35-3.12c-8.99-3.81-13.1-1.99-8.4 3.71l3.48 4.22-6.5-1.34c-3.57-0.74-7.83-0.58-9.46 0.36-1.63 0.95-2.03 3.47-0.88 5.61 2.02 3.77 1.88 3.82-4.57 1.51-6.9-2.47-15.89 0.16-9.95 2.91 4.86 2.25-0.17 4.21-6 2.33-6.72-2.16-10.12 0.09-6.49 4.29 2.87 3.3 2.72 3.36-6.41 2.57-10.98-0.96-15.77 1.03-10.41 4.33 4.49 2.76 2.21 4.65-4.53 3.75-6.68-0.89-9.24 1.1-6.1 4.73 2.23 2.58 1.72 3.24-3.07 4.04-7.85 1.33-9.36 2.46-5.6 4.21 2.55 1.18 1.59 2.12-4.7 4.62-6.82 2.72-7.37 3.38-4.04 4.93 2.87 1.32 2.78 2.06-0.32 2.88-2.54 0.67-3.45 1.96-2.31 3.27s0.24 2.61-2.27 3.27c-2.43 0.64-3.42 1.94-2.38 3.14 1.74 2.02-5.15 14.11-16.19 28.39-8.41 10.89-0.45 6.88 12.41-6.25 6.2-6.34 14.27-13.37 17.92-15.63s7.44-5.39 8.41-6.96c1.03-1.65 2.36-2.18 3.16-1.26 2.41 2.78 5.24-0.42 4.91-5.53l-0.32-4.91 1.64 4.15c0.91 2.28 2.61 3.59 3.79 2.91s2.4-3.68 2.71-6.67l0.58-5.42 1.7 4.11c0.94 2.26 2.72 3.53 3.96 2.81s2.61-3.8 3.05-6.86l0.79-5.55 1.6 4.17c2.24 5.86 6.99 2.53 9.1-6.38 1.49-6.3 1.76-6.58 2.19-2.21 0.75 7.73 5.07 6.17 6.9-2.47l1.64-7.75 2.38 5.42 2.38 5.42 3.26-8.53c3-7.83 7.31-9.87 4.72-2.22-0.63 1.83-0.18 3.39 1 3.45 2.84 0.16 9.01-8.31 7.4-10.16-0.69-0.8-0.12-2.12 1.28-2.93 1.74-1 2.27-0.21 1.67 2.49-1.5 6.82 3.61 4.57 6.52-2.86l2.77-7.09 1.38 4.31c1.7 5.33 5.02 3.68 6.99-3.48 0.82-2.96 2.51-5.97 3.75-6.69 1.25-0.72 1.66 0.91 0.91 3.62-2.53 9.17 3.96 8.07 7.89-1.34 2.12-5.07 2.19-5.08 2.45-0.28 0.32 5.93 1.66 5.4 6.54-2.56 3.64-5.95 3.68-5.96 3.89-1.11 0.17 4.02 0.8 4.55 3.55 2.96 1.84-1.06 3.39-2.97 3.44-4.25 0.14-3.65 4.14-5.03 4.87-1.68 0.97 4.43 2.3 2.86 4.68-5.53z" />
      <path
         id="path1433"
         style="fill:#ff0000"
         d="m620.09 591.52c-5.82-0.02-16.12 0.09-22.89 0.26s-13.73-0.83-15.47-2.23-5.56-1.93-8.49-1.18c-2.92 0.76-4.08 0.59-2.58-0.37 1.51-0.95 1.86-2.76 0.78-4-1.3-1.5-4.21-0.97-8.62 1.58-8.04 4.64-14.06 3.77-8.43-1.21 5.76-5.1 0.52-5.54-8.05-0.68-6.53 3.71-7.04 3.69-5.04-0.17 3.33-6.42 1.46-6.74-7.99-1.37-7.58 4.32-8.29 4.38-6.31 0.56 3.47-6.68 0.89-7.13-6.93-1.21-7.83 5.92-14.08 6.38-8.09 0.59 6.88-6.65 1.37-7.12-7.59-0.65-8.13 5.88-8.46 5.93-7.17 1.27 1.65-5.99-3.7-5.97-8.13 0.02-4.11 5.55-6.8 6.93-5.39 2.76 2.21-6.48-2.13-8.04-8.37-3.02-5.03 4.03-5.99 4.17-7.2 1.04-1.05-2.73-2.55-2.96-6.06-0.93-2.57 1.48-4.7 3.73-4.75 5.01-0.18 4.38-4.51 5.07-4.7 0.74-0.26-5.94-3.71-5.29-9.02 1.69-4.56 6.01-4.63 6.02-6.49 1.4-2.22-5.53-6.64-3.89-9.66 3.58-2.37 5.86-6.91 6.37-5.65 0.63 1.38-6.24-3.68-5-8.63 2.11-4.32 6.2-4.48 6.27-4.65 2.23-0.25-5.6-1.06-6.25-4.97-3.99-1.83 1.05-4.15 4.69-5.17 8.08l-1.86 6.17-3.34-6.57c-3.96-7.8-7.5-6.78-9.26 2.67l-1.22 6.53-3.37-6.19c-2.8-5.11-3.85-5.67-6.11-3.25-5 5.35-4.53 21.13 0.81 27.3 6.5 7.5 10.2 7.63 9.13 0.3l-0.84-5.79 3.78 4.04c4.46 4.78 8.43 3.41 6.28-2.15-0.83-2.14-0.16-4.06 1.49-4.26 1.64-0.2 3.57 1.15 4.29 3.01 0.71 1.85 3.74 3.33 6.73 3.28 4.7-0.08 5.21-0.66 3.8-4.3-1.55-4.02-1.3-4.07 5.4-1.22 8.21 3.48 12.97 1.76 9.02-3.27-2.35-2.98-1.65-3.05 4.71-0.45 8.85 3.61 10.17 3.18 8.98-2.92-0.52-2.66 0-3.67 1.24-2.42 1.18 1.19 3.99 2.63 6.24 3.19 3.52 0.87 4.21 0.31 4.9-3.97 0.79-4.86 0.9-4.88 4.26-1.12 4.78 5.34 8.48 5.06 8.23-0.62-0.19-4.54 0.08-4.56 5.79-0.58 5.7 3.98 6.02 3.95 6.74-0.65 0.72-4.63 0.89-4.67 4.19-0.85 4.31 4.97 9.21 4.57 9.24-0.75 0.01-3.37 0.72-3.23 4.33 0.84 4.45 5.01 9.51 4.5 8.34-0.85-1.11-5.07 3.16-5.61 7.23-0.91 4.93 5.69 10.33 5.09 9.13-1.02-0.83-4.2-0.39-4.12 4.04 0.78 5.7 6.29 10.74 6.65 10.76 0.77 0.02-3.48 0.53-3.46 3.69 0.09 4.16 4.66 7.96 3.55 7.99-2.35 0.02-3.45 0.48-3.46 3.47-0.12 4.34 4.87 7.7 5.11 9.73 0.69 1.22-2.65 2.1-2.84 3.85-0.82 1.47 1.7 3.18 1.62 4.91-0.22 1.64-1.76 3.4-1.95 4.65-0.51 1.41 1.63 3.11 1.26 5.71-1.26 2.12-2.05 4.3-2.89 5.1-1.96 0.76 0.89 2.85 0.77 4.63-0.26 1.77-1.02 12.14-3.44 23.02-5.36 23.68-4.18 25.9-5.16 11.88-5.23z" />
      <path
         id="path1431"
         style="fill:#ff0000"
         d="m367.63 719.47c3.84-11.31 2.83-14.4-6.44-19.67-7.93-4.51-17.06-5.51-13.58-1.49 0.78 0.9 0.4 2.23-0.85 2.94-1.24 0.72-3.4-0.01-4.8-1.62s-3.92-2.76-5.61-2.56c-1.69 0.21-1.86 1.78-0.38 3.49 3.58 4.14-0.56 6.32-5.09 2.68-4.51-3.62-11.19-1.86-7.8 2.06 4.28 4.94 1.58 6.72-6.81 4.49-10.14-2.7-14.35-0.57-7.84 3.97l4.89 3.41-7.18-2.09c-3.96-1.14-8.8-1.15-10.76-0.02-2.73 1.58-2.39 2.86 1.43 5.41l5 3.34-8.8-1.15c-10.89-1.41-16.56 1.25-10.6 4.99 3.8 2.39 3.39 2.51-3.98 1.16-4.51-0.82-9.14-0.95-10.28-0.29s-0.49 3.09 1.45 5.39c3.29 3.91 3.17 4.09-1.66 2.66-2.85-0.85-6.64-1.39-8.43-1.21-4.63 0.46-6.32 3.95-2.72 5.61 5.24 2.43-0.26 3.61-6.88 1.48-7.53-2.42-12.17-0.52-6.79 2.79 2.09 1.28 3.12 2.73 2.29 3.21-0.83 0.47-3.96 0.24-6.96-0.52-7.23-1.84-10.62 0.38-7.06 4.65 2.66 3.18 2.48 3.37-2.43 2.53-6.15-1.05-11.19 1.21-8.86 3.98 1.06 1.27 0.21 1.57-2.53 0.9-3.19-0.79-4.71-0.11-6.7 2.97-2 3.11-3.66 3.81-7.47 3.18-4-0.66-4.95-0.22-5.15 2.37-0.17 2.13-4.36 5.37-12.77 9.85-20.29 10.82-29.62 17.05-26.67 17.82 1.49 0.38 7.32-1.96 12.96-5.22 8.73-5.04 12.07-5.79 22.47-5.08 8.15 0.56 13.18-0.2 15.12-2.28 2.34-2.5 3.16-2.3 4.18 1.03 1.5 4.92 3.98 3.88 8.15-3.43 2.97-5.2 3.1-5.22 4.96-0.6 2.32 5.76 5.28 4.44 8.44-3.77 2.41-6.24 7.71-8.62 5.64-2.54-2.74 8.08 4.96 5.93 8.29-2.32 1.9-4.7 2.07-4.8 2.77-1.6 0.96 4.4 4.88 2.12 9.6-5.58 3.65-5.95 3.68-5.96 3.89-1.11 0.19 4.25 0.78 4.56 4.55 2.38 2.38-1.37 4.72-4.25 5.19-6.39s1.88-4.48 3.12-5.2c1.25-0.72 1.87 0.49 1.38 2.69-1.59 7.23 5.79 5.18 9.69-2.69l3.51-7.09 1.58 4.09c2 5.17 3.58 4.23 6.92-4.1 1.96-4.87 2.89-5.76 3.49-3.37 1.33 5.29 4.98 4 7.5-2.64l2.34-6.17 1.52 3.92c1.8 4.66 4.37 3.61 6.98-2.85 1.77-4.36 2.02-4.42 3.4-0.83 1.9 4.9 5.41 2.97 7.34-4.03 0.82-2.96 2.55-6 3.85-6.76 1.45-0.83 1.93-0.05 1.22 2.02-2.8 8.24 4.9 5.97 8.44-2.49 2.12-5.07 2.19-5.08 2.45-0.28 0.34 6.21 4.57 4.35 8.15-3.58 2.39-5.28 2.4-5.28 1.18 0.07-0.69 2.98-0.85 5.88-0.37 6.44 1.67 1.93 7.36-2.75 8.92-7.35z" />
      <path
         id="path1429"
         style="fill:#ff0000"
         d="m650.25 526.3c-7.13-8.66-19.29-16.77-28.19-18.8-2.88-0.65-5.52-2.45-5.85-3.98-0.34-1.53-1.81-2.09-3.27-1.25-1.63 0.94-3.12 0.04-3.84-2.32-0.8-2.62-2.66-3.48-5.76-2.66-3.32 0.87-4.09 0.46-2.8-1.51 2.5-3.85-3.35-4.81-9.09-1.49-4.74 2.73-4.78 2.69-2.37-1.99 2.13-4.13 1.83-4.71-2.25-4.33-2.59 0.25-7.29 1.88-10.45 3.63l-5.73 3.19 4.32-5.91c5.47-7.47 1.54-8.62-8.88-2.61l-8.04 4.65 2.65-6.2 2.65-6.2-11.44 7.55-11.43 7.55 1.78-5.95c0.98-3.27 1.37-6.41 0.88-6.98-1.42-1.64-9.91 3.91-13.71 8.95-3.34 4.45-3.4 4.42-2.06-0.68 2.09-7.97 0.11-8.3-9.25-1.54-8 5.79-8.44 5.88-7.22 1.47 1.48-5.38-0.65-8.89-4.15-6.87-1.31 0.76-4.49 4.15-7.07 7.54-4.91 6.45-8.32 6.19-5.28-0.41 4.32-9.38-5.07-6.41-11.16 3.53-3.67 5.99-3.68 5.99-3.9 0.93-0.31-7.08-3.49-6.53-10.19 1.75-6.25 7.71-7.13 7.85-6.82 1.05 0.32-7-3.98-5.59-9.68 3.18-5.44 8.36-7.73 8.58-6.44 0.62 1.24-7.59-3.65-6.66-9.38 1.78-5.53 8.14-9.43 10.42-6.33 3.71 2.08-4.51-0.65-8.73-4.29-6.63-1.37 0.79-4.34 4.75-6.6 8.79-4.44 7.93-4.07 8.12-6.17-3.12-0.75-4.05-6.82 0.65-10.55 8.17l-3.41 6.88-1.44-4.64c-0.8-2.55-1.71-5.77-2.02-7.14-0.94-4.14-5.64 0.05-8.06 7.19l-2.27 6.68-3.17-5.81c-4.69-8.59-8.54-5.42-10.34 8.53-0.61 4.69-0.81 4.71-4.68 0.44l-4.05-4.46-4.03 13.02c-4.25 13.74-3.25 15.58 11.93 22.06l5.64 2.41-2.95-5.09-2.94-5.1 7.2 3.63c10.66 5.37 16.21 2.89 7.61-3.39-7.61-5.56-4.26-6.32 5.45-1.24 9.09 4.76 14.2 2.6 8.99-3.8l-4.19-5.14 6.32 3.15c9.29 4.63 13.85 4.97 15.61 1.16 1.07-2.33 2.5-2.55 5.31-0.83 5.92 3.65 8.9 0.28 5.06-5.7l-3.46-5.37 6.77 3.87c8.64 4.93 12.51 3.75 11.06-3.36l-1.15-5.61 3.68 3.83c4.8 4.99 14.14 5.16 14.49 0.26 0.13-1.86-1.22-4.33-3-5.49-1.78-1.15-1.99-2.24-0.45-2.43 1.53-0.19 3.88 0.92 5.22 2.47 6.47 7.47 14.76 6.8 10.37-0.85l-2.68-4.67 6.04 3.87c7.05 4.53 10.51 3.38 9.25-3.08-0.92-4.75 1.68-3.54 6.19 2.86 1.3 1.85 4.68 3.32 7.52 3.27 5.49-0.09 5.67-0.86 2.03-8.98-0.97-2.15 0.23-1.65 2.98 1.26 9.16 9.66 21.82 9.04 13.41-0.67-2.11-2.44-2.85-5.01-1.64-5.71 1.2-0.7 4.18 1.41 6.6 4.68 5.18 7 12.07 5.12 9.3-2.54-1.36-3.76-0.56-3.45 4.09 1.61 6.06 6.58 10.85 6.58 8.84 0-1.92-6.27 1.84-6.24 5.79 0.05 3.92 6.26 8.44 5.76 8.47-0.93 0.02-3.4 0.55-3.38 3.69 0.14 3.96 4.45 6.61 4 8.45-1.41 0.92-2.7 1.76-2.22 3.92 2.26 2.66 5.51 7.47 5.89 7.68 0.6 0.17-4.4 3.73-4.41 5.91-0.02 2.22 4.48 7.28 3.81 6.38-0.85-0.27-1.4 1.24-0.68 3.36 1.6 2.3 2.47 4.46 3.2 5.37 1.8 1.79-2.75 21.11-1.03 28.98 2.58 3.01 1.38 9.89 5.05 15.3 8.16l9.84 5.65-6.81-8.27z" />
      <path
         id="path1427"
         style="fill:#ff0000"
         d="m633.76 542.16c-2.04-2.36-22.44-2.71-26.35-0.45-1.77 1.02-4.7 1.18-6.49 0.35-1.8-0.83-4.75-0.66-6.56 0.39-1.89 1.09-3.24 0.77-3.18-0.76 0.07-1.89-1.48-1.28-5.37 2.11-4.56 3.97-5.33 4.15-4.66 1.11 0.96-4.38-2.18-4.85-8.71-1.29-4.73 2.57-4.75 2.55-1.36-1.24 3.19-3.56 3.08-3.77-1.48-2.64-2.72 0.67-6.74 2.81-8.94 4.76-3.9 3.46-3.96 3.41-2.51-1.98 1.47-5.48 1.42-5.48-6.46 0.03-8.85 6.19-10.15 6.19-6.8 0.01 3.44-6.34-2.19-5.35-9.58 1.67-6.84 6.5-9.81 6.5-6.81-0.01 4.15-9-2.37-6.71-13.44 4.72-2.65 2.73-2.91 1.92-1.31-4.09l2-7.5-7.97 5.96c-7.55 5.64-7.91 5.7-6.65 1.15 0.73-2.65 0.93-5.27 0.44-5.82-1.34-1.56-9.87 3.89-13.26 8.48-2.12 2.86-3.45 3.61-4.42 2.48-0.77-0.88-0.21-2.88 1.25-4.44 5.32-5.69-0.05-5.92-7.46-0.31-7.02 5.31-7.35 5.35-6.1 0.81 0.73-2.65 0.93-5.27 0.45-5.82-1.37-1.58-9.89 3.92-13.38 8.63-3.05 4.12-3.12 4.07-2.68-1.85 0.53-7.08-2.51-6.09-9.51 3.12-5.24 6.89-7.2 6.55-5.15-0.89 1.98-7.18-3.07-6.32-8.48 1.45-5.17 7.42-8.74 8.61-7.38 2.45 1.34-6.1-3.02-5.04-7.17 1.75-4.13 6.73-8.12 7.85-6.81 1.92 1.71-7.77-3.88-6.34-7.62 1.95-3.97 8.77-5.45 9.34-5.11 1.94 0.32-7.04-4.56-5.58-8.99 2.69l-4.01 7.49-2.52-5.58c-3.1-6.88-9.07-4.58-10.05 3.86-0.62 5.37-0.68 5.37-3.42-0.29-2.74-5.67-5.17-5.91-8.29-0.84-3.39 5.51-1.81 18.97 2.85 24.37 5.23 6.05 9.19 5.71 9.22-0.79 0.02-3.42 0.53-3.41 3.61 0.05 4.68 5.25 10.08 4.5 8.73-1.21-0.99-4.21-0.71-4.24 4.55-0.51 5.6 3.98 12.59 2.57 11.64-2.34-0.29-1.53 0.5-1.53 1.98-0.01 3.68 3.79 9.74-0.77 6.52-4.9-2.11-2.71-1.27-2.67 3.64 0.16 7.88 4.55 14.36 1.57 9.75-4.49-2.89-3.78-2.55-3.76 2.66 0.13 7.12 5.33 16.52 3.17 11.96-2.74-2.33-3.04-1.69-3.05 3.81-0.1 7.61 4.08 13.4 2 10.37-3.72-1.62-3.05-0.6-2.89 4.63 0.72 6.89 4.74 12.4 4.46 8.63-0.45-1.33-1.73 0.06-1.7 3.76 0.09 5.66 2.74 11.4 2.04 8.72-1.07-0.72-0.83-0.29-2.09 0.95-2.81 1.25-0.72 3.71 0.35 5.46 2.37 1.76 2.03 4.58 3.52 6.27 3.32 1.69-0.21 2.15-1.44 1.03-2.73-3.1-3.58 1.68-5.19 5.74-1.93 4.53 3.63 10.27 2.04 8.55-2.37-0.87-2.24-0.07-2.06 2.46 0.54 4.77 4.93 10.06 7.4 12.66 5.9 1.11-0.64 0.85-2.52-0.59-4.19-1.44-1.66-1.6-3.61-0.35-4.32 1.24-0.72 3.99 0.69 6.11 3.13 4.87 5.62 10.94 5.1 8.79-0.75-1.55-4.23-1.42-4.26 3.42-0.69 5.34 3.92 13.23 3.35 9.72-0.71-1.14-1.31-1.05-2.98 0.19-3.69 1.25-0.72 3.74 0.39 5.54 2.46 3.72 4.3 11.42 1.52 7.87-2.84-1.57-1.92-0.2-2.06 4.78-0.49 7.9 2.49 12.41 1 9.21-3.06-1.51-1.92-0.53-2 3.33-0.28 3.65 1.63 5.52 1.52 5.59-0.32 0.15-3.68 22.05-10.77 38.21-12.37 6.48-0.63 11.13-1.91 10.33-2.84z" />
      <path
         id="path1425"
         style="fill:#ff0000"
         d="m360.73 675.04c1.2-6.35 0.26-8.32-6.72-14.12-4.46-3.71-9-6.23-10.08-5.6-1.09 0.63-1.06 2.2 0.06 3.49 1.12 1.3 0.66 2.53-1.03 2.73-1.69 0.21-4.19-0.9-5.54-2.47-3.72-4.3-8.8-2.68-7.6 2.42 1.05 4.45 1.01 4.46-3.99 1.32-6.16-3.88-9.39-2.43-7.74 3.46 1.19 4.28 1.11 4.31-3.21 0.91-5.7-4.48-12.34-2.84-10.39 2.57 1.38 3.82 0.96 3.9-6.43 1.29-9.27-3.27-12.42-2.21-9.41 3.17 1.99 3.56 1.54 3.66-6.06 1.23-10.03-3.21-13.81-1.5-9.11 4.13l3.5 4.2-6.97-2.2c-7.76-2.45-14.88 0.2-11.38 4.24 1.85 2.14 1.11 2.37-4.18 1.28-8.25-1.69-11.51 0.22-7.77 4.55 2.6 3.03 1.95 3.15-5.81 1.09-10.14-2.69-14.59-1.11-10.43 3.69l2.91 3.36-6.44-1.32c-7.81-1.6-11.56 0.16-8.31 3.92 3.95 4.56 1.65 6.4-6.43 5.14-9.19-1.43-13.79 0.66-8.55 3.88 4.49 2.76 2.21 4.65-4.53 3.75-2.63-0.35-6.3 0.24-8.15 1.31-2.06 1.19-2.09 2.53-0.1 3.45 3.63 1.68 0.71 4.3-3.56 3.19-4.36-1.13-10.15 3.15-6.53 4.83 2.52 1.17 1.61 2.11-4.32 4.47-6.25 2.49-6.91 3.27-3.94 4.64 2.62 1.22 2.41 1.96-0.82 2.81-2.42 0.64-5.07 3.15-5.89 5.58-0.83 2.44-5.18 7.61-9.68 11.5-18.35 15.88-22.46 20.11-20.1 20.73 1.48 0.38 4.3-1.31 7.01-4.19 5.82-6.2 30.31-18.66 33.46-17.03 1.61 0.84 3.06-0.4 4.44-3.82 1.89-4.65 2.23-4.87 4.22-2.57 2.83 3.27 6.42 1.08 6.67-4.07 0.17-3.52 0.41-3.5 1.74 0.13 2.12 5.75 5.75 3.08 7.24-5.31l1.23-6.94 2.83 5.72c3.61 7.31 7.75 5.25 7.2-3.58-0.23-3.61 0.15-6.89 0.84-7.29s2.35 1.7 3.69 4.67c3.06 6.79 6.6 5 7.99-4.05 0.58-3.76 1.79-6.05 2.69-5.08 0.89 0.97 0.97 2.77 0.17 4s-0.91 2.88-0.23 3.66c2.14 2.47 7.27-1.88 8.81-7.48 2.1-7.62 5.5-8.81 4.98-1.74-0.42 5.55-0.19 5.77 3.64 3.56 2.24-1.3 5.37-5.38 6.96-9.09 1.59-3.7 2.46-5.01 1.93-2.92-0.52 2.09-0.19 4.68 0.75 5.76 2.62 3.03 8.43-1.38 8.67-6.59 0.12-2.56 1.19-5.22 2.39-5.91 1.19-0.69 1.65 0.27 1.02 2.13-1.37 4.05 1.38 7.81 4.43 6.05 1.19-0.69 3.15-4.61 4.34-8.71 1.2-4.11 2.87-6.66 3.72-5.68s0.89 2.79 0.09 4.02c-0.8 1.24-0.91 2.88-0.23 3.66 2.14 2.48 7.27-1.88 8.81-7.48 2.11-7.66 5.5-8.8 4.97-1.67-0.61 8.2 3.38 7.76 8.01-0.89 4.67-8.71 7.46-10.72 5.62-4.03-1.85 6.72 2.66 6.49 6.86-0.36 3.27-5.34 3.47-5.4 4.64-1.56 1.48 4.84 3.88 3.81 6.56-2.83 2.36-5.82 6.92-6.38 5.66-0.69-1.24 5.65 4.34 2.19 6.97-4.32 1.09-2.69 2.62-4.15 3.41-3.24 0.79 0.92 0.78 2.67-0.02 3.9s-0.91 2.88-0.23 3.66c1.96 2.27 6.35-1.19 8.69-6.85 2.08-5.02 2.21-5.06 3.52-0.89 1.95 6.22 6.86 2.4 8.57-6.68z" />
      <path
         id="path1423"
         style="fill:#ff0000"
         d="m350.46 636.25c1.22-8.29-9.18-22.45-14.31-19.49-1.78 1.03-1.92 3.32-0.31 5.17 3.71 4.29-2.36 3.99-7.68-0.37-6.25-5.12-11.33-2.03-6.57 3.99 2.34 2.97 2.57 4.13 0.52 2.72-1.97-1.36-5.42-3.74-7.68-5.29-4.95-3.39-8.08 0.22-4.14 4.77 3.66 4.22-2.49 3.85-7.76-0.46-5.62-4.61-10.82-2.23-7.44 3.42l2.83 4.73-6.74-3.88c-8.97-5.16-13.38-3.48-10.12 3.87l2.64 5.95-6.15-3.24c-11.64-6.14-19.48-4.44-13.78 2.99 2.52 3.28 2.43 3.31-2 0.7-2.56-1.5-8.04-2.4-12.18-2-7.51 0.73-7.51 0.74-1.83 4.78 7.12 5.04 5.85 5.95-3.77 2.71-9.7-3.26-12.85-1.22-7.87 5.11 2.61 3.3 2.7 4.23 0.27 2.68-4.21-2.7-14.36-4.18-17.24-2.51-1.06 0.61-0.34 3 1.59 5.31l3.51 4.21-6.98-2.21c-3.84-1.21-7.97-1.63-9.17-0.93-1.21 0.7-0.62 3.16 1.31 5.47l3.51 4.21-6.98-2.21c-6.94-2.19-15 0.06-12.12 3.39 0.91 1.04-1.03 1.7-4.8 1.63-3.48-0.06-6.6 0.71-6.94 1.71-0.33 1-3.15 1.87-6.26 1.92-4.25 0.08-5.47 0.69-4.98 2.47 0.52 1.86-0.68 2.56-5.59 3.23-4.82 0.67-6.12 1.4-5.67 3.23 0.32 1.31-1.21 2.84-3.4 3.42-2.18 0.57-3.28 1.84-2.44 2.81 0.84 0.96-0.07 1.95-2.02 2.19-1.94 0.24-3.83 2.03-4.19 3.98-0.36 1.96-3.16 6.85-6.22 10.86-6.86 9-13.33 22.27-10.93 22.41 0.98 0.05 5.6-4.77 10.28-10.71 8.3-10.54 22.65-21.61 24.8-19.13 0.59 0.68 2.6 0.36 4.47-0.72s3.88-0.96 4.46 0.25c1.17 2.42 5.51 0.06 10.99-5.95 3.12-3.42 3.39-3.35 2.57 0.59-1.19 5.72 3.2 5.93 6.82 0.31 3.95-6.14 5.26-6.47 5.48-1.38 0.16 3.7 0.9 4.01 4.53 1.92 2.38-1.38 4.72-4.26 5.19-6.4 1.25-5.69 4.96-7.02 5.19-1.86 0.15 3.67 0.89 4.02 4.29 2.05 2.26-1.3 5.51-4.82 7.21-7.81 3.01-5.27 3.1-5.29 2.89-0.64-0.34 7.29 4.46 6.03 8.94-2.35 3.74-6.98 4-7.17 4.19-2.97 0.25 5.83 1.03 6.56 4.72 4.43 1.67-0.96 3.71-4.19 4.53-7.16 1.81-6.58 4.42-6.92 4.7-0.62 0.17 3.95 0.84 4.24 4.73 1.99 2.49-1.44 4.44-4.61 4.34-7.04-0.11-2.43 0.95-5.08 2.34-5.88 1.43-0.83 1.95 0.68 1.18 3.46-0.75 2.71-0.96 5.38-0.48 5.94 1.95 2.25 8.68-3.8 11.13-10l2.6-6.6 0.3 5.12c0.4 6.88 3.44 6.62 7.92-0.68 2.02-3.3 4.74-5.95 6.02-5.88 1.29 0.08 1.14 1.82-0.33 3.88-1.47 2.07-2.11 4.4-1.42 5.19 2.09 2.42 7.25-1.79 10.68-8.71 3.64-7.35 5.94-6.99 3.84 0.61-2.07 7.54 2.95 6.15 7.33-2.03 4.23-7.9 6.51-8.01 4.36-0.2-1.18 4.29-0.91 4.67 2.11 2.93 1.91-1.11 3.86-3.76 4.33-5.9 1.26-5.69 4.96-7.02 5.19-1.86 0.24 5.61 4.76 3.46 7.63-3.63 2.17-5.35 5.19-4.1 3.33 1.38-0.89 2.63-0.39 2.94 2.28 1.4 1.88-1.09 3.87-5.04 4.42-8.79z" />
      <path
         id="path1421"
         style="fill:#ff0000"
         d="m642.11 465.48c-1.29-1.49-7.59-3.72-13.99-4.94-6.41-1.22-14.14-3.83-17.19-5.8-3.04-1.96-7.22-3.45-9.28-3.3-2.78 0.2-3.11-0.43-1.31-2.41 1.8-1.96 0.53-2.37-4.73-1.54-3.95 0.62-5.93 0.37-4.4-0.56 4.8-2.91-0.53-5.97-6.75-3.88-5.62 1.88-5.78 1.78-3.13-2.12 2.26-3.32 1.98-4.02-1.44-3.63-2.34 0.27-6.82 1.92-9.97 3.68l-5.73 3.19 3.51-4.9c4.31-6.01 0.85-6.5-8.51-1.19-6.75 3.83-6.92 3.79-4.47-0.9 2.18-4.2 1.89-4.82-2.08-4.36-2.54 0.29-7.25 1.91-10.46 3.6-4.2 2.21-4.86 2.21-2.36 0 5.57-4.91-0.7-5.94-8.52-1.4-3.92 2.28-7.58 3.62-8.13 2.99-0.54-0.63 0.03-1.73 1.28-2.45 1.24-0.72 1.67-1.99 0.95-2.82s-4.27 0.2-7.89 2.29c-5.62 3.25-6.81 3.22-8.12-0.19-1.45-3.74-2.07-3.59-10.13 2.48-8.16 6.15-8.57 6.25-8.37 1.89 0.29-6.27-4.1-6-10.37 0.65-4.81 5.09-5.24 5.21-5.4 1.45-0.28-6.42-6.39-4.26-10.7 3.79-4.02 7.5-5.22 7.74-5.51 1.1-0.26-6.06-5.12-4.49-8.74 2.82-4.04 8.15-5.13 8.64-9.08 4.08-3.59-4.15-10-2.07-8.92 2.89 1.13 5.18-3.83 5.92-7.94 1.18-4.68-5.4-8.37-3.8-11.86 5.15l-2.57 6.58-2.67-5.82c-3.26-7.1-9.1-5-10.4 3.74l-0.83 5.57-2.13-4.86c-2.8-6.39-7.58-5.59-10.05 1.68l-1.98 5.81-1.86-4.64c-2.42-6.02-8.64-2.88-9.52 4.8l-0.62 5.4-2.91-3.36c-3.86-4.46-6.83-2.41-8.36 5.76-0.94 5.07 0.64 8.87 6.53 15.67 5.55 6.41 8.43 8.35 10.02 6.77 1.23-1.21 1.39-4.2 0.36-6.62-1.65-3.89-1.39-4.2 2.12-2.57 2.2 1.01 5.12 3.15 6.5 4.74 3.61 4.17 7.35 1.11 6.01-4.92-1.22-5.51 3.52-7.62 7.3-3.25 1.26 1.45 4.89 3.12 8.07 3.71 5.7 1.05 5.76 1.01 4.67-2.83-0.61-2.15-1.47-5.22-1.91-6.83-0.51-1.9 2.95-1.51 9.84 1.12l10.63 4.05-3.44-5.38c-4.36-6.83-1.63-8.48 6.36-3.85 8.16 4.73 14 3 9.36-2.77l-3.52-4.39 7.47 3.05c8.8 3.6 11.48 2.61 10.82-3.97l-0.49-4.82 3.02 3.22c3.76 4.01 9.45 3.56 8.52-0.68-1.13-5.22 3.11-5.78 7.29-0.95 4.61 5.33 8.67 3.98 6.93-2.3-1.15-4.19-0.97-4.22 3.86-0.72 6.36 4.61 11.59 3.27 9.71-2.5-1.38-4.23-1.23-4.27 4.93-1.23 8.57 4.23 9.04 4.16 9.94-1.38 0.73-4.54 1.03-4.53 5.1 0.05 4.81 5.42 9.2 4.55 7.36-1.45-1.63-5.33 4.13-5.6 6.27-0.29 1.95 4.86 8.78 5.14 7.72 0.32-1.16-5.35 3.15-5.72 7.55-0.65 3.26 3.76 4.44 4.08 5.33 1.45 1.77-5.19 4.47-5.83 7.9-1.86 2.18 2.51 4.28 2.84 6.91 1.11 2.81-1.86 4.39-1.46 6.15 1.55 1.87 3.2 2.98 3.39 5.32 0.88 2.05-2.19 4.13-2.45 6.75-0.84 2.08 1.28 4.3 1.54 4.93 0.57 0.62-0.96 2.66-1.04 4.53-0.18 1.86 0.87 4.05 0.56 4.86-0.68 0.8-1.25 2.1-1.52 2.89-0.62 0.78 0.91 6.8 1.68 13.37 1.71 6.57 0.04 12.77 1.02 13.78 2.18 1 1.16 2.77 1.56 3.94 0.88 1.16-0.67 3.93-0.23 6.16 0.98 5.05 2.72 9.1 0.69 5.92-2.98z" />
      <path
         id="path1419"
         style="fill:#ff0000"
         d="m344.63 603.08c1.36-4.93-9.34-22.64-13.83-22.89-1.14-0.07-2.54 2.49-3.1 5.67l-1.04 5.8-2.85-5.72c-3.13-6.28-7.64-5.63-7.84 1.13-0.1 3.3-0.51 3.15-2.26-0.8-1.17-2.66-4.15-5.44-6.62-6.19-3.94-1.19-4.46-0.41-4.24 6.25l0.25 7.61-6.26-6.02c-6.95-6.69-10.08-6.4-9.35 0.87 0.45 4.4 0.06 4.34-4.57-0.76-5.77-6.36-8.77-5.69-9.65 2.17-0.6 5.38-0.68 5.38-5.64-0.14-5.16-5.75-12.01-5.07-10.67 1.07 1.13 5.18-3.83 5.92-7.94 1.18-4.25-4.9-12.46-2.86-8.61 2.14 1.17 1.5-1.17 1.13-5.19-0.83-8.92-4.35-13.49-3.36-11.62 2.51 1.32 4.14 1.04 4.18-5 0.72-6.99-4.01-14.66-1.66-10.45 3.2 3.85 4.46 0.01 5.5-7.42 2.01-8.1-3.81-12.01-1.82-8.24 4.2l2.86 4.57-7.27-2.53c-8.8-3.07-12.7-1.42-9.53 4.02 2.29 3.92 2.14 3.97-6.04 1.79-10.36-2.76-14.1-0.93-9.51 4.64l3.48 4.23-6.5-1.35c-7.34-1.52-15.14 1.66-9.96 4.05 3.62 1.68 0.7 4.3-3.57 3.19-4.91-1.27-10.07 3.19-5.92 5.12 3.04 1.42 2.91 1.73-0.69 1.53-5.29-0.28-14.13 4.31-10.23 5.32 1.57 0.41 0.78 1.19-1.9 1.9-2.52 0.66-4.62 2.36-4.68 3.77-0.05 1.41-7.08 9.45-15.61 17.87-8.536 8.41-16.863 17.26-18.508 19.66-4.025 5.87 0.782 5.86 5.126-0.01 4.416-5.97 34.682-26.59 36.292-24.72 0.66 0.76 2-0.34 2.97-2.46 1.46-3.16 2.18-3.38 4.05-1.22 2.11 2.45 2.51 2.24 5.75-3.05 2.96-4.83 3.57-5.22 4.14-2.65 0.74 3.42 7.61 0.46 7.76-3.34 0.16-4.09 3.88-4.66 5.36-0.83 1.93 4.97 6.05 2.26 7.03-4.62l0.79-5.56 1.45 4.26c1.76 5.18 6.12 3.24 10.68-4.76 3.05-5.34 3.15-5.37 3.35-0.8 0.17 3.95 0.82 4.35 4.07 2.48 2.12-1.23 4.75-4.43 5.84-7.12 2.21-5.47 5.09-4.07 3.39 1.64-0.88 2.99-0.38 3.03 2.77 0.25 2.11-1.87 5.42-5.12 7.35-7.2 3.37-3.66 3.46-3.6 2.16 1.5-0.75 2.92-0.96 5.77-0.48 6.32 1.39 1.61 9.67-3.8 9.77-6.38 0.05-1.27 1.25-2.99 2.68-3.81 1.86-1.07 2.26-0.55 1.43 1.89-0.63 1.86-0.68 3.93-0.1 4.59 1.51 1.74 9.82-3.44 9.93-6.19 0.05-1.27 1.23-2.97 2.62-3.77 1.39-0.81 1.6 1.62 0.48 5.38l-2.05 6.85 6.91-3.99c3.8-2.2 7.3-5.74 7.77-7.89 0.47-2.14 1.93-4.51 3.24-5.26 1.31-0.76 1.53 1.47 0.49 4.96-1.05 3.49-1.5 6.8-1.01 7.37 1.61 1.86 9.03-3.57 11.57-8.45 4.3-8.24 6.75-7.65 4.06 0.99-2.34 7.47-2.15 8.03 1.93 5.68 2.49-1.44 5.64-4.75 7-7.37 4.25-8.17 9.09-9.4 6.8-1.73-1.76 5.87-1.49 6.52 1.89 4.57 2.17-1.25 5.36-4.2 7.1-6.55 4.71-6.37 7.52-4.95 4.46 2.24l-2.69 6.29 5.03-4.01c2.77-2.2 7.19-5.92 9.83-8.26l4.81-4.27-2.53 6c-2.84 6.76 1.93 7.55 6.69 1.11 1.68-2.27 4.85-5.17 7.04-6.43 3.6-2.08 3.74-1.86 1.44 2.38-3.29 6.06 1.17 6.34 5.6 0.35 4.14-5.59 7.7-5.82 6.51-0.41-1.34 6.08 5.41 1.42 7.17-4.95z" />
      <path
         id="path1417"
         style="fill:#ff0000"
         d="m654.6 401.43c-1.07-1.25-10.75-1.44-32.64-0.65-4.6 0.16-9.11-0.54-10.02-1.58-0.92-1.03-2.65-1.3-3.86-0.6-1.2 0.69-2.49-0.09-2.85-1.75-0.42-1.94-2-2.25-4.4-0.86-2.3 1.33-4.36 0.99-5.36-0.87-1.22-2.27-2.88-2.15-6.68 0.48-4.03 2.81-4.9 2.81-4.28 0 0.99-4.5-2.38-4.66-9.82-0.45-5.39 3.04-5.7 2.96-3.67-0.96 3.43-6.61 1-7.08-7.12-1.37-4.93 3.46-7.08 4.25-6.44 2.38 0.53-1.55 0.13-3.78-0.89-4.95-1.42-1.64-3.57-0.77-9.39 3.82-7.53 5.93-7.54 5.93-6.01 0.37 1.42-5.17 1.19-5.49-3.18-4.34-2.59 0.69-5.2 2.68-5.8 4.44-0.6 1.75-2.1 3.78-3.35 4.5-1.26 0.73-1.75-0.2-1.12-2.08 2.09-6.14-1.1-6.24-8.68-0.26-6.69 5.27-7.36 5.44-6.54 1.71 1.32-6-3.07-5.37-9.4 1.33-5.25 5.57-5.4 5.6-4.07 0.78 1.72-6.27-3.07-5.96-9.22 0.59-4.43 4.72-8.6 4.61-5.51-0.14 0.8-1.23 0.9-2.88 0.22-3.66-1.64-1.91-12.26 4.34-12.38 7.28-0.05 1.27-1.26 2.99-2.68 3.81-1.86 1.07-2.26 0.55-1.43-1.89 0.63-1.86 0.31-4.34-0.71-5.52-1.82-2.11-4.67-0.28-11.57 7.43-2.67 2.98-3.39 2.78-5.06-1.36-2.25-5.59-6.83-4.06-10.84 3.64-3.78 7.27-6.36 7.77-5.87 1.15 0.38-5.11-0.12-5.81-3.58-4.9-2.22 0.59-5.45 2.98-7.19 5.32-5.24 7.1-8.11 7.54-7.64 1.19 0.42-5.64 0.23-5.79-4.16-3.26-2.53 1.46-5.19 5.8-5.91 9.64-0.94 5.04-1.6 5.89-2.35 3.06-3.38-12.75-5.87-12.62-11.88 0.62-3.95 8.72-3.88 8.75-5.93-2.23-0.91-4.89-8.71 2.18-10.35 9.37l-1.63 7.17-3.57-6.67c-3.41-6.39-3.7-6.49-6.88-2.19-6.69 9.05 0.34 26.99 11.64 29.7 3.24 0.77 3.37 0.07 0.6-3.18-4.97-5.82-0.79-7.32 7.81-2.81 9.12 4.78 13.62 2.59 6.24-3.03l-5.5-4.19 8.54 3.56c10.09 4.2 13.82 2.99 9.04-2.95l-3.43-4.25 6.89 3.35c8.54 4.14 12.92 2.91 9.66-2.72-2.27-3.94-1.93-3.97 4.71-0.45 8.34 4.42 12.75 2.99 9.25-3-2.32-3.98-2.04-4.03 5.62-0.98l8.07 3.2-2.37-5.43c-2.08-4.8-1.86-5.19 1.93-3.38 16.11 7.72 19.59 7.5 16.52-1.04l-1.85-5.17 5.15 3.64c6.95 4.91 12.95 2.94 8.37-2.76-2-2.48-2.12-3.72-0.28-2.85 1.78 0.84 5.66 2.68 8.62 4.08 4.95 2.36 5.42 2.22 5.99-1.73 0.74-5.09 4.13-5.33 8.25-0.58 3.97 4.58 9.93 3.65 8.03-1.26-2.17-5.61 1.77-6.87 7.9-2.52 5.42 3.85 10.8 3.25 7.28-0.81-1.08-1.24-0.94-2.85 0.31-3.57 1.24-0.72 3.6 0.21 5.24 2.07s4.86 3.82 7.17 4.35c3.5 0.82 3.94 0.29 2.66-3.2-1.93-5.23 2.84-6.08 7.02-1.25 3.74 4.32 9.59 4.11 8.62-0.31-1.14-5.22 3.11-5.77 7.29-0.95 2.16 2.5 4.94 3.95 6.19 3.23 1.24-0.72 1.67-1.99 0.95-2.82-3-3.47 3.07-3.51 7.94-0.05 6.18 4.37 11.17 2.67 7.21-2.47-2.64-3.43-2.59-3.45 2-0.75 5.11 3.02 12.35 2.09 9.63-1.24-1.06-1.3 0.03-1.57 2.98-0.73 2.56 0.73 5.2 0.49 5.87-0.54s2.66-1.2 4.43-0.38 4.25 0.38 5.52-0.98c1.26-1.35 12.43-3.7 24.81-5.22 24.23-2.97 24.94-3.13 23.17-5.17z" />
      <path
         id="path1415"
         style="fill:#ff0000"
         d="m335.34 566.8c5.48-7.17 5.93-16.08 1.25-24.49-4.43-7.96-8.82-7.77-10.59 0.46-0.92 4.23-1.05 4.27-1.99 0.58-2.08-8.16-4.73-12-7.26-10.53-1.43 0.82-2.09 3.75-1.47 6.51 1.68 7.56-1.2 7.49-5.27-0.12-2.21-4.15-4.87-6.6-6.9-6.35-1.81 0.22-2.78 0.99-2.15 1.71 0.62 0.72 0.75 3.51 0.28 6.2-0.79 4.51-1.18 4.33-5-2.34-4.79-8.38-6.88-8.23-6.74 0.49 0.09 6.1 0.03 6.07-4.7-1.82-5.16-8.61-9.63-8.81-10.01-0.45-0.3 6.62-3.33 7.54-4.69 1.43-0.63-2.83-1.7-5.79-2.37-6.56-2.11-2.44-7.79 2.19-7.81 6.36-0.02 3.15-1.18 2.66-5.65-2.41-5.88-6.66-10.7-6.71-8.68-0.08 1.94 6.33-2.51 6.57-5.93 0.31-4.1-7.51-10.24-6.94-9.18 0.85l0.79 5.84-6.22-5.23c-7.51-6.3-13.56-5.23-10.7 1.89 2.06 5.13 2.04 5.13-5.66 0.6-8.47-4.98-12.53-3.83-9.99 2.85 1.71 4.49-1.36 4.03-8.12-1.22-4.71-3.66-10.56-1.17-6.97 2.97 3.42 3.95-1.72 4.33-6.88 0.5-4.06-3.01-10.84-1.34-7.98 1.96 1.14 1.32 1.05 2.98-0.19 3.7-1.25 0.72-3.12 0.33-4.15-0.87-2.59-2.99-8.7-1.97-8.84 1.47-0.08 2.03-1.13 2.34-3.8 1.1-2.85-1.32-4.06-0.91-5.31 1.8-1.24 2.7-2.4 3.16-4.94 1.98-4.54-2.11-8.52 0.54-5.74 3.82 1.31 1.55 0.99 2.41-0.76 2.06-1.66-0.33-6.09 1.15-9.85 3.29-3.76 2.13-13.11 6.79-20.77 10.34-9.048 4.2-13.47 7.02-12.596 8.03 1.454 1.68 7.214 0.44 25.576-5.48 6.46-2.08 15.41-3.58 19.9-3.33 4.49 0.26 10.21-0.72 12.72-2.17 3.13-1.8 4.77-1.68 5.22 0.39 0.79 3.59 4.65 1.69 9.44-4.63 3.21-4.24 3.31-4.04 1.42 2.89l-2.03 7.46 4.93-4.11c2.72-2.26 7.09-6.04 9.73-8.39l4.79-4.27-2.99 6.29c-3.94 8.29 0.81 8.3 8.81 0.02 7.15-7.39 11.75-8.73 6.74-1.96-1.79 2.43-2.4 5.41-1.35 6.63 2.54 2.93 3.87 1.97 9.69-6.99 2.7-4.15 5.53-6.84 6.28-5.97s-0.04 3.49-1.76 5.81c-1.73 2.33-2.57 4.89-1.87 5.69 1.66 1.93 10.03-2.97 10.15-5.94 0.05-1.27 1.2-2.96 2.57-3.75s1.85 0.87 1.07 3.69c-1.78 6.46 3.02 6.09 9.44-0.74 5.87-6.25 9.25-6.63 4.74-0.53-4.14 5.6-2.11 8.12 3.79 4.71 2.68-1.54 5.4-1.61 6.67-0.15 1.74 2.02 3.7 1.33 10.71-3.74 8.03-5.8 8.4-5.88 5.74-1.22-4.49 7.89-1.04 8.99 7.7 2.44 5.76-4.32 7.05-4.82 5.08-1.98-4.51 6.47-0.42 7.38 7.66 1.71l7.55-5.3-2.79 5.88-2.79 5.89 8.85-6.46c9.95-7.24 12.54-7.25 5.74-0.01-6.83 7.27-0.06 7.54 9.45 0.38 9.05-6.83 11.51-6.67 4.95 0.32-2.43 2.59-3.82 5.4-3.08 6.25 1.73 2 9.84-2.69 13.72-7.95 3.58-4.84 6.2-3.04 3.65 2.51-1.87 4.06-0.62 7.18 2.21 5.49 0.92-0.55 3.4-3.26 5.51-6.01z" />
      <path
         id="path1413"
         style="fill:#ff0000"
         d="m644.99 369.16c-1.09-5.02-16.47-9.03-41.88-10.91-4.36-0.32-5.71-1.29-4.94-3.54 0.77-2.26-0.74-2.07-5.52 0.69-5.14 2.97-6.31 3.05-5.41 0.38 0.91-2.66-0.31-3.17-5.6-2.35-3.72 0.59-5.51 0.31-3.98-0.62 1.54-0.93 2.2-2.37 1.48-3.2s-5.15 0.67-9.84 3.34c-7.59 4.32-8.29 4.38-6.31 0.57 3.32-6.42 1.45-6.75-7.81-1.4-7.78 4.48-8.18 4.49-5.82 0.14 2.44-4.5 2.28-4.58-4.45-2.18-3.84 1.38-7.67 3.57-8.52 4.87-0.85 1.31-2.1 1.73-2.78 0.94-0.69-0.8-0.01-2.77 1.51-4.39 5.15-5.51-2.97-4.66-10.68 1.12-6.55 4.92-7.04 5.04-3.87 0.96 5.71-7.35 2.3-7.73-9.39-1.03l-10.79 6.18 3.14-6.16c2.59-5.07 2.38-5.95-1.2-5.01-2.39 0.63-6.59 3.53-9.32 6.44-6.14 6.53-9.32 6.77-5.21 0.38 1.67-2.59 2.59-5.23 2.04-5.87-1.5-1.73-9.89 3.65-13.8 8.85-3.34 4.44-3.41 4.42-2.07-0.69 0.76-2.89 0.99-5.72 0.51-6.28-1.68-1.94-11.22 4.98-14.29 10.36-4.21 7.38-7.85 6.61-5.52-1.17 1.04-3.48 1.49-6.79 1-7.36-1.88-2.17-9.48 4.12-12.61 10.42-3.37 6.8-7.11 6.68-3.97-0.14 0.97-2.11 1.25-4.44 0.62-5.16-2.2-2.55-7.62 2.46-11.18 10.33-2.55 5.65-4.13 7.3-5.5 5.72-1.05-1.22-1.12-3.95-0.15-6.06 2.12-4.59-0.73-8.64-4.54-6.44-1.49 0.86-4.09 5.17-5.79 9.57-3.17 8.26-4.63 7.6-6.57-3-0.94-5.13-4.54-2.27-7.85 6.23-3.57 9.18-4.6 9.77-5.47 3.15-1.16-8.89-5.94-6.12-8.81 5.1l-2.72 10.63-3.98-7.33c-4.84-8.92-8.24-7.77-9.53 3.23-0.5 4.35-1.48 9.64-2.17 11.78-1.31 4.08 5.21 9.58 12.52 10.56 6.18 0.82 8.75-1.69 4.23-4.13-6.79-3.67-2.07-3.87 6.34-0.27 10.42 4.45 14.1 2.12 6.25-3.96-4.41-3.41-5.13-4.86-2.57-5.17 1.95-0.24 4.87 1.09 6.48 2.95 2.97 3.43 9.86 4.82 13.5 2.72 1.1-0.63-0.63-2.95-3.84-5.15-7.03-4.83-2.52-5.1 6.47-0.39 9.01 4.71 15.56 2.46 8.75-3.01-2.82-2.27-4.29-4.61-3.26-5.2 1.03-0.6 2.99 0.2 4.34 1.77 1.36 1.57 5.96 3.25 10.21 3.73l7.74 0.89-5.7-5.21c-7.3-6.66-4.94-8.12 4.02-2.49 9.14 5.73 15 3.97 9.46-2.84-4.03-4.97-3.89-4.97 4.27 0.01 11 6.73 16.79 5.16 10.41-2.82-2.61-3.27-3.14-4.83-1.17-3.47 1.96 1.35 5.38 3.71 7.6 5.23 5.46 3.76 8.38 1.58 6.78-5.04l-1.33-5.47 4.8 5.16c5.71 6.16 13.38 8.93 12.01 4.33-0.47-1.56-1.23-4.15-1.68-5.76-0.46-1.61 0.82-1.15 2.84 1.01 7.67 8.21 15.06 8.61 12.85 0.69-1.15-4.09-0.91-4.12 3.6-0.38 8.8 7.29 11.46 7.56 10.4 1.07l-0.97-5.96 6.9 5.37c8.29 6.46 11.38 5.38 8.82-3.11l-1.89-6.27 3.92 4.12c2.15 2.27 6.3 4.89 9.23 5.83 5.18 1.67 5.29 1.56 4.41-4.4l-0.9-6.1 4.14 4.4c2.28 2.43 5.96 4.86 8.19 5.42 3.29 0.82 3.83 0.09 2.88-3.93-1.16-4.92-1.14-4.92 4.71-0.97 6.4 4.34 10.43 3.63 8.45-1.48-0.97-2.5-0.54-2.52 1.88-0.08 4.19 4.23 8.89 3.4 8.91-1.57 0.02-3.59 0.37-3.64 3.17-0.51 2.08 2.33 3.96 2.66 5.53 0.99 4.38-4.69 24.99-6.17 35.94-2.58 7.54 2.48 10.38 2.58 9.9 0.38z" />
      <path
         id="path1411"
         sodipodi:nodetypes="cssscccssscccscccssssssscccsssssssssssssssssssssssssssssssssscccccccssssssscccc"
         style="fill:#ff0000"
         d="m336.24 514.49c3.32-4.23 2.12-25.32-1.47-25.52-1.1-0.06-2.97 2.3-4.17 5.25-2.39 5.92-4.4 4.87-6.2-3.24-1.7-7.64-6.63-8.06-8.1-0.69l-1.21 6.1-4.1-7.26c-3.21-5.68-4.81-6.85-7.35-5.38-1.79 1.03-3.06 4.06-2.83 6.73 0.36 4.07-0.25 3.69-3.8-2.34-4.74-8.04-8.34-7.67-9.58 1.01l-0.8 5.55-1.89-4.57c-1.04-2.51-2.43-6.04-3.08-7.85-1.79-4.96-5.5-1.58-6.76 6.17l-1.12 6.88-4.14-7.24c-4.63-8.09-8.34-7.76-9.31 0.84-0.6 5.33-0.74 5.31-6.29-0.9-4.13-4.61-6.61-5.81-9.08-4.39-1.87 1.08-2.44 3.2-1.28 4.71 1.18 1.52-0.91 1.29-4.7-0.52-9.34-4.48-12.72-4.31-10.85 0.53 2.57 6.66-2.02 6.87-7.66 0.36-6.05-6.99-10.27-5.89-8.96 2.35l0.9 5.7-5.69-5.2c-6.39-5.85-10.55-4.99-9.2 1.91 0.86 4.4 0.75 4.42-2.85 0.51-4.25-4.62-8.04-3.5-8.07 2.39-0.01 3.3-0.76 3.14-4.34-0.89-4.27-4.81-9.01-4.8-7.89 0.02 0.33 1.4-2.16 1.27-5.62-0.28-3.41-1.53-6.82-1.84-7.58-0.68-0.75 1.16-3.47 1.52-6.05 0.8-3.84-1.08-4.72-0.73-4.93 1.97-0.2 2.59-1.15 2.78-4.57 0.94-2.38-1.29-5.43-1.2-7.16-0.7-11.55 3.32-32.13 6.89-41.199 6.77-1.625-0.02-1.042 3.24 1.376 3.17 6.853-0.17 38.213 4.78 38.673 6.38 0.82 2.87-0.84 2.94 3.95 2.13 3.26-0.55 6.21-1.38 6.55-1.84 0.33-0.46-0.08 0.77-0.93 2.73-2.11 4.91 2.97 5.75 10.49 1.72 3.93-2.1 5-2.24 2.88-0.36-5.99 5.3-1.19 5.91 7.64 0.97 7.85-4.39 8.27-4.41 4.91-0.22-5.45 6.78-2.57 7.78 6.82 2.36 8.1-4.68 8.24-4.67 6.81 0.55-1.24 4.5-0.84 5.17 2.58 4.27 2.23-0.59 6.17-3.33 8.77-6.1 5.4-5.74 7.39-5.2 4.11 1.13-1.96 3.78-0.99 3.6 8.05-1.5 8.11-4.57 9.72-4.99 7.64-1.96-1.44 2.1-2 4.55-1.23 5.44 1.36 1.57 6.69-2.04 13.91-9.44 2.5-2.55 2.53-1.52 0.1 3.37-4.18 8.42 0.95 8.92 9.61 0.94 5.43-5 5.6-5 4.27-0.17-1.68 6.09 3.62 6.16 8.1 0.1 5.19-7.01 8.71-7.8 7.09-1.58l-1.5 5.74 6.86-5.46 6.87-5.46-1.54 5.73-1.54 5.72 7.94-5.55c8.69-6.07 11.71-5.63 6.81 0.99-5.51 7.45-0.98 8.06 8.65 1.17 8.53-6.1 8.79-6.15 5.83-1.12-4.87 8.28-1.48 9.04 8.44 1.9 7.6-5.48 8.56-5.8 6.62-2.17-1.26 2.33-1.54 5.09-0.64 6.13 1.61 1.86 4.41-0.04 11.77-7.99 2.81-3.03 2.94-2.49 0.64 2.7l-2.88 6.49 5.62-3.32c3.09-1.83 7.08-5.17 8.86-7.43z" />
      <path
         id="path1409"
         style="fill:#ff0000"
         d="m642.85 301.54c-1.56-1.82-13.8-0.11-25.77 3.58-11.91 3.68-16.92 4.02-19.26 1.31-0.86-1-4.07-0.7-7.12 0.66-3.06 1.37-5.52 1.51-5.47 0.33 0.05-1.19-1.9-1.01-4.33 0.39-2.74 1.59-5.12 1.52-6.29-0.17-1.12-1.62-4.56-1.84-8.49-0.54-3.63 1.2-5.39 1.38-3.9 0.4 5.93-3.92-0.41-4.54-7.43-0.73-4.15 2.25-5.96 2.7-4.04 1.01 5.7-5.03-0.87-5.87-8.49-1.09-6.38 3.99-6.83 4-4.7 0.04 2.24-4.17 2.12-4.32-2.54-3.1-2.7 0.7-7.15 3.06-9.91 5.24-5.43 4.3-8.63 3.45-4.33-1.15 1.46-1.55 2.04-3.53 1.3-4.39-1.74-2.01-9.84 2.67-13.74 7.94-3.71 5.02-5.34 3.65-3.52-2.96 1.28-4.64 1.06-4.76-3.67-2.03-2.77 1.6-6.39 4.75-8.06 7-3.77 5.1-5.31 3.63-3.5-3.31 1.36-5.18 1.22-5.15-7.77 1.3-6.77 4.86-8.88 5.75-8.09 3.42 1.93-5.67-1.22-6.06-7.6-0.93-5.09 4.09-6.12 4.38-5.49 1.54 1.22-5.56-3.17-4.27-9.4 2.75-5.48 6.18-5.73 6.28-5.54 2.08 0.3-6.4-3.5-5.6-9.24 1.95-4.98 6.54-5.03 6.56-5.23 1.86-0.27-6.22-3.32-6.18-8.59 0.12-5.67 6.78-7.04 7.38-5.99 2.64 1.36-6.18-3.71-4.92-8.63 2.14-3.95 5.67-8.96 7.03-5.33 1.44 2.23-3.43-0.57-5.33-4.51-3.06-1.92 1.11-4.6 5.27-5.95 9.24-2.79 8.22-5.75 9.31-6.05 2.22-0.12-2.64-1.22-4.86-2.46-4.93-3.36-0.19-6.79 6.23-8.94 16.77-1.68 8.22-1.19 9.68 3.95 11.69 7.01 2.74 12.72 0.35 7.24-3.02-6.59-4.05-0.39-4.68 7.15-0.73 8.12 4.27 12.82 3.12 8.52-2.08-2.36-2.85-1.4-2.9 5.45-0.32l8.32 3.12-2.74-4.64c-3.65-6.19-0.6-7.54 7.04-3.11 7.84 4.54 16.07 2.91 8.71-1.73-2.91-1.83-3.99-3.65-2.63-4.44 1.27-0.73 3.37-0.16 4.67 1.27 2.57 2.83 11.92 5.01 14.67 3.42 0.95-0.54-0.24-2.4-2.64-4.14-2.39-1.73-3.47-3.66-2.4-4.28 1.08-0.61 2.77-0.18 3.77 0.98 1 1.15 5.32 2.48 9.6 2.95l7.79 0.85-5.49-4.19c-7.07-5.39-3.96-7.29 4.32-2.64 7.7 4.32 14.28 2.97 10.04-2.07-2.41-2.86-1.13-2.86 6.53 0.01 9.45 3.54 9.49 3.53 5.85-1-4.57-5.66 1.1-5.75 7.55-0.12 6.11 5.34 12.4 3.36 7.83-2.45-3.38-4.29-3.3-4.3 2.69-0.4 7.44 4.85 14.23 5.74 13.01 1.72-0.45-1.51-1.2-4.05-1.65-5.66-0.46-1.6 0.82-1.15 2.84 1.01 7.35 7.87 18.1 8.83 11.33 1-4.75-5.48 0.1-7.01 5.84-1.84 5.8 5.23 12.01 4.16 9.16-1.59-1.92-3.86-1.84-3.88 1.63-0.37 2.01 2.03 6.3 4.14 9.52 4.7 5.59 0.96 5.69 0.79 2.19-3.66l-3.68-4.68 7.31 3.57c8.76 4.28 14.8 3.15 10.96-2.03-2.64-3.56-2.6-3.6 1.06-0.97 2.1 1.51 5.98 2.7 8.63 2.66 3.91-0.07 4.38-0.63 2.46-2.96-2-2.42-1.4-2.57 3.79-0.98 4.08 1.25 5.91 1.01 5.42-0.7-0.49-1.73 0.75-2.76 3.7-3.12 2.45-0.29 5.57-0.98 6.95-1.55 1.38-0.56 5.9-2.41 10.05-4.1 4.14-1.69 13.21-4.9 20.16-7.12 6.95-2.23 12.17-4.59 11.6-5.24z" />
      <path
         id="path1407"
         style="fill:#ff0000"
         d="m342.04 469.19c1.18-1.33 1.24-3.46 0.15-4.73-1.1-1.26-1.19-5.79-0.21-10.05 0.97-4.27 0.35-9.41-1.4-11.42-3.91-4.52-4.73-4.08-7.27 3.8-1.83 5.7-2.08 5.9-2.83 2.21-1.33-6.47-5.73-13.69-7.67-12.57-0.97 0.57-2.64 3.18-3.7 5.8-1.83 4.52-2.14 4.43-5.79-1.75l-3.86-6.53-1.63 6.35c-1.85 7.27-5.5 8.32-5.78 1.67-0.43-9.73-8.52-11.1-10.31-1.76-0.75 3.9-1.49 3.41-5.91-3.95l-5.06-8.41-3.04 7.43c-2.66 6.46-3.16 6.9-3.88 3.37-2.53-12.35-8.67-14.85-9.92-4.04-0.78 6.85-4.2 6.65-5.75-0.34-2.25-10.1-5.56-11.21-7.77-2.6l-2.02 7.84-3.78-7.09c-4.37-8.17-10.23-8.91-11.76-1.48-0.93 4.49-1.1 4.51-3.07 0.29-1.15-2.47-3.76-4.91-5.8-5.44-4.42-1.15-7.77 3.07-4.99 6.29 1.08 1.24 0.58 2.43-1.12 2.64-1.7 0.2-3.86-1.55-4.81-3.91-2.24-5.57-8.56-4.77-9.53 1.2-0.69 4.24-1.18 4.15-5.73-0.99-5.63-6.36-8.98-5.76-8.49 1.5 0.29 4.49 0.08 4.44-2.53-0.59-3.46-6.65-10-6.68-10.94-0.04-0.59 4.16-1 4.14-4.82-0.27-4.21-4.86-11.13-3.88-10.1 1.43 0.27 1.4-0.88 1.11-2.55-0.66-3.73-3.92-9.84-3.49-10 0.71-0.09 2.2-1.55 2.17-5.19-0.12-5.66-3.57-10.25-2.33-6.96 1.88 1.67 2.14 0.96 2.3-3.37 0.71-3.04-1.12-6.54-0.9-7.84 0.49-1.29 1.38-2.89 1.87-3.57 1.09-0.67-0.77-2.41-0.14-3.87 1.42-1.45 1.56-3.33 2.04-4.17 1.07s-2.13-0.82-2.88 0.33c-0.74 1.14-2.59 1.76-4.11 1.37-3.39-0.88-9.713 2.55-8.109 4.41 0.644 0.74 5.899 1.74 11.689 2.23 5.78 0.49 10.28 1.57 10 2.4-0.28 0.82 2.02 0.16 5.11-1.48 3.95-2.1 4.62-2.1 2.26-0.01-5.47 4.85-1.5 6.1 5.86 1.86 7.71-4.46 11.11-2.92 5.5 2.49-5.82 5.62 0.87 5.58 7.98-0.05 5.17-4.1 5.88-4.29 3.79-1.05-3.38 5.25 0.98 6.17 8.66 1.83 5.31-3.01 5.78-2.96 3.47 0.4-4.22 6.13 2.09 5.93 10.37-0.33 7.32-5.54 7.41-5.54 4.49-0.25-4.47 8.1-1.43 9.05 8.16 2.55 9.49-6.44 13.03-6.16 5.46 0.43-8.82 7.68-2.71 8.17 7.69 0.61l9.61-6.97-2.84 5.96c-3.75 7.87 0.15 7.79 8.95-0.19l7.1-6.43-1.87 6.25c-2.25 7.5 0.84 8.26 6.99 1.72 5.72-6.1 8.59-5.94 6.85 0.38-2.12 7.69 0.01 7.88 9.56 0.88 8.54-6.25 8.74-6.29 5.84-1.11-4.62 8.23-1.43 9.17 7.99 2.36 8.91-6.44 13.28-6.27 6.15 0.24-3.97 3.63-3.89 3.85 1.23 3.14 3.03-0.41 6.64-1.97 8.04-3.47 1.4-1.49 3.07-2.1 3.72-1.35 0.64 0.74-0.49 2.97-2.53 4.93-6.16 5.96-2 6.52 8.66 1.17l10.07-5.05-5.05 5.81c-3.8 4.38-4.01 5.68-0.82 5.29 2.33-0.28 5.29-1.65 6.59-3.04s4.56-3.1 7.23-3.79c4.17-1.08 4.24-0.43 0.48 4.6-6.04 8.1-0.71 8.66 9.84 1.03l8.67-6.27-5.5 6.59c-7.28 8.73-2.19 9.77 8.87 1.81 8.46-6.08 8.53-6.09 2.5-0.36-3.42 3.25-5.07 6.46-3.71 7.18 2.57 1.35 16.88-5.24 20.63-9.5z" />
      <path
         id="path1405"
         style="fill:#ff0000"
         d="m346.81 419.75c0.35-1.76 0.02-5.09-0.72-7.4s0.19-5.7 2.08-7.52c3.54-3.42 3.57-9.69 0.05-9.89-1.09-0.06-3.98 2.83-6.41 6.42-5.22 7.69-6.6 7.09-4.88-2.12 1.5-8.05-3.71-7.54-7.26 0.72l-2.39 5.58 0.22-8.33c0.36-13.77-5.69-14.96-10.63-2.09l-2.52 6.55-0.87-7.96c-1.08-9.96-4.87-10.45-8.6-1.11-2.52 6.29-2.95 6.65-3.65 3.06-1.41-7.17-5.77-13.67-8.22-12.25-1.3 0.75-3.06 3.41-3.91 5.92-2.22 6.55-5.17 5.45-7.17-2.69-2.17-8.81-6.8-9.4-8.31-1.06l-1.14 6.28-1.44-7.54c-1.69-8.82-6.77-9.62-10.02-1.57-2.04 5.04-2.23 5.03-6.88-0.34-5.31-6.13-7.27-5.99-8.52 0.61-0.75 3.93-1.25 3.7-4.31-2.04-3.8-7.12-5.98-7.01-9 0.44-1.88 4.66-2.21 4.62-6.96-0.86-4.9-5.66-5.02-5.66-7.14-0.4-2.12 5.24-2.25 5.25-6.29 0.58-4.68-5.39-6.71-5.06-7.75 1.29-0.66 3.99-1.04 4.02-4.31 0.36-4.13-4.63-10.37-4.67-10.55-0.07-0.1 2.3-1.73 2.36-6.26 0.25-5.09-2.38-6.42-2.22-7.87 0.94-1.42 3.07-2.13 3.36-3.72 1.53-1.07-1.24-4.04-2.23-6.59-2.19-3.61 0.06-4.48 0.88-3.94 3.7 0.63 3.25 0.2 3.39-4.21 1.35-5.24-2.41-10.65-0.83-7.99 2.35 1.07 1.26 0.22 1.56-2.51 0.88-2.26-0.56-5.24-0.5-6.62 0.14s-2.88 1.18-3.34 1.19c-0.45 0.01-2.57 0.67-4.69 1.45-2.12 0.79-7.88 2.45-12.8 3.71-4.92 1.25-9.22 3.09-9.56 4.08-0.77 2.28 27.8 3.8 31.55 1.68 1.72-0.97 1.96-0.26 0.63 1.87-1.64 2.63-0.55 2.53 4.71-0.45 4.79-2.72 6.24-2.95 4.85-0.76-2.3 3.63 2.56 5.54 7.24 2.84 2.04-1.18 3.45-0.64 3.92 1.48 0.63 2.9 1.9 2.46 9.86-3.44 9.09-6.75 9.12-6.75 6.29-1.07-3.63 7.28-0.4 7.45 9.39 0.51 6.95-4.92 7.36-4.99 4.15-0.74-5.43 7.21-2.36 7.86 8.33 1.77 7.67-4.38 9.12-4.73 7.03-1.69-4.46 6.5-0.4 7.41 7.69 1.73 7.44-5.23 7.5-5.22 4.72 0.1-3.47 6.65 2.05 6.65 9.68 0.01 4.97-4.33 5.11-4.31 3.75 0.63-2.13 7.73-0.11 8.15 8.4 1.75l7.72-5.8-3.06 5.94c-3.02 5.86-2.98 5.92 2.51 4.22 3.07-0.95 8.12-3.79 11.23-6.32l5.65-4.61-4.46 6.63-4.45 6.63 10.89-5.08c9.08-4.24 10.22-4.39 6.84-0.94-6.09 6.22-2.9 7.32 7.24 2.48 7.8-3.72 8.47-3.74 4.94-0.18-5.75 5.8-3.38 7.07 6.34 3.39l8.31-3.15-5.21 5.22c-6.13 6.12-0.73 6.51 9.47 0.68 3.43-1.97 6.83-2.9 7.55-2.07s-0.73 2.69-3.22 4.13c-10.05 5.8 0.89 6.08 11.58 0.29 4.36-2.36 4.37-2.05 0.09 2.4-7.23 7.52-3.88 8.65 7.2 2.42 8.67-4.86 9.32-4.96 6.04-0.87-2.02 2.52-3.18 5.16-2.57 5.86 1.74 2.01 14.08-5.88 14.78-9.44z" />
      <path
         id="path1403"
         style="fill:#ff0000"
         d="m600.91 264.87c-1.64-1.89-23.67-0.25-27.67 2.06-1.49 0.86-4.54 0.58-6.77-0.62-2.23-1.21-5.52-1.35-7.3-0.32-1.79 1.03-3.67 0.94-4.2-0.21-0.52-1.14-3.93-1.11-7.58 0.08-3.65 1.18-5.42 1.35-3.93 0.36 5.39-3.56-0.07-4.71-6.03-1.27-4.76 2.75-5.86 2.78-4.97 0.15 1.89-5.56-0.53-6.04-8.17-1.63-6.84 3.95-7.1 3.92-4.75-0.58 2.31-4.44 1.88-4.42-6.52 0.36-6.99 3.98-8.73 4.37-7.84 1.74 2-5.88-1.05-6.35-7.52-1.15-5.24 4.2-6.13 4.43-5.45 1.37 1.04-4.74-4.26-4.26-9.56 0.86-3.29 3.18-4.06 3.13-5.11-0.3-1.39-4.54-4.61-3.46-9.54 3.21-2.81 3.8-3.32 3.83-4.41 0.28-1.51-4.95-6.01-2.8-10.46 5.01-3.05 5.34-3.15 5.37-3.34 0.8-0.17-3.88-0.84-4.35-3.77-2.66-1.95 1.13-5.29 4.84-7.41 8.25l-3.87 6.19 0.42-6.47c0.38-5.73 0.01-6.23-3.18-4.39-1.97 1.14-4.94 3.9-6.59 6.12-2.41 3.27-3.12 3.45-3.66 0.98-0.95-4.35-5.33-1.19-7.6 5.47-2.12 6.24-3.3 6.13-3.58-0.35-0.25-5.9-5.5-2.69-9.81 6.01l-3.28 6.62-0.71-5.45c-1.07-8.12-5.11-6.85-8.7 2.73-4.01 10.69-2.75 17.31 3.69 19.38 6.07 1.95 10-0.08 6.96-3.61-1.51-1.76 0.65-1.87 6.46-0.33 10.67 2.83 13.18 1.81 6.85-2.78-4.45-3.22-4.39-3.37 0.94-2.37 3.14 0.58 6.18 1.61 6.76 2.28 0.58 0.68 2.49 0.4 4.24-0.61 2.09-1.21 1.83-2.82-0.74-4.67-3.69-2.66-3.64-2.72 0.81-0.96 2.61 1.03 7.41 1.83 10.67 1.77 5.5-0.1 5.55-0.39 0.75-3.87-4.79-3.48-4.75-3.68 0.52-2.69 3.13 0.58 6.17 1.61 6.75 2.28 0.59 0.67 2.08 0.64 3.33-0.08 1.24-0.72 1.35-2.37 0.23-3.66-1.4-1.62 0.85-2.04 7.22-1.34l9.27 1.01-3.77-4.63-3.76-4.62 7.45 3.06c8.5 3.49 14.82 1.58 8.26-2.5-2.57-1.59-1.04-1.57 3.83 0.05 8.91 2.98 12.88 2.07 9.77-2.24-1.11-1.54 0.34-1.19 3.22 0.78 6.53 4.46 13.12 2.97 9.12-2.05-2.49-3.14-1.96-3.19 3.94-0.36 9.18 4.39 12.8 4.32 9.1-0.19-2.49-3.04-1.45-3.03 5.77 0.09 7.39 3.18 8.66 3.18 7.84 0-0.8-3.15 0.04-3.12 4.92 0.17 6.25 4.21 11.46 3.42 7.97-1.21-1.15-1.52 0.88-1.04 4.5 1.05 5.98 3.46 6.65 3.41 7.21-0.52 0.57-4.04 0.92-4.16 5-1.64 3.5 2.15 4.73 1.97 6.04-0.87 0.9-1.96 2.75-3.5 4.1-3.43 1.35 0.08 3.81-0.45 5.47-1.17 4.09-1.78 24.67-8.81 29.59-10.1 2.19-0.58 3.35-1.78 2.58-2.67z" />
      <path
         id="path1401"
         style="fill:#ff0000"
         d="m353.38 372.16c1.62-2.85 2.18-6.05 1.26-7.12-0.93-1.07-0.71-4.35 0.48-7.29 1.97-4.89 0.35-10.4-2.57-8.71-0.67 0.38-2.78 3.24-4.69 6.36-4.2 6.85-5.74 5.76-4.11-2.93 1.87-10.05-5.03-14.26-7.2-4.39-1.55 7.04-4.75 6.29-5.56-1.3-0.93-8.77-4.71-9.91-7.77-2.35-1.2 2.96-2.82 4.63-3.61 3.72-0.78-0.91-0.77-2.67 0.03-3.9s0.02-3.9-1.74-5.93c-3.74-4.32-9.8-1.81-9.69 4.01 0.11 6.01-4.21 4.39-5.04-1.89-0.94-7.25-4.78-7.29-7.84-0.08-2.4 5.66-2.44 5.68-3.27 1.69-1.68-8.03-3.19-10.62-5.43-9.33-1.26 0.73-1.96 2.83-1.56 4.68 0.51 2.35-0.39 3.29-3.03 3.14-2.63-0.15-3.89-2.33-4.2-7.28-0.58-9.32-6.56-9.94-9.44-0.96-1.14 3.57-2.44 5.17-2.88 3.55-2.93-10.66-3.56-11.54-6.92-9.6-1.88 1.08-3.46 3.02-3.51 4.29-0.17 4.46-4.51 5.01-4.7 0.6-0.1-2.35-1.1-5.34-2.23-6.64-2.61-3.02-9.2 0.66-8.33 4.66 1.25 5.74-3.11 5.16-6.39-0.84-3.6-6.59-6.38-6.46-7.5 0.37-0.64 3.86-1.39 3.62-6.36-2-6.14-6.96-8.14-7.03-9.25-0.32-0.63 3.87-1.33 3.69-6.07-1.59l-5.36-5.97-1.16 6.33c-1.13 6.17-1.23 6.25-4.04 3.09-3.81-4.28-9.28-6.73-11.8-5.27-1.11 0.64-1.14 2.19-0.06 3.43 2.87 3.32-1.41 4.96-5.84 2.24-4.08-2.5-9.79-0.66-7.2 2.33 0.86 0.98-1.09 1.35-4.34 0.8-4.59-0.77-5.94-0.31-6.14 2.09-0.19 2.45-1.27 2.94-5.32 2.4-2.8-0.37-5.16 0.28-5.25 1.44-0.1 1.21-6.7 4.65-15.44 8.03-8.39 3.25-17.6 7.19-20.45 8.76-8.47 4.66-3.44 6.04 6.7 1.84 5.16-2.13 10.85-3.94 12.66-4.02 1.8-0.07 5.52-1.08 8.26-2.23s7.83-1.84 11.32-1.52c3.83 0.34 7.51-0.68 9.29-2.59 2.47-2.64 2.8-2.51 2.07 0.8-0.74 3.38 0.06 3.42 5.53 0.26 4.97-2.87 6.14-2.94 5.24-0.31-2.01 5.94 1.08 6.33 7.84 1.01 5.14-4.04 5.99-4.32 3.92-1.27-3.67 5.39 1.07 6 9.38 1.2 5.55-3.2 6.78-3.31 6.17-0.52-0.98 4.43 2.32 4.61 9.94 0.54 3.94-2.1 4.85-2.18 2.64-0.22-6.87 6.08 1.65 6.36 12.53 0.42 4.99-2.73 4.99-2.73 1.28 1.9-5.04 6.27-1.09 7.73 9.29 3.44 5.46-2.26 6.77-2.4 3.63-0.4-9.84 6.28 0.11 6.94 11.12 0.75 4.91-2.77 4.93-2.75 2.4 2.1-2.18 4.19-1.89 4.81 2.08 4.35 2.54-0.29 7.2-1.96 10.35-3.72l5.73-3.19-3.51 4.9c-4.23 5.9-0.86 6.52 7.9 1.47 3.53-2.04 7-3.03 7.72-2.2s-1.3 3.02-4.49 4.86c-3.28 1.9-4.62 3.65-3.09 4.05 1.49 0.39 5.14-0.7 8.11-2.41 7.24-4.18 11.26-2.84 5.93 1.98-3.57 3.22-3.5 3.78 0.41 3.38 2.58-0.26 7.8-2.18 11.61-4.26l6.91-3.79-5.93 6.14c-6.99 7.24-3.81 8.21 6.81 2.07 4.15-2.39 8.14-3.68 8.86-2.85 0.72 0.84-1.24 2.99-4.36 4.78-7.61 4.4-4.84 6.91 3.93 3.56 10.61-4.05 12.82-4.54 8.57-1.88-6.4 3.98-1.91 5.53 7.27 2.5 6.36-2.09 7.33-2.05 3.74 0.17-5.01 3.11-6.76 7.59-2.72 6.97 7.67-1.17 15.84-5.77 18.48-10.38z" />
      <path
         id="path1399"
         style="fill:#ff0000"
         d="m556.8 217.86c-1.25-1.45-26.15 3.43-30.59 5.99-1.83 1.06-4.26 0.86-5.39-0.44-1.45-1.68-3.12-1.33-5.75 1.21-2.26 2.19-4.29 2.88-5.23 1.8-0.99-1.14-3.27-0.27-6.33 2.39-3.76 3.27-4.94 3.52-5.46 1.13-0.79-3.65-2.56-2.82-7.14 3.33-3.19 4.3-3.35 4.3-2.4-0.08 0.95-4.39 0.59-4.38-5.5 0.11-4.79 3.54-6.67 4.11-7.09 2.17-0.71-3.23-4.72-1.1-9.37 4.98-2.87 3.75-3.29 3.92-2.38 0.92 1.83-6.03-0.98-6.69-7.19-1.71-3.72 2.99-6.82 4.26-8.45 3.47-1.97-0.96-3.38-0.08-5.97 3.76-2.97 4.38-3.48 4.62-4.08 1.86-1.07-4.9-6.7-3-9.23 3.1-2.23 5.41-2.29 5.43-3.62 1.19-1.37-4.33-5.84-3.85-6.02 0.64-0.17 4.3-3.92 4.57-5.53 0.4-1.56-4.04-1.68-4-5.22 1.78-3.47 5.67-3.67 5.76-5.02 2.29-1.93-5-6.17-2.01-9.01 6.34-2.61 7.68 2.77 16.87 7.14 12.19 1.55-1.65 4.12-1.89 6.51-0.6 4.91 2.66 8.92 0.64 6.04-3.04-1.7-2.17-1.04-2.32 3.26-0.75 5.87 2.15 10.19 0.93 7.68-2.16-0.87-1.07 0.48-1.35 3.03-0.62 2.53 0.72 5.57 0.75 6.75 0.07 1.19-0.69 1.19-2.47 0.01-3.97-1.71-2.18-1.18-2.3 2.63-0.62 6.25 2.77 11.95 2.01 9.16-1.21-1.73-2.01-0.63-2.32 5.39-1.55 5.94 0.77 7.63 0.3 7.83-2.19 0.19-2.43 1.17-2.6 4.21-0.73 4.8 2.95 9.76 0.65 6.78-3.16-1.73-2.22-1.14-2.37 3.13-0.81 6.76 2.47 13.61 0.78 10.65-2.63-1.69-1.95-0.55-2.21 4.87-1.1l7.07 1.45-1.65-4.64-1.65-4.65 4.55 2.47c5.35 2.92 11.75 0.07 8.66-3.87-1.64-2.08-0.98-2.2 2.85-0.51 5.85 2.6 10.64 0.65 7.45-3.04-1.93-2.22-1.46-2.42 3.69-1.55 5.1 0.86 5.93 0.51 6.2-2.59 0.17-1.97 0.94-2.88 1.7-2.03 0.78 0.86 7.48-1.81 15.2-6.05 7.6-4.18 13.37-8.11 12.83-8.74z" />
      <path
         id="path1397"
         style="fill:#ff0000"
         d="m363.21 329.82c0.72-1.33 1.24-4.42 1.17-6.87-0.08-2.45-0.04-6.76 0.08-9.57 0.25-6.08-3.95-7.04-6.5-1.49-1.61 3.49-1.94 3.13-3.09-3.44-0.74-4.22-2.5-7.19-4.13-7-1.55 0.19-2.87 1.41-2.92 2.71-0.18 4.48-4.51 5.07-4.7 0.63-0.27-6.07-2.82-8.28-5.84-5.05-2.04 2.18-3.12 1.66-5.12-2.47-2.67-5.54-5.78-5.22-8.13 0.83-1.17 3.01-1.57 2.94-2.28-0.38-2.58-12.15-6.42-14.19-10.01-5.33-1.8 4.47-2.02 4.35-4.11-2.15-2.71-8.46-6.15-8.98-9.36-1.42-2.4 5.66-2.44 5.68-3.27 1.69-2.29-10.98-5.72-12.89-8.5-4.72-0.96 2.82-2 2.06-5.22-3.79-4.32-7.85-6.53-7.96-9.57-0.44-1.82 4.52-2.11 4.44-5.33-1.45-3.66-6.71-8.28-6.39-8.32 0.57-0.01 3.28-0.8 3.09-4.47-1.05-3.37-3.79-5.1-4.35-7.05-2.26-2.04 2.18-3.12 1.66-5.11-2.47-2.9-6.01-7.83-4.66-8.94 2.43-0.62 3.96-0.83 3.99-2.33 0.24-0.9-2.26-3.28-4.87-5.28-5.79-3.29-1.53-3.7-1.24-4.4 3.07-0.74 4.54-0.94 4.59-4.23 0.9-4.35-4.86-7.7-5.1-9.74-0.69-1.24 2.7-2.21 2.72-4.5 0.07-2.08-2.41-3.68-2.54-5.62-0.46-1.56 1.66-4.12 2.25-5.98 1.39-1.8-0.83-4.3-0.7-5.56 0.3s-11.03 3.53-21.71 5.62c-12.31 2.4-21.58 5.36-25.3 8.06-5.84 4.24-5.8 4.25 5.53 1.74 12.9-2.86 40.49-1.61 41.48 1.88 0.36 1.27 2.27 1.37 4.24 0.23s4.17-1.39 4.89-0.56 0.23 2.13-1.09 2.89c-1.32 0.77-1.06 1.74 0.58 2.16 1.72 0.45 5.48-1.23 8.85-3.94 3.62-2.91 5.84-3.84 5.78-2.43-0.05 1.25-1.56 3.13-3.36 4.17-6.48 3.74-0.68 4.53 8.89 1.2 7.01-2.43 8.33-2.48 4.65-0.19-7.17 4.47-1.75 6.61 7.32 2.89 7.04-2.89 7.14-2.85 2.83 1.05-6.48 5.84-0.19 6.37 9.75 0.82 7.75-4.34 8.14-4.35 4.77-0.15-6.41 7.99-0.96 8.26 10.65 0.53 2.08-1.38 4.36-1.83 5.07-1.01s-0.24 2.37-2.11 3.45c-7.67 4.43-0.1 4.61 7.81 0.18 7.85-4.39 8.27-4.41 4.9-0.22-5.11 6.37-2.73 7.87 5.2 3.29 8.04-4.63 13.16-3.95 7.96 1.06-6.06 5.86-1.94 6.78 7.32 1.64l8.6-4.79-5.05 5.95c-4.57 5.39-4.54 5.79 0.37 4.35 13-3.82 13.82-3.84 9.03-0.14-5.85 4.51-2.12 6.81 6.41 3.93 4.58-1.54 5.24-1.43 2.35 0.4-5.56 3.53-0.14 5.81 6.65 2.8 5.26-2.32 5.42-2.22 3.16 1.99-2.22 4.13-1.69 4.28 7.55 2.17 9.7-2.22 9.78-2.19 3.75 1.39-8.31 4.91-5.41 7.51 4.13 3.71 9.03-3.59 14.37-2.98 7.69 0.88-6.53 3.76-3.4 6.16 5.1 3.9 8.39-2.22 11.95-4.15 13.72-7.44z" />
      <path
         id="path1395"
         style="fill:#ff0000"
         d="m510.05 210.97c-0.64-0.74-6.3-0.22-12.59 1.16-6.28 1.38-12.27 1.52-13.32 0.31-1.16-1.33-2.94-1.08-4.55 0.63-1.45 1.56-3.21 2.18-3.91 1.37-0.7-0.8-2.8-0.58-4.67 0.5s-4.02 1.24-4.79 0.35c-0.83-0.96-3-0.07-5.33 2.19-2.9 2.8-3.9 3.02-3.82 0.86 0.09-2.13-1.01-1.93-4.03 0.74-2.86 2.54-4.74 2.99-6.07 1.45-1.37-1.58-3.07-1.13-5.86 1.57-2.9 2.8-3.9 3.03-3.82 0.87 0.09-2.14-1.01-1.94-4.03 0.74-2.28 2.02-4.74 2.98-5.47 2.14s-2.52-0.26-3.97 1.3c-1.46 1.56-3.26 2.13-4 1.27-0.76-0.88-2.98 0-5.06 2.01-2.12 2.05-4.29 2.88-5.09 1.96-2.37-2.73-8.05 1.97-7.85 6.49 0.26 6.14 3.73 9.32 7.68 7.05 1.86-1.08 4.05-1.21 4.84-0.29 0.8 0.92 2.57 0.47 3.95-1.01 1.37-1.47 4.07-1.94 5.99-1.05 2.6 1.2 3.77 0.8 4.58-1.58 0.81-2.37 2.41-2.96 6.28-2.3 4.82 0.82 5.01 0.66 2.68-2.2-1.46-1.8-1.23-2.81 0.56-2.42 1.69 0.36 5.6 0.05 8.7-0.69s6.27-1.49 7.05-1.66c0.78-0.18 4.15-1.15 7.48-2.16s6.5-1.32 7.06-0.68c0.55 0.63 4.18-0.9 8.08-3.42 3.89-2.52 9.02-4.99 11.39-5.48 7.77-1.62 23.11-8.64 21.91-10.02z" />
      <path
         id="path1393"
         style="fill:#ff0000"
         d="m374.41 282.71c2.56-11.37 1.56-13.9-3.69-9.25-3.34 2.96-3.78 2.75-4.41-2.11-0.55-4.18-1.45-5.16-4.05-4.39-2.15 0.64-4.02-0.7-5.25-3.75-1.58-3.93-2.42-4.2-4.86-1.59-2.44 2.62-2.98 2.44-3.13-1.07-0.26-6.02-2.82-8.22-5.84-5-2.05 2.2-3.12 1.65-5.21-2.67-2.46-5.11-2.82-5.17-5.95-0.94-3.14 4.25-3.48 4.19-6.06-1.15-2.29-4.74-3.19-5.16-5.59-2.59-2.4 2.56-3.31 2.15-5.54-2.47-2.25-4.66-3.13-5.04-5.6-2.4-2.33 2.5-3.73 2.19-6.96-1.54-3.45-3.98-4.31-4.1-5.82-0.83-1.51 3.29-2.39 3.12-6.05-1.1-4.21-4.86-4.33-4.85-6.45 0.39-2.11 5.23-2.25 5.26-5.64 1.34-1.91-2.2-4.49-3.42-5.74-2.7-1.24 0.72-3.15 0.29-4.22-0.95-1.09-1.26-3.98-1.11-6.5 0.35-2.99 1.73-5.4 1.6-7.1-0.36-1.75-2.02-3.42-2.07-5.22-0.14-1.68 1.79-3.42 1.94-4.75 0.4-1.16-1.33-3.05-1.88-4.21-1.21-2.37 1.37-9.16 1.17-20.55-0.6-9.45-1.47-28.9 2.63-26.35 5.56 0.91 1.05 5.89 1.5 11.05 1.01 5.17-0.49 10.03-0.18 10.8 0.7s4.6 1.88 8.51 2.21c3.92 0.33 6.87 1.35 6.56 2.25s1.52 1.1 4.06 0.43c3.57-0.94 4.44-0.41 3.83 2.35-0.62 2.8 0.62 3.21 5.81 1.9 3.63-0.92 5.36-0.88 3.85 0.07-4.95 3.11-0.27 4.83 4.98 1.83 4.16-2.37 4.72-2.27 3.01 0.53-1.88 3.06-1.59 3.39 2.57 2.97 2.58-0.26 6.76-1.62 9.28-3.02 4.26-2.36 4.4-2.26 1.93 1.33-3.32 4.83 0.77 6.13 7.4 2.35 3.72-2.13 4.48-2.06 3 0.27-2.67 4.22 2.86 5.35 9.05 1.87 4.5-2.54 4.74-2.44 2.37 1.01-3.9 5.68-0.99 7.17 6.13 3.15 6.07-3.44 6.19-3.4 3.73 1.31-2.5 4.81-2.46 4.84 3.3 2.82 6.96-2.44 9.28-0.74 4.53 3.33-2.55 2.18-0.87 2.38 6.63 0.78 5.69-1.21 8.34-1.12 6.12 0.21-5.46 3.28-2.95 5.16 4.82 3.6 5.19-1.03 5.73-0.81 2.64 1.09-6.25 3.86-1.87 5.74 7.93 3.39 8.79-2.1 8.91-2.05 3.96 1.63l-5.11 3.79 9-1.38c5.87-0.9 7.69-0.59 5.22 0.9-7.02 4.22-4.01 6.82 5.4 4.67 6.07-1.39 7.93-1.25 5.3 0.39-5.3 3.3-0.34 5.85 5.97 3.07 3.17-1.4 5.65-5.6 7.11-12.04z" />
      <path
         id="path1391"
         style="fill:#ff0000"
         d="m382.36 248.22c1.1-8.77-1.16-11.9-5.35-7.43-2.48 2.64-2.86 2.59-1.91-0.24 1.67-4.99-1.9-8.43-5.14-4.96-2.94 3.14-5.86 1.38-3.57-2.16 2.32-3.56-1-5.7-3.95-2.55-2.09 2.24-3.06 1.87-4.49-1.69-1.17-2.91-2.79-3.99-4.5-3.01-1.63 0.94-3.12 0.05-3.84-2.31-0.85-2.78-2.21-3.26-4.88-1.72-2.67 1.55-4.03 1.07-4.88-1.71-0.85-2.76-2.21-3.26-4.81-1.75-2.89 1.66-3.67 1.22-3.82-2.18-0.26-6.17-1.47-6.78-5.81-2.93-3.1 2.73-4.49 2.66-7.14-0.39-2.28-2.64-4.04-2.99-5.76-1.16-1.49 1.6-3.99 1.71-6.33 0.28-2.12-1.31-4.56-1.3-5.41 0.02-0.86 1.31-2.48 1.33-3.6 0.03-1.12-1.29-3.02-1.78-4.23-1.08-1.21 0.69-9.33-0.04-18.05-1.63-15.39-2.81-32.14-2.67-33.14 0.27-0.27 0.79 4.85 2.25 11.38 3.24 12.89 1.94 34.79 10.95 33.78 13.9-0.34 1 1.89 0.95 4.95-0.13 3.17-1.11 5.82-0.82 6.15 0.66 0.33 1.54 3.73 1.73 8.29 0.48 4.25-1.18 6.49-1.35 4.99-0.38-4.07 2.61-0.7 5.11 3.57 2.65 2.91-1.68 3.5-1.36 2.86 1.55-0.65 2.95 0.35 3.32 5.05 1.87 4.67-1.45 5.48-1.15 3.99 1.46-1.08 1.88-0.67 2.99 0.97 2.62 1.56-0.35 4.95-0.86 7.53-1.12 4.12-0.42 4.43-0.07 2.58 2.89-1.73 2.76-0.93 3.04 4.46 1.57 6.09-1.66 6.32-1.53 3.2 1.83-3.13 3.37-2.84 3.54 4.12 2.45 4.12-0.64 6.24-0.4 4.7 0.52-4.6 2.8-0.52 4.92 6.2 3.23 5.15-1.29 5.55-1.13 2.21 0.92-5.71 3.49-0.33 5.6 7.23 2.83l6.26-2.29-4.5 4.02c-2.53 2.25-3.24 4.35-1.62 4.77 5.37 1.39 11.37-4.11 12.26-11.24z" />
      <path
         id="path1389"
         style="fill:#ff0000"
         d="m475.71 196.82c8.55-5.68 13.91-12.75 7.06-9.31-12.39 6.22-18.12 8.36-19.9 7.44-1.12-0.59-3.17 0.16-4.57 1.65-1.39 1.49-3.08 2.06-3.76 1.28-0.69-0.79-4.2 0.45-7.81 2.76-3.6 2.31-7.1 3.57-7.76 2.8-0.67-0.77-2.23-0.36-3.48 0.9-1.24 1.26-6.51 3.56-11.71 5.11-11.89 3.54-16.51 7.33-15 12.29 1.47 4.78 3.31 4.94 10.95 0.95 3.3-1.72 6.32-2.77 6.71-2.32 0.38 0.44 2.58-0.12 4.87-1.25 20.84-10.28 32.28-15.71 33.87-16.1 1.05-0.26 5.78-3.05 10.53-6.2z" />
      <path
         id="path1387"
         style="fill:#ff0000"
         d="m390.65 218.01c-0.16-3.59-1.1-4.59-3.99-4.24-2.08 0.25-3.74-0.7-3.68-2.12 0.05-1.42-0.95-1.97-2.23-1.23s-2.62-0.02-2.99-1.68c-0.36-1.66-1.89-2.3-3.4-1.43-1.52 0.88-3.01 0.42-3.32-1.01s-3.1-3.07-6.2-3.65c-3.09-0.58-6.39-1.94-7.33-3.02-1.62-1.87-6.21-2.72-28.98-5.33-10.55-1.21-14.78 1.47-6.51 4.13 2.65 0.85 6.81 3.2 9.24 5.22 2.44 2.02 6.42 3.42 8.86 3.13 2.43-0.3 4.15-0.09 3.82 0.46-0.52 0.85 7.05 5.66 10.81 6.86 0.69 0.22 3.33 1.5 5.86 2.85 2.53 1.34 5.47 1.94 6.54 1.32 1.06-0.61 2.22 0.25 2.58 1.91 0.37 1.66 1.9 2.3 3.41 1.43 1.51-0.88 3.05-0.25 3.4 1.4 0.38 1.74 3.01 2.59 6.28 2.04 7.65-1.29 8.06-1.66 7.83-7.04z" />
    </g>
  </g>
  <metadata
     id="metadata38">
    <rdf:RDF>
      <cc:Work>
        <dc:format>image/svg+xml</dc:format>
        <dc:type
           rdf:resource="http://purl.org/dc/dcmitype/StillImage" />
        <cc:license
           rdf:resource="http://creativecommons.org/licenses/publicdomain/" />
        <dc:publisher>
          <cc:Agent
             rdf:about="http://openclipart.org/">
            <dc:title>Openclipart</dc:title>
          </cc:Agent>
        </dc:publisher>
        <dc:date>2006-09-04T19:57:52</dc:date>
        <dc:description>a green fern</dc:description>
        <dc:source>https://openclipart.org/detail/91/fern-by-molumen</dc:source>
        <dc:creator>
          <cc:Agent>
            <dc:title>molumen</dc:title>
          </cc:Agent>
        </dc:creator>
        <dc:subject>
          <rdf:Bag>
            <rdf:li>fern</rdf:li>
            <rdf:li>forest</rdf:li>
            <rdf:li>frond</rdf:li>
            <rdf:li>green</rdf:li>
            <rdf:li>leaf</rdf:li>
            <rdf:li>photosynthesis</rdf:li>
            <rdf:li>remix problem</rdf:li>
            <rdf:li>tree</rdf:li>
            <rdf:li>vegetal</rdf:li>
          </rdf:Bag>
        </dc:subject>
      </cc:Work>
      <cc:License
         rdf:about="http://creativecommons.org/licenses/publicdomain/">
        <cc:permits
           rdf:resource="http://creativecommons.org/ns#Reproduction" />
        <cc:permits
           rdf:resource="http://creativecommons.org/ns#Distribution" />
        <cc:permits
           rdf:resource="http://creativecommons.org/ns#DerivativeWorks" />
      </cc:License>
    </rdf:RDF>
  </metadata>
</svg>
